<?xml version="1.0" encoding="UTF-8" standalone="no"?>
<!DOCTYPE svg PUBLIC "-//W3C//DTD SVG 1.1//EN"
 "http://www.w3.org/Graphics/SVG/1.1/DTD/svg11.dtd">
<!-- Generated by graphviz version 2.43.0 (0)
 -->
<!-- Title: adiar::terminal_arc_stream&lt; REVERSE &gt; Pages: 1 -->
<svg width="280pt" height="184pt"
 viewBox="0.00 0.00 280.00 184.00" xmlns="http://www.w3.org/2000/svg" xmlns:xlink="http://www.w3.org/1999/xlink">
<g id="graph0" class="graph" transform="scale(1 1) rotate(0) translate(4 180)">
<title>adiar::terminal_arc_stream&lt; REVERSE &gt;</title>
<!-- Node1 -->
<g id="node1" class="node">
<title>Node1</title>
<g id="a_node1"><a xlink:title="Stream for terminal arcs of an arc file.">
<polygon fill="#bfbfbf" stroke="black" points="68.5,-0.5 68.5,-30.5 191.5,-30.5 191.5,-0.5 68.5,-0.5"/>
<text text-anchor="start" x="76.5" y="-18.5" font-family="Helvetica,sans-Serif" font-size="10.00">adiar::terminal_arc</text>
<text text-anchor="middle" x="130" y="-7.5" font-family="Helvetica,sans-Serif" font-size="10.00">_stream&lt; REVERSE &gt;</text>
</a>
</g>
</g>
<!-- Node2 -->
<g id="node2" class="node">
<title>Node2</title>
<g id="a_node2"><a xlink:href="classadiar_1_1meta__file__stream.html" target="_top" xlink:title="File stream of files with meta information.">
<polygon fill="none" stroke="black" points="0,-67.5 0,-97.5 116,-97.5 116,-67.5 0,-67.5"/>
<text text-anchor="start" x="8" y="-85.5" font-family="Helvetica,sans-Serif" font-size="10.00">in_order_arc_stream</text>
<text text-anchor="middle" x="58" y="-74.5" font-family="Helvetica,sans-Serif" font-size="10.00">&lt; false &gt;</text>
</a>
</g>
</g>
<!-- Node2&#45;&gt;Node1 -->
<g id="edge1" class="edge">
<title>Node2&#45;&gt;Node1</title>
<path fill="none" stroke="#8b1a1a" d="M81.15,-60.6C92.02,-50.78 104.7,-39.34 114.41,-30.58"/>
<polygon fill="#8b1a1a" stroke="#8b1a1a" points="78.7,-58.1 73.62,-67.4 83.39,-63.29 78.7,-58.1"/>
</g>
<!-- Node3 -->
<g id="node3" class="node">
<title>Node3</title>
<g id="a_node3"><a xlink:href="classadiar_1_1file__stream.html" target="_top" xlink:title=" ">
<polygon fill="none" stroke="black" points="67,-134.5 67,-175.5 193,-175.5 193,-134.5 67,-134.5"/>
<text text-anchor="start" x="75" y="-163.5" font-family="Helvetica,sans-Serif" font-size="10.00">adiar::file_stream</text>
<text text-anchor="start" x="75" y="-152.5" font-family="Helvetica,sans-Serif" font-size="10.00">&lt; T, false, __meta_file</text>
<text text-anchor="middle" x="130" y="-141.5" font-family="Helvetica,sans-Serif" font-size="10.00">&lt; T &gt; &gt;</text>
</a>
</g>
</g>
<!-- Node3&#45;&gt;Node2 -->
<g id="edge2" class="edge">
<title>Node3&#45;&gt;Node2</title>
<path fill="none" stroke="midnightblue" d="M102.74,-127.31C92.54,-117.32 81.34,-106.35 72.7,-97.89"/>
<polygon fill="midnightblue" stroke="midnightblue" points="100.35,-129.87 109.94,-134.36 105.25,-124.86 100.35,-129.87"/>
</g>
<!-- Node4 -->
<g id="node4" class="node">
<title>Node4</title>
<g id="a_node4"><a xlink:href="classadiar_1_1meta__file__stream.html" target="_top" xlink:title="File stream of files with meta information.">
<polygon fill="none" stroke="black" points="134,-67.5 134,-97.5 272,-97.5 272,-67.5 134,-67.5"/>
<text text-anchor="start" x="142" y="-85.5" font-family="Helvetica,sans-Serif" font-size="10.00">out_of_order_arc_stream</text>
<text text-anchor="middle" x="203" y="-74.5" font-family="Helvetica,sans-Serif" font-size="10.00">&lt; false &gt;</text>
</a>
</g>
</g>
<!-- Node3&#45;&gt;Node4 -->
<g id="edge4" class="edge">
<title>Node3&#45;&gt;Node4</title>
<path fill="none" stroke="midnightblue" d="M157.64,-127.31C167.98,-117.32 179.34,-106.35 188.1,-97.89"/>
<polygon fill="midnightblue" stroke="midnightblue" points="155.1,-124.9 150.33,-134.36 159.96,-129.93 155.1,-124.9"/>
</g>
<!-- Node4&#45;&gt;Node1 -->
<g id="edge3" class="edge">
<title>Node4&#45;&gt;Node1</title>
<path fill="none" stroke="#8b1a1a" d="M179.53,-60.6C168.5,-50.78 155.66,-39.34 145.81,-30.58"/>
<polygon fill="#8b1a1a" stroke="#8b1a1a" points="177.36,-63.36 187.16,-67.4 182.02,-58.13 177.36,-63.36"/>
</g>
</g>
</svg>
