<?xml version="1.0" encoding="UTF-8" standalone="no"?>
<!DOCTYPE svg PUBLIC "-//W3C//DTD SVG 1.1//EN"
 "http://www.w3.org/Graphics/SVG/1.1/DTD/svg11.dtd">
<!-- Generated by graphviz version 2.43.0 (0)
 -->
<!-- Title: adiar::internal::__dd Pages: 1 -->
<svg width="178pt" height="82pt"
 viewBox="0.00 0.00 177.50 82.00" xmlns="http://www.w3.org/2000/svg" xmlns:xlink="http://www.w3.org/1999/xlink">
<g id="graph0" class="graph" transform="scale(1 1) rotate(0) translate(4 78)">
<title>adiar::internal::__dd</title>
<!-- Node1 -->
<g id="Node000001" class="node">
<title>Node1</title>
<g id="a_Node000001"><a xlink:title=" ">
<polygon fill="#999999" stroke="#666666" points="141.5,-74 28.5,-74 28.5,-55 141.5,-55 141.5,-74"/>
<text text-anchor="middle" x="85" y="-62" font-family="Helvetica,sans-Serif" font-size="10.00">adiar::internal::__dd</text>
</a>
</g>
</g>
<!-- Node2 -->
<g id="Node000002" class="node">
<title>Node2</title>
<g id="a_Node000002"><a xlink:href="classadiar_1_1____bdd.html" target="_top" xlink:title="A (possibly) unreduced Binary Decision Diagram.">
<polygon fill="white" stroke="#666666" points="76,-19 0,-19 0,0 76,0 76,-19"/>
<text text-anchor="middle" x="38" y="-7" font-family="Helvetica,sans-Serif" font-size="10.00">adiar::__bdd</text>
</a>
</g>
</g>
<!-- Node1&#45;&gt;Node2 -->
<g id="edge1_Node000001_Node000002" class="edge">
<title>Node1&#45;&gt;Node2</title>
<g id="a_edge1_Node000001_Node000002"><a xlink:title=" ">
<path fill="none" stroke="#63b8ff" d="M70.58,-47.24C62.34,-37.95 52.35,-26.68 45.62,-19.09"/>
<polygon fill="#63b8ff" stroke="#63b8ff" points="67.99,-49.59 77.24,-54.75 73.22,-44.94 67.99,-49.59"/>
</a>
</g>
</g>
<!-- Node3 -->
<g id="Node000003" class="node">
<title>Node3</title>
<g id="a_Node000003"><a xlink:href="classadiar_1_1____zdd.html" target="_top" xlink:title="A (possibly unreduced) Zero&#45;suppressed Decision Diagram.">
<polygon fill="white" stroke="#666666" points="169.5,-19 94.5,-19 94.5,0 169.5,0 169.5,-19"/>
<text text-anchor="middle" x="132" y="-7" font-family="Helvetica,sans-Serif" font-size="10.00">adiar::__zdd</text>
</a>
</g>
</g>
<!-- Node1&#45;&gt;Node3 -->
<g id="edge2_Node000001_Node000003" class="edge">
<title>Node1&#45;&gt;Node3</title>
<g id="a_edge2_Node000001_Node000003"><a xlink:title=" ">
<path fill="none" stroke="#63b8ff" d="M99.42,-47.24C107.66,-37.95 117.65,-26.68 124.38,-19.09"/>
<polygon fill="#63b8ff" stroke="#63b8ff" points="96.78,-44.94 92.76,-54.75 102.01,-49.59 96.78,-44.94"/>
</a>
</g>
</g>
</g>
</svg>
