<?xml version="1.0" encoding="UTF-8" standalone="no"?>
<!DOCTYPE svg PUBLIC "-//W3C//DTD SVG 1.1//EN"
 "http://www.w3.org/Graphics/SVG/1.1/DTD/svg11.dtd">
<!-- Generated by graphviz version 2.43.0 (0)
 -->
<!-- Title: adiar::zdd Pages: 1 -->
<svg width="128pt" height="84pt"
 viewBox="0.00 0.00 127.50 84.00" xmlns="http://www.w3.org/2000/svg" xmlns:xlink="http://www.w3.org/1999/xlink">
<g id="graph0" class="graph" transform="scale(1 1) rotate(0) translate(4 80)">
<title>adiar::zdd</title>
<!-- Node1 -->
<g id="node1" class="node">
<title>Node1</title>
<g id="a_node1"><a xlink:title="Reduced Ordered Zero&#45;suppressed Decision Diagram.">
<polygon fill="#bfbfbf" stroke="black" points="16,-0.5 16,-19.5 81,-19.5 81,-0.5 16,-0.5"/>
<text text-anchor="middle" x="48.5" y="-7.5" font-family="Helvetica,sans-Serif" font-size="10.00">adiar::zdd</text>
</a>
</g>
</g>
<!-- Node2 -->
<g id="node2" class="node">
<title>Node2</title>
<g id="a_node2"><a xlink:title=" ">
<polygon fill="none" stroke="#bfbfbf" points="0,-56.5 0,-75.5 29,-75.5 29,-56.5 0,-56.5"/>
<text text-anchor="middle" x="14.5" y="-63.5" font-family="Helvetica,sans-Serif" font-size="10.00">dd</text>
</a>
</g>
</g>
<!-- Node2&#45;&gt;Node1 -->
<g id="edge1" class="edge">
<title>Node2&#45;&gt;Node1</title>
<path fill="none" stroke="midnightblue" d="M25.48,-47.57C31.33,-38.27 38.27,-27.25 42.99,-19.75"/>
<polygon fill="midnightblue" stroke="midnightblue" points="22.48,-45.76 20.11,-56.08 28.4,-49.49 22.48,-45.76"/>
</g>
<!-- Node3 -->
<g id="node3" class="node">
<title>Node3</title>
<g id="a_node3"><a xlink:title=" ">
<polygon fill="none" stroke="#bfbfbf" points="47.5,-56.5 47.5,-75.5 119.5,-75.5 119.5,-56.5 47.5,-56.5"/>
<text text-anchor="middle" x="83.5" y="-63.5" font-family="Helvetica,sans-Serif" font-size="10.00">internal::dd</text>
</a>
</g>
</g>
<!-- Node3&#45;&gt;Node1 -->
<g id="edge2" class="edge">
<title>Node3&#45;&gt;Node1</title>
<path fill="none" stroke="midnightblue" d="M72.2,-47.57C66.18,-38.27 59.03,-27.25 54.17,-19.75"/>
<polygon fill="midnightblue" stroke="midnightblue" points="69.34,-49.6 77.72,-56.08 75.22,-45.79 69.34,-49.6"/>
</g>
</g>
</svg>
