<?xml version="1.0" encoding="UTF-8" standalone="no"?>
<!DOCTYPE svg PUBLIC "-//W3C//DTD SVG 1.1//EN"
 "http://www.w3.org/Graphics/SVG/1.1/DTD/svg11.dtd">
<!-- Generated by graphviz version 2.43.0 (0)
 -->
<!-- Title: adiar::zdd Pages: 1 -->
<svg width="142pt" height="84pt"
 viewBox="0.00 0.00 142.00 84.00" xmlns="http://www.w3.org/2000/svg" xmlns:xlink="http://www.w3.org/1999/xlink">
<g id="graph0" class="graph" transform="scale(1 1) rotate(0) translate(4 80)">
<title>adiar::zdd</title>
<!-- Node1 -->
<g id="node1" class="node">
<title>Node1</title>
<g id="a_node1"><a xlink:title="Reduced Ordered Zero&#45;suppressed Decision Diagram.">
<polygon fill="#bfbfbf" stroke="black" points="34.5,-0.5 34.5,-19.5 99.5,-19.5 99.5,-0.5 34.5,-0.5"/>
<text text-anchor="middle" x="67" y="-7.5" font-family="Helvetica,sans-Serif" font-size="10.00">adiar::zdd</text>
</a>
</g>
</g>
<!-- Node2 -->
<g id="node2" class="node">
<title>Node2</title>
<g id="a_node2"><a xlink:href="classadiar_1_1decision__diagram.html" target="_top" xlink:title=" ">
<polygon fill="none" stroke="black" points="0,-56.5 0,-75.5 134,-75.5 134,-56.5 0,-56.5"/>
<text text-anchor="middle" x="67" y="-63.5" font-family="Helvetica,sans-Serif" font-size="10.00">adiar::decision_diagram</text>
</a>
</g>
</g>
<!-- Node2&#45;&gt;Node1 -->
<g id="edge1" class="edge">
<title>Node2&#45;&gt;Node1</title>
<path fill="none" stroke="midnightblue" d="M60.53,-46.1C59.9,-37.14 60.34,-26.86 61.87,-19.75"/>
<polygon fill="midnightblue" stroke="midnightblue" points="57.07,-46.62 61.83,-56.08 64.01,-45.71 57.07,-46.62"/>
</g>
<!-- Node2&#45;&gt;Node1 -->
<g id="edge2" class="edge">
<title>Node2&#45;&gt;Node1</title>
<path fill="none" stroke="midnightblue" d="M73.47,-46.1C74.1,-37.14 73.66,-26.86 72.13,-19.75"/>
<polygon fill="midnightblue" stroke="midnightblue" points="69.99,-45.71 72.17,-56.08 76.93,-46.62 69.99,-45.71"/>
</g>
</g>
</svg>
