<?xml version="1.0" encoding="UTF-8" standalone="no"?>
<!DOCTYPE svg PUBLIC "-//W3C//DTD SVG 1.1//EN"
 "http://www.w3.org/Graphics/SVG/1.1/DTD/svg11.dtd">
<!-- Generated by graphviz version 2.43.0 (0)
 -->
<!-- Title: adiar::internal::request&lt; CARDINALITY, NODE_CARRY_SIZE, INPUTS &gt; Pages: 1 -->
<svg width="395pt" height="100pt"
 viewBox="0.00 0.00 395.00 99.50" xmlns="http://www.w3.org/2000/svg" xmlns:xlink="http://www.w3.org/1999/xlink">
<g id="graph0" class="graph" transform="scale(1 1) rotate(0) translate(4 95.5)">
<title>adiar::internal::request&lt; CARDINALITY, NODE_CARRY_SIZE, INPUTS &gt;</title>
<!-- Node1 -->
<g id="node1" class="node">
<title>Node1</title>
<g id="a_node1"><a xlink:title="Request struct for the top&#45;down sweep time&#45;forwarding algorithms.">
<polygon fill="#bfbfbf" stroke="black" points="222,-22 222,-63 387,-63 387,-22 222,-22"/>
<text text-anchor="start" x="230" y="-51" font-family="Helvetica,sans-Serif" font-size="10.00">adiar::internal::request</text>
<text text-anchor="start" x="230" y="-40" font-family="Helvetica,sans-Serif" font-size="10.00">&lt; CARDINALITY, NODE_CARRY</text>
<text text-anchor="middle" x="304.5" y="-29" font-family="Helvetica,sans-Serif" font-size="10.00">_SIZE, INPUTS &gt;</text>
</a>
</g>
</g>
<!-- Node2 -->
<g id="node2" class="node">
<title>Node2</title>
<g id="a_node2"><a xlink:href="classadiar_1_1internal_1_1tuple.html" target="_top" xlink:title=" ">
<polygon fill="none" stroke="black" points="6,-50 6,-91 122,-91 122,-50 6,-50"/>
<text text-anchor="start" x="14" y="-79" font-family="Helvetica,sans-Serif" font-size="10.00">adiar::internal::tuple</text>
<text text-anchor="start" x="14" y="-68" font-family="Helvetica,sans-Serif" font-size="10.00">&lt; ptr_t, cardinality,</text>
<text text-anchor="middle" x="64" y="-57" font-family="Helvetica,sans-Serif" font-size="10.00"> sorted_target &gt;</text>
</a>
</g>
</g>
<!-- Node2&#45;&gt;Node1 -->
<g id="edge1" class="edge">
<title>Node2&#45;&gt;Node1</title>
<path fill="none" stroke="#9a32cd" stroke-dasharray="5,2" d="M132.14,-62.62C159.92,-59.36 192.41,-55.54 221.58,-52.12"/>
<polygon fill="#9a32cd" stroke="#9a32cd" points="131.65,-59.15 122.13,-63.79 132.47,-66.1 131.65,-59.15"/>
<text text-anchor="middle" x="175" y="-63.5" font-family="Helvetica,sans-Serif" font-size="10.00"> target</text>
</g>
<!-- Node3 -->
<g id="node3" class="node">
<title>Node3</title>
<g id="a_node3"><a xlink:href="classadiar_1_1internal_1_1tuple.html" target="_top" xlink:title=" ">
<polygon fill="none" stroke="black" points="0,-0.5 0,-30.5 128,-30.5 128,-0.5 0,-0.5"/>
<text text-anchor="start" x="8" y="-18.5" font-family="Helvetica,sans-Serif" font-size="10.00">adiar::internal::tuple</text>
<text text-anchor="middle" x="64" y="-7.5" font-family="Helvetica,sans-Serif" font-size="10.00">&lt; ptr_t, OUTDEGREE &gt;</text>
</a>
</g>
</g>
<!-- Node3&#45;&gt;Node1 -->
<g id="edge2" class="edge">
<title>Node3&#45;&gt;Node1</title>
<path fill="none" stroke="#9a32cd" stroke-dasharray="5,2" d="M138.24,-23.79C164.72,-26.79 194.76,-30.19 221.9,-33.26"/>
<polygon fill="#9a32cd" stroke="#9a32cd" points="138.62,-20.31 128.29,-22.66 137.83,-27.27 138.62,-20.31"/>
<text text-anchor="middle" x="175" y="-34.5" font-family="Helvetica,sans-Serif" font-size="10.00"> node_carry</text>
</g>
</g>
</svg>
