<?xml version="1.0" encoding="UTF-8" standalone="no"?>
<!DOCTYPE svg PUBLIC "-//W3C//DTD SVG 1.1//EN"
 "http://www.w3.org/Graphics/SVG/1.1/DTD/svg11.dtd">
<!-- Generated by graphviz version 2.43.0 (0)
 -->
<!-- Title: adiar::internal::dd Pages: 1 -->
<svg width="156pt" height="82pt"
 viewBox="0.00 0.00 156.00 82.00" xmlns="http://www.w3.org/2000/svg" xmlns:xlink="http://www.w3.org/1999/xlink">
<g id="graph0" class="graph" transform="scale(1 1) rotate(0) translate(4 78)">
<title>adiar::internal::dd</title>
<!-- Node1 -->
<g id="Node000001" class="node">
<title>Node1</title>
<g id="a_Node000001"><a xlink:title="Container for the files that represent a Decision Diagram.">
<polygon fill="#999999" stroke="#666666" points="125,-74 22,-74 22,-55 125,-55 125,-74"/>
<text text-anchor="middle" x="73.5" y="-62" font-family="Helvetica,sans-Serif" font-size="10.00">adiar::internal::dd</text>
</a>
</g>
</g>
<!-- Node2 -->
<g id="Node000002" class="node">
<title>Node2</title>
<g id="a_Node000002"><a xlink:href="classadiar_1_1bdd.html" target="_top" xlink:title="A reduced Binary Decision Diagram.">
<polygon fill="white" stroke="#666666" points="65,-19 0,-19 0,0 65,0 65,-19"/>
<text text-anchor="middle" x="32.5" y="-7" font-family="Helvetica,sans-Serif" font-size="10.00">adiar::bdd</text>
</a>
</g>
</g>
<!-- Node1&#45;&gt;Node2 -->
<g id="edge1_Node000001_Node000002" class="edge">
<title>Node1&#45;&gt;Node2</title>
<g id="a_edge1_Node000001_Node000002"><a xlink:title=" ">
<path fill="none" stroke="#63b8ff" d="M60.48,-46.67C53.38,-37.5 44.9,-26.52 39.14,-19.09"/>
<polygon fill="#63b8ff" stroke="#63b8ff" points="57.84,-48.98 66.73,-54.75 63.38,-44.7 57.84,-48.98"/>
</a>
</g>
</g>
<!-- Node3 -->
<g id="Node000003" class="node">
<title>Node3</title>
<g id="a_Node000003"><a xlink:href="classadiar_1_1zdd.html" target="_top" xlink:title="Reduced Ordered Zero&#45;suppressed Decision Diagram.">
<polygon fill="white" stroke="#666666" points="148,-19 83,-19 83,0 148,0 148,-19"/>
<text text-anchor="middle" x="115.5" y="-7" font-family="Helvetica,sans-Serif" font-size="10.00">adiar::zdd</text>
</a>
</g>
</g>
<!-- Node1&#45;&gt;Node3 -->
<g id="edge2_Node000001_Node000003" class="edge">
<title>Node1&#45;&gt;Node3</title>
<g id="a_edge2_Node000001_Node000003"><a xlink:title=" ">
<path fill="none" stroke="#63b8ff" d="M86.83,-46.67C94.11,-37.5 102.8,-26.52 108.69,-19.09"/>
<polygon fill="#63b8ff" stroke="#63b8ff" points="83.9,-44.74 80.44,-54.75 89.39,-49.08 83.9,-44.74"/>
</a>
</g>
</g>
</g>
</svg>
