<?xml version="1.0" encoding="UTF-8" standalone="no"?>
<!DOCTYPE svg PUBLIC "-//W3C//DTD SVG 1.1//EN"
 "http://www.w3.org/Graphics/SVG/1.1/DTD/svg11.dtd">
<!-- Generated by graphviz version 2.43.0 (0)
 -->
<!-- Title: adiar::zdd Pages: 1 -->
<svg width="142pt" height="209pt"
 viewBox="0.00 0.00 142.00 209.00" xmlns="http://www.w3.org/2000/svg" xmlns:xlink="http://www.w3.org/1999/xlink">
<g id="graph0" class="graph" transform="scale(1 1) rotate(0) translate(4 205)">
<title>adiar::zdd</title>
<!-- Node1 -->
<g id="node1" class="node">
<title>Node1</title>
<g id="a_node1"><a xlink:title="Reduced Ordered Zero&#45;suppressed Decision Diagram.">
<polygon fill="#bfbfbf" stroke="black" points="34.5,-0.5 34.5,-19.5 99.5,-19.5 99.5,-0.5 34.5,-0.5"/>
<text text-anchor="middle" x="67" y="-7.5" font-family="Helvetica,sans-Serif" font-size="10.00">adiar::zdd</text>
</a>
</g>
</g>
<!-- Node2 -->
<g id="node2" class="node">
<title>Node2</title>
<g id="a_node2"><a xlink:href="classadiar_1_1decision__diagram.html" target="_top" xlink:title=" ">
<polygon fill="none" stroke="black" points="0,-57.5 0,-76.5 134,-76.5 134,-57.5 0,-57.5"/>
<text text-anchor="middle" x="67" y="-64.5" font-family="Helvetica,sans-Serif" font-size="10.00">adiar::decision_diagram</text>
</a>
</g>
</g>
<!-- Node2&#45;&gt;Node1 -->
<g id="edge1" class="edge">
<title>Node2&#45;&gt;Node1</title>
<path fill="none" stroke="midnightblue" d="M60.58,-47.42C59.87,-38.05 60.31,-27.14 61.91,-19.71"/>
<polygon fill="midnightblue" stroke="midnightblue" points="57.12,-47.97 61.94,-57.41 64.05,-47.03 57.12,-47.97"/>
</g>
<!-- Node2&#45;&gt;Node1 -->
<g id="edge4" class="edge">
<title>Node2&#45;&gt;Node1</title>
<path fill="none" stroke="midnightblue" d="M73.42,-47.42C74.13,-38.05 73.69,-27.14 72.09,-19.71"/>
<polygon fill="midnightblue" stroke="midnightblue" points="69.95,-47.03 72.06,-57.41 76.88,-47.97 69.95,-47.03"/>
</g>
<!-- Node3 -->
<g id="node3" class="node">
<title>Node3</title>
<g id="a_node3"><a xlink:href="classadiar_1_1node__file.html" target="_top" xlink:title="File of nodes to represent a reduced decision diagram.">
<polygon fill="none" stroke="black" points="21,-124.5 21,-143.5 113,-143.5 113,-124.5 21,-124.5"/>
<text text-anchor="middle" x="67" y="-131.5" font-family="Helvetica,sans-Serif" font-size="10.00">adiar::node_file</text>
</a>
</g>
</g>
<!-- Node3&#45;&gt;Node2 -->
<g id="edge2" class="edge">
<title>Node3&#45;&gt;Node2</title>
<path fill="none" stroke="#9a32cd" stroke-dasharray="5,2" d="M67,-114.04C67,-101.67 67,-86.12 67,-76.63"/>
<polygon fill="#9a32cd" stroke="#9a32cd" points="63.5,-114.23 67,-124.23 70.5,-114.23 63.5,-114.23"/>
<text text-anchor="middle" x="76.5" y="-98" font-family="Helvetica,sans-Serif" font-size="10.00"> file</text>
</g>
<!-- Node4 -->
<g id="node4" class="node">
<title>Node4</title>
<g id="a_node4"><a xlink:href="classadiar_1_1____shared__file.html" target="_top" xlink:title=" ">
<polygon fill="none" stroke="black" points="8,-181.5 8,-200.5 126,-200.5 126,-181.5 8,-181.5"/>
<text text-anchor="middle" x="67" y="-188.5" font-family="Helvetica,sans-Serif" font-size="10.00">meta_file&lt; node_t &gt;</text>
</a>
</g>
</g>
<!-- Node4&#45;&gt;Node3 -->
<g id="edge3" class="edge">
<title>Node4&#45;&gt;Node3</title>
<path fill="none" stroke="midnightblue" d="M67,-171.12C67,-161.82 67,-151.06 67,-143.71"/>
<polygon fill="midnightblue" stroke="midnightblue" points="63.5,-171.41 67,-181.41 70.5,-171.41 63.5,-171.41"/>
</g>
</g>
</svg>
