<?xml version="1.0" encoding="UTF-8" standalone="no"?>
<!DOCTYPE svg PUBLIC "-//W3C//DTD SVG 1.1//EN"
 "http://www.w3.org/Graphics/SVG/1.1/DTD/svg11.dtd">
<!-- Generated by graphviz version 2.43.0 (0)
 -->
<!-- Title: adiar::internal::dd Pages: 1 -->
<svg width="156pt" height="84pt"
 viewBox="0.00 0.00 156.00 84.00" xmlns="http://www.w3.org/2000/svg" xmlns:xlink="http://www.w3.org/1999/xlink">
<g id="graph0" class="graph" transform="scale(1 1) rotate(0) translate(4 80)">
<title>adiar::internal::dd</title>
<!-- Node1 -->
<g id="node1" class="node">
<title>Node1</title>
<g id="a_node1"><a xlink:title="Container for the files that represent a Decision Diagram.">
<polygon fill="#bfbfbf" stroke="black" points="22,-56.5 22,-75.5 125,-75.5 125,-56.5 22,-56.5"/>
<text text-anchor="middle" x="73.5" y="-63.5" font-family="Helvetica,sans-Serif" font-size="10.00">adiar::internal::dd</text>
</a>
</g>
</g>
<!-- Node2 -->
<g id="node2" class="node">
<title>Node2</title>
<g id="a_node2"><a xlink:href="classadiar_1_1bdd.html" target="_top" xlink:title="A reduced Binary Decision Diagram.">
<polygon fill="none" stroke="black" points="0,-0.5 0,-19.5 65,-19.5 65,-0.5 0,-0.5"/>
<text text-anchor="middle" x="32.5" y="-7.5" font-family="Helvetica,sans-Serif" font-size="10.00">adiar::bdd</text>
</a>
</g>
</g>
<!-- Node1&#45;&gt;Node2 -->
<g id="edge1" class="edge">
<title>Node1&#45;&gt;Node2</title>
<path fill="none" stroke="midnightblue" d="M60.48,-47.86C53.38,-38.5 44.9,-27.33 39.14,-19.75"/>
<polygon fill="midnightblue" stroke="midnightblue" points="57.89,-50.24 66.73,-56.08 63.47,-46 57.89,-50.24"/>
</g>
<!-- Node3 -->
<g id="node3" class="node">
<title>Node3</title>
<g id="a_node3"><a xlink:href="classadiar_1_1zdd.html" target="_top" xlink:title="Reduced Ordered Zero&#45;suppressed Decision Diagram.">
<polygon fill="none" stroke="black" points="83,-0.5 83,-19.5 148,-19.5 148,-0.5 83,-0.5"/>
<text text-anchor="middle" x="115.5" y="-7.5" font-family="Helvetica,sans-Serif" font-size="10.00">adiar::zdd</text>
</a>
</g>
</g>
<!-- Node1&#45;&gt;Node3 -->
<g id="edge2" class="edge">
<title>Node1&#45;&gt;Node3</title>
<path fill="none" stroke="midnightblue" d="M86.61,-48.14C93.93,-38.74 102.74,-27.4 108.69,-19.75"/>
<polygon fill="midnightblue" stroke="midnightblue" points="83.81,-46.04 80.44,-56.08 89.34,-50.34 83.81,-46.04"/>
</g>
</g>
</svg>
