<?xml version="1.0" encoding="UTF-8" standalone="no"?>
<!DOCTYPE svg PUBLIC "-//W3C//DTD SVG 1.1//EN"
 "http://www.w3.org/Graphics/SVG/1.1/DTD/svg11.dtd">
<!-- Generated by graphviz version 2.43.0 (0)
 -->
<!-- Title: adiar::__bdd Pages: 1 -->
<svg width="121pt" height="152pt"
 viewBox="0.00 0.00 121.00 152.00" xmlns="http://www.w3.org/2000/svg" xmlns:xlink="http://www.w3.org/1999/xlink">
<g id="graph0" class="graph" transform="scale(1 1) rotate(0) translate(4 148)">
<title>adiar::__bdd</title>
<!-- Node1 -->
<g id="node1" class="node">
<title>Node1</title>
<g id="a_node1"><a xlink:title="A (possibly) unreduced Binary Decision Diagram.">
<polygon fill="#bfbfbf" stroke="black" points="18.5,-0.5 18.5,-19.5 94.5,-19.5 94.5,-0.5 18.5,-0.5"/>
<text text-anchor="middle" x="56.5" y="-7.5" font-family="Helvetica,sans-Serif" font-size="10.00">adiar::__bdd</text>
</a>
</g>
</g>
<!-- Node2 -->
<g id="node2" class="node">
<title>Node2</title>
<g id="a_node2"><a xlink:href="classadiar_1_1internal_1_1____dd.html" target="_top" xlink:title=" ">
<polygon fill="none" stroke="black" points="0,-57.5 0,-76.5 113,-76.5 113,-57.5 0,-57.5"/>
<text text-anchor="middle" x="56.5" y="-64.5" font-family="Helvetica,sans-Serif" font-size="10.00">adiar::internal::__dd</text>
</a>
</g>
</g>
<!-- Node2&#45;&gt;Node1 -->
<g id="edge1" class="edge">
<title>Node2&#45;&gt;Node1</title>
<path fill="none" stroke="midnightblue" d="M56.5,-47.12C56.5,-37.82 56.5,-27.06 56.5,-19.71"/>
<polygon fill="midnightblue" stroke="midnightblue" points="53,-47.41 56.5,-57.41 60,-47.41 53,-47.41"/>
</g>
<!-- Node3 -->
<g id="node3" class="node">
<title>Node3</title>
<g id="a_node3"><a xlink:href="classadiar_1_1exec__policy.html" target="_top" xlink:title="Collection of enum values to change the execution of Adiar&#39;s algorithms.">
<polygon fill="none" stroke="black" points="4.5,-124.5 4.5,-143.5 108.5,-143.5 108.5,-124.5 4.5,-124.5"/>
<text text-anchor="middle" x="56.5" y="-131.5" font-family="Helvetica,sans-Serif" font-size="10.00">adiar::exec_policy</text>
</a>
</g>
</g>
<!-- Node3&#45;&gt;Node2 -->
<g id="edge2" class="edge">
<title>Node3&#45;&gt;Node2</title>
<path fill="none" stroke="#9a32cd" stroke-dasharray="5,2" d="M56.5,-114.04C56.5,-101.67 56.5,-86.12 56.5,-76.63"/>
<polygon fill="#9a32cd" stroke="#9a32cd" points="53,-114.23 56.5,-124.23 60,-114.23 53,-114.23"/>
<text text-anchor="middle" x="75.5" y="-98" font-family="Helvetica,sans-Serif" font-size="10.00"> _policy</text>
</g>
</g>
</svg>
