<?xml version="1.0" encoding="UTF-8" standalone="no"?>
<!DOCTYPE svg PUBLIC "-//W3C//DTD SVG 1.1//EN"
 "http://www.w3.org/Graphics/SVG/1.1/DTD/svg11.dtd">
<!-- Generated by graphviz version 2.43.0 (0)
 -->
<!-- Title: adiar::decision_diagram Pages: 1 -->
<svg width="191pt" height="84pt"
 viewBox="0.00 0.00 190.50 84.00" xmlns="http://www.w3.org/2000/svg" xmlns:xlink="http://www.w3.org/1999/xlink">
<g id="graph0" class="graph" transform="scale(1 1) rotate(0) translate(4 80)">
<title>adiar::decision_diagram</title>
<!-- Node1 -->
<g id="node1" class="node">
<title>Node1</title>
<g id="a_node1"><a xlink:title=" ">
<polygon fill="#bfbfbf" stroke="black" points="48.5,-56.5 48.5,-75.5 182.5,-75.5 182.5,-56.5 48.5,-56.5"/>
<text text-anchor="middle" x="115.5" y="-63.5" font-family="Helvetica,sans-Serif" font-size="10.00">adiar::decision_diagram</text>
</a>
</g>
</g>
<!-- Node2 -->
<g id="node2" class="node">
<title>Node2</title>
<g id="a_node2"><a xlink:href="classadiar_1_1bdd.html" target="_top" xlink:title="A reduced Binary Decision Diagram.">
<polygon fill="none" stroke="black" points="0,-0.5 0,-19.5 65,-19.5 65,-0.5 0,-0.5"/>
<text text-anchor="middle" x="32.5" y="-7.5" font-family="Helvetica,sans-Serif" font-size="10.00">adiar::bdd</text>
</a>
</g>
</g>
<!-- Node1&#45;&gt;Node2 -->
<g id="edge1" class="edge">
<title>Node1&#45;&gt;Node2</title>
<path fill="none" stroke="midnightblue" d="M93.4,-50.62C78.24,-40.76 58.62,-27.99 45.8,-19.65"/>
<polygon fill="midnightblue" stroke="midnightblue" points="91.87,-53.8 102.16,-56.32 95.69,-47.94 91.87,-53.8"/>
</g>
<!-- Node3 -->
<g id="node3" class="node">
<title>Node3</title>
<g id="a_node3"><a xlink:href="classadiar_1_1zdd.html" target="_top" xlink:title="Reduced Ordered Zero&#45;suppressed Decision Diagram.">
<polygon fill="none" stroke="black" points="83,-0.5 83,-19.5 148,-19.5 148,-0.5 83,-0.5"/>
<text text-anchor="middle" x="115.5" y="-7.5" font-family="Helvetica,sans-Serif" font-size="10.00">adiar::zdd</text>
</a>
</g>
</g>
<!-- Node1&#45;&gt;Node3 -->
<g id="edge2" class="edge">
<title>Node1&#45;&gt;Node3</title>
<path fill="none" stroke="midnightblue" d="M109.03,-46.1C108.4,-37.14 108.84,-26.86 110.37,-19.75"/>
<polygon fill="midnightblue" stroke="midnightblue" points="105.57,-46.62 110.33,-56.08 112.51,-45.71 105.57,-46.62"/>
</g>
<!-- Node1&#45;&gt;Node3 -->
<g id="edge3" class="edge">
<title>Node1&#45;&gt;Node3</title>
<path fill="none" stroke="midnightblue" d="M121.97,-46.1C122.6,-37.14 122.16,-26.86 120.63,-19.75"/>
<polygon fill="midnightblue" stroke="midnightblue" points="118.49,-45.71 120.67,-56.08 125.43,-46.62 118.49,-45.71"/>
</g>
</g>
</svg>
