<?xml version="1.0" encoding="UTF-8" standalone="no"?>
<!DOCTYPE svg PUBLIC "-//W3C//DTD SVG 1.1//EN"
 "http://www.w3.org/Graphics/SVG/1.1/DTD/svg11.dtd">
<!-- Generated by graphviz version 2.43.0 (0)
 -->
<!-- Title: adiar::__zdd Pages: 1 -->
<svg width="121pt" height="149pt"
 viewBox="0.00 0.00 121.00 149.00" xmlns="http://www.w3.org/2000/svg" xmlns:xlink="http://www.w3.org/1999/xlink">
<g id="graph0" class="graph" transform="scale(1 1) rotate(0) translate(4 145)">
<title>adiar::__zdd</title>
<!-- Node1 -->
<g id="Node000001" class="node">
<title>Node1</title>
<g id="a_Node000001"><a xlink:title="A (possibly unreduced) Zero&#45;suppressed Decision Diagram.">
<polygon fill="#999999" stroke="#666666" points="94,-19 19,-19 19,0 94,0 94,-19"/>
<text text-anchor="middle" x="56.5" y="-7" font-family="Helvetica,sans-Serif" font-size="10.00">adiar::__zdd</text>
</a>
</g>
</g>
<!-- Node2 -->
<g id="Node000002" class="node">
<title>Node2</title>
<g id="a_Node000002"><a xlink:href="classadiar_1_1internal_1_1____dd.html" target="_top" xlink:title=" ">
<polygon fill="white" stroke="#666666" points="113,-75 0,-75 0,-56 113,-56 113,-75"/>
<text text-anchor="middle" x="56.5" y="-63" font-family="Helvetica,sans-Serif" font-size="10.00">adiar::internal::__dd</text>
</a>
</g>
</g>
<!-- Node2&#45;&gt;Node1 -->
<g id="edge1_Node000001_Node000002" class="edge">
<title>Node2&#45;&gt;Node1</title>
<g id="a_edge1_Node000001_Node000002"><a xlink:title=" ">
<path fill="none" stroke="#63b8ff" d="M56.5,-45.3C56.5,-36.41 56.5,-26.28 56.5,-19.25"/>
<polygon fill="#63b8ff" stroke="#63b8ff" points="53,-45.58 56.5,-55.58 60,-45.58 53,-45.58"/>
</a>
</g>
</g>
<!-- Node3 -->
<g id="Node000003" class="node">
<title>Node3</title>
<g id="a_Node000003"><a xlink:href="classadiar_1_1exec__policy.html" target="_top" xlink:title="Settings to dictate the execution of Adiar&#39;s algorithms.">
<polygon fill="white" stroke="#666666" points="108.5,-141 4.5,-141 4.5,-122 108.5,-122 108.5,-141"/>
<text text-anchor="middle" x="56.5" y="-129" font-family="Helvetica,sans-Serif" font-size="10.00">adiar::exec_policy</text>
</a>
</g>
</g>
<!-- Node3&#45;&gt;Node2 -->
<g id="edge2_Node000002_Node000003" class="edge">
<title>Node3&#45;&gt;Node2</title>
<g id="a_edge2_Node000002_Node000003"><a xlink:title=" ">
<path fill="none" stroke="#9a32cd" stroke-dasharray="5,2" d="M56.5,-111.58C56.5,-99.63 56.5,-84.72 56.5,-75.41"/>
<polygon fill="#9a32cd" stroke="#9a32cd" points="53,-111.87 56.5,-121.87 60,-111.87 53,-111.87"/>
</a>
</g>
<text text-anchor="middle" x="75.5" y="-96" font-family="Helvetica,sans-Serif" font-size="10.00" fill="grey"> _policy</text>
</g>
</g>
</svg>
