<?xml version="1.0" encoding="UTF-8" standalone="no"?>
<!DOCTYPE svg PUBLIC "-//W3C//DTD SVG 1.1//EN"
 "http://www.w3.org/Graphics/SVG/1.1/DTD/svg11.dtd">
<!-- Generated by graphviz version 2.43.0 (0)
 -->
<!-- Title: adiar::meta_file_stream&lt; T, File, REVERSE &gt; Pages: 1 -->
<svg width="141pt" height="184pt"
 viewBox="0.00 0.00 141.00 184.00" xmlns="http://www.w3.org/2000/svg" xmlns:xlink="http://www.w3.org/1999/xlink">
<g id="graph0" class="graph" transform="scale(1 1) rotate(0) translate(4 180)">
<title>adiar::meta_file_stream&lt; T, File, REVERSE &gt;</title>
<!-- Node1 -->
<g id="node1" class="node">
<title>Node1</title>
<g id="a_node1"><a xlink:title="File stream of files with meta information.">
<polygon fill="#bfbfbf" stroke="black" points="0,-67.5 0,-97.5 133,-97.5 133,-67.5 0,-67.5"/>
<text text-anchor="start" x="8" y="-85.5" font-family="Helvetica,sans-Serif" font-size="10.00">adiar::meta_file_stream</text>
<text text-anchor="middle" x="66.5" y="-74.5" font-family="Helvetica,sans-Serif" font-size="10.00">&lt; T, File, REVERSE &gt;</text>
</a>
</g>
</g>
<!-- Node3 -->
<g id="node3" class="node">
<title>Node3</title>
<g id="a_node3"><a xlink:href="classadiar_1_1terminal__arc__stream.html" target="_top" xlink:title="Stream for terminal arcs of an arc file.">
<polygon fill="none" stroke="black" points="12,-0.5 12,-30.5 121,-30.5 121,-0.5 12,-0.5"/>
<text text-anchor="start" x="20" y="-18.5" font-family="Helvetica,sans-Serif" font-size="10.00">adiar::terminal_arc</text>
<text text-anchor="middle" x="66.5" y="-7.5" font-family="Helvetica,sans-Serif" font-size="10.00">_stream&lt; false &gt;</text>
</a>
</g>
</g>
<!-- Node1&#45;&gt;Node3 -->
<g id="edge2" class="edge">
<title>Node1&#45;&gt;Node3</title>
<path fill="none" stroke="#8b1a1a" d="M59.95,-57.4C59.51,-48.37 59.8,-38.41 60.83,-30.58"/>
<polygon fill="#8b1a1a" stroke="#8b1a1a" points="56.47,-57.74 60.82,-67.4 63.44,-57.13 56.47,-57.74"/>
</g>
<!-- Node1&#45;&gt;Node3 -->
<g id="edge3" class="edge">
<title>Node1&#45;&gt;Node3</title>
<path fill="none" stroke="#8b1a1a" d="M73.05,-57.4C73.49,-48.37 73.2,-38.41 72.17,-30.58"/>
<polygon fill="#8b1a1a" stroke="#8b1a1a" points="69.56,-57.13 72.18,-67.4 76.53,-57.74 69.56,-57.13"/>
</g>
<!-- Node2 -->
<g id="node2" class="node">
<title>Node2</title>
<g id="a_node2"><a xlink:href="classadiar_1_1file__stream.html" target="_top" xlink:title=" ">
<polygon fill="none" stroke="black" points="3.5,-134.5 3.5,-175.5 129.5,-175.5 129.5,-134.5 3.5,-134.5"/>
<text text-anchor="start" x="11.5" y="-163.5" font-family="Helvetica,sans-Serif" font-size="10.00">adiar::file_stream</text>
<text text-anchor="start" x="11.5" y="-152.5" font-family="Helvetica,sans-Serif" font-size="10.00">&lt; T, false, __meta_file</text>
<text text-anchor="middle" x="66.5" y="-141.5" font-family="Helvetica,sans-Serif" font-size="10.00">&lt; T &gt; &gt;</text>
</a>
</g>
</g>
<!-- Node2&#45;&gt;Node1 -->
<g id="edge1" class="edge">
<title>Node2&#45;&gt;Node1</title>
<path fill="none" stroke="midnightblue" d="M66.5,-124.08C66.5,-115.01 66.5,-105.45 66.5,-97.89"/>
<polygon fill="midnightblue" stroke="midnightblue" points="63,-124.36 66.5,-134.36 70,-124.36 63,-124.36"/>
</g>
</g>
</svg>
