<?xml version="1.0" encoding="UTF-8" standalone="no"?>
<!DOCTYPE svg PUBLIC "-//W3C//DTD SVG 1.1//EN"
 "http://www.w3.org/Graphics/SVG/1.1/DTD/svg11.dtd">
<!-- Generated by graphviz version 2.43.0 (0)
 -->
<!-- Title: builder_example Pages: 1 -->
<svg width="134pt" height="281pt"
 viewBox="0.00 0.00 134.00 280.69" xmlns="http://www.w3.org/2000/svg" xmlns:xlink="http://www.w3.org/1999/xlink">
<g id="graph0" class="graph" transform="scale(1 1) rotate(0) translate(4 276.69)">
<title>builder_example</title>
<polygon fill="white" stroke="transparent" points="-4,4 -4,-276.69 130,-276.69 130,4 -4,4"/>
<!-- n0 -->
<g id="node1" class="node">
<title>n0</title>
<ellipse fill="none" stroke="black" cx="74" cy="-251.24" rx="21.4" ry="21.4"/>
<text text-anchor="start" x="65.5" y="-248.54" font-family="Times,serif" font-size="14.00">x</text>
<text text-anchor="start" x="74.5" y="-248.54" font-family="Times,serif" baseline-shift="sub" font-size="14.00">0</text>
</g>
<!-- n1 -->
<g id="node2" class="node">
<title>n1</title>
<ellipse fill="none" stroke="black" cx="99" cy="-172.34" rx="21.4" ry="21.4"/>
<text text-anchor="start" x="90.5" y="-169.64" font-family="Times,serif" font-size="14.00">x</text>
<text text-anchor="start" x="99.5" y="-169.64" font-family="Times,serif" baseline-shift="sub" font-size="14.00">1</text>
</g>
<!-- n0&#45;&gt;n1 -->
<g id="edge2" class="edge">
<title>n0&#45;&gt;n1</title>
<path fill="none" stroke="black" d="M80.44,-230.44C83.18,-222.01 86.43,-212 89.45,-202.73"/>
<polygon fill="black" stroke="black" points="92.82,-203.67 92.58,-193.08 86.16,-201.51 92.82,-203.67"/>
</g>
<!-- n2 -->
<g id="node3" class="node">
<title>n2</title>
<ellipse fill="none" stroke="black" cx="50" cy="-93.45" rx="21.4" ry="21.4"/>
<text text-anchor="start" x="41.5" y="-90.75" font-family="Times,serif" font-size="14.00">x</text>
<text text-anchor="start" x="50.5" y="-90.75" font-family="Times,serif" baseline-shift="sub" font-size="14.00">2</text>
</g>
<!-- n0&#45;&gt;n2 -->
<g id="edge1" class="edge">
<title>n0&#45;&gt;n2</title>
<path fill="none" stroke="black" stroke-dasharray="5,2" d="M70.86,-229.87C66.75,-203.16 59.49,-156.07 54.72,-125.06"/>
<polygon fill="black" stroke="black" points="58.12,-124.17 53.14,-114.82 51.2,-125.24 58.12,-124.17"/>
</g>
<!-- n1&#45;&gt;n2 -->
<g id="edge3" class="edge">
<title>n1&#45;&gt;n2</title>
<path fill="none" stroke="black" stroke-dasharray="5,2" d="M87.88,-153.9C81.55,-143.97 73.51,-131.34 66.46,-120.28"/>
<polygon fill="black" stroke="black" points="69.4,-118.38 61.07,-111.83 63.5,-122.14 69.4,-118.38"/>
</g>
<!-- t1 -->
<g id="node5" class="node">
<title>t1</title>
<polygon fill="none" stroke="black" points="126,-36 72,-36 72,0 126,0 126,-36"/>
<text text-anchor="middle" x="99" y="-14.3" font-family="Times,serif" font-size="14.00">1</text>
</g>
<!-- n1&#45;&gt;t1 -->
<g id="edge4" class="edge">
<title>n1&#45;&gt;t1</title>
<path fill="none" stroke="black" d="M99,-150.8C99,-123.89 99,-76.62 99,-46.6"/>
<polygon fill="black" stroke="black" points="102.5,-46.4 99,-36.4 95.5,-46.4 102.5,-46.4"/>
</g>
<!-- t0 -->
<g id="node4" class="node">
<title>t0</title>
<polygon fill="none" stroke="black" points="54,-36 0,-36 0,0 54,0 54,-36"/>
<text text-anchor="middle" x="27" y="-14.3" font-family="Times,serif" font-size="14.00">0</text>
</g>
<!-- n2&#45;&gt;t0 -->
<g id="edge5" class="edge">
<title>n2&#45;&gt;t0</title>
<path fill="none" stroke="black" stroke-dasharray="5,2" d="M43.84,-72.77C41.25,-64.49 38.19,-54.73 35.4,-45.82"/>
<polygon fill="black" stroke="black" points="38.73,-44.73 32.4,-36.23 32.05,-46.82 38.73,-44.73"/>
</g>
<!-- n2&#45;&gt;t1 -->
<g id="edge6" class="edge">
<title>n2&#45;&gt;t1</title>
<path fill="none" stroke="black" d="M61.61,-75.04C67.7,-65.92 75.27,-54.58 82,-44.49"/>
<polygon fill="black" stroke="black" points="85,-46.29 87.64,-36.03 79.18,-42.4 85,-46.29"/>
</g>
</g>
</svg>
