<?xml version="1.0" encoding="UTF-8" standalone="no"?>
<!DOCTYPE svg PUBLIC "-//W3C//DTD SVG 1.1//EN"
 "http://www.w3.org/Graphics/SVG/1.1/DTD/svg11.dtd">
<!-- Generated by graphviz version 2.43.0 (0)
 -->
<!-- Title: queens_S_example Pages: 1 -->
<svg width="274pt" height="596pt"
 viewBox="0.00 0.00 274.00 596.27" xmlns="http://www.w3.org/2000/svg" xmlns:xlink="http://www.w3.org/1999/xlink">
<g id="graph0" class="graph" transform="scale(1 1) rotate(0) translate(4 592.27)">
<title>queens_S_example</title>
<polygon fill="white" stroke="transparent" points="-4,4 -4,-592.27 270,-592.27 270,4 -4,4"/>
<!-- n00 -->
<g id="node1" class="node">
<title>n00</title>
<ellipse fill="none" stroke="black" cx="241" cy="-566.83" rx="21.4" ry="21.4"/>
<text text-anchor="start" x="232.5" y="-564.13" font-family="Times,serif" font-size="14.00">x</text>
<text text-anchor="start" x="241.5" y="-564.13" font-family="Times,serif" baseline-shift="sub" font-size="14.00">0</text>
</g>
<!-- n01 -->
<g id="node2" class="node">
<title>n01</title>
<ellipse fill="none" stroke="black" cx="217" cy="-487.93" rx="21.4" ry="21.4"/>
<text text-anchor="start" x="208.5" y="-485.23" font-family="Times,serif" font-size="14.00">x</text>
<text text-anchor="start" x="217.5" y="-485.23" font-family="Times,serif" baseline-shift="sub" font-size="14.00">1</text>
</g>
<!-- n00&#45;&gt;n01 -->
<g id="edge1" class="edge">
<title>n00&#45;&gt;n01</title>
<path fill="none" stroke="black" stroke-dasharray="5,2" d="M234.82,-546.02C232.19,-537.59 229.06,-527.58 226.17,-518.32"/>
<polygon fill="black" stroke="black" points="229.48,-517.17 223.16,-508.66 222.8,-519.25 229.48,-517.17"/>
</g>
<!-- t0 -->
<g id="node8" class="node">
<title>t0</title>
<polygon fill="none" stroke="black" points="179,-36 125,-36 125,0 179,0 179,-36"/>
<text text-anchor="middle" x="152" y="-14.3" font-family="Times,serif" font-size="14.00">0</text>
</g>
<!-- n00&#45;&gt;t0 -->
<g id="edge2" class="edge">
<title>n00&#45;&gt;t0</title>
<path fill="none" stroke="black" d="M246.3,-545.82C253.64,-516.33 266,-459.34 266,-410.03 266,-410.03 266,-410.03 266,-171.34 266,-122.31 248.53,-110.37 218,-72 209.18,-60.91 197.64,-50.66 186.68,-42.18"/>
<polygon fill="black" stroke="black" points="188.58,-39.23 178.47,-36.06 184.39,-44.85 188.58,-39.23"/>
</g>
<!-- n10 -->
<g id="node3" class="node">
<title>n10</title>
<ellipse fill="none" stroke="black" cx="179" cy="-409.03" rx="21.4" ry="21.4"/>
<text text-anchor="start" x="170.5" y="-406.33" font-family="Times,serif" font-size="14.00">x</text>
<text text-anchor="start" x="179.5" y="-406.33" font-family="Times,serif" baseline-shift="sub" font-size="14.00">3</text>
</g>
<!-- n01&#45;&gt;n10 -->
<g id="edge3" class="edge">
<title>n01&#45;&gt;n10</title>
<path fill="none" stroke="black" stroke-dasharray="5,2" d="M207.8,-468.31C203.23,-459.06 197.61,-447.69 192.55,-437.46"/>
<polygon fill="black" stroke="black" points="195.68,-435.89 188.11,-428.48 189.41,-438.99 195.68,-435.89"/>
</g>
<!-- n01&#45;&gt;t0 -->
<g id="edge4" class="edge">
<title>n01&#45;&gt;t0</title>
<path fill="none" stroke="black" d="M219.36,-466.55C222.59,-436.82 228,-379.81 228,-331.14 228,-331.14 228,-331.14 228,-171.34 228,-122.38 196.18,-73 173.72,-44.24"/>
<polygon fill="black" stroke="black" points="176.37,-41.95 167.38,-36.34 170.91,-46.33 176.37,-41.95"/>
</g>
<!-- n11 -->
<g id="node4" class="node">
<title>n11</title>
<ellipse fill="none" stroke="black" cx="141" cy="-330.14" rx="21.4" ry="21.4"/>
<text text-anchor="start" x="132.5" y="-327.44" font-family="Times,serif" font-size="14.00">x</text>
<text text-anchor="start" x="141.5" y="-327.44" font-family="Times,serif" baseline-shift="sub" font-size="14.00">4</text>
</g>
<!-- n10&#45;&gt;n11 -->
<g id="edge6" class="edge">
<title>n10&#45;&gt;n11</title>
<path fill="none" stroke="black" d="M169.8,-389.42C165.23,-380.16 159.61,-368.79 154.55,-358.56"/>
<polygon fill="black" stroke="black" points="157.68,-356.99 150.11,-349.58 151.41,-360.1 157.68,-356.99"/>
</g>
<!-- n10&#45;&gt;t0 -->
<g id="edge5" class="edge">
<title>n10&#45;&gt;t0</title>
<path fill="none" stroke="black" stroke-dasharray="5,2" d="M181.36,-387.65C184.59,-357.92 190,-300.91 190,-252.24 190,-252.24 190,-252.24 190,-171.34 190,-126.04 173.98,-75.34 162.74,-45.36"/>
<polygon fill="black" stroke="black" points="166.01,-44.09 159.15,-36.02 159.48,-46.61 166.01,-44.09"/>
</g>
<!-- n12 -->
<g id="node5" class="node">
<title>n12</title>
<ellipse fill="none" stroke="black" cx="103" cy="-251.24" rx="21.4" ry="21.4"/>
<text text-anchor="start" x="94.5" y="-248.54" font-family="Times,serif" font-size="14.00">x</text>
<text text-anchor="start" x="103.5" y="-248.54" font-family="Times,serif" baseline-shift="sub" font-size="14.00">5</text>
</g>
<!-- n11&#45;&gt;n12 -->
<g id="edge7" class="edge">
<title>n11&#45;&gt;n12</title>
<path fill="none" stroke="black" stroke-dasharray="5,2" d="M131.8,-310.52C127.23,-301.27 121.61,-289.9 116.55,-279.67"/>
<polygon fill="black" stroke="black" points="119.68,-278.1 112.11,-270.68 113.41,-281.2 119.68,-278.1"/>
</g>
<!-- n11&#45;&gt;t0 -->
<g id="edge8" class="edge">
<title>n11&#45;&gt;t0</title>
<path fill="none" stroke="black" d="M141.74,-308.31C143.67,-253.85 148.87,-107.28 151.03,-46.25"/>
<polygon fill="black" stroke="black" points="154.53,-46.34 151.39,-36.22 147.54,-46.09 154.53,-46.34"/>
</g>
<!-- n20 -->
<g id="node6" class="node">
<title>n20</title>
<ellipse fill="none" stroke="black" cx="65" cy="-172.34" rx="21.4" ry="21.4"/>
<text text-anchor="start" x="56.5" y="-169.64" font-family="Times,serif" font-size="14.00">x</text>
<text text-anchor="start" x="65.5" y="-169.64" font-family="Times,serif" baseline-shift="sub" font-size="14.00">6</text>
</g>
<!-- n12&#45;&gt;n20 -->
<g id="edge9" class="edge">
<title>n12&#45;&gt;n20</title>
<path fill="none" stroke="black" stroke-dasharray="5,2" d="M93.8,-231.63C89.23,-222.37 83.61,-211 78.55,-200.77"/>
<polygon fill="black" stroke="black" points="81.68,-199.2 74.11,-191.79 75.41,-202.3 81.68,-199.2"/>
</g>
<!-- n12&#45;&gt;t0 -->
<g id="edge10" class="edge">
<title>n12&#45;&gt;t0</title>
<path fill="none" stroke="black" d="M106.57,-229.83C112.47,-196.62 124.92,-128.86 138,-72 139.95,-63.52 142.29,-54.34 144.5,-46.04"/>
<polygon fill="black" stroke="black" points="147.95,-46.68 147.18,-36.12 141.19,-44.86 147.95,-46.68"/>
</g>
<!-- n21 -->
<g id="node7" class="node">
<title>n21</title>
<ellipse fill="none" stroke="black" cx="27" cy="-93.45" rx="21.4" ry="21.4"/>
<text text-anchor="start" x="18.5" y="-90.75" font-family="Times,serif" font-size="14.00">x</text>
<text text-anchor="start" x="27.5" y="-90.75" font-family="Times,serif" baseline-shift="sub" font-size="14.00">7</text>
</g>
<!-- n20&#45;&gt;n21 -->
<g id="edge11" class="edge">
<title>n20&#45;&gt;n21</title>
<path fill="none" stroke="black" stroke-dasharray="5,2" d="M55.8,-152.73C51.23,-143.47 45.61,-132.11 40.55,-121.87"/>
<polygon fill="black" stroke="black" points="43.68,-120.31 36.11,-112.89 37.41,-123.41 43.68,-120.31"/>
</g>
<!-- n20&#45;&gt;t0 -->
<g id="edge12" class="edge">
<title>n20&#45;&gt;t0</title>
<path fill="none" stroke="black" d="M69.35,-151.17C74.48,-130.25 84.33,-97.14 100,-72 106.49,-61.59 115.33,-51.6 123.89,-43.15"/>
<polygon fill="black" stroke="black" points="126.42,-45.58 131.27,-36.16 121.6,-40.5 126.42,-45.58"/>
</g>
<!-- n21&#45;&gt;t0 -->
<g id="edge14" class="edge">
<title>n21&#45;&gt;t0</title>
<path fill="none" stroke="black" d="M45.18,-81.77C63.59,-70.95 92.57,-53.92 115.71,-40.33"/>
<polygon fill="black" stroke="black" points="117.72,-43.2 124.57,-35.12 114.18,-37.17 117.72,-43.2"/>
</g>
<!-- t1 -->
<g id="node9" class="node">
<title>t1</title>
<polygon fill="none" stroke="black" points="54,-36 0,-36 0,0 54,0 54,-36"/>
<text text-anchor="middle" x="27" y="-14.3" font-family="Times,serif" font-size="14.00">1</text>
</g>
<!-- n21&#45;&gt;t1 -->
<g id="edge13" class="edge">
<title>n21&#45;&gt;t1</title>
<path fill="none" stroke="black" stroke-dasharray="5,2" d="M27,-71.99C27,-64.11 27,-54.98 27,-46.54"/>
<polygon fill="black" stroke="black" points="30.5,-46.37 27,-36.37 23.5,-46.37 30.5,-46.37"/>
</g>
</g>
</svg>
