<?xml version="1.0" encoding="UTF-8" standalone="no"?>
<!DOCTYPE svg PUBLIC "-//W3C//DTD SVG 1.1//EN"
 "http://www.w3.org/Graphics/SVG/1.1/DTD/svg11.dtd">
<!-- Generated by graphviz version 2.43.0 (0)
 -->
<!-- Title: builder_example Pages: 1 -->
<svg width="139pt" height="281pt"
 viewBox="0.00 0.00 139.45 280.69" xmlns="http://www.w3.org/2000/svg" xmlns:xlink="http://www.w3.org/1999/xlink">
<g id="graph0" class="graph" transform="scale(1 1) rotate(0) translate(4 276.69)">
<title>builder_example</title>
<polygon fill="white" stroke="transparent" points="-4,4 -4,-276.69 135.45,-276.69 135.45,4 -4,4"/>
<!-- n0 -->
<g id="node1" class="node">
<title>n0</title>
<ellipse fill="none" stroke="black" cx="45.45" cy="-251.24" rx="21.4" ry="21.4"/>
<text text-anchor="start" x="36.95" y="-248.54" font-family="Times,serif" font-size="14.00">x</text>
<text text-anchor="start" x="45.95" y="-248.54" font-family="Times,serif" baseline-shift="sub" font-size="14.00">0</text>
</g>
<!-- n1 -->
<g id="node2" class="node">
<title>n1</title>
<ellipse fill="none" stroke="black" cx="70.45" cy="-172.34" rx="21.4" ry="21.4"/>
<text text-anchor="start" x="61.95" y="-169.64" font-family="Times,serif" font-size="14.00">x</text>
<text text-anchor="start" x="70.95" y="-169.64" font-family="Times,serif" baseline-shift="sub" font-size="14.00">1</text>
</g>
<!-- n0&#45;&gt;n1 -->
<g id="edge2" class="edge">
<title>n0&#45;&gt;n1</title>
<path fill="none" stroke="black" d="M51.89,-230.44C54.63,-222.01 57.88,-212 60.89,-202.73"/>
<polygon fill="black" stroke="black" points="64.27,-203.67 64.03,-193.08 57.61,-201.51 64.27,-203.67"/>
</g>
<!-- n2 -->
<g id="node3" class="node">
<title>n2</title>
<ellipse fill="none" stroke="black" cx="21.45" cy="-93.45" rx="21.4" ry="21.4"/>
<text text-anchor="start" x="12.95" y="-90.75" font-family="Times,serif" font-size="14.00">x</text>
<text text-anchor="start" x="21.95" y="-90.75" font-family="Times,serif" baseline-shift="sub" font-size="14.00">2</text>
</g>
<!-- n0&#45;&gt;n2 -->
<g id="edge1" class="edge">
<title>n0&#45;&gt;n2</title>
<path fill="none" stroke="black" stroke-dasharray="5,2" d="M42.31,-229.87C38.2,-203.16 30.94,-156.07 26.16,-125.06"/>
<polygon fill="black" stroke="black" points="29.57,-124.17 24.59,-114.82 22.65,-125.24 29.57,-124.17"/>
</g>
<!-- n1&#45;&gt;n2 -->
<!-- t0 -->
<g id="node4" class="node">
<title>t0</title>
<polygon fill="none" stroke="black" points="55.45,-36 1.45,-36 1.45,0 55.45,0 55.45,-36"/>
<text text-anchor="middle" x="28.45" y="-14.3" font-family="Times,serif" font-size="14.00">0</text>
</g>
<!-- n1&#45;&gt;t0 -->
<g id="edge3" class="edge">
<title>n1&#45;&gt;t0</title>
<path fill="none" stroke="black" stroke-dasharray="5,2" d="M67.88,-150.86C65.01,-130.54 59.68,-98.68 51.45,-72 48.73,-63.18 44.99,-53.86 41.32,-45.53"/>
<polygon fill="black" stroke="black" points="44.45,-43.94 37.11,-36.3 38.08,-46.85 44.45,-43.94"/>
</g>
<!-- t1 -->
<g id="node5" class="node">
<title>t1</title>
<polygon fill="none" stroke="black" points="131.45,-36 77.45,-36 77.45,0 131.45,0 131.45,-36"/>
<text text-anchor="middle" x="104.45" y="-14.3" font-family="Times,serif" font-size="14.00">1</text>
</g>
<!-- n1&#45;&gt;t1 -->
<g id="edge4" class="edge">
<title>n1&#45;&gt;t1</title>
<path fill="none" stroke="black" d="M75.62,-151.27C78.35,-140.51 81.69,-127 84.45,-114.9 89.75,-91.67 95.24,-65.16 99.12,-45.9"/>
<polygon fill="black" stroke="black" points="102.57,-46.51 101.1,-36.02 95.7,-45.14 102.57,-46.51"/>
</g>
<!-- n2&#45;&gt;t0 -->
<g id="edge5" class="edge">
<title>n2&#45;&gt;t0</title>
<path fill="none" stroke="black" stroke-dasharray="5,2" d="M23.4,-71.99C24.15,-64.11 25.02,-54.98 25.82,-46.54"/>
<polygon fill="black" stroke="black" points="29.33,-46.65 26.79,-36.37 22.36,-45.99 29.33,-46.65"/>
</g>
<!-- n2&#45;&gt;t1 -->
<g id="edge6" class="edge">
<title>n2&#45;&gt;t1</title>
<path fill="none" stroke="black" d="M37.06,-78.63C48.44,-68.56 64.15,-54.66 77.54,-42.81"/>
<polygon fill="black" stroke="black" points="79.94,-45.36 85.11,-36.11 75.3,-40.12 79.94,-45.36"/>
</g>
</g>
</svg>
