<?xml version="1.0" encoding="UTF-8" standalone="no"?>
<!DOCTYPE svg PUBLIC "-//W3C//DTD SVG 1.1//EN"
 "http://www.w3.org/Graphics/SVG/1.1/DTD/svg11.dtd">
<!-- Generated by graphviz version 2.43.0 (0)
 -->
<!-- Title: Graphical Class Hierarchy Pages: 1 -->
<svg width="203pt" height="66pt"
 viewBox="0.00 0.00 203.00 66.00" xmlns="http://www.w3.org/2000/svg" xmlns:xlink="http://www.w3.org/1999/xlink">
<g id="graph0" class="graph" transform="scale(1 1) rotate(0) translate(4 62)">
<title>Graphical Class Hierarchy</title>
<!-- Node10 -->
<g id="node1" class="node">
<title>Node10</title>
<g id="a_node1"><a xlink:title=" ">
<polygon fill="none" stroke="#bfbfbf" points="0,-19.5 0,-38.5 83,-38.5 83,-19.5 0,-19.5"/>
<text text-anchor="middle" x="41.5" y="-26.5" font-family="Helvetica,sans-Serif" font-size="10.00">internal::__dd</text>
</a>
</g>
</g>
<!-- Node0 -->
<g id="node2" class="node">
<title>Node0</title>
<g id="a_node2"><a xlink:href="classadiar_1_1____bdd.html" target="_top" xlink:title="A (possibly) unreduced Binary Decision Diagram.">
<polygon fill="none" stroke="black" points="119,-38.5 119,-57.5 195,-57.5 195,-38.5 119,-38.5"/>
<text text-anchor="middle" x="157" y="-45.5" font-family="Helvetica,sans-Serif" font-size="10.00">adiar::__bdd</text>
</a>
</g>
</g>
<!-- Node10&#45;&gt;Node0 -->
<g id="edge1" class="edge">
<title>Node10&#45;&gt;Node0</title>
<path fill="none" stroke="midnightblue" d="M93.11,-37.47C101.7,-38.91 110.48,-40.38 118.65,-41.75"/>
<polygon fill="midnightblue" stroke="midnightblue" points="93.6,-34 83.16,-35.81 92.44,-40.91 93.6,-34"/>
</g>
<!-- Node12 -->
<g id="node3" class="node">
<title>Node12</title>
<g id="a_node3"><a xlink:href="classadiar_1_1____zdd.html" target="_top" xlink:title="A (possibly unreduced) Zero&#45;suppressed Decision Diagram.">
<polygon fill="none" stroke="black" points="119.5,-0.5 119.5,-19.5 194.5,-19.5 194.5,-0.5 119.5,-0.5"/>
<text text-anchor="middle" x="157" y="-7.5" font-family="Helvetica,sans-Serif" font-size="10.00">adiar::__zdd</text>
</a>
</g>
</g>
<!-- Node10&#45;&gt;Node12 -->
<g id="edge2" class="edge">
<title>Node10&#45;&gt;Node12</title>
<path fill="none" stroke="midnightblue" d="M93.04,-20.54C101.92,-19.05 111,-17.53 119.4,-16.13"/>
<polygon fill="midnightblue" stroke="midnightblue" points="92.44,-17.09 83.16,-22.19 93.6,-24 92.44,-17.09"/>
</g>
</g>
</svg>
