<?xml version="1.0" encoding="UTF-8" standalone="no"?>
<!DOCTYPE svg PUBLIC "-//W3C//DTD SVG 1.1//EN"
 "http://www.w3.org/Graphics/SVG/1.1/DTD/svg11.dtd">
<!-- Generated by graphviz version 2.43.0 (0)
 -->
<!-- Title: Graphical Class Hierarchy Pages: 1 -->
<svg width="212pt" height="64pt"
 viewBox="0.00 0.00 212.00 64.00" xmlns="http://www.w3.org/2000/svg" xmlns:xlink="http://www.w3.org/1999/xlink">
<g id="graph0" class="graph" transform="scale(1 1) rotate(0) translate(4 60)">
<title>Graphical Class Hierarchy</title>
<!-- Node0 -->
<g id="Node000000" class="node">
<title>Node0</title>
<g id="a_Node000000"><a xlink:href="classadiar_1_1internal_1_1dd.html" target="_top" xlink:title="Container for the files that represent a Decision Diagram.">
<polygon fill="white" stroke="#666666" points="103,-37 0,-37 0,-18 103,-18 103,-37"/>
<text text-anchor="middle" x="51.5" y="-25" font-family="Helvetica,sans-Serif" font-size="10.00">adiar::internal::dd</text>
</a>
</g>
</g>
<!-- Node1 -->
<g id="Node000001" class="node">
<title>Node1</title>
<g id="a_Node000001"><a xlink:href="classadiar_1_1bdd.html" target="_top" xlink:title="A reduced Binary Decision Diagram.">
<polygon fill="white" stroke="#666666" points="204,-56 139,-56 139,-37 204,-37 204,-56"/>
<text text-anchor="middle" x="171.5" y="-44" font-family="Helvetica,sans-Serif" font-size="10.00">adiar::bdd</text>
</a>
</g>
</g>
<!-- Node0&#45;&gt;Node1 -->
<g id="edge3_Node000000_Node000001" class="edge">
<title>Node0&#45;&gt;Node1</title>
<g id="a_edge3_Node000000_Node000001"><a xlink:title=" ">
<path fill="none" stroke="#63b8ff" d="M113.23,-37.28C122.11,-38.71 130.94,-40.13 138.91,-41.41"/>
<polygon fill="#63b8ff" stroke="#63b8ff" points="113.66,-33.8 103.23,-35.67 112.54,-40.71 113.66,-33.8"/>
</a>
</g>
</g>
<!-- Node2 -->
<g id="Node000002" class="node">
<title>Node2</title>
<g id="a_Node000002"><a xlink:href="classadiar_1_1zdd.html" target="_top" xlink:title="Reduced Ordered Zero&#45;suppressed Decision Diagram.">
<polygon fill="white" stroke="#666666" points="204,-19 139,-19 139,0 204,0 204,-19"/>
<text text-anchor="middle" x="171.5" y="-7" font-family="Helvetica,sans-Serif" font-size="10.00">adiar::zdd</text>
</a>
</g>
</g>
<!-- Node0&#45;&gt;Node2 -->
<g id="edge4_Node000000_Node000002" class="edge">
<title>Node0&#45;&gt;Node2</title>
<g id="a_edge4_Node000000_Node000002"><a xlink:title=" ">
<path fill="none" stroke="#63b8ff" d="M113.23,-18.24C122.11,-16.88 130.94,-15.53 138.91,-14.32"/>
<polygon fill="#63b8ff" stroke="#63b8ff" points="112.59,-14.79 103.23,-19.76 113.64,-21.71 112.59,-14.79"/>
</a>
</g>
</g>
</g>
</svg>
