<?xml version="1.0" encoding="UTF-8" standalone="no"?>
<!DOCTYPE svg PUBLIC "-//W3C//DTD SVG 1.1//EN"
 "http://www.w3.org/Graphics/SVG/1.1/DTD/svg11.dtd">
<!-- Generated by graphviz version 2.43.0 (0)
 -->
<!-- Title: Graphical Class Hierarchy Pages: 1 -->
<svg width="233pt" height="64pt"
 viewBox="0.00 0.00 233.00 64.00" xmlns="http://www.w3.org/2000/svg" xmlns:xlink="http://www.w3.org/1999/xlink">
<g id="graph0" class="graph" transform="scale(1 1) rotate(0) translate(4 60)">
<title>Graphical Class Hierarchy</title>
<!-- Node0 -->
<g id="Node000000" class="node">
<title>Node0</title>
<g id="a_Node000000"><a xlink:href="classadiar_1_1internal_1_1____dd.html" target="_top" xlink:title=" ">
<polygon fill="white" stroke="#666666" points="113,-37 0,-37 0,-18 113,-18 113,-37"/>
<text text-anchor="middle" x="56.5" y="-25" font-family="Helvetica,sans-Serif" font-size="10.00">adiar::internal::__dd</text>
</a>
</g>
</g>
<!-- Node1 -->
<g id="Node000001" class="node">
<title>Node1</title>
<g id="a_Node000001"><a xlink:href="classadiar_1_1____bdd.html" target="_top" xlink:title="A (possibly) unreduced Binary Decision Diagram.">
<polygon fill="white" stroke="#666666" points="225,-56 149,-56 149,-37 225,-37 225,-56"/>
<text text-anchor="middle" x="187" y="-44" font-family="Helvetica,sans-Serif" font-size="10.00">adiar::__bdd</text>
</a>
</g>
</g>
<!-- Node0&#45;&gt;Node1 -->
<g id="edge1_Node000000_Node000001" class="edge">
<title>Node0&#45;&gt;Node1</title>
<g id="a_edge1_Node000000_Node000001"><a xlink:title=" ">
<path fill="none" stroke="#63b8ff" d="M123.08,-37.2C131.92,-38.5 140.73,-39.81 148.83,-41"/>
<polygon fill="#63b8ff" stroke="#63b8ff" points="123.52,-33.72 113.11,-35.72 122.5,-40.65 123.52,-33.72"/>
</a>
</g>
</g>
<!-- Node2 -->
<g id="Node000002" class="node">
<title>Node2</title>
<g id="a_Node000002"><a xlink:href="classadiar_1_1____zdd.html" target="_top" xlink:title="A (possibly unreduced) Zero&#45;suppressed Decision Diagram.">
<polygon fill="white" stroke="#666666" points="224.5,-19 149.5,-19 149.5,0 224.5,0 224.5,-19"/>
<text text-anchor="middle" x="187" y="-7" font-family="Helvetica,sans-Serif" font-size="10.00">adiar::__zdd</text>
</a>
</g>
</g>
<!-- Node0&#45;&gt;Node2 -->
<g id="edge2_Node000000_Node000002" class="edge">
<title>Node0&#45;&gt;Node2</title>
<g id="a_edge2_Node000000_Node000002"><a xlink:title=" ">
<path fill="none" stroke="#63b8ff" d="M123.19,-18.3C132.13,-17.05 141.03,-15.8 149.21,-14.65"/>
<polygon fill="#63b8ff" stroke="#63b8ff" points="122.53,-14.86 113.11,-19.71 123.5,-21.79 122.53,-14.86"/>
</a>
</g>
</g>
</g>
</svg>
