<?xml version="1.0" encoding="UTF-8" standalone="no"?>
<!DOCTYPE svg PUBLIC "-//W3C//DTD SVG 1.1//EN"
 "http://www.w3.org/Graphics/SVG/1.1/DTD/svg11.dtd">
<!-- Generated by graphviz version 2.43.0 (0)
 -->
<!-- Title: Graphical Class Hierarchy Pages: 1 -->
<svg width="264pt" height="66pt"
 viewBox="0.00 0.00 264.00 66.00" xmlns="http://www.w3.org/2000/svg" xmlns:xlink="http://www.w3.org/1999/xlink">
<g id="graph0" class="graph" transform="scale(1 1) rotate(0) translate(4 62)">
<title>Graphical Class Hierarchy</title>
<!-- Node0 -->
<g id="node1" class="node">
<title>Node0</title>
<g id="a_node1"><a xlink:href="classadiar_1_1____decision__diagram.html" target="_top" xlink:title=" ">
<polygon fill="none" stroke="black" points="0,-19.5 0,-38.5 144,-38.5 144,-19.5 0,-19.5"/>
<text text-anchor="middle" x="72" y="-26.5" font-family="Helvetica,sans-Serif" font-size="10.00">adiar::__decision_diagram</text>
</a>
</g>
</g>
<!-- Node1 -->
<g id="node2" class="node">
<title>Node1</title>
<g id="a_node2"><a xlink:href="classadiar_1_1____bdd.html" target="_top" xlink:title="A (possibly) unreduced Binary Decision Diagram.">
<polygon fill="none" stroke="black" points="180,-38.5 180,-57.5 256,-57.5 256,-38.5 180,-38.5"/>
<text text-anchor="middle" x="218" y="-45.5" font-family="Helvetica,sans-Serif" font-size="10.00">adiar::__bdd</text>
</a>
</g>
</g>
<!-- Node0&#45;&gt;Node1 -->
<g id="edge1" class="edge">
<title>Node0&#45;&gt;Node1</title>
<path fill="none" stroke="midnightblue" d="M154.25,-39.72C163.14,-40.89 171.84,-42.04 179.8,-43.09"/>
<polygon fill="midnightblue" stroke="midnightblue" points="154.53,-36.23 144.16,-38.39 153.61,-43.17 154.53,-36.23"/>
</g>
<!-- Node2 -->
<g id="node3" class="node">
<title>Node2</title>
<g id="a_node3"><a xlink:href="classadiar_1_1____zdd.html" target="_top" xlink:title="A (possibly unreduced) Zero&#45;suppressed Decision Diagram.">
<polygon fill="none" stroke="black" points="180.5,-0.5 180.5,-19.5 255.5,-19.5 255.5,-0.5 180.5,-0.5"/>
<text text-anchor="middle" x="218" y="-7.5" font-family="Helvetica,sans-Serif" font-size="10.00">adiar::__zdd</text>
</a>
</g>
</g>
<!-- Node0&#45;&gt;Node2 -->
<g id="edge2" class="edge">
<title>Node0&#45;&gt;Node2</title>
<path fill="none" stroke="midnightblue" d="M154.07,-18.3C163.17,-17.1 172.06,-15.93 180.17,-14.86"/>
<polygon fill="midnightblue" stroke="midnightblue" points="153.61,-14.83 144.16,-19.61 154.53,-21.77 153.61,-14.83"/>
</g>
</g>
</svg>
