<?xml version="1.0" encoding="UTF-8" standalone="no"?>
<!DOCTYPE svg PUBLIC "-//W3C//DTD SVG 1.1//EN"
 "http://www.w3.org/Graphics/SVG/1.1/DTD/svg11.dtd">
<!-- Generated by graphviz version 2.43.0 (0)
 -->
<!-- Title: Graphical Class Hierarchy Pages: 1 -->
<svg width="462pt" height="50pt"
 viewBox="0.00 0.00 462.00 50.00" xmlns="http://www.w3.org/2000/svg" xmlns:xlink="http://www.w3.org/1999/xlink">
<g id="graph0" class="graph" transform="scale(1 1) rotate(0) translate(4 46)">
<title>Graphical Class Hierarchy</title>
<!-- Node0 -->
<g id="node1" class="node">
<title>Node0</title>
<g id="a_node1"><a xlink:href="classadiar_1_1file__stream.html" target="_top" xlink:title=" ">
<polygon fill="none" stroke="black" points="0,-0.5 0,-41.5 126,-41.5 126,-0.5 0,-0.5"/>
<text text-anchor="start" x="8" y="-29.5" font-family="Helvetica,sans-Serif" font-size="10.00">adiar::file_stream</text>
<text text-anchor="start" x="8" y="-18.5" font-family="Helvetica,sans-Serif" font-size="10.00">&lt; T, false, __meta_file</text>
<text text-anchor="middle" x="63" y="-7.5" font-family="Helvetica,sans-Serif" font-size="10.00">&lt; T &gt; &gt;</text>
</a>
</g>
</g>
<!-- Node1 -->
<g id="node2" class="node">
<title>Node1</title>
<g id="a_node2"><a xlink:href="classadiar_1_1meta__file__stream.html" target="_top" xlink:title="File stream of files with meta information.">
<polygon fill="none" stroke="black" points="162,-6 162,-36 295,-36 295,-6 162,-6"/>
<text text-anchor="start" x="170" y="-24" font-family="Helvetica,sans-Serif" font-size="10.00">adiar::meta_file_stream</text>
<text text-anchor="middle" x="228.5" y="-13" font-family="Helvetica,sans-Serif" font-size="10.00">&lt; T, File, REVERSE &gt;</text>
</a>
</g>
</g>
<!-- Node0&#45;&gt;Node1 -->
<g id="edge1" class="edge">
<title>Node0&#45;&gt;Node1</title>
<path fill="none" stroke="midnightblue" d="M136.49,-21C144.94,-21 153.51,-21 161.86,-21"/>
<polygon fill="midnightblue" stroke="midnightblue" points="136.28,-17.5 126.28,-21 136.28,-24.5 136.28,-17.5"/>
</g>
<!-- Node2 -->
<g id="node3" class="node">
<title>Node2</title>
<g id="a_node3"><a xlink:href="classadiar_1_1terminal__arc__stream.html" target="_top" xlink:title="Stream for terminal arcs of an arc file.">
<polygon fill="none" stroke="black" points="331,-6 331,-36 454,-36 454,-6 331,-6"/>
<text text-anchor="start" x="339" y="-24" font-family="Helvetica,sans-Serif" font-size="10.00">adiar::terminal_arc</text>
<text text-anchor="middle" x="392.5" y="-13" font-family="Helvetica,sans-Serif" font-size="10.00">_stream&lt; REVERSE &gt;</text>
</a>
</g>
</g>
<!-- Node1&#45;&gt;Node2 -->
<g id="edge2" class="edge">
<title>Node1&#45;&gt;Node2</title>
<path fill="none" stroke="#8b1a1a" d="M305.66,-21C314.12,-21 322.65,-21 330.89,-21"/>
<polygon fill="#8b1a1a" stroke="#8b1a1a" points="305.39,-17.5 295.39,-21 305.39,-24.5 305.39,-17.5"/>
</g>
</g>
</svg>
