<?xml version="1.0" encoding="UTF-8" standalone="no"?>
<!DOCTYPE svg PUBLIC "-//W3C//DTD SVG 1.1//EN"
 "http://www.w3.org/Graphics/SVG/1.1/DTD/svg11.dtd">
<!-- Generated by graphviz version 2.43.0 (0)
 -->
<!-- Title: Graphical Class Hierarchy Pages: 1 -->
<svg width="233pt" height="66pt"
 viewBox="0.00 0.00 233.00 66.00" xmlns="http://www.w3.org/2000/svg" xmlns:xlink="http://www.w3.org/1999/xlink">
<g id="graph0" class="graph" transform="scale(1 1) rotate(0) translate(4 62)">
<title>Graphical Class Hierarchy</title>
<!-- Node0 -->
<g id="node1" class="node">
<title>Node0</title>
<g id="a_node1"><a xlink:href="classadiar_1_1internal_1_1____dd.html" target="_top" xlink:title=" ">
<polygon fill="none" stroke="black" points="0,-19.5 0,-38.5 113,-38.5 113,-19.5 0,-19.5"/>
<text text-anchor="middle" x="56.5" y="-26.5" font-family="Helvetica,sans-Serif" font-size="10.00">adiar::internal::__dd</text>
</a>
</g>
</g>
<!-- Node1 -->
<g id="node2" class="node">
<title>Node1</title>
<g id="a_node2"><a xlink:href="classadiar_1_1____bdd.html" target="_top" xlink:title="A (possibly) unreduced Binary Decision Diagram.">
<polygon fill="none" stroke="black" points="149,-38.5 149,-57.5 225,-57.5 225,-38.5 149,-38.5"/>
<text text-anchor="middle" x="187" y="-45.5" font-family="Helvetica,sans-Serif" font-size="10.00">adiar::__bdd</text>
</a>
</g>
</g>
<!-- Node0&#45;&gt;Node1 -->
<g id="edge1" class="edge">
<title>Node0&#45;&gt;Node1</title>
<path fill="none" stroke="midnightblue" d="M123.08,-38.7C131.92,-40 140.73,-41.31 148.83,-42.5"/>
<polygon fill="midnightblue" stroke="midnightblue" points="123.52,-35.22 113.11,-37.22 122.5,-42.15 123.52,-35.22"/>
</g>
<!-- Node2 -->
<g id="node3" class="node">
<title>Node2</title>
<g id="a_node3"><a xlink:href="classadiar_1_1____zdd.html" target="_top" xlink:title="A (possibly unreduced) Zero&#45;suppressed Decision Diagram.">
<polygon fill="none" stroke="black" points="149.5,-0.5 149.5,-19.5 224.5,-19.5 224.5,-0.5 149.5,-0.5"/>
<text text-anchor="middle" x="187" y="-7.5" font-family="Helvetica,sans-Serif" font-size="10.00">adiar::__zdd</text>
</a>
</g>
</g>
<!-- Node0&#45;&gt;Node2 -->
<g id="edge2" class="edge">
<title>Node0&#45;&gt;Node2</title>
<path fill="none" stroke="midnightblue" d="M123.19,-19.29C132.13,-17.97 141.03,-16.65 149.21,-15.44"/>
<polygon fill="midnightblue" stroke="midnightblue" points="122.5,-15.85 113.11,-20.78 123.52,-22.78 122.5,-15.85"/>
</g>
</g>
</svg>
