<?xml version="1.0" encoding="UTF-8" standalone="no"?>
<!DOCTYPE svg PUBLIC "-//W3C//DTD SVG 1.1//EN"
 "http://www.w3.org/Graphics/SVG/1.1/DTD/svg11.dtd">
<!-- Generated by graphviz version 2.43.0 (0)
 -->
<!-- Title: Graphical Class Hierarchy Pages: 1 -->
<svg width="464pt" height="50pt"
 viewBox="0.00 0.00 464.00 50.00" xmlns="http://www.w3.org/2000/svg" xmlns:xlink="http://www.w3.org/1999/xlink">
<g id="graph0" class="graph" transform="scale(1 1) rotate(0) translate(4 46)">
<title>Graphical Class Hierarchy</title>
<!-- Node0 -->
<g id="node1" class="node">
<title>Node0</title>
<g id="a_node1"><a xlink:href="classadiar_1_1file__stream.html" target="_top" xlink:title=" ">
<polygon fill="none" stroke="black" points="0,-0.5 0,-41.5 140,-41.5 140,-0.5 0,-0.5"/>
<text text-anchor="start" x="8" y="-29.5" font-family="Helvetica,sans-Serif" font-size="10.00">adiar::file_stream</text>
<text text-anchor="start" x="8" y="-18.5" font-family="Helvetica,sans-Serif" font-size="10.00">&lt; node_t, REVERSE, </text>
<text text-anchor="middle" x="70" y="-7.5" font-family="Helvetica,sans-Serif" font-size="10.00">__meta_file&lt; node_t &gt; &gt;</text>
</a>
</g>
</g>
<!-- Node1 -->
<g id="node2" class="node">
<title>Node1</title>
<g id="a_node2"><a xlink:href="classadiar_1_1meta__file__stream.html" target="_top" xlink:title=" ">
<polygon fill="none" stroke="black" points="176,-6 176,-36 309,-36 309,-6 176,-6"/>
<text text-anchor="start" x="184" y="-24" font-family="Helvetica,sans-Serif" font-size="10.00">adiar::meta_file_stream</text>
<text text-anchor="middle" x="242.5" y="-13" font-family="Helvetica,sans-Serif" font-size="10.00">&lt; node_t, 0, !false &gt;</text>
</a>
</g>
</g>
<!-- Node0&#45;&gt;Node1 -->
<g id="edge1" class="edge">
<title>Node0&#45;&gt;Node1</title>
<path fill="none" stroke="midnightblue" d="M150.58,-21C159.02,-21 167.54,-21 175.79,-21"/>
<polygon fill="midnightblue" stroke="midnightblue" points="150.35,-17.5 140.35,-21 150.35,-24.5 150.35,-17.5"/>
</g>
<!-- Node2 -->
<g id="node3" class="node">
<title>Node2</title>
<g id="a_node3"><a xlink:href="classadiar_1_1node__stream.html" target="_top" xlink:title="Stream of nodes from a node file.">
<polygon fill="none" stroke="black" points="345,-6 345,-36 456,-36 456,-6 345,-6"/>
<text text-anchor="start" x="353" y="-24" font-family="Helvetica,sans-Serif" font-size="10.00">adiar::node_stream</text>
<text text-anchor="middle" x="400.5" y="-13" font-family="Helvetica,sans-Serif" font-size="10.00">&lt; REVERSE &gt;</text>
</a>
</g>
</g>
<!-- Node1&#45;&gt;Node2 -->
<g id="edge2" class="edge">
<title>Node1&#45;&gt;Node2</title>
<path fill="none" stroke="midnightblue" d="M319.25,-21C327.84,-21 336.47,-21 344.71,-21"/>
<polygon fill="midnightblue" stroke="midnightblue" points="319.21,-17.5 309.21,-21 319.21,-24.5 319.21,-17.5"/>
</g>
</g>
</svg>
