<?xml version="1.0" encoding="UTF-8" standalone="no"?>
<!DOCTYPE svg PUBLIC "-//W3C//DTD SVG 1.1//EN"
 "http://www.w3.org/Graphics/SVG/1.1/DTD/svg11.dtd">
<!-- Generated by graphviz version 2.43.0 (0)
 -->
<!-- Title: Graphical Class Hierarchy Pages: 1 -->
<svg width="328pt" height="294pt"
 viewBox="0.00 0.00 328.00 294.00" xmlns="http://www.w3.org/2000/svg" xmlns:xlink="http://www.w3.org/1999/xlink">
<g id="graph0" class="graph" transform="scale(1 1) rotate(0) translate(4 290)">
<title>Graphical Class Hierarchy</title>
<!-- Node0 -->
<g id="node1" class="node">
<title>Node0</title>
<g id="a_node1"><a xlink:href="structadiar_1_1stats__t_1_1____alg__base.html" target="_top" xlink:title="Common statistics for all algorithms.">
<polygon fill="none" stroke="black" points="0,-133.5 0,-152.5 140,-152.5 140,-133.5 0,-133.5"/>
<text text-anchor="middle" x="70" y="-140.5" font-family="Helvetica,sans-Serif" font-size="10.00">adiar::stats_t::__alg_base</text>
</a>
</g>
</g>
<!-- Node1 -->
<g id="node2" class="node">
<title>Node1</title>
<g id="a_node2"><a xlink:href="structadiar_1_1stats__t_1_1count__t.html" target="_top" xlink:title="Counting algorithm statistics.">
<polygon fill="none" stroke="black" points="187,-266.5 187,-285.5 309,-285.5 309,-266.5 187,-266.5"/>
<text text-anchor="middle" x="248" y="-273.5" font-family="Helvetica,sans-Serif" font-size="10.00">adiar::stats_t::count_t</text>
</a>
</g>
</g>
<!-- Node0&#45;&gt;Node1 -->
<g id="edge1" class="edge">
<title>Node0&#45;&gt;Node1</title>
<path fill="none" stroke="midnightblue" d="M82.82,-161.3C100.17,-186.66 134.96,-232.18 176,-257 182.44,-260.9 189.69,-264.01 197.02,-266.48"/>
<polygon fill="midnightblue" stroke="midnightblue" points="85.51,-159.02 77.05,-152.65 79.69,-162.91 85.51,-159.02"/>
</g>
<!-- Node2 -->
<g id="node3" class="node">
<title>Node2</title>
<g id="a_node3"><a xlink:href="structadiar_1_1stats__t_1_1equality__t.html" target="_top" xlink:title="Equality Checking algorithm statistics.">
<polygon fill="none" stroke="black" points="180.5,-228.5 180.5,-247.5 315.5,-247.5 315.5,-228.5 180.5,-228.5"/>
<text text-anchor="middle" x="248" y="-235.5" font-family="Helvetica,sans-Serif" font-size="10.00">adiar::stats_t::equality_t</text>
</a>
</g>
</g>
<!-- Node0&#45;&gt;Node2 -->
<g id="edge2" class="edge">
<title>Node0&#45;&gt;Node2</title>
<path fill="none" stroke="midnightblue" d="M89.16,-159.37C109.11,-176.54 142.75,-203.18 176,-219 183.95,-222.78 192.77,-225.91 201.42,-228.45"/>
<polygon fill="midnightblue" stroke="midnightblue" points="91.32,-156.6 81.49,-152.65 86.71,-161.87 91.32,-156.6"/>
</g>
<!-- Node3 -->
<g id="node4" class="node">
<title>Node3</title>
<g id="a_node4"><a xlink:href="structadiar_1_1stats__t_1_1intercut__t.html" target="_top" xlink:title="Intercut algorithm statistics.">
<polygon fill="none" stroke="black" points="181.5,-190.5 181.5,-209.5 314.5,-209.5 314.5,-190.5 181.5,-190.5"/>
<text text-anchor="middle" x="248" y="-197.5" font-family="Helvetica,sans-Serif" font-size="10.00">adiar::stats_t::intercut_t</text>
</a>
</g>
</g>
<!-- Node0&#45;&gt;Node3 -->
<g id="edge3" class="edge">
<title>Node0&#45;&gt;Node3</title>
<path fill="none" stroke="midnightblue" d="M104.91,-156.11C125.35,-163.8 152,-173.46 176,-181 186.59,-184.33 198.18,-187.59 208.87,-190.44"/>
<polygon fill="midnightblue" stroke="midnightblue" points="106,-152.78 95.41,-152.51 103.52,-159.32 106,-152.78"/>
</g>
<!-- Node4 -->
<g id="node5" class="node">
<title>Node4</title>
<g id="a_node5"><a xlink:href="structadiar_1_1stats__t_1_1prod2__t.html" target="_top" xlink:title="2&#45;ary Product Construction algorithm statistics.">
<polygon fill="none" stroke="black" points="186.5,-152.5 186.5,-171.5 309.5,-171.5 309.5,-152.5 186.5,-152.5"/>
<text text-anchor="middle" x="248" y="-159.5" font-family="Helvetica,sans-Serif" font-size="10.00">adiar::stats_t::prod2_t</text>
</a>
</g>
</g>
<!-- Node0&#45;&gt;Node4 -->
<g id="edge4" class="edge">
<title>Node0&#45;&gt;Node4</title>
<path fill="none" stroke="midnightblue" d="M150.2,-151.55C162.36,-152.86 174.75,-154.2 186.43,-155.46"/>
<polygon fill="midnightblue" stroke="midnightblue" points="150.37,-148.05 140.05,-150.45 149.62,-155.01 150.37,-148.05"/>
</g>
<!-- Node5 -->
<g id="node6" class="node">
<title>Node5</title>
<g id="a_node6"><a xlink:href="structadiar_1_1stats__t_1_1prod3__t.html" target="_top" xlink:title="3&#45;ary Product Construction algorithm statistics.">
<polygon fill="none" stroke="black" points="186.5,-114.5 186.5,-133.5 309.5,-133.5 309.5,-114.5 186.5,-114.5"/>
<text text-anchor="middle" x="248" y="-121.5" font-family="Helvetica,sans-Serif" font-size="10.00">adiar::stats_t::prod3_t</text>
</a>
</g>
</g>
<!-- Node0&#45;&gt;Node5 -->
<g id="edge5" class="edge">
<title>Node0&#45;&gt;Node5</title>
<path fill="none" stroke="midnightblue" d="M150.2,-134.45C162.36,-133.14 174.75,-131.8 186.43,-130.54"/>
<polygon fill="midnightblue" stroke="midnightblue" points="149.62,-130.99 140.05,-135.55 150.37,-137.95 149.62,-130.99"/>
</g>
<!-- Node6 -->
<g id="node7" class="node">
<title>Node6</title>
<g id="a_node7"><a xlink:href="structadiar_1_1stats__t_1_1quantify__t.html" target="_top" xlink:title="Quantification algorithm statistics.">
<polygon fill="none" stroke="black" points="180.5,-76.5 180.5,-95.5 315.5,-95.5 315.5,-76.5 180.5,-76.5"/>
<text text-anchor="middle" x="248" y="-83.5" font-family="Helvetica,sans-Serif" font-size="10.00">adiar::stats_t::quantify_t</text>
</a>
</g>
</g>
<!-- Node0&#45;&gt;Node6 -->
<g id="edge6" class="edge">
<title>Node0&#45;&gt;Node6</title>
<path fill="none" stroke="midnightblue" d="M104.91,-129.89C125.35,-122.2 152,-112.54 176,-105 186.59,-101.67 198.18,-98.41 208.87,-95.56"/>
<polygon fill="midnightblue" stroke="midnightblue" points="103.52,-126.68 95.41,-133.49 106,-133.22 103.52,-126.68"/>
</g>
<!-- Node7 -->
<g id="node8" class="node">
<title>Node7</title>
<g id="a_node8"><a xlink:href="structadiar_1_1stats__t_1_1reduce__t.html" target="_top" xlink:title="Reduce algorithm statistics.">
<polygon fill="none" stroke="black" points="184,-38.5 184,-57.5 312,-57.5 312,-38.5 184,-38.5"/>
<text text-anchor="middle" x="248" y="-45.5" font-family="Helvetica,sans-Serif" font-size="10.00">adiar::stats_t::reduce_t</text>
</a>
</g>
</g>
<!-- Node0&#45;&gt;Node7 -->
<g id="edge7" class="edge">
<title>Node0&#45;&gt;Node7</title>
<path fill="none" stroke="midnightblue" d="M89.16,-126.63C109.11,-109.46 142.75,-82.82 176,-67 183.95,-63.22 192.77,-60.09 201.42,-57.55"/>
<polygon fill="midnightblue" stroke="midnightblue" points="86.71,-124.13 81.49,-133.35 91.32,-129.4 86.71,-124.13"/>
</g>
<!-- Node8 -->
<g id="node9" class="node">
<title>Node8</title>
<g id="a_node9"><a xlink:href="structadiar_1_1stats__t_1_1substitute__t.html" target="_top" xlink:title="Substitution algorithm statistics.">
<polygon fill="none" stroke="black" points="176,-0.5 176,-19.5 320,-19.5 320,-0.5 176,-0.5"/>
<text text-anchor="middle" x="248" y="-7.5" font-family="Helvetica,sans-Serif" font-size="10.00">adiar::stats_t::substitute_t</text>
</a>
</g>
</g>
<!-- Node0&#45;&gt;Node8 -->
<g id="edge8" class="edge">
<title>Node0&#45;&gt;Node8</title>
<path fill="none" stroke="midnightblue" d="M82.82,-124.7C100.17,-99.34 134.96,-53.82 176,-29 182.44,-25.1 189.69,-21.99 197.02,-19.52"/>
<polygon fill="midnightblue" stroke="midnightblue" points="79.69,-123.09 77.05,-133.35 85.51,-126.98 79.69,-123.09"/>
</g>
</g>
</svg>
