<?xml version="1.0" encoding="UTF-8" standalone="no"?>
<!DOCTYPE svg PUBLIC "-//W3C//DTD SVG 1.1//EN"
 "http://www.w3.org/Graphics/SVG/1.1/DTD/svg11.dtd">
<!-- Generated by graphviz version 2.43.0 (0)
 -->
<!-- Title: adiar::statistics::nested_sweeping_t Pages: 1 -->
<svg width="1026pt" height="170pt"
 viewBox="0.00 0.00 1026.00 170.00" xmlns="http://www.w3.org/2000/svg" xmlns:xlink="http://www.w3.org/1999/xlink">
<g id="graph0" class="graph" transform="scale(1 1) rotate(0) translate(4 166)">
<title>adiar::statistics::nested_sweeping_t</title>
<!-- Node1 -->
<g id="node1" class="node">
<title>Node1</title>
<g id="a_node1"><a xlink:title="Nested Sweeping statistics.">
<polygon fill="#bfbfbf" stroke="black" points="908,-36 908,-66 1018,-66 1018,-36 908,-36"/>
<text text-anchor="start" x="916" y="-54" font-family="Helvetica,sans-Serif" font-size="10.00">adiar::statistics::</text>
<text text-anchor="middle" x="963" y="-43" font-family="Helvetica,sans-Serif" font-size="10.00">nested_sweeping_t</text>
</a>
</g>
</g>
<!-- Node2 -->
<g id="node2" class="node">
<title>Node2</title>
<g id="a_node2"><a xlink:href="structadiar_1_1statistics_1_1nested__sweeping__t_1_1inner__t.html" target="_top" xlink:title="Inner Sweep(s)">
<polygon fill="none" stroke="black" points="692.5,-66 692.5,-96 842.5,-96 842.5,-66 692.5,-66"/>
<text text-anchor="start" x="700.5" y="-84" font-family="Helvetica,sans-Serif" font-size="10.00">adiar::statistics::</text>
<text text-anchor="middle" x="767.5" y="-73" font-family="Helvetica,sans-Serif" font-size="10.00">nested_sweeping_t::inner_t</text>
</a>
</g>
</g>
<!-- Node2&#45;&gt;Node1 -->
<g id="edge1" class="edge">
<title>Node2&#45;&gt;Node1</title>
<path fill="none" stroke="#9a32cd" stroke-dasharray="5,2" d="M852.74,-67.94C871.4,-65.05 890.69,-62.06 907.77,-59.41"/>
<polygon fill="#9a32cd" stroke="#9a32cd" points="852.1,-64.5 842.76,-69.49 853.18,-71.41 852.1,-64.5"/>
<text text-anchor="middle" x="875.5" y="-69" font-family="Helvetica,sans-Serif" font-size="10.00"> inner</text>
</g>
<!-- Node3 -->
<g id="node3" class="node">
<title>Node3</title>
<g id="a_node3"><a xlink:href="structadiar_1_1statistics_1_1nested__sweeping__t_1_1inner__t_1_1down__t.html" target="_top" xlink:title="Inner Down Sweep.">
<polygon fill="none" stroke="black" points="484.5,-120.5 484.5,-161.5 625.5,-161.5 625.5,-120.5 484.5,-120.5"/>
<text text-anchor="start" x="492.5" y="-149.5" font-family="Helvetica,sans-Serif" font-size="10.00">adiar::statistics::</text>
<text text-anchor="start" x="492.5" y="-138.5" font-family="Helvetica,sans-Serif" font-size="10.00">nested_sweeping_t::inner</text>
<text text-anchor="middle" x="555" y="-127.5" font-family="Helvetica,sans-Serif" font-size="10.00">_t::down_t</text>
</a>
</g>
</g>
<!-- Node3&#45;&gt;Node2 -->
<g id="edge2" class="edge">
<title>Node3&#45;&gt;Node2</title>
<path fill="none" stroke="#9a32cd" stroke-dasharray="5,2" d="M635.42,-118.36C661.6,-110.9 690.05,-102.79 713.74,-96.04"/>
<polygon fill="#9a32cd" stroke="#9a32cd" points="634.17,-115.08 625.51,-121.19 636.09,-121.81 634.17,-115.08"/>
<text text-anchor="middle" x="659" y="-117" font-family="Helvetica,sans-Serif" font-size="10.00"> down</text>
</g>
<!-- Node4 -->
<g id="node4" class="node">
<title>Node4</title>
<g id="a_node4"><a xlink:href="structadiar_1_1statistics_1_1____alg__base.html" target="_top" xlink:title="Common statistics for all algorithms.">
<polygon fill="none" stroke="black" points="349,-95 349,-125 447,-125 447,-95 349,-95"/>
<text text-anchor="start" x="357" y="-113" font-family="Helvetica,sans-Serif" font-size="10.00">adiar::statistics::</text>
<text text-anchor="middle" x="398" y="-102" font-family="Helvetica,sans-Serif" font-size="10.00">__alg_base</text>
</a>
</g>
</g>
<!-- Node4&#45;&gt;Node3 -->
<g id="edge3" class="edge">
<title>Node4&#45;&gt;Node3</title>
<path fill="none" stroke="midnightblue" d="M457.1,-121.62C466.04,-123.41 475.34,-125.27 484.5,-127.1"/>
<polygon fill="midnightblue" stroke="midnightblue" points="457.69,-118.17 447.19,-119.64 456.31,-125.03 457.69,-118.17"/>
</g>
<!-- Node7 -->
<g id="node7" class="node">
<title>Node7</title>
<g id="a_node7"><a xlink:href="structadiar_1_1statistics_1_1nested__sweeping__t_1_1inner__t_1_1up__t.html" target="_top" xlink:title="Inner Up Sweep.">
<polygon fill="none" stroke="black" points="484.5,-60.5 484.5,-101.5 625.5,-101.5 625.5,-60.5 484.5,-60.5"/>
<text text-anchor="start" x="492.5" y="-89.5" font-family="Helvetica,sans-Serif" font-size="10.00">adiar::statistics::</text>
<text text-anchor="start" x="492.5" y="-78.5" font-family="Helvetica,sans-Serif" font-size="10.00">nested_sweeping_t::inner</text>
<text text-anchor="middle" x="555" y="-67.5" font-family="Helvetica,sans-Serif" font-size="10.00">_t::up_t</text>
</a>
</g>
</g>
<!-- Node4&#45;&gt;Node7 -->
<g id="edge7" class="edge">
<title>Node4&#45;&gt;Node7</title>
<path fill="none" stroke="midnightblue" d="M457.1,-99.13C466.04,-97.46 475.34,-95.72 484.5,-94"/>
<polygon fill="midnightblue" stroke="midnightblue" points="456.38,-95.7 447.19,-100.98 457.67,-102.58 456.38,-95.7"/>
</g>
<!-- Node5 -->
<g id="node5" class="node">
<title>Node5</title>
<g id="a_node5"><a xlink:href="structadiar_1_1statistics_1_1____alg__base_1_1____lpq__t.html" target="_top" xlink:title="Type and usage of this algorithm&#39;s levelized priority queue.">
<polygon fill="none" stroke="black" points="183,-95 183,-125 294,-125 294,-95 183,-95"/>
<text text-anchor="start" x="191" y="-113" font-family="Helvetica,sans-Serif" font-size="10.00">adiar::statistics::</text>
<text text-anchor="middle" x="238.5" y="-102" font-family="Helvetica,sans-Serif" font-size="10.00">__alg_base::__lpq_t</text>
</a>
</g>
</g>
<!-- Node5&#45;&gt;Node4 -->
<g id="edge4" class="edge">
<title>Node5&#45;&gt;Node4</title>
<path fill="none" stroke="#9a32cd" stroke-dasharray="5,2" d="M304.3,-110C319.18,-110 334.73,-110 348.76,-110"/>
<polygon fill="#9a32cd" stroke="#9a32cd" points="304.14,-106.5 294.14,-110 304.14,-113.5 304.14,-106.5"/>
<text text-anchor="middle" x="321.5" y="-113" font-family="Helvetica,sans-Serif" font-size="10.00"> lpq</text>
</g>
<!-- Node6 -->
<g id="node6" class="node">
<title>Node6</title>
<g id="a_node6"><a xlink:href="structadiar_1_1statistics_1_1levelized__priority__queue__t.html" target="_top" xlink:title="Levelized Priority Queue statistics.">
<polygon fill="none" stroke="black" points="0,-95 0,-125 146,-125 146,-95 0,-95"/>
<text text-anchor="start" x="8" y="-113" font-family="Helvetica,sans-Serif" font-size="10.00">adiar::statistics::</text>
<text text-anchor="middle" x="73" y="-102" font-family="Helvetica,sans-Serif" font-size="10.00">levelized_priority_queue_t</text>
</a>
</g>
</g>
<!-- Node6&#45;&gt;Node5 -->
<g id="edge5" class="edge">
<title>Node6&#45;&gt;Node5</title>
<path fill="none" stroke="midnightblue" d="M156.34,-110C165.34,-110 174.34,-110 182.89,-110"/>
<polygon fill="midnightblue" stroke="midnightblue" points="156.19,-106.5 146.19,-110 156.19,-113.5 156.19,-106.5"/>
</g>
<!-- Node7&#45;&gt;Node2 -->
<g id="edge6" class="edge">
<title>Node7&#45;&gt;Node2</title>
<path fill="none" stroke="#9a32cd" stroke-dasharray="5,2" d="M635.71,-81C654.3,-81 674.02,-81 692.36,-81"/>
<polygon fill="#9a32cd" stroke="#9a32cd" points="635.51,-77.5 625.51,-81 635.51,-84.5 635.51,-77.5"/>
<text text-anchor="middle" x="659" y="-84" font-family="Helvetica,sans-Serif" font-size="10.00"> up</text>
</g>
<!-- Node8 -->
<g id="node8" class="node">
<title>Node8</title>
<g id="a_node8"><a xlink:href="structadiar_1_1statistics_1_1nested__sweeping__t_1_1outer__t.html" target="_top" xlink:title="Outer Sweep(s)">
<polygon fill="none" stroke="black" points="692,-12 692,-42 843,-42 843,-12 692,-12"/>
<text text-anchor="start" x="700" y="-30" font-family="Helvetica,sans-Serif" font-size="10.00">adiar::statistics::</text>
<text text-anchor="middle" x="767.5" y="-19" font-family="Helvetica,sans-Serif" font-size="10.00">nested_sweeping_t::outer_t</text>
</a>
</g>
</g>
<!-- Node8&#45;&gt;Node1 -->
<g id="edge8" class="edge">
<title>Node8&#45;&gt;Node1</title>
<path fill="none" stroke="#9a32cd" stroke-dasharray="5,2" d="M853.39,-34.65C865.69,-35.98 878.18,-37.43 890,-39 895.78,-39.77 901.81,-40.64 907.8,-41.57"/>
<polygon fill="#9a32cd" stroke="#9a32cd" points="853.44,-31.14 843.13,-33.58 852.71,-38.1 853.44,-31.14"/>
<text text-anchor="middle" x="875.5" y="-42" font-family="Helvetica,sans-Serif" font-size="10.00"> outer</text>
</g>
<!-- Node9 -->
<g id="node9" class="node">
<title>Node9</title>
<g id="a_node9"><a xlink:href="structadiar_1_1statistics_1_1nested__sweeping__t_1_1outer__t_1_1up__t.html" target="_top" xlink:title="Outer Up Sweep.">
<polygon fill="none" stroke="black" points="484,-0.5 484,-41.5 626,-41.5 626,-0.5 484,-0.5"/>
<text text-anchor="start" x="492" y="-29.5" font-family="Helvetica,sans-Serif" font-size="10.00">adiar::statistics::</text>
<text text-anchor="start" x="492" y="-18.5" font-family="Helvetica,sans-Serif" font-size="10.00">nested_sweeping_t::outer</text>
<text text-anchor="middle" x="555" y="-7.5" font-family="Helvetica,sans-Serif" font-size="10.00">_t::up_t</text>
</a>
</g>
</g>
<!-- Node9&#45;&gt;Node8 -->
<g id="edge9" class="edge">
<title>Node9&#45;&gt;Node8</title>
<path fill="none" stroke="#9a32cd" stroke-dasharray="5,2" d="M636.1,-23.28C654.34,-23.8 673.65,-24.35 691.66,-24.87"/>
<polygon fill="#9a32cd" stroke="#9a32cd" points="636.19,-19.78 626.09,-23 635.99,-26.78 636.19,-19.78"/>
<text text-anchor="middle" x="659" y="-28" font-family="Helvetica,sans-Serif" font-size="10.00"> up</text>
</g>
</g>
</svg>
