<?xml version="1.0" encoding="UTF-8" standalone="no"?>
<!DOCTYPE svg PUBLIC "-//W3C//DTD SVG 1.1//EN"
 "http://www.w3.org/Graphics/SVG/1.1/DTD/svg11.dtd">
<!-- Generated by graphviz version 2.43.0 (0)
 -->
<!-- Title: adiar::statistics::nested_sweeping_t::inner_t Pages: 1 -->
<svg width="840pt" height="110pt"
 viewBox="0.00 0.00 840.00 110.00" xmlns="http://www.w3.org/2000/svg" xmlns:xlink="http://www.w3.org/1999/xlink">
<g id="graph0" class="graph" transform="scale(1 1) rotate(0) translate(4 106)">
<title>adiar::statistics::nested_sweeping_t::inner_t</title>
<!-- Node1 -->
<g id="node1" class="node">
<title>Node1</title>
<g id="a_node1"><a xlink:title="Inner Sweep(s)">
<polygon fill="#bfbfbf" stroke="black" points="682,-36 682,-66 832,-66 832,-36 682,-36"/>
<text text-anchor="start" x="690" y="-54" font-family="Helvetica,sans-Serif" font-size="10.00">adiar::statistics::</text>
<text text-anchor="middle" x="757" y="-43" font-family="Helvetica,sans-Serif" font-size="10.00">nested_sweeping_t::inner_t</text>
</a>
</g>
</g>
<!-- Node2 -->
<g id="node2" class="node">
<title>Node2</title>
<g id="a_node2"><a xlink:href="structadiar_1_1statistics_1_1nested__sweeping__t_1_1inner__t_1_1down__t.html" target="_top" xlink:title="Inner Down Sweep.">
<polygon fill="none" stroke="black" points="475,-60.5 475,-101.5 616,-101.5 616,-60.5 475,-60.5"/>
<text text-anchor="start" x="483" y="-89.5" font-family="Helvetica,sans-Serif" font-size="10.00">adiar::statistics::</text>
<text text-anchor="start" x="483" y="-78.5" font-family="Helvetica,sans-Serif" font-size="10.00">nested_sweeping_t::inner</text>
<text text-anchor="middle" x="545.5" y="-67.5" font-family="Helvetica,sans-Serif" font-size="10.00">_t::down_t</text>
</a>
</g>
</g>
<!-- Node2&#45;&gt;Node1 -->
<g id="edge1" class="edge">
<title>Node2&#45;&gt;Node1</title>
<path fill="none" stroke="#9a32cd" stroke-dasharray="5,2" d="M626.28,-69.58C644.53,-66.96 663.87,-64.19 681.87,-61.61"/>
<polygon fill="#9a32cd" stroke="#9a32cd" points="625.66,-66.13 616.26,-71.01 626.66,-73.06 625.66,-66.13"/>
<text text-anchor="middle" x="649" y="-70" font-family="Helvetica,sans-Serif" font-size="10.00"> down</text>
</g>
<!-- Node3 -->
<g id="node3" class="node">
<title>Node3</title>
<g id="a_node3"><a xlink:href="structadiar_1_1statistics_1_1____alg__base.html" target="_top" xlink:title="Common statistics for all algorithms.">
<polygon fill="none" stroke="black" points="340,-35 340,-65 438,-65 438,-35 340,-35"/>
<text text-anchor="start" x="348" y="-53" font-family="Helvetica,sans-Serif" font-size="10.00">adiar::statistics::</text>
<text text-anchor="middle" x="389" y="-42" font-family="Helvetica,sans-Serif" font-size="10.00">__alg_base</text>
</a>
</g>
</g>
<!-- Node3&#45;&gt;Node2 -->
<g id="edge2" class="edge">
<title>Node3&#45;&gt;Node2</title>
<path fill="none" stroke="midnightblue" d="M448.12,-61.66C456.88,-63.42 465.98,-65.24 474.94,-67.04"/>
<polygon fill="midnightblue" stroke="midnightblue" points="448.53,-58.17 438.04,-59.64 447.15,-65.04 448.53,-58.17"/>
</g>
<!-- Node6 -->
<g id="node6" class="node">
<title>Node6</title>
<g id="a_node6"><a xlink:href="structadiar_1_1statistics_1_1nested__sweeping__t_1_1inner__t_1_1up__t.html" target="_top" xlink:title="Inner Up Sweep.">
<polygon fill="none" stroke="black" points="475,-0.5 475,-41.5 616,-41.5 616,-0.5 475,-0.5"/>
<text text-anchor="start" x="483" y="-29.5" font-family="Helvetica,sans-Serif" font-size="10.00">adiar::statistics::</text>
<text text-anchor="start" x="483" y="-18.5" font-family="Helvetica,sans-Serif" font-size="10.00">nested_sweeping_t::inner</text>
<text text-anchor="middle" x="545.5" y="-7.5" font-family="Helvetica,sans-Serif" font-size="10.00">_t::up_t</text>
</a>
</g>
</g>
<!-- Node3&#45;&gt;Node6 -->
<g id="edge6" class="edge">
<title>Node3&#45;&gt;Node6</title>
<path fill="none" stroke="midnightblue" d="M448.12,-39.09C456.88,-37.45 465.98,-35.74 474.94,-34.06"/>
<polygon fill="midnightblue" stroke="midnightblue" points="447.22,-35.7 438.04,-40.98 448.51,-42.58 447.22,-35.7"/>
</g>
<!-- Node4 -->
<g id="node4" class="node">
<title>Node4</title>
<g id="a_node4"><a xlink:href="structadiar_1_1statistics_1_1____alg__base_1_1____lpq.html" target="_top" xlink:title="Type and usage of this algorithm&#39;s levelized priority queue.">
<polygon fill="none" stroke="black" points="183,-35 183,-65 285,-65 285,-35 183,-35"/>
<text text-anchor="start" x="191" y="-53" font-family="Helvetica,sans-Serif" font-size="10.00">adiar::statistics::</text>
<text text-anchor="middle" x="234" y="-42" font-family="Helvetica,sans-Serif" font-size="10.00">__alg_base::__lpq</text>
</a>
</g>
</g>
<!-- Node4&#45;&gt;Node3 -->
<g id="edge3" class="edge">
<title>Node4&#45;&gt;Node3</title>
<path fill="none" stroke="#9a32cd" stroke-dasharray="5,2" d="M295.2,-50C310.02,-50 325.7,-50 339.87,-50"/>
<polygon fill="#9a32cd" stroke="#9a32cd" points="295.1,-46.5 285.1,-50 295.1,-53.5 295.1,-46.5"/>
<text text-anchor="middle" x="312.5" y="-53" font-family="Helvetica,sans-Serif" font-size="10.00"> lpq</text>
</g>
<!-- Node5 -->
<g id="node5" class="node">
<title>Node5</title>
<g id="a_node5"><a xlink:href="structadiar_1_1statistics_1_1levelized__priority__queue__t.html" target="_top" xlink:title="Levelized Priority Queue statistics.">
<polygon fill="none" stroke="black" points="0,-35 0,-65 146,-65 146,-35 0,-35"/>
<text text-anchor="start" x="8" y="-53" font-family="Helvetica,sans-Serif" font-size="10.00">adiar::statistics::</text>
<text text-anchor="middle" x="73" y="-42" font-family="Helvetica,sans-Serif" font-size="10.00">levelized_priority_queue_t</text>
</a>
</g>
</g>
<!-- Node5&#45;&gt;Node4 -->
<g id="edge4" class="edge">
<title>Node5&#45;&gt;Node4</title>
<path fill="none" stroke="midnightblue" d="M156.2,-50C165.18,-50 174.12,-50 182.55,-50"/>
<polygon fill="midnightblue" stroke="midnightblue" points="156.06,-46.5 146.06,-50 156.06,-53.5 156.06,-46.5"/>
</g>
<!-- Node6&#45;&gt;Node1 -->
<g id="edge5" class="edge">
<title>Node6&#45;&gt;Node1</title>
<path fill="none" stroke="#9a32cd" stroke-dasharray="5,2" d="M626.28,-32.42C644.53,-35.04 663.87,-37.81 681.87,-40.39"/>
<polygon fill="#9a32cd" stroke="#9a32cd" points="626.66,-28.94 616.26,-30.99 625.66,-35.87 626.66,-28.94"/>
<text text-anchor="middle" x="649" y="-41" font-family="Helvetica,sans-Serif" font-size="10.00"> up</text>
</g>
</g>
</svg>
