<?xml version="1.0" encoding="UTF-8" standalone="no"?>
<!DOCTYPE svg PUBLIC "-//W3C//DTD SVG 1.1//EN"
 "http://www.w3.org/Graphics/SVG/1.1/DTD/svg11.dtd">
<!-- Generated by graphviz version 2.43.0 (0)
 -->
<!-- Title: adiar::statistics::nested_sweeping_t::inner_down_t Pages: 1 -->
<svg width="372pt" height="110pt"
 viewBox="0.00 0.00 372.00 110.00" xmlns="http://www.w3.org/2000/svg" xmlns:xlink="http://www.w3.org/1999/xlink">
<g id="graph0" class="graph" transform="scale(1 1) rotate(0) translate(4 106)">
<title>adiar::statistics::nested_sweeping_t::inner_down_t</title>
<!-- Node1 -->
<g id="node1" class="node">
<title>Node1</title>
<g id="a_node1"><a xlink:title="Root Requests generated for Inner Down Sweep.">
<polygon fill="#bfbfbf" stroke="black" points="223,-30.5 223,-71.5 364,-71.5 364,-30.5 223,-30.5"/>
<text text-anchor="start" x="231" y="-59.5" font-family="Helvetica,sans-Serif" font-size="10.00">adiar::statistics::</text>
<text text-anchor="start" x="231" y="-48.5" font-family="Helvetica,sans-Serif" font-size="10.00">nested_sweeping_t::inner</text>
<text text-anchor="middle" x="293.5" y="-37.5" font-family="Helvetica,sans-Serif" font-size="10.00">_down_t</text>
</a>
</g>
</g>
<!-- Node2 -->
<g id="node2" class="node">
<title>Node2</title>
<g id="a_node2"><a xlink:href="structadiar_1_1statistics_1_1nested__sweeping__t_1_1inner__down__t_1_1inputs__t.html" target="_top" xlink:title=" ">
<polygon fill="none" stroke="black" points="0,-60.5 0,-101.5 141,-101.5 141,-60.5 0,-60.5"/>
<text text-anchor="start" x="8" y="-89.5" font-family="Helvetica,sans-Serif" font-size="10.00">adiar::statistics::</text>
<text text-anchor="start" x="8" y="-78.5" font-family="Helvetica,sans-Serif" font-size="10.00">nested_sweeping_t::inner</text>
<text text-anchor="middle" x="70.5" y="-67.5" font-family="Helvetica,sans-Serif" font-size="10.00">_down_t::inputs_t</text>
</a>
</g>
</g>
<!-- Node2&#45;&gt;Node1 -->
<g id="edge1" class="edge">
<title>Node2&#45;&gt;Node1</title>
<path fill="none" stroke="#9a32cd" stroke-dasharray="5,2" d="M151.05,-70.2C174.53,-67.01 200.04,-63.55 222.85,-60.46"/>
<polygon fill="#9a32cd" stroke="#9a32cd" points="150.56,-66.74 141.12,-71.55 151.5,-73.67 150.56,-66.74"/>
<text text-anchor="middle" x="182" y="-71" font-family="Helvetica,sans-Serif" font-size="10.00"> inputs</text>
</g>
<!-- Node3 -->
<g id="node3" class="node">
<title>Node3</title>
<g id="a_node3"><a xlink:href="structadiar_1_1statistics_1_1nested__sweeping__t_1_1inner__down__t_1_1requests__t.html" target="_top" xlink:title=" ">
<polygon fill="none" stroke="black" points="0,-0.5 0,-41.5 141,-41.5 141,-0.5 0,-0.5"/>
<text text-anchor="start" x="8" y="-29.5" font-family="Helvetica,sans-Serif" font-size="10.00">adiar::statistics::</text>
<text text-anchor="start" x="8" y="-18.5" font-family="Helvetica,sans-Serif" font-size="10.00">nested_sweeping_t::inner</text>
<text text-anchor="middle" x="70.5" y="-7.5" font-family="Helvetica,sans-Serif" font-size="10.00">_down_t::requests_t</text>
</a>
</g>
</g>
<!-- Node3&#45;&gt;Node1 -->
<g id="edge2" class="edge">
<title>Node3&#45;&gt;Node1</title>
<path fill="none" stroke="#9a32cd" stroke-dasharray="5,2" d="M151.05,-31.8C174.53,-34.99 200.04,-38.45 222.85,-41.54"/>
<polygon fill="#9a32cd" stroke="#9a32cd" points="151.5,-28.33 141.12,-30.45 150.56,-35.26 151.5,-28.33"/>
<text text-anchor="middle" x="182" y="-41" font-family="Helvetica,sans-Serif" font-size="10.00"> requests</text>
</g>
</g>
</svg>
