<?xml version="1.0" encoding="UTF-8" standalone="no"?>
<!DOCTYPE svg PUBLIC "-//W3C//DTD SVG 1.1//EN"
 "http://www.w3.org/Graphics/SVG/1.1/DTD/svg11.dtd">
<!-- Generated by graphviz version 2.43.0 (0)
 -->
<!-- Title: adiar::stats_t::nested_sweeping_t Pages: 1 -->
<svg width="1034pt" height="149pt"
 viewBox="0.00 0.00 1034.00 149.00" xmlns="http://www.w3.org/2000/svg" xmlns:xlink="http://www.w3.org/1999/xlink">
<g id="graph0" class="graph" transform="scale(1 1) rotate(0) translate(4 145)">
<title>adiar::stats_t::nested_sweeping_t</title>
<!-- Node1 -->
<g id="node1" class="node">
<title>Node1</title>
<g id="a_node1"><a xlink:title="Nested Sweeping statistics.">
<polygon fill="#bfbfbf" stroke="black" points="907,-27.5 907,-57.5 1026,-57.5 1026,-27.5 907,-27.5"/>
<text text-anchor="start" x="915" y="-45.5" font-family="Helvetica,sans-Serif" font-size="10.00">adiar::stats_t::nested</text>
<text text-anchor="middle" x="966.5" y="-34.5" font-family="Helvetica,sans-Serif" font-size="10.00">_sweeping_t</text>
</a>
</g>
</g>
<!-- Node2 -->
<g id="node2" class="node">
<title>Node2</title>
<g id="a_node2"><a xlink:href="structadiar_1_1stats__t_1_1nested__sweeping__t_1_1inner__t.html" target="_top" xlink:title="Inner Sweep(s)">
<polygon fill="none" stroke="black" points="723,-55.5 723,-85.5 842,-85.5 842,-55.5 723,-55.5"/>
<text text-anchor="start" x="731" y="-73.5" font-family="Helvetica,sans-Serif" font-size="10.00">adiar::stats_t::nested</text>
<text text-anchor="middle" x="782.5" y="-62.5" font-family="Helvetica,sans-Serif" font-size="10.00">_sweeping_t::inner_t</text>
</a>
</g>
</g>
<!-- Node2&#45;&gt;Node1 -->
<g id="edge1" class="edge">
<title>Node2&#45;&gt;Node1</title>
<path fill="none" stroke="#9a32cd" stroke-dasharray="5,2" d="M852.2,-59.93C870.15,-57.17 889.33,-54.22 906.71,-51.54"/>
<polygon fill="#9a32cd" stroke="#9a32cd" points="851.44,-56.51 842.09,-61.49 852.5,-63.43 851.44,-56.51"/>
<text text-anchor="middle" x="874.5" y="-61.5" font-family="Helvetica,sans-Serif" font-size="10.00"> inner</text>
</g>
<!-- Node3 -->
<g id="node3" class="node">
<title>Node3</title>
<g id="a_node3"><a xlink:href="structadiar_1_1stats__t_1_1nested__sweeping__t_1_1inner__t_1_1up__t.html" target="_top" xlink:title="Inner Up Sweep.">
<polygon fill="none" stroke="black" points="512.5,-110.5 512.5,-140.5 656.5,-140.5 656.5,-110.5 512.5,-110.5"/>
<text text-anchor="start" x="520.5" y="-128.5" font-family="Helvetica,sans-Serif" font-size="10.00">adiar::stats_t::nested</text>
<text text-anchor="middle" x="584.5" y="-117.5" font-family="Helvetica,sans-Serif" font-size="10.00">_sweeping_t::inner_t::up_t</text>
</a>
</g>
</g>
<!-- Node3&#45;&gt;Node2 -->
<g id="edge2" class="edge">
<title>Node3&#45;&gt;Node2</title>
<path fill="none" stroke="#9a32cd" stroke-dasharray="5,2" d="M649.01,-107.68C674.52,-100.52 703.6,-92.36 728.01,-85.51"/>
<polygon fill="#9a32cd" stroke="#9a32cd" points="647.74,-104.4 639.06,-110.47 649.63,-111.14 647.74,-104.4"/>
<text text-anchor="middle" x="690" y="-102.5" font-family="Helvetica,sans-Serif" font-size="10.00"> up</text>
</g>
<!-- Node4 -->
<g id="node4" class="node">
<title>Node4</title>
<g id="a_node4"><a xlink:href="structadiar_1_1stats__t_1_1____alg__base.html" target="_top" xlink:title="Common statistics for all algorithms.">
<polygon fill="none" stroke="black" points="335,-88 335,-107 475,-107 475,-88 335,-88"/>
<text text-anchor="middle" x="405" y="-95" font-family="Helvetica,sans-Serif" font-size="10.00">adiar::stats_t::__alg_base</text>
</a>
</g>
</g>
<!-- Node4&#45;&gt;Node3 -->
<g id="edge3" class="edge">
<title>Node4&#45;&gt;Node3</title>
<path fill="none" stroke="midnightblue" d="M476.78,-108.67C488.53,-110.52 500.72,-112.44 512.48,-114.3"/>
<polygon fill="midnightblue" stroke="midnightblue" points="477.01,-105.16 466.59,-107.06 475.92,-112.07 477.01,-105.16"/>
</g>
<!-- Node7 -->
<g id="node7" class="node">
<title>Node7</title>
<g id="a_node7"><a xlink:href="structadiar_1_1stats__t_1_1nested__sweeping__t_1_1inner__t_1_1down__t.html" target="_top" xlink:title="Inner Down Sweep.">
<polygon fill="none" stroke="black" points="523,-50 523,-91 646,-91 646,-50 523,-50"/>
<text text-anchor="start" x="531" y="-79" font-family="Helvetica,sans-Serif" font-size="10.00">adiar::stats_t::nested</text>
<text text-anchor="start" x="531" y="-68" font-family="Helvetica,sans-Serif" font-size="10.00">_sweeping_t::inner_t::</text>
<text text-anchor="middle" x="584.5" y="-57" font-family="Helvetica,sans-Serif" font-size="10.00">down_t</text>
</a>
</g>
</g>
<!-- Node4&#45;&gt;Node7 -->
<g id="edge7" class="edge">
<title>Node4&#45;&gt;Node7</title>
<path fill="none" stroke="midnightblue" d="M478.66,-86.45C493.38,-84.21 508.72,-81.87 522.98,-79.71"/>
<polygon fill="midnightblue" stroke="midnightblue" points="477.94,-83.02 468.58,-87.98 478.99,-89.94 477.94,-83.02"/>
</g>
<!-- Node5 -->
<g id="node5" class="node">
<title>Node5</title>
<g id="a_node5"><a xlink:href="structadiar_1_1stats__t_1_1____alg__base_1_1____lpq.html" target="_top" xlink:title="Type and usage of this algorithm&#39;s levelized priority queue.">
<polygon fill="none" stroke="black" points="168,-82.5 168,-112.5 280,-112.5 280,-82.5 168,-82.5"/>
<text text-anchor="start" x="176" y="-100.5" font-family="Helvetica,sans-Serif" font-size="10.00">adiar::stats_t::__alg</text>
<text text-anchor="middle" x="224" y="-89.5" font-family="Helvetica,sans-Serif" font-size="10.00">_base::__lpq</text>
</a>
</g>
</g>
<!-- Node5&#45;&gt;Node4 -->
<g id="edge4" class="edge">
<title>Node5&#45;&gt;Node4</title>
<path fill="none" stroke="#9a32cd" stroke-dasharray="5,2" d="M290.48,-97.5C304.9,-97.5 320.22,-97.5 334.79,-97.5"/>
<polygon fill="#9a32cd" stroke="#9a32cd" points="290.17,-94 280.17,-97.5 290.17,-101 290.17,-94"/>
<text text-anchor="middle" x="307.5" y="-100.5" font-family="Helvetica,sans-Serif" font-size="10.00"> lpq</text>
</g>
<!-- Node6 -->
<g id="node6" class="node">
<title>Node6</title>
<g id="a_node6"><a xlink:href="structadiar_1_1stats__t_1_1levelized__priority__queue__t.html" target="_top" xlink:title="Levelized Priority Queue statistics.">
<polygon fill="none" stroke="black" points="0,-82.5 0,-112.5 131,-112.5 131,-82.5 0,-82.5"/>
<text text-anchor="start" x="8" y="-100.5" font-family="Helvetica,sans-Serif" font-size="10.00">adiar::stats_t::levelized</text>
<text text-anchor="middle" x="65.5" y="-89.5" font-family="Helvetica,sans-Serif" font-size="10.00">_priority_queue_t</text>
</a>
</g>
</g>
<!-- Node6&#45;&gt;Node5 -->
<g id="edge5" class="edge">
<title>Node6&#45;&gt;Node5</title>
<path fill="none" stroke="midnightblue" d="M141.08,-97.5C150,-97.5 158.99,-97.5 167.58,-97.5"/>
<polygon fill="midnightblue" stroke="midnightblue" points="141.06,-94 131.06,-97.5 141.06,-101 141.06,-94"/>
</g>
<!-- Node7&#45;&gt;Node2 -->
<g id="edge6" class="edge">
<title>Node7&#45;&gt;Node2</title>
<path fill="none" stroke="#9a32cd" stroke-dasharray="5,2" d="M656.36,-70.5C678.16,-70.5 701.9,-70.5 722.79,-70.5"/>
<polygon fill="#9a32cd" stroke="#9a32cd" points="656.17,-67 646.17,-70.5 656.17,-74 656.17,-67"/>
<text text-anchor="middle" x="690" y="-73.5" font-family="Helvetica,sans-Serif" font-size="10.00"> down</text>
</g>
<!-- Node8 -->
<g id="node8" class="node">
<title>Node8</title>
<g id="a_node8"><a xlink:href="structadiar_1_1stats__t_1_1nested__sweeping__t_1_1outer__t.html" target="_top" xlink:title="Outer Sweep(s)">
<polygon fill="none" stroke="black" points="723,-3.5 723,-33.5 842,-33.5 842,-3.5 723,-3.5"/>
<text text-anchor="start" x="731" y="-21.5" font-family="Helvetica,sans-Serif" font-size="10.00">adiar::stats_t::nested</text>
<text text-anchor="middle" x="782.5" y="-10.5" font-family="Helvetica,sans-Serif" font-size="10.00">_sweeping_t::outer_t</text>
</a>
</g>
</g>
<!-- Node8&#45;&gt;Node1 -->
<g id="edge8" class="edge">
<title>Node8&#45;&gt;Node1</title>
<path fill="none" stroke="#9a32cd" stroke-dasharray="5,2" d="M852.31,-25.9C864.54,-27.34 877.15,-28.9 889,-30.5 894.73,-31.27 900.69,-32.13 906.65,-33.01"/>
<polygon fill="#9a32cd" stroke="#9a32cd" points="852.48,-22.4 842.15,-24.72 851.68,-29.35 852.48,-22.4"/>
<text text-anchor="middle" x="874.5" y="-33.5" font-family="Helvetica,sans-Serif" font-size="10.00"> outer</text>
</g>
<!-- Node9 -->
<g id="node9" class="node">
<title>Node9</title>
<g id="a_node9"><a xlink:href="structadiar_1_1stats__t_1_1nested__sweeping__t_1_1outer__t_1_1up__t.html" target="_top" xlink:title="Outer Up Sweep.">
<polygon fill="none" stroke="black" points="512,-0.5 512,-30.5 657,-30.5 657,-0.5 512,-0.5"/>
<text text-anchor="start" x="520" y="-18.5" font-family="Helvetica,sans-Serif" font-size="10.00">adiar::stats_t::nested</text>
<text text-anchor="middle" x="584.5" y="-7.5" font-family="Helvetica,sans-Serif" font-size="10.00">_sweeping_t::outer_t::up_t</text>
</a>
</g>
</g>
<!-- Node9&#45;&gt;Node8 -->
<g id="edge9" class="edge">
<title>Node9&#45;&gt;Node8</title>
<path fill="none" stroke="#9a32cd" stroke-dasharray="5,2" d="M667.1,-16.75C685.84,-17.04 705.41,-17.34 722.95,-17.6"/>
<polygon fill="#9a32cd" stroke="#9a32cd" points="667.14,-13.25 657.09,-16.6 667.04,-20.25 667.14,-13.25"/>
<text text-anchor="middle" x="690" y="-20.5" font-family="Helvetica,sans-Serif" font-size="10.00"> up</text>
</g>
</g>
</svg>
