<?xml version="1.0" encoding="UTF-8" standalone="no"?>
<!DOCTYPE svg PUBLIC "-//W3C//DTD SVG 1.1//EN"
 "http://www.w3.org/Graphics/SVG/1.1/DTD/svg11.dtd">
<!-- Generated by graphviz version 2.43.0 (0)
 -->
<!-- Title: adiar::statistics::nested_sweeping_t Pages: 1 -->
<svg width="1089pt" height="202pt"
 viewBox="0.00 0.00 1089.00 201.50" xmlns="http://www.w3.org/2000/svg" xmlns:xlink="http://www.w3.org/1999/xlink">
<g id="graph0" class="graph" transform="scale(1 1) rotate(0) translate(4 197.5)">
<title>adiar::statistics::nested_sweeping_t</title>
<!-- Node1 -->
<g id="node1" class="node">
<title>Node1</title>
<g id="a_node1"><a xlink:title="Nested Sweeping statistics.">
<polygon fill="#bfbfbf" stroke="black" points="971,-114 971,-144 1081,-144 1081,-114 971,-114"/>
<text text-anchor="start" x="979" y="-132" font-family="Helvetica,sans-Serif" font-size="10.00">adiar::statistics::</text>
<text text-anchor="middle" x="1026" y="-121" font-family="Helvetica,sans-Serif" font-size="10.00">nested_sweeping_t</text>
</a>
</g>
</g>
<!-- Node2 -->
<g id="node2" class="node">
<title>Node2</title>
<g id="a_node2"><a xlink:href="structadiar_1_1statistics_1_1nested__sweeping__t_1_1outer__up__t.html" target="_top" xlink:title="Outer Reduce Sweep.">
<polygon fill="none" stroke="black" points="707,-163 707,-193 875,-193 875,-163 707,-163"/>
<text text-anchor="start" x="715" y="-181" font-family="Helvetica,sans-Serif" font-size="10.00">adiar::statistics::</text>
<text text-anchor="middle" x="791" y="-170" font-family="Helvetica,sans-Serif" font-size="10.00">nested_sweeping_t::outer_up_t</text>
</a>
</g>
</g>
<!-- Node2&#45;&gt;Node1 -->
<g id="edge1" class="edge">
<title>Node2&#45;&gt;Node1</title>
<path fill="none" stroke="#9a32cd" stroke-dasharray="5,2" d="M873.35,-160.89C905.57,-154.12 941.74,-146.51 970.67,-140.42"/>
<polygon fill="#9a32cd" stroke="#9a32cd" points="872.56,-157.48 863.49,-162.97 874,-164.33 872.56,-157.48"/>
<text text-anchor="middle" x="923" y="-159" font-family="Helvetica,sans-Serif" font-size="10.00"> outer_up</text>
</g>
<!-- Node3 -->
<g id="node3" class="node">
<title>Node3</title>
<g id="a_node3"><a xlink:href="structadiar_1_1statistics_1_1reduce__t.html" target="_top" xlink:title="Reduce algorithm statistics.">
<polygon fill="none" stroke="black" points="505.5,-145 505.5,-175 603.5,-175 603.5,-145 505.5,-145"/>
<text text-anchor="start" x="513.5" y="-163" font-family="Helvetica,sans-Serif" font-size="10.00">adiar::statistics::</text>
<text text-anchor="middle" x="554.5" y="-152" font-family="Helvetica,sans-Serif" font-size="10.00">reduce_t</text>
</a>
</g>
</g>
<!-- Node3&#45;&gt;Node2 -->
<g id="edge2" class="edge">
<title>Node3&#45;&gt;Node2</title>
<path fill="none" stroke="midnightblue" d="M613.6,-164.46C641.75,-166.62 676.07,-169.25 706.92,-171.62"/>
<polygon fill="midnightblue" stroke="midnightblue" points="613.76,-160.96 603.52,-163.69 613.22,-167.94 613.76,-160.96"/>
</g>
<!-- Node7 -->
<g id="node7" class="node">
<title>Node7</title>
<g id="a_node7"><a xlink:href="structadiar_1_1statistics_1_1nested__sweeping__t_1_1inner__up__t.html" target="_top" xlink:title="Inner Up Sweep(s)">
<polygon fill="none" stroke="black" points="707.5,-114 707.5,-144 874.5,-144 874.5,-114 707.5,-114"/>
<text text-anchor="start" x="715.5" y="-132" font-family="Helvetica,sans-Serif" font-size="10.00">adiar::statistics::</text>
<text text-anchor="middle" x="791" y="-121" font-family="Helvetica,sans-Serif" font-size="10.00">nested_sweeping_t::inner_up_t</text>
</a>
</g>
</g>
<!-- Node3&#45;&gt;Node7 -->
<g id="edge7" class="edge">
<title>Node3&#45;&gt;Node7</title>
<path fill="none" stroke="midnightblue" d="M613.64,-152.31C641.93,-148.57 676.43,-144.01 707.39,-139.92"/>
<polygon fill="midnightblue" stroke="midnightblue" points="612.98,-148.87 603.52,-153.65 613.89,-155.81 612.98,-148.87"/>
</g>
<!-- Node4 -->
<g id="node4" class="node">
<title>Node4</title>
<g id="a_node4"><a xlink:href="structadiar_1_1statistics_1_1____alg__base.html" target="_top" xlink:title="Common statistics for all algorithms.">
<polygon fill="none" stroke="black" points="349,-145 349,-175 447,-175 447,-145 349,-145"/>
<text text-anchor="start" x="357" y="-163" font-family="Helvetica,sans-Serif" font-size="10.00">adiar::statistics::</text>
<text text-anchor="middle" x="398" y="-152" font-family="Helvetica,sans-Serif" font-size="10.00">__alg_base</text>
</a>
</g>
</g>
<!-- Node4&#45;&gt;Node3 -->
<g id="edge3" class="edge">
<title>Node4&#45;&gt;Node3</title>
<path fill="none" stroke="midnightblue" d="M457.29,-160C473.19,-160 490.23,-160 505.49,-160"/>
<polygon fill="midnightblue" stroke="midnightblue" points="457.04,-156.5 447.04,-160 457.04,-163.5 457.04,-156.5"/>
</g>
<!-- Node5 -->
<g id="node5" class="node">
<title>Node5</title>
<g id="a_node5"><a xlink:href="structadiar_1_1statistics_1_1____alg__base_1_1____lpq__t.html" target="_top" xlink:title="Type and usage of this algorithm&#39;s levelized priority queue.">
<polygon fill="none" stroke="black" points="183,-145 183,-175 294,-175 294,-145 183,-145"/>
<text text-anchor="start" x="191" y="-163" font-family="Helvetica,sans-Serif" font-size="10.00">adiar::statistics::</text>
<text text-anchor="middle" x="238.5" y="-152" font-family="Helvetica,sans-Serif" font-size="10.00">__alg_base::__lpq_t</text>
</a>
</g>
</g>
<!-- Node5&#45;&gt;Node4 -->
<g id="edge4" class="edge">
<title>Node5&#45;&gt;Node4</title>
<path fill="none" stroke="#9a32cd" stroke-dasharray="5,2" d="M304.3,-160C319.18,-160 334.73,-160 348.76,-160"/>
<polygon fill="#9a32cd" stroke="#9a32cd" points="304.14,-156.5 294.14,-160 304.14,-163.5 304.14,-156.5"/>
<text text-anchor="middle" x="321.5" y="-163" font-family="Helvetica,sans-Serif" font-size="10.00"> lpq</text>
</g>
<!-- Node6 -->
<g id="node6" class="node">
<title>Node6</title>
<g id="a_node6"><a xlink:href="structadiar_1_1statistics_1_1levelized__priority__queue__t.html" target="_top" xlink:title="Levelized Priority Queue statistics.">
<polygon fill="none" stroke="black" points="0,-145 0,-175 146,-175 146,-145 0,-145"/>
<text text-anchor="start" x="8" y="-163" font-family="Helvetica,sans-Serif" font-size="10.00">adiar::statistics::</text>
<text text-anchor="middle" x="73" y="-152" font-family="Helvetica,sans-Serif" font-size="10.00">levelized_priority_queue_t</text>
</a>
</g>
</g>
<!-- Node6&#45;&gt;Node5 -->
<g id="edge5" class="edge">
<title>Node6&#45;&gt;Node5</title>
<path fill="none" stroke="midnightblue" d="M156.34,-160C165.34,-160 174.34,-160 182.89,-160"/>
<polygon fill="midnightblue" stroke="midnightblue" points="156.19,-156.5 146.19,-160 156.19,-163.5 156.19,-156.5"/>
</g>
<!-- Node7&#45;&gt;Node1 -->
<g id="edge6" class="edge">
<title>Node7&#45;&gt;Node1</title>
<path fill="none" stroke="#9a32cd" stroke-dasharray="5,2" d="M885.01,-129C914.15,-129 945.34,-129 970.86,-129"/>
<polygon fill="#9a32cd" stroke="#9a32cd" points="884.8,-125.5 874.8,-129 884.8,-132.5 884.8,-125.5"/>
<text text-anchor="middle" x="923" y="-132" font-family="Helvetica,sans-Serif" font-size="10.00"> inner_up</text>
</g>
<!-- Node8 -->
<g id="node8" class="node">
<title>Node8</title>
<g id="a_node8"><a xlink:href="structadiar_1_1statistics_1_1nested__sweeping__t_1_1inner__down__t.html" target="_top" xlink:title="Root Requests generated for Inner Down Sweep.">
<polygon fill="none" stroke="black" points="720.5,-53.5 720.5,-94.5 861.5,-94.5 861.5,-53.5 720.5,-53.5"/>
<text text-anchor="start" x="728.5" y="-82.5" font-family="Helvetica,sans-Serif" font-size="10.00">adiar::statistics::</text>
<text text-anchor="start" x="728.5" y="-71.5" font-family="Helvetica,sans-Serif" font-size="10.00">nested_sweeping_t::inner</text>
<text text-anchor="middle" x="791" y="-60.5" font-family="Helvetica,sans-Serif" font-size="10.00">_down_t</text>
</a>
</g>
</g>
<!-- Node8&#45;&gt;Node1 -->
<g id="edge8" class="edge">
<title>Node8&#45;&gt;Node1</title>
<path fill="none" stroke="#9a32cd" stroke-dasharray="5,2" d="M871.6,-92.79C904.34,-100.52 941.42,-109.27 970.92,-116.24"/>
<polygon fill="#9a32cd" stroke="#9a32cd" points="872.13,-89.32 861.59,-90.43 870.52,-96.13 872.13,-89.32"/>
<text text-anchor="middle" x="923" y="-114" font-family="Helvetica,sans-Serif" font-size="10.00"> inner_down</text>
</g>
<!-- Node9 -->
<g id="node9" class="node">
<title>Node9</title>
<g id="a_node9"><a xlink:href="structadiar_1_1statistics_1_1nested__sweeping__t_1_1inner__down__t_1_1inputs__t.html" target="_top" xlink:title=" ">
<polygon fill="none" stroke="black" points="484,-60.5 484,-101.5 625,-101.5 625,-60.5 484,-60.5"/>
<text text-anchor="start" x="492" y="-89.5" font-family="Helvetica,sans-Serif" font-size="10.00">adiar::statistics::</text>
<text text-anchor="start" x="492" y="-78.5" font-family="Helvetica,sans-Serif" font-size="10.00">nested_sweeping_t::inner</text>
<text text-anchor="middle" x="554.5" y="-67.5" font-family="Helvetica,sans-Serif" font-size="10.00">_down_t::inputs_t</text>
</a>
</g>
</g>
<!-- Node9&#45;&gt;Node8 -->
<g id="edge9" class="edge">
<title>Node9&#45;&gt;Node8</title>
<path fill="none" stroke="#9a32cd" stroke-dasharray="5,2" d="M635.22,-78.62C662.78,-77.8 693.43,-76.88 720.14,-76.09"/>
<polygon fill="#9a32cd" stroke="#9a32cd" points="635.11,-75.12 625.22,-78.92 635.32,-82.12 635.11,-75.12"/>
<text text-anchor="middle" x="666" y="-81" font-family="Helvetica,sans-Serif" font-size="10.00"> inputs</text>
</g>
<!-- Node10 -->
<g id="node10" class="node">
<title>Node10</title>
<g id="a_node10"><a xlink:href="structadiar_1_1statistics_1_1nested__sweeping__t_1_1inner__down__t_1_1requests__t.html" target="_top" xlink:title=" ">
<polygon fill="none" stroke="black" points="484,-0.5 484,-41.5 625,-41.5 625,-0.5 484,-0.5"/>
<text text-anchor="start" x="492" y="-29.5" font-family="Helvetica,sans-Serif" font-size="10.00">adiar::statistics::</text>
<text text-anchor="start" x="492" y="-18.5" font-family="Helvetica,sans-Serif" font-size="10.00">nested_sweeping_t::inner</text>
<text text-anchor="middle" x="554.5" y="-7.5" font-family="Helvetica,sans-Serif" font-size="10.00">_down_t::requests_t</text>
</a>
</g>
</g>
<!-- Node10&#45;&gt;Node8 -->
<g id="edge10" class="edge">
<title>Node10&#45;&gt;Node8</title>
<path fill="none" stroke="#9a32cd" stroke-dasharray="5,2" d="M635.22,-39.02C662.78,-45.25 693.43,-52.17 720.14,-58.21"/>
<polygon fill="#9a32cd" stroke="#9a32cd" points="635.75,-35.55 625.22,-36.76 634.21,-42.38 635.75,-35.55"/>
<text text-anchor="middle" x="666" y="-54" font-family="Helvetica,sans-Serif" font-size="10.00"> requests</text>
</g>
</g>
</svg>
