<?xml version="1.0" encoding="UTF-8" standalone="no"?>
<!DOCTYPE svg PUBLIC "-//W3C//DTD SVG 1.1//EN"
 "http://www.w3.org/Graphics/SVG/1.1/DTD/svg11.dtd">
<!-- Generated by graphviz version 2.43.0 (0)
 -->
<!-- Title: adiar::statistics Pages: 1 -->
<svg width="1584pt" height="791pt"
 viewBox="0.00 0.00 1584.00 790.50" xmlns="http://www.w3.org/2000/svg" xmlns:xlink="http://www.w3.org/1999/xlink">
<g id="graph0" class="graph" transform="scale(1 1) rotate(0) translate(4 786.5)">
<title>adiar::statistics</title>
<!-- Node1 -->
<g id="node1" class="node">
<title>Node1</title>
<g id="a_node1"><a xlink:title="Available statistics from algorithm&#39;s and data structures.">
<polygon fill="#bfbfbf" stroke="black" points="1484,-393 1484,-412 1576,-412 1576,-393 1484,-393"/>
<text text-anchor="middle" x="1530" y="-400" font-family="Helvetica,sans-Serif" font-size="10.00">adiar::statistics</text>
</a>
</g>
</g>
<!-- Node2 -->
<g id="node2" class="node">
<title>Node2</title>
<g id="a_node2"><a xlink:href="structadiar_1_1statistics_1_1intercut__t.html" target="_top" xlink:title="Intercut algorithm statistics.">
<polygon fill="none" stroke="black" points="832,-725.5 832,-755.5 930,-755.5 930,-725.5 832,-725.5"/>
<text text-anchor="start" x="840" y="-743.5" font-family="Helvetica,sans-Serif" font-size="10.00">adiar::statistics::</text>
<text text-anchor="middle" x="881" y="-732.5" font-family="Helvetica,sans-Serif" font-size="10.00">intercut_t</text>
</a>
</g>
</g>
<!-- Node2&#45;&gt;Node1 -->
<g id="edge1" class="edge">
<title>Node2&#45;&gt;Node1</title>
<path fill="none" stroke="#9a32cd" stroke-dasharray="5,2" d="M940.45,-753.36C1061.44,-776.12 1338.65,-807.43 1466,-650.5 1527.03,-575.3 1529.8,-448.34 1529.28,-412.3"/>
<polygon fill="#9a32cd" stroke="#9a32cd" points="940.76,-749.86 930.28,-751.4 939.44,-756.73 940.76,-749.86"/>
<text text-anchor="middle" x="1183" y="-774.5" font-family="Helvetica,sans-Serif" font-size="10.00"> intercut</text>
</g>
<!-- Node3 -->
<g id="node3" class="node">
<title>Node3</title>
<g id="a_node3"><a xlink:href="structadiar_1_1statistics_1_1____alg__base.html" target="_top" xlink:title="Common statistics for all algorithms.">
<polygon fill="none" stroke="black" points="391,-413.5 391,-443.5 489,-443.5 489,-413.5 391,-413.5"/>
<text text-anchor="start" x="399" y="-431.5" font-family="Helvetica,sans-Serif" font-size="10.00">adiar::statistics::</text>
<text text-anchor="middle" x="440" y="-420.5" font-family="Helvetica,sans-Serif" font-size="10.00">__alg_base</text>
</a>
</g>
</g>
<!-- Node3&#45;&gt;Node2 -->
<g id="edge2" class="edge">
<title>Node3&#45;&gt;Node2</title>
<path fill="none" stroke="midnightblue" d="M441.91,-453.73C445.48,-511.27 463.03,-652.2 549,-716.5 632.05,-778.62 761.95,-765.25 831.76,-751.83"/>
<polygon fill="midnightblue" stroke="midnightblue" points="445.4,-453.49 441.38,-443.69 438.41,-453.86 445.4,-453.49"/>
</g>
<!-- Node6 -->
<g id="node6" class="node">
<title>Node6</title>
<g id="a_node6"><a xlink:href="structadiar_1_1statistics_1_1select__t.html" target="_top" xlink:title="Select algorithm statistics.">
<polygon fill="none" stroke="black" points="1134,-673.5 1134,-703.5 1232,-703.5 1232,-673.5 1134,-673.5"/>
<text text-anchor="start" x="1142" y="-691.5" font-family="Helvetica,sans-Serif" font-size="10.00">adiar::statistics::</text>
<text text-anchor="middle" x="1183" y="-680.5" font-family="Helvetica,sans-Serif" font-size="10.00">select_t</text>
</a>
</g>
</g>
<!-- Node3&#45;&gt;Node6 -->
<g id="edge6" class="edge">
<title>Node3&#45;&gt;Node6</title>
<path fill="none" stroke="midnightblue" d="M453.56,-452.37C483.23,-505.85 563.51,-634.44 673,-683.5 754.25,-719.9 1022.94,-702.1 1133.66,-692.87"/>
<polygon fill="midnightblue" stroke="midnightblue" points="456.63,-450.68 448.77,-443.58 450.48,-454.04 456.63,-450.68"/>
</g>
<!-- Node8 -->
<g id="node8" class="node">
<title>Node8</title>
<g id="a_node8"><a xlink:href="structadiar_1_1statistics_1_1prod2__t.html" target="_top" xlink:title="2&#45;ary Product Construction algorithm statistics.">
<polygon fill="none" stroke="black" points="694.5,-308.5 694.5,-338.5 792.5,-338.5 792.5,-308.5 694.5,-308.5"/>
<text text-anchor="start" x="702.5" y="-326.5" font-family="Helvetica,sans-Serif" font-size="10.00">adiar::statistics::</text>
<text text-anchor="middle" x="743.5" y="-315.5" font-family="Helvetica,sans-Serif" font-size="10.00">prod2_t</text>
</a>
</g>
</g>
<!-- Node3&#45;&gt;Node8 -->
<g id="edge9" class="edge">
<title>Node3&#45;&gt;Node8</title>
<path fill="none" stroke="midnightblue" d="M498.94,-415.69C557.25,-402.64 640.58,-383.49 655,-377.5 679.57,-367.3 705.18,-350.68 722.29,-338.57"/>
<polygon fill="midnightblue" stroke="midnightblue" points="498.08,-412.29 489.09,-417.89 499.61,-419.13 498.08,-412.29"/>
</g>
<!-- Node13 -->
<g id="node13" class="node">
<title>Node13</title>
<g id="a_node13"><a xlink:href="structadiar_1_1statistics_1_1reduce__t.html" target="_top" xlink:title="Reduce algorithm statistics.">
<polygon fill="none" stroke="black" points="694.5,-512.5 694.5,-542.5 792.5,-542.5 792.5,-512.5 694.5,-512.5"/>
<text text-anchor="start" x="702.5" y="-530.5" font-family="Helvetica,sans-Serif" font-size="10.00">adiar::statistics::</text>
<text text-anchor="middle" x="743.5" y="-519.5" font-family="Helvetica,sans-Serif" font-size="10.00">reduce_t</text>
</a>
</g>
</g>
<!-- Node3&#45;&gt;Node13 -->
<g id="edge15" class="edge">
<title>Node3&#45;&gt;Node13</title>
<path fill="none" stroke="midnightblue" d="M469.36,-449.56C490.32,-464.1 520.12,-482.7 549,-493.5 596.6,-511.3 654.34,-519.9 694.29,-523.98"/>
<polygon fill="midnightblue" stroke="midnightblue" points="471.13,-446.53 460.95,-443.61 467.09,-452.24 471.13,-446.53"/>
</g>
<!-- Node19 -->
<g id="node19" class="node">
<title>Node19</title>
<g id="a_node19"><a xlink:href="structadiar_1_1statistics_1_1quantify__t.html" target="_top" xlink:title="Quantification algorithm statistics.">
<polygon fill="none" stroke="black" points="694.5,-212.5 694.5,-242.5 792.5,-242.5 792.5,-212.5 694.5,-212.5"/>
<text text-anchor="start" x="702.5" y="-230.5" font-family="Helvetica,sans-Serif" font-size="10.00">adiar::statistics::</text>
<text text-anchor="middle" x="743.5" y="-219.5" font-family="Helvetica,sans-Serif" font-size="10.00">quantify_t</text>
</a>
</g>
</g>
<!-- Node3&#45;&gt;Node19 -->
<g id="edge23" class="edge">
<title>Node3&#45;&gt;Node19</title>
<path fill="none" stroke="midnightblue" d="M483.8,-409.09C503.58,-400.22 527.42,-389.67 549,-380.5 595.79,-360.62 618.04,-372.41 655,-337.5 668.59,-324.67 662.37,-314.87 673,-299.5 688.02,-277.78 709.71,-256.47 724.85,-242.74"/>
<polygon fill="midnightblue" stroke="midnightblue" points="482.13,-406 474.44,-413.3 485,-412.39 482.13,-406"/>
</g>
<!-- Node22 -->
<g id="node22" class="node">
<title>Node22</title>
<g id="a_node22"><a xlink:href="structadiar_1_1statistics_1_1prod3__t.html" target="_top" xlink:title="3&#45;ary Product Construction algorithm statistics.">
<polygon fill="none" stroke="black" points="832,-456.5 832,-486.5 930,-486.5 930,-456.5 832,-456.5"/>
<text text-anchor="start" x="840" y="-474.5" font-family="Helvetica,sans-Serif" font-size="10.00">adiar::statistics::</text>
<text text-anchor="middle" x="881" y="-463.5" font-family="Helvetica,sans-Serif" font-size="10.00">prod3_t</text>
</a>
</g>
</g>
<!-- Node3&#45;&gt;Node22 -->
<g id="edge29" class="edge">
<title>Node3&#45;&gt;Node22</title>
<path fill="none" stroke="midnightblue" d="M499.03,-445.23C515.09,-449.25 532.61,-453.08 549,-455.5 648.74,-470.23 767.04,-472.29 831.75,-472.13"/>
<polygon fill="midnightblue" stroke="midnightblue" points="499.8,-441.82 489.25,-442.72 498.06,-448.6 499.8,-441.82"/>
</g>
<!-- Node23 -->
<g id="node23" class="node">
<title>Node23</title>
<g id="a_node23"><a xlink:href="structadiar_1_1statistics_1_1optmin__t.html" target="_top" xlink:title="Boolean Optimization algorithm statistics.">
<polygon fill="none" stroke="black" points="1134,-413.5 1134,-443.5 1232,-443.5 1232,-413.5 1134,-413.5"/>
<text text-anchor="start" x="1142" y="-431.5" font-family="Helvetica,sans-Serif" font-size="10.00">adiar::statistics::</text>
<text text-anchor="middle" x="1183" y="-420.5" font-family="Helvetica,sans-Serif" font-size="10.00">optmin_t</text>
</a>
</g>
</g>
<!-- Node3&#45;&gt;Node23 -->
<g id="edge32" class="edge">
<title>Node3&#45;&gt;Node23</title>
<path fill="none" stroke="midnightblue" d="M499.28,-428.5C641.17,-428.5 1002.52,-428.5 1133.58,-428.5"/>
<polygon fill="midnightblue" stroke="midnightblue" points="499.05,-425 489.05,-428.5 499.05,-432 499.05,-425"/>
</g>
<!-- Node24 -->
<g id="node24" class="node">
<title>Node24</title>
<g id="a_node24"><a xlink:href="structadiar_1_1statistics_1_1equality__t.html" target="_top" xlink:title="Equality Checking algorithm statistics.">
<polygon fill="none" stroke="black" points="694.5,-47.5 694.5,-77.5 792.5,-77.5 792.5,-47.5 694.5,-47.5"/>
<text text-anchor="start" x="702.5" y="-65.5" font-family="Helvetica,sans-Serif" font-size="10.00">adiar::statistics::</text>
<text text-anchor="middle" x="743.5" y="-54.5" font-family="Helvetica,sans-Serif" font-size="10.00">equality_t</text>
</a>
</g>
</g>
<!-- Node3&#45;&gt;Node24 -->
<g id="edge34" class="edge">
<title>Node3&#45;&gt;Node24</title>
<path fill="none" stroke="midnightblue" d="M472.12,-407.39C491.61,-392.69 515.81,-371.48 531,-347.5 545.9,-323.98 528.99,-306.86 549,-287.5 584.02,-253.62 623.24,-296.45 655,-259.5 703.66,-202.88 628.7,-152.59 673,-92.5 678.46,-85.1 686.13,-79.5 694.39,-75.27"/>
<polygon fill="midnightblue" stroke="midnightblue" points="469.82,-404.74 463.83,-413.48 473.96,-410.38 469.82,-404.74"/>
</g>
<!-- Node27 -->
<g id="node27" class="node">
<title>Node27</title>
<g id="a_node27"><a xlink:href="structadiar_1_1statistics_1_1count__t.html" target="_top" xlink:title="Counting algorithm statistics.">
<polygon fill="none" stroke="black" points="832,-352.5 832,-382.5 930,-382.5 930,-352.5 832,-352.5"/>
<text text-anchor="start" x="840" y="-370.5" font-family="Helvetica,sans-Serif" font-size="10.00">adiar::statistics::</text>
<text text-anchor="middle" x="881" y="-359.5" font-family="Helvetica,sans-Serif" font-size="10.00">count_t</text>
</a>
</g>
</g>
<!-- Node3&#45;&gt;Node27 -->
<g id="edge38" class="edge">
<title>Node3&#45;&gt;Node27</title>
<path fill="none" stroke="midnightblue" d="M499.1,-421.97C542.18,-417 602.32,-409.8 655,-402.5 716.09,-394.04 786.28,-382.89 831.79,-375.48"/>
<polygon fill="midnightblue" stroke="midnightblue" points="498.62,-418.51 489.08,-423.12 499.41,-425.46 498.62,-418.51"/>
</g>
<!-- Node4 -->
<g id="node4" class="node">
<title>Node4</title>
<g id="a_node4"><a xlink:href="structadiar_1_1statistics_1_1____alg__base_1_1____lpq__t.html" target="_top" xlink:title="Type and usage of this algorithm&#39;s levelized priority queue.">
<polygon fill="none" stroke="black" points="183,-271.5 183,-301.5 294,-301.5 294,-271.5 183,-271.5"/>
<text text-anchor="start" x="191" y="-289.5" font-family="Helvetica,sans-Serif" font-size="10.00">adiar::statistics::</text>
<text text-anchor="middle" x="238.5" y="-278.5" font-family="Helvetica,sans-Serif" font-size="10.00">__alg_base::__lpq_t</text>
</a>
</g>
</g>
<!-- Node4&#45;&gt;Node3 -->
<g id="edge3" class="edge">
<title>Node4&#45;&gt;Node3</title>
<path fill="none" stroke="#9a32cd" stroke-dasharray="5,2" d="M269.03,-307.52C309.72,-336.48 382.06,-387.97 417.8,-413.41"/>
<polygon fill="#9a32cd" stroke="#9a32cd" points="271.03,-304.64 260.85,-301.7 266.97,-310.35 271.03,-304.64"/>
<text text-anchor="middle" x="321.5" y="-351.5" font-family="Helvetica,sans-Serif" font-size="10.00"> lpq</text>
</g>
<!-- Node5 -->
<g id="node5" class="node">
<title>Node5</title>
<g id="a_node5"><a xlink:href="structadiar_1_1statistics_1_1levelized__priority__queue__t.html" target="_top" xlink:title="Levelized Priority Queue statistics.">
<polygon fill="none" stroke="black" points="0,-109.5 0,-139.5 146,-139.5 146,-109.5 0,-109.5"/>
<text text-anchor="start" x="8" y="-127.5" font-family="Helvetica,sans-Serif" font-size="10.00">adiar::statistics::</text>
<text text-anchor="middle" x="73" y="-116.5" font-family="Helvetica,sans-Serif" font-size="10.00">levelized_priority_queue_t</text>
</a>
</g>
</g>
<!-- Node5&#45;&gt;Node1 -->
<g id="edge39" class="edge">
<title>Node5&#45;&gt;Node1</title>
<path fill="none" stroke="#9a32cd" stroke-dasharray="5,2" d="M156.46,-122.8C302.36,-119.95 615.56,-114.5 880,-114.5 880,-114.5 880,-114.5 1306,-114.5 1450.18,-114.5 1514.43,-342.95 1526.75,-392.92"/>
<polygon fill="#9a32cd" stroke="#9a32cd" points="156.18,-119.31 146.25,-123 156.31,-126.31 156.18,-119.31"/>
<text text-anchor="start" x="699.5" y="-129.5" font-family="Helvetica,sans-Serif" font-size="10.00"> levelized_priority</text>
<text text-anchor="middle" x="743.5" y="-118.5" font-family="Helvetica,sans-Serif" font-size="10.00">_queue</text>
</g>
<!-- Node5&#45;&gt;Node4 -->
<g id="edge4" class="edge">
<title>Node5&#45;&gt;Node4</title>
<path fill="none" stroke="midnightblue" d="M96.51,-146.8C130.23,-180.22 193.01,-242.42 222.04,-271.18"/>
<polygon fill="midnightblue" stroke="midnightblue" points="98.95,-144.29 89.38,-139.74 94.02,-149.27 98.95,-144.29"/>
</g>
<!-- Node6&#45;&gt;Node1 -->
<g id="edge5" class="edge">
<title>Node6&#45;&gt;Node1</title>
<path fill="none" stroke="#9a32cd" stroke-dasharray="5,2" d="M1242.49,-688.4C1305.85,-685.08 1405.91,-670.04 1466,-611.5 1524.64,-554.38 1529.17,-444.86 1529.16,-412.03"/>
<polygon fill="#9a32cd" stroke="#9a32cd" points="1242.09,-684.91 1232.26,-688.85 1242.4,-691.9 1242.09,-684.91"/>
<text text-anchor="middle" x="1305" y="-690.5" font-family="Helvetica,sans-Serif" font-size="10.00"> select</text>
</g>
<!-- Node7 -->
<g id="node7" class="node">
<title>Node7</title>
<g id="a_node7"><a xlink:href="structadiar_1_1statistics_1_1arc__file__t.html" target="_top" xlink:title="Arc Files statistics.">
<polygon fill="none" stroke="black" points="1256,-534.5 1256,-564.5 1354,-564.5 1354,-534.5 1256,-534.5"/>
<text text-anchor="start" x="1264" y="-552.5" font-family="Helvetica,sans-Serif" font-size="10.00">adiar::statistics::</text>
<text text-anchor="middle" x="1305" y="-541.5" font-family="Helvetica,sans-Serif" font-size="10.00">arc_file_t</text>
</a>
</g>
</g>
<!-- Node7&#45;&gt;Node1 -->
<g id="edge7" class="edge">
<title>Node7&#45;&gt;Node1</title>
<path fill="none" stroke="#9a32cd" stroke-dasharray="5,2" d="M1364.34,-550.49C1396.99,-548.31 1436.87,-540.79 1466,-519.5 1503.63,-492 1521.1,-435.05 1526.8,-412.25"/>
<polygon fill="#9a32cd" stroke="#9a32cd" points="1363.82,-547.01 1354.01,-551.03 1364.18,-554 1363.82,-547.01"/>
<text text-anchor="middle" x="1422" y="-551.5" font-family="Helvetica,sans-Serif" font-size="10.00"> arc_file</text>
</g>
<!-- Node8&#45;&gt;Node1 -->
<g id="edge8" class="edge">
<title>Node8&#45;&gt;Node1</title>
<path fill="none" stroke="#9a32cd" stroke-dasharray="5,2" d="M802.79,-322.37C894.29,-320.97 1077.15,-319.62 1232,-327.5 1289.06,-330.4 1303.17,-333.62 1360,-339.5 1407.16,-344.38 1422.27,-333.18 1466,-351.5 1488.33,-360.85 1509.09,-380.66 1520.31,-392.65"/>
<polygon fill="#9a32cd" stroke="#9a32cd" points="802.57,-318.88 792.63,-322.54 802.68,-325.88 802.57,-318.88"/>
<text text-anchor="middle" x="1183" y="-330.5" font-family="Helvetica,sans-Serif" font-size="10.00"> prod2</text>
</g>
<!-- Node9 -->
<g id="node9" class="node">
<title>Node9</title>
<g id="a_node9"><a xlink:href="structadiar_1_1statistics_1_1____random__access__base.html" target="_top" xlink:title="Common statistics for algorithms using random access.">
<polygon fill="none" stroke="black" points="374.5,-249.5 374.5,-279.5 505.5,-279.5 505.5,-249.5 374.5,-249.5"/>
<text text-anchor="start" x="382.5" y="-267.5" font-family="Helvetica,sans-Serif" font-size="10.00">adiar::statistics::</text>
<text text-anchor="middle" x="440" y="-256.5" font-family="Helvetica,sans-Serif" font-size="10.00">__random_access_base</text>
</a>
</g>
</g>
<!-- Node9&#45;&gt;Node8 -->
<g id="edge10" class="edge">
<title>Node9&#45;&gt;Node8</title>
<path fill="none" stroke="#9a32cd" stroke-dasharray="5,2" d="M515.52,-279.08C571.33,-290 646.06,-304.63 694.25,-314.06"/>
<polygon fill="#9a32cd" stroke="#9a32cd" points="516.17,-275.64 505.68,-277.16 514.82,-282.51 516.17,-275.64"/>
<text text-anchor="middle" x="602" y="-308.5" font-family="Helvetica,sans-Serif" font-size="10.00"> ra</text>
</g>
<!-- Node9&#45;&gt;Node19 -->
<g id="edge25" class="edge">
<title>Node9&#45;&gt;Node19</title>
<path fill="none" stroke="#9a32cd" stroke-dasharray="5,2" d="M499.94,-245.79C510.6,-241.42 521.38,-236.32 531,-230.5 540.16,-224.96 539,-218.3 549,-214.5 596.05,-196.61 654.14,-204.05 694.33,-213.33"/>
<polygon fill="#9a32cd" stroke="#9a32cd" points="498.66,-242.54 490.62,-249.44 501.21,-249.05 498.66,-242.54"/>
<text text-anchor="middle" x="602" y="-217.5" font-family="Helvetica,sans-Serif" font-size="10.00"> ra</text>
</g>
<!-- Node10 -->
<g id="node10" class="node">
<title>Node10</title>
<g id="a_node10"><a xlink:href="structadiar_1_1statistics_1_1____pq2__base.html" target="_top" xlink:title="Common statistics for algorithms using a second priority queue.">
<polygon fill="none" stroke="black" points="391,-307.5 391,-337.5 489,-337.5 489,-307.5 391,-307.5"/>
<text text-anchor="start" x="399" y="-325.5" font-family="Helvetica,sans-Serif" font-size="10.00">adiar::statistics::</text>
<text text-anchor="middle" x="440" y="-314.5" font-family="Helvetica,sans-Serif" font-size="10.00">__pq2_base</text>
</a>
</g>
</g>
<!-- Node10&#45;&gt;Node8 -->
<g id="edge11" class="edge">
<title>Node10&#45;&gt;Node8</title>
<path fill="none" stroke="#9a32cd" stroke-dasharray="5,2" d="M499.34,-322.69C556.01,-322.88 641.03,-323.16 694.07,-323.34"/>
<polygon fill="#9a32cd" stroke="#9a32cd" points="499.12,-319.19 489.11,-322.66 499.1,-326.19 499.12,-319.19"/>
<text text-anchor="middle" x="602" y="-325.5" font-family="Helvetica,sans-Serif" font-size="10.00"> pq</text>
</g>
<!-- Node10&#45;&gt;Node19 -->
<g id="edge26" class="edge">
<title>Node10&#45;&gt;Node19</title>
<path fill="none" stroke="#9a32cd" stroke-dasharray="5,2" d="M498.43,-305.69C509.65,-301.25 521.03,-295.87 531,-289.5 540.53,-283.41 539.1,-276.97 549,-271.5 594.39,-246.44 653.29,-235.64 694.12,-230.99"/>
<polygon fill="#9a32cd" stroke="#9a32cd" points="497.19,-302.41 489.06,-309.2 499.65,-308.97 497.19,-302.41"/>
<text text-anchor="middle" x="602" y="-274.5" font-family="Helvetica,sans-Serif" font-size="10.00"> pq</text>
</g>
<!-- Node11 -->
<g id="node11" class="node">
<title>Node11</title>
<g id="a_node11"><a xlink:href="structadiar_1_1statistics_1_1nested__sweeping__t.html" target="_top" xlink:title="Nested Sweeping statistics.">
<polygon fill="none" stroke="black" points="1250,-583.5 1250,-613.5 1360,-613.5 1360,-583.5 1250,-583.5"/>
<text text-anchor="start" x="1258" y="-601.5" font-family="Helvetica,sans-Serif" font-size="10.00">adiar::statistics::</text>
<text text-anchor="middle" x="1305" y="-590.5" font-family="Helvetica,sans-Serif" font-size="10.00">nested_sweeping_t</text>
</a>
</g>
</g>
<!-- Node11&#45;&gt;Node1 -->
<g id="edge12" class="edge">
<title>Node11&#45;&gt;Node1</title>
<path fill="none" stroke="#9a32cd" stroke-dasharray="5,2" d="M1370.44,-598.23C1402.43,-594.93 1439.75,-585.91 1466,-563.5 1513.94,-522.58 1525.62,-440.45 1528.27,-412.26"/>
<polygon fill="#9a32cd" stroke="#9a32cd" points="1369.92,-594.76 1360.25,-599.11 1370.52,-601.74 1369.92,-594.76"/>
<text text-anchor="middle" x="1422" y="-599.5" font-family="Helvetica,sans-Serif" font-size="10.00"> nested_sweeping</text>
</g>
<!-- Node12 -->
<g id="node12" class="node">
<title>Node12</title>
<g id="a_node12"><a xlink:href="structadiar_1_1statistics_1_1nested__sweeping__t_1_1outer__up__t.html" target="_top" xlink:title="Outer Reduce Sweep.">
<polygon fill="none" stroke="black" points="948,-534.5 948,-564.5 1116,-564.5 1116,-534.5 948,-534.5"/>
<text text-anchor="start" x="956" y="-552.5" font-family="Helvetica,sans-Serif" font-size="10.00">adiar::statistics::</text>
<text text-anchor="middle" x="1032" y="-541.5" font-family="Helvetica,sans-Serif" font-size="10.00">nested_sweeping_t::outer_up_t</text>
</a>
</g>
</g>
<!-- Node12&#45;&gt;Node11 -->
<g id="edge13" class="edge">
<title>Node12&#45;&gt;Node11</title>
<path fill="none" stroke="#9a32cd" stroke-dasharray="5,2" d="M1126.58,-564.77C1159.9,-570.4 1197.67,-576.99 1232,-583.5 1237.77,-584.59 1243.79,-585.78 1249.79,-586.99"/>
<polygon fill="#9a32cd" stroke="#9a32cd" points="1126.83,-561.26 1116.39,-563.06 1125.67,-568.17 1126.83,-561.26"/>
<text text-anchor="middle" x="1183" y="-586.5" font-family="Helvetica,sans-Serif" font-size="10.00"> outer_up</text>
</g>
<!-- Node13&#45;&gt;Node1 -->
<g id="edge30" class="edge">
<title>Node13&#45;&gt;Node1</title>
<path fill="none" stroke="#9a32cd" stroke-dasharray="5,2" d="M803.07,-524.48C952.46,-516.2 1344.48,-490.69 1466,-445.5 1486.36,-437.93 1506.49,-422.41 1518.33,-412.24"/>
<polygon fill="#9a32cd" stroke="#9a32cd" points="802.53,-521 792.74,-525.05 802.91,-527.99 802.53,-521"/>
<text text-anchor="middle" x="1183" y="-501.5" font-family="Helvetica,sans-Serif" font-size="10.00"> reduce</text>
</g>
<!-- Node13&#45;&gt;Node12 -->
<g id="edge14" class="edge">
<title>Node13&#45;&gt;Node12</title>
<path fill="none" stroke="midnightblue" d="M802.79,-531.98C844.57,-535.18 901.44,-539.55 947.96,-543.12"/>
<polygon fill="midnightblue" stroke="midnightblue" points="803.02,-528.48 792.78,-531.21 802.48,-535.46 803.02,-528.48"/>
</g>
<!-- Node14 -->
<g id="node14" class="node">
<title>Node14</title>
<g id="a_node14"><a xlink:href="structadiar_1_1statistics_1_1nested__sweeping__t_1_1inner__up__t.html" target="_top" xlink:title="Inner Up Sweep(s)">
<polygon fill="none" stroke="black" points="948.5,-583.5 948.5,-613.5 1115.5,-613.5 1115.5,-583.5 948.5,-583.5"/>
<text text-anchor="start" x="956.5" y="-601.5" font-family="Helvetica,sans-Serif" font-size="10.00">adiar::statistics::</text>
<text text-anchor="middle" x="1032" y="-590.5" font-family="Helvetica,sans-Serif" font-size="10.00">nested_sweeping_t::inner_up_t</text>
</a>
</g>
</g>
<!-- Node13&#45;&gt;Node14 -->
<g id="edge17" class="edge">
<title>Node13&#45;&gt;Node14</title>
<path fill="none" stroke="midnightblue" d="M802.55,-541.89C851.32,-553.97 920.79,-571.19 970.3,-583.46"/>
<polygon fill="midnightblue" stroke="midnightblue" points="803.33,-538.47 792.78,-539.46 801.64,-545.27 803.33,-538.47"/>
</g>
<!-- Node14&#45;&gt;Node11 -->
<g id="edge16" class="edge">
<title>Node14&#45;&gt;Node11</title>
<path fill="none" stroke="#9a32cd" stroke-dasharray="5,2" d="M1125.88,-598.5C1167.24,-598.5 1214.49,-598.5 1249.93,-598.5"/>
<polygon fill="#9a32cd" stroke="#9a32cd" points="1125.78,-595 1115.78,-598.5 1125.78,-602 1125.78,-595"/>
<text text-anchor="middle" x="1183" y="-601.5" font-family="Helvetica,sans-Serif" font-size="10.00"> inner_up</text>
</g>
<!-- Node15 -->
<g id="node15" class="node">
<title>Node15</title>
<g id="a_node15"><a xlink:href="structadiar_1_1statistics_1_1nested__sweeping__t_1_1inner__down__t.html" target="_top" xlink:title="Root Requests generated for Inner Down Sweep.">
<polygon fill="none" stroke="black" points="961.5,-633 961.5,-674 1102.5,-674 1102.5,-633 961.5,-633"/>
<text text-anchor="start" x="969.5" y="-662" font-family="Helvetica,sans-Serif" font-size="10.00">adiar::statistics::</text>
<text text-anchor="start" x="969.5" y="-651" font-family="Helvetica,sans-Serif" font-size="10.00">nested_sweeping_t::inner</text>
<text text-anchor="middle" x="1032" y="-640" font-family="Helvetica,sans-Serif" font-size="10.00">_down_t</text>
</a>
</g>
</g>
<!-- Node15&#45;&gt;Node11 -->
<g id="edge18" class="edge">
<title>Node15&#45;&gt;Node11</title>
<path fill="none" stroke="#9a32cd" stroke-dasharray="5,2" d="M1112.62,-637.63C1149.03,-630.34 1192.71,-621.54 1232,-613.5 1237.75,-612.32 1243.77,-611.08 1249.75,-609.84"/>
<polygon fill="#9a32cd" stroke="#9a32cd" points="1111.67,-634.25 1102.56,-639.64 1113.05,-641.11 1111.67,-634.25"/>
<text text-anchor="middle" x="1183" y="-635.5" font-family="Helvetica,sans-Serif" font-size="10.00"> inner_down</text>
</g>
<!-- Node16 -->
<g id="node16" class="node">
<title>Node16</title>
<g id="a_node16"><a xlink:href="structadiar_1_1statistics_1_1nested__sweeping__t_1_1inner__down__t_1_1inputs__t.html" target="_top" xlink:title=" ">
<polygon fill="none" stroke="black" points="673,-573 673,-614 814,-614 814,-573 673,-573"/>
<text text-anchor="start" x="681" y="-602" font-family="Helvetica,sans-Serif" font-size="10.00">adiar::statistics::</text>
<text text-anchor="start" x="681" y="-591" font-family="Helvetica,sans-Serif" font-size="10.00">nested_sweeping_t::inner</text>
<text text-anchor="middle" x="743.5" y="-580" font-family="Helvetica,sans-Serif" font-size="10.00">_down_t::inputs_t</text>
</a>
</g>
</g>
<!-- Node16&#45;&gt;Node15 -->
<g id="edge19" class="edge">
<title>Node16&#45;&gt;Node15</title>
<path fill="none" stroke="#9a32cd" stroke-dasharray="5,2" d="M824.11,-610.17C867.23,-619.2 920.01,-630.26 961.46,-638.94"/>
<polygon fill="#9a32cd" stroke="#9a32cd" points="824.72,-606.73 814.22,-608.1 823.29,-613.58 824.72,-606.73"/>
<text text-anchor="middle" x="881" y="-633.5" font-family="Helvetica,sans-Serif" font-size="10.00"> inputs</text>
</g>
<!-- Node17 -->
<g id="node17" class="node">
<title>Node17</title>
<g id="a_node17"><a xlink:href="structadiar_1_1statistics_1_1nested__sweeping__t_1_1inner__down__t_1_1requests__t.html" target="_top" xlink:title=" ">
<polygon fill="none" stroke="black" points="673,-633 673,-674 814,-674 814,-633 673,-633"/>
<text text-anchor="start" x="681" y="-662" font-family="Helvetica,sans-Serif" font-size="10.00">adiar::statistics::</text>
<text text-anchor="start" x="681" y="-651" font-family="Helvetica,sans-Serif" font-size="10.00">nested_sweeping_t::inner</text>
<text text-anchor="middle" x="743.5" y="-640" font-family="Helvetica,sans-Serif" font-size="10.00">_down_t::requests_t</text>
</a>
</g>
</g>
<!-- Node17&#45;&gt;Node15 -->
<g id="edge20" class="edge">
<title>Node17&#45;&gt;Node15</title>
<path fill="none" stroke="#9a32cd" stroke-dasharray="5,2" d="M824.38,-653.5C867.45,-653.5 920.1,-653.5 961.46,-653.5"/>
<polygon fill="#9a32cd" stroke="#9a32cd" points="824.22,-650 814.22,-653.5 824.22,-657 824.22,-650"/>
<text text-anchor="middle" x="881" y="-656.5" font-family="Helvetica,sans-Serif" font-size="10.00"> requests</text>
</g>
<!-- Node18 -->
<g id="node18" class="node">
<title>Node18</title>
<g id="a_node18"><a xlink:href="structadiar_1_1statistics_1_1replace__t.html" target="_top" xlink:title="Variable replacement statistics.">
<polygon fill="none" stroke="black" points="1256,-361.5 1256,-391.5 1354,-391.5 1354,-361.5 1256,-361.5"/>
<text text-anchor="start" x="1264" y="-379.5" font-family="Helvetica,sans-Serif" font-size="10.00">adiar::statistics::</text>
<text text-anchor="middle" x="1305" y="-368.5" font-family="Helvetica,sans-Serif" font-size="10.00">replace_t</text>
</a>
</g>
</g>
<!-- Node18&#45;&gt;Node1 -->
<g id="edge21" class="edge">
<title>Node18&#45;&gt;Node1</title>
<path fill="none" stroke="#9a32cd" stroke-dasharray="5,2" d="M1364.33,-383.3C1401.59,-387.65 1449.2,-393.2 1483.64,-397.21"/>
<polygon fill="#9a32cd" stroke="#9a32cd" points="1364.45,-379.79 1354.11,-382.11 1363.64,-386.74 1364.45,-379.79"/>
<text text-anchor="middle" x="1422" y="-397.5" font-family="Helvetica,sans-Serif" font-size="10.00"> replace</text>
</g>
<!-- Node19&#45;&gt;Node1 -->
<g id="edge22" class="edge">
<title>Node19&#45;&gt;Node1</title>
<path fill="none" stroke="#9a32cd" stroke-dasharray="5,2" d="M802.93,-223.78C931.02,-218.17 1242.87,-218.66 1466,-335.5 1492.03,-349.13 1513.19,-377.78 1523.03,-392.82"/>
<polygon fill="#9a32cd" stroke="#9a32cd" points="802.76,-220.28 792.93,-224.24 803.09,-227.27 802.76,-220.28"/>
<text text-anchor="middle" x="1183" y="-256.5" font-family="Helvetica,sans-Serif" font-size="10.00"> quantify</text>
</g>
<!-- Node20 -->
<g id="node20" class="node">
<title>Node20</title>
<g id="a_node20"><a xlink:href="structadiar_1_1statistics_1_1quantify__t_1_1nested__transposition__t.html" target="_top" xlink:title="Transposition algorithms prior to nested multi&#45;variable sweeping.">
<polygon fill="none" stroke="black" points="349,-190.5 349,-220.5 531,-220.5 531,-190.5 349,-190.5"/>
<text text-anchor="start" x="357" y="-208.5" font-family="Helvetica,sans-Serif" font-size="10.00">adiar::statistics::</text>
<text text-anchor="middle" x="440" y="-197.5" font-family="Helvetica,sans-Serif" font-size="10.00">quantify_t::nested_transposition_t</text>
</a>
</g>
</g>
<!-- Node20&#45;&gt;Node19 -->
<g id="edge24" class="edge">
<title>Node20&#45;&gt;Node19</title>
<path fill="none" stroke="#9a32cd" stroke-dasharray="5,2" d="M497.81,-187.85C541.36,-176.95 602.67,-167.33 655,-180.5 679.42,-186.64 704.44,-201.07 721.44,-212.33"/>
<polygon fill="#9a32cd" stroke="#9a32cd" points="496.76,-184.5 487.97,-190.41 498.53,-191.27 496.76,-184.5"/>
<text text-anchor="middle" x="602" y="-183.5" font-family="Helvetica,sans-Serif" font-size="10.00"> nested_transposition</text>
</g>
<!-- Node21 -->
<g id="node21" class="node">
<title>Node21</title>
<g id="a_node21"><a xlink:href="structadiar_1_1statistics_1_1quantify__t_1_1nested__policy__t.html" target="_top" xlink:title="Nested multi&#45;variable sweeping.">
<polygon fill="none" stroke="black" points="366,-141.5 366,-171.5 514,-171.5 514,-141.5 366,-141.5"/>
<text text-anchor="start" x="374" y="-159.5" font-family="Helvetica,sans-Serif" font-size="10.00">adiar::statistics::</text>
<text text-anchor="middle" x="440" y="-148.5" font-family="Helvetica,sans-Serif" font-size="10.00">quantify_t::nested_policy_t</text>
</a>
</g>
</g>
<!-- Node21&#45;&gt;Node19 -->
<g id="edge27" class="edge">
<title>Node21&#45;&gt;Node19</title>
<path fill="none" stroke="#9a32cd" stroke-dasharray="5,2" d="M524.45,-145.52C564.93,-143.22 613.63,-144.99 655,-159.5 685.32,-170.13 713.32,-195.83 729.12,-212.41"/>
<polygon fill="#9a32cd" stroke="#9a32cd" points="524.09,-142.04 514.34,-146.19 524.55,-149.03 524.09,-142.04"/>
<text text-anchor="middle" x="602" y="-162.5" font-family="Helvetica,sans-Serif" font-size="10.00"> nested_policy</text>
</g>
<!-- Node22&#45;&gt;Node1 -->
<g id="edge28" class="edge">
<title>Node22&#45;&gt;Node1</title>
<path fill="none" stroke="#9a32cd" stroke-dasharray="5,2" d="M940.26,-468.64C1030.37,-463.98 1208.91,-453.81 1360,-439.5 1407.25,-435.02 1419.93,-437.92 1466,-426.5 1480.31,-422.95 1495.8,-417.08 1507.84,-412.04"/>
<polygon fill="#9a32cd" stroke="#9a32cd" points="940.05,-465.14 930.24,-469.15 940.41,-472.14 940.05,-465.14"/>
<text text-anchor="middle" x="1183" y="-459.5" font-family="Helvetica,sans-Serif" font-size="10.00"> prod3</text>
</g>
<!-- Node23&#45;&gt;Node1 -->
<g id="edge31" class="edge">
<title>Node23&#45;&gt;Node1</title>
<path fill="none" stroke="#9a32cd" stroke-dasharray="5,2" d="M1242.47,-425.3C1299.55,-422.01 1388.82,-416.38 1466,-409.5 1471.81,-408.98 1477.91,-408.38 1483.94,-407.75"/>
<polygon fill="#9a32cd" stroke="#9a32cd" points="1241.98,-421.82 1232.2,-425.89 1242.38,-428.81 1241.98,-421.82"/>
<text text-anchor="middle" x="1305" y="-427.5" font-family="Helvetica,sans-Serif" font-size="10.00"> optmin</text>
</g>
<!-- Node24&#45;&gt;Node1 -->
<g id="edge33" class="edge">
<title>Node24&#45;&gt;Node1</title>
<path fill="none" stroke="#9a32cd" stroke-dasharray="5,2" d="M802.84,-61.57C965.63,-59.51 1416.18,-57.78 1466,-100.5 1512.04,-139.99 1525.93,-346.01 1528.52,-392.97"/>
<polygon fill="#9a32cd" stroke="#9a32cd" points="802.5,-58.07 792.54,-61.7 802.59,-65.07 802.5,-58.07"/>
<text text-anchor="middle" x="1183" y="-69.5" font-family="Helvetica,sans-Serif" font-size="10.00"> equality</text>
</g>
<!-- Node25 -->
<g id="node25" class="node">
<title>Node25</title>
<g id="a_node25"><a xlink:href="structadiar_1_1statistics_1_1equality__t_1_1fast__t.html" target="_top" xlink:title="Statistics from O(N) linear&#45;scan equality checking algorithm.">
<polygon fill="none" stroke="black" points="390.5,-0.5 390.5,-30.5 489.5,-30.5 489.5,-0.5 390.5,-0.5"/>
<text text-anchor="start" x="398.5" y="-18.5" font-family="Helvetica,sans-Serif" font-size="10.00">adiar::statistics::</text>
<text text-anchor="middle" x="440" y="-7.5" font-family="Helvetica,sans-Serif" font-size="10.00">equality_t::fast_t</text>
</a>
</g>
</g>
<!-- Node25&#45;&gt;Node24 -->
<g id="edge35" class="edge">
<title>Node25&#45;&gt;Node24</title>
<path fill="none" stroke="#9a32cd" stroke-dasharray="5,2" d="M499.89,-24.49C542.88,-31.07 602.57,-40.26 655,-48.5 667.77,-50.51 681.58,-52.7 694.37,-54.75"/>
<polygon fill="#9a32cd" stroke="#9a32cd" points="500.3,-21.01 489.88,-22.96 499.24,-27.93 500.3,-21.01"/>
<text text-anchor="middle" x="602" y="-51.5" font-family="Helvetica,sans-Serif" font-size="10.00"> fast_check</text>
</g>
<!-- Node26 -->
<g id="node26" class="node">
<title>Node26</title>
<g id="a_node26"><a xlink:href="structadiar_1_1statistics_1_1equality__t_1_1slow__t.html" target="_top" xlink:title="Statistics from O(N log N) time&#45;forward processing equality checking algorithm.">
<polygon fill="none" stroke="black" points="388.5,-49.5 388.5,-79.5 491.5,-79.5 491.5,-49.5 388.5,-49.5"/>
<text text-anchor="start" x="396.5" y="-67.5" font-family="Helvetica,sans-Serif" font-size="10.00">adiar::statistics::</text>
<text text-anchor="middle" x="440" y="-56.5" font-family="Helvetica,sans-Serif" font-size="10.00">equality_t::slow_t</text>
</a>
</g>
</g>
<!-- Node26&#45;&gt;Node24 -->
<g id="edge36" class="edge">
<title>Node26&#45;&gt;Node24</title>
<path fill="none" stroke="#9a32cd" stroke-dasharray="5,2" d="M502.08,-64.09C558.87,-63.72 642.32,-63.16 694.48,-62.82"/>
<polygon fill="#9a32cd" stroke="#9a32cd" points="501.78,-60.6 491.8,-64.16 501.83,-67.6 501.78,-60.6"/>
<text text-anchor="middle" x="602" y="-67.5" font-family="Helvetica,sans-Serif" font-size="10.00"> slow_check</text>
</g>
<!-- Node27&#45;&gt;Node1 -->
<g id="edge37" class="edge">
<title>Node27&#45;&gt;Node1</title>
<path fill="none" stroke="#9a32cd" stroke-dasharray="5,2" d="M940.11,-359.71C1030.38,-348.96 1209.57,-332.97 1360,-352.5 1413.4,-359.43 1473.26,-380.47 1505.45,-392.93"/>
<polygon fill="#9a32cd" stroke="#9a32cd" points="939.58,-356.25 930.08,-360.93 940.43,-363.2 939.58,-356.25"/>
<text text-anchor="middle" x="1183" y="-346.5" font-family="Helvetica,sans-Serif" font-size="10.00"> count</text>
</g>
<!-- Node28 -->
<g id="node28" class="node">
<title>Node28</title>
<g id="a_node28"><a xlink:href="structadiar_1_1statistics_1_1node__file__t.html" target="_top" xlink:title="Node Files statistics.">
<polygon fill="none" stroke="black" points="1256,-17.5 1256,-47.5 1354,-47.5 1354,-17.5 1256,-17.5"/>
<text text-anchor="start" x="1264" y="-35.5" font-family="Helvetica,sans-Serif" font-size="10.00">adiar::statistics::</text>
<text text-anchor="middle" x="1305" y="-24.5" font-family="Helvetica,sans-Serif" font-size="10.00">node_file_t</text>
</a>
</g>
</g>
<!-- Node28&#45;&gt;Node1 -->
<g id="edge40" class="edge">
<title>Node28&#45;&gt;Node1</title>
<path fill="none" stroke="#9a32cd" stroke-dasharray="5,2" d="M1364.5,-23.67C1398.37,-22.02 1439.43,-26.47 1466,-51.5 1517.48,-100.01 1527.25,-341.56 1528.76,-392.9"/>
<polygon fill="#9a32cd" stroke="#9a32cd" points="1363.99,-20.2 1354.24,-24.37 1364.46,-27.18 1363.99,-20.2"/>
<text text-anchor="middle" x="1422" y="-54.5" font-family="Helvetica,sans-Serif" font-size="10.00"> node_file</text>
</g>
</g>
</svg>
