<?xml version="1.0" encoding="UTF-8" standalone="no"?>
<!DOCTYPE svg PUBLIC "-//W3C//DTD SVG 1.1//EN"
 "http://www.w3.org/Graphics/SVG/1.1/DTD/svg11.dtd">
<!-- Generated by graphviz version 2.43.0 (0)
 -->
<!-- Title: adiar::statistics::equality_t Pages: 1 -->
<svg width="654pt" height="134pt"
 viewBox="0.00 0.00 654.00 134.00" xmlns="http://www.w3.org/2000/svg" xmlns:xlink="http://www.w3.org/1999/xlink">
<g id="graph0" class="graph" transform="scale(1 1) rotate(0) translate(4 130)">
<title>adiar::statistics::equality_t</title>
<!-- Node1 -->
<g id="Node000001" class="node">
<title>Node1</title>
<g id="a_Node000001"><a xlink:title="Equality Checking algorithm statistics.">
<polygon fill="#999999" stroke="#666666" points="646,-78 548,-78 548,-48 646,-48 646,-78"/>
<text text-anchor="start" x="556" y="-66" font-family="Helvetica,sans-Serif" font-size="10.00">adiar::statistics::</text>
<text text-anchor="middle" x="597" y="-55" font-family="Helvetica,sans-Serif" font-size="10.00">equality_t</text>
</a>
</g>
</g>
<!-- Node2 -->
<g id="Node000002" class="node">
<title>Node2</title>
<g id="a_Node000002"><a xlink:href="structadiar_1_1statistics_1_1____alg__base.html" target="_top" xlink:title="Common statistics for all algorithms.">
<polygon fill="white" stroke="#666666" points="449.5,-126 351.5,-126 351.5,-96 449.5,-96 449.5,-126"/>
<text text-anchor="start" x="359.5" y="-114" font-family="Helvetica,sans-Serif" font-size="10.00">adiar::statistics::</text>
<text text-anchor="middle" x="400.5" y="-103" font-family="Helvetica,sans-Serif" font-size="10.00">__alg_base</text>
</a>
</g>
</g>
<!-- Node2&#45;&gt;Node1 -->
<g id="edge1_Node000001_Node000002" class="edge">
<title>Node2&#45;&gt;Node1</title>
<g id="a_edge1_Node000001_Node000002"><a xlink:title=" ">
<path fill="none" stroke="#63b8ff" d="M459.31,-96.73C487.5,-89.78 521.01,-81.51 547.8,-74.9"/>
<polygon fill="#63b8ff" stroke="#63b8ff" points="458.45,-93.34 449.58,-99.13 460.13,-100.14 458.45,-93.34"/>
</a>
</g>
</g>
<!-- Node3 -->
<g id="Node000003" class="node">
<title>Node3</title>
<g id="a_Node000003"><a xlink:href="structadiar_1_1statistics_1_1____alg__base_1_1____lpq__t.html" target="_top" xlink:title="Type and usage of this algorithm&#39;s levelized priority queue.">
<polygon fill="white" stroke="#666666" points="294,-126 183,-126 183,-96 294,-96 294,-126"/>
<text text-anchor="start" x="191" y="-114" font-family="Helvetica,sans-Serif" font-size="10.00">adiar::statistics::</text>
<text text-anchor="middle" x="238.5" y="-103" font-family="Helvetica,sans-Serif" font-size="10.00">__alg_base::__lpq_t</text>
</a>
</g>
</g>
<!-- Node3&#45;&gt;Node2 -->
<g id="edge2_Node000002_Node000003" class="edge">
<title>Node3&#45;&gt;Node2</title>
<g id="a_edge2_Node000002_Node000003"><a xlink:title=" ">
<path fill="none" stroke="#9a32cd" stroke-dasharray="5,2" d="M304.29,-111C319.99,-111 336.5,-111 351.29,-111"/>
<polygon fill="#9a32cd" stroke="#9a32cd" points="304.12,-107.5 294.12,-111 304.12,-114.5 304.12,-107.5"/>
</a>
</g>
<text text-anchor="middle" x="321.5" y="-114" font-family="Helvetica,sans-Serif" font-size="10.00" fill="grey"> lpq</text>
</g>
<!-- Node4 -->
<g id="Node000004" class="node">
<title>Node4</title>
<g id="a_Node000004"><a xlink:href="structadiar_1_1statistics_1_1levelized__priority__queue__t.html" target="_top" xlink:title="Levelized Priority Queue statistics.">
<polygon fill="white" stroke="#666666" points="146,-126 0,-126 0,-96 146,-96 146,-126"/>
<text text-anchor="start" x="8" y="-114" font-family="Helvetica,sans-Serif" font-size="10.00">adiar::statistics::</text>
<text text-anchor="middle" x="73" y="-103" font-family="Helvetica,sans-Serif" font-size="10.00">levelized_priority_queue_t</text>
</a>
</g>
</g>
<!-- Node4&#45;&gt;Node3 -->
<g id="edge3_Node000003_Node000004" class="edge">
<title>Node4&#45;&gt;Node3</title>
<g id="a_edge3_Node000003_Node000004"><a xlink:title=" ">
<path fill="none" stroke="#63b8ff" d="M156.34,-111C165.34,-111 174.34,-111 182.89,-111"/>
<polygon fill="#63b8ff" stroke="#63b8ff" points="156.19,-107.5 146.19,-111 156.19,-114.5 156.19,-107.5"/>
</a>
</g>
</g>
<!-- Node5 -->
<g id="Node000005" class="node">
<title>Node5</title>
<g id="a_Node000005"><a xlink:href="structadiar_1_1statistics_1_1equality__t_1_1slow__t.html" target="_top" xlink:title="Statistics from O(N log N) time&#45;forward processing equality checking algorithm.">
<polygon fill="white" stroke="#666666" points="452,-78 349,-78 349,-48 452,-48 452,-78"/>
<text text-anchor="start" x="357" y="-66" font-family="Helvetica,sans-Serif" font-size="10.00">adiar::statistics::</text>
<text text-anchor="middle" x="400.5" y="-55" font-family="Helvetica,sans-Serif" font-size="10.00">equality_t::slow_t</text>
</a>
</g>
</g>
<!-- Node5&#45;&gt;Node1 -->
<g id="edge4_Node000001_Node000005" class="edge">
<title>Node5&#45;&gt;Node1</title>
<g id="a_edge4_Node000001_Node000005"><a xlink:title=" ">
<path fill="none" stroke="#9a32cd" stroke-dasharray="5,2" d="M462.38,-63C489.86,-63 521.87,-63 547.67,-63"/>
<polygon fill="#9a32cd" stroke="#9a32cd" points="462.09,-59.5 452.09,-63 462.09,-66.5 462.09,-59.5"/>
</a>
</g>
<text text-anchor="middle" x="500" y="-66" font-family="Helvetica,sans-Serif" font-size="10.00" fill="grey"> slow_check</text>
</g>
<!-- Node6 -->
<g id="Node000006" class="node">
<title>Node6</title>
<g id="a_Node000006"><a xlink:href="structadiar_1_1statistics_1_1equality__t_1_1fast__t.html" target="_top" xlink:title="Statistics from O(N) linear&#45;scan equality checking algorithm.">
<polygon fill="white" stroke="#666666" points="450,-30 351,-30 351,0 450,0 450,-30"/>
<text text-anchor="start" x="359" y="-18" font-family="Helvetica,sans-Serif" font-size="10.00">adiar::statistics::</text>
<text text-anchor="middle" x="400.5" y="-7" font-family="Helvetica,sans-Serif" font-size="10.00">equality_t::fast_t</text>
</a>
</g>
</g>
<!-- Node6&#45;&gt;Node1 -->
<g id="edge5_Node000001_Node000006" class="edge">
<title>Node6&#45;&gt;Node1</title>
<g id="a_edge5_Node000001_Node000006"><a xlink:title=" ">
<path fill="none" stroke="#9a32cd" stroke-dasharray="5,2" d="M460.14,-29.47C488.12,-36.38 521.19,-44.54 547.7,-51.08"/>
<polygon fill="#9a32cd" stroke="#9a32cd" points="460.63,-25.99 450.08,-26.99 458.95,-32.78 460.63,-25.99"/>
</a>
</g>
<text text-anchor="middle" x="500" y="-50" font-family="Helvetica,sans-Serif" font-size="10.00" fill="grey"> fast_check</text>
</g>
</g>
</svg>
