<?xml version="1.0" encoding="UTF-8" standalone="no"?>
<!DOCTYPE svg PUBLIC "-//W3C//DTD SVG 1.1//EN"
 "http://www.w3.org/Graphics/SVG/1.1/DTD/svg11.dtd">
<!-- Generated by graphviz version 2.43.0 (0)
 -->
<!-- Title: adiar::statistics Pages: 1 -->
<svg width="1584pt" height="798pt"
 viewBox="0.00 0.00 1584.00 798.00" xmlns="http://www.w3.org/2000/svg" xmlns:xlink="http://www.w3.org/1999/xlink">
<g id="graph0" class="graph" transform="scale(1 1) rotate(0) translate(4 794)">
<title>adiar::statistics</title>
<!-- Node1 -->
<g id="Node000001" class="node">
<title>Node1</title>
<g id="a_Node000001"><a xlink:title="Available statistics from algorithm&#39;s and data structures.">
<polygon fill="#999999" stroke="#666666" points="1576,-408.5 1484,-408.5 1484,-389.5 1576,-389.5 1576,-408.5"/>
<text text-anchor="middle" x="1530" y="-396.5" font-family="Helvetica,sans-Serif" font-size="10.00">adiar::statistics</text>
</a>
</g>
</g>
<!-- Node2 -->
<g id="Node000002" class="node">
<title>Node2</title>
<g id="a_Node000002"><a xlink:href="structadiar_1_1statistics_1_1arc__file__t.html" target="_top" xlink:title="Arc Files statistics.">
<polygon fill="white" stroke="#666666" points="1354,-790 1256,-790 1256,-760 1354,-760 1354,-790"/>
<text text-anchor="start" x="1264" y="-778" font-family="Helvetica,sans-Serif" font-size="10.00">adiar::statistics::</text>
<text text-anchor="middle" x="1305" y="-767" font-family="Helvetica,sans-Serif" font-size="10.00">arc_file_t</text>
</a>
</g>
</g>
<!-- Node2&#45;&gt;Node1 -->
<g id="edge1_Node000001_Node000002" class="edge">
<title>Node2&#45;&gt;Node1</title>
<g id="a_edge1_Node000001_Node000002"><a xlink:title=" ">
<path fill="none" stroke="#9a32cd" stroke-dasharray="5,2" d="M1364.55,-779.3C1398.63,-778.48 1439.9,-771.24 1466,-745 1515.09,-695.65 1526.71,-459.75 1528.67,-408.74"/>
<polygon fill="#9a32cd" stroke="#9a32cd" points="1364.21,-775.8 1354.23,-779.36 1364.25,-782.8 1364.21,-775.8"/>
</a>
</g>
<text text-anchor="middle" x="1422" y="-781" font-family="Helvetica,sans-Serif" font-size="10.00" fill="grey"> arc_file</text>
</g>
<!-- Node3 -->
<g id="Node000003" class="node">
<title>Node3</title>
<g id="a_Node000003"><a xlink:href="structadiar_1_1statistics_1_1node__file__t.html" target="_top" xlink:title="Node Files statistics.">
<polygon fill="white" stroke="#666666" points="1354,-742 1256,-742 1256,-712 1354,-712 1354,-742"/>
<text text-anchor="start" x="1264" y="-730" font-family="Helvetica,sans-Serif" font-size="10.00">adiar::statistics::</text>
<text text-anchor="middle" x="1305" y="-719" font-family="Helvetica,sans-Serif" font-size="10.00">node_file_t</text>
</a>
</g>
</g>
<!-- Node3&#45;&gt;Node1 -->
<g id="edge2_Node000001_Node000003" class="edge">
<title>Node3&#45;&gt;Node1</title>
<g id="a_edge2_Node000001_Node000003"><a xlink:title=" ">
<path fill="none" stroke="#9a32cd" stroke-dasharray="5,2" d="M1364.61,-731.44C1398.52,-730.71 1439.58,-723.68 1466,-698 1508.98,-656.22 1525.17,-455.18 1528.38,-408.63"/>
<polygon fill="#9a32cd" stroke="#9a32cd" points="1364.33,-727.94 1354.34,-731.47 1364.35,-734.94 1364.33,-727.94"/>
</a>
</g>
<text text-anchor="middle" x="1422" y="-733" font-family="Helvetica,sans-Serif" font-size="10.00" fill="grey"> node_file</text>
</g>
<!-- Node4 -->
<g id="Node000004" class="node">
<title>Node4</title>
<g id="a_Node000004"><a xlink:href="structadiar_1_1statistics_1_1levelized__priority__queue__t.html" target="_top" xlink:title="Levelized Priority Queue statistics.">
<polygon fill="white" stroke="#666666" points="146,-677 0,-677 0,-647 146,-647 146,-677"/>
<text text-anchor="start" x="8" y="-665" font-family="Helvetica,sans-Serif" font-size="10.00">adiar::statistics::</text>
<text text-anchor="middle" x="73" y="-654" font-family="Helvetica,sans-Serif" font-size="10.00">levelized_priority_queue_t</text>
</a>
</g>
</g>
<!-- Node4&#45;&gt;Node1 -->
<g id="edge3_Node000001_Node000004" class="edge">
<title>Node4&#45;&gt;Node1</title>
<g id="a_edge3_Node000001_Node000004"><a xlink:title=" ">
<path fill="none" stroke="#9a32cd" stroke-dasharray="5,2" d="M156.3,-677.44C182.19,-681.12 210.95,-684 237.5,-684 237.5,-684 237.5,-684 1306,-684 1394.36,-684 1412.66,-636.45 1466,-566 1505.09,-514.37 1522.35,-435.73 1527.36,-408.6"/>
<polygon fill="#9a32cd" stroke="#9a32cd" points="156.56,-673.94 146.16,-675.93 155.54,-680.86 156.56,-673.94"/>
</a>
</g>
<text text-anchor="start" x="699.5" y="-698" font-family="Helvetica,sans-Serif" font-size="10.00" fill="grey"> levelized_priority</text>
<text text-anchor="middle" x="743.5" y="-687" font-family="Helvetica,sans-Serif" font-size="10.00" fill="grey">_queue</text>
</g>
<!-- Node7 -->
<g id="Node000007" class="node">
<title>Node7</title>
<g id="a_Node000007"><a xlink:href="structadiar_1_1statistics_1_1____alg__base_1_1____lpq__t.html" target="_top" xlink:title="Type and usage of this algorithm&#39;s levelized priority queue.">
<polygon fill="white" stroke="#666666" points="294,-590 183,-590 183,-560 294,-560 294,-590"/>
<text text-anchor="start" x="191" y="-578" font-family="Helvetica,sans-Serif" font-size="10.00">adiar::statistics::</text>
<text text-anchor="middle" x="238.5" y="-567" font-family="Helvetica,sans-Serif" font-size="10.00">__alg_base::__lpq_t</text>
</a>
</g>
</g>
<!-- Node4&#45;&gt;Node7 -->
<g id="edge7_Node000007_Node000004" class="edge">
<title>Node4&#45;&gt;Node7</title>
<g id="a_edge7_Node000007_Node000004"><a xlink:title=" ">
<path fill="none" stroke="#63b8ff" d="M111.31,-642.15C141.02,-626.34 181.98,-604.54 209.07,-590.13"/>
<polygon fill="#63b8ff" stroke="#63b8ff" points="109.66,-639.06 102.48,-646.85 112.95,-645.24 109.66,-639.06"/>
</a>
</g>
</g>
<!-- Node5 -->
<g id="Node000005" class="node">
<title>Node5</title>
<g id="a_Node000005"><a xlink:href="structadiar_1_1statistics_1_1count__t.html" target="_top" xlink:title="Counting algorithm statistics.">
<polygon fill="white" stroke="#666666" points="930,-311 832,-311 832,-281 930,-281 930,-311"/>
<text text-anchor="start" x="840" y="-299" font-family="Helvetica,sans-Serif" font-size="10.00">adiar::statistics::</text>
<text text-anchor="middle" x="881" y="-288" font-family="Helvetica,sans-Serif" font-size="10.00">count_t</text>
</a>
</g>
</g>
<!-- Node5&#45;&gt;Node1 -->
<g id="edge4_Node000001_Node000005" class="edge">
<title>Node5&#45;&gt;Node1</title>
<g id="a_edge4_Node000001_Node000005"><a xlink:title=" ">
<path fill="none" stroke="#9a32cd" stroke-dasharray="5,2" d="M940.35,-286.37C1049.87,-271.16 1290.97,-251.53 1466,-338 1490.57,-350.14 1511.73,-375.36 1522.14,-389.27"/>
<polygon fill="#9a32cd" stroke="#9a32cd" points="939.57,-282.94 930.17,-287.82 940.56,-289.87 939.57,-282.94"/>
</a>
</g>
<text text-anchor="middle" x="1183" y="-280" font-family="Helvetica,sans-Serif" font-size="10.00" fill="grey"> count</text>
</g>
<!-- Node6 -->
<g id="Node000006" class="node">
<title>Node6</title>
<g id="a_Node000006"><a xlink:href="structadiar_1_1statistics_1_1____alg__base.html" target="_top" xlink:title="Common statistics for all algorithms.">
<polygon fill="white" stroke="#666666" points="489,-372 391,-372 391,-342 489,-342 489,-372"/>
<text text-anchor="start" x="399" y="-360" font-family="Helvetica,sans-Serif" font-size="10.00">adiar::statistics::</text>
<text text-anchor="middle" x="440" y="-349" font-family="Helvetica,sans-Serif" font-size="10.00">__alg_base</text>
</a>
</g>
</g>
<!-- Node6&#45;&gt;Node5 -->
<g id="edge5_Node000005_Node000006" class="edge">
<title>Node6&#45;&gt;Node5</title>
<g id="a_edge5_Node000005_Node000006"><a xlink:title=" ">
<path fill="none" stroke="#63b8ff" d="M492.38,-338.87C510.11,-333.26 530.24,-327.62 549,-324 648.38,-304.84 767.06,-298.79 831.88,-296.88"/>
<polygon fill="#63b8ff" stroke="#63b8ff" points="491.23,-335.56 482.79,-341.96 493.38,-342.22 491.23,-335.56"/>
</a>
</g>
</g>
<!-- Node8 -->
<g id="Node000008" class="node">
<title>Node8</title>
<g id="a_Node000008"><a xlink:href="structadiar_1_1statistics_1_1equality__t.html" target="_top" xlink:title="Equality Checking algorithm statistics.">
<polygon fill="white" stroke="#666666" points="792.5,-648 694.5,-648 694.5,-618 792.5,-618 792.5,-648"/>
<text text-anchor="start" x="702.5" y="-636" font-family="Helvetica,sans-Serif" font-size="10.00">adiar::statistics::</text>
<text text-anchor="middle" x="743.5" y="-625" font-family="Helvetica,sans-Serif" font-size="10.00">equality_t</text>
</a>
</g>
</g>
<!-- Node6&#45;&gt;Node8 -->
<g id="edge9_Node000008_Node000006" class="edge">
<title>Node6&#45;&gt;Node8</title>
<g id="a_edge9_Node000008_Node000006"><a xlink:title=" ">
<path fill="none" stroke="#63b8ff" d="M456.55,-380.59C490.24,-429.93 574.87,-544.76 673,-609 679.52,-613.26 686.87,-616.86 694.3,-619.86"/>
<polygon fill="#63b8ff" stroke="#63b8ff" points="459.36,-378.5 450.87,-372.17 453.56,-382.41 459.36,-378.5"/>
</a>
</g>
</g>
<!-- Node11 -->
<g id="Node000011" class="node">
<title>Node11</title>
<g id="a_Node000011"><a xlink:href="structadiar_1_1statistics_1_1intercut__t.html" target="_top" xlink:title="Intercut algorithm statistics.">
<polygon fill="white" stroke="#666666" points="1232,-433 1134,-433 1134,-403 1232,-403 1232,-433"/>
<text text-anchor="start" x="1142" y="-421" font-family="Helvetica,sans-Serif" font-size="10.00">adiar::statistics::</text>
<text text-anchor="middle" x="1183" y="-410" font-family="Helvetica,sans-Serif" font-size="10.00">intercut_t</text>
</a>
</g>
</g>
<!-- Node6&#45;&gt;Node11 -->
<g id="edge13_Node000011_Node000006" class="edge">
<title>Node6&#45;&gt;Node11</title>
<g id="a_edge13_Node000011_Node000006"><a xlink:title=" ">
<path fill="none" stroke="#63b8ff" d="M499.05,-368.87C515.17,-371.87 532.72,-374.84 549,-377 765.97,-405.83 1027.58,-414.61 1133.74,-417.09"/>
<polygon fill="#63b8ff" stroke="#63b8ff" points="499.69,-365.43 489.22,-367.02 498.39,-372.31 499.69,-365.43"/>
</a>
</g>
</g>
<!-- Node12 -->
<g id="Node000012" class="node">
<title>Node12</title>
<g id="a_Node000012"><a xlink:href="structadiar_1_1statistics_1_1optmin__t.html" target="_top" xlink:title="Boolean Optimization algorithm statistics.">
<polygon fill="white" stroke="#666666" points="930,-391 832,-391 832,-361 930,-361 930,-391"/>
<text text-anchor="start" x="840" y="-379" font-family="Helvetica,sans-Serif" font-size="10.00">adiar::statistics::</text>
<text text-anchor="middle" x="881" y="-368" font-family="Helvetica,sans-Serif" font-size="10.00">optmin_t</text>
</a>
</g>
</g>
<!-- Node6&#45;&gt;Node12 -->
<g id="edge15_Node000012_Node000006" class="edge">
<title>Node6&#45;&gt;Node12</title>
<g id="a_edge15_Node000012_Node000006"><a xlink:title=" ">
<path fill="none" stroke="#63b8ff" d="M499.26,-359.52C586.74,-363.31 750.43,-370.39 831.68,-373.91"/>
<polygon fill="#63b8ff" stroke="#63b8ff" points="499.38,-356.02 489.24,-359.09 499.08,-363.02 499.38,-356.02"/>
</a>
</g>
</g>
<!-- Node13 -->
<g id="Node000013" class="node">
<title>Node13</title>
<g id="a_Node000013"><a xlink:href="structadiar_1_1statistics_1_1prod2__t.html" target="_top" xlink:title="2&#45;ary Product Construction algorithm statistics.">
<polygon fill="white" stroke="#666666" points="792.5,-222 694.5,-222 694.5,-192 792.5,-192 792.5,-222"/>
<text text-anchor="start" x="702.5" y="-210" font-family="Helvetica,sans-Serif" font-size="10.00">adiar::statistics::</text>
<text text-anchor="middle" x="743.5" y="-199" font-family="Helvetica,sans-Serif" font-size="10.00">prod2_t</text>
</a>
</g>
</g>
<!-- Node6&#45;&gt;Node13 -->
<g id="edge17_Node000013_Node000006" class="edge">
<title>Node6&#45;&gt;Node13</title>
<g id="a_edge17_Node000013_Node000006"><a xlink:title=" ">
<path fill="none" stroke="#63b8ff" d="M461.29,-334.41C481.52,-313.23 514.48,-282.17 549,-264 592.12,-241.3 608.3,-249.89 655,-236 669.27,-231.76 684.71,-226.77 698.6,-222.14"/>
<polygon fill="#63b8ff" stroke="#63b8ff" points="458.72,-332.04 454.44,-341.73 463.83,-336.82 458.72,-332.04"/>
</a>
</g>
</g>
<!-- Node16 -->
<g id="Node000016" class="node">
<title>Node16</title>
<g id="a_Node000016"><a xlink:href="structadiar_1_1statistics_1_1prod3__t.html" target="_top" xlink:title="3&#45;ary Product Construction algorithm statistics.">
<polygon fill="white" stroke="#666666" points="1232,-353 1134,-353 1134,-323 1232,-323 1232,-353"/>
<text text-anchor="start" x="1142" y="-341" font-family="Helvetica,sans-Serif" font-size="10.00">adiar::statistics::</text>
<text text-anchor="middle" x="1183" y="-330" font-family="Helvetica,sans-Serif" font-size="10.00">prod3_t</text>
</a>
</g>
</g>
<!-- Node6&#45;&gt;Node16 -->
<g id="edge21_Node000016_Node000006" class="edge">
<title>Node6&#45;&gt;Node16</title>
<g id="a_edge21_Node000016_Node000006"><a xlink:title=" ">
<path fill="none" stroke="#63b8ff" d="M499.28,-355.51C641.17,-351.87 1002.52,-342.6 1133.58,-339.24"/>
<polygon fill="#63b8ff" stroke="#63b8ff" points="498.96,-352.01 489.05,-355.77 499.13,-359.01 498.96,-352.01"/>
</a>
</g>
</g>
<!-- Node17 -->
<g id="Node000017" class="node">
<title>Node17</title>
<g id="a_Node000017"><a xlink:href="structadiar_1_1statistics_1_1quantify__t.html" target="_top" xlink:title="Quantification algorithm statistics.">
<polygon fill="white" stroke="#666666" points="792.5,-128 694.5,-128 694.5,-98 792.5,-98 792.5,-128"/>
<text text-anchor="start" x="702.5" y="-116" font-family="Helvetica,sans-Serif" font-size="10.00">adiar::statistics::</text>
<text text-anchor="middle" x="743.5" y="-105" font-family="Helvetica,sans-Serif" font-size="10.00">quantify_t</text>
</a>
</g>
</g>
<!-- Node6&#45;&gt;Node17 -->
<g id="edge23_Node000017_Node000006" class="edge">
<title>Node6&#45;&gt;Node17</title>
<g id="a_edge23_Node000017_Node000006"><a xlink:title=" ">
<path fill="none" stroke="#63b8ff" d="M456.36,-333.32C475.04,-306.42 509.08,-263.15 549,-239 590.69,-213.78 615.59,-239.66 655,-211 666.96,-202.3 663.74,-194.54 673,-183 689.3,-162.7 710.74,-141.83 725.48,-128.22"/>
<polygon fill="#63b8ff" stroke="#63b8ff" points="453.35,-331.52 450.62,-341.76 459.14,-335.45 453.35,-331.52"/>
</a>
</g>
</g>
<!-- Node20 -->
<g id="Node000020" class="node">
<title>Node20</title>
<g id="a_Node000020"><a xlink:href="structadiar_1_1statistics_1_1select__t.html" target="_top" xlink:title="Select algorithm statistics.">
<polygon fill="white" stroke="#666666" points="930,-272 832,-272 832,-242 930,-242 930,-272"/>
<text text-anchor="start" x="840" y="-260" font-family="Helvetica,sans-Serif" font-size="10.00">adiar::statistics::</text>
<text text-anchor="middle" x="881" y="-249" font-family="Helvetica,sans-Serif" font-size="10.00">select_t</text>
</a>
</g>
</g>
<!-- Node6&#45;&gt;Node20 -->
<g id="edge29_Node000020_Node000006" class="edge">
<title>Node6&#45;&gt;Node20</title>
<g id="a_edge29_Node000020_Node000006"><a xlink:title=" ">
<path fill="none" stroke="#63b8ff" d="M474.97,-336.87C495.69,-325.49 523.09,-311.98 549,-304 646.63,-273.95 766.47,-263 831.83,-259.1"/>
<polygon fill="#63b8ff" stroke="#63b8ff" points="473.26,-333.82 466.24,-341.76 476.68,-339.93 473.26,-333.82"/>
</a>
</g>
</g>
<!-- Node21 -->
<g id="Node000021" class="node">
<title>Node21</title>
<g id="a_Node000021"><a xlink:href="structadiar_1_1statistics_1_1reduce__t.html" target="_top" xlink:title="Reduce algorithm statistics.">
<polygon fill="white" stroke="#666666" points="792.5,-477 694.5,-477 694.5,-447 792.5,-447 792.5,-477"/>
<text text-anchor="start" x="702.5" y="-465" font-family="Helvetica,sans-Serif" font-size="10.00">adiar::statistics::</text>
<text text-anchor="middle" x="743.5" y="-454" font-family="Helvetica,sans-Serif" font-size="10.00">reduce_t</text>
</a>
</g>
</g>
<!-- Node6&#45;&gt;Node21 -->
<g id="edge31_Node000021_Node000006" class="edge">
<title>Node6&#45;&gt;Node21</title>
<g id="a_edge31_Node000021_Node000006"><a xlink:title=" ">
<path fill="none" stroke="#63b8ff" d="M466.86,-378.4C487.75,-394.55 518.57,-415.93 549,-428 596.24,-446.74 654.04,-455.19 694.1,-458.97"/>
<polygon fill="#63b8ff" stroke="#63b8ff" points="468.84,-375.51 458.82,-372.06 464.51,-381 468.84,-375.51"/>
</a>
</g>
</g>
<!-- Node7&#45;&gt;Node6 -->
<g id="edge6_Node000006_Node000007" class="edge">
<title>Node7&#45;&gt;Node6</title>
<g id="a_edge6_Node000006_Node000007"><a xlink:title=" ">
<path fill="none" stroke="#9a32cd" stroke-dasharray="5,2" d="M260.34,-552.23C301.22,-507.56 390.91,-409.55 425.25,-372.02"/>
<polygon fill="#9a32cd" stroke="#9a32cd" points="257.7,-549.93 253.53,-559.67 262.86,-554.66 257.7,-549.93"/>
</a>
</g>
<text text-anchor="middle" x="321.5" y="-494" font-family="Helvetica,sans-Serif" font-size="10.00" fill="grey"> lpq</text>
</g>
<!-- Node8&#45;&gt;Node1 -->
<g id="edge8_Node000001_Node000008" class="edge">
<title>Node8&#45;&gt;Node1</title>
<g id="a_edge8_Node000001_Node000008"><a xlink:title=" ">
<path fill="none" stroke="#9a32cd" stroke-dasharray="5,2" d="M802.99,-642.65C937.14,-661.26 1270.43,-687.09 1466,-524 1503.89,-492.41 1521.3,-432.32 1526.89,-408.79"/>
<polygon fill="#9a32cd" stroke="#9a32cd" points="803.31,-639.16 792.92,-641.21 802.33,-646.09 803.31,-639.16"/>
</a>
</g>
<text text-anchor="middle" x="1183" y="-651" font-family="Helvetica,sans-Serif" font-size="10.00" fill="grey"> equality</text>
</g>
<!-- Node9 -->
<g id="Node000009" class="node">
<title>Node9</title>
<g id="a_Node000009"><a xlink:href="structadiar_1_1statistics_1_1equality__t_1_1slow__t.html" target="_top" xlink:title="Statistics from O(N log N) time&#45;forward processing equality checking algorithm.">
<polygon fill="white" stroke="#666666" points="491.5,-652 388.5,-652 388.5,-622 491.5,-622 491.5,-652"/>
<text text-anchor="start" x="396.5" y="-640" font-family="Helvetica,sans-Serif" font-size="10.00">adiar::statistics::</text>
<text text-anchor="middle" x="440" y="-629" font-family="Helvetica,sans-Serif" font-size="10.00">equality_t::slow_t</text>
</a>
</g>
</g>
<!-- Node9&#45;&gt;Node8 -->
<g id="edge10_Node000008_Node000009" class="edge">
<title>Node9&#45;&gt;Node8</title>
<g id="a_edge10_Node000008_Node000009"><a xlink:title=" ">
<path fill="none" stroke="#9a32cd" stroke-dasharray="5,2" d="M502.08,-636.19C558.87,-635.44 642.32,-634.33 694.48,-633.64"/>
<polygon fill="#9a32cd" stroke="#9a32cd" points="501.76,-632.69 491.8,-636.33 501.85,-639.69 501.76,-632.69"/>
</a>
</g>
<text text-anchor="middle" x="602" y="-638" font-family="Helvetica,sans-Serif" font-size="10.00" fill="grey"> slow_check</text>
</g>
<!-- Node10 -->
<g id="Node000010" class="node">
<title>Node10</title>
<g id="a_Node000010"><a xlink:href="structadiar_1_1statistics_1_1equality__t_1_1fast__t.html" target="_top" xlink:title="Statistics from O(N) linear&#45;scan equality checking algorithm.">
<polygon fill="white" stroke="#666666" points="489.5,-604 390.5,-604 390.5,-574 489.5,-574 489.5,-604"/>
<text text-anchor="start" x="398.5" y="-592" font-family="Helvetica,sans-Serif" font-size="10.00">adiar::statistics::</text>
<text text-anchor="middle" x="440" y="-581" font-family="Helvetica,sans-Serif" font-size="10.00">equality_t::fast_t</text>
</a>
</g>
</g>
<!-- Node10&#45;&gt;Node8 -->
<g id="edge11_Node000008_Node000010" class="edge">
<title>Node10&#45;&gt;Node8</title>
<g id="a_edge11_Node000008_Node000010"><a xlink:title=" ">
<path fill="none" stroke="#9a32cd" stroke-dasharray="5,2" d="M499.92,-596.95C542.93,-602.82 602.62,-611.14 655,-619 667.78,-620.92 681.59,-623.08 694.39,-625.13"/>
<polygon fill="#9a32cd" stroke="#9a32cd" points="500.29,-593.47 489.91,-595.58 499.35,-600.4 500.29,-593.47"/>
</a>
</g>
<text text-anchor="middle" x="602" y="-622" font-family="Helvetica,sans-Serif" font-size="10.00" fill="grey"> fast_check</text>
</g>
<!-- Node11&#45;&gt;Node1 -->
<g id="edge12_Node000001_Node000011" class="edge">
<title>Node11&#45;&gt;Node1</title>
<g id="a_edge12_Node000001_Node000011"><a xlink:title=" ">
<path fill="none" stroke="#9a32cd" stroke-dasharray="5,2" d="M1242.48,-414.78C1310.64,-411.03 1421.82,-404.9 1483.74,-401.49"/>
<polygon fill="#9a32cd" stroke="#9a32cd" points="1242.13,-411.29 1232.33,-415.34 1242.51,-418.28 1242.13,-411.29"/>
</a>
</g>
<text text-anchor="middle" x="1305" y="-417" font-family="Helvetica,sans-Serif" font-size="10.00" fill="grey"> intercut</text>
</g>
<!-- Node12&#45;&gt;Node1 -->
<g id="edge14_Node000001_Node000012" class="edge">
<title>Node12&#45;&gt;Node1</title>
<g id="a_edge14_Node000001_Node000012"><a xlink:title=" ">
<path fill="none" stroke="#9a32cd" stroke-dasharray="5,2" d="M940.44,-376.57C1009.94,-377.38 1129.46,-379.21 1232,-383 1321.4,-386.3 1425.82,-392.46 1483.99,-396.1"/>
<polygon fill="#9a32cd" stroke="#9a32cd" points="940.18,-373.06 930.14,-376.45 940.1,-380.06 940.18,-373.06"/>
</a>
</g>
<text text-anchor="middle" x="1183" y="-386" font-family="Helvetica,sans-Serif" font-size="10.00" fill="grey"> optmin</text>
</g>
<!-- Node13&#45;&gt;Node1 -->
<g id="edge16_Node000001_Node000013" class="edge">
<title>Node13&#45;&gt;Node1</title>
<g id="a_edge16_Node000001_Node000013"><a xlink:title=" ">
<path fill="none" stroke="#9a32cd" stroke-dasharray="5,2" d="M802.74,-204.79C955.21,-200.17 1361.52,-195.59 1466,-273 1506.09,-302.7 1522.29,-365.08 1527.22,-389.19"/>
<polygon fill="#9a32cd" stroke="#9a32cd" points="802.52,-201.3 792.64,-205.11 802.74,-208.29 802.52,-201.3"/>
</a>
</g>
<text text-anchor="middle" x="1183" y="-217" font-family="Helvetica,sans-Serif" font-size="10.00" fill="grey"> prod2</text>
</g>
<!-- Node14 -->
<g id="Node000014" class="node">
<title>Node14</title>
<g id="a_Node000014"><a xlink:href="structadiar_1_1statistics_1_1____raccess__base.html" target="_top" xlink:title="Common statistics for algorithms using random access.">
<polygon fill="white" stroke="#666666" points="489,-136 391,-136 391,-106 489,-106 489,-136"/>
<text text-anchor="start" x="399" y="-124" font-family="Helvetica,sans-Serif" font-size="10.00">adiar::statistics::</text>
<text text-anchor="middle" x="440" y="-113" font-family="Helvetica,sans-Serif" font-size="10.00">__raccess_base</text>
</a>
</g>
</g>
<!-- Node14&#45;&gt;Node13 -->
<g id="edge18_Node000013_Node000014" class="edge">
<title>Node14&#45;&gt;Node13</title>
<g id="a_edge18_Node000013_Node000014"><a xlink:title=" ">
<path fill="none" stroke="#9a32cd" stroke-dasharray="5,2" d="M498.89,-136.45C542.03,-148.09 602.32,-164.61 655,-180 667.82,-183.74 681.65,-187.94 694.44,-191.88"/>
<polygon fill="#9a32cd" stroke="#9a32cd" points="499.7,-133.05 489.14,-133.82 497.88,-139.81 499.7,-133.05"/>
</a>
</g>
<text text-anchor="middle" x="602" y="-183" font-family="Helvetica,sans-Serif" font-size="10.00" fill="grey"> ra</text>
</g>
<!-- Node14&#45;&gt;Node17 -->
<g id="edge26_Node000017_Node000014" class="edge">
<title>Node14&#45;&gt;Node17</title>
<g id="a_edge26_Node000017_Node000014"><a xlink:title=" ">
<path fill="none" stroke="#9a32cd" stroke-dasharray="5,2" d="M498.86,-106.34C514.98,-102.9 532.58,-99.73 549,-98 595.85,-93.07 608.06,-94.01 655,-98 667.75,-99.08 681.43,-101.04 694.09,-103.19"/>
<polygon fill="#9a32cd" stroke="#9a32cd" points="498.05,-102.94 489.04,-108.51 499.56,-109.77 498.05,-102.94"/>
</a>
</g>
<text text-anchor="middle" x="602" y="-101" font-family="Helvetica,sans-Serif" font-size="10.00" fill="grey"> ra</text>
</g>
<!-- Node15 -->
<g id="Node000015" class="node">
<title>Node15</title>
<g id="a_Node000015"><a xlink:href="structadiar_1_1statistics_1_1____pq2__base.html" target="_top" xlink:title="Common statistics for algorithms using a second priority queue.">
<polygon fill="white" stroke="#666666" points="489,-204 391,-204 391,-174 489,-174 489,-204"/>
<text text-anchor="start" x="399" y="-192" font-family="Helvetica,sans-Serif" font-size="10.00">adiar::statistics::</text>
<text text-anchor="middle" x="440" y="-181" font-family="Helvetica,sans-Serif" font-size="10.00">__pq2_base</text>
</a>
</g>
</g>
<!-- Node15&#45;&gt;Node13 -->
<g id="edge19_Node000013_Node000015" class="edge">
<title>Node15&#45;&gt;Node13</title>
<g id="a_edge19_Node000013_Node000015"><a xlink:title=" ">
<path fill="none" stroke="#9a32cd" stroke-dasharray="5,2" d="M499.34,-192.48C556.01,-195.87 641.03,-200.94 694.07,-204.11"/>
<polygon fill="#9a32cd" stroke="#9a32cd" points="499.3,-188.97 489.11,-191.87 498.88,-195.96 499.3,-188.97"/>
</a>
</g>
<text text-anchor="middle" x="602" y="-204" font-family="Helvetica,sans-Serif" font-size="10.00" fill="grey"> pq</text>
</g>
<!-- Node15&#45;&gt;Node17 -->
<g id="edge27_Node000017_Node000015" class="edge">
<title>Node15&#45;&gt;Node17</title>
<g id="a_edge27_Node000017_Node000015"><a xlink:title=" ">
<path fill="none" stroke="#9a32cd" stroke-dasharray="5,2" d="M484.58,-169.54C499.58,-162.36 516.3,-153.81 531,-145 539.46,-139.93 539.77,-135.49 549,-132 596.2,-114.14 654.26,-110.66 694.4,-110.86"/>
<polygon fill="#9a32cd" stroke="#9a32cd" points="483.04,-166.4 475.49,-173.83 486.02,-172.73 483.04,-166.4"/>
</a>
</g>
<text text-anchor="middle" x="602" y="-135" font-family="Helvetica,sans-Serif" font-size="10.00" fill="grey"> pq</text>
</g>
<!-- Node16&#45;&gt;Node1 -->
<g id="edge20_Node000001_Node000016" class="edge">
<title>Node16&#45;&gt;Node1</title>
<g id="a_edge20_Node000001_Node000016"><a xlink:title=" ">
<path fill="none" stroke="#9a32cd" stroke-dasharray="5,2" d="M1242.34,-335.24C1300.48,-334.26 1391.57,-337.57 1466,-362 1484.8,-368.17 1504.08,-380.56 1516.28,-389.3"/>
<polygon fill="#9a32cd" stroke="#9a32cd" points="1242.16,-331.74 1232.23,-335.46 1242.31,-338.74 1242.16,-331.74"/>
</a>
</g>
<text text-anchor="middle" x="1305" y="-343" font-family="Helvetica,sans-Serif" font-size="10.00" fill="grey"> prod3</text>
</g>
<!-- Node17&#45;&gt;Node1 -->
<g id="edge22_Node000001_Node000017" class="edge">
<title>Node17&#45;&gt;Node1</title>
<g id="a_edge22_Node000001_Node000017"><a xlink:title=" ">
<path fill="none" stroke="#9a32cd" stroke-dasharray="5,2" d="M802.65,-95.96C937.39,-60.38 1274.03,5.58 1466,-159 1502.38,-190.19 1523.11,-348.46 1527.91,-389.35"/>
<polygon fill="#9a32cd" stroke="#9a32cd" points="801.68,-92.6 792.92,-98.57 803.49,-99.36 801.68,-92.6"/>
</a>
</g>
<text text-anchor="middle" x="1183" y="-63" font-family="Helvetica,sans-Serif" font-size="10.00" fill="grey"> quantify</text>
</g>
<!-- Node18 -->
<g id="Node000018" class="node">
<title>Node18</title>
<g id="a_Node000018"><a xlink:href="structadiar_1_1statistics_1_1quantify__t_1_1nested__transposition__t.html" target="_top" xlink:title="Transposition algorithms prior to nested multi&#45;variable sweeping.">
<polygon fill="white" stroke="#666666" points="531,-78 349,-78 349,-48 531,-48 531,-78"/>
<text text-anchor="start" x="357" y="-66" font-family="Helvetica,sans-Serif" font-size="10.00">adiar::statistics::</text>
<text text-anchor="middle" x="440" y="-55" font-family="Helvetica,sans-Serif" font-size="10.00">quantify_t::nested_transposition_t</text>
</a>
</g>
</g>
<!-- Node18&#45;&gt;Node17 -->
<g id="edge24_Node000017_Node000018" class="edge">
<title>Node18&#45;&gt;Node17</title>
<g id="a_edge24_Node000017_Node000018"><a xlink:title=" ">
<path fill="none" stroke="#9a32cd" stroke-dasharray="5,2" d="M541.19,-65.13C577.39,-67.43 618.35,-71.81 655,-80 673.38,-84.11 693.07,-91.27 709.11,-97.87"/>
<polygon fill="#9a32cd" stroke="#9a32cd" points="541.31,-61.63 531.12,-64.54 540.9,-68.62 541.31,-61.63"/>
</a>
</g>
<text text-anchor="middle" x="602" y="-83" font-family="Helvetica,sans-Serif" font-size="10.00" fill="grey"> nested_transposition</text>
</g>
<!-- Node19 -->
<g id="Node000019" class="node">
<title>Node19</title>
<g id="a_Node000019"><a xlink:href="structadiar_1_1statistics_1_1quantify__t_1_1nested__policy__t.html" target="_top" xlink:title="Nested multi&#45;variable sweeping.">
<polygon fill="white" stroke="#666666" points="514,-30 366,-30 366,0 514,0 514,-30"/>
<text text-anchor="start" x="374" y="-18" font-family="Helvetica,sans-Serif" font-size="10.00">adiar::statistics::</text>
<text text-anchor="middle" x="440" y="-7" font-family="Helvetica,sans-Serif" font-size="10.00">quantify_t::nested_policy_t</text>
</a>
</g>
</g>
<!-- Node19&#45;&gt;Node17 -->
<g id="edge25_Node000017_Node000019" class="edge">
<title>Node19&#45;&gt;Node17</title>
<g id="a_edge25_Node000017_Node000019"><a xlink:title=" ">
<path fill="none" stroke="#9a32cd" stroke-dasharray="5,2" d="M524.22,-20.26C564.85,-24.99 613.75,-33.97 655,-51 682.36,-62.3 709.49,-83.48 726.12,-97.91"/>
<polygon fill="#9a32cd" stroke="#9a32cd" points="524.4,-16.76 514.07,-19.15 523.63,-23.72 524.4,-16.76"/>
</a>
</g>
<text text-anchor="middle" x="602" y="-54" font-family="Helvetica,sans-Serif" font-size="10.00" fill="grey"> nested_policy</text>
</g>
<!-- Node20&#45;&gt;Node1 -->
<g id="edge28_Node000001_Node000020" class="edge">
<title>Node20&#45;&gt;Node1</title>
<g id="a_edge28_Node000001_Node000020"><a xlink:title=" ">
<path fill="none" stroke="#9a32cd" stroke-dasharray="5,2" d="M940.5,-254.86C1010.07,-252.86 1129.64,-251.09 1232,-258 1289.26,-261.87 1303.56,-264.62 1360,-275 1407.61,-283.75 1426.54,-271.96 1466,-300 1498.71,-323.25 1518.39,-369.34 1525.72,-389.35"/>
<polygon fill="#9a32cd" stroke="#9a32cd" points="940.08,-251.37 930.19,-255.17 940.29,-258.37 940.08,-251.37"/>
</a>
</g>
<text text-anchor="middle" x="1183" y="-261" font-family="Helvetica,sans-Serif" font-size="10.00" fill="grey"> select</text>
</g>
<!-- Node21&#45;&gt;Node1 -->
<g id="edge30_Node000001_Node000021" class="edge">
<title>Node21&#45;&gt;Node1</title>
<g id="a_edge30_Node000001_Node000021"><a xlink:title=" ">
<path fill="none" stroke="#9a32cd" stroke-dasharray="5,2" d="M803,-459.83C912.46,-455.54 1155.63,-445.02 1360,-429 1407.18,-425.3 1419.63,-428.43 1466,-419 1478.48,-416.46 1491.98,-412.36 1503.27,-408.54"/>
<polygon fill="#9a32cd" stroke="#9a32cd" points="802.69,-456.34 792.83,-460.22 802.96,-463.33 802.69,-456.34"/>
</a>
</g>
<text text-anchor="middle" x="1183" y="-446" font-family="Helvetica,sans-Serif" font-size="10.00" fill="grey"> reduce</text>
</g>
<!-- Node24 -->
<g id="Node000024" class="node">
<title>Node24</title>
<g id="a_Node000024"><a xlink:href="structadiar_1_1statistics_1_1nested__sweeping__t_1_1outer__up__t.html" target="_top" xlink:title="Outer Reduce Sweep.">
<polygon fill="white" stroke="#666666" points="1116,-558 948,-558 948,-528 1116,-528 1116,-558"/>
<text text-anchor="start" x="956" y="-546" font-family="Helvetica,sans-Serif" font-size="10.00">adiar::statistics::</text>
<text text-anchor="middle" x="1032" y="-535" font-family="Helvetica,sans-Serif" font-size="10.00">nested_sweeping_t::outer_up_t</text>
</a>
</g>
</g>
<!-- Node21&#45;&gt;Node24 -->
<g id="edge35_Node000024_Node000021" class="edge">
<title>Node21&#45;&gt;Node24</title>
<g id="a_edge35_Node000024_Node000021"><a xlink:title=" ">
<path fill="none" stroke="#63b8ff" d="M802.35,-479.36C812.23,-482.28 822.4,-485.25 832,-488 880.41,-501.88 935.62,-517.09 975.59,-527.99"/>
<polygon fill="#63b8ff" stroke="#63b8ff" points="803.17,-475.95 792.59,-476.47 801.19,-482.67 803.17,-475.95"/>
</a>
</g>
</g>
<!-- Node28 -->
<g id="Node000028" class="node">
<title>Node28</title>
<g id="a_Node000028"><a xlink:href="structadiar_1_1statistics_1_1nested__sweeping__t_1_1inner__up__t.html" target="_top" xlink:title="Inner Up Sweep(s)">
<polygon fill="white" stroke="#666666" points="1115.5,-510 948.5,-510 948.5,-480 1115.5,-480 1115.5,-510"/>
<text text-anchor="start" x="956.5" y="-498" font-family="Helvetica,sans-Serif" font-size="10.00">adiar::statistics::</text>
<text text-anchor="middle" x="1032" y="-487" font-family="Helvetica,sans-Serif" font-size="10.00">nested_sweeping_t::inner_up_t</text>
</a>
</g>
</g>
<!-- Node21&#45;&gt;Node28 -->
<g id="edge40_Node000028_Node000021" class="edge">
<title>Node21&#45;&gt;Node28</title>
<g id="a_edge40_Node000028_Node000021"><a xlink:title=" ">
<path fill="none" stroke="#63b8ff" d="M802.81,-468.72C844.67,-473.54 901.68,-480.1 948.24,-485.47"/>
<polygon fill="#63b8ff" stroke="#63b8ff" points="803.11,-465.23 792.78,-467.56 802.31,-472.18 803.11,-465.23"/>
</a>
</g>
</g>
<!-- Node22 -->
<g id="Node000022" class="node">
<title>Node22</title>
<g id="a_Node000022"><a xlink:href="structadiar_1_1statistics_1_1replace__t.html" target="_top" xlink:title="Variable replacement statistics.">
<polygon fill="white" stroke="#666666" points="1354,-187 1256,-187 1256,-157 1354,-157 1354,-187"/>
<text text-anchor="start" x="1264" y="-175" font-family="Helvetica,sans-Serif" font-size="10.00">adiar::statistics::</text>
<text text-anchor="middle" x="1305" y="-164" font-family="Helvetica,sans-Serif" font-size="10.00">replace_t</text>
</a>
</g>
</g>
<!-- Node22&#45;&gt;Node1 -->
<g id="edge32_Node000001_Node000022" class="edge">
<title>Node22&#45;&gt;Node1</title>
<g id="a_edge32_Node000001_Node000022"><a xlink:title=" ">
<path fill="none" stroke="#9a32cd" stroke-dasharray="5,2" d="M1364.16,-163.86C1397.52,-162.48 1438.18,-166.8 1466,-190 1528.87,-242.42 1530.5,-355.17 1529.47,-389.13"/>
<polygon fill="#9a32cd" stroke="#9a32cd" points="1363.83,-160.38 1354.06,-164.46 1364.25,-167.36 1363.83,-160.38"/>
</a>
</g>
<text text-anchor="middle" x="1422" y="-193" font-family="Helvetica,sans-Serif" font-size="10.00" fill="grey"> replace</text>
</g>
<!-- Node23 -->
<g id="Node000023" class="node">
<title>Node23</title>
<g id="a_Node000023"><a xlink:href="structadiar_1_1statistics_1_1nested__sweeping__t.html" target="_top" xlink:title="Nested Sweeping statistics.">
<polygon fill="white" stroke="#666666" points="1360,-535 1250,-535 1250,-505 1360,-505 1360,-535"/>
<text text-anchor="start" x="1258" y="-523" font-family="Helvetica,sans-Serif" font-size="10.00">adiar::statistics::</text>
<text text-anchor="middle" x="1305" y="-512" font-family="Helvetica,sans-Serif" font-size="10.00">nested_sweeping_t</text>
</a>
</g>
</g>
<!-- Node23&#45;&gt;Node1 -->
<g id="edge33_Node000001_Node000023" class="edge">
<title>Node23&#45;&gt;Node1</title>
<g id="a_edge33_Node000001_Node000023"><a xlink:title=" ">
<path fill="none" stroke="#9a32cd" stroke-dasharray="5,2" d="M1370.36,-511.07C1401.14,-504.6 1437.42,-493.58 1466,-475 1493.01,-457.44 1514.33,-424.68 1523.74,-408.52"/>
<polygon fill="#9a32cd" stroke="#9a32cd" points="1369.27,-507.72 1360.15,-513.1 1370.64,-514.58 1369.27,-507.72"/>
</a>
</g>
<text text-anchor="middle" x="1422" y="-512" font-family="Helvetica,sans-Serif" font-size="10.00" fill="grey"> nested_sweeping</text>
</g>
<!-- Node24&#45;&gt;Node23 -->
<g id="edge34_Node000023_Node000024" class="edge">
<title>Node24&#45;&gt;Node23</title>
<g id="a_edge34_Node000023_Node000024"><a xlink:title=" ">
<path fill="none" stroke="#9a32cd" stroke-dasharray="5,2" d="M1126.21,-535.09C1167.38,-531.59 1214.35,-527.61 1249.67,-524.61"/>
<polygon fill="#9a32cd" stroke="#9a32cd" points="1125.82,-531.61 1116.15,-535.94 1126.41,-538.58 1125.82,-531.61"/>
</a>
</g>
<text text-anchor="middle" x="1183" y="-537" font-family="Helvetica,sans-Serif" font-size="10.00" fill="grey"> outer_up</text>
</g>
<!-- Node25 -->
<g id="Node000025" class="node">
<title>Node25</title>
<g id="a_Node000025"><a xlink:href="structadiar_1_1statistics_1_1nested__sweeping__t_1_1inner__down__t.html" target="_top" xlink:title="Root Requests generated for Inner Down Sweep.">
<polygon fill="white" stroke="#666666" points="1102.5,-617.5 961.5,-617.5 961.5,-576.5 1102.5,-576.5 1102.5,-617.5"/>
<text text-anchor="start" x="969.5" y="-605.5" font-family="Helvetica,sans-Serif" font-size="10.00">adiar::statistics::</text>
<text text-anchor="start" x="969.5" y="-594.5" font-family="Helvetica,sans-Serif" font-size="10.00">nested_sweeping_t::inner</text>
<text text-anchor="middle" x="1032" y="-583.5" font-family="Helvetica,sans-Serif" font-size="10.00">_down_t</text>
</a>
</g>
</g>
<!-- Node25&#45;&gt;Node23 -->
<g id="edge36_Node000023_Node000025" class="edge">
<title>Node25&#45;&gt;Node23</title>
<g id="a_edge36_Node000023_Node000025"><a xlink:title=" ">
<path fill="none" stroke="#9a32cd" stroke-dasharray="5,2" d="M1112.89,-580.53C1149.53,-572.27 1193.33,-561.38 1232,-549 1244.45,-545.01 1257.8,-539.89 1269.58,-535.05"/>
<polygon fill="#9a32cd" stroke="#9a32cd" points="1111.76,-577.2 1102.76,-582.8 1113.28,-584.03 1111.76,-577.2"/>
</a>
</g>
<text text-anchor="middle" x="1183" y="-578" font-family="Helvetica,sans-Serif" font-size="10.00" fill="grey"> inner_down</text>
</g>
<!-- Node26 -->
<g id="Node000026" class="node">
<title>Node26</title>
<g id="a_Node000026"><a xlink:href="structadiar_1_1statistics_1_1nested__sweeping__t_1_1inner__down__t_1_1inputs__t.html" target="_top" xlink:title=" ">
<polygon fill="white" stroke="#bfbfbf" points="814,-599.5 673,-599.5 673,-558.5 814,-558.5 814,-599.5"/>
<text text-anchor="start" x="681" y="-587.5" font-family="Helvetica,sans-Serif" font-size="10.00">adiar::statistics::</text>
<text text-anchor="start" x="681" y="-576.5" font-family="Helvetica,sans-Serif" font-size="10.00">nested_sweeping_t::inner</text>
<text text-anchor="middle" x="743.5" y="-565.5" font-family="Helvetica,sans-Serif" font-size="10.00">_down_t::inputs_t</text>
</a>
</g>
</g>
<!-- Node26&#45;&gt;Node25 -->
<g id="edge37_Node000025_Node000026" class="edge">
<title>Node26&#45;&gt;Node25</title>
<g id="a_edge37_Node000025_Node000026"><a xlink:title=" ">
<path fill="none" stroke="#9a32cd" stroke-dasharray="5,2" d="M824.38,-584.02C867.45,-586.72 920.1,-590.03 961.46,-592.63"/>
<polygon fill="#9a32cd" stroke="#9a32cd" points="824.42,-580.51 814.22,-583.38 823.98,-587.5 824.42,-580.51"/>
</a>
</g>
<text text-anchor="middle" x="881" y="-593" font-family="Helvetica,sans-Serif" font-size="10.00" fill="grey"> inputs</text>
</g>
<!-- Node27 -->
<g id="Node000027" class="node">
<title>Node27</title>
<g id="a_Node000027"><a xlink:href="structadiar_1_1statistics_1_1nested__sweeping__t_1_1inner__down__t_1_1requests__t.html" target="_top" xlink:title=" ">
<polygon fill="white" stroke="#bfbfbf" points="814,-540.5 673,-540.5 673,-499.5 814,-499.5 814,-540.5"/>
<text text-anchor="start" x="681" y="-528.5" font-family="Helvetica,sans-Serif" font-size="10.00">adiar::statistics::</text>
<text text-anchor="start" x="681" y="-517.5" font-family="Helvetica,sans-Serif" font-size="10.00">nested_sweeping_t::inner</text>
<text text-anchor="middle" x="743.5" y="-506.5" font-family="Helvetica,sans-Serif" font-size="10.00">_down_t::requests_t</text>
</a>
</g>
</g>
<!-- Node27&#45;&gt;Node25 -->
<g id="edge38_Node000025_Node000027" class="edge">
<title>Node27&#45;&gt;Node25</title>
<g id="a_edge38_Node000025_Node000027"><a xlink:title=" ">
<path fill="none" stroke="#9a32cd" stroke-dasharray="5,2" d="M824.14,-540.81C856.95,-549.44 895.33,-559.61 930,-569 940.19,-571.76 950.94,-574.7 961.49,-577.61"/>
<polygon fill="#9a32cd" stroke="#9a32cd" points="824.7,-537.34 814.14,-538.18 822.92,-544.11 824.7,-537.34"/>
</a>
</g>
<text text-anchor="middle" x="881" y="-572" font-family="Helvetica,sans-Serif" font-size="10.00" fill="grey"> requests</text>
</g>
<!-- Node28&#45;&gt;Node23 -->
<g id="edge39_Node000023_Node000028" class="edge">
<title>Node28&#45;&gt;Node23</title>
<g id="a_edge39_Node000023_Node000028"><a xlink:title=" ">
<path fill="none" stroke="#9a32cd" stroke-dasharray="5,2" d="M1126.08,-501.63C1159.51,-504.24 1197.47,-507.46 1232,-511 1237.76,-511.59 1243.78,-512.26 1249.78,-512.96"/>
<polygon fill="#9a32cd" stroke="#9a32cd" points="1126.1,-498.12 1115.86,-500.84 1125.56,-505.1 1126.1,-498.12"/>
</a>
</g>
<text text-anchor="middle" x="1183" y="-514" font-family="Helvetica,sans-Serif" font-size="10.00" fill="grey"> inner_up</text>
</g>
</g>
</svg>
