<?xml version="1.0" encoding="UTF-8" standalone="no"?>
<!DOCTYPE svg PUBLIC "-//W3C//DTD SVG 1.1//EN"
 "http://www.w3.org/Graphics/SVG/1.1/DTD/svg11.dtd">
<!-- Generated by graphviz version 2.43.0 (0)
 -->
<!-- Title: adiar::statistics::reduce_t Pages: 1 -->
<svg width="444pt" height="88pt"
 viewBox="0.00 0.00 444.00 88.00" xmlns="http://www.w3.org/2000/svg" xmlns:xlink="http://www.w3.org/1999/xlink">
<g id="graph0" class="graph" transform="scale(1 1) rotate(0) translate(4 84)">
<title>adiar::statistics::reduce_t</title>
<!-- Node1 -->
<g id="node1" class="node">
<title>Node1</title>
<g id="a_node1"><a xlink:title="Reduce algorithm statistics.">
<polygon fill="#bfbfbf" stroke="black" points="134,-24.5 134,-54.5 232,-54.5 232,-24.5 134,-24.5"/>
<text text-anchor="start" x="142" y="-42.5" font-family="Helvetica,sans-Serif" font-size="10.00">adiar::statistics::</text>
<text text-anchor="middle" x="183" y="-31.5" font-family="Helvetica,sans-Serif" font-size="10.00">reduce_t</text>
</a>
</g>
</g>
<!-- Node3 -->
<g id="node3" class="node">
<title>Node3</title>
<g id="a_node3"><a xlink:href="structadiar_1_1statistics_1_1nested__sweeping__t_1_1inner__up__t.html" target="_top" xlink:title="Inner Up Sweep(s)">
<polygon fill="none" stroke="black" points="268.5,-49.5 268.5,-79.5 435.5,-79.5 435.5,-49.5 268.5,-49.5"/>
<text text-anchor="start" x="276.5" y="-67.5" font-family="Helvetica,sans-Serif" font-size="10.00">adiar::statistics::</text>
<text text-anchor="middle" x="352" y="-56.5" font-family="Helvetica,sans-Serif" font-size="10.00">nested_sweeping_t::inner_up_t</text>
</a>
</g>
</g>
<!-- Node1&#45;&gt;Node3 -->
<g id="edge2" class="edge">
<title>Node1&#45;&gt;Node3</title>
<path fill="none" stroke="midnightblue" d="M242.31,-48.23C250.69,-49.48 259.45,-50.79 268.19,-52.1"/>
<polygon fill="midnightblue" stroke="midnightblue" points="242.71,-44.75 232.3,-46.73 241.67,-51.67 242.71,-44.75"/>
</g>
<!-- Node4 -->
<g id="node4" class="node">
<title>Node4</title>
<g id="a_node4"><a xlink:href="structadiar_1_1statistics_1_1nested__sweeping__t_1_1outer__up__t.html" target="_top" xlink:title="Outer Reduce Sweep.">
<polygon fill="none" stroke="black" points="268,-0.5 268,-30.5 436,-30.5 436,-0.5 268,-0.5"/>
<text text-anchor="start" x="276" y="-18.5" font-family="Helvetica,sans-Serif" font-size="10.00">adiar::statistics::</text>
<text text-anchor="middle" x="352" y="-7.5" font-family="Helvetica,sans-Serif" font-size="10.00">nested_sweeping_t::outer_up_t</text>
</a>
</g>
</g>
<!-- Node1&#45;&gt;Node4 -->
<g id="edge3" class="edge">
<title>Node1&#45;&gt;Node4</title>
<path fill="none" stroke="midnightblue" d="M242.23,-31.13C250.53,-29.94 259.21,-28.69 267.87,-27.45"/>
<polygon fill="midnightblue" stroke="midnightblue" points="241.7,-27.67 232.3,-32.56 242.7,-34.6 241.7,-27.67"/>
</g>
<!-- Node2 -->
<g id="node2" class="node">
<title>Node2</title>
<g id="a_node2"><a xlink:href="structadiar_1_1statistics_1_1____alg__base.html" target="_top" xlink:title="Common statistics for all algorithms.">
<polygon fill="none" stroke="black" points="0,-24.5 0,-54.5 98,-54.5 98,-24.5 0,-24.5"/>
<text text-anchor="start" x="8" y="-42.5" font-family="Helvetica,sans-Serif" font-size="10.00">adiar::statistics::</text>
<text text-anchor="middle" x="49" y="-31.5" font-family="Helvetica,sans-Serif" font-size="10.00">__alg_base</text>
</a>
</g>
</g>
<!-- Node2&#45;&gt;Node1 -->
<g id="edge1" class="edge">
<title>Node2&#45;&gt;Node1</title>
<path fill="none" stroke="midnightblue" d="M108.29,-39.5C116.81,-39.5 125.5,-39.5 133.79,-39.5"/>
<polygon fill="midnightblue" stroke="midnightblue" points="108.03,-36 98.03,-39.5 108.03,-43 108.03,-36"/>
</g>
</g>
</svg>
