<?xml version="1.0" encoding="UTF-8" standalone="no"?>
<!DOCTYPE svg PUBLIC "-//W3C//DTD SVG 1.1//EN"
 "http://www.w3.org/Graphics/SVG/1.1/DTD/svg11.dtd">
<!-- Generated by graphviz version 2.43.0 (0)
 -->
<!-- Title: adiar::stats_t::equality_t Pages: 1 -->
<svg width="714pt" height="132pt"
 viewBox="0.00 0.00 714.00 132.00" xmlns="http://www.w3.org/2000/svg" xmlns:xlink="http://www.w3.org/1999/xlink">
<g id="graph0" class="graph" transform="scale(1 1) rotate(0) translate(4 128)">
<title>adiar::stats_t::equality_t</title>
<!-- Node1 -->
<g id="node1" class="node">
<title>Node1</title>
<g id="a_node1"><a xlink:title="Equality Checking algorithm statistics.">
<polygon fill="#bfbfbf" stroke="black" points="571,-55 571,-74 706,-74 706,-55 571,-55"/>
<text text-anchor="middle" x="638.5" y="-62" font-family="Helvetica,sans-Serif" font-size="10.00">adiar::stats_t::equality_t</text>
</a>
</g>
</g>
<!-- Node2 -->
<g id="node2" class="node">
<title>Node2</title>
<g id="a_node2"><a xlink:href="structadiar_1_1stats__t_1_1____alg__base.html" target="_top" xlink:title="Common statistics for all algorithms.">
<polygon fill="none" stroke="black" points="335,-99 335,-118 475,-118 475,-99 335,-99"/>
<text text-anchor="middle" x="405" y="-106" font-family="Helvetica,sans-Serif" font-size="10.00">adiar::stats_t::__alg_base</text>
</a>
</g>
</g>
<!-- Node2&#45;&gt;Node1 -->
<g id="edge1" class="edge">
<title>Node2&#45;&gt;Node1</title>
<path fill="none" stroke="midnightblue" d="M466.07,-97.08C503.74,-89.92 551.74,-80.8 587.37,-74.03"/>
<polygon fill="midnightblue" stroke="midnightblue" points="465.4,-93.65 456.23,-98.95 466.71,-100.52 465.4,-93.65"/>
</g>
<!-- Node3 -->
<g id="node3" class="node">
<title>Node3</title>
<g id="a_node3"><a xlink:href="structadiar_1_1stats__t_1_1____alg__base_1_1____lpq.html" target="_top" xlink:title="Type and usage of this algorithm&#39;s levelized priority queue.">
<polygon fill="none" stroke="black" points="168,-93.5 168,-123.5 280,-123.5 280,-93.5 168,-93.5"/>
<text text-anchor="start" x="176" y="-111.5" font-family="Helvetica,sans-Serif" font-size="10.00">adiar::stats_t::__alg</text>
<text text-anchor="middle" x="224" y="-100.5" font-family="Helvetica,sans-Serif" font-size="10.00">_base::__lpq</text>
</a>
</g>
</g>
<!-- Node3&#45;&gt;Node2 -->
<g id="edge2" class="edge">
<title>Node3&#45;&gt;Node2</title>
<path fill="none" stroke="#9a32cd" stroke-dasharray="5,2" d="M290.48,-108.5C304.9,-108.5 320.22,-108.5 334.79,-108.5"/>
<polygon fill="#9a32cd" stroke="#9a32cd" points="290.17,-105 280.17,-108.5 290.17,-112 290.17,-105"/>
<text text-anchor="middle" x="307.5" y="-111.5" font-family="Helvetica,sans-Serif" font-size="10.00"> lpq</text>
</g>
<!-- Node4 -->
<g id="node4" class="node">
<title>Node4</title>
<g id="a_node4"><a xlink:href="structadiar_1_1stats__t_1_1levelized__priority__queue__t.html" target="_top" xlink:title="Levelized Priority Queue statistics.">
<polygon fill="none" stroke="black" points="0,-93.5 0,-123.5 131,-123.5 131,-93.5 0,-93.5"/>
<text text-anchor="start" x="8" y="-111.5" font-family="Helvetica,sans-Serif" font-size="10.00">adiar::stats_t::levelized</text>
<text text-anchor="middle" x="65.5" y="-100.5" font-family="Helvetica,sans-Serif" font-size="10.00">_priority_queue_t</text>
</a>
</g>
</g>
<!-- Node4&#45;&gt;Node3 -->
<g id="edge3" class="edge">
<title>Node4&#45;&gt;Node3</title>
<path fill="none" stroke="midnightblue" d="M141.08,-108.5C150,-108.5 158.99,-108.5 167.58,-108.5"/>
<polygon fill="midnightblue" stroke="midnightblue" points="141.06,-105 131.06,-108.5 141.06,-112 141.06,-105"/>
</g>
<!-- Node5 -->
<g id="node5" class="node">
<title>Node5</title>
<g id="a_node5"><a xlink:href="structadiar_1_1stats__t_1_1equality__t_1_1slow__t.html" target="_top" xlink:title="Statistics from O(N log N) time&#45;forward processing equality checking algorithm.">
<polygon fill="none" stroke="black" points="342,-49.5 342,-79.5 468,-79.5 468,-49.5 342,-49.5"/>
<text text-anchor="start" x="350" y="-67.5" font-family="Helvetica,sans-Serif" font-size="10.00">adiar::stats_t::equality</text>
<text text-anchor="middle" x="405" y="-56.5" font-family="Helvetica,sans-Serif" font-size="10.00">_t::slow_t</text>
</a>
</g>
</g>
<!-- Node5&#45;&gt;Node1 -->
<g id="edge4" class="edge">
<title>Node5&#45;&gt;Node1</title>
<path fill="none" stroke="#9a32cd" stroke-dasharray="5,2" d="M478.3,-64.5C507.87,-64.5 541.86,-64.5 570.82,-64.5"/>
<polygon fill="#9a32cd" stroke="#9a32cd" points="478.04,-61 468.04,-64.5 478.04,-68 478.04,-61"/>
<text text-anchor="middle" x="523" y="-67.5" font-family="Helvetica,sans-Serif" font-size="10.00"> slow_check</text>
</g>
<!-- Node6 -->
<g id="node6" class="node">
<title>Node6</title>
<g id="a_node6"><a xlink:href="structadiar_1_1stats__t_1_1equality__t_1_1fast__t.html" target="_top" xlink:title="Statistics from O(N) linear&#45;scan equality checking algorithm.">
<polygon fill="none" stroke="black" points="342,-0.5 342,-30.5 468,-30.5 468,-0.5 342,-0.5"/>
<text text-anchor="start" x="350" y="-18.5" font-family="Helvetica,sans-Serif" font-size="10.00">adiar::stats_t::equality</text>
<text text-anchor="middle" x="405" y="-7.5" font-family="Helvetica,sans-Serif" font-size="10.00">_t::fast_t</text>
</a>
</g>
</g>
<!-- Node6&#45;&gt;Node1 -->
<g id="edge5" class="edge">
<title>Node6&#45;&gt;Node1</title>
<path fill="none" stroke="#9a32cd" stroke-dasharray="5,2" d="M477.89,-30.72C515.36,-38.65 560.01,-48.1 592.55,-54.99"/>
<polygon fill="#9a32cd" stroke="#9a32cd" points="478.55,-27.28 468.04,-28.63 477.1,-34.13 478.55,-27.28"/>
<text text-anchor="middle" x="523" y="-49.5" font-family="Helvetica,sans-Serif" font-size="10.00"> fast_check</text>
</g>
</g>
</svg>
