<?xml version="1.0" encoding="UTF-8" standalone="no"?>
<!DOCTYPE svg PUBLIC "-//W3C//DTD SVG 1.1//EN"
 "http://www.w3.org/Graphics/SVG/1.1/DTD/svg11.dtd">
<!-- Generated by graphviz version 2.43.0 (0)
 -->
<!-- Title: adiar::stats_t::__alg_base Pages: 1 -->
<svg width="328pt" height="404pt"
 viewBox="0.00 0.00 328.00 404.00" xmlns="http://www.w3.org/2000/svg" xmlns:xlink="http://www.w3.org/1999/xlink">
<g id="graph0" class="graph" transform="scale(1 1) rotate(0) translate(4 400)">
<title>adiar::stats_t::__alg_base</title>
<!-- Node1 -->
<g id="node1" class="node">
<title>Node1</title>
<g id="a_node1"><a xlink:title="Common statistics for all algorithms.">
<polygon fill="#bfbfbf" stroke="black" points="0,-174.5 0,-193.5 140,-193.5 140,-174.5 0,-174.5"/>
<text text-anchor="middle" x="70" y="-181.5" font-family="Helvetica,sans-Serif" font-size="10.00">adiar::stats_t::__alg_base</text>
</a>
</g>
</g>
<!-- Node2 -->
<g id="node2" class="node">
<title>Node2</title>
<g id="a_node2"><a xlink:href="structadiar_1_1stats__t_1_1count__t.html" target="_top" xlink:title="Counting algorithm statistics.">
<polygon fill="none" stroke="black" points="187,-376.5 187,-395.5 309,-395.5 309,-376.5 187,-376.5"/>
<text text-anchor="middle" x="248" y="-383.5" font-family="Helvetica,sans-Serif" font-size="10.00">adiar::stats_t::count_t</text>
</a>
</g>
</g>
<!-- Node1&#45;&gt;Node2 -->
<g id="edge1" class="edge">
<title>Node1&#45;&gt;Node2</title>
<path fill="none" stroke="midnightblue" d="M76.61,-203.46C88.46,-241.04 119.71,-323.7 176,-367 181.06,-370.89 186.85,-373.99 192.89,-376.45"/>
<polygon fill="midnightblue" stroke="midnightblue" points="79.91,-202.28 73.66,-193.73 73.21,-204.31 79.91,-202.28"/>
</g>
<!-- Node3 -->
<g id="node3" class="node">
<title>Node3</title>
<g id="a_node3"><a xlink:href="structadiar_1_1stats__t_1_1equality__t.html" target="_top" xlink:title="Equality Checking algorithm statistics.">
<polygon fill="none" stroke="black" points="180.5,-338.5 180.5,-357.5 315.5,-357.5 315.5,-338.5 180.5,-338.5"/>
<text text-anchor="middle" x="248" y="-345.5" font-family="Helvetica,sans-Serif" font-size="10.00">adiar::stats_t::equality_t</text>
</a>
</g>
</g>
<!-- Node1&#45;&gt;Node3 -->
<g id="edge2" class="edge">
<title>Node1&#45;&gt;Node3</title>
<path fill="none" stroke="midnightblue" d="M79.37,-202.8C94.21,-233.95 128.15,-296.07 176,-329 181.68,-332.91 188.12,-336.01 194.75,-338.48"/>
<polygon fill="midnightblue" stroke="midnightblue" points="82.45,-201.12 75.07,-193.52 76.09,-204.06 82.45,-201.12"/>
</g>
<!-- Node4 -->
<g id="node4" class="node">
<title>Node4</title>
<g id="a_node4"><a xlink:href="structadiar_1_1stats__t_1_1intercut__t.html" target="_top" xlink:title="Intercut algorithm statistics.">
<polygon fill="none" stroke="black" points="181.5,-300.5 181.5,-319.5 314.5,-319.5 314.5,-300.5 181.5,-300.5"/>
<text text-anchor="middle" x="248" y="-307.5" font-family="Helvetica,sans-Serif" font-size="10.00">adiar::stats_t::intercut_t</text>
</a>
</g>
</g>
<!-- Node1&#45;&gt;Node4 -->
<g id="edge3" class="edge">
<title>Node1&#45;&gt;Node4</title>
<path fill="none" stroke="midnightblue" d="M83.62,-201.87C101.46,-225.78 136.33,-267.86 176,-291 182.61,-294.86 190.03,-297.95 197.5,-300.43"/>
<polygon fill="midnightblue" stroke="midnightblue" points="86.36,-199.69 77.64,-193.67 80.71,-203.81 86.36,-199.69"/>
</g>
<!-- Node5 -->
<g id="node5" class="node">
<title>Node5</title>
<g id="a_node5"><a xlink:href="structadiar_1_1stats__t_1_1nested__sweeping__t_1_1inner__t_1_1down__t.html" target="_top" xlink:title="Inner Down Sweep.">
<polygon fill="none" stroke="black" points="186.5,-240.5 186.5,-281.5 309.5,-281.5 309.5,-240.5 186.5,-240.5"/>
<text text-anchor="start" x="194.5" y="-269.5" font-family="Helvetica,sans-Serif" font-size="10.00">adiar::stats_t::nested</text>
<text text-anchor="start" x="194.5" y="-258.5" font-family="Helvetica,sans-Serif" font-size="10.00">_sweeping_t::inner_t::</text>
<text text-anchor="middle" x="248" y="-247.5" font-family="Helvetica,sans-Serif" font-size="10.00">down_t</text>
</a>
</g>
</g>
<!-- Node1&#45;&gt;Node5 -->
<g id="edge4" class="edge">
<title>Node1&#45;&gt;Node5</title>
<path fill="none" stroke="midnightblue" d="M101.59,-197.9C122.49,-207.34 150.86,-220.06 176,-231 183.12,-234.1 190.65,-237.33 198.05,-240.48"/>
<polygon fill="midnightblue" stroke="midnightblue" points="102.81,-194.61 92.26,-193.67 99.93,-200.99 102.81,-194.61"/>
</g>
<!-- Node6 -->
<g id="node6" class="node">
<title>Node6</title>
<g id="a_node6"><a xlink:href="structadiar_1_1stats__t_1_1nested__sweeping__t_1_1inner__t_1_1up__t.html" target="_top" xlink:title="Inner Up Sweep.">
<polygon fill="none" stroke="black" points="176,-191 176,-221 320,-221 320,-191 176,-191"/>
<text text-anchor="start" x="184" y="-209" font-family="Helvetica,sans-Serif" font-size="10.00">adiar::stats_t::nested</text>
<text text-anchor="middle" x="248" y="-198" font-family="Helvetica,sans-Serif" font-size="10.00">_sweeping_t::inner_t::up_t</text>
</a>
</g>
</g>
<!-- Node1&#45;&gt;Node6 -->
<g id="edge5" class="edge">
<title>Node1&#45;&gt;Node6</title>
<path fill="none" stroke="midnightblue" d="M150.06,-193.88C158.65,-194.96 167.35,-196.04 175.83,-197.1"/>
<polygon fill="midnightblue" stroke="midnightblue" points="150.41,-190.4 140.05,-192.63 149.54,-197.35 150.41,-190.4"/>
</g>
<!-- Node7 -->
<g id="node7" class="node">
<title>Node7</title>
<g id="a_node7"><a xlink:href="structadiar_1_1stats__t_1_1prod2__t.html" target="_top" xlink:title="2&#45;ary Product Construction algorithm statistics.">
<polygon fill="none" stroke="black" points="186.5,-152.5 186.5,-171.5 309.5,-171.5 309.5,-152.5 186.5,-152.5"/>
<text text-anchor="middle" x="248" y="-159.5" font-family="Helvetica,sans-Serif" font-size="10.00">adiar::stats_t::prod2_t</text>
</a>
</g>
</g>
<!-- Node1&#45;&gt;Node7 -->
<g id="edge6" class="edge">
<title>Node1&#45;&gt;Node7</title>
<path fill="none" stroke="midnightblue" d="M150.2,-174.1C162.36,-172.58 174.75,-171.03 186.43,-169.57"/>
<polygon fill="midnightblue" stroke="midnightblue" points="149.54,-170.65 140.05,-175.37 150.41,-177.6 149.54,-170.65"/>
</g>
<!-- Node8 -->
<g id="node8" class="node">
<title>Node8</title>
<g id="a_node8"><a xlink:href="structadiar_1_1stats__t_1_1prod3__t.html" target="_top" xlink:title="3&#45;ary Product Construction algorithm statistics.">
<polygon fill="none" stroke="black" points="186.5,-114.5 186.5,-133.5 309.5,-133.5 309.5,-114.5 186.5,-114.5"/>
<text text-anchor="middle" x="248" y="-121.5" font-family="Helvetica,sans-Serif" font-size="10.00">adiar::stats_t::prod3_t</text>
</a>
</g>
</g>
<!-- Node1&#45;&gt;Node8 -->
<g id="edge7" class="edge">
<title>Node1&#45;&gt;Node8</title>
<path fill="none" stroke="midnightblue" d="M102.52,-170.64C123.2,-162.13 150.96,-151.21 176,-143 186.31,-139.62 197.6,-136.39 208.08,-133.58"/>
<polygon fill="midnightblue" stroke="midnightblue" points="101.17,-167.41 93.27,-174.47 103.85,-173.88 101.17,-167.41"/>
</g>
<!-- Node9 -->
<g id="node9" class="node">
<title>Node9</title>
<g id="a_node9"><a xlink:href="structadiar_1_1stats__t_1_1quantify__t.html" target="_top" xlink:title="Quantification algorithm statistics.">
<polygon fill="none" stroke="black" points="180.5,-76.5 180.5,-95.5 315.5,-95.5 315.5,-76.5 180.5,-76.5"/>
<text text-anchor="middle" x="248" y="-83.5" font-family="Helvetica,sans-Serif" font-size="10.00">adiar::stats_t::quantify_t</text>
</a>
</g>
</g>
<!-- Node1&#45;&gt;Node9 -->
<g id="edge8" class="edge">
<title>Node1&#45;&gt;Node9</title>
<path fill="none" stroke="midnightblue" d="M88.41,-167.52C108.17,-149.66 142.08,-121.52 176,-105 183.8,-101.2 192.47,-98.08 200.99,-95.54"/>
<polygon fill="midnightblue" stroke="midnightblue" points="85.83,-165.13 80.85,-174.48 90.57,-170.28 85.83,-165.13"/>
</g>
<!-- Node10 -->
<g id="node10" class="node">
<title>Node10</title>
<g id="a_node10"><a xlink:href="structadiar_1_1stats__t_1_1reduce__t.html" target="_top" xlink:title="Reduce algorithm statistics.">
<polygon fill="none" stroke="black" points="184,-38.5 184,-57.5 312,-57.5 312,-38.5 184,-38.5"/>
<text text-anchor="middle" x="248" y="-45.5" font-family="Helvetica,sans-Serif" font-size="10.00">adiar::stats_t::reduce_t</text>
</a>
</g>
</g>
<!-- Node1&#45;&gt;Node10 -->
<g id="edge9" class="edge">
<title>Node1&#45;&gt;Node10</title>
<path fill="none" stroke="midnightblue" d="M82.22,-165.94C99.27,-140.05 134.15,-92.68 176,-67 182.31,-63.13 189.4,-60.04 196.6,-57.57"/>
<polygon fill="midnightblue" stroke="midnightblue" points="79.23,-164.12 76.77,-174.43 85.12,-167.91 79.23,-164.12"/>
</g>
<!-- Node11 -->
<g id="node11" class="node">
<title>Node11</title>
<g id="a_node11"><a xlink:href="structadiar_1_1stats__t_1_1substitute__t.html" target="_top" xlink:title="Substitution algorithm statistics.">
<polygon fill="none" stroke="black" points="176,-0.5 176,-19.5 320,-19.5 320,-0.5 176,-0.5"/>
<text text-anchor="middle" x="248" y="-7.5" font-family="Helvetica,sans-Serif" font-size="10.00">adiar::stats_t::substitute_t</text>
</a>
</g>
</g>
<!-- Node1&#45;&gt;Node11 -->
<g id="edge10" class="edge">
<title>Node1&#45;&gt;Node11</title>
<path fill="none" stroke="midnightblue" d="M78.62,-164.81C92.71,-131.83 126.06,-64.54 176,-29 181.41,-25.15 187.55,-22.09 193.9,-19.64"/>
<polygon fill="midnightblue" stroke="midnightblue" points="75.31,-163.65 74.72,-174.23 81.78,-166.33 75.31,-163.65"/>
</g>
</g>
</svg>
