<?xml version="1.0" encoding="UTF-8" standalone="no"?>
<!DOCTYPE svg PUBLIC "-//W3C//DTD SVG 1.1//EN"
 "http://www.w3.org/Graphics/SVG/1.1/DTD/svg11.dtd">
<!-- Generated by graphviz version 2.43.0 (0)
 -->
<!-- Title: adiar::statistics Pages: 1 -->
<svg width="1481pt" height="845pt"
 viewBox="0.00 0.00 1481.00 844.80" xmlns="http://www.w3.org/2000/svg" xmlns:xlink="http://www.w3.org/1999/xlink">
<g id="graph0" class="graph" transform="scale(1 1) rotate(0) translate(4 840.8)">
<title>adiar::statistics</title>
<!-- Node1 -->
<g id="Node000001" class="node">
<title>Node1</title>
<g id="a_Node000001"><a xlink:title="Available statistics from algorithm&#39;s and data structures.">
<polygon fill="#999999" stroke="#666666" points="1473,-512.3 1381,-512.3 1381,-493.3 1473,-493.3 1473,-512.3"/>
<text text-anchor="middle" x="1427" y="-500.3" font-family="Helvetica,sans-Serif" font-size="10.00">adiar::statistics</text>
</a>
</g>
</g>
<!-- Node2 -->
<g id="Node000002" class="node">
<title>Node2</title>
<g id="a_Node000002"><a xlink:href="structadiar_1_1statistics_1_1arc__file__t.html" target="_top" xlink:title="Arc Files statistics.">
<polygon fill="white" stroke="#666666" points="1251,-836.8 1153,-836.8 1153,-806.8 1251,-806.8 1251,-836.8"/>
<text text-anchor="start" x="1161" y="-824.8" font-family="Helvetica,sans-Serif" font-size="10.00">adiar::statistics::</text>
<text text-anchor="middle" x="1202" y="-813.8" font-family="Helvetica,sans-Serif" font-size="10.00">arc_file_t</text>
</a>
</g>
</g>
<!-- Node2&#45;&gt;Node1 -->
<g id="edge1_Node000001_Node000002" class="edge">
<title>Node2&#45;&gt;Node1</title>
<g id="a_edge1_Node000001_Node000002"><a xlink:title=" ">
<path fill="none" stroke="#9a32cd" stroke-dasharray="5,2" d="M1261.58,-825.76C1295.48,-824.78 1336.54,-817.49 1363,-791.8 1404.54,-751.46 1421.78,-557.95 1425.3,-512.41"/>
<polygon fill="#9a32cd" stroke="#9a32cd" points="1261.27,-822.26 1251.31,-825.87 1261.35,-829.26 1261.27,-822.26"/>
</a>
</g>
<text text-anchor="middle" x="1319" y="-827.8" font-family="Helvetica,sans-Serif" font-size="10.00" fill="grey"> arc_file</text>
</g>
<!-- Node3 -->
<g id="Node000003" class="node">
<title>Node3</title>
<g id="a_Node000003"><a xlink:href="structadiar_1_1statistics_1_1node__file__t.html" target="_top" xlink:title="Node Files statistics.">
<polygon fill="white" stroke="#666666" points="1251,-788.8 1153,-788.8 1153,-758.8 1251,-758.8 1251,-788.8"/>
<text text-anchor="start" x="1161" y="-776.8" font-family="Helvetica,sans-Serif" font-size="10.00">adiar::statistics::</text>
<text text-anchor="middle" x="1202" y="-765.8" font-family="Helvetica,sans-Serif" font-size="10.00">node_file_t</text>
</a>
</g>
</g>
<!-- Node3&#45;&gt;Node1 -->
<g id="edge2_Node000001_Node000003" class="edge">
<title>Node3&#45;&gt;Node1</title>
<g id="a_edge2_Node000001_Node000003"><a xlink:title=" ">
<path fill="none" stroke="#9a32cd" stroke-dasharray="5,2" d="M1261.53,-777.77C1295.22,-776.84 1336.08,-769.76 1363,-744.8 1398.41,-711.96 1419.86,-553.39 1424.87,-512.46"/>
<polygon fill="#9a32cd" stroke="#9a32cd" points="1261.29,-774.27 1251.33,-777.88 1261.37,-781.27 1261.29,-774.27"/>
</a>
</g>
<text text-anchor="middle" x="1319" y="-779.8" font-family="Helvetica,sans-Serif" font-size="10.00" fill="grey"> node_file</text>
</g>
<!-- Node4 -->
<g id="Node000004" class="node">
<title>Node4</title>
<g id="a_Node000004"><a xlink:href="structadiar_1_1statistics_1_1levelized__priority__queue__t.html" target="_top" xlink:title="Levelized Priority Queue statistics.">
<polygon fill="white" stroke="#666666" points="146,-723.8 0,-723.8 0,-693.8 146,-693.8 146,-723.8"/>
<text text-anchor="start" x="8" y="-711.8" font-family="Helvetica,sans-Serif" font-size="10.00">adiar::statistics::</text>
<text text-anchor="middle" x="73" y="-700.8" font-family="Helvetica,sans-Serif" font-size="10.00">levelized_priority_queue_t</text>
</a>
</g>
</g>
<!-- Node4&#45;&gt;Node1 -->
<g id="edge3_Node000001_Node000004" class="edge">
<title>Node4&#45;&gt;Node1</title>
<g id="a_edge3_Node000001_Node000004"><a xlink:title=" ">
<path fill="none" stroke="#9a32cd" stroke-dasharray="5,2" d="M156.3,-724.23C182.19,-727.91 210.95,-730.8 237.5,-730.8 237.5,-730.8 237.5,-730.8 1203,-730.8 1278.05,-730.8 1309.35,-729.28 1363,-676.8 1411.46,-629.39 1422.83,-541.93 1425.34,-512.64"/>
<polygon fill="#9a32cd" stroke="#9a32cd" points="156.56,-720.73 146.16,-722.73 155.54,-727.66 156.56,-720.73"/>
</a>
</g>
<text text-anchor="start" x="574.5" y="-744.8" font-family="Helvetica,sans-Serif" font-size="10.00" fill="grey"> levelized_priority</text>
<text text-anchor="middle" x="618.5" y="-733.8" font-family="Helvetica,sans-Serif" font-size="10.00" fill="grey">_queue</text>
</g>
<!-- Node7 -->
<g id="Node000007" class="node">
<title>Node7</title>
<g id="a_Node000007"><a xlink:href="structadiar_1_1statistics_1_1____alg__base_1_1____lpq__t.html" target="_top" xlink:title="Type and usage of this algorithm&#39;s levelized priority queue.">
<polygon fill="white" stroke="#666666" points="294,-661.8 183,-661.8 183,-631.8 294,-631.8 294,-661.8"/>
<text text-anchor="start" x="191" y="-649.8" font-family="Helvetica,sans-Serif" font-size="10.00">adiar::statistics::</text>
<text text-anchor="middle" x="238.5" y="-638.8" font-family="Helvetica,sans-Serif" font-size="10.00">__alg_base::__lpq_t</text>
</a>
</g>
</g>
<!-- Node4&#45;&gt;Node7 -->
<g id="edge7_Node000007_Node000004" class="edge">
<title>Node4&#45;&gt;Node7</title>
<g id="a_edge7_Node000007_Node000004"><a xlink:title=" ">
<path fill="none" stroke="#63b8ff" d="M123.15,-690.16C146.99,-681.12 175.26,-670.4 197.72,-661.88"/>
<polygon fill="#63b8ff" stroke="#63b8ff" points="121.69,-686.97 113.58,-693.79 124.17,-693.51 121.69,-686.97"/>
</a>
</g>
</g>
<!-- Node5 -->
<g id="Node000005" class="node">
<title>Node5</title>
<g id="a_Node000005"><a xlink:href="structadiar_1_1statistics_1_1count__t.html" target="_top" xlink:title="Counting algorithm statistics.">
<polygon fill="white" stroke="#666666" points="805,-605.8 707,-605.8 707,-575.8 805,-575.8 805,-605.8"/>
<text text-anchor="start" x="715" y="-593.8" font-family="Helvetica,sans-Serif" font-size="10.00">adiar::statistics::</text>
<text text-anchor="middle" x="756" y="-582.8" font-family="Helvetica,sans-Serif" font-size="10.00">count_t</text>
</a>
</g>
</g>
<!-- Node5&#45;&gt;Node1 -->
<g id="edge4_Node000001_Node000005" class="edge">
<title>Node5&#45;&gt;Node1</title>
<g id="a_edge4_Node000001_Node000005"><a xlink:title=" ">
<path fill="none" stroke="#9a32cd" stroke-dasharray="5,2" d="M815.69,-591.12C889.12,-591.02 1018.63,-589.16 1129,-578.8 1186.33,-573.41 1200.26,-568.58 1257,-558.8 1304.25,-550.65 1318.01,-555.36 1363,-538.8 1380.97,-532.18 1399.81,-520.73 1412.15,-512.52"/>
<polygon fill="#9a32cd" stroke="#9a32cd" points="815.27,-587.62 805.27,-591.13 815.27,-594.62 815.27,-587.62"/>
</a>
</g>
<text text-anchor="middle" x="1076" y="-588.8" font-family="Helvetica,sans-Serif" font-size="10.00" fill="grey"> count</text>
</g>
<!-- Node6 -->
<g id="Node000006" class="node">
<title>Node6</title>
<g id="a_Node000006"><a xlink:href="structadiar_1_1statistics_1_1____alg__base.html" target="_top" xlink:title="Common statistics for all algorithms.">
<polygon fill="white" stroke="#666666" points="449.5,-487.8 351.5,-487.8 351.5,-457.8 449.5,-457.8 449.5,-487.8"/>
<text text-anchor="start" x="359.5" y="-475.8" font-family="Helvetica,sans-Serif" font-size="10.00">adiar::statistics::</text>
<text text-anchor="middle" x="400.5" y="-464.8" font-family="Helvetica,sans-Serif" font-size="10.00">__alg_base</text>
</a>
</g>
</g>
<!-- Node6&#45;&gt;Node5 -->
<g id="edge5_Node000005_Node000006" class="edge">
<title>Node6&#45;&gt;Node5</title>
<g id="a_edge5_Node000005_Node000006"><a xlink:title=" ">
<path fill="none" stroke="#63b8ff" d="M443.23,-491.97C452,-495.74 461.24,-499.54 470,-502.8 551.9,-533.26 649.67,-561.8 706.79,-577.72"/>
<polygon fill="#63b8ff" stroke="#63b8ff" points="444.51,-488.71 433.94,-487.9 441.7,-495.12 444.51,-488.71"/>
</a>
</g>
</g>
<!-- Node8 -->
<g id="Node000008" class="node">
<title>Node8</title>
<g id="a_Node000008"><a xlink:href="structadiar_1_1statistics_1_1equality__t.html" target="_top" xlink:title="Equality Checking algorithm statistics.">
<polygon fill="white" stroke="#666666" points="667.5,-686.8 569.5,-686.8 569.5,-656.8 667.5,-656.8 667.5,-686.8"/>
<text text-anchor="start" x="577.5" y="-674.8" font-family="Helvetica,sans-Serif" font-size="10.00">adiar::statistics::</text>
<text text-anchor="middle" x="618.5" y="-663.8" font-family="Helvetica,sans-Serif" font-size="10.00">equality_t</text>
</a>
</g>
</g>
<!-- Node6&#45;&gt;Node8 -->
<g id="edge9_Node000008_Node000006" class="edge">
<title>Node6&#45;&gt;Node8</title>
<g id="a_edge9_Node000008_Node000006"><a xlink:title=" ">
<path fill="none" stroke="#63b8ff" d="M408.57,-497.7C418.1,-527.24 437.71,-576.31 470,-606.8 497.78,-633.02 537.87,-649.76 569.24,-659.67"/>
<polygon fill="#63b8ff" stroke="#63b8ff" points="411.91,-496.65 405.61,-488.13 405.22,-498.72 411.91,-496.65"/>
</a>
</g>
</g>
<!-- Node11 -->
<g id="Node000011" class="node">
<title>Node11</title>
<g id="a_Node000011"><a xlink:href="structadiar_1_1statistics_1_1intercut__t.html" target="_top" xlink:title="Intercut algorithm statistics.">
<polygon fill="white" stroke="#666666" points="1125,-258.8 1027,-258.8 1027,-228.8 1125,-228.8 1125,-258.8"/>
<text text-anchor="start" x="1035" y="-246.8" font-family="Helvetica,sans-Serif" font-size="10.00">adiar::statistics::</text>
<text text-anchor="middle" x="1076" y="-235.8" font-family="Helvetica,sans-Serif" font-size="10.00">intercut_t</text>
</a>
</g>
</g>
<!-- Node6&#45;&gt;Node11 -->
<g id="edge13_Node000011_Node000006" class="edge">
<title>Node6&#45;&gt;Node11</title>
<g id="a_edge13_Node000011_Node000006"><a xlink:title=" ">
<path fill="none" stroke="#63b8ff" d="M415.82,-449.22C428.6,-429.23 448.56,-400.44 470,-378.8 500.4,-348.1 509.75,-340.88 548,-320.8 707.65,-236.99 929.86,-236.18 1026.69,-240.55"/>
<polygon fill="#63b8ff" stroke="#63b8ff" points="412.83,-447.4 410.47,-457.73 418.76,-451.12 412.83,-447.4"/>
</a>
</g>
</g>
<!-- Node12 -->
<g id="Node000012" class="node">
<title>Node12</title>
<g id="a_Node000012"><a xlink:href="structadiar_1_1statistics_1_1optmin__t.html" target="_top" xlink:title="Boolean Optimization algorithm statistics.">
<polygon fill="white" stroke="#666666" points="805,-227.8 707,-227.8 707,-197.8 805,-197.8 805,-227.8"/>
<text text-anchor="start" x="715" y="-215.8" font-family="Helvetica,sans-Serif" font-size="10.00">adiar::statistics::</text>
<text text-anchor="middle" x="756" y="-204.8" font-family="Helvetica,sans-Serif" font-size="10.00">optmin_t</text>
</a>
</g>
</g>
<!-- Node6&#45;&gt;Node12 -->
<g id="edge15_Node000012_Node000006" class="edge">
<title>Node6&#45;&gt;Node12</title>
<g id="a_edge15_Node000012_Node000006"><a xlink:title=" ">
<path fill="none" stroke="#63b8ff" d="M400.78,-447.43C400.92,-399.51 408.76,-295.89 470,-244.8 536.61,-189.21 644.59,-194.47 706.75,-203.5"/>
<polygon fill="#63b8ff" stroke="#63b8ff" points="397.28,-447.59 400.86,-457.56 404.28,-447.54 397.28,-447.59"/>
</a>
</g>
</g>
<!-- Node13 -->
<g id="Node000013" class="node">
<title>Node13</title>
<g id="a_Node000013"><a xlink:href="structadiar_1_1statistics_1_1prod2b__t.html" target="_top" xlink:title="2&#45;ary Product Construction algorithm for binary inputs.">
<polygon fill="white" stroke="#666666" points="667.5,-171.8 569.5,-171.8 569.5,-141.8 667.5,-141.8 667.5,-171.8"/>
<text text-anchor="start" x="577.5" y="-159.8" font-family="Helvetica,sans-Serif" font-size="10.00">adiar::statistics::</text>
<text text-anchor="middle" x="618.5" y="-148.8" font-family="Helvetica,sans-Serif" font-size="10.00">prod2b_t</text>
</a>
</g>
</g>
<!-- Node6&#45;&gt;Node13 -->
<g id="edge17_Node000013_Node000006" class="edge">
<title>Node6&#45;&gt;Node13</title>
<g id="a_edge17_Node000013_Node000006"><a xlink:title=" ">
<path fill="none" stroke="#63b8ff" d="M400.94,-447.57C401.19,-396.66 408.91,-280.68 470,-212.8 477.19,-204.8 531.04,-185.55 571.61,-171.86"/>
<polygon fill="#63b8ff" stroke="#63b8ff" points="397.44,-447.7 400.99,-457.69 404.44,-447.67 397.44,-447.7"/>
</a>
</g>
</g>
<!-- Node16 -->
<g id="Node000016" class="node">
<title>Node16</title>
<g id="a_Node000016"><a xlink:href="structadiar_1_1statistics_1_1prod2u__t.html" target="_top" xlink:title="2&#45;ary Product Construction algorithm for unary inputs.">
<polygon fill="white" stroke="#666666" points="667.5,-94.8 569.5,-94.8 569.5,-64.8 667.5,-64.8 667.5,-94.8"/>
<text text-anchor="start" x="577.5" y="-82.8" font-family="Helvetica,sans-Serif" font-size="10.00">adiar::statistics::</text>
<text text-anchor="middle" x="618.5" y="-71.8" font-family="Helvetica,sans-Serif" font-size="10.00">prod2u_t</text>
</a>
</g>
</g>
<!-- Node6&#45;&gt;Node16 -->
<g id="edge21_Node000016_Node000006" class="edge">
<title>Node6&#45;&gt;Node16</title>
<g id="a_edge21_Node000016_Node000006"><a xlink:title=" ">
<path fill="none" stroke="#63b8ff" d="M400.64,-447.45C400.14,-393.47 406.29,-265.77 470,-187.8 488.62,-165.01 507.68,-178.97 530,-159.8 540.94,-150.4 538.13,-143.31 548,-132.8 561.6,-118.3 579.48,-104.76 593.7,-95"/>
<polygon fill="#63b8ff" stroke="#63b8ff" points="397.14,-447.57 400.82,-457.51 404.14,-447.45 397.14,-447.57"/>
</a>
</g>
</g>
<!-- Node17 -->
<g id="Node000017" class="node">
<title>Node17</title>
<g id="a_Node000017"><a xlink:href="structadiar_1_1statistics_1_1prod3__t.html" target="_top" xlink:title="3&#45;ary Product Construction algorithm statistics.">
<polygon fill="white" stroke="#666666" points="1125,-664.8 1027,-664.8 1027,-634.8 1125,-634.8 1125,-664.8"/>
<text text-anchor="start" x="1035" y="-652.8" font-family="Helvetica,sans-Serif" font-size="10.00">adiar::statistics::</text>
<text text-anchor="middle" x="1076" y="-641.8" font-family="Helvetica,sans-Serif" font-size="10.00">prod3_t</text>
</a>
</g>
</g>
<!-- Node6&#45;&gt;Node17 -->
<g id="edge25_Node000017_Node000006" class="edge">
<title>Node6&#45;&gt;Node17</title>
<g id="a_edge25_Node000017_Node000006"><a xlink:title=" ">
<path fill="none" stroke="#63b8ff" d="M426.88,-494.35C439.44,-504.5 455.07,-516.41 470,-525.8 502.82,-546.42 512.07,-550.27 548,-564.8 616.68,-592.56 634.39,-600.1 707,-614.8 820.22,-637.72 956.16,-645.71 1026.89,-648.43"/>
<polygon fill="#63b8ff" stroke="#63b8ff" points="429.07,-491.61 419.12,-487.97 424.63,-497.02 429.07,-491.61"/>
</a>
</g>
</g>
<!-- Node21 -->
<g id="Node000021" class="node">
<title>Node21</title>
<g id="a_Node000021"><a xlink:href="structadiar_1_1statistics_1_1select__t.html" target="_top" xlink:title="Select algorithm statistics.">
<polygon fill="white" stroke="#666666" points="805,-548.8 707,-548.8 707,-518.8 805,-518.8 805,-548.8"/>
<text text-anchor="start" x="715" y="-536.8" font-family="Helvetica,sans-Serif" font-size="10.00">adiar::statistics::</text>
<text text-anchor="middle" x="756" y="-525.8" font-family="Helvetica,sans-Serif" font-size="10.00">select_t</text>
</a>
</g>
</g>
<!-- Node6&#45;&gt;Node21 -->
<g id="edge30_Node000021_Node000006" class="edge">
<title>Node6&#45;&gt;Node21</title>
<g id="a_edge30_Node000021_Node000006"><a xlink:title=" ">
<path fill="none" stroke="#63b8ff" d="M459.81,-482.86C528.83,-494.77 642.5,-514.38 706.78,-525.48"/>
<polygon fill="#63b8ff" stroke="#63b8ff" points="459.99,-479.34 449.54,-481.09 458.8,-486.24 459.99,-479.34"/>
</a>
</g>
</g>
<!-- Node22 -->
<g id="Node000022" class="node">
<title>Node22</title>
<g id="a_Node000022"><a xlink:href="structadiar_1_1statistics_1_1reduce__t.html" target="_top" xlink:title="Reduce algorithm statistics.">
<polygon fill="white" stroke="#666666" points="667.5,-359.8 569.5,-359.8 569.5,-329.8 667.5,-329.8 667.5,-359.8"/>
<text text-anchor="start" x="577.5" y="-347.8" font-family="Helvetica,sans-Serif" font-size="10.00">adiar::statistics::</text>
<text text-anchor="middle" x="618.5" y="-336.8" font-family="Helvetica,sans-Serif" font-size="10.00">reduce_t</text>
</a>
</g>
</g>
<!-- Node6&#45;&gt;Node22 -->
<g id="edge32_Node000022_Node000006" class="edge">
<title>Node6&#45;&gt;Node22</title>
<g id="a_edge32_Node000022_Node000006"><a xlink:title=" ">
<path fill="none" stroke="#63b8ff" d="M428.73,-451.14C457.25,-429.15 503.96,-395.12 548,-371.8 556.24,-367.43 565.34,-363.39 574.16,-359.83"/>
<polygon fill="#63b8ff" stroke="#63b8ff" points="426.23,-448.65 420.48,-457.55 430.52,-454.17 426.23,-448.65"/>
</a>
</g>
</g>
<!-- Node7&#45;&gt;Node6 -->
<g id="edge6_Node000006_Node000007" class="edge">
<title>Node7&#45;&gt;Node6</title>
<g id="a_edge6_Node000006_Node000007"><a xlink:title=" ">
<path fill="none" stroke="#9a32cd" stroke-dasharray="5,2" d="M260.38,-624.08C293.53,-588.04 357.3,-518.69 385.5,-488.02"/>
<polygon fill="#9a32cd" stroke="#9a32cd" points="257.61,-621.93 253.42,-631.66 262.76,-626.67 257.61,-621.93"/>
</a>
</g>
<text text-anchor="middle" x="321.5" y="-567.8" font-family="Helvetica,sans-Serif" font-size="10.00" fill="grey"> lpq</text>
</g>
<!-- Node8&#45;&gt;Node1 -->
<g id="edge8_Node000001_Node000008" class="edge">
<title>Node8&#45;&gt;Node1</title>
<g id="a_edge8_Node000001_Node000008"><a xlink:title=" ">
<path fill="none" stroke="#9a32cd" stroke-dasharray="5,2" d="M677.81,-677.04C790.29,-686.11 1044.84,-701.48 1257,-676.8 1305.08,-671.2 1326.02,-683.02 1363,-651.8 1407.64,-614.11 1421.33,-539.3 1424.89,-512.57"/>
<polygon fill="#9a32cd" stroke="#9a32cd" points="677.95,-673.54 667.7,-676.21 677.38,-680.52 677.95,-673.54"/>
</a>
</g>
<text text-anchor="middle" x="1076" y="-692.8" font-family="Helvetica,sans-Serif" font-size="10.00" fill="grey"> equality</text>
</g>
<!-- Node9 -->
<g id="Node000009" class="node">
<title>Node9</title>
<g id="a_Node000009"><a xlink:href="structadiar_1_1statistics_1_1equality__t_1_1slow__t.html" target="_top" xlink:title="Statistics from O(N log N) time&#45;forward processing equality checking algorithm.">
<polygon fill="white" stroke="#666666" points="452,-702.8 349,-702.8 349,-672.8 452,-672.8 452,-702.8"/>
<text text-anchor="start" x="357" y="-690.8" font-family="Helvetica,sans-Serif" font-size="10.00">adiar::statistics::</text>
<text text-anchor="middle" x="400.5" y="-679.8" font-family="Helvetica,sans-Serif" font-size="10.00">equality_t::slow_t</text>
</a>
</g>
</g>
<!-- Node9&#45;&gt;Node8 -->
<g id="edge10_Node000008_Node000009" class="edge">
<title>Node9&#45;&gt;Node8</title>
<g id="a_edge10_Node000008_Node000009"><a xlink:title=" ">
<path fill="none" stroke="#9a32cd" stroke-dasharray="5,2" d="M462.39,-683.29C496.26,-680.78 537.83,-677.7 569.4,-675.36"/>
<polygon fill="#9a32cd" stroke="#9a32cd" points="461.86,-679.82 452.14,-684.04 462.37,-686.8 461.86,-679.82"/>
</a>
</g>
<text text-anchor="middle" x="500" y="-684.8" font-family="Helvetica,sans-Serif" font-size="10.00" fill="grey"> slow_check</text>
</g>
<!-- Node10 -->
<g id="Node000010" class="node">
<title>Node10</title>
<g id="a_Node000010"><a xlink:href="structadiar_1_1statistics_1_1equality__t_1_1fast__t.html" target="_top" xlink:title="Statistics from O(N) linear&#45;scan equality checking algorithm.">
<polygon fill="white" stroke="#666666" points="450,-654.8 351,-654.8 351,-624.8 450,-624.8 450,-654.8"/>
<text text-anchor="start" x="359" y="-642.8" font-family="Helvetica,sans-Serif" font-size="10.00">adiar::statistics::</text>
<text text-anchor="middle" x="400.5" y="-631.8" font-family="Helvetica,sans-Serif" font-size="10.00">equality_t::fast_t</text>
</a>
</g>
</g>
<!-- Node10&#45;&gt;Node8 -->
<g id="edge11_Node000008_Node000010" class="edge">
<title>Node10&#45;&gt;Node8</title>
<g id="a_edge11_Node000008_Node000010"><a xlink:title=" ">
<path fill="none" stroke="#9a32cd" stroke-dasharray="5,2" d="M460.56,-648.55C494.72,-653.61 537.17,-659.9 569.31,-664.66"/>
<polygon fill="#9a32cd" stroke="#9a32cd" points="460.65,-645.02 450.24,-647.02 459.62,-651.95 460.65,-645.02"/>
</a>
</g>
<text text-anchor="middle" x="500" y="-660.8" font-family="Helvetica,sans-Serif" font-size="10.00" fill="grey"> fast_check</text>
</g>
<!-- Node11&#45;&gt;Node1 -->
<g id="edge12_Node000001_Node000011" class="edge">
<title>Node11&#45;&gt;Node1</title>
<g id="a_edge12_Node000001_Node000011"><a xlink:title=" ">
<path fill="none" stroke="#9a32cd" stroke-dasharray="5,2" d="M1135.31,-232.61C1198.9,-223.99 1300.01,-221.25 1363,-274.8 1397.65,-304.26 1419.5,-453.42 1424.76,-493.09"/>
<polygon fill="#9a32cd" stroke="#9a32cd" points="1134.44,-229.2 1125.05,-234.1 1135.45,-236.13 1134.44,-229.2"/>
</a>
</g>
<text text-anchor="middle" x="1202" y="-233.8" font-family="Helvetica,sans-Serif" font-size="10.00" fill="grey"> intercut</text>
</g>
<!-- Node12&#45;&gt;Node1 -->
<g id="edge14_Node000001_Node000012" class="edge">
<title>Node12&#45;&gt;Node1</title>
<g id="a_edge14_Node000001_Node000012"><a xlink:title=" ">
<path fill="none" stroke="#9a32cd" stroke-dasharray="5,2" d="M815.37,-205.57C951.17,-190.14 1282.88,-160.74 1363,-230.8 1403.96,-266.61 1421.53,-448.79 1425.23,-493.08"/>
<polygon fill="#9a32cd" stroke="#9a32cd" points="814.69,-202.13 805.16,-206.75 815.49,-209.08 814.69,-202.13"/>
</a>
</g>
<text text-anchor="middle" x="1076" y="-190.8" font-family="Helvetica,sans-Serif" font-size="10.00" fill="grey"> optmin</text>
</g>
<!-- Node13&#45;&gt;Node1 -->
<g id="edge16_Node000001_Node000013" class="edge">
<title>Node13&#45;&gt;Node1</title>
<g id="a_edge16_Node000001_Node000013"><a xlink:title=" ">
<path fill="none" stroke="#9a32cd" stroke-dasharray="5,2" d="M677.8,-155.52C844.25,-152.44 1312.93,-147.96 1363,-193.8 1408.74,-235.66 1422.86,-445.33 1425.51,-493.1"/>
<polygon fill="#9a32cd" stroke="#9a32cd" points="677.68,-152.02 667.75,-155.71 677.82,-159.02 677.68,-152.02"/>
</a>
</g>
<text text-anchor="middle" x="1076" y="-160.8" font-family="Helvetica,sans-Serif" font-size="10.00" fill="grey"> prod2b</text>
</g>
<!-- Node14 -->
<g id="Node000014" class="node">
<title>Node14</title>
<g id="a_Node000014"><a xlink:href="structadiar_1_1statistics_1_1____raccess__base.html" target="_top" xlink:title="Common statistics for algorithms using random access.">
<polygon fill="white" stroke="#666666" points="449.5,-74.8 351.5,-74.8 351.5,-44.8 449.5,-44.8 449.5,-74.8"/>
<text text-anchor="start" x="359.5" y="-62.8" font-family="Helvetica,sans-Serif" font-size="10.00">adiar::statistics::</text>
<text text-anchor="middle" x="400.5" y="-51.8" font-family="Helvetica,sans-Serif" font-size="10.00">__raccess_base</text>
</a>
</g>
</g>
<!-- Node14&#45;&gt;Node13 -->
<g id="edge18_Node000013_Node000014" class="edge">
<title>Node14&#45;&gt;Node13</title>
<g id="a_edge18_Node000013_Node000014"><a xlink:title=" ">
<path fill="none" stroke="#9a32cd" stroke-dasharray="5,2" d="M442.65,-79.2C451.64,-83.39 461.13,-87.77 470,-91.8 508.48,-109.26 552.88,-128.74 582.83,-141.78"/>
<polygon fill="#9a32cd" stroke="#9a32cd" points="444.04,-75.98 433.49,-74.92 441.07,-82.32 444.04,-75.98"/>
</a>
</g>
<text text-anchor="middle" x="500" y="-119.8" font-family="Helvetica,sans-Serif" font-size="10.00" fill="grey"> ra</text>
</g>
<!-- Node14&#45;&gt;Node16 -->
<g id="edge22_Node000016_Node000014" class="edge">
<title>Node14&#45;&gt;Node16</title>
<g id="a_edge22_Node000016_Node000014"><a xlink:title=" ">
<path fill="none" stroke="#9a32cd" stroke-dasharray="5,2" d="M459.58,-47.03C481.73,-43.97 507.14,-42.63 530,-46.8 549.17,-50.29 569.59,-57.76 585.88,-64.71"/>
<polygon fill="#9a32cd" stroke="#9a32cd" points="459.01,-43.58 449.66,-48.55 460.07,-50.5 459.01,-43.58"/>
</a>
</g>
<text text-anchor="middle" x="500" y="-49.8" font-family="Helvetica,sans-Serif" font-size="10.00" fill="grey"> ra</text>
</g>
<!-- Node15 -->
<g id="Node000015" class="node">
<title>Node15</title>
<g id="a_Node000015"><a xlink:href="structadiar_1_1statistics_1_1____pq2__base.html" target="_top" xlink:title="Common statistics for algorithms using a second priority queue.">
<polygon fill="white" stroke="#666666" points="449.5,-149.8 351.5,-149.8 351.5,-119.8 449.5,-119.8 449.5,-149.8"/>
<text text-anchor="start" x="359.5" y="-137.8" font-family="Helvetica,sans-Serif" font-size="10.00">adiar::statistics::</text>
<text text-anchor="middle" x="400.5" y="-126.8" font-family="Helvetica,sans-Serif" font-size="10.00">__pq2_base</text>
</a>
</g>
</g>
<!-- Node15&#45;&gt;Node13 -->
<g id="edge19_Node000013_Node000015" class="edge">
<title>Node15&#45;&gt;Node13</title>
<g id="a_edge19_Node000013_Node000015"><a xlink:title=" ">
<path fill="none" stroke="#9a32cd" stroke-dasharray="5,2" d="M460.06,-140.76C494.35,-144.25 537.13,-148.61 569.44,-151.9"/>
<polygon fill="#9a32cd" stroke="#9a32cd" points="460.01,-137.24 449.71,-139.71 459.3,-144.2 460.01,-137.24"/>
</a>
</g>
<text text-anchor="middle" x="500" y="-149.8" font-family="Helvetica,sans-Serif" font-size="10.00" fill="grey"> pq</text>
</g>
<!-- Node15&#45;&gt;Node16 -->
<g id="edge23_Node000016_Node000015" class="edge">
<title>Node15&#45;&gt;Node16</title>
<g id="a_edge23_Node000016_Node000015"><a xlink:title=" ">
<path fill="none" stroke="#9a32cd" stroke-dasharray="5,2" d="M422.17,-112.47C434.71,-100.61 451.78,-87.19 470,-80.8 501.78,-69.66 539.83,-69.7 569.32,-72.37"/>
<polygon fill="#9a32cd" stroke="#9a32cd" points="419.63,-110.06 414.98,-119.58 424.55,-115.04 419.63,-110.06"/>
</a>
</g>
<text text-anchor="middle" x="500" y="-83.8" font-family="Helvetica,sans-Serif" font-size="10.00" fill="grey"> pq</text>
</g>
<!-- Node16&#45;&gt;Node1 -->
<g id="edge20_Node000001_Node000016" class="edge">
<title>Node16&#45;&gt;Node1</title>
<g id="a_edge20_Node000001_Node000016"><a xlink:title=" ">
<path fill="none" stroke="#9a32cd" stroke-dasharray="5,2" d="M672.07,-61.61C807.13,-18.57 1169.24,72.86 1363,-108.8 1421.12,-163.28 1425.66,-437.9 1425.98,-493.12"/>
<polygon fill="#9a32cd" stroke="#9a32cd" points="670.8,-58.34 662.36,-64.74 672.95,-65 670.8,-58.34"/>
</a>
</g>
<text text-anchor="middle" x="1076" y="-9.8" font-family="Helvetica,sans-Serif" font-size="10.00" fill="grey"> prod2u</text>
</g>
<!-- Node17&#45;&gt;Node1 -->
<g id="edge24_Node000001_Node000017" class="edge">
<title>Node17&#45;&gt;Node1</title>
<g id="a_edge24_Node000001_Node000017"><a xlink:title=" ">
<path fill="none" stroke="#9a32cd" stroke-dasharray="5,2" d="M1135.07,-659.22C1196.93,-666.04 1295.1,-667.33 1363,-621.8 1402.41,-595.37 1418.93,-536.02 1424.08,-512.59"/>
<polygon fill="#9a32cd" stroke="#9a32cd" points="1135.43,-655.74 1125.09,-658.03 1134.61,-662.69 1135.43,-655.74"/>
</a>
</g>
<text text-anchor="middle" x="1202" y="-664.8" font-family="Helvetica,sans-Serif" font-size="10.00" fill="grey"> prod3</text>
</g>
<!-- Node18 -->
<g id="Node000018" class="node">
<title>Node18</title>
<g id="a_Node000018"><a xlink:href="structadiar_1_1statistics_1_1quantify__t.html" target="_top" xlink:title="Quantification algorithm statistics.">
<polygon fill="white" stroke="#666666" points="1251,-517.8 1153,-517.8 1153,-487.8 1251,-487.8 1251,-517.8"/>
<text text-anchor="start" x="1161" y="-505.8" font-family="Helvetica,sans-Serif" font-size="10.00">adiar::statistics::</text>
<text text-anchor="middle" x="1202" y="-494.8" font-family="Helvetica,sans-Serif" font-size="10.00">quantify_t</text>
</a>
</g>
</g>
<!-- Node18&#45;&gt;Node1 -->
<g id="edge26_Node000001_Node000018" class="edge">
<title>Node18&#45;&gt;Node1</title>
<g id="a_edge26_Node000001_Node000018"><a xlink:title=" ">
<path fill="none" stroke="#9a32cd" stroke-dasharray="5,2" d="M1261.33,-502.8C1298.59,-502.8 1346.2,-502.8 1380.64,-502.8"/>
<polygon fill="#9a32cd" stroke="#9a32cd" points="1261.11,-499.3 1251.11,-502.8 1261.11,-506.3 1261.11,-499.3"/>
</a>
</g>
<text text-anchor="middle" x="1319" y="-505.8" font-family="Helvetica,sans-Serif" font-size="10.00" fill="grey"> quantify</text>
</g>
<!-- Node19 -->
<g id="Node000019" class="node">
<title>Node19</title>
<g id="a_Node000019"><a xlink:href="structadiar_1_1statistics_1_1quantify__t_1_1nested__transposition__t.html" target="_top" xlink:title="Transposition algorithms prior to nested multi&#45;variable sweeping.">
<polygon fill="white" stroke="#666666" points="1005,-493.8 823,-493.8 823,-463.8 1005,-463.8 1005,-493.8"/>
<text text-anchor="start" x="831" y="-481.8" font-family="Helvetica,sans-Serif" font-size="10.00">adiar::statistics::</text>
<text text-anchor="middle" x="914" y="-470.8" font-family="Helvetica,sans-Serif" font-size="10.00">quantify_t::nested_transposition_t</text>
</a>
</g>
</g>
<!-- Node19&#45;&gt;Node18 -->
<g id="edge27_Node000018_Node000019" class="edge">
<title>Node19&#45;&gt;Node18</title>
<g id="a_edge27_Node000018_Node000019"><a xlink:title=" ">
<path fill="none" stroke="#9a32cd" stroke-dasharray="5,2" d="M1015.16,-484.69C1051.1,-487.1 1091.9,-490.18 1129,-493.8 1136.65,-494.54 1144.74,-495.44 1152.63,-496.38"/>
<polygon fill="#9a32cd" stroke="#9a32cd" points="1015.37,-481.19 1005.16,-484.02 1014.9,-488.18 1015.37,-481.19"/>
</a>
</g>
<text text-anchor="middle" x="1076" y="-496.8" font-family="Helvetica,sans-Serif" font-size="10.00" fill="grey"> nested_transposition</text>
</g>
<!-- Node20 -->
<g id="Node000020" class="node">
<title>Node20</title>
<g id="a_Node000020"><a xlink:href="structadiar_1_1statistics_1_1quantify__t_1_1nested__policy__t.html" target="_top" xlink:title="Nested multi&#45;variable sweeping.">
<polygon fill="white" stroke="#666666" points="988,-541.8 840,-541.8 840,-511.8 988,-511.8 988,-541.8"/>
<text text-anchor="start" x="848" y="-529.8" font-family="Helvetica,sans-Serif" font-size="10.00">adiar::statistics::</text>
<text text-anchor="middle" x="914" y="-518.8" font-family="Helvetica,sans-Serif" font-size="10.00">quantify_t::nested_policy_t</text>
</a>
</g>
</g>
<!-- Node20&#45;&gt;Node18 -->
<g id="edge28_Node000018_Node000020" class="edge">
<title>Node20&#45;&gt;Node18</title>
<g id="a_edge28_Node000018_Node000020"><a xlink:title=" ">
<path fill="none" stroke="#9a32cd" stroke-dasharray="5,2" d="M998.45,-519.79C1048.55,-515.59 1110.51,-510.39 1152.62,-506.86"/>
<polygon fill="#9a32cd" stroke="#9a32cd" points="997.95,-516.32 988.28,-520.65 998.54,-523.3 997.95,-516.32"/>
</a>
</g>
<text text-anchor="middle" x="1076" y="-519.8" font-family="Helvetica,sans-Serif" font-size="10.00" fill="grey"> nested_policy</text>
</g>
<!-- Node21&#45;&gt;Node1 -->
<g id="edge29_Node000001_Node000021" class="edge">
<title>Node21&#45;&gt;Node1</title>
<g id="a_edge29_Node000001_Node000021"><a xlink:title=" ">
<path fill="none" stroke="#9a32cd" stroke-dasharray="5,2" d="M814.91,-549.58C817.63,-550.05 820.34,-550.46 823,-550.8 1061.54,-581.02 1125.73,-556.78 1363,-517.8 1371.76,-516.36 1381.12,-514.38 1389.87,-512.33"/>
<polygon fill="#9a32cd" stroke="#9a32cd" points="815.51,-546.13 805.03,-547.66 814.18,-553 815.51,-546.13"/>
</a>
</g>
<text text-anchor="middle" x="1076" y="-566.8" font-family="Helvetica,sans-Serif" font-size="10.00" fill="grey"> select</text>
</g>
<!-- Node22&#45;&gt;Node1 -->
<g id="edge31_Node000001_Node000022" class="edge">
<title>Node22&#45;&gt;Node1</title>
<g id="a_edge31_Node000001_Node000022"><a xlink:title=" ">
<path fill="none" stroke="#9a32cd" stroke-dasharray="5,2" d="M677.18,-328.15C717.61,-317.38 773.12,-304.36 823,-298.8 958.61,-283.66 998.08,-285.34 1129,-323.8 1238.02,-355.82 1274.02,-356.13 1363,-426.8 1387.69,-446.41 1409.44,-477.09 1419.71,-492.8"/>
<polygon fill="#9a32cd" stroke="#9a32cd" points="676.25,-324.78 667.5,-330.77 678.07,-331.54 676.25,-324.78"/>
</a>
</g>
<text text-anchor="middle" x="1076" y="-326.8" font-family="Helvetica,sans-Serif" font-size="10.00" fill="grey"> reduce</text>
</g>
<!-- Node25 -->
<g id="Node000025" class="node">
<title>Node25</title>
<g id="a_Node000025"><a xlink:href="structadiar_1_1statistics_1_1nested__sweeping__t_1_1outer__up__t.html" target="_top" xlink:title="Outer Reduce Sweep.">
<polygon fill="white" stroke="#666666" points="998,-337.8 830,-337.8 830,-307.8 998,-307.8 998,-337.8"/>
<text text-anchor="start" x="838" y="-325.8" font-family="Helvetica,sans-Serif" font-size="10.00">adiar::statistics::</text>
<text text-anchor="middle" x="914" y="-314.8" font-family="Helvetica,sans-Serif" font-size="10.00">nested_sweeping_t::outer_up_t</text>
</a>
</g>
</g>
<!-- Node22&#45;&gt;Node25 -->
<g id="edge36_Node000025_Node000022" class="edge">
<title>Node22&#45;&gt;Node25</title>
<g id="a_edge36_Node000025_Node000022"><a xlink:title=" ">
<path fill="none" stroke="#63b8ff" d="M677.76,-340.43C721.24,-337.17 781.27,-332.67 829.8,-329.03"/>
<polygon fill="#63b8ff" stroke="#63b8ff" points="677.35,-336.95 667.64,-341.19 677.87,-343.93 677.35,-336.95"/>
</a>
</g>
</g>
<!-- Node29 -->
<g id="Node000029" class="node">
<title>Node29</title>
<g id="a_Node000029"><a xlink:href="structadiar_1_1statistics_1_1nested__sweeping__t_1_1inner__up__t.html" target="_top" xlink:title="Inner Up Sweep(s)">
<polygon fill="white" stroke="#666666" points="997.5,-385.8 830.5,-385.8 830.5,-355.8 997.5,-355.8 997.5,-385.8"/>
<text text-anchor="start" x="838.5" y="-373.8" font-family="Helvetica,sans-Serif" font-size="10.00">adiar::statistics::</text>
<text text-anchor="middle" x="914" y="-362.8" font-family="Helvetica,sans-Serif" font-size="10.00">nested_sweeping_t::inner_up_t</text>
</a>
</g>
</g>
<!-- Node22&#45;&gt;Node29 -->
<g id="edge41_Node000029_Node000022" class="edge">
<title>Node22&#45;&gt;Node29</title>
<g id="a_edge41_Node000029_Node000022"><a xlink:title=" ">
<path fill="none" stroke="#63b8ff" d="M677.8,-349.96C721.45,-353.83 781.76,-359.17 830.38,-363.48"/>
<polygon fill="#63b8ff" stroke="#63b8ff" points="677.91,-346.46 667.64,-349.06 677.29,-353.43 677.91,-346.46"/>
</a>
</g>
</g>
<!-- Node23 -->
<g id="Node000023" class="node">
<title>Node23</title>
<g id="a_Node000023"><a xlink:href="structadiar_1_1statistics_1_1replace__t.html" target="_top" xlink:title="Variable replacement statistics.">
<polygon fill="white" stroke="#666666" points="1251,-137.8 1153,-137.8 1153,-107.8 1251,-107.8 1251,-137.8"/>
<text text-anchor="start" x="1161" y="-125.8" font-family="Helvetica,sans-Serif" font-size="10.00">adiar::statistics::</text>
<text text-anchor="middle" x="1202" y="-114.8" font-family="Helvetica,sans-Serif" font-size="10.00">replace_t</text>
</a>
</g>
</g>
<!-- Node23&#45;&gt;Node1 -->
<g id="edge33_Node000001_Node000023" class="edge">
<title>Node23&#45;&gt;Node1</title>
<g id="a_edge33_Node000001_Node000023"><a xlink:title=" ">
<path fill="none" stroke="#9a32cd" stroke-dasharray="5,2" d="M1261.51,-113.5C1295.38,-111.6 1336.44,-115.79 1363,-140.8 1416.18,-190.86 1424.63,-441.02 1425.82,-493.24"/>
<polygon fill="#9a32cd" stroke="#9a32cd" points="1260.96,-110.04 1251.25,-114.27 1261.48,-117.02 1260.96,-110.04"/>
</a>
</g>
<text text-anchor="middle" x="1319" y="-143.8" font-family="Helvetica,sans-Serif" font-size="10.00" fill="grey"> replace</text>
</g>
<!-- Node24 -->
<g id="Node000024" class="node">
<title>Node24</title>
<g id="a_Node000024"><a xlink:href="structadiar_1_1statistics_1_1nested__sweeping__t.html" target="_top" xlink:title="Nested Sweeping statistics.">
<polygon fill="white" stroke="#666666" points="1257,-412.8 1147,-412.8 1147,-382.8 1257,-382.8 1257,-412.8"/>
<text text-anchor="start" x="1155" y="-400.8" font-family="Helvetica,sans-Serif" font-size="10.00">adiar::statistics::</text>
<text text-anchor="middle" x="1202" y="-389.8" font-family="Helvetica,sans-Serif" font-size="10.00">nested_sweeping_t</text>
</a>
</g>
</g>
<!-- Node24&#45;&gt;Node1 -->
<g id="edge34_Node000001_Node000024" class="edge">
<title>Node24&#45;&gt;Node1</title>
<g id="a_edge34_Node000001_Node000024"><a xlink:title=" ">
<path fill="none" stroke="#9a32cd" stroke-dasharray="5,2" d="M1244.12,-417.16C1292.04,-439.72 1369.29,-476.09 1405.73,-493.25"/>
<polygon fill="#9a32cd" stroke="#9a32cd" points="1245.49,-413.93 1234.95,-412.84 1242.51,-420.27 1245.49,-413.93"/>
</a>
</g>
<text text-anchor="middle" x="1319" y="-473.8" font-family="Helvetica,sans-Serif" font-size="10.00" fill="grey"> nested_sweeping</text>
</g>
<!-- Node25&#45;&gt;Node24 -->
<g id="edge35_Node000024_Node000025" class="edge">
<title>Node25&#45;&gt;Node24</title>
<g id="a_edge35_Node000024_Node000025"><a xlink:title=" ">
<path fill="none" stroke="#9a32cd" stroke-dasharray="5,2" d="M1008.24,-336.17C1046.21,-342.88 1090.21,-352.3 1129,-364.8 1143.66,-369.52 1159.27,-376.43 1172.2,-382.7"/>
<polygon fill="#9a32cd" stroke="#9a32cd" points="1008.66,-332.69 998.21,-334.43 1007.47,-339.59 1008.66,-332.69"/>
</a>
</g>
<text text-anchor="middle" x="1076" y="-367.8" font-family="Helvetica,sans-Serif" font-size="10.00" fill="grey"> outer_up</text>
</g>
<!-- Node26 -->
<g id="Node000026" class="node">
<title>Node26</title>
<g id="a_Node000026"><a xlink:href="structadiar_1_1statistics_1_1nested__sweeping__t_1_1inner__down__t.html" target="_top" xlink:title="Root Requests generated for Inner Down Sweep.">
<polygon fill="white" stroke="#666666" points="984.5,-445.3 843.5,-445.3 843.5,-404.3 984.5,-404.3 984.5,-445.3"/>
<text text-anchor="start" x="851.5" y="-433.3" font-family="Helvetica,sans-Serif" font-size="10.00">adiar::statistics::</text>
<text text-anchor="start" x="851.5" y="-422.3" font-family="Helvetica,sans-Serif" font-size="10.00">nested_sweeping_t::inner</text>
<text text-anchor="middle" x="914" y="-411.3" font-family="Helvetica,sans-Serif" font-size="10.00">_down_t</text>
</a>
</g>
</g>
<!-- Node26&#45;&gt;Node24 -->
<g id="edge37_Node000024_Node000026" class="edge">
<title>Node26&#45;&gt;Node24</title>
<g id="a_edge37_Node000024_Node000026"><a xlink:title=" ">
<path fill="none" stroke="#9a32cd" stroke-dasharray="5,2" d="M994.75,-417.27C1043.25,-412.69 1103.9,-406.96 1146.85,-402.91"/>
<polygon fill="#9a32cd" stroke="#9a32cd" points="994.22,-413.8 984.6,-418.23 994.88,-420.77 994.22,-413.8"/>
</a>
</g>
<text text-anchor="middle" x="1076" y="-416.8" font-family="Helvetica,sans-Serif" font-size="10.00" fill="grey"> inner_down</text>
</g>
<!-- Node27 -->
<g id="Node000027" class="node">
<title>Node27</title>
<g id="a_Node000027"><a xlink:href="structadiar_1_1statistics_1_1nested__sweeping__t_1_1inner__down__t_1_1inputs__t.html" target="_top" xlink:title=" ">
<polygon fill="white" stroke="#bfbfbf" points="689,-480.3 548,-480.3 548,-439.3 689,-439.3 689,-480.3"/>
<text text-anchor="start" x="556" y="-468.3" font-family="Helvetica,sans-Serif" font-size="10.00">adiar::statistics::</text>
<text text-anchor="start" x="556" y="-457.3" font-family="Helvetica,sans-Serif" font-size="10.00">nested_sweeping_t::inner</text>
<text text-anchor="middle" x="618.5" y="-446.3" font-family="Helvetica,sans-Serif" font-size="10.00">_down_t::inputs_t</text>
</a>
</g>
</g>
<!-- Node27&#45;&gt;Node26 -->
<g id="edge38_Node000026_Node000027" class="edge">
<title>Node27&#45;&gt;Node26</title>
<g id="a_edge38_Node000026_Node000027"><a xlink:title=" ">
<path fill="none" stroke="#9a32cd" stroke-dasharray="5,2" d="M699.09,-450.3C744.2,-444.93 800.1,-438.26 843.44,-433.09"/>
<polygon fill="#9a32cd" stroke="#9a32cd" points="698.57,-446.84 689.06,-451.5 699.4,-453.79 698.57,-446.84"/>
</a>
</g>
<text text-anchor="middle" x="756" y="-450.8" font-family="Helvetica,sans-Serif" font-size="10.00" fill="grey"> inputs</text>
</g>
<!-- Node28 -->
<g id="Node000028" class="node">
<title>Node28</title>
<g id="a_Node000028"><a xlink:href="structadiar_1_1statistics_1_1nested__sweeping__t_1_1inner__down__t_1_1requests__t.html" target="_top" xlink:title=" ">
<polygon fill="white" stroke="#bfbfbf" points="689,-421.3 548,-421.3 548,-380.3 689,-380.3 689,-421.3"/>
<text text-anchor="start" x="556" y="-409.3" font-family="Helvetica,sans-Serif" font-size="10.00">adiar::statistics::</text>
<text text-anchor="start" x="556" y="-398.3" font-family="Helvetica,sans-Serif" font-size="10.00">nested_sweeping_t::inner</text>
<text text-anchor="middle" x="618.5" y="-387.3" font-family="Helvetica,sans-Serif" font-size="10.00">_down_t::requests_t</text>
</a>
</g>
</g>
<!-- Node28&#45;&gt;Node26 -->
<g id="edge39_Node000026_Node000028" class="edge">
<title>Node28&#45;&gt;Node26</title>
<g id="a_edge39_Node000026_Node000028"><a xlink:title=" ">
<path fill="none" stroke="#9a32cd" stroke-dasharray="5,2" d="M699.09,-407.3C744.2,-410.99 800.1,-415.56 843.44,-419.11"/>
<polygon fill="#9a32cd" stroke="#9a32cd" points="699.31,-403.81 689.06,-406.48 698.74,-410.79 699.31,-403.81"/>
</a>
</g>
<text text-anchor="middle" x="756" y="-417.8" font-family="Helvetica,sans-Serif" font-size="10.00" fill="grey"> requests</text>
</g>
<!-- Node29&#45;&gt;Node24 -->
<g id="edge40_Node000024_Node000029" class="edge">
<title>Node29&#45;&gt;Node24</title>
<g id="a_edge40_Node000024_Node000029"><a xlink:title=" ">
<path fill="none" stroke="#9a32cd" stroke-dasharray="5,2" d="M1008.04,-378.61C1045.62,-381.88 1089.39,-385.84 1129,-389.8 1134.76,-390.37 1140.77,-391 1146.76,-391.64"/>
<polygon fill="#9a32cd" stroke="#9a32cd" points="1007.87,-375.08 997.61,-377.7 1007.27,-382.05 1007.87,-375.08"/>
</a>
</g>
<text text-anchor="middle" x="1076" y="-392.8" font-family="Helvetica,sans-Serif" font-size="10.00" fill="grey"> inner_up</text>
</g>
</g>
</svg>
