<?xml version="1.0" encoding="UTF-8" standalone="no"?>
<!DOCTYPE svg PUBLIC "-//W3C//DTD SVG 1.1//EN"
 "http://www.w3.org/Graphics/SVG/1.1/DTD/svg11.dtd">
<!-- Generated by graphviz version 2.43.0 (0)
 -->
<!-- Title: adiar::statistics Pages: 1 -->
<svg width="1515pt" height="665pt"
 viewBox="0.00 0.00 1515.00 664.50" xmlns="http://www.w3.org/2000/svg" xmlns:xlink="http://www.w3.org/1999/xlink">
<g id="graph0" class="graph" transform="scale(1 1) rotate(0) translate(4 660.5)">
<title>adiar::statistics</title>
<!-- Node1 -->
<g id="node1" class="node">
<title>Node1</title>
<g id="a_node1"><a xlink:title="Available statistics from algorithm&#39;s and data structures.">
<polygon fill="#bfbfbf" stroke="black" points="1415,-317 1415,-336 1507,-336 1507,-317 1415,-317"/>
<text text-anchor="middle" x="1461" y="-324" font-family="Helvetica,sans-Serif" font-size="10.00">adiar::statistics</text>
</a>
</g>
</g>
<!-- Node2 -->
<g id="node2" class="node">
<title>Node2</title>
<g id="a_node2"><a xlink:href="structadiar_1_1statistics_1_1intercut__t.html" target="_top" xlink:title="Intercut algorithm statistics.">
<polygon fill="none" stroke="black" points="763,-293.5 763,-323.5 861,-323.5 861,-293.5 763,-293.5"/>
<text text-anchor="start" x="771" y="-311.5" font-family="Helvetica,sans-Serif" font-size="10.00">adiar::statistics::</text>
<text text-anchor="middle" x="812" y="-300.5" font-family="Helvetica,sans-Serif" font-size="10.00">intercut_t</text>
</a>
</g>
</g>
<!-- Node2&#45;&gt;Node1 -->
<g id="edge1" class="edge">
<title>Node2&#45;&gt;Node1</title>
<path fill="none" stroke="#9a32cd" stroke-dasharray="5,2" d="M871.43,-309.09C940.93,-309.88 1060.44,-311.55 1163,-314.5 1252.37,-317.07 1356.8,-321.66 1414.98,-324.36"/>
<polygon fill="#9a32cd" stroke="#9a32cd" points="871.17,-305.58 861.13,-308.97 871.09,-312.58 871.17,-305.58"/>
<text text-anchor="middle" x="1114" y="-317.5" font-family="Helvetica,sans-Serif" font-size="10.00"> intercut</text>
</g>
<!-- Node3 -->
<g id="node3" class="node">
<title>Node3</title>
<g id="a_node3"><a xlink:href="structadiar_1_1statistics_1_1____alg__base.html" target="_top" xlink:title="Common statistics for all algorithms.">
<polygon fill="none" stroke="black" points="374,-310.5 374,-340.5 472,-340.5 472,-310.5 374,-310.5"/>
<text text-anchor="start" x="382" y="-328.5" font-family="Helvetica,sans-Serif" font-size="10.00">adiar::statistics::</text>
<text text-anchor="middle" x="423" y="-317.5" font-family="Helvetica,sans-Serif" font-size="10.00">__alg_base</text>
</a>
</g>
</g>
<!-- Node3&#45;&gt;Node2 -->
<g id="edge2" class="edge">
<title>Node3&#45;&gt;Node2</title>
<path fill="none" stroke="midnightblue" d="M482.65,-322.92C559.2,-319.56 691.75,-313.74 762.77,-310.62"/>
<polygon fill="midnightblue" stroke="midnightblue" points="482.07,-319.45 472.23,-323.38 482.38,-326.44 482.07,-319.45"/>
</g>
<!-- Node6 -->
<g id="node6" class="node">
<title>Node6</title>
<g id="a_node6"><a xlink:href="structadiar_1_1statistics_1_1select__t.html" target="_top" xlink:title="Select algorithm statistics.">
<polygon fill="none" stroke="black" points="1065,-614.5 1065,-644.5 1163,-644.5 1163,-614.5 1065,-614.5"/>
<text text-anchor="start" x="1073" y="-632.5" font-family="Helvetica,sans-Serif" font-size="10.00">adiar::statistics::</text>
<text text-anchor="middle" x="1114" y="-621.5" font-family="Helvetica,sans-Serif" font-size="10.00">select_t</text>
</a>
</g>
</g>
<!-- Node3&#45;&gt;Node6 -->
<g id="edge6" class="edge">
<title>Node3&#45;&gt;Node6</title>
<path fill="none" stroke="midnightblue" d="M432.28,-349.98C451.98,-403.7 507.35,-530.82 604,-577.5 758.97,-652.35 970.92,-643.69 1064.84,-635.05"/>
<polygon fill="midnightblue" stroke="midnightblue" points="435.57,-348.79 428.91,-340.55 428.98,-351.15 435.57,-348.79"/>
</g>
<!-- Node8 -->
<g id="node8" class="node">
<title>Node8</title>
<g id="a_node8"><a xlink:href="structadiar_1_1statistics_1_1prod2__t.html" target="_top" xlink:title="2&#45;ary Product Construction algorithm statistics.">
<polygon fill="none" stroke="black" points="625.5,-184.5 625.5,-214.5 723.5,-214.5 723.5,-184.5 625.5,-184.5"/>
<text text-anchor="start" x="633.5" y="-202.5" font-family="Helvetica,sans-Serif" font-size="10.00">adiar::statistics::</text>
<text text-anchor="middle" x="674.5" y="-191.5" font-family="Helvetica,sans-Serif" font-size="10.00">prod2_t</text>
</a>
</g>
</g>
<!-- Node3&#45;&gt;Node8 -->
<g id="edge9" class="edge">
<title>Node3&#45;&gt;Node8</title>
<path fill="none" stroke="midnightblue" d="M471.52,-306.69C485.52,-301.15 500.88,-295.08 515,-289.5 546.55,-277.04 558.14,-280.84 586,-261.5 595.82,-254.68 594.78,-249.12 604,-241.5 616.28,-231.35 631.26,-221.98 644.16,-214.67"/>
<polygon fill="midnightblue" stroke="midnightblue" points="470.08,-303.49 462.07,-310.43 472.66,-310 470.08,-303.49"/>
</g>
<!-- Node13 -->
<g id="node13" class="node">
<title>Node13</title>
<g id="a_node13"><a xlink:href="structadiar_1_1statistics_1_1reduce__t.html" target="_top" xlink:title="Reduce algorithm statistics.">
<polygon fill="none" stroke="black" points="625.5,-537.5 625.5,-567.5 723.5,-567.5 723.5,-537.5 625.5,-537.5"/>
<text text-anchor="start" x="633.5" y="-555.5" font-family="Helvetica,sans-Serif" font-size="10.00">adiar::statistics::</text>
<text text-anchor="middle" x="674.5" y="-544.5" font-family="Helvetica,sans-Serif" font-size="10.00">reduce_t</text>
</a>
</g>
</g>
<!-- Node3&#45;&gt;Node13 -->
<g id="edge15" class="edge">
<title>Node3&#45;&gt;Node13</title>
<path fill="none" stroke="midnightblue" d="M439.16,-349.16C466.99,-390.85 530.21,-477.65 604,-527.5 610.48,-531.88 617.82,-535.59 625.24,-538.7"/>
<polygon fill="midnightblue" stroke="midnightblue" points="442.04,-347.17 433.61,-340.75 436.19,-351.03 442.04,-347.17"/>
</g>
<!-- Node18 -->
<g id="node18" class="node">
<title>Node18</title>
<g id="a_node18"><a xlink:href="structadiar_1_1statistics_1_1quantify__t.html" target="_top" xlink:title="Quantification algorithm statistics.">
<polygon fill="none" stroke="black" points="625.5,-250.5 625.5,-280.5 723.5,-280.5 723.5,-250.5 625.5,-250.5"/>
<text text-anchor="start" x="633.5" y="-268.5" font-family="Helvetica,sans-Serif" font-size="10.00">adiar::statistics::</text>
<text text-anchor="middle" x="674.5" y="-257.5" font-family="Helvetica,sans-Serif" font-size="10.00">quantify_t</text>
</a>
</g>
</g>
<!-- Node3&#45;&gt;Node18 -->
<g id="edge22" class="edge">
<title>Node3&#45;&gt;Node18</title>
<path fill="none" stroke="midnightblue" d="M481.96,-311.56C525.41,-301.11 584.18,-286.98 625.12,-277.14"/>
<polygon fill="midnightblue" stroke="midnightblue" points="481.01,-308.19 472.11,-313.93 482.65,-315 481.01,-308.19"/>
</g>
<!-- Node20 -->
<g id="node20" class="node">
<title>Node20</title>
<g id="a_node20"><a xlink:href="structadiar_1_1statistics_1_1prod3__t.html" target="_top" xlink:title="3&#45;ary Product Construction algorithm statistics.">
<polygon fill="none" stroke="black" points="763,-373.5 763,-403.5 861,-403.5 861,-373.5 763,-373.5"/>
<text text-anchor="start" x="771" y="-391.5" font-family="Helvetica,sans-Serif" font-size="10.00">adiar::statistics::</text>
<text text-anchor="middle" x="812" y="-380.5" font-family="Helvetica,sans-Serif" font-size="10.00">prod3_t</text>
</a>
</g>
</g>
<!-- Node3&#45;&gt;Node20 -->
<g id="edge25" class="edge">
<title>Node3&#45;&gt;Node20</title>
<path fill="none" stroke="midnightblue" d="M461.71,-344.92C477.73,-352.3 496.87,-360.01 515,-364.5 600.45,-385.67 703.6,-389.28 762.82,-389.33"/>
<polygon fill="midnightblue" stroke="midnightblue" points="463.21,-341.75 452.67,-340.64 460.21,-348.08 463.21,-341.75"/>
</g>
<!-- Node21 -->
<g id="node21" class="node">
<title>Node21</title>
<g id="a_node21"><a xlink:href="structadiar_1_1statistics_1_1equality__t.html" target="_top" xlink:title="Equality Checking algorithm statistics.">
<polygon fill="none" stroke="black" points="625.5,-48.5 625.5,-78.5 723.5,-78.5 723.5,-48.5 625.5,-48.5"/>
<text text-anchor="start" x="633.5" y="-66.5" font-family="Helvetica,sans-Serif" font-size="10.00">adiar::statistics::</text>
<text text-anchor="middle" x="674.5" y="-55.5" font-family="Helvetica,sans-Serif" font-size="10.00">equality_t</text>
</a>
</g>
</g>
<!-- Node3&#45;&gt;Node21 -->
<g id="edge28" class="edge">
<title>Node3&#45;&gt;Node21</title>
<path fill="none" stroke="midnightblue" d="M462.36,-305.15C474.16,-297.91 486.74,-289.15 497,-279.5 506.98,-270.12 505.36,-264.22 515,-254.5 542.55,-226.73 565.52,-235.82 586,-202.5 611.71,-160.67 573.76,-132.18 604,-93.5 609.58,-86.36 617.21,-80.88 625.36,-76.7"/>
<polygon fill="midnightblue" stroke="midnightblue" points="460.37,-302.26 453.54,-310.36 463.93,-308.29 460.37,-302.26"/>
</g>
<!-- Node24 -->
<g id="node24" class="node">
<title>Node24</title>
<g id="a_node24"><a xlink:href="structadiar_1_1statistics_1_1count__t.html" target="_top" xlink:title="Counting algorithm statistics.">
<polygon fill="none" stroke="black" points="1065,-334.5 1065,-364.5 1163,-364.5 1163,-334.5 1065,-334.5"/>
<text text-anchor="start" x="1073" y="-352.5" font-family="Helvetica,sans-Serif" font-size="10.00">adiar::statistics::</text>
<text text-anchor="middle" x="1114" y="-341.5" font-family="Helvetica,sans-Serif" font-size="10.00">count_t</text>
</a>
</g>
</g>
<!-- Node3&#45;&gt;Node24 -->
<g id="edge32" class="edge">
<title>Node3&#45;&gt;Node24</title>
<path fill="none" stroke="midnightblue" d="M482.37,-331.16C493.21,-332.06 504.44,-332.9 515,-333.5 719.26,-345.2 963.27,-348.37 1064.9,-349.21"/>
<polygon fill="midnightblue" stroke="midnightblue" points="482.39,-327.65 472.13,-330.28 481.8,-334.63 482.39,-327.65"/>
</g>
<!-- Node4 -->
<g id="node4" class="node">
<title>Node4</title>
<g id="a_node4"><a xlink:href="structadiar_1_1statistics_1_1____alg__base_1_1____lpq__t.html" target="_top" xlink:title="Type and usage of this algorithm&#39;s levelized priority queue.">
<polygon fill="none" stroke="black" points="183,-225.5 183,-255.5 294,-255.5 294,-225.5 183,-225.5"/>
<text text-anchor="start" x="191" y="-243.5" font-family="Helvetica,sans-Serif" font-size="10.00">adiar::statistics::</text>
<text text-anchor="middle" x="238.5" y="-232.5" font-family="Helvetica,sans-Serif" font-size="10.00">__alg_base::__lpq_t</text>
</a>
</g>
</g>
<!-- Node4&#45;&gt;Node3 -->
<g id="edge3" class="edge">
<title>Node4&#45;&gt;Node3</title>
<path fill="none" stroke="#9a32cd" stroke-dasharray="5,2" d="M281.06,-259.86C313.95,-275.17 359.23,-296.26 389.5,-310.36"/>
<polygon fill="#9a32cd" stroke="#9a32cd" points="282.25,-256.55 271.71,-255.5 279.29,-262.9 282.25,-256.55"/>
<text text-anchor="middle" x="321.5" y="-285.5" font-family="Helvetica,sans-Serif" font-size="10.00"> lpq</text>
</g>
<!-- Node5 -->
<g id="node5" class="node">
<title>Node5</title>
<g id="a_node5"><a xlink:href="structadiar_1_1statistics_1_1levelized__priority__queue__t.html" target="_top" xlink:title="Levelized Priority Queue statistics.">
<polygon fill="none" stroke="black" points="0,-109.5 0,-139.5 146,-139.5 146,-109.5 0,-109.5"/>
<text text-anchor="start" x="8" y="-127.5" font-family="Helvetica,sans-Serif" font-size="10.00">adiar::statistics::</text>
<text text-anchor="middle" x="73" y="-116.5" font-family="Helvetica,sans-Serif" font-size="10.00">levelized_priority_queue_t</text>
</a>
</g>
</g>
<!-- Node5&#45;&gt;Node1 -->
<g id="edge33" class="edge">
<title>Node5&#45;&gt;Node1</title>
<path fill="none" stroke="#9a32cd" stroke-dasharray="5,2" d="M156.53,-122.84C292.8,-120.23 573.42,-115.5 811,-115.5 811,-115.5 811,-115.5 1237,-115.5 1355.86,-115.5 1436.86,-275.61 1455.76,-316.89"/>
<polygon fill="#9a32cd" stroke="#9a32cd" points="156.11,-119.34 146.18,-123.03 156.24,-126.34 156.11,-119.34"/>
<text text-anchor="start" x="630.5" y="-130.5" font-family="Helvetica,sans-Serif" font-size="10.00"> levelized_priority</text>
<text text-anchor="middle" x="674.5" y="-119.5" font-family="Helvetica,sans-Serif" font-size="10.00">_queue</text>
</g>
<!-- Node5&#45;&gt;Node4 -->
<g id="edge4" class="edge">
<title>Node5&#45;&gt;Node4</title>
<path fill="none" stroke="midnightblue" d="M103.6,-145.5C136.06,-168.53 187.35,-204.92 216.12,-225.33"/>
<polygon fill="midnightblue" stroke="midnightblue" points="105.56,-142.6 95.37,-139.66 101.51,-148.31 105.56,-142.6"/>
</g>
<!-- Node6&#45;&gt;Node1 -->
<g id="edge5" class="edge">
<title>Node6&#45;&gt;Node1</title>
<path fill="none" stroke="#9a32cd" stroke-dasharray="5,2" d="M1173.45,-641.23C1236.55,-650.26 1336.17,-653.39 1397,-599.5 1437.87,-563.29 1455.51,-380.64 1459.23,-336.24"/>
<polygon fill="#9a32cd" stroke="#9a32cd" points="1173.67,-637.73 1163.26,-639.68 1172.62,-644.65 1173.67,-637.73"/>
<text text-anchor="middle" x="1236" y="-648.5" font-family="Helvetica,sans-Serif" font-size="10.00"> select</text>
</g>
<!-- Node7 -->
<g id="node7" class="node">
<title>Node7</title>
<g id="a_node7"><a xlink:href="structadiar_1_1statistics_1_1arc__file__t.html" target="_top" xlink:title="Arc Files statistics.">
<polygon fill="none" stroke="black" points="1187,-417.5 1187,-447.5 1285,-447.5 1285,-417.5 1187,-417.5"/>
<text text-anchor="start" x="1195" y="-435.5" font-family="Helvetica,sans-Serif" font-size="10.00">adiar::statistics::</text>
<text text-anchor="middle" x="1236" y="-424.5" font-family="Helvetica,sans-Serif" font-size="10.00">arc_file_t</text>
</a>
</g>
</g>
<!-- Node7&#45;&gt;Node1 -->
<g id="edge7" class="edge">
<title>Node7&#45;&gt;Node1</title>
<path fill="none" stroke="#9a32cd" stroke-dasharray="5,2" d="M1295.23,-431.11C1327.15,-428.1 1366.34,-420.55 1397,-402.5 1424.91,-386.07 1445.95,-352.47 1455.05,-336.02"/>
<polygon fill="#9a32cd" stroke="#9a32cd" points="1294.82,-427.64 1285.14,-431.94 1295.39,-434.61 1294.82,-427.64"/>
<text text-anchor="middle" x="1353" y="-431.5" font-family="Helvetica,sans-Serif" font-size="10.00"> arc_file</text>
</g>
<!-- Node8&#45;&gt;Node1 -->
<g id="edge8" class="edge">
<title>Node8&#45;&gt;Node1</title>
<path fill="none" stroke="#9a32cd" stroke-dasharray="5,2" d="M733.57,-203.02C857.35,-211.55 1155.55,-237.5 1397,-301.5 1411.56,-305.36 1427.31,-311.61 1439.42,-316.89"/>
<polygon fill="#9a32cd" stroke="#9a32cd" points="733.76,-199.53 723.55,-202.34 733.29,-206.51 733.76,-199.53"/>
<text text-anchor="middle" x="1114" y="-253.5" font-family="Helvetica,sans-Serif" font-size="10.00"> prod2</text>
</g>
<!-- Node9 -->
<g id="node9" class="node">
<title>Node9</title>
<g id="a_node9"><a xlink:href="structadiar_1_1statistics_1_1prod2__t_1_1ra__t.html" target="_top" xlink:title="Statistics for the double priority queue implementation.">
<polygon fill="none" stroke="black" points="374,-141.5 374,-171.5 472,-171.5 472,-141.5 374,-141.5"/>
<text text-anchor="start" x="382" y="-159.5" font-family="Helvetica,sans-Serif" font-size="10.00">adiar::statistics::</text>
<text text-anchor="middle" x="423" y="-148.5" font-family="Helvetica,sans-Serif" font-size="10.00">prod2_t::ra_t</text>
</a>
</g>
</g>
<!-- Node9&#45;&gt;Node8 -->
<g id="edge10" class="edge">
<title>Node9&#45;&gt;Node8</title>
<path fill="none" stroke="#9a32cd" stroke-dasharray="5,2" d="M481.96,-166.49C525.41,-173.98 584.18,-184.11 625.12,-191.16"/>
<polygon fill="#9a32cd" stroke="#9a32cd" points="482.56,-163.04 472.11,-164.79 481.37,-169.94 482.56,-163.04"/>
<text text-anchor="middle" x="550.5" y="-187.5" font-family="Helvetica,sans-Serif" font-size="10.00"> ra</text>
</g>
<!-- Node10 -->
<g id="node10" class="node">
<title>Node10</title>
<g id="a_node10"><a xlink:href="structadiar_1_1statistics_1_1prod2__t_1_1pq__t.html" target="_top" xlink:title="Statistics for the double priority queue implementation.">
<polygon fill="none" stroke="black" points="374,-190.5 374,-220.5 472,-220.5 472,-190.5 374,-190.5"/>
<text text-anchor="start" x="382" y="-208.5" font-family="Helvetica,sans-Serif" font-size="10.00">adiar::statistics::</text>
<text text-anchor="middle" x="423" y="-197.5" font-family="Helvetica,sans-Serif" font-size="10.00">prod2_t::pq_t</text>
</a>
</g>
</g>
<!-- Node10&#45;&gt;Node8 -->
<g id="edge11" class="edge">
<title>Node10&#45;&gt;Node8</title>
<path fill="none" stroke="#9a32cd" stroke-dasharray="5,2" d="M482.24,-204.1C525.66,-203.06 584.27,-201.65 625.12,-200.66"/>
<polygon fill="#9a32cd" stroke="#9a32cd" points="482.02,-200.6 472.11,-204.34 482.19,-207.6 482.02,-200.6"/>
<text text-anchor="middle" x="550.5" y="-206.5" font-family="Helvetica,sans-Serif" font-size="10.00"> pq</text>
</g>
<!-- Node11 -->
<g id="node11" class="node">
<title>Node11</title>
<g id="a_node11"><a xlink:href="structadiar_1_1statistics_1_1nested__sweeping__t.html" target="_top" xlink:title="Nested Sweeping statistics.">
<polygon fill="none" stroke="black" points="1181,-471.5 1181,-501.5 1291,-501.5 1291,-471.5 1181,-471.5"/>
<text text-anchor="start" x="1189" y="-489.5" font-family="Helvetica,sans-Serif" font-size="10.00">adiar::statistics::</text>
<text text-anchor="middle" x="1236" y="-478.5" font-family="Helvetica,sans-Serif" font-size="10.00">nested_sweeping_t</text>
</a>
</g>
</g>
<!-- Node11&#45;&gt;Node1 -->
<g id="edge12" class="edge">
<title>Node11&#45;&gt;Node1</title>
<path fill="none" stroke="#9a32cd" stroke-dasharray="5,2" d="M1301.21,-481.19C1332.81,-475.8 1369.83,-465.01 1397,-443.5 1433.54,-414.57 1451.64,-358.45 1457.65,-336.06"/>
<polygon fill="#9a32cd" stroke="#9a32cd" points="1300.51,-477.76 1291.17,-482.76 1301.59,-484.67 1300.51,-477.76"/>
<text text-anchor="middle" x="1353" y="-481.5" font-family="Helvetica,sans-Serif" font-size="10.00"> nested_sweeping</text>
</g>
<!-- Node12 -->
<g id="node12" class="node">
<title>Node12</title>
<g id="a_node12"><a xlink:href="structadiar_1_1statistics_1_1nested__sweeping__t_1_1outer__up__t.html" target="_top" xlink:title="Outer Reduce Sweep.">
<polygon fill="none" stroke="black" points="879,-526.5 879,-556.5 1047,-556.5 1047,-526.5 879,-526.5"/>
<text text-anchor="start" x="887" y="-544.5" font-family="Helvetica,sans-Serif" font-size="10.00">adiar::statistics::</text>
<text text-anchor="middle" x="963" y="-533.5" font-family="Helvetica,sans-Serif" font-size="10.00">nested_sweeping_t::outer_up_t</text>
</a>
</g>
</g>
<!-- Node12&#45;&gt;Node11 -->
<g id="edge13" class="edge">
<title>Node12&#45;&gt;Node11</title>
<path fill="none" stroke="#9a32cd" stroke-dasharray="5,2" d="M1057.24,-525.38C1090.68,-519.28 1128.62,-511.99 1163,-504.5 1168.79,-503.24 1174.83,-501.85 1180.83,-500.42"/>
<polygon fill="#9a32cd" stroke="#9a32cd" points="1056.22,-522.01 1047.01,-527.24 1057.47,-528.9 1056.22,-522.01"/>
<text text-anchor="middle" x="1114" y="-526.5" font-family="Helvetica,sans-Serif" font-size="10.00"> outer_up</text>
</g>
<!-- Node13&#45;&gt;Node1 -->
<g id="edge26" class="edge">
<title>Node13&#45;&gt;Node1</title>
<path fill="none" stroke="#9a32cd" stroke-dasharray="5,2" d="M733.67,-558.14C743.46,-559 753.51,-559.82 763,-560.5 814.49,-564.18 827.39,-565.17 879,-566.5 1111.42,-572.51 1220.36,-644.67 1397,-493.5 1446.68,-450.99 1457.26,-365.11 1459.45,-336.23"/>
<polygon fill="#9a32cd" stroke="#9a32cd" points="733.88,-554.65 723.61,-557.24 733.26,-561.62 733.88,-554.65"/>
<text text-anchor="middle" x="1114" y="-591.5" font-family="Helvetica,sans-Serif" font-size="10.00"> reduce</text>
</g>
<!-- Node13&#45;&gt;Node12 -->
<g id="edge14" class="edge">
<title>Node13&#45;&gt;Node12</title>
<path fill="none" stroke="midnightblue" d="M733.79,-550.26C775.57,-548.66 832.44,-546.47 878.96,-544.69"/>
<polygon fill="midnightblue" stroke="midnightblue" points="733.64,-546.77 723.78,-550.65 733.9,-553.76 733.64,-546.77"/>
</g>
<!-- Node14 -->
<g id="node14" class="node">
<title>Node14</title>
<g id="a_node14"><a xlink:href="structadiar_1_1statistics_1_1nested__sweeping__t_1_1inner__up__t.html" target="_top" xlink:title="Inner Up Sweep(s)">
<polygon fill="none" stroke="black" points="879.5,-477.5 879.5,-507.5 1046.5,-507.5 1046.5,-477.5 879.5,-477.5"/>
<text text-anchor="start" x="887.5" y="-495.5" font-family="Helvetica,sans-Serif" font-size="10.00">adiar::statistics::</text>
<text text-anchor="middle" x="963" y="-484.5" font-family="Helvetica,sans-Serif" font-size="10.00">nested_sweeping_t::inner_up_t</text>
</a>
</g>
</g>
<!-- Node13&#45;&gt;Node14 -->
<g id="edge17" class="edge">
<title>Node13&#45;&gt;Node14</title>
<path fill="none" stroke="midnightblue" d="M733.71,-540.31C778.9,-530.85 841.79,-517.68 890.12,-507.55"/>
<polygon fill="midnightblue" stroke="midnightblue" points="732.85,-536.91 723.78,-542.39 734.28,-543.77 732.85,-536.91"/>
</g>
<!-- Node14&#45;&gt;Node11 -->
<g id="edge16" class="edge">
<title>Node14&#45;&gt;Node11</title>
<path fill="none" stroke="#9a32cd" stroke-dasharray="5,2" d="M1056.88,-490.44C1098.24,-489.53 1145.49,-488.48 1180.93,-487.7"/>
<polygon fill="#9a32cd" stroke="#9a32cd" points="1056.7,-486.95 1046.78,-490.67 1056.86,-493.94 1056.7,-486.95"/>
<text text-anchor="middle" x="1114" y="-492.5" font-family="Helvetica,sans-Serif" font-size="10.00"> inner_up</text>
</g>
<!-- Node15 -->
<g id="node15" class="node">
<title>Node15</title>
<g id="a_node15"><a xlink:href="structadiar_1_1statistics_1_1nested__sweeping__t_1_1inner__down__t.html" target="_top" xlink:title="Root Requests generated for Inner Down Sweep.">
<polygon fill="none" stroke="black" points="892.5,-417 892.5,-458 1033.5,-458 1033.5,-417 892.5,-417"/>
<text text-anchor="start" x="900.5" y="-446" font-family="Helvetica,sans-Serif" font-size="10.00">adiar::statistics::</text>
<text text-anchor="start" x="900.5" y="-435" font-family="Helvetica,sans-Serif" font-size="10.00">nested_sweeping_t::inner</text>
<text text-anchor="middle" x="963" y="-424" font-family="Helvetica,sans-Serif" font-size="10.00">_down_t</text>
</a>
</g>
</g>
<!-- Node15&#45;&gt;Node11 -->
<g id="edge18" class="edge">
<title>Node15&#45;&gt;Node11</title>
<path fill="none" stroke="#9a32cd" stroke-dasharray="5,2" d="M1043.66,-451.17C1080.07,-457.51 1123.75,-465.23 1163,-472.5 1168.76,-473.57 1174.77,-474.7 1180.77,-475.85"/>
<polygon fill="#9a32cd" stroke="#9a32cd" points="1044.04,-447.69 1033.59,-449.42 1042.84,-454.58 1044.04,-447.69"/>
<text text-anchor="middle" x="1114" y="-475.5" font-family="Helvetica,sans-Serif" font-size="10.00"> inner_down</text>
</g>
<!-- Node16 -->
<g id="node16" class="node">
<title>Node16</title>
<g id="a_node16"><a xlink:href="structadiar_1_1statistics_1_1nested__sweeping__t_1_1inner__down__t_1_1inputs__t.html" target="_top" xlink:title=" ">
<polygon fill="none" stroke="black" points="604,-477 604,-518 745,-518 745,-477 604,-477"/>
<text text-anchor="start" x="612" y="-506" font-family="Helvetica,sans-Serif" font-size="10.00">adiar::statistics::</text>
<text text-anchor="start" x="612" y="-495" font-family="Helvetica,sans-Serif" font-size="10.00">nested_sweeping_t::inner</text>
<text text-anchor="middle" x="674.5" y="-484" font-family="Helvetica,sans-Serif" font-size="10.00">_down_t::inputs_t</text>
</a>
</g>
</g>
<!-- Node16&#45;&gt;Node15 -->
<g id="edge19" class="edge">
<title>Node16&#45;&gt;Node15</title>
<path fill="none" stroke="#9a32cd" stroke-dasharray="5,2" d="M755.11,-480.83C798.23,-471.8 851.01,-460.74 892.46,-452.06"/>
<polygon fill="#9a32cd" stroke="#9a32cd" points="754.29,-477.42 745.22,-482.9 755.72,-484.27 754.29,-477.42"/>
<text text-anchor="middle" x="812" y="-480.5" font-family="Helvetica,sans-Serif" font-size="10.00"> inputs</text>
</g>
<!-- Node17 -->
<g id="node17" class="node">
<title>Node17</title>
<g id="a_node17"><a xlink:href="structadiar_1_1statistics_1_1nested__sweeping__t_1_1inner__down__t_1_1requests__t.html" target="_top" xlink:title=" ">
<polygon fill="none" stroke="black" points="604,-417 604,-458 745,-458 745,-417 604,-417"/>
<text text-anchor="start" x="612" y="-446" font-family="Helvetica,sans-Serif" font-size="10.00">adiar::statistics::</text>
<text text-anchor="start" x="612" y="-435" font-family="Helvetica,sans-Serif" font-size="10.00">nested_sweeping_t::inner</text>
<text text-anchor="middle" x="674.5" y="-424" font-family="Helvetica,sans-Serif" font-size="10.00">_down_t::requests_t</text>
</a>
</g>
</g>
<!-- Node17&#45;&gt;Node15 -->
<g id="edge20" class="edge">
<title>Node17&#45;&gt;Node15</title>
<path fill="none" stroke="#9a32cd" stroke-dasharray="5,2" d="M755.38,-437.5C798.45,-437.5 851.1,-437.5 892.46,-437.5"/>
<polygon fill="#9a32cd" stroke="#9a32cd" points="755.22,-434 745.22,-437.5 755.22,-441 755.22,-434"/>
<text text-anchor="middle" x="812" y="-440.5" font-family="Helvetica,sans-Serif" font-size="10.00"> requests</text>
</g>
<!-- Node18&#45;&gt;Node1 -->
<g id="edge21" class="edge">
<title>Node18&#45;&gt;Node1</title>
<path fill="none" stroke="#9a32cd" stroke-dasharray="5,2" d="M734.15,-267.27C857.35,-271.49 1151.93,-284.22 1397,-315.5 1402.84,-316.24 1408.96,-317.15 1414.99,-318.12"/>
<polygon fill="#9a32cd" stroke="#9a32cd" points="733.93,-263.76 723.82,-266.92 733.69,-270.76 733.93,-263.76"/>
<text text-anchor="middle" x="1114" y="-293.5" font-family="Helvetica,sans-Serif" font-size="10.00"> quantify</text>
</g>
<!-- Node19 -->
<g id="node19" class="node">
<title>Node19</title>
<g id="a_node19"><a xlink:href="structadiar_1_1statistics_1_1quantify__t_1_1nested__policy__t.html" target="_top" xlink:title="Nested multi&#45;variable sweeping.">
<polygon fill="none" stroke="black" points="349,-239.5 349,-269.5 497,-269.5 497,-239.5 349,-239.5"/>
<text text-anchor="start" x="357" y="-257.5" font-family="Helvetica,sans-Serif" font-size="10.00">adiar::statistics::</text>
<text text-anchor="middle" x="423" y="-246.5" font-family="Helvetica,sans-Serif" font-size="10.00">quantify_t::nested_policy_t</text>
</a>
</g>
</g>
<!-- Node19&#45;&gt;Node18 -->
<g id="edge23" class="edge">
<title>Node19&#45;&gt;Node18</title>
<path fill="none" stroke="#9a32cd" stroke-dasharray="5,2" d="M507.5,-258.18C546.62,-259.91 591.83,-261.9 625.18,-263.37"/>
<polygon fill="#9a32cd" stroke="#9a32cd" points="507.32,-254.67 497.17,-257.73 507.01,-261.66 507.32,-254.67"/>
<text text-anchor="middle" x="550.5" y="-264.5" font-family="Helvetica,sans-Serif" font-size="10.00"> nested_policy</text>
</g>
<!-- Node20&#45;&gt;Node1 -->
<g id="edge24" class="edge">
<title>Node20&#45;&gt;Node1</title>
<path fill="none" stroke="#9a32cd" stroke-dasharray="5,2" d="M871.25,-385.95C961.34,-381.78 1139.87,-372.63 1291,-359.5 1338.23,-355.4 1350.7,-357.72 1397,-347.5 1409.83,-344.67 1423.73,-340.19 1435.2,-336.1"/>
<polygon fill="#9a32cd" stroke="#9a32cd" points="871.06,-382.45 861.23,-386.41 871.38,-389.44 871.06,-382.45"/>
<text text-anchor="middle" x="1114" y="-378.5" font-family="Helvetica,sans-Serif" font-size="10.00"> prod3</text>
</g>
<!-- Node21&#45;&gt;Node1 -->
<g id="edge27" class="edge">
<title>Node21&#45;&gt;Node1</title>
<path fill="none" stroke="#9a32cd" stroke-dasharray="5,2" d="M733.99,-62.73C896.64,-61.13 1345.8,-60.5 1397,-101.5 1432.07,-129.58 1453.62,-277.51 1458.79,-316.87"/>
<polygon fill="#9a32cd" stroke="#9a32cd" points="733.66,-59.24 723.69,-62.84 733.73,-66.24 733.66,-59.24"/>
<text text-anchor="middle" x="1114" y="-71.5" font-family="Helvetica,sans-Serif" font-size="10.00"> equality</text>
</g>
<!-- Node22 -->
<g id="node22" class="node">
<title>Node22</title>
<g id="a_node22"><a xlink:href="structadiar_1_1statistics_1_1equality__t_1_1fast__t.html" target="_top" xlink:title="Statistics from O(N) linear&#45;scan equality checking algorithm.">
<polygon fill="none" stroke="black" points="373.5,-0.5 373.5,-30.5 472.5,-30.5 472.5,-0.5 373.5,-0.5"/>
<text text-anchor="start" x="381.5" y="-18.5" font-family="Helvetica,sans-Serif" font-size="10.00">adiar::statistics::</text>
<text text-anchor="middle" x="423" y="-7.5" font-family="Helvetica,sans-Serif" font-size="10.00">equality_t::fast_t</text>
</a>
</g>
</g>
<!-- Node22&#45;&gt;Node21 -->
<g id="edge29" class="edge">
<title>Node22&#45;&gt;Node21</title>
<path fill="none" stroke="#9a32cd" stroke-dasharray="5,2" d="M482.57,-26.77C526.03,-35.13 584.59,-46.4 625.35,-54.24"/>
<polygon fill="#9a32cd" stroke="#9a32cd" points="483.18,-23.32 472.7,-24.87 481.86,-30.2 483.18,-23.32"/>
<text text-anchor="middle" x="550.5" y="-50.5" font-family="Helvetica,sans-Serif" font-size="10.00"> fast_check</text>
</g>
<!-- Node23 -->
<g id="node23" class="node">
<title>Node23</title>
<g id="a_node23"><a xlink:href="structadiar_1_1statistics_1_1equality__t_1_1slow__t.html" target="_top" xlink:title="Statistics from O(N log N) time&#45;forward processing equality checking algorithm.">
<polygon fill="none" stroke="black" points="371.5,-49.5 371.5,-79.5 474.5,-79.5 474.5,-49.5 371.5,-49.5"/>
<text text-anchor="start" x="379.5" y="-67.5" font-family="Helvetica,sans-Serif" font-size="10.00">adiar::statistics::</text>
<text text-anchor="middle" x="423" y="-56.5" font-family="Helvetica,sans-Serif" font-size="10.00">equality_t::slow_t</text>
</a>
</g>
</g>
<!-- Node23&#45;&gt;Node21 -->
<g id="edge30" class="edge">
<title>Node23&#45;&gt;Node21</title>
<path fill="none" stroke="#9a32cd" stroke-dasharray="5,2" d="M484.9,-64.26C528.1,-64.08 585.29,-63.85 625.32,-63.69"/>
<polygon fill="#9a32cd" stroke="#9a32cd" points="484.78,-60.76 474.79,-64.3 484.8,-67.76 484.78,-60.76"/>
<text text-anchor="middle" x="550.5" y="-67.5" font-family="Helvetica,sans-Serif" font-size="10.00"> slow_check</text>
</g>
<!-- Node24&#45;&gt;Node1 -->
<g id="edge31" class="edge">
<title>Node24&#45;&gt;Node1</title>
<path fill="none" stroke="#9a32cd" stroke-dasharray="5,2" d="M1173.48,-345.6C1241.64,-341.06 1352.82,-333.65 1414.74,-329.52"/>
<polygon fill="#9a32cd" stroke="#9a32cd" points="1173.08,-342.12 1163.33,-346.28 1173.54,-349.1 1173.08,-342.12"/>
<text text-anchor="middle" x="1236" y="-347.5" font-family="Helvetica,sans-Serif" font-size="10.00"> count</text>
</g>
<!-- Node25 -->
<g id="node25" class="node">
<title>Node25</title>
<g id="a_node25"><a xlink:href="structadiar_1_1statistics_1_1node__file__t.html" target="_top" xlink:title="Node Files statistics.">
<polygon fill="none" stroke="black" points="1187,-18.5 1187,-48.5 1285,-48.5 1285,-18.5 1187,-18.5"/>
<text text-anchor="start" x="1195" y="-36.5" font-family="Helvetica,sans-Serif" font-size="10.00">adiar::statistics::</text>
<text text-anchor="middle" x="1236" y="-25.5" font-family="Helvetica,sans-Serif" font-size="10.00">node_file_t</text>
</a>
</g>
</g>
<!-- Node25&#45;&gt;Node1 -->
<g id="edge34" class="edge">
<title>Node25&#45;&gt;Node1</title>
<path fill="none" stroke="#9a32cd" stroke-dasharray="5,2" d="M1295.42,-25.13C1329.07,-23.69 1369.93,-28.2 1397,-52.5 1437.77,-89.1 1455.48,-272.23 1459.23,-316.74"/>
<polygon fill="#9a32cd" stroke="#9a32cd" points="1295,-21.64 1285.23,-25.75 1295.43,-28.63 1295,-21.64"/>
<text text-anchor="middle" x="1353" y="-55.5" font-family="Helvetica,sans-Serif" font-size="10.00"> node_file</text>
</g>
</g>
</svg>
