<?xml version="1.0" encoding="UTF-8" standalone="no"?>
<!DOCTYPE svg PUBLIC "-//W3C//DTD SVG 1.1//EN"
 "http://www.w3.org/Graphics/SVG/1.1/DTD/svg11.dtd">
<!-- Generated by graphviz version 2.43.0 (0)
 -->
<!-- Title: adiar::stats_t Pages: 1 -->
<svg width="1521pt" height="627pt"
 viewBox="0.00 0.00 1521.00 626.50" xmlns="http://www.w3.org/2000/svg" xmlns:xlink="http://www.w3.org/1999/xlink">
<g id="graph0" class="graph" transform="scale(1 1) rotate(0) translate(4 622.5)">
<title>adiar::stats_t</title>
<!-- Node1 -->
<g id="node1" class="node">
<title>Node1</title>
<g id="a_node1"><a xlink:title="Available statistics from algorithm&#39;s and data structures.">
<polygon fill="#bfbfbf" stroke="black" points="1433,-357 1433,-376 1513,-376 1513,-357 1433,-357"/>
<text text-anchor="middle" x="1473" y="-364" font-family="Helvetica,sans-Serif" font-size="10.00">adiar::stats_t</text>
</a>
</g>
</g>
<!-- Node2 -->
<g id="node2" class="node">
<title>Node2</title>
<g id="a_node2"><a xlink:href="structadiar_1_1stats__t_1_1levelized__priority__queue__t.html" target="_top" xlink:title="Levelized Priority Queue statistics.">
<polygon fill="none" stroke="black" points="0,-559.5 0,-589.5 131,-589.5 131,-559.5 0,-559.5"/>
<text text-anchor="start" x="8" y="-577.5" font-family="Helvetica,sans-Serif" font-size="10.00">adiar::stats_t::levelized</text>
<text text-anchor="middle" x="65.5" y="-566.5" font-family="Helvetica,sans-Serif" font-size="10.00">_priority_queue_t</text>
</a>
</g>
</g>
<!-- Node2&#45;&gt;Node1 -->
<g id="edge1" class="edge">
<title>Node2&#45;&gt;Node1</title>
<path fill="none" stroke="#9a32cd" stroke-dasharray="5,2" d="M141.38,-589.35C167.14,-593.31 196.23,-596.5 223,-596.5 223,-596.5 223,-596.5 1250.5,-596.5 1324.66,-596.5 1359.84,-618.08 1415,-568.5 1473.27,-516.13 1473.87,-409.25 1472.57,-376.35"/>
<polygon fill="#9a32cd" stroke="#9a32cd" points="141.74,-585.86 131.32,-587.74 140.64,-592.78 141.74,-585.86"/>
<text text-anchor="start" x="599.5" y="-610.5" font-family="Helvetica,sans-Serif" font-size="10.00"> levelized_priority</text>
<text text-anchor="middle" x="643.5" y="-599.5" font-family="Helvetica,sans-Serif" font-size="10.00">_queue</text>
</g>
<!-- Node6 -->
<g id="node6" class="node">
<title>Node6</title>
<g id="a_node6"><a xlink:href="structadiar_1_1stats__t_1_1____alg__base_1_1____lpq.html" target="_top" xlink:title="Type and usage of this algorithm&#39;s levelized priority queue.">
<polygon fill="none" stroke="black" points="168,-487.5 168,-517.5 280,-517.5 280,-487.5 168,-487.5"/>
<text text-anchor="start" x="176" y="-505.5" font-family="Helvetica,sans-Serif" font-size="10.00">adiar::stats_t::__alg</text>
<text text-anchor="middle" x="224" y="-494.5" font-family="Helvetica,sans-Serif" font-size="10.00">_base::__lpq</text>
</a>
</g>
</g>
<!-- Node2&#45;&gt;Node6 -->
<g id="edge6" class="edge">
<title>Node2&#45;&gt;Node6</title>
<path fill="none" stroke="midnightblue" d="M108.43,-555.21C134.1,-543.4 166.46,-528.51 190.24,-517.57"/>
<polygon fill="midnightblue" stroke="midnightblue" points="106.93,-552.05 99.31,-559.41 109.86,-558.41 106.93,-552.05"/>
</g>
<!-- Node3 -->
<g id="node3" class="node">
<title>Node3</title>
<g id="a_node3"><a xlink:href="structadiar_1_1stats__t_1_1arc__file__t.html" target="_top" xlink:title="Arc Files statistics.">
<polygon fill="none" stroke="black" points="1199,-537.5 1199,-567.5 1300,-567.5 1300,-537.5 1199,-537.5"/>
<text text-anchor="start" x="1207" y="-555.5" font-family="Helvetica,sans-Serif" font-size="10.00">adiar::stats_t::arc</text>
<text text-anchor="middle" x="1249.5" y="-544.5" font-family="Helvetica,sans-Serif" font-size="10.00">_file_t</text>
</a>
</g>
</g>
<!-- Node3&#45;&gt;Node1 -->
<g id="edge2" class="edge">
<title>Node3&#45;&gt;Node1</title>
<path fill="none" stroke="#9a32cd" stroke-dasharray="5,2" d="M1310.53,-555.5C1344.73,-554.08 1386.34,-546.66 1415,-522.5 1461.3,-483.47 1469.99,-403.5 1471.62,-376.02"/>
<polygon fill="#9a32cd" stroke="#9a32cd" points="1310.09,-552.01 1300.18,-555.76 1310.27,-559.01 1310.09,-552.01"/>
<text text-anchor="middle" x="1371" y="-556.5" font-family="Helvetica,sans-Serif" font-size="10.00"> arc_file</text>
</g>
<!-- Node4 -->
<g id="node4" class="node">
<title>Node4</title>
<g id="a_node4"><a xlink:href="structadiar_1_1stats__t_1_1intercut__t.html" target="_top" xlink:title="Intercut algorithm statistics.">
<polygon fill="none" stroke="black" points="739.5,-377 739.5,-396 872.5,-396 872.5,-377 739.5,-377"/>
<text text-anchor="middle" x="806" y="-384" font-family="Helvetica,sans-Serif" font-size="10.00">adiar::stats_t::intercut_t</text>
</a>
</g>
</g>
<!-- Node4&#45;&gt;Node1 -->
<g id="edge3" class="edge">
<title>Node4&#45;&gt;Node1</title>
<path fill="none" stroke="#9a32cd" stroke-dasharray="5,2" d="M882.85,-386.16C997.96,-385.29 1223.64,-382.24 1415,-371.5 1420.75,-371.18 1426.82,-370.74 1432.78,-370.27"/>
<polygon fill="#9a32cd" stroke="#9a32cd" points="882.71,-382.66 872.73,-386.23 882.76,-389.66 882.71,-382.66"/>
<text text-anchor="middle" x="1104.5" y="-386.5" font-family="Helvetica,sans-Serif" font-size="10.00"> intercut</text>
</g>
<!-- Node5 -->
<g id="node5" class="node">
<title>Node5</title>
<g id="a_node5"><a xlink:href="structadiar_1_1stats__t_1_1____alg__base.html" target="_top" xlink:title="Common statistics for all algorithms.">
<polygon fill="none" stroke="black" points="335,-341 335,-360 475,-360 475,-341 335,-341"/>
<text text-anchor="middle" x="405" y="-348" font-family="Helvetica,sans-Serif" font-size="10.00">adiar::stats_t::__alg_base</text>
</a>
</g>
</g>
<!-- Node5&#45;&gt;Node4 -->
<g id="edge4" class="edge">
<title>Node5&#45;&gt;Node4</title>
<path fill="none" stroke="midnightblue" d="M476.1,-361.44C481.81,-362.19 487.5,-362.89 493,-363.5 577.88,-372.96 676.21,-379.47 739.43,-383.09"/>
<polygon fill="midnightblue" stroke="midnightblue" points="476.21,-357.92 465.83,-360.04 475.27,-364.86 476.21,-357.92"/>
</g>
<!-- Node7 -->
<g id="node7" class="node">
<title>Node7</title>
<g id="a_node7"><a xlink:href="structadiar_1_1stats__t_1_1equality__t.html" target="_top" xlink:title="Equality Checking algorithm statistics.">
<polygon fill="none" stroke="black" points="576,-504 576,-523 711,-523 711,-504 576,-504"/>
<text text-anchor="middle" x="643.5" y="-511" font-family="Helvetica,sans-Serif" font-size="10.00">adiar::stats_t::equality_t</text>
</a>
</g>
</g>
<!-- Node5&#45;&gt;Node7 -->
<g id="edge8" class="edge">
<title>Node5&#45;&gt;Node7</title>
<path fill="none" stroke="midnightblue" d="M414.86,-369.47C428.13,-395.83 455.67,-443.25 493,-469.5 517.79,-486.93 549.5,-497.53 577.34,-503.94"/>
<polygon fill="midnightblue" stroke="midnightblue" points="417.86,-367.64 410.34,-360.18 411.57,-370.7 417.86,-367.64"/>
</g>
<!-- Node10 -->
<g id="node10" class="node">
<title>Node10</title>
<g id="a_node10"><a xlink:href="structadiar_1_1stats__t_1_1quantify__t.html" target="_top" xlink:title="Quantification algorithm statistics.">
<polygon fill="none" stroke="black" points="1037,-146 1037,-165 1172,-165 1172,-146 1037,-146"/>
<text text-anchor="middle" x="1104.5" y="-153" font-family="Helvetica,sans-Serif" font-size="10.00">adiar::stats_t::quantify_t</text>
</a>
</g>
</g>
<!-- Node5&#45;&gt;Node10 -->
<g id="edge12" class="edge">
<title>Node5&#45;&gt;Node10</title>
<path fill="none" stroke="midnightblue" d="M412.58,-331.28C429.73,-284.83 480.89,-167.89 571,-134.5 749.93,-68.2 986.19,-122.36 1071.26,-145.92"/>
<polygon fill="midnightblue" stroke="midnightblue" points="409.25,-330.18 409.18,-340.77 415.84,-332.53 409.25,-330.18"/>
</g>
<!-- Node13 -->
<g id="node13" class="node">
<title>Node13</title>
<g id="a_node13"><a xlink:href="structadiar_1_1stats__t_1_1nested__sweeping__t_1_1inner__t_1_1up__t.html" target="_top" xlink:title="Inner Up Sweep.">
<polygon fill="none" stroke="black" points="571.5,-204.5 571.5,-234.5 715.5,-234.5 715.5,-204.5 571.5,-204.5"/>
<text text-anchor="start" x="579.5" y="-222.5" font-family="Helvetica,sans-Serif" font-size="10.00">adiar::stats_t::nested</text>
<text text-anchor="middle" x="643.5" y="-211.5" font-family="Helvetica,sans-Serif" font-size="10.00">_sweeping_t::inner_t::up_t</text>
</a>
</g>
</g>
<!-- Node5&#45;&gt;Node13 -->
<g id="edge16" class="edge">
<title>Node5&#45;&gt;Node13</title>
<path fill="none" stroke="midnightblue" d="M426.71,-334.61C457.02,-311.93 515.87,-270.1 571,-243.5 577.72,-240.26 585,-237.27 592.24,-234.58"/>
<polygon fill="midnightblue" stroke="midnightblue" points="424.47,-331.91 418.6,-340.73 428.69,-337.5 424.47,-331.91"/>
</g>
<!-- Node14 -->
<g id="node14" class="node">
<title>Node14</title>
<g id="a_node14"><a xlink:href="structadiar_1_1stats__t_1_1nested__sweeping__t_1_1inner__t_1_1down__t.html" target="_top" xlink:title="Inner Down Sweep.">
<polygon fill="none" stroke="black" points="582,-144 582,-185 705,-185 705,-144 582,-144"/>
<text text-anchor="start" x="590" y="-173" font-family="Helvetica,sans-Serif" font-size="10.00">adiar::stats_t::nested</text>
<text text-anchor="start" x="590" y="-162" font-family="Helvetica,sans-Serif" font-size="10.00">_sweeping_t::inner_t::</text>
<text text-anchor="middle" x="643.5" y="-151" font-family="Helvetica,sans-Serif" font-size="10.00">down_t</text>
</a>
</g>
</g>
<!-- Node5&#45;&gt;Node14 -->
<g id="edge18" class="edge">
<title>Node5&#45;&gt;Node14</title>
<path fill="none" stroke="midnightblue" d="M419.07,-332.82C435.14,-311.7 463.91,-275.9 493,-249.5 524.41,-220.99 533.89,-215.05 571,-194.5 577.01,-191.17 583.46,-187.98 589.94,-185"/>
<polygon fill="midnightblue" stroke="midnightblue" points="416.2,-330.81 412.99,-340.91 421.79,-335.02 416.2,-330.81"/>
</g>
<!-- Node17 -->
<g id="node17" class="node">
<title>Node17</title>
<g id="a_node17"><a xlink:href="structadiar_1_1stats__t_1_1substitute__t.html" target="_top" xlink:title="Substitution algorithm statistics.">
<polygon fill="none" stroke="black" points="734,-459 734,-478 878,-478 878,-459 734,-459"/>
<text text-anchor="middle" x="806" y="-466" font-family="Helvetica,sans-Serif" font-size="10.00">adiar::stats_t::substitute_t</text>
</a>
</g>
</g>
<!-- Node5&#45;&gt;Node17 -->
<g id="edge22" class="edge">
<title>Node5&#45;&gt;Node17</title>
<path fill="none" stroke="midnightblue" d="M417.61,-368.8C432.28,-390.16 459.7,-424.58 493,-440.5 569.3,-476.97 668.02,-479.47 733.78,-475.81"/>
<polygon fill="midnightblue" stroke="midnightblue" points="420.4,-366.68 411.95,-360.28 414.57,-370.55 420.4,-366.68"/>
</g>
<!-- Node18 -->
<g id="node18" class="node">
<title>Node18</title>
<g id="a_node18"><a xlink:href="structadiar_1_1stats__t_1_1prod2__t.html" target="_top" xlink:title="2&#45;ary Product Construction algorithm statistics.">
<polygon fill="none" stroke="black" points="582,-61 582,-80 705,-80 705,-61 582,-61"/>
<text text-anchor="middle" x="643.5" y="-68" font-family="Helvetica,sans-Serif" font-size="10.00">adiar::stats_t::prod2_t</text>
</a>
</g>
</g>
<!-- Node5&#45;&gt;Node18 -->
<g id="edge24" class="edge">
<title>Node5&#45;&gt;Node18</title>
<path fill="none" stroke="midnightblue" d="M406.82,-330.94C409.88,-284.24 424.38,-165.57 493,-104.5 506.27,-92.69 546.36,-83.95 581.68,-78.29"/>
<polygon fill="midnightblue" stroke="midnightblue" points="403.32,-330.78 406.27,-340.96 410.31,-331.16 403.32,-330.78"/>
</g>
<!-- Node21 -->
<g id="node21" class="node">
<title>Node21</title>
<g id="a_node21"><a xlink:href="structadiar_1_1stats__t_1_1reduce__t.html" target="_top" xlink:title="Reduce algorithm statistics.">
<polygon fill="none" stroke="black" points="1040.5,-418 1040.5,-437 1168.5,-437 1168.5,-418 1040.5,-418"/>
<text text-anchor="middle" x="1104.5" y="-425" font-family="Helvetica,sans-Serif" font-size="10.00">adiar::stats_t::reduce_t</text>
</a>
</g>
</g>
<!-- Node5&#45;&gt;Node21 -->
<g id="edge28" class="edge">
<title>Node5&#45;&gt;Node21</title>
<path fill="none" stroke="midnightblue" d="M439.81,-363.47C455.74,-369.14 475.13,-375.42 493,-379.5 527.07,-387.29 536.27,-385.57 571,-389.5 643.33,-397.68 661.43,-399.78 734,-405.5 841.47,-413.97 966.75,-420.79 1040.36,-424.48"/>
<polygon fill="midnightblue" stroke="midnightblue" points="440.98,-360.17 430.39,-360.05 438.59,-366.75 440.98,-360.17"/>
</g>
<!-- Node22 -->
<g id="node22" class="node">
<title>Node22</title>
<g id="a_node22"><a xlink:href="structadiar_1_1stats__t_1_1count__t.html" target="_top" xlink:title="Counting algorithm statistics.">
<polygon fill="none" stroke="black" points="745,-339 745,-358 867,-358 867,-339 745,-339"/>
<text text-anchor="middle" x="806" y="-346" font-family="Helvetica,sans-Serif" font-size="10.00">adiar::stats_t::count_t</text>
</a>
</g>
</g>
<!-- Node5&#45;&gt;Node22 -->
<g id="edge30" class="edge">
<title>Node5&#45;&gt;Node22</title>
<path fill="none" stroke="midnightblue" d="M485.11,-350.1C561.55,-349.72 675.68,-349.15 744.94,-348.8"/>
<polygon fill="midnightblue" stroke="midnightblue" points="485.03,-346.6 475.04,-350.15 485.06,-353.6 485.03,-346.6"/>
</g>
<!-- Node23 -->
<g id="node23" class="node">
<title>Node23</title>
<g id="a_node23"><a xlink:href="structadiar_1_1stats__t_1_1prod3__t.html" target="_top" xlink:title="3&#45;ary Product Construction algorithm statistics.">
<polygon fill="none" stroke="black" points="896,-300 896,-319 1019,-319 1019,-300 896,-300"/>
<text text-anchor="middle" x="957.5" y="-307" font-family="Helvetica,sans-Serif" font-size="10.00">adiar::stats_t::prod3_t</text>
</a>
</g>
</g>
<!-- Node5&#45;&gt;Node23 -->
<g id="edge32" class="edge">
<title>Node5&#45;&gt;Node23</title>
<path fill="none" stroke="midnightblue" d="M485.29,-344.59C596.28,-336.33 795.56,-321.49 895.64,-314.03"/>
<polygon fill="midnightblue" stroke="midnightblue" points="484.88,-341.12 475.16,-345.35 485.4,-348.1 484.88,-341.12"/>
</g>
<!-- Node6&#45;&gt;Node5 -->
<g id="edge5" class="edge">
<title>Node6&#45;&gt;Node5</title>
<path fill="none" stroke="#9a32cd" stroke-dasharray="5,2" d="M250.69,-480.68C290.19,-447.14 364.23,-384.27 392.57,-360.21"/>
<polygon fill="#9a32cd" stroke="#9a32cd" points="248.17,-478.23 242.82,-487.37 252.71,-483.57 248.17,-478.23"/>
<text text-anchor="middle" x="307.5" y="-442.5" font-family="Helvetica,sans-Serif" font-size="10.00"> lpq</text>
</g>
<!-- Node7&#45;&gt;Node1 -->
<g id="edge7" class="edge">
<title>Node7&#45;&gt;Node1</title>
<path fill="none" stroke="#9a32cd" stroke-dasharray="5,2" d="M721.45,-510.84C845.58,-505.84 1097.5,-492.8 1309,-463.5 1356.26,-456.95 1374.46,-471.66 1415,-446.5 1442.68,-429.33 1460.78,-393.25 1468.19,-376.03"/>
<polygon fill="#9a32cd" stroke="#9a32cd" points="721.14,-507.35 711.29,-511.24 721.42,-514.34 721.14,-507.35"/>
<text text-anchor="middle" x="1104.5" y="-494.5" font-family="Helvetica,sans-Serif" font-size="10.00"> equality</text>
</g>
<!-- Node8 -->
<g id="node8" class="node">
<title>Node8</title>
<g id="a_node8"><a xlink:href="structadiar_1_1stats__t_1_1equality__t_1_1slow__t.html" target="_top" xlink:title="Statistics from O(N log N) time&#45;forward processing equality checking algorithm.">
<polygon fill="none" stroke="black" points="342,-537.5 342,-567.5 468,-567.5 468,-537.5 342,-537.5"/>
<text text-anchor="start" x="350" y="-555.5" font-family="Helvetica,sans-Serif" font-size="10.00">adiar::stats_t::equality</text>
<text text-anchor="middle" x="405" y="-544.5" font-family="Helvetica,sans-Serif" font-size="10.00">_t::slow_t</text>
</a>
</g>
</g>
<!-- Node8&#45;&gt;Node7 -->
<g id="edge9" class="edge">
<title>Node8&#45;&gt;Node7</title>
<path fill="none" stroke="#9a32cd" stroke-dasharray="5,2" d="M478.08,-540.61C512.32,-534.97 552.67,-528.31 584.83,-523.01"/>
<polygon fill="#9a32cd" stroke="#9a32cd" points="477.43,-537.17 468.14,-542.25 478.57,-544.08 477.43,-537.17"/>
<text text-anchor="middle" x="523" y="-540.5" font-family="Helvetica,sans-Serif" font-size="10.00"> slow_check</text>
</g>
<!-- Node9 -->
<g id="node9" class="node">
<title>Node9</title>
<g id="a_node9"><a xlink:href="structadiar_1_1stats__t_1_1equality__t_1_1fast__t.html" target="_top" xlink:title="Statistics from O(N) linear&#45;scan equality checking algorithm.">
<polygon fill="none" stroke="black" points="342,-488.5 342,-518.5 468,-518.5 468,-488.5 342,-488.5"/>
<text text-anchor="start" x="350" y="-506.5" font-family="Helvetica,sans-Serif" font-size="10.00">adiar::stats_t::equality</text>
<text text-anchor="middle" x="405" y="-495.5" font-family="Helvetica,sans-Serif" font-size="10.00">_t::fast_t</text>
</a>
</g>
</g>
<!-- Node9&#45;&gt;Node7 -->
<g id="edge10" class="edge">
<title>Node9&#45;&gt;Node7</title>
<path fill="none" stroke="#9a32cd" stroke-dasharray="5,2" d="M478.45,-506.56C509.47,-507.87 545.45,-509.4 575.81,-510.68"/>
<polygon fill="#9a32cd" stroke="#9a32cd" points="478.28,-503.05 468.14,-506.13 477.98,-510.05 478.28,-503.05"/>
<text text-anchor="middle" x="523" y="-512.5" font-family="Helvetica,sans-Serif" font-size="10.00"> fast_check</text>
</g>
<!-- Node10&#45;&gt;Node1 -->
<g id="edge11" class="edge">
<title>Node10&#45;&gt;Node1</title>
<path fill="none" stroke="#9a32cd" stroke-dasharray="5,2" d="M1182.46,-163.01C1250.52,-173.25 1348.97,-197.3 1415,-253.5 1448.47,-281.98 1464.43,-334.93 1469.81,-356.73"/>
<polygon fill="#9a32cd" stroke="#9a32cd" points="1182.63,-159.5 1172.23,-161.54 1181.63,-166.43 1182.63,-159.5"/>
<text text-anchor="middle" x="1249.5" y="-196.5" font-family="Helvetica,sans-Serif" font-size="10.00"> quantify</text>
</g>
<!-- Node11 -->
<g id="node11" class="node">
<title>Node11</title>
<g id="a_node11"><a xlink:href="structadiar_1_1stats__t_1_1nested__sweeping__t.html" target="_top" xlink:title="Nested Sweeping statistics.">
<polygon fill="none" stroke="black" points="1190,-241.5 1190,-271.5 1309,-271.5 1309,-241.5 1190,-241.5"/>
<text text-anchor="start" x="1198" y="-259.5" font-family="Helvetica,sans-Serif" font-size="10.00">adiar::stats_t::nested</text>
<text text-anchor="middle" x="1249.5" y="-248.5" font-family="Helvetica,sans-Serif" font-size="10.00">_sweeping_t</text>
</a>
</g>
</g>
<!-- Node11&#45;&gt;Node1 -->
<g id="edge13" class="edge">
<title>Node11&#45;&gt;Node1</title>
<path fill="none" stroke="#9a32cd" stroke-dasharray="5,2" d="M1319.67,-255.81C1350.86,-258.4 1386.91,-265.66 1415,-283.5 1443.33,-301.49 1461.23,-339.18 1468.41,-356.91"/>
<polygon fill="#9a32cd" stroke="#9a32cd" points="1319.51,-252.29 1309.3,-255.1 1319.04,-259.28 1319.51,-252.29"/>
<text text-anchor="middle" x="1371" y="-286.5" font-family="Helvetica,sans-Serif" font-size="10.00"> nested_sweeping</text>
</g>
<!-- Node12 -->
<g id="node12" class="node">
<title>Node12</title>
<g id="a_node12"><a xlink:href="structadiar_1_1stats__t_1_1nested__sweeping__t_1_1inner__t.html" target="_top" xlink:title="Inner Sweep(s)">
<polygon fill="none" stroke="black" points="898,-201.5 898,-231.5 1017,-231.5 1017,-201.5 898,-201.5"/>
<text text-anchor="start" x="906" y="-219.5" font-family="Helvetica,sans-Serif" font-size="10.00">adiar::stats_t::nested</text>
<text text-anchor="middle" x="957.5" y="-208.5" font-family="Helvetica,sans-Serif" font-size="10.00">_sweeping_t::inner_t</text>
</a>
</g>
</g>
<!-- Node12&#45;&gt;Node11 -->
<g id="edge14" class="edge">
<title>Node12&#45;&gt;Node11</title>
<path fill="none" stroke="#9a32cd" stroke-dasharray="5,2" d="M1027.1,-225.05C1068.99,-230.38 1123.63,-237.54 1172,-244.5 1177.72,-245.32 1183.68,-246.21 1189.63,-247.11"/>
<polygon fill="#9a32cd" stroke="#9a32cd" points="1027.36,-221.56 1017,-223.77 1026.48,-228.5 1027.36,-221.56"/>
<text text-anchor="middle" x="1104.5" y="-247.5" font-family="Helvetica,sans-Serif" font-size="10.00"> inner</text>
</g>
<!-- Node13&#45;&gt;Node12 -->
<g id="edge15" class="edge">
<title>Node13&#45;&gt;Node12</title>
<path fill="none" stroke="#9a32cd" stroke-dasharray="5,2" d="M725.91,-218.72C779.86,-218.2 849.36,-217.53 897.9,-217.06"/>
<polygon fill="#9a32cd" stroke="#9a32cd" points="725.65,-215.22 715.69,-218.82 725.72,-222.22 725.65,-215.22"/>
<text text-anchor="middle" x="806" y="-222.5" font-family="Helvetica,sans-Serif" font-size="10.00"> up</text>
</g>
<!-- Node14&#45;&gt;Node12 -->
<g id="edge17" class="edge">
<title>Node14&#45;&gt;Node12</title>
<path fill="none" stroke="#9a32cd" stroke-dasharray="5,2" d="M714.96,-175.68C761.32,-183.11 823.31,-193.17 878,-202.5 884.41,-203.59 891.12,-204.76 897.79,-205.93"/>
<polygon fill="#9a32cd" stroke="#9a32cd" points="715.44,-172.21 705.02,-174.09 714.34,-179.13 715.44,-172.21"/>
<text text-anchor="middle" x="806" y="-205.5" font-family="Helvetica,sans-Serif" font-size="10.00"> down</text>
</g>
<!-- Node15 -->
<g id="node15" class="node">
<title>Node15</title>
<g id="a_node15"><a xlink:href="structadiar_1_1stats__t_1_1nested__sweeping__t_1_1outer__t.html" target="_top" xlink:title="Outer Sweep(s)">
<polygon fill="none" stroke="black" points="898,-250.5 898,-280.5 1017,-280.5 1017,-250.5 898,-250.5"/>
<text text-anchor="start" x="906" y="-268.5" font-family="Helvetica,sans-Serif" font-size="10.00">adiar::stats_t::nested</text>
<text text-anchor="middle" x="957.5" y="-257.5" font-family="Helvetica,sans-Serif" font-size="10.00">_sweeping_t::outer_t</text>
</a>
</g>
</g>
<!-- Node15&#45;&gt;Node11 -->
<g id="edge19" class="edge">
<title>Node15&#45;&gt;Node11</title>
<path fill="none" stroke="#9a32cd" stroke-dasharray="5,2" d="M1027.48,-263.36C1076.98,-261.82 1142.95,-259.78 1189.9,-258.32"/>
<polygon fill="#9a32cd" stroke="#9a32cd" points="1027.07,-259.87 1017.19,-263.68 1027.29,-266.87 1027.07,-259.87"/>
<text text-anchor="middle" x="1104.5" y="-266.5" font-family="Helvetica,sans-Serif" font-size="10.00"> outer</text>
</g>
<!-- Node16 -->
<g id="node16" class="node">
<title>Node16</title>
<g id="a_node16"><a xlink:href="structadiar_1_1stats__t_1_1nested__sweeping__t_1_1outer__t_1_1up__t.html" target="_top" xlink:title="Outer Up Sweep.">
<polygon fill="none" stroke="black" points="571,-253.5 571,-283.5 716,-283.5 716,-253.5 571,-253.5"/>
<text text-anchor="start" x="579" y="-271.5" font-family="Helvetica,sans-Serif" font-size="10.00">adiar::stats_t::nested</text>
<text text-anchor="middle" x="643.5" y="-260.5" font-family="Helvetica,sans-Serif" font-size="10.00">_sweeping_t::outer_t::up_t</text>
</a>
</g>
</g>
<!-- Node16&#45;&gt;Node15 -->
<g id="edge20" class="edge">
<title>Node16&#45;&gt;Node15</title>
<path fill="none" stroke="#9a32cd" stroke-dasharray="5,2" d="M726.29,-267.71C780.14,-267.2 849.38,-266.53 897.8,-266.06"/>
<polygon fill="#9a32cd" stroke="#9a32cd" points="726.04,-264.22 716.08,-267.81 726.11,-271.22 726.04,-264.22"/>
<text text-anchor="middle" x="806" y="-271.5" font-family="Helvetica,sans-Serif" font-size="10.00"> up</text>
</g>
<!-- Node17&#45;&gt;Node1 -->
<g id="edge21" class="edge">
<title>Node17&#45;&gt;Node1</title>
<path fill="none" stroke="#9a32cd" stroke-dasharray="5,2" d="M888.68,-468.52C988.3,-467.64 1161.66,-463.2 1309,-444.5 1356.73,-438.44 1372.56,-445.17 1415,-422.5 1436.54,-411 1455.4,-388.84 1465.09,-376.12"/>
<polygon fill="#9a32cd" stroke="#9a32cd" points="888.36,-465.02 878.38,-468.6 888.41,-472.02 888.36,-465.02"/>
<text text-anchor="middle" x="1104.5" y="-467.5" font-family="Helvetica,sans-Serif" font-size="10.00"> substitute</text>
</g>
<!-- Node18&#45;&gt;Node1 -->
<g id="edge23" class="edge">
<title>Node18&#45;&gt;Node1</title>
<path fill="none" stroke="#9a32cd" stroke-dasharray="5,2" d="M706.03,-59.39C852.04,-36.91 1221.67,-3.47 1415,-198.5 1460.54,-244.43 1469.72,-328.06 1471.55,-356.63"/>
<polygon fill="#9a32cd" stroke="#9a32cd" points="705.24,-55.97 695.91,-60.98 706.33,-62.88 705.24,-55.97"/>
<text text-anchor="middle" x="1104.5" y="-70.5" font-family="Helvetica,sans-Serif" font-size="10.00"> prod2</text>
</g>
<!-- Node19 -->
<g id="node19" class="node">
<title>Node19</title>
<g id="a_node19"><a xlink:href="structadiar_1_1stats__t_1_1prod2__t_1_1ra__t.html" target="_top" xlink:title="Statistics for the double priority queue implementation.">
<polygon fill="none" stroke="black" points="348,-49.5 348,-79.5 462,-79.5 462,-49.5 348,-49.5"/>
<text text-anchor="start" x="356" y="-67.5" font-family="Helvetica,sans-Serif" font-size="10.00">adiar::stats_t::prod2</text>
<text text-anchor="middle" x="405" y="-56.5" font-family="Helvetica,sans-Serif" font-size="10.00">_t::ra_t</text>
</a>
</g>
</g>
<!-- Node19&#45;&gt;Node18 -->
<g id="edge25" class="edge">
<title>Node19&#45;&gt;Node18</title>
<path fill="none" stroke="#9a32cd" stroke-dasharray="5,2" d="M472.41,-64.26C497.65,-64.35 526.66,-64.68 553,-65.5 562.33,-65.79 572.21,-66.22 581.86,-66.71"/>
<polygon fill="#9a32cd" stroke="#9a32cd" points="472.21,-60.76 462.2,-64.24 472.2,-67.76 472.21,-60.76"/>
<text text-anchor="middle" x="523" y="-68.5" font-family="Helvetica,sans-Serif" font-size="10.00"> ra</text>
</g>
<!-- Node20 -->
<g id="node20" class="node">
<title>Node20</title>
<g id="a_node20"><a xlink:href="structadiar_1_1stats__t_1_1prod2__t_1_1pq__t.html" target="_top" xlink:title="Statistics for the double priority queue implementation.">
<polygon fill="none" stroke="black" points="348,-0.5 348,-30.5 462,-30.5 462,-0.5 348,-0.5"/>
<text text-anchor="start" x="356" y="-18.5" font-family="Helvetica,sans-Serif" font-size="10.00">adiar::stats_t::prod2</text>
<text text-anchor="middle" x="405" y="-7.5" font-family="Helvetica,sans-Serif" font-size="10.00">_t::pq_t</text>
</a>
</g>
</g>
<!-- Node20&#45;&gt;Node18 -->
<g id="edge26" class="edge">
<title>Node20&#45;&gt;Node18</title>
<path fill="none" stroke="#9a32cd" stroke-dasharray="5,2" d="M472.07,-30.73C497.38,-36.58 526.54,-43.34 553,-49.5 569.01,-53.23 586.63,-57.36 601.96,-60.96"/>
<polygon fill="#9a32cd" stroke="#9a32cd" points="472.73,-27.3 462.2,-28.46 471.16,-34.12 472.73,-27.3"/>
<text text-anchor="middle" x="523" y="-52.5" font-family="Helvetica,sans-Serif" font-size="10.00"> pq</text>
</g>
<!-- Node21&#45;&gt;Node1 -->
<g id="edge27" class="edge">
<title>Node21&#45;&gt;Node1</title>
<path fill="none" stroke="#9a32cd" stroke-dasharray="5,2" d="M1179.09,-429.68C1242.93,-429.51 1337.06,-424.25 1415,-399.5 1431.35,-394.31 1448.11,-383.87 1459.18,-376.12"/>
<polygon fill="#9a32cd" stroke="#9a32cd" points="1178.72,-426.18 1168.72,-429.66 1178.71,-433.18 1178.72,-426.18"/>
<text text-anchor="middle" x="1249.5" y="-432.5" font-family="Helvetica,sans-Serif" font-size="10.00"> reduce</text>
</g>
<!-- Node22&#45;&gt;Node1 -->
<g id="edge29" class="edge">
<title>Node22&#45;&gt;Node1</title>
<path fill="none" stroke="#9a32cd" stroke-dasharray="5,2" d="M877.14,-348.53C950.64,-348.73 1069.45,-349.55 1172,-352.5 1265.55,-355.19 1375.4,-360.99 1432.7,-364.22"/>
<polygon fill="#9a32cd" stroke="#9a32cd" points="877.09,-345.03 867.08,-348.5 877.07,-352.03 877.09,-345.03"/>
<text text-anchor="middle" x="1104.5" y="-355.5" font-family="Helvetica,sans-Serif" font-size="10.00"> count</text>
</g>
<!-- Node23&#45;&gt;Node1 -->
<g id="edge31" class="edge">
<title>Node23&#45;&gt;Node1</title>
<path fill="none" stroke="#9a32cd" stroke-dasharray="5,2" d="M1029,-302.15C1120.47,-295.07 1283.86,-290.9 1415,-333.5 1431.31,-338.8 1448.08,-349.22 1459.17,-356.94"/>
<polygon fill="#9a32cd" stroke="#9a32cd" points="1028.7,-298.66 1019.02,-302.95 1029.27,-305.63 1028.7,-298.66"/>
<text text-anchor="middle" x="1249.5" y="-311.5" font-family="Helvetica,sans-Serif" font-size="10.00"> prod3</text>
</g>
<!-- Node24 -->
<g id="node24" class="node">
<title>Node24</title>
<g id="a_node24"><a xlink:href="structadiar_1_1stats__t_1_1node__file__t.html" target="_top" xlink:title="Node Files statistics.">
<polygon fill="none" stroke="black" points="1194.5,-18.5 1194.5,-48.5 1304.5,-48.5 1304.5,-18.5 1194.5,-18.5"/>
<text text-anchor="start" x="1202.5" y="-36.5" font-family="Helvetica,sans-Serif" font-size="10.00">adiar::stats_t::node</text>
<text text-anchor="middle" x="1249.5" y="-25.5" font-family="Helvetica,sans-Serif" font-size="10.00">_file_t</text>
</a>
</g>
</g>
<!-- Node24&#45;&gt;Node1 -->
<g id="edge33" class="edge">
<title>Node24&#45;&gt;Node1</title>
<path fill="none" stroke="#9a32cd" stroke-dasharray="5,2" d="M1314.99,-24.03C1348.91,-22.81 1388.77,-27.91 1415,-52.5 1460.88,-95.51 1470.21,-309.13 1471.74,-356.98"/>
<polygon fill="#9a32cd" stroke="#9a32cd" points="1314.48,-20.55 1304.68,-24.59 1314.86,-27.54 1314.48,-20.55"/>
<text text-anchor="middle" x="1371" y="-55.5" font-family="Helvetica,sans-Serif" font-size="10.00"> node_file</text>
</g>
</g>
</svg>
