<?xml version="1.0" encoding="UTF-8" standalone="no"?>
<!DOCTYPE svg PUBLIC "-//W3C//DTD SVG 1.1//EN"
 "http://www.w3.org/Graphics/SVG/1.1/DTD/svg11.dtd">
<!-- Generated by graphviz version 2.43.0 (0)
 -->
<!-- Title: adiar::statistics::prod2_t Pages: 1 -->
<svg width="605pt" height="137pt"
 viewBox="0.00 0.00 605.00 137.00" xmlns="http://www.w3.org/2000/svg" xmlns:xlink="http://www.w3.org/1999/xlink">
<g id="graph0" class="graph" transform="scale(1 1) rotate(0) translate(4 133)">
<title>adiar::statistics::prod2_t</title>
<!-- Node1 -->
<g id="node1" class="node">
<title>Node1</title>
<g id="a_node1"><a xlink:title="2&#45;ary Product Construction algorithm statistics.">
<polygon fill="#bfbfbf" stroke="black" points="499,-49.5 499,-79.5 597,-79.5 597,-49.5 499,-49.5"/>
<text text-anchor="start" x="507" y="-67.5" font-family="Helvetica,sans-Serif" font-size="10.00">adiar::statistics::</text>
<text text-anchor="middle" x="548" y="-56.5" font-family="Helvetica,sans-Serif" font-size="10.00">prod2_t</text>
</a>
</g>
</g>
<!-- Node2 -->
<g id="node2" class="node">
<title>Node2</title>
<g id="a_node2"><a xlink:href="structadiar_1_1statistics_1_1____alg__base.html" target="_top" xlink:title="Common statistics for all algorithms.">
<polygon fill="none" stroke="black" points="349,-98.5 349,-128.5 447,-128.5 447,-98.5 349,-98.5"/>
<text text-anchor="start" x="357" y="-116.5" font-family="Helvetica,sans-Serif" font-size="10.00">adiar::statistics::</text>
<text text-anchor="middle" x="398" y="-105.5" font-family="Helvetica,sans-Serif" font-size="10.00">__alg_base</text>
</a>
</g>
</g>
<!-- Node2&#45;&gt;Node1 -->
<g id="edge1" class="edge">
<title>Node2&#45;&gt;Node1</title>
<path fill="none" stroke="midnightblue" d="M454.15,-95.24C469.76,-90.07 486.57,-84.51 501.54,-79.55"/>
<polygon fill="midnightblue" stroke="midnightblue" points="453.01,-91.93 444.61,-98.4 455.21,-98.58 453.01,-91.93"/>
</g>
<!-- Node3 -->
<g id="node3" class="node">
<title>Node3</title>
<g id="a_node3"><a xlink:href="structadiar_1_1statistics_1_1____alg__base_1_1____lpq__t.html" target="_top" xlink:title="Type and usage of this algorithm&#39;s levelized priority queue.">
<polygon fill="none" stroke="black" points="183,-98.5 183,-128.5 294,-128.5 294,-98.5 183,-98.5"/>
<text text-anchor="start" x="191" y="-116.5" font-family="Helvetica,sans-Serif" font-size="10.00">adiar::statistics::</text>
<text text-anchor="middle" x="238.5" y="-105.5" font-family="Helvetica,sans-Serif" font-size="10.00">__alg_base::__lpq_t</text>
</a>
</g>
</g>
<!-- Node3&#45;&gt;Node2 -->
<g id="edge2" class="edge">
<title>Node3&#45;&gt;Node2</title>
<path fill="none" stroke="#9a32cd" stroke-dasharray="5,2" d="M304.3,-113.5C319.18,-113.5 334.73,-113.5 348.76,-113.5"/>
<polygon fill="#9a32cd" stroke="#9a32cd" points="304.14,-110 294.14,-113.5 304.14,-117 304.14,-110"/>
<text text-anchor="middle" x="321.5" y="-116.5" font-family="Helvetica,sans-Serif" font-size="10.00"> lpq</text>
</g>
<!-- Node4 -->
<g id="node4" class="node">
<title>Node4</title>
<g id="a_node4"><a xlink:href="structadiar_1_1statistics_1_1levelized__priority__queue__t.html" target="_top" xlink:title="Levelized Priority Queue statistics.">
<polygon fill="none" stroke="black" points="0,-98.5 0,-128.5 146,-128.5 146,-98.5 0,-98.5"/>
<text text-anchor="start" x="8" y="-116.5" font-family="Helvetica,sans-Serif" font-size="10.00">adiar::statistics::</text>
<text text-anchor="middle" x="73" y="-105.5" font-family="Helvetica,sans-Serif" font-size="10.00">levelized_priority_queue_t</text>
</a>
</g>
</g>
<!-- Node4&#45;&gt;Node3 -->
<g id="edge3" class="edge">
<title>Node4&#45;&gt;Node3</title>
<path fill="none" stroke="midnightblue" d="M156.34,-113.5C165.34,-113.5 174.34,-113.5 182.89,-113.5"/>
<polygon fill="midnightblue" stroke="midnightblue" points="156.19,-110 146.19,-113.5 156.19,-117 156.19,-110"/>
</g>
<!-- Node5 -->
<g id="node5" class="node">
<title>Node5</title>
<g id="a_node5"><a xlink:href="structadiar_1_1statistics_1_1prod2__t_1_1ra__t.html" target="_top" xlink:title="Statistics for the double priority queue implementation.">
<polygon fill="none" stroke="black" points="349,-49.5 349,-79.5 447,-79.5 447,-49.5 349,-49.5"/>
<text text-anchor="start" x="357" y="-67.5" font-family="Helvetica,sans-Serif" font-size="10.00">adiar::statistics::</text>
<text text-anchor="middle" x="398" y="-56.5" font-family="Helvetica,sans-Serif" font-size="10.00">prod2_t::ra_t</text>
</a>
</g>
</g>
<!-- Node5&#45;&gt;Node1 -->
<g id="edge4" class="edge">
<title>Node5&#45;&gt;Node1</title>
<path fill="none" stroke="#9a32cd" stroke-dasharray="5,2" d="M457.4,-64.5C471.16,-64.5 485.69,-64.5 498.94,-64.5"/>
<polygon fill="#9a32cd" stroke="#9a32cd" points="457.05,-61 447.05,-64.5 457.05,-68 457.05,-61"/>
<text text-anchor="middle" x="473" y="-67.5" font-family="Helvetica,sans-Serif" font-size="10.00"> ra</text>
</g>
<!-- Node6 -->
<g id="node6" class="node">
<title>Node6</title>
<g id="a_node6"><a xlink:href="structadiar_1_1statistics_1_1prod2__t_1_1pq__t.html" target="_top" xlink:title="Statistics for the double priority queue implementation.">
<polygon fill="none" stroke="black" points="349,-0.5 349,-30.5 447,-30.5 447,-0.5 349,-0.5"/>
<text text-anchor="start" x="357" y="-18.5" font-family="Helvetica,sans-Serif" font-size="10.00">adiar::statistics::</text>
<text text-anchor="middle" x="398" y="-7.5" font-family="Helvetica,sans-Serif" font-size="10.00">prod2_t::pq_t</text>
</a>
</g>
</g>
<!-- Node6&#45;&gt;Node1 -->
<g id="edge5" class="edge">
<title>Node6&#45;&gt;Node1</title>
<path fill="none" stroke="#9a32cd" stroke-dasharray="5,2" d="M454.15,-33.76C469.76,-38.93 486.57,-44.49 501.54,-49.45"/>
<polygon fill="#9a32cd" stroke="#9a32cd" points="455.21,-30.42 444.61,-30.6 453.01,-37.07 455.21,-30.42"/>
<text text-anchor="middle" x="473" y="-44.5" font-family="Helvetica,sans-Serif" font-size="10.00"> pq</text>
</g>
</g>
</svg>
