<?xml version="1.0" encoding="UTF-8" standalone="no"?>
<!DOCTYPE svg PUBLIC "-//W3C//DTD SVG 1.1//EN"
 "http://www.w3.org/Graphics/SVG/1.1/DTD/svg11.dtd">
<!-- Generated by graphviz version 2.43.0 (0)
 -->
<!-- Title: adiar::stats_t::__alg_base Pages: 1 -->
<svg width="328pt" height="318pt"
 viewBox="0.00 0.00 328.00 318.00" xmlns="http://www.w3.org/2000/svg" xmlns:xlink="http://www.w3.org/1999/xlink">
<g id="graph0" class="graph" transform="scale(1 1) rotate(0) translate(4 314)">
<title>adiar::stats_t::__alg_base</title>
<!-- Node1 -->
<g id="node1" class="node">
<title>Node1</title>
<g id="a_node1"><a xlink:title="Common statistics for all algorithms.">
<polygon fill="#bfbfbf" stroke="black" points="0,-142.5 0,-161.5 140,-161.5 140,-142.5 0,-142.5"/>
<text text-anchor="middle" x="70" y="-149.5" font-family="Helvetica,sans-Serif" font-size="10.00">adiar::stats_t::__alg_base</text>
</a>
</g>
</g>
<!-- Node2 -->
<g id="node2" class="node">
<title>Node2</title>
<g id="a_node2"><a xlink:href="structadiar_1_1stats__t_1_1count__t.html" target="_top" xlink:title="Counting algorithm statistics.">
<polygon fill="none" stroke="black" points="187,-290.5 187,-309.5 309,-309.5 309,-290.5 187,-290.5"/>
<text text-anchor="middle" x="248" y="-297.5" font-family="Helvetica,sans-Serif" font-size="10.00">adiar::stats_t::count_t</text>
</a>
</g>
</g>
<!-- Node1&#45;&gt;Node2 -->
<g id="edge1" class="edge">
<title>Node1&#45;&gt;Node2</title>
<path fill="none" stroke="midnightblue" d="M81.06,-170.72C97.24,-199 131.76,-252.36 176,-281 182,-284.88 188.77,-287.98 195.69,-290.44"/>
<polygon fill="midnightblue" stroke="midnightblue" points="84.04,-168.88 76.12,-161.84 77.92,-172.28 84.04,-168.88"/>
</g>
<!-- Node3 -->
<g id="node3" class="node">
<title>Node3</title>
<g id="a_node3"><a xlink:href="structadiar_1_1stats__t_1_1equality__t.html" target="_top" xlink:title="Equality Checking algorithm statistics.">
<polygon fill="none" stroke="black" points="180.5,-252.5 180.5,-271.5 315.5,-271.5 315.5,-252.5 180.5,-252.5"/>
<text text-anchor="middle" x="248" y="-259.5" font-family="Helvetica,sans-Serif" font-size="10.00">adiar::stats_t::equality_t</text>
</a>
</g>
</g>
<!-- Node1&#45;&gt;Node3 -->
<g id="edge2" class="edge">
<title>Node1&#45;&gt;Node3</title>
<path fill="none" stroke="midnightblue" d="M86.15,-169.22C105.15,-189.76 139.67,-223.72 176,-243 183.21,-246.83 191.26,-249.93 199.27,-252.43"/>
<polygon fill="midnightblue" stroke="midnightblue" points="88.53,-166.63 79.22,-161.57 83.34,-171.33 88.53,-166.63"/>
</g>
<!-- Node4 -->
<g id="node4" class="node">
<title>Node4</title>
<g id="a_node4"><a xlink:href="structadiar_1_1stats__t_1_1if__else__t.html" target="_top" xlink:title="If&#45;Then&#45;Else algorithm statistics.">
<polygon fill="none" stroke="black" points="201.5,-203 201.5,-233 294.5,-233 294.5,-203 201.5,-203"/>
<text text-anchor="start" x="209.5" y="-221" font-family="Helvetica,sans-Serif" font-size="10.00">adiar::stats_t::if</text>
<text text-anchor="middle" x="248" y="-210" font-family="Helvetica,sans-Serif" font-size="10.00">_else_t</text>
</a>
</g>
</g>
<!-- Node1&#45;&gt;Node4 -->
<g id="edge3" class="edge">
<title>Node1&#45;&gt;Node4</title>
<path fill="none" stroke="midnightblue" d="M104.24,-165.31C124.84,-173.47 151.88,-184.05 176,-193 184.82,-196.27 194.3,-199.68 203.36,-202.89"/>
<polygon fill="midnightblue" stroke="midnightblue" points="105.27,-161.95 94.68,-161.51 102.68,-168.46 105.27,-161.95"/>
</g>
<!-- Node5 -->
<g id="node5" class="node">
<title>Node5</title>
<g id="a_node5"><a xlink:href="structadiar_1_1stats__t_1_1intercut__t.html" target="_top" xlink:title="Intercut algorithm statistics.">
<polygon fill="none" stroke="black" points="181.5,-164.5 181.5,-183.5 314.5,-183.5 314.5,-164.5 181.5,-164.5"/>
<text text-anchor="middle" x="248" y="-171.5" font-family="Helvetica,sans-Serif" font-size="10.00">adiar::stats_t::intercut_t</text>
</a>
</g>
</g>
<!-- Node1&#45;&gt;Node5 -->
<g id="edge4" class="edge">
<title>Node1&#45;&gt;Node5</title>
<path fill="none" stroke="midnightblue" d="M150.01,-161.88C160.47,-163.18 171.11,-164.51 181.31,-165.79"/>
<polygon fill="midnightblue" stroke="midnightblue" points="150.41,-158.4 140.05,-160.63 149.54,-165.35 150.41,-158.4"/>
</g>
<!-- Node6 -->
<g id="node6" class="node">
<title>Node6</title>
<g id="a_node6"><a xlink:href="structadiar_1_1stats__t_1_1product__construction__t.html" target="_top" xlink:title="2&#45;ary Product Construction algorithm statistics.">
<polygon fill="none" stroke="black" points="186.5,-115 186.5,-145 309.5,-145 309.5,-115 186.5,-115"/>
<text text-anchor="start" x="194.5" y="-133" font-family="Helvetica,sans-Serif" font-size="10.00">adiar::stats_t::product</text>
<text text-anchor="middle" x="248" y="-122" font-family="Helvetica,sans-Serif" font-size="10.00">_construction_t</text>
</a>
</g>
</g>
<!-- Node1&#45;&gt;Node6 -->
<g id="edge5" class="edge">
<title>Node1&#45;&gt;Node6</title>
<path fill="none" stroke="midnightblue" d="M150.2,-142.1C162.36,-140.58 174.75,-139.03 186.43,-137.57"/>
<polygon fill="midnightblue" stroke="midnightblue" points="149.54,-138.65 140.05,-143.37 150.41,-145.6 149.54,-138.65"/>
</g>
<!-- Node7 -->
<g id="node7" class="node">
<title>Node7</title>
<g id="a_node7"><a xlink:href="structadiar_1_1stats__t_1_1quantify__t.html" target="_top" xlink:title="Quantification algorithm statistics.">
<polygon fill="none" stroke="black" points="180.5,-76.5 180.5,-95.5 315.5,-95.5 315.5,-76.5 180.5,-76.5"/>
<text text-anchor="middle" x="248" y="-83.5" font-family="Helvetica,sans-Serif" font-size="10.00">adiar::stats_t::quantify_t</text>
</a>
</g>
</g>
<!-- Node1&#45;&gt;Node7 -->
<g id="edge6" class="edge">
<title>Node1&#45;&gt;Node7</title>
<path fill="none" stroke="midnightblue" d="M100.05,-137.98C120.89,-128.24 149.8,-115.38 176,-106 186.73,-102.16 198.58,-98.57 209.48,-95.53"/>
<polygon fill="midnightblue" stroke="midnightblue" points="98.35,-134.91 90.8,-142.34 101.33,-141.24 98.35,-134.91"/>
</g>
<!-- Node8 -->
<g id="node8" class="node">
<title>Node8</title>
<g id="a_node8"><a xlink:href="structadiar_1_1stats__t_1_1reduce__t.html" target="_top" xlink:title="Reduce algorithm statistics.">
<polygon fill="none" stroke="black" points="184,-38.5 184,-57.5 312,-57.5 312,-38.5 184,-38.5"/>
<text text-anchor="middle" x="248" y="-45.5" font-family="Helvetica,sans-Serif" font-size="10.00">adiar::stats_t::reduce_t</text>
</a>
</g>
</g>
<!-- Node1&#45;&gt;Node8 -->
<g id="edge7" class="edge">
<title>Node1&#45;&gt;Node8</title>
<path fill="none" stroke="midnightblue" d="M87.29,-135.07C106.69,-115.85 140.92,-84.87 176,-67 183.5,-63.18 191.86,-60.06 200.13,-57.55"/>
<polygon fill="midnightblue" stroke="midnightblue" points="84.7,-132.71 80.15,-142.27 89.67,-137.63 84.7,-132.71"/>
</g>
<!-- Node9 -->
<g id="node9" class="node">
<title>Node9</title>
<g id="a_node9"><a xlink:href="structadiar_1_1stats__t_1_1substitute__t.html" target="_top" xlink:title="Substitution algorithm statistics.">
<polygon fill="none" stroke="black" points="176,-0.5 176,-19.5 320,-19.5 320,-0.5 176,-0.5"/>
<text text-anchor="middle" x="248" y="-7.5" font-family="Helvetica,sans-Serif" font-size="10.00">adiar::stats_t::substitute_t</text>
</a>
</g>
</g>
<!-- Node1&#45;&gt;Node9 -->
<g id="edge8" class="edge">
<title>Node1&#45;&gt;Node9</title>
<path fill="none" stroke="midnightblue" d="M81.75,-133.41C98.41,-106.26 133.07,-56.09 176,-29 182.15,-25.12 189.08,-22.02 196.14,-19.56"/>
<polygon fill="midnightblue" stroke="midnightblue" points="78.57,-131.9 76.44,-142.28 84.58,-135.49 78.57,-131.9"/>
</g>
</g>
</svg>
