<?xml version="1.0" encoding="UTF-8" standalone="no"?>
<!DOCTYPE svg PUBLIC "-//W3C//DTD SVG 1.1//EN"
 "http://www.w3.org/Graphics/SVG/1.1/DTD/svg11.dtd">
<!-- Generated by graphviz version 2.43.0 (0)
 -->
<!-- Title: adiar::statistics::nested_sweeping_t::inner_t Pages: 1 -->
<svg width="849pt" height="110pt"
 viewBox="0.00 0.00 849.00 110.00" xmlns="http://www.w3.org/2000/svg" xmlns:xlink="http://www.w3.org/1999/xlink">
<g id="graph0" class="graph" transform="scale(1 1) rotate(0) translate(4 106)">
<title>adiar::statistics::nested_sweeping_t::inner_t</title>
<!-- Node1 -->
<g id="node1" class="node">
<title>Node1</title>
<g id="a_node1"><a xlink:title="Inner Sweep(s)">
<polygon fill="#bfbfbf" stroke="black" points="691,-36 691,-66 841,-66 841,-36 691,-36"/>
<text text-anchor="start" x="699" y="-54" font-family="Helvetica,sans-Serif" font-size="10.00">adiar::statistics::</text>
<text text-anchor="middle" x="766" y="-43" font-family="Helvetica,sans-Serif" font-size="10.00">nested_sweeping_t::inner_t</text>
</a>
</g>
</g>
<!-- Node2 -->
<g id="node2" class="node">
<title>Node2</title>
<g id="a_node2"><a xlink:href="structadiar_1_1statistics_1_1nested__sweeping__t_1_1inner__t_1_1down__t.html" target="_top" xlink:title="Inner Down Sweep.">
<polygon fill="none" stroke="black" points="484,-60.5 484,-101.5 625,-101.5 625,-60.5 484,-60.5"/>
<text text-anchor="start" x="492" y="-89.5" font-family="Helvetica,sans-Serif" font-size="10.00">adiar::statistics::</text>
<text text-anchor="start" x="492" y="-78.5" font-family="Helvetica,sans-Serif" font-size="10.00">nested_sweeping_t::inner</text>
<text text-anchor="middle" x="554.5" y="-67.5" font-family="Helvetica,sans-Serif" font-size="10.00">_t::down_t</text>
</a>
</g>
</g>
<!-- Node2&#45;&gt;Node1 -->
<g id="edge1" class="edge">
<title>Node2&#45;&gt;Node1</title>
<path fill="none" stroke="#9a32cd" stroke-dasharray="5,2" d="M635.28,-69.58C653.53,-66.96 672.87,-64.19 690.87,-61.61"/>
<polygon fill="#9a32cd" stroke="#9a32cd" points="634.66,-66.13 625.26,-71.01 635.66,-73.06 634.66,-66.13"/>
<text text-anchor="middle" x="658" y="-70" font-family="Helvetica,sans-Serif" font-size="10.00"> down</text>
</g>
<!-- Node3 -->
<g id="node3" class="node">
<title>Node3</title>
<g id="a_node3"><a xlink:href="structadiar_1_1statistics_1_1____alg__base.html" target="_top" xlink:title="Common statistics for all algorithms.">
<polygon fill="none" stroke="black" points="349,-35 349,-65 447,-65 447,-35 349,-35"/>
<text text-anchor="start" x="357" y="-53" font-family="Helvetica,sans-Serif" font-size="10.00">adiar::statistics::</text>
<text text-anchor="middle" x="398" y="-42" font-family="Helvetica,sans-Serif" font-size="10.00">__alg_base</text>
</a>
</g>
</g>
<!-- Node3&#45;&gt;Node2 -->
<g id="edge2" class="edge">
<title>Node3&#45;&gt;Node2</title>
<path fill="none" stroke="midnightblue" d="M457.12,-61.66C465.88,-63.42 474.98,-65.24 483.94,-67.04"/>
<polygon fill="midnightblue" stroke="midnightblue" points="457.53,-58.17 447.04,-59.64 456.15,-65.04 457.53,-58.17"/>
</g>
<!-- Node6 -->
<g id="node6" class="node">
<title>Node6</title>
<g id="a_node6"><a xlink:href="structadiar_1_1statistics_1_1nested__sweeping__t_1_1inner__t_1_1up__t.html" target="_top" xlink:title="Inner Up Sweep.">
<polygon fill="none" stroke="black" points="484,-0.5 484,-41.5 625,-41.5 625,-0.5 484,-0.5"/>
<text text-anchor="start" x="492" y="-29.5" font-family="Helvetica,sans-Serif" font-size="10.00">adiar::statistics::</text>
<text text-anchor="start" x="492" y="-18.5" font-family="Helvetica,sans-Serif" font-size="10.00">nested_sweeping_t::inner</text>
<text text-anchor="middle" x="554.5" y="-7.5" font-family="Helvetica,sans-Serif" font-size="10.00">_t::up_t</text>
</a>
</g>
</g>
<!-- Node3&#45;&gt;Node6 -->
<g id="edge6" class="edge">
<title>Node3&#45;&gt;Node6</title>
<path fill="none" stroke="midnightblue" d="M457.12,-39.09C465.88,-37.45 474.98,-35.74 483.94,-34.06"/>
<polygon fill="midnightblue" stroke="midnightblue" points="456.22,-35.7 447.04,-40.98 457.51,-42.58 456.22,-35.7"/>
</g>
<!-- Node4 -->
<g id="node4" class="node">
<title>Node4</title>
<g id="a_node4"><a xlink:href="structadiar_1_1statistics_1_1____alg__base_1_1____lpq__t.html" target="_top" xlink:title="Type and usage of this algorithm&#39;s levelized priority queue.">
<polygon fill="none" stroke="black" points="183,-35 183,-65 294,-65 294,-35 183,-35"/>
<text text-anchor="start" x="191" y="-53" font-family="Helvetica,sans-Serif" font-size="10.00">adiar::statistics::</text>
<text text-anchor="middle" x="238.5" y="-42" font-family="Helvetica,sans-Serif" font-size="10.00">__alg_base::__lpq_t</text>
</a>
</g>
</g>
<!-- Node4&#45;&gt;Node3 -->
<g id="edge3" class="edge">
<title>Node4&#45;&gt;Node3</title>
<path fill="none" stroke="#9a32cd" stroke-dasharray="5,2" d="M304.3,-50C319.18,-50 334.73,-50 348.76,-50"/>
<polygon fill="#9a32cd" stroke="#9a32cd" points="304.14,-46.5 294.14,-50 304.14,-53.5 304.14,-46.5"/>
<text text-anchor="middle" x="321.5" y="-53" font-family="Helvetica,sans-Serif" font-size="10.00"> lpq</text>
</g>
<!-- Node5 -->
<g id="node5" class="node">
<title>Node5</title>
<g id="a_node5"><a xlink:href="structadiar_1_1statistics_1_1levelized__priority__queue__t.html" target="_top" xlink:title="Levelized Priority Queue statistics.">
<polygon fill="none" stroke="black" points="0,-35 0,-65 146,-65 146,-35 0,-35"/>
<text text-anchor="start" x="8" y="-53" font-family="Helvetica,sans-Serif" font-size="10.00">adiar::statistics::</text>
<text text-anchor="middle" x="73" y="-42" font-family="Helvetica,sans-Serif" font-size="10.00">levelized_priority_queue_t</text>
</a>
</g>
</g>
<!-- Node5&#45;&gt;Node4 -->
<g id="edge4" class="edge">
<title>Node5&#45;&gt;Node4</title>
<path fill="none" stroke="midnightblue" d="M156.34,-50C165.34,-50 174.34,-50 182.89,-50"/>
<polygon fill="midnightblue" stroke="midnightblue" points="156.19,-46.5 146.19,-50 156.19,-53.5 156.19,-46.5"/>
</g>
<!-- Node6&#45;&gt;Node1 -->
<g id="edge5" class="edge">
<title>Node6&#45;&gt;Node1</title>
<path fill="none" stroke="#9a32cd" stroke-dasharray="5,2" d="M635.28,-32.42C653.53,-35.04 672.87,-37.81 690.87,-40.39"/>
<polygon fill="#9a32cd" stroke="#9a32cd" points="635.66,-28.94 625.26,-30.99 634.66,-35.87 635.66,-28.94"/>
<text text-anchor="middle" x="658" y="-41" font-family="Helvetica,sans-Serif" font-size="10.00"> up</text>
</g>
</g>
</svg>
