<?xml version="1.0" encoding="UTF-8" standalone="no"?>
<!DOCTYPE svg PUBLIC "-//W3C//DTD SVG 1.1//EN"
 "http://www.w3.org/Graphics/SVG/1.1/DTD/svg11.dtd">
<!-- Generated by graphviz version 2.43.0 (0)
 -->
<!-- Title: adiar::stats_t Pages: 1 -->
<svg width="891pt" height="427pt"
 viewBox="0.00 0.00 891.00 426.50" xmlns="http://www.w3.org/2000/svg" xmlns:xlink="http://www.w3.org/1999/xlink">
<g id="graph0" class="graph" transform="scale(1 1) rotate(0) translate(4 422.5)">
<title>adiar::stats_t</title>
<!-- Node1 -->
<g id="node1" class="node">
<title>Node1</title>
<g id="a_node1"><a xlink:title="Available statistics from algorithm&#39;s and data structures.">
<polygon fill="#bfbfbf" stroke="black" points="803,-206 803,-225 883,-225 883,-206 803,-206"/>
<text text-anchor="middle" x="843" y="-213" font-family="Helvetica,sans-Serif" font-size="10.00">adiar::stats_t</text>
</a>
</g>
</g>
<!-- Node2 -->
<g id="node2" class="node">
<title>Node2</title>
<g id="a_node2"><a xlink:href="structadiar_1_1stats__t_1_1levelized__priority__queue__t.html" target="_top" xlink:title="Levelized Priority Queue statistics.">
<polygon fill="none" stroke="black" points="0,-359.5 0,-389.5 131,-389.5 131,-359.5 0,-359.5"/>
<text text-anchor="start" x="8" y="-377.5" font-family="Helvetica,sans-Serif" font-size="10.00">adiar::stats_t::levelized</text>
<text text-anchor="middle" x="65.5" y="-366.5" font-family="Helvetica,sans-Serif" font-size="10.00">_priority_queue_t</text>
</a>
</g>
</g>
<!-- Node2&#45;&gt;Node1 -->
<g id="edge1" class="edge">
<title>Node2&#45;&gt;Node1</title>
<path fill="none" stroke="#9a32cd" stroke-dasharray="5,2" d="M141.38,-389.35C167.14,-393.31 196.23,-396.5 223,-396.5 223,-396.5 223,-396.5 644,-396.5 714.36,-396.5 735,-374.01 785,-324.5 815.04,-294.75 832.71,-245.81 839.17,-225.17"/>
<polygon fill="#9a32cd" stroke="#9a32cd" points="141.74,-385.86 131.32,-387.74 140.64,-392.78 141.74,-385.86"/>
<text text-anchor="start" x="361" y="-410.5" font-family="Helvetica,sans-Serif" font-size="10.00"> levelized_priority</text>
<text text-anchor="middle" x="405" y="-399.5" font-family="Helvetica,sans-Serif" font-size="10.00">_queue</text>
</g>
<!-- Node5 -->
<g id="node5" class="node">
<title>Node5</title>
<g id="a_node5"><a xlink:href="structadiar_1_1stats__t_1_1____alg__base_1_1____lpq.html" target="_top" xlink:title="Type and usage of this algorithm&#39;s levelized priority queue.">
<polygon fill="none" stroke="black" points="168,-300.5 168,-330.5 280,-330.5 280,-300.5 168,-300.5"/>
<text text-anchor="start" x="176" y="-318.5" font-family="Helvetica,sans-Serif" font-size="10.00">adiar::stats_t::__alg</text>
<text text-anchor="middle" x="224" y="-307.5" font-family="Helvetica,sans-Serif" font-size="10.00">_base::__lpq</text>
</a>
</g>
</g>
<!-- Node2&#45;&gt;Node5 -->
<g id="edge5" class="edge">
<title>Node2&#45;&gt;Node5</title>
<path fill="none" stroke="midnightblue" d="M115.78,-355.92C137.5,-347.73 162.68,-338.24 183.18,-330.51"/>
<polygon fill="midnightblue" stroke="midnightblue" points="114.52,-352.66 106.4,-359.46 116.99,-359.21 114.52,-352.66"/>
</g>
<!-- Node3 -->
<g id="node3" class="node">
<title>Node3</title>
<g id="a_node3"><a xlink:href="structadiar_1_1stats__t_1_1intercut__t.html" target="_top" xlink:title="Intercut algorithm statistics.">
<polygon fill="none" stroke="black" points="576.5,-206 576.5,-225 709.5,-225 709.5,-206 576.5,-206"/>
<text text-anchor="middle" x="643" y="-213" font-family="Helvetica,sans-Serif" font-size="10.00">adiar::stats_t::intercut_t</text>
</a>
</g>
</g>
<!-- Node3&#45;&gt;Node1 -->
<g id="edge2" class="edge">
<title>Node3&#45;&gt;Node1</title>
<path fill="none" stroke="#9a32cd" stroke-dasharray="5,2" d="M719.93,-215.5C748.21,-215.5 779.14,-215.5 802.79,-215.5"/>
<polygon fill="#9a32cd" stroke="#9a32cd" points="719.66,-212 709.66,-215.5 719.66,-219 719.66,-212"/>
<text text-anchor="middle" x="759" y="-218.5" font-family="Helvetica,sans-Serif" font-size="10.00"> intercut</text>
</g>
<!-- Node4 -->
<g id="node4" class="node">
<title>Node4</title>
<g id="a_node4"><a xlink:href="structadiar_1_1stats__t_1_1____alg__base.html" target="_top" xlink:title="Common statistics for all algorithms.">
<polygon fill="none" stroke="black" points="335,-193 335,-212 475,-212 475,-193 335,-193"/>
<text text-anchor="middle" x="405" y="-200" font-family="Helvetica,sans-Serif" font-size="10.00">adiar::stats_t::__alg_base</text>
</a>
</g>
</g>
<!-- Node4&#45;&gt;Node3 -->
<g id="edge3" class="edge">
<title>Node4&#45;&gt;Node3</title>
<path fill="none" stroke="midnightblue" d="M485.51,-206.88C515.07,-208.51 548.26,-210.34 576.43,-211.89"/>
<polygon fill="midnightblue" stroke="midnightblue" points="485.39,-203.37 475.21,-206.31 485.01,-210.36 485.39,-203.37"/>
</g>
<!-- Node6 -->
<g id="node6" class="node">
<title>Node6</title>
<g id="a_node6"><a xlink:href="structadiar_1_1stats__t_1_1equality__t.html" target="_top" xlink:title="Equality Checking algorithm statistics.">
<polygon fill="none" stroke="black" points="575.5,-320 575.5,-339 710.5,-339 710.5,-320 575.5,-320"/>
<text text-anchor="middle" x="643" y="-327" font-family="Helvetica,sans-Serif" font-size="10.00">adiar::stats_t::equality_t</text>
</a>
</g>
</g>
<!-- Node4&#45;&gt;Node6 -->
<g id="edge7" class="edge">
<title>Node4&#45;&gt;Node6</title>
<path fill="none" stroke="midnightblue" d="M425.44,-218.59C455.02,-242.25 513.93,-286.24 571,-310.5 579.69,-314.19 589.29,-317.34 598.54,-319.95"/>
<polygon fill="midnightblue" stroke="midnightblue" points="427.55,-215.79 417.57,-212.21 423.14,-221.23 427.55,-215.79"/>
</g>
<!-- Node9 -->
<g id="node9" class="node">
<title>Node9</title>
<g id="a_node9"><a xlink:href="structadiar_1_1stats__t_1_1quantify__t.html" target="_top" xlink:title="Quantification algorithm statistics.">
<polygon fill="none" stroke="black" points="575.5,-92 575.5,-111 710.5,-111 710.5,-92 575.5,-92"/>
<text text-anchor="middle" x="643" y="-99" font-family="Helvetica,sans-Serif" font-size="10.00">adiar::stats_t::quantify_t</text>
</a>
</g>
</g>
<!-- Node4&#45;&gt;Node9 -->
<g id="edge11" class="edge">
<title>Node4&#45;&gt;Node9</title>
<path fill="none" stroke="midnightblue" d="M431.41,-187.87C463.22,-170.03 519.75,-139.87 571,-120.5 580.43,-116.94 590.8,-113.76 600.63,-111.08"/>
<polygon fill="midnightblue" stroke="midnightblue" points="429.35,-185.01 422.37,-192.98 432.8,-191.1 429.35,-185.01"/>
</g>
<!-- Node10 -->
<g id="node10" class="node">
<title>Node10</title>
<g id="a_node10"><a xlink:href="structadiar_1_1stats__t_1_1substitute__t.html" target="_top" xlink:title="Substitution algorithm statistics.">
<polygon fill="none" stroke="black" points="571,-282 571,-301 715,-301 715,-282 571,-282"/>
<text text-anchor="middle" x="643" y="-289" font-family="Helvetica,sans-Serif" font-size="10.00">adiar::stats_t::substitute_t</text>
</a>
</g>
</g>
<!-- Node4&#45;&gt;Node10 -->
<g id="edge13" class="edge">
<title>Node4&#45;&gt;Node10</title>
<path fill="none" stroke="midnightblue" d="M435.36,-216.43C467.98,-231.56 522.47,-255.8 571,-272.5 581.01,-275.95 592,-279.15 602.27,-281.92"/>
<polygon fill="midnightblue" stroke="midnightblue" points="436.51,-213.11 425.97,-212.05 433.55,-219.45 436.51,-213.11"/>
</g>
<!-- Node11 -->
<g id="node11" class="node">
<title>Node11</title>
<g id="a_node11"><a xlink:href="structadiar_1_1stats__t_1_1prod2__t.html" target="_top" xlink:title="2&#45;ary Product Construction algorithm statistics.">
<polygon fill="none" stroke="black" points="581.5,-54 581.5,-73 704.5,-73 704.5,-54 581.5,-54"/>
<text text-anchor="middle" x="643" y="-61" font-family="Helvetica,sans-Serif" font-size="10.00">adiar::stats_t::prod2_t</text>
</a>
</g>
</g>
<!-- Node4&#45;&gt;Node11 -->
<g id="edge15" class="edge">
<title>Node4&#45;&gt;Node11</title>
<path fill="none" stroke="midnightblue" d="M422.92,-185.1C439.74,-168.36 466.75,-142.94 493,-124.5 525.22,-101.87 534.4,-97.02 571,-82.5 580.13,-78.88 590.19,-75.71 599.8,-73.06"/>
<polygon fill="midnightblue" stroke="midnightblue" points="420.08,-182.99 415.53,-192.55 425.05,-187.92 420.08,-182.99"/>
</g>
<!-- Node14 -->
<g id="node14" class="node">
<title>Node14</title>
<g id="a_node14"><a xlink:href="structadiar_1_1stats__t_1_1reduce__t.html" target="_top" xlink:title="Reduce algorithm statistics.">
<polygon fill="none" stroke="black" points="579,-244 579,-263 707,-263 707,-244 579,-244"/>
<text text-anchor="middle" x="643" y="-251" font-family="Helvetica,sans-Serif" font-size="10.00">adiar::stats_t::reduce_t</text>
</a>
</g>
</g>
<!-- Node4&#45;&gt;Node14 -->
<g id="edge19" class="edge">
<title>Node4&#45;&gt;Node14</title>
<path fill="none" stroke="midnightblue" d="M460.09,-214.19C501.78,-223.2 558.7,-235.5 597.7,-243.93"/>
<polygon fill="midnightblue" stroke="midnightblue" points="460.63,-210.72 450.11,-212.03 459.15,-217.57 460.63,-210.72"/>
</g>
<!-- Node15 -->
<g id="node15" class="node">
<title>Node15</title>
<g id="a_node15"><a xlink:href="structadiar_1_1stats__t_1_1count__t.html" target="_top" xlink:title="Counting algorithm statistics.">
<polygon fill="none" stroke="black" points="582,-168 582,-187 704,-187 704,-168 582,-168"/>
<text text-anchor="middle" x="643" y="-175" font-family="Helvetica,sans-Serif" font-size="10.00">adiar::stats_t::count_t</text>
</a>
</g>
</g>
<!-- Node4&#45;&gt;Node15 -->
<g id="edge21" class="edge">
<title>Node4&#45;&gt;Node15</title>
<path fill="none" stroke="midnightblue" d="M485.31,-194.1C516.89,-190.75 552.63,-186.97 581.99,-183.86"/>
<polygon fill="midnightblue" stroke="midnightblue" points="484.79,-190.63 475.21,-195.17 485.53,-197.6 484.79,-190.63"/>
</g>
<!-- Node16 -->
<g id="node16" class="node">
<title>Node16</title>
<g id="a_node16"><a xlink:href="structadiar_1_1stats__t_1_1prod3__t.html" target="_top" xlink:title="3&#45;ary Product Construction algorithm statistics.">
<polygon fill="none" stroke="black" points="581.5,-130 581.5,-149 704.5,-149 704.5,-130 581.5,-130"/>
<text text-anchor="middle" x="643" y="-137" font-family="Helvetica,sans-Serif" font-size="10.00">adiar::stats_t::prod3_t</text>
</a>
</g>
</g>
<!-- Node4&#45;&gt;Node16 -->
<g id="edge23" class="edge">
<title>Node4&#45;&gt;Node16</title>
<path fill="none" stroke="midnightblue" d="M451.66,-190.31C496.78,-178.27 564.87,-160.09 606.21,-149.05"/>
<polygon fill="midnightblue" stroke="midnightblue" points="450.6,-186.97 441.84,-192.93 452.41,-193.73 450.6,-186.97"/>
</g>
<!-- Node5&#45;&gt;Node4 -->
<g id="edge4" class="edge">
<title>Node5&#45;&gt;Node4</title>
<path fill="none" stroke="#9a32cd" stroke-dasharray="5,2" d="M257.6,-294.92C296.4,-270.43 359.56,-230.55 388.56,-212.25"/>
<polygon fill="#9a32cd" stroke="#9a32cd" points="255.36,-292.2 248.77,-300.49 259.09,-298.12 255.36,-292.2"/>
<text text-anchor="middle" x="307.5" y="-271.5" font-family="Helvetica,sans-Serif" font-size="10.00"> lpq</text>
</g>
<!-- Node6&#45;&gt;Node1 -->
<g id="edge6" class="edge">
<title>Node6&#45;&gt;Node1</title>
<path fill="none" stroke="#9a32cd" stroke-dasharray="5,2" d="M711.9,-317.44C736.48,-310.81 763.47,-300.72 785,-285.5 808.55,-268.86 827.69,-239.98 836.6,-225.05"/>
<polygon fill="#9a32cd" stroke="#9a32cd" points="710.72,-314.13 701.9,-319.99 712.45,-320.91 710.72,-314.13"/>
<text text-anchor="middle" x="759" y="-312.5" font-family="Helvetica,sans-Serif" font-size="10.00"> equality</text>
</g>
<!-- Node7 -->
<g id="node7" class="node">
<title>Node7</title>
<g id="a_node7"><a xlink:href="structadiar_1_1stats__t_1_1equality__t_1_1slow__t.html" target="_top" xlink:title="Statistics from O(N log N) time&#45;forward processing equality checking algorithm.">
<polygon fill="none" stroke="black" points="342,-329.5 342,-359.5 468,-359.5 468,-329.5 342,-329.5"/>
<text text-anchor="start" x="350" y="-347.5" font-family="Helvetica,sans-Serif" font-size="10.00">adiar::stats_t::equality</text>
<text text-anchor="middle" x="405" y="-336.5" font-family="Helvetica,sans-Serif" font-size="10.00">_t::slow_t</text>
</a>
</g>
</g>
<!-- Node7&#45;&gt;Node6 -->
<g id="edge8" class="edge">
<title>Node7&#45;&gt;Node6</title>
<path fill="none" stroke="#9a32cd" stroke-dasharray="5,2" d="M478.3,-339.9C509.25,-337.94 545.16,-335.66 575.45,-333.73"/>
<polygon fill="#9a32cd" stroke="#9a32cd" points="477.76,-336.43 468.01,-340.56 478.21,-343.42 477.76,-336.43"/>
<text text-anchor="middle" x="523" y="-341.5" font-family="Helvetica,sans-Serif" font-size="10.00"> slow_check</text>
</g>
<!-- Node8 -->
<g id="node8" class="node">
<title>Node8</title>
<g id="a_node8"><a xlink:href="structadiar_1_1stats__t_1_1equality__t_1_1fast__t.html" target="_top" xlink:title="Statistics from O(N) linear&#45;scan equality checking algorithm.">
<polygon fill="none" stroke="black" points="342,-280.5 342,-310.5 468,-310.5 468,-280.5 342,-280.5"/>
<text text-anchor="start" x="350" y="-298.5" font-family="Helvetica,sans-Serif" font-size="10.00">adiar::stats_t::equality</text>
<text text-anchor="middle" x="405" y="-287.5" font-family="Helvetica,sans-Serif" font-size="10.00">_t::fast_t</text>
</a>
</g>
</g>
<!-- Node8&#45;&gt;Node6 -->
<g id="edge9" class="edge">
<title>Node8&#45;&gt;Node6</title>
<path fill="none" stroke="#9a32cd" stroke-dasharray="5,2" d="M477.93,-305.86C509.11,-310.35 545.37,-315.58 575.86,-319.97"/>
<polygon fill="#9a32cd" stroke="#9a32cd" points="478.4,-302.39 468.01,-304.43 477.4,-309.32 478.4,-302.39"/>
<text text-anchor="middle" x="523" y="-319.5" font-family="Helvetica,sans-Serif" font-size="10.00"> fast_check</text>
</g>
<!-- Node9&#45;&gt;Node1 -->
<g id="edge10" class="edge">
<title>Node9&#45;&gt;Node1</title>
<path fill="none" stroke="#9a32cd" stroke-dasharray="5,2" d="M713.79,-113.52C737.86,-119.97 764.02,-129.76 785,-144.5 808.8,-161.22 827.83,-190.58 836.66,-205.78"/>
<polygon fill="#9a32cd" stroke="#9a32cd" points="714.54,-110.1 703.98,-111.04 712.82,-116.88 714.54,-110.1"/>
<text text-anchor="middle" x="759" y="-147.5" font-family="Helvetica,sans-Serif" font-size="10.00"> quantify</text>
</g>
<!-- Node10&#45;&gt;Node1 -->
<g id="edge12" class="edge">
<title>Node10&#45;&gt;Node1</title>
<path fill="none" stroke="#9a32cd" stroke-dasharray="5,2" d="M704.87,-279.69C730.29,-273.59 759.73,-264.98 785,-253.5 801.67,-245.92 818.91,-233.71 830.01,-225.18"/>
<polygon fill="#9a32cd" stroke="#9a32cd" points="703.93,-276.31 694.98,-281.98 705.51,-283.13 703.93,-276.31"/>
<text text-anchor="middle" x="759" y="-273.5" font-family="Helvetica,sans-Serif" font-size="10.00"> substitute</text>
</g>
<!-- Node11&#45;&gt;Node1 -->
<g id="edge14" class="edge">
<title>Node11&#45;&gt;Node1</title>
<path fill="none" stroke="#9a32cd" stroke-dasharray="5,2" d="M714.82,-72.65C739.22,-78.7 765.34,-88.77 785,-105.5 817.6,-133.24 833.96,-184.32 839.63,-205.69"/>
<polygon fill="#9a32cd" stroke="#9a32cd" points="715.37,-69.18 704.85,-70.36 713.81,-76.01 715.37,-69.18"/>
<text text-anchor="middle" x="759" y="-108.5" font-family="Helvetica,sans-Serif" font-size="10.00"> prod2</text>
</g>
<!-- Node12 -->
<g id="node12" class="node">
<title>Node12</title>
<g id="a_node12"><a xlink:href="structadiar_1_1stats__t_1_1prod2__t_1_1ra__t.html" target="_top" xlink:title="Statistics for the double priority queue implementation.">
<polygon fill="none" stroke="black" points="348,-49.5 348,-79.5 462,-79.5 462,-49.5 348,-49.5"/>
<text text-anchor="start" x="356" y="-67.5" font-family="Helvetica,sans-Serif" font-size="10.00">adiar::stats_t::prod2</text>
<text text-anchor="middle" x="405" y="-56.5" font-family="Helvetica,sans-Serif" font-size="10.00">_t::ra_t</text>
</a>
</g>
</g>
<!-- Node12&#45;&gt;Node11 -->
<g id="edge16" class="edge">
<title>Node12&#45;&gt;Node11</title>
<path fill="none" stroke="#9a32cd" stroke-dasharray="5,2" d="M472.58,-64.22C506.71,-64.07 547.98,-63.9 581.24,-63.76"/>
<polygon fill="#9a32cd" stroke="#9a32cd" points="472.21,-60.72 462.23,-64.26 472.24,-67.72 472.21,-60.72"/>
<text text-anchor="middle" x="523" y="-67.5" font-family="Helvetica,sans-Serif" font-size="10.00"> ra</text>
</g>
<!-- Node13 -->
<g id="node13" class="node">
<title>Node13</title>
<g id="a_node13"><a xlink:href="structadiar_1_1stats__t_1_1prod2__t_1_1pq__t.html" target="_top" xlink:title="Statistics for the double priority queue implementation.">
<polygon fill="none" stroke="black" points="348,-0.5 348,-30.5 462,-30.5 462,-0.5 348,-0.5"/>
<text text-anchor="start" x="356" y="-18.5" font-family="Helvetica,sans-Serif" font-size="10.00">adiar::stats_t::prod2</text>
<text text-anchor="middle" x="405" y="-7.5" font-family="Helvetica,sans-Serif" font-size="10.00">_t::pq_t</text>
</a>
</g>
</g>
<!-- Node13&#45;&gt;Node11 -->
<g id="edge17" class="edge">
<title>Node13&#45;&gt;Node11</title>
<path fill="none" stroke="#9a32cd" stroke-dasharray="5,2" d="M472.45,-29.02C511.47,-36.95 559.86,-46.79 594.94,-53.93"/>
<polygon fill="#9a32cd" stroke="#9a32cd" points="472.73,-25.5 462.23,-26.94 471.33,-32.36 472.73,-25.5"/>
<text text-anchor="middle" x="523" y="-48.5" font-family="Helvetica,sans-Serif" font-size="10.00"> pq</text>
</g>
<!-- Node14&#45;&gt;Node1 -->
<g id="edge18" class="edge">
<title>Node14&#45;&gt;Node1</title>
<path fill="none" stroke="#9a32cd" stroke-dasharray="5,2" d="M715.98,-242.28C738.17,-238.54 762.65,-234.14 785,-229.5 791.49,-228.15 798.35,-226.59 804.99,-225"/>
<polygon fill="#9a32cd" stroke="#9a32cd" points="715.24,-238.85 705.95,-243.95 716.39,-245.76 715.24,-238.85"/>
<text text-anchor="middle" x="759" y="-241.5" font-family="Helvetica,sans-Serif" font-size="10.00"> reduce</text>
</g>
<!-- Node15&#45;&gt;Node1 -->
<g id="edge20" class="edge">
<title>Node15&#45;&gt;Node1</title>
<path fill="none" stroke="#9a32cd" stroke-dasharray="5,2" d="M714.16,-187.59C736.85,-191.21 762.07,-195.62 785,-200.5 792.41,-202.07 800.29,-203.99 807.77,-205.92"/>
<polygon fill="#9a32cd" stroke="#9a32cd" points="714.69,-184.13 704.27,-186.03 713.61,-191.05 714.69,-184.13"/>
<text text-anchor="middle" x="759" y="-203.5" font-family="Helvetica,sans-Serif" font-size="10.00"> count</text>
</g>
<!-- Node16&#45;&gt;Node1 -->
<g id="edge22" class="edge">
<title>Node16&#45;&gt;Node1</title>
<path fill="none" stroke="#9a32cd" stroke-dasharray="5,2" d="M707.74,-151.33C732.51,-157.18 760.72,-165.41 785,-176.5 802.02,-184.27 819.46,-197.05 830.49,-205.85"/>
<polygon fill="#9a32cd" stroke="#9a32cd" points="708.24,-147.86 697.71,-149.05 706.68,-154.68 708.24,-147.86"/>
<text text-anchor="middle" x="759" y="-179.5" font-family="Helvetica,sans-Serif" font-size="10.00"> prod3</text>
</g>
</g>
</svg>
