<?xml version="1.0" encoding="UTF-8" standalone="no"?>
<!DOCTYPE svg PUBLIC "-//W3C//DTD SVG 1.1//EN"
 "http://www.w3.org/Graphics/SVG/1.1/DTD/svg11.dtd">
<!-- Generated by graphviz version 2.43.0 (0)
 -->
<!-- Title: adiar::statistics Pages: 1 -->
<svg width="1472pt" height="655pt"
 viewBox="0.00 0.00 1472.00 654.50" xmlns="http://www.w3.org/2000/svg" xmlns:xlink="http://www.w3.org/1999/xlink">
<g id="graph0" class="graph" transform="scale(1 1) rotate(0) translate(4 650.5)">
<title>adiar::statistics</title>
<!-- Node1 -->
<g id="node1" class="node">
<title>Node1</title>
<g id="a_node1"><a xlink:title="Available statistics from algorithm&#39;s and data structures.">
<polygon fill="#bfbfbf" stroke="black" points="1372,-307 1372,-326 1464,-326 1464,-307 1372,-307"/>
<text text-anchor="middle" x="1418" y="-314" font-family="Helvetica,sans-Serif" font-size="10.00">adiar::statistics</text>
</a>
</g>
</g>
<!-- Node2 -->
<g id="node2" class="node">
<title>Node2</title>
<g id="a_node2"><a xlink:href="structadiar_1_1statistics_1_1intercut__t.html" target="_top" xlink:title="Intercut algorithm statistics.">
<polygon fill="none" stroke="black" points="720,-288.5 720,-318.5 818,-318.5 818,-288.5 720,-288.5"/>
<text text-anchor="start" x="728" y="-306.5" font-family="Helvetica,sans-Serif" font-size="10.00">adiar::statistics::</text>
<text text-anchor="middle" x="769" y="-295.5" font-family="Helvetica,sans-Serif" font-size="10.00">intercut_t</text>
</a>
</g>
</g>
<!-- Node2&#45;&gt;Node1 -->
<g id="edge1" class="edge">
<title>Node2&#45;&gt;Node1</title>
<path fill="none" stroke="#9a32cd" stroke-dasharray="5,2" d="M828.43,-303C897.92,-302.55 1017.43,-302.28 1120,-304.5 1209.38,-306.43 1313.81,-311.25 1371.98,-314.15"/>
<polygon fill="#9a32cd" stroke="#9a32cd" points="828.11,-299.5 818.13,-303.07 828.15,-306.5 828.11,-299.5"/>
<text text-anchor="middle" x="1071" y="-307.5" font-family="Helvetica,sans-Serif" font-size="10.00"> intercut</text>
</g>
<!-- Node3 -->
<g id="node3" class="node">
<title>Node3</title>
<g id="a_node3"><a xlink:href="structadiar_1_1statistics_1_1____alg__base.html" target="_top" xlink:title="Common statistics for all algorithms.">
<polygon fill="none" stroke="black" points="374,-310.5 374,-340.5 472,-340.5 472,-310.5 374,-310.5"/>
<text text-anchor="start" x="382" y="-328.5" font-family="Helvetica,sans-Serif" font-size="10.00">adiar::statistics::</text>
<text text-anchor="middle" x="423" y="-317.5" font-family="Helvetica,sans-Serif" font-size="10.00">__alg_base</text>
</a>
</g>
</g>
<!-- Node3&#45;&gt;Node2 -->
<g id="edge2" class="edge">
<title>Node3&#45;&gt;Node2</title>
<path fill="none" stroke="midnightblue" d="M482.56,-321.75C549.45,-317.48 657.66,-310.56 719.86,-306.58"/>
<polygon fill="midnightblue" stroke="midnightblue" points="481.95,-318.29 472.19,-322.42 482.4,-325.27 481.95,-318.29"/>
</g>
<!-- Node6 -->
<g id="node6" class="node">
<title>Node6</title>
<g id="a_node6"><a xlink:href="structadiar_1_1statistics_1_1select__t.html" target="_top" xlink:title="Select algorithm statistics.">
<polygon fill="none" stroke="black" points="1022,-604.5 1022,-634.5 1120,-634.5 1120,-604.5 1022,-604.5"/>
<text text-anchor="start" x="1030" y="-622.5" font-family="Helvetica,sans-Serif" font-size="10.00">adiar::statistics::</text>
<text text-anchor="middle" x="1071" y="-611.5" font-family="Helvetica,sans-Serif" font-size="10.00">select_t</text>
</a>
</g>
</g>
<!-- Node3&#45;&gt;Node6 -->
<g id="edge6" class="edge">
<title>Node3&#45;&gt;Node6</title>
<path fill="none" stroke="midnightblue" d="M440.51,-348.86C480.76,-403.53 590.22,-539 720,-589.5 821.88,-629.14 952.68,-627.98 1021.96,-623.72"/>
<polygon fill="midnightblue" stroke="midnightblue" points="443.15,-346.54 434.44,-340.5 437.49,-350.65 443.15,-346.54"/>
</g>
<!-- Node8 -->
<g id="node8" class="node">
<title>Node8</title>
<g id="a_node8"><a xlink:href="structadiar_1_1statistics_1_1prod2__t.html" target="_top" xlink:title="2&#45;ary Product Construction algorithm statistics.">
<polygon fill="none" stroke="black" points="604,-180.5 604,-210.5 702,-210.5 702,-180.5 604,-180.5"/>
<text text-anchor="start" x="612" y="-198.5" font-family="Helvetica,sans-Serif" font-size="10.00">adiar::statistics::</text>
<text text-anchor="middle" x="653" y="-187.5" font-family="Helvetica,sans-Serif" font-size="10.00">prod2_t</text>
</a>
</g>
</g>
<!-- Node3&#45;&gt;Node8 -->
<g id="edge9" class="edge">
<title>Node3&#45;&gt;Node8</title>
<path fill="none" stroke="midnightblue" d="M471.52,-306.69C485.52,-301.15 500.88,-295.08 515,-289.5 546.55,-277.04 560.12,-283.43 586,-261.5 597.86,-251.45 593.59,-243.05 604,-231.5 610.98,-223.76 619.83,-216.58 628.02,-210.69"/>
<polygon fill="midnightblue" stroke="midnightblue" points="470.08,-303.49 462.07,-310.43 472.66,-310 470.08,-303.49"/>
</g>
<!-- Node13 -->
<g id="node13" class="node">
<title>Node13</title>
<g id="a_node13"><a xlink:href="structadiar_1_1statistics_1_1reduce__t.html" target="_top" xlink:title="Reduce algorithm statistics.">
<polygon fill="none" stroke="black" points="604,-437.5 604,-467.5 702,-467.5 702,-437.5 604,-437.5"/>
<text text-anchor="start" x="612" y="-455.5" font-family="Helvetica,sans-Serif" font-size="10.00">adiar::statistics::</text>
<text text-anchor="middle" x="653" y="-444.5" font-family="Helvetica,sans-Serif" font-size="10.00">reduce_t</text>
</a>
</g>
</g>
<!-- Node3&#45;&gt;Node13 -->
<g id="edge15" class="edge">
<title>Node3&#45;&gt;Node13</title>
<path fill="none" stroke="midnightblue" d="M445.92,-347.94C463.37,-364.79 489.08,-387.45 515,-402.5 542.81,-418.65 576.74,-431.08 603.88,-439.51"/>
<polygon fill="midnightblue" stroke="midnightblue" points="448.1,-345.17 438.51,-340.66 443.19,-350.16 448.1,-345.17"/>
</g>
<!-- Node16 -->
<g id="node16" class="node">
<title>Node16</title>
<g id="a_node16"><a xlink:href="structadiar_1_1statistics_1_1quantify__t.html" target="_top" xlink:title="Quantification algorithm statistics.">
<polygon fill="none" stroke="black" points="604,-240.5 604,-270.5 702,-270.5 702,-240.5 604,-240.5"/>
<text text-anchor="start" x="612" y="-258.5" font-family="Helvetica,sans-Serif" font-size="10.00">adiar::statistics::</text>
<text text-anchor="middle" x="653" y="-247.5" font-family="Helvetica,sans-Serif" font-size="10.00">quantify_t</text>
</a>
</g>
</g>
<!-- Node3&#45;&gt;Node16 -->
<g id="edge20" class="edge">
<title>Node3&#45;&gt;Node16</title>
<path fill="none" stroke="midnightblue" d="M482.09,-314.5C513.33,-307.85 552.26,-298.35 586,-286.5 598.54,-282.1 611.9,-276.09 623.29,-270.54"/>
<polygon fill="midnightblue" stroke="midnightblue" points="481.3,-311.09 472.23,-316.56 482.74,-317.94 481.3,-311.09"/>
</g>
<!-- Node18 -->
<g id="node18" class="node">
<title>Node18</title>
<g id="a_node18"><a xlink:href="structadiar_1_1statistics_1_1prod3__t.html" target="_top" xlink:title="3&#45;ary Product Construction algorithm statistics.">
<polygon fill="none" stroke="black" points="720,-366.5 720,-396.5 818,-396.5 818,-366.5 720,-366.5"/>
<text text-anchor="start" x="728" y="-384.5" font-family="Helvetica,sans-Serif" font-size="10.00">adiar::statistics::</text>
<text text-anchor="middle" x="769" y="-373.5" font-family="Helvetica,sans-Serif" font-size="10.00">prod3_t</text>
</a>
</g>
</g>
<!-- Node3&#45;&gt;Node18 -->
<g id="edge23" class="edge">
<title>Node3&#45;&gt;Node18</title>
<path fill="none" stroke="midnightblue" d="M461.31,-344.87C477.4,-352.33 496.7,-360.1 515,-364.5 584.77,-381.28 668.26,-383.58 719.71,-383.04"/>
<polygon fill="midnightblue" stroke="midnightblue" points="462.77,-341.69 452.24,-340.55 459.76,-348.01 462.77,-341.69"/>
</g>
<!-- Node19 -->
<g id="node19" class="node">
<title>Node19</title>
<g id="a_node19"><a xlink:href="structadiar_1_1statistics_1_1equality__t.html" target="_top" xlink:title="Equality Checking algorithm statistics.">
<polygon fill="none" stroke="black" points="604,-48.5 604,-78.5 702,-78.5 702,-48.5 604,-48.5"/>
<text text-anchor="start" x="612" y="-66.5" font-family="Helvetica,sans-Serif" font-size="10.00">adiar::statistics::</text>
<text text-anchor="middle" x="653" y="-55.5" font-family="Helvetica,sans-Serif" font-size="10.00">equality_t</text>
</a>
</g>
</g>
<!-- Node3&#45;&gt;Node19 -->
<g id="edge26" class="edge">
<title>Node3&#45;&gt;Node19</title>
<path fill="none" stroke="midnightblue" d="M463.37,-305.19C475.01,-298.05 487.24,-289.32 497,-279.5 507.69,-268.74 504.48,-261.43 515,-250.5 541.4,-223.05 565.45,-234.57 586,-202.5 612.5,-161.16 576.77,-134.36 604,-93.5 607.92,-87.61 613.44,-82.66 619.34,-78.59"/>
<polygon fill="midnightblue" stroke="midnightblue" points="461.47,-302.25 454.63,-310.34 465.02,-308.28 461.47,-302.25"/>
</g>
<!-- Node22 -->
<g id="node22" class="node">
<title>Node22</title>
<g id="a_node22"><a xlink:href="structadiar_1_1statistics_1_1count__t.html" target="_top" xlink:title="Counting algorithm statistics.">
<polygon fill="none" stroke="black" points="1022,-324.5 1022,-354.5 1120,-354.5 1120,-324.5 1022,-324.5"/>
<text text-anchor="start" x="1030" y="-342.5" font-family="Helvetica,sans-Serif" font-size="10.00">adiar::statistics::</text>
<text text-anchor="middle" x="1071" y="-331.5" font-family="Helvetica,sans-Serif" font-size="10.00">count_t</text>
</a>
</g>
</g>
<!-- Node3&#45;&gt;Node22 -->
<g id="edge30" class="edge">
<title>Node3&#45;&gt;Node22</title>
<path fill="none" stroke="midnightblue" d="M482.39,-329.04C493.23,-329.61 504.46,-330.12 515,-330.5 702.32,-337.16 925.37,-338.9 1021.73,-339.34"/>
<polygon fill="midnightblue" stroke="midnightblue" points="482.33,-325.54 472.16,-328.49 481.95,-332.53 482.33,-325.54"/>
</g>
<!-- Node4 -->
<g id="node4" class="node">
<title>Node4</title>
<g id="a_node4"><a xlink:href="structadiar_1_1statistics_1_1____alg__base_1_1____lpq__t.html" target="_top" xlink:title="Type and usage of this algorithm&#39;s levelized priority queue.">
<polygon fill="none" stroke="black" points="183,-225.5 183,-255.5 294,-255.5 294,-225.5 183,-225.5"/>
<text text-anchor="start" x="191" y="-243.5" font-family="Helvetica,sans-Serif" font-size="10.00">adiar::statistics::</text>
<text text-anchor="middle" x="238.5" y="-232.5" font-family="Helvetica,sans-Serif" font-size="10.00">__alg_base::__lpq_t</text>
</a>
</g>
</g>
<!-- Node4&#45;&gt;Node3 -->
<g id="edge3" class="edge">
<title>Node4&#45;&gt;Node3</title>
<path fill="none" stroke="#9a32cd" stroke-dasharray="5,2" d="M281.06,-259.86C313.95,-275.17 359.23,-296.26 389.5,-310.36"/>
<polygon fill="#9a32cd" stroke="#9a32cd" points="282.25,-256.55 271.71,-255.5 279.29,-262.9 282.25,-256.55"/>
<text text-anchor="middle" x="321.5" y="-285.5" font-family="Helvetica,sans-Serif" font-size="10.00"> lpq</text>
</g>
<!-- Node5 -->
<g id="node5" class="node">
<title>Node5</title>
<g id="a_node5"><a xlink:href="structadiar_1_1statistics_1_1levelized__priority__queue__t.html" target="_top" xlink:title="Levelized Priority Queue statistics.">
<polygon fill="none" stroke="black" points="0,-109.5 0,-139.5 146,-139.5 146,-109.5 0,-109.5"/>
<text text-anchor="start" x="8" y="-127.5" font-family="Helvetica,sans-Serif" font-size="10.00">adiar::statistics::</text>
<text text-anchor="middle" x="73" y="-116.5" font-family="Helvetica,sans-Serif" font-size="10.00">levelized_priority_queue_t</text>
</a>
</g>
</g>
<!-- Node5&#45;&gt;Node1 -->
<g id="edge31" class="edge">
<title>Node5&#45;&gt;Node1</title>
<path fill="none" stroke="#9a32cd" stroke-dasharray="5,2" d="M156.45,-122.74C286.45,-120.12 547,-115.5 768,-115.5 768,-115.5 768,-115.5 1194,-115.5 1309.71,-115.5 1392.43,-266.65 1412.37,-306.81"/>
<polygon fill="#9a32cd" stroke="#9a32cd" points="156.11,-119.25 146.18,-122.95 156.25,-126.24 156.11,-119.25"/>
<text text-anchor="start" x="609" y="-130.5" font-family="Helvetica,sans-Serif" font-size="10.00"> levelized_priority</text>
<text text-anchor="middle" x="653" y="-119.5" font-family="Helvetica,sans-Serif" font-size="10.00">_queue</text>
</g>
<!-- Node5&#45;&gt;Node4 -->
<g id="edge4" class="edge">
<title>Node5&#45;&gt;Node4</title>
<path fill="none" stroke="midnightblue" d="M103.6,-145.5C136.06,-168.53 187.35,-204.92 216.12,-225.33"/>
<polygon fill="midnightblue" stroke="midnightblue" points="105.56,-142.6 95.37,-139.66 101.51,-148.31 105.56,-142.6"/>
</g>
<!-- Node6&#45;&gt;Node1 -->
<g id="edge5" class="edge">
<title>Node6&#45;&gt;Node1</title>
<path fill="none" stroke="#9a32cd" stroke-dasharray="5,2" d="M1130.45,-631.23C1193.55,-640.26 1293.17,-643.39 1354,-589.5 1394.87,-553.29 1412.51,-370.64 1416.23,-326.24"/>
<polygon fill="#9a32cd" stroke="#9a32cd" points="1130.67,-627.73 1120.26,-629.68 1129.62,-634.65 1130.67,-627.73"/>
<text text-anchor="middle" x="1193" y="-638.5" font-family="Helvetica,sans-Serif" font-size="10.00"> select</text>
</g>
<!-- Node7 -->
<g id="node7" class="node">
<title>Node7</title>
<g id="a_node7"><a xlink:href="structadiar_1_1statistics_1_1arc__file__t.html" target="_top" xlink:title="Arc Files statistics.">
<polygon fill="none" stroke="black" points="1144,-407.5 1144,-437.5 1242,-437.5 1242,-407.5 1144,-407.5"/>
<text text-anchor="start" x="1152" y="-425.5" font-family="Helvetica,sans-Serif" font-size="10.00">adiar::statistics::</text>
<text text-anchor="middle" x="1193" y="-414.5" font-family="Helvetica,sans-Serif" font-size="10.00">arc_file_t</text>
</a>
</g>
</g>
<!-- Node7&#45;&gt;Node1 -->
<g id="edge7" class="edge">
<title>Node7&#45;&gt;Node1</title>
<path fill="none" stroke="#9a32cd" stroke-dasharray="5,2" d="M1252.23,-421.11C1284.15,-418.1 1323.34,-410.55 1354,-392.5 1381.91,-376.07 1402.95,-342.47 1412.05,-326.02"/>
<polygon fill="#9a32cd" stroke="#9a32cd" points="1251.82,-417.64 1242.14,-421.94 1252.39,-424.61 1251.82,-417.64"/>
<text text-anchor="middle" x="1310" y="-421.5" font-family="Helvetica,sans-Serif" font-size="10.00"> arc_file</text>
</g>
<!-- Node8&#45;&gt;Node1 -->
<g id="edge8" class="edge">
<title>Node8&#45;&gt;Node1</title>
<path fill="none" stroke="#9a32cd" stroke-dasharray="5,2" d="M712.19,-197.94C833.58,-204.2 1121.78,-225.13 1354,-289.5 1369.48,-293.79 1386.15,-301.06 1398.46,-306.98"/>
<polygon fill="#9a32cd" stroke="#9a32cd" points="712.17,-194.44 702.01,-197.43 711.82,-201.43 712.17,-194.44"/>
<text text-anchor="middle" x="1071" y="-242.5" font-family="Helvetica,sans-Serif" font-size="10.00"> prod2</text>
</g>
<!-- Node9 -->
<g id="node9" class="node">
<title>Node9</title>
<g id="a_node9"><a xlink:href="structadiar_1_1statistics_1_1prod2__t_1_1ra__t.html" target="_top" xlink:title="Statistics for the double priority queue implementation.">
<polygon fill="none" stroke="black" points="374,-141.5 374,-171.5 472,-171.5 472,-141.5 374,-141.5"/>
<text text-anchor="start" x="382" y="-159.5" font-family="Helvetica,sans-Serif" font-size="10.00">adiar::statistics::</text>
<text text-anchor="middle" x="423" y="-148.5" font-family="Helvetica,sans-Serif" font-size="10.00">prod2_t::ra_t</text>
</a>
</g>
</g>
<!-- Node9&#45;&gt;Node8 -->
<g id="edge10" class="edge">
<title>Node9&#45;&gt;Node8</title>
<path fill="none" stroke="#9a32cd" stroke-dasharray="5,2" d="M482.38,-166.02C513.21,-171.1 551.68,-177.52 586,-183.5 591.74,-184.5 597.75,-185.57 603.71,-186.64"/>
<polygon fill="#9a32cd" stroke="#9a32cd" points="482.67,-162.52 472.23,-164.35 481.53,-169.43 482.67,-162.52"/>
<text text-anchor="middle" x="550.5" y="-186.5" font-family="Helvetica,sans-Serif" font-size="10.00"> ra</text>
</g>
<!-- Node10 -->
<g id="node10" class="node">
<title>Node10</title>
<g id="a_node10"><a xlink:href="structadiar_1_1statistics_1_1prod2__t_1_1pq__t.html" target="_top" xlink:title="Statistics for the double priority queue implementation.">
<polygon fill="none" stroke="black" points="374,-190.5 374,-220.5 472,-220.5 472,-190.5 374,-190.5"/>
<text text-anchor="start" x="382" y="-208.5" font-family="Helvetica,sans-Serif" font-size="10.00">adiar::statistics::</text>
<text text-anchor="middle" x="423" y="-197.5" font-family="Helvetica,sans-Serif" font-size="10.00">prod2_t::pq_t</text>
</a>
</g>
</g>
<!-- Node10&#45;&gt;Node8 -->
<g id="edge11" class="edge">
<title>Node10&#45;&gt;Node8</title>
<path fill="none" stroke="#9a32cd" stroke-dasharray="5,2" d="M482.4,-202.94C520.1,-201.29 568.54,-199.16 603.99,-197.61"/>
<polygon fill="#9a32cd" stroke="#9a32cd" points="481.91,-199.46 472.07,-203.39 482.22,-206.45 481.91,-199.46"/>
<text text-anchor="middle" x="550.5" y="-204.5" font-family="Helvetica,sans-Serif" font-size="10.00"> pq</text>
</g>
<!-- Node11 -->
<g id="node11" class="node">
<title>Node11</title>
<g id="a_node11"><a xlink:href="structadiar_1_1statistics_1_1nested__sweeping__t.html" target="_top" xlink:title="Nested Sweeping statistics.">
<polygon fill="none" stroke="black" points="1138,-456.5 1138,-486.5 1248,-486.5 1248,-456.5 1138,-456.5"/>
<text text-anchor="start" x="1146" y="-474.5" font-family="Helvetica,sans-Serif" font-size="10.00">adiar::statistics::</text>
<text text-anchor="middle" x="1193" y="-463.5" font-family="Helvetica,sans-Serif" font-size="10.00">nested_sweeping_t</text>
</a>
</g>
</g>
<!-- Node11&#45;&gt;Node1 -->
<g id="edge12" class="edge">
<title>Node11&#45;&gt;Node1</title>
<path fill="none" stroke="#9a32cd" stroke-dasharray="5,2" d="M1258.12,-468.44C1289.69,-464.1 1326.73,-454.45 1354,-433.5 1390.96,-405.11 1408.82,-348.68 1414.71,-326.13"/>
<polygon fill="#9a32cd" stroke="#9a32cd" points="1257.58,-464.98 1248.08,-469.67 1258.44,-471.93 1257.58,-464.98"/>
<text text-anchor="middle" x="1310" y="-469.5" font-family="Helvetica,sans-Serif" font-size="10.00"> nested_sweeping</text>
</g>
<!-- Node12 -->
<g id="node12" class="node">
<title>Node12</title>
<g id="a_node12"><a xlink:href="structadiar_1_1statistics_1_1nested__sweeping__t_1_1outer__up__t.html" target="_top" xlink:title="Outer Reduce Sweep.">
<polygon fill="none" stroke="black" points="836,-456.5 836,-486.5 1004,-486.5 1004,-456.5 836,-456.5"/>
<text text-anchor="start" x="844" y="-474.5" font-family="Helvetica,sans-Serif" font-size="10.00">adiar::statistics::</text>
<text text-anchor="middle" x="920" y="-463.5" font-family="Helvetica,sans-Serif" font-size="10.00">nested_sweeping_t::outer_up_t</text>
</a>
</g>
</g>
<!-- Node12&#45;&gt;Node11 -->
<g id="edge13" class="edge">
<title>Node12&#45;&gt;Node11</title>
<path fill="none" stroke="#9a32cd" stroke-dasharray="5,2" d="M1014.21,-471.5C1055.38,-471.5 1102.35,-471.5 1137.67,-471.5"/>
<polygon fill="#9a32cd" stroke="#9a32cd" points="1014.15,-468 1004.15,-471.5 1014.15,-475 1014.15,-468"/>
<text text-anchor="middle" x="1071" y="-474.5" font-family="Helvetica,sans-Serif" font-size="10.00"> outer_up</text>
</g>
<!-- Node13&#45;&gt;Node1 -->
<g id="edge24" class="edge">
<title>Node13&#45;&gt;Node1</title>
<path fill="none" stroke="#9a32cd" stroke-dasharray="5,2" d="M680.7,-473.79C714.52,-499.27 775.69,-540.48 836,-556.5 908.17,-575.66 929.75,-564.37 1004,-556.5 1162.2,-539.74 1233.21,-585.03 1354,-481.5 1403.12,-439.4 1414.07,-354.61 1416.4,-326.1"/>
<polygon fill="#9a32cd" stroke="#9a32cd" points="682.78,-470.97 672.71,-467.68 678.52,-476.53 682.78,-470.97"/>
<text text-anchor="middle" x="1071" y="-557.5" font-family="Helvetica,sans-Serif" font-size="10.00"> reduce</text>
</g>
<!-- Node13&#45;&gt;Node12 -->
<g id="edge14" class="edge">
<title>Node13&#45;&gt;Node12</title>
<path fill="none" stroke="midnightblue" d="M712.69,-456.71C748.89,-459.3 795.9,-462.67 835.89,-465.54"/>
<polygon fill="midnightblue" stroke="midnightblue" points="712.52,-453.19 702.3,-455.96 712.02,-460.17 712.52,-453.19"/>
</g>
<!-- Node14 -->
<g id="node14" class="node">
<title>Node14</title>
<g id="a_node14"><a xlink:href="structadiar_1_1statistics_1_1nested__sweeping__t_1_1inner__up__t.html" target="_top" xlink:title="Inner Up Sweep(s)">
<polygon fill="none" stroke="black" points="836.5,-407.5 836.5,-437.5 1003.5,-437.5 1003.5,-407.5 836.5,-407.5"/>
<text text-anchor="start" x="844.5" y="-425.5" font-family="Helvetica,sans-Serif" font-size="10.00">adiar::statistics::</text>
<text text-anchor="middle" x="920" y="-414.5" font-family="Helvetica,sans-Serif" font-size="10.00">nested_sweeping_t::inner_up_t</text>
</a>
</g>
</g>
<!-- Node13&#45;&gt;Node14 -->
<g id="edge17" class="edge">
<title>Node13&#45;&gt;Node14</title>
<path fill="none" stroke="midnightblue" d="M712.26,-445.9C748.68,-441.78 796.16,-436.41 836.42,-431.85"/>
<polygon fill="midnightblue" stroke="midnightblue" points="711.84,-442.43 702.3,-447.03 712.63,-449.39 711.84,-442.43"/>
</g>
<!-- Node14&#45;&gt;Node11 -->
<g id="edge16" class="edge">
<title>Node14&#45;&gt;Node11</title>
<path fill="none" stroke="#9a32cd" stroke-dasharray="5,2" d="M1014.12,-437.69C1047.56,-443.34 1085.52,-449.96 1120,-456.5 1125.77,-457.59 1131.79,-458.78 1137.79,-459.99"/>
<polygon fill="#9a32cd" stroke="#9a32cd" points="1014.34,-434.18 1003.9,-435.98 1013.18,-441.09 1014.34,-434.18"/>
<text text-anchor="middle" x="1071" y="-459.5" font-family="Helvetica,sans-Serif" font-size="10.00"> inner_up</text>
</g>
<!-- Node15 -->
<g id="node15" class="node">
<title>Node15</title>
<g id="a_node15"><a xlink:href="structadiar_1_1statistics_1_1nested__sweeping__t_1_1inner__down__t.html" target="_top" xlink:title="Root Requests generated for Inner Down Sweep.">
<polygon fill="none" stroke="black" points="849.5,-506 849.5,-547 990.5,-547 990.5,-506 849.5,-506"/>
<text text-anchor="start" x="857.5" y="-535" font-family="Helvetica,sans-Serif" font-size="10.00">adiar::statistics::</text>
<text text-anchor="start" x="857.5" y="-524" font-family="Helvetica,sans-Serif" font-size="10.00">nested_sweeping_t::inner</text>
<text text-anchor="middle" x="920" y="-513" font-family="Helvetica,sans-Serif" font-size="10.00">_down_t</text>
</a>
</g>
</g>
<!-- Node15&#45;&gt;Node11 -->
<g id="edge18" class="edge">
<title>Node15&#45;&gt;Node11</title>
<path fill="none" stroke="#9a32cd" stroke-dasharray="5,2" d="M1000.62,-510.63C1037.03,-503.34 1080.71,-494.54 1120,-486.5 1125.75,-485.32 1131.77,-484.08 1137.75,-482.84"/>
<polygon fill="#9a32cd" stroke="#9a32cd" points="999.67,-507.25 990.56,-512.64 1001.05,-514.11 999.67,-507.25"/>
<text text-anchor="middle" x="1071" y="-508.5" font-family="Helvetica,sans-Serif" font-size="10.00"> inner_down</text>
</g>
<!-- Node16&#45;&gt;Node1 -->
<g id="edge19" class="edge">
<title>Node16&#45;&gt;Node1</title>
<path fill="none" stroke="#9a32cd" stroke-dasharray="5,2" d="M712.25,-257.2C832.59,-261.22 1117.21,-273.45 1354,-304.5 1359.74,-305.25 1365.75,-306.19 1371.68,-307.22"/>
<polygon fill="#9a32cd" stroke="#9a32cd" points="712.26,-253.69 702.15,-256.86 712.03,-260.69 712.26,-253.69"/>
<text text-anchor="middle" x="1071" y="-282.5" font-family="Helvetica,sans-Serif" font-size="10.00"> quantify</text>
</g>
<!-- Node17 -->
<g id="node17" class="node">
<title>Node17</title>
<g id="a_node17"><a xlink:href="structadiar_1_1statistics_1_1quantify__t_1_1nested__policy__t.html" target="_top" xlink:title="Nested multi&#45;variable sweeping.">
<polygon fill="none" stroke="black" points="349,-239.5 349,-269.5 497,-269.5 497,-239.5 349,-239.5"/>
<text text-anchor="start" x="357" y="-257.5" font-family="Helvetica,sans-Serif" font-size="10.00">adiar::statistics::</text>
<text text-anchor="middle" x="423" y="-246.5" font-family="Helvetica,sans-Serif" font-size="10.00">quantify_t::nested_policy_t</text>
</a>
</g>
</g>
<!-- Node17&#45;&gt;Node16 -->
<g id="edge21" class="edge">
<title>Node17&#45;&gt;Node16</title>
<path fill="none" stroke="#9a32cd" stroke-dasharray="5,2" d="M507.46,-254.87C539.87,-255.01 575.82,-255.17 603.77,-255.29"/>
<polygon fill="#9a32cd" stroke="#9a32cd" points="507.1,-251.36 497.08,-254.82 507.07,-258.36 507.1,-251.36"/>
<text text-anchor="middle" x="550.5" y="-257.5" font-family="Helvetica,sans-Serif" font-size="10.00"> nested_policy</text>
</g>
<!-- Node18&#45;&gt;Node1 -->
<g id="edge22" class="edge">
<title>Node18&#45;&gt;Node1</title>
<path fill="none" stroke="#9a32cd" stroke-dasharray="5,2" d="M828.24,-378.46C918.33,-373.57 1096.85,-363.11 1248,-349.5 1295.22,-345.25 1307.7,-347.72 1354,-337.5 1366.83,-334.67 1380.73,-330.19 1392.2,-326.1"/>
<polygon fill="#9a32cd" stroke="#9a32cd" points="828.03,-374.97 818.23,-379 828.4,-381.96 828.03,-374.97"/>
<text text-anchor="middle" x="1071" y="-369.5" font-family="Helvetica,sans-Serif" font-size="10.00"> prod3</text>
</g>
<!-- Node19&#45;&gt;Node1 -->
<g id="edge25" class="edge">
<title>Node19&#45;&gt;Node1</title>
<path fill="none" stroke="#9a32cd" stroke-dasharray="5,2" d="M712.11,-62.87C871.02,-61.67 1304.26,-62.1 1354,-101.5 1387.61,-128.13 1410.06,-268.39 1415.64,-306.78"/>
<polygon fill="#9a32cd" stroke="#9a32cd" points="712.02,-59.37 702.05,-62.95 712.08,-66.37 712.02,-59.37"/>
<text text-anchor="middle" x="1071" y="-72.5" font-family="Helvetica,sans-Serif" font-size="10.00"> equality</text>
</g>
<!-- Node20 -->
<g id="node20" class="node">
<title>Node20</title>
<g id="a_node20"><a xlink:href="structadiar_1_1statistics_1_1equality__t_1_1fast__t.html" target="_top" xlink:title="Statistics from O(N) linear&#45;scan equality checking algorithm.">
<polygon fill="none" stroke="black" points="373.5,-0.5 373.5,-30.5 472.5,-30.5 472.5,-0.5 373.5,-0.5"/>
<text text-anchor="start" x="381.5" y="-18.5" font-family="Helvetica,sans-Serif" font-size="10.00">adiar::statistics::</text>
<text text-anchor="middle" x="423" y="-7.5" font-family="Helvetica,sans-Serif" font-size="10.00">equality_t::fast_t</text>
</a>
</g>
</g>
<!-- Node20&#45;&gt;Node19 -->
<g id="edge27" class="edge">
<title>Node20&#45;&gt;Node19</title>
<path fill="none" stroke="#9a32cd" stroke-dasharray="5,2" d="M482.69,-27.79C513.46,-34.24 551.77,-42.28 586,-49.5 591.73,-50.71 597.74,-51.98 603.7,-53.24"/>
<polygon fill="#9a32cd" stroke="#9a32cd" points="483.07,-24.29 472.56,-25.66 481.63,-31.14 483.07,-24.29"/>
<text text-anchor="middle" x="550.5" y="-52.5" font-family="Helvetica,sans-Serif" font-size="10.00"> fast_check</text>
</g>
<!-- Node21 -->
<g id="node21" class="node">
<title>Node21</title>
<g id="a_node21"><a xlink:href="structadiar_1_1statistics_1_1equality__t_1_1slow__t.html" target="_top" xlink:title="Statistics from O(N log N) time&#45;forward processing equality checking algorithm.">
<polygon fill="none" stroke="black" points="371.5,-49.5 371.5,-79.5 474.5,-79.5 474.5,-49.5 371.5,-49.5"/>
<text text-anchor="start" x="379.5" y="-67.5" font-family="Helvetica,sans-Serif" font-size="10.00">adiar::statistics::</text>
<text text-anchor="middle" x="423" y="-56.5" font-family="Helvetica,sans-Serif" font-size="10.00">equality_t::slow_t</text>
</a>
</g>
</g>
<!-- Node21&#45;&gt;Node19 -->
<g id="edge28" class="edge">
<title>Node21&#45;&gt;Node19</title>
<path fill="none" stroke="#9a32cd" stroke-dasharray="5,2" d="M484.84,-64.23C522.13,-64.07 569.2,-63.86 603.88,-63.71"/>
<polygon fill="#9a32cd" stroke="#9a32cd" points="484.59,-60.73 474.6,-64.28 484.62,-67.73 484.59,-60.73"/>
<text text-anchor="middle" x="550.5" y="-67.5" font-family="Helvetica,sans-Serif" font-size="10.00"> slow_check</text>
</g>
<!-- Node22&#45;&gt;Node1 -->
<g id="edge29" class="edge">
<title>Node22&#45;&gt;Node1</title>
<path fill="none" stroke="#9a32cd" stroke-dasharray="5,2" d="M1130.48,-335.6C1198.64,-331.06 1309.82,-323.65 1371.74,-319.52"/>
<polygon fill="#9a32cd" stroke="#9a32cd" points="1130.08,-332.12 1120.33,-336.28 1130.54,-339.1 1130.08,-332.12"/>
<text text-anchor="middle" x="1193" y="-337.5" font-family="Helvetica,sans-Serif" font-size="10.00"> count</text>
</g>
<!-- Node23 -->
<g id="node23" class="node">
<title>Node23</title>
<g id="a_node23"><a xlink:href="structadiar_1_1statistics_1_1node__file__t.html" target="_top" xlink:title="Node Files statistics.">
<polygon fill="none" stroke="black" points="1144,-18.5 1144,-48.5 1242,-48.5 1242,-18.5 1144,-18.5"/>
<text text-anchor="start" x="1152" y="-36.5" font-family="Helvetica,sans-Serif" font-size="10.00">adiar::statistics::</text>
<text text-anchor="middle" x="1193" y="-25.5" font-family="Helvetica,sans-Serif" font-size="10.00">node_file_t</text>
</a>
</g>
</g>
<!-- Node23&#45;&gt;Node1 -->
<g id="edge32" class="edge">
<title>Node23&#45;&gt;Node1</title>
<path fill="none" stroke="#9a32cd" stroke-dasharray="5,2" d="M1252.35,-25.21C1285.97,-23.8 1326.83,-28.31 1354,-52.5 1393.42,-87.59 1412.09,-263.4 1416.14,-306.8"/>
<polygon fill="#9a32cd" stroke="#9a32cd" points="1251.94,-21.72 1242.17,-25.82 1252.36,-28.71 1251.94,-21.72"/>
<text text-anchor="middle" x="1310" y="-55.5" font-family="Helvetica,sans-Serif" font-size="10.00"> node_file</text>
</g>
</g>
</svg>
