<?xml version="1.0" encoding="UTF-8" standalone="no"?>
<!DOCTYPE svg PUBLIC "-//W3C//DTD SVG 1.1//EN"
 "http://www.w3.org/Graphics/SVG/1.1/DTD/svg11.dtd">
<!-- Generated by graphviz version 2.43.0 (0)
 -->
<!-- Title: adiar::statistics::quantify_t Pages: 1 -->
<svg width="430pt" height="86pt"
 viewBox="0.00 0.00 430.00 86.00" xmlns="http://www.w3.org/2000/svg" xmlns:xlink="http://www.w3.org/1999/xlink">
<g id="graph0" class="graph" transform="scale(1 1) rotate(0) translate(4 82)">
<title>adiar::statistics::quantify_t</title>
<!-- Node1 -->
<g id="Node000001" class="node">
<title>Node1</title>
<g id="a_Node000001"><a xlink:title="Quantification algorithm statistics.">
<polygon fill="#999999" stroke="#666666" points="422,-54 324,-54 324,-24 422,-24 422,-54"/>
<text text-anchor="start" x="332" y="-42" font-family="Helvetica,sans-Serif" font-size="10.00">adiar::statistics::</text>
<text text-anchor="middle" x="373" y="-31" font-family="Helvetica,sans-Serif" font-size="10.00">quantify_t</text>
</a>
</g>
</g>
<!-- Node2 -->
<g id="Node000002" class="node">
<title>Node2</title>
<g id="a_Node000002"><a xlink:href="structadiar_1_1statistics_1_1quantify__t_1_1nested__transposition__t.html" target="_top" xlink:title="Transposition algorithms prior to nested multi&#45;variable sweeping.">
<polygon fill="white" stroke="#666666" points="182,-78 0,-78 0,-48 182,-48 182,-78"/>
<text text-anchor="start" x="8" y="-66" font-family="Helvetica,sans-Serif" font-size="10.00">adiar::statistics::</text>
<text text-anchor="middle" x="91" y="-55" font-family="Helvetica,sans-Serif" font-size="10.00">quantify_t::nested_transposition_t</text>
</a>
</g>
</g>
<!-- Node2&#45;&gt;Node1 -->
<g id="edge1_Node000001_Node000002" class="edge">
<title>Node2&#45;&gt;Node1</title>
<g id="a_edge1_Node000001_Node000002"><a xlink:title=" ">
<path fill="none" stroke="#9a32cd" stroke-dasharray="5,2" d="M192.17,-54.41C236.88,-50.58 287.49,-46.24 323.61,-43.15"/>
<polygon fill="#9a32cd" stroke="#9a32cd" points="191.8,-50.93 182.14,-55.27 192.4,-57.91 191.8,-50.93"/>
</a>
</g>
<text text-anchor="middle" x="253" y="-56" font-family="Helvetica,sans-Serif" font-size="10.00" fill="grey"> nested_transposition</text>
</g>
<!-- Node3 -->
<g id="Node000003" class="node">
<title>Node3</title>
<g id="a_Node000003"><a xlink:href="structadiar_1_1statistics_1_1quantify__t_1_1nested__policy__t.html" target="_top" xlink:title="Nested multi&#45;variable sweeping.">
<polygon fill="white" stroke="#666666" points="165,-30 17,-30 17,0 165,0 165,-30"/>
<text text-anchor="start" x="25" y="-18" font-family="Helvetica,sans-Serif" font-size="10.00">adiar::statistics::</text>
<text text-anchor="middle" x="91" y="-7" font-family="Helvetica,sans-Serif" font-size="10.00">quantify_t::nested_policy_t</text>
</a>
</g>
</g>
<!-- Node3&#45;&gt;Node1 -->
<g id="edge2_Node000001_Node000003" class="edge">
<title>Node3&#45;&gt;Node1</title>
<g id="a_edge2_Node000001_Node000003"><a xlink:title=" ">
<path fill="none" stroke="#9a32cd" stroke-dasharray="5,2" d="M175.57,-18.82C215.17,-21.05 263.09,-24.35 306,-29 311.76,-29.62 317.79,-30.39 323.76,-31.21"/>
<polygon fill="#9a32cd" stroke="#9a32cd" points="175.6,-15.31 165.43,-18.26 175.22,-22.3 175.6,-15.31"/>
</a>
</g>
<text text-anchor="middle" x="253" y="-32" font-family="Helvetica,sans-Serif" font-size="10.00" fill="grey"> nested_policy</text>
</g>
</g>
</svg>
