<?xml version="1.0" encoding="UTF-8" standalone="no"?>
<!DOCTYPE svg PUBLIC "-//W3C//DTD SVG 1.1//EN"
 "http://www.w3.org/Graphics/SVG/1.1/DTD/svg11.dtd">
<!-- Generated by graphviz version 2.43.0 (0)
 -->
<!-- Title: adiar::statistics::nested_sweeping_t::inner_up_t Pages: 1 -->
<svg width="175pt" height="321pt"
 viewBox="0.00 0.00 175.00 321.00" xmlns="http://www.w3.org/2000/svg" xmlns:xlink="http://www.w3.org/1999/xlink">
<g id="graph0" class="graph" transform="scale(1 1) rotate(0) translate(4 317)">
<title>adiar::statistics::nested_sweeping_t::inner_up_t</title>
<!-- Node1 -->
<g id="node1" class="node">
<title>Node1</title>
<g id="a_node1"><a xlink:title="Inner Up Sweep(s)">
<polygon fill="#bfbfbf" stroke="black" points="0,-0.5 0,-30.5 167,-30.5 167,-0.5 0,-0.5"/>
<text text-anchor="start" x="8" y="-18.5" font-family="Helvetica,sans-Serif" font-size="10.00">adiar::statistics::</text>
<text text-anchor="middle" x="83.5" y="-7.5" font-family="Helvetica,sans-Serif" font-size="10.00">nested_sweeping_t::inner_up_t</text>
</a>
</g>
</g>
<!-- Node2 -->
<g id="node2" class="node">
<title>Node2</title>
<g id="a_node2"><a xlink:href="structadiar_1_1statistics_1_1reduce__t.html" target="_top" xlink:title="Reduce algorithm statistics.">
<polygon fill="none" stroke="black" points="34.5,-68.5 34.5,-98.5 132.5,-98.5 132.5,-68.5 34.5,-68.5"/>
<text text-anchor="start" x="42.5" y="-86.5" font-family="Helvetica,sans-Serif" font-size="10.00">adiar::statistics::</text>
<text text-anchor="middle" x="83.5" y="-75.5" font-family="Helvetica,sans-Serif" font-size="10.00">reduce_t</text>
</a>
</g>
</g>
<!-- Node2&#45;&gt;Node1 -->
<g id="edge1" class="edge">
<title>Node2&#45;&gt;Node1</title>
<path fill="none" stroke="midnightblue" d="M83.5,-58.03C83.5,-48.86 83.5,-38.74 83.5,-30.79"/>
<polygon fill="midnightblue" stroke="midnightblue" points="80,-58.18 83.5,-68.18 87,-58.18 80,-58.18"/>
</g>
<!-- Node3 -->
<g id="node3" class="node">
<title>Node3</title>
<g id="a_node3"><a xlink:href="structadiar_1_1statistics_1_1____alg__base.html" target="_top" xlink:title="Common statistics for all algorithms.">
<polygon fill="none" stroke="black" points="34.5,-136.5 34.5,-166.5 132.5,-166.5 132.5,-136.5 34.5,-136.5"/>
<text text-anchor="start" x="42.5" y="-154.5" font-family="Helvetica,sans-Serif" font-size="10.00">adiar::statistics::</text>
<text text-anchor="middle" x="83.5" y="-143.5" font-family="Helvetica,sans-Serif" font-size="10.00">__alg_base</text>
</a>
</g>
</g>
<!-- Node3&#45;&gt;Node2 -->
<g id="edge2" class="edge">
<title>Node3&#45;&gt;Node2</title>
<path fill="none" stroke="midnightblue" d="M83.5,-126.03C83.5,-116.86 83.5,-106.74 83.5,-98.79"/>
<polygon fill="midnightblue" stroke="midnightblue" points="80,-126.18 83.5,-136.18 87,-126.18 80,-126.18"/>
</g>
<!-- Node4 -->
<g id="node4" class="node">
<title>Node4</title>
<g id="a_node4"><a xlink:href="structadiar_1_1statistics_1_1____alg__base_1_1____lpq__t.html" target="_top" xlink:title="Type and usage of this algorithm&#39;s levelized priority queue.">
<polygon fill="none" stroke="black" points="28,-214.5 28,-244.5 139,-244.5 139,-214.5 28,-214.5"/>
<text text-anchor="start" x="36" y="-232.5" font-family="Helvetica,sans-Serif" font-size="10.00">adiar::statistics::</text>
<text text-anchor="middle" x="83.5" y="-221.5" font-family="Helvetica,sans-Serif" font-size="10.00">__alg_base::__lpq_t</text>
</a>
</g>
</g>
<!-- Node4&#45;&gt;Node3 -->
<g id="edge3" class="edge">
<title>Node4&#45;&gt;Node3</title>
<path fill="none" stroke="#9a32cd" stroke-dasharray="5,2" d="M83.5,-204.09C83.5,-191.76 83.5,-177.22 83.5,-166.73"/>
<polygon fill="#9a32cd" stroke="#9a32cd" points="80,-204.2 83.5,-214.2 87,-204.21 80,-204.2"/>
<text text-anchor="middle" x="93" y="-188" font-family="Helvetica,sans-Serif" font-size="10.00"> lpq</text>
</g>
<!-- Node5 -->
<g id="node5" class="node">
<title>Node5</title>
<g id="a_node5"><a xlink:href="structadiar_1_1statistics_1_1levelized__priority__queue__t.html" target="_top" xlink:title="Levelized Priority Queue statistics.">
<polygon fill="none" stroke="black" points="10.5,-282.5 10.5,-312.5 156.5,-312.5 156.5,-282.5 10.5,-282.5"/>
<text text-anchor="start" x="18.5" y="-300.5" font-family="Helvetica,sans-Serif" font-size="10.00">adiar::statistics::</text>
<text text-anchor="middle" x="83.5" y="-289.5" font-family="Helvetica,sans-Serif" font-size="10.00">levelized_priority_queue_t</text>
</a>
</g>
</g>
<!-- Node5&#45;&gt;Node4 -->
<g id="edge4" class="edge">
<title>Node5&#45;&gt;Node4</title>
<path fill="none" stroke="midnightblue" d="M83.5,-272.03C83.5,-262.86 83.5,-252.74 83.5,-244.79"/>
<polygon fill="midnightblue" stroke="midnightblue" points="80,-272.18 83.5,-282.18 87,-272.18 80,-272.18"/>
</g>
</g>
</svg>
