<?xml version="1.0" encoding="UTF-8" standalone="no"?>
<!DOCTYPE svg PUBLIC "-//W3C//DTD SVG 1.1//EN"
 "http://www.w3.org/Graphics/SVG/1.1/DTD/svg11.dtd">
<!-- Generated by graphviz version 2.43.0 (0)
 -->
<!-- Title: adiar::stats_t::__alg_base Pages: 1 -->
<svg width="148pt" height="174pt"
 viewBox="0.00 0.00 148.00 174.00" xmlns="http://www.w3.org/2000/svg" xmlns:xlink="http://www.w3.org/1999/xlink">
<g id="graph0" class="graph" transform="scale(1 1) rotate(0) translate(4 170)">
<title>adiar::stats_t::__alg_base</title>
<!-- Node1 -->
<g id="node1" class="node">
<title>Node1</title>
<g id="a_node1"><a xlink:title="Common statistics for all algorithms.">
<polygon fill="#bfbfbf" stroke="black" points="0,-0.5 0,-19.5 140,-19.5 140,-0.5 0,-0.5"/>
<text text-anchor="middle" x="70" y="-7.5" font-family="Helvetica,sans-Serif" font-size="10.00">adiar::stats_t::__alg_base</text>
</a>
</g>
</g>
<!-- Node2 -->
<g id="node2" class="node">
<title>Node2</title>
<g id="a_node2"><a xlink:href="structadiar_1_1stats__t_1_1____alg__base_1_1____lpq.html" target="_top" xlink:title="Type and usage of this algorithm&#39;s levelized priority queue.">
<polygon fill="none" stroke="black" points="14,-67.5 14,-97.5 126,-97.5 126,-67.5 14,-67.5"/>
<text text-anchor="start" x="22" y="-85.5" font-family="Helvetica,sans-Serif" font-size="10.00">adiar::stats_t::__alg</text>
<text text-anchor="middle" x="70" y="-74.5" font-family="Helvetica,sans-Serif" font-size="10.00">_base::__lpq</text>
</a>
</g>
</g>
<!-- Node2&#45;&gt;Node1 -->
<g id="edge1" class="edge">
<title>Node2&#45;&gt;Node1</title>
<path fill="none" stroke="#9a32cd" stroke-dasharray="5,2" d="M70,-57.09C70,-44.21 70,-29.2 70,-19.89"/>
<polygon fill="#9a32cd" stroke="#9a32cd" points="66.5,-57.23 70,-67.23 73.5,-57.23 66.5,-57.23"/>
<text text-anchor="middle" x="79.5" y="-41" font-family="Helvetica,sans-Serif" font-size="10.00"> lpq</text>
</g>
<!-- Node3 -->
<g id="node3" class="node">
<title>Node3</title>
<g id="a_node3"><a xlink:href="structadiar_1_1stats__t_1_1levelized__priority__queue__t.html" target="_top" xlink:title="Levelized Priority Queue statistics.">
<polygon fill="none" stroke="black" points="4.5,-135.5 4.5,-165.5 135.5,-165.5 135.5,-135.5 4.5,-135.5"/>
<text text-anchor="start" x="12.5" y="-153.5" font-family="Helvetica,sans-Serif" font-size="10.00">adiar::stats_t::levelized</text>
<text text-anchor="middle" x="70" y="-142.5" font-family="Helvetica,sans-Serif" font-size="10.00">_priority_queue_t</text>
</a>
</g>
</g>
<!-- Node3&#45;&gt;Node2 -->
<g id="edge2" class="edge">
<title>Node3&#45;&gt;Node2</title>
<path fill="none" stroke="midnightblue" d="M70,-125.03C70,-115.86 70,-105.74 70,-97.79"/>
<polygon fill="midnightblue" stroke="midnightblue" points="66.5,-125.18 70,-135.18 73.5,-125.18 66.5,-125.18"/>
</g>
</g>
</svg>
