<?xml version="1.0" encoding="UTF-8" standalone="no"?>
<!DOCTYPE svg PUBLIC "-//W3C//DTD SVG 1.1//EN"
 "http://www.w3.org/Graphics/SVG/1.1/DTD/svg11.dtd">
<!-- Generated by graphviz version 2.43.0 (0)
 -->
<!-- Title: adiar::statistics::prod2_t Pages: 1 -->
<svg width="605pt" height="134pt"
 viewBox="0.00 0.00 605.00 134.00" xmlns="http://www.w3.org/2000/svg" xmlns:xlink="http://www.w3.org/1999/xlink">
<g id="graph0" class="graph" transform="scale(1 1) rotate(0) translate(4 130)">
<title>adiar::statistics::prod2_t</title>
<!-- Node1 -->
<g id="Node000001" class="node">
<title>Node1</title>
<g id="a_Node000001"><a xlink:title="2&#45;ary Product Construction algorithm statistics.">
<polygon fill="#999999" stroke="#666666" points="597,-78 499,-78 499,-48 597,-48 597,-78"/>
<text text-anchor="start" x="507" y="-66" font-family="Helvetica,sans-Serif" font-size="10.00">adiar::statistics::</text>
<text text-anchor="middle" x="548" y="-55" font-family="Helvetica,sans-Serif" font-size="10.00">prod2_t</text>
</a>
</g>
</g>
<!-- Node2 -->
<g id="Node000002" class="node">
<title>Node2</title>
<g id="a_Node000002"><a xlink:href="structadiar_1_1statistics_1_1____alg__base.html" target="_top" xlink:title="Common statistics for all algorithms.">
<polygon fill="white" stroke="#666666" points="447,-126 349,-126 349,-96 447,-96 447,-126"/>
<text text-anchor="start" x="357" y="-114" font-family="Helvetica,sans-Serif" font-size="10.00">adiar::statistics::</text>
<text text-anchor="middle" x="398" y="-103" font-family="Helvetica,sans-Serif" font-size="10.00">__alg_base</text>
</a>
</g>
</g>
<!-- Node2&#45;&gt;Node1 -->
<g id="edge1_Node000001_Node000002" class="edge">
<title>Node2&#45;&gt;Node1</title>
<g id="a_edge1_Node000001_Node000002"><a xlink:title=" ">
<path fill="none" stroke="#63b8ff" d="M455.13,-92.79C470.19,-87.91 486.29,-82.69 500.74,-78"/>
<polygon fill="#63b8ff" stroke="#63b8ff" points="453.85,-89.53 445.42,-95.94 456.01,-96.19 453.85,-89.53"/>
</a>
</g>
</g>
<!-- Node3 -->
<g id="Node000003" class="node">
<title>Node3</title>
<g id="a_Node000003"><a xlink:href="structadiar_1_1statistics_1_1____alg__base_1_1____lpq__t.html" target="_top" xlink:title="Type and usage of this algorithm&#39;s levelized priority queue.">
<polygon fill="white" stroke="#666666" points="294,-126 183,-126 183,-96 294,-96 294,-126"/>
<text text-anchor="start" x="191" y="-114" font-family="Helvetica,sans-Serif" font-size="10.00">adiar::statistics::</text>
<text text-anchor="middle" x="238.5" y="-103" font-family="Helvetica,sans-Serif" font-size="10.00">__alg_base::__lpq_t</text>
</a>
</g>
</g>
<!-- Node3&#45;&gt;Node2 -->
<g id="edge2_Node000002_Node000003" class="edge">
<title>Node3&#45;&gt;Node2</title>
<g id="a_edge2_Node000002_Node000003"><a xlink:title=" ">
<path fill="none" stroke="#9a32cd" stroke-dasharray="5,2" d="M304.3,-111C319.18,-111 334.73,-111 348.76,-111"/>
<polygon fill="#9a32cd" stroke="#9a32cd" points="304.14,-107.5 294.14,-111 304.14,-114.5 304.14,-107.5"/>
</a>
</g>
<text text-anchor="middle" x="321.5" y="-114" font-family="Helvetica,sans-Serif" font-size="10.00" fill="grey"> lpq</text>
</g>
<!-- Node4 -->
<g id="Node000004" class="node">
<title>Node4</title>
<g id="a_Node000004"><a xlink:href="structadiar_1_1statistics_1_1levelized__priority__queue__t.html" target="_top" xlink:title="Levelized Priority Queue statistics.">
<polygon fill="white" stroke="#666666" points="146,-126 0,-126 0,-96 146,-96 146,-126"/>
<text text-anchor="start" x="8" y="-114" font-family="Helvetica,sans-Serif" font-size="10.00">adiar::statistics::</text>
<text text-anchor="middle" x="73" y="-103" font-family="Helvetica,sans-Serif" font-size="10.00">levelized_priority_queue_t</text>
</a>
</g>
</g>
<!-- Node4&#45;&gt;Node3 -->
<g id="edge3_Node000003_Node000004" class="edge">
<title>Node4&#45;&gt;Node3</title>
<g id="a_edge3_Node000003_Node000004"><a xlink:title=" ">
<path fill="none" stroke="#63b8ff" d="M156.34,-111C165.34,-111 174.34,-111 182.89,-111"/>
<polygon fill="#63b8ff" stroke="#63b8ff" points="156.19,-107.5 146.19,-111 156.19,-114.5 156.19,-107.5"/>
</a>
</g>
</g>
<!-- Node5 -->
<g id="Node000005" class="node">
<title>Node5</title>
<g id="a_Node000005"><a xlink:href="structadiar_1_1statistics_1_1____raccess__base.html" target="_top" xlink:title="Common statistics for algorithms using random access.">
<polygon fill="white" stroke="#666666" points="447,-78 349,-78 349,-48 447,-48 447,-78"/>
<text text-anchor="start" x="357" y="-66" font-family="Helvetica,sans-Serif" font-size="10.00">adiar::statistics::</text>
<text text-anchor="middle" x="398" y="-55" font-family="Helvetica,sans-Serif" font-size="10.00">__raccess_base</text>
</a>
</g>
</g>
<!-- Node5&#45;&gt;Node1 -->
<g id="edge4_Node000001_Node000005" class="edge">
<title>Node5&#45;&gt;Node1</title>
<g id="a_edge4_Node000001_Node000005"><a xlink:title=" ">
<path fill="none" stroke="#9a32cd" stroke-dasharray="5,2" d="M457.4,-63C471.16,-63 485.69,-63 498.94,-63"/>
<polygon fill="#9a32cd" stroke="#9a32cd" points="457.05,-59.5 447.05,-63 457.05,-66.5 457.05,-59.5"/>
</a>
</g>
<text text-anchor="middle" x="473" y="-66" font-family="Helvetica,sans-Serif" font-size="10.00" fill="grey"> ra</text>
</g>
<!-- Node6 -->
<g id="Node000006" class="node">
<title>Node6</title>
<g id="a_Node000006"><a xlink:href="structadiar_1_1statistics_1_1____pq2__base.html" target="_top" xlink:title="Common statistics for algorithms using a second priority queue.">
<polygon fill="white" stroke="#666666" points="447,-30 349,-30 349,0 447,0 447,-30"/>
<text text-anchor="start" x="357" y="-18" font-family="Helvetica,sans-Serif" font-size="10.00">adiar::statistics::</text>
<text text-anchor="middle" x="398" y="-7" font-family="Helvetica,sans-Serif" font-size="10.00">__pq2_base</text>
</a>
</g>
</g>
<!-- Node6&#45;&gt;Node1 -->
<g id="edge5_Node000001_Node000006" class="edge">
<title>Node6&#45;&gt;Node1</title>
<g id="a_edge5_Node000001_Node000006"><a xlink:title=" ">
<path fill="none" stroke="#9a32cd" stroke-dasharray="5,2" d="M455.13,-33.21C470.19,-38.09 486.29,-43.31 500.74,-48"/>
<polygon fill="#9a32cd" stroke="#9a32cd" points="456.01,-29.81 445.42,-30.06 453.85,-36.47 456.01,-29.81"/>
</a>
</g>
<text text-anchor="middle" x="473" y="-44" font-family="Helvetica,sans-Serif" font-size="10.00" fill="grey"> pq</text>
</g>
</g>
</svg>
