<?xml version="1.0" encoding="UTF-8" standalone="no"?>
<!DOCTYPE svg PUBLIC "-//W3C//DTD SVG 1.1//EN"
 "http://www.w3.org/Graphics/SVG/1.1/DTD/svg11.dtd">
<!-- Generated by graphviz version 2.43.0 (0)
 -->
<!-- Title: adiar::stats_t Pages: 1 -->
<svg width="945pt" height="424pt"
 viewBox="0.00 0.00 945.00 424.00" xmlns="http://www.w3.org/2000/svg" xmlns:xlink="http://www.w3.org/1999/xlink">
<g id="graph0" class="graph" transform="scale(1 1) rotate(0) translate(4 420)">
<title>adiar::stats_t</title>
<!-- Node1 -->
<g id="node1" class="node">
<title>Node1</title>
<g id="a_node1"><a xlink:title="Available statistics from algorithm&#39;s and data structures.">
<polygon fill="#bfbfbf" stroke="black" points="857,-221 857,-240 937,-240 937,-221 857,-221"/>
<text text-anchor="middle" x="897" y="-228" font-family="Helvetica,sans-Serif" font-size="10.00">adiar::stats_t</text>
</a>
</g>
</g>
<!-- Node2 -->
<g id="node2" class="node">
<title>Node2</title>
<g id="a_node2"><a xlink:href="structadiar_1_1stats__t_1_1if__else__t.html" target="_top" xlink:title="If&#45;Then&#45;Else algorithm statistics.">
<polygon fill="none" stroke="black" points="596.5,-385.5 596.5,-415.5 689.5,-415.5 689.5,-385.5 596.5,-385.5"/>
<text text-anchor="start" x="604.5" y="-403.5" font-family="Helvetica,sans-Serif" font-size="10.00">adiar::stats_t::if</text>
<text text-anchor="middle" x="643" y="-392.5" font-family="Helvetica,sans-Serif" font-size="10.00">_else_t</text>
</a>
</g>
</g>
<!-- Node2&#45;&gt;Node1 -->
<g id="edge1" class="edge">
<title>Node2&#45;&gt;Node1</title>
<path fill="none" stroke="#9a32cd" stroke-dasharray="5,2" d="M699.77,-405.11C742.25,-405.63 799.9,-399.53 839,-368.5 881.03,-335.14 892.36,-265.5 895.15,-240.07"/>
<polygon fill="#9a32cd" stroke="#9a32cd" points="699.68,-401.6 689.59,-404.85 699.5,-408.6 699.68,-401.6"/>
<text text-anchor="middle" x="786" y="-406.5" font-family="Helvetica,sans-Serif" font-size="10.00"> if_else</text>
</g>
<!-- Node3 -->
<g id="node3" class="node">
<title>Node3</title>
<g id="a_node3"><a xlink:href="structadiar_1_1stats__t_1_1____alg__base.html" target="_top" xlink:title="Common statistics for all algorithms.">
<polygon fill="none" stroke="black" points="335,-221 335,-240 475,-240 475,-221 335,-221"/>
<text text-anchor="middle" x="405" y="-228" font-family="Helvetica,sans-Serif" font-size="10.00">adiar::stats_t::__alg_base</text>
</a>
</g>
</g>
<!-- Node3&#45;&gt;Node2 -->
<g id="edge2" class="edge">
<title>Node3&#45;&gt;Node2</title>
<path fill="none" stroke="midnightblue" d="M419.8,-248.15C436.02,-268.25 464.38,-301.41 493,-325.5 524.5,-352.02 534,-357.43 571,-375.5 578.99,-379.4 587.74,-382.99 596.29,-386.16"/>
<polygon fill="midnightblue" stroke="midnightblue" points="422.4,-245.8 413.43,-240.16 416.93,-250.16 422.4,-245.8"/>
</g>
<!-- Node6 -->
<g id="node6" class="node">
<title>Node6</title>
<g id="a_node6"><a xlink:href="structadiar_1_1stats__t_1_1intercut__t.html" target="_top" xlink:title="Intercut algorithm statistics.">
<polygon fill="none" stroke="black" points="576.5,-347 576.5,-366 709.5,-366 709.5,-347 576.5,-347"/>
<text text-anchor="middle" x="643" y="-354" font-family="Helvetica,sans-Serif" font-size="10.00">adiar::stats_t::intercut_t</text>
</a>
</g>
</g>
<!-- Node3&#45;&gt;Node6 -->
<g id="edge7" class="edge">
<title>Node3&#45;&gt;Node6</title>
<path fill="none" stroke="midnightblue" d="M426.04,-246.51C455.95,-269.68 514.78,-312.5 571,-337.5 579.39,-341.23 588.68,-344.37 597.7,-346.95"/>
<polygon fill="midnightblue" stroke="midnightblue" points="428.09,-243.67 418.06,-240.26 423.77,-249.18 428.09,-243.67"/>
</g>
<!-- Node7 -->
<g id="node7" class="node">
<title>Node7</title>
<g id="a_node7"><a xlink:href="structadiar_1_1stats__t_1_1product__construction__t.html" target="_top" xlink:title="2&#45;ary Product Construction algorithm statistics.">
<polygon fill="none" stroke="black" points="581.5,-297.5 581.5,-327.5 704.5,-327.5 704.5,-297.5 581.5,-297.5"/>
<text text-anchor="start" x="589.5" y="-315.5" font-family="Helvetica,sans-Serif" font-size="10.00">adiar::stats_t::product</text>
<text text-anchor="middle" x="643" y="-304.5" font-family="Helvetica,sans-Serif" font-size="10.00">_construction_t</text>
</a>
</g>
</g>
<!-- Node3&#45;&gt;Node7 -->
<g id="edge9" class="edge">
<title>Node3&#45;&gt;Node7</title>
<path fill="none" stroke="midnightblue" d="M439.78,-243.71C455.84,-249.89 475.34,-257.25 493,-263.5 526.76,-275.45 565.15,-288.05 594.51,-297.48"/>
<polygon fill="midnightblue" stroke="midnightblue" points="440.86,-240.38 430.27,-240.04 438.33,-246.91 440.86,-240.38"/>
</g>
<!-- Node8 -->
<g id="node8" class="node">
<title>Node8</title>
<g id="a_node8"><a xlink:href="structadiar_1_1stats__t_1_1equality__t.html" target="_top" xlink:title="Equality Checking algorithm statistics.">
<polygon fill="none" stroke="black" points="575.5,-62 575.5,-81 710.5,-81 710.5,-62 575.5,-62"/>
<text text-anchor="middle" x="643" y="-69" font-family="Helvetica,sans-Serif" font-size="10.00">adiar::stats_t::equality_t</text>
</a>
</g>
</g>
<!-- Node3&#45;&gt;Node8 -->
<g id="edge11" class="edge">
<title>Node3&#45;&gt;Node8</title>
<path fill="none" stroke="midnightblue" d="M428.93,-215.05C477.26,-182.49 588.33,-107.66 627.78,-81.08"/>
<polygon fill="midnightblue" stroke="midnightblue" points="426.75,-212.3 420.41,-220.79 430.66,-218.11 426.75,-212.3"/>
</g>
<!-- Node11 -->
<g id="node11" class="node">
<title>Node11</title>
<g id="a_node11"><a xlink:href="structadiar_1_1stats__t_1_1quantify__t.html" target="_top" xlink:title="Quantification algorithm statistics.">
<polygon fill="none" stroke="black" points="575.5,-259 575.5,-278 710.5,-278 710.5,-259 575.5,-259"/>
<text text-anchor="middle" x="643" y="-266" font-family="Helvetica,sans-Serif" font-size="10.00">adiar::stats_t::quantify_t</text>
</a>
</g>
</g>
<!-- Node3&#45;&gt;Node11 -->
<g id="edge15" class="edge">
<title>Node3&#45;&gt;Node11</title>
<path fill="none" stroke="midnightblue" d="M475.15,-241.63C509.28,-247.13 550.04,-253.69 582.73,-258.96"/>
<polygon fill="midnightblue" stroke="midnightblue" points="475.68,-238.17 465.25,-240.04 474.56,-245.09 475.68,-238.17"/>
</g>
<!-- Node12 -->
<g id="node12" class="node">
<title>Node12</title>
<g id="a_node12"><a xlink:href="structadiar_1_1stats__t_1_1substitute__t.html" target="_top" xlink:title="Substitution algorithm statistics.">
<polygon fill="none" stroke="black" points="571,-221 571,-240 715,-240 715,-221 571,-221"/>
<text text-anchor="middle" x="643" y="-228" font-family="Helvetica,sans-Serif" font-size="10.00">adiar::stats_t::substitute_t</text>
</a>
</g>
</g>
<!-- Node3&#45;&gt;Node12 -->
<g id="edge17" class="edge">
<title>Node3&#45;&gt;Node12</title>
<path fill="none" stroke="midnightblue" d="M485.25,-230.5C512.91,-230.5 543.77,-230.5 570.74,-230.5"/>
<polygon fill="midnightblue" stroke="midnightblue" points="485.21,-227 475.21,-230.5 485.21,-234 485.21,-227"/>
</g>
<!-- Node13 -->
<g id="node13" class="node">
<title>Node13</title>
<g id="a_node13"><a xlink:href="structadiar_1_1stats__t_1_1reduce__t.html" target="_top" xlink:title="Reduce algorithm statistics.">
<polygon fill="none" stroke="black" points="579,-183 579,-202 707,-202 707,-183 579,-183"/>
<text text-anchor="middle" x="643" y="-190" font-family="Helvetica,sans-Serif" font-size="10.00">adiar::stats_t::reduce_t</text>
</a>
</g>
</g>
<!-- Node3&#45;&gt;Node13 -->
<g id="edge19" class="edge">
<title>Node3&#45;&gt;Node13</title>
<path fill="none" stroke="midnightblue" d="M475.15,-219.37C509.28,-213.87 550.04,-207.31 582.73,-202.04"/>
<polygon fill="midnightblue" stroke="midnightblue" points="474.56,-215.91 465.25,-220.96 475.68,-222.83 474.56,-215.91"/>
</g>
<!-- Node14 -->
<g id="node14" class="node">
<title>Node14</title>
<g id="a_node14"><a xlink:href="structadiar_1_1stats__t_1_1count__t.html" target="_top" xlink:title="Counting algorithm statistics.">
<polygon fill="none" stroke="black" points="582,-145 582,-164 704,-164 704,-145 582,-145"/>
<text text-anchor="middle" x="643" y="-152" font-family="Helvetica,sans-Serif" font-size="10.00">adiar::stats_t::count_t</text>
</a>
</g>
</g>
<!-- Node3&#45;&gt;Node14 -->
<g id="edge21" class="edge">
<title>Node3&#45;&gt;Node14</title>
<path fill="none" stroke="midnightblue" d="M441.54,-217.4C474.79,-205.34 525.96,-187.29 571,-173.5 581.74,-170.21 593.48,-166.94 604.27,-164.06"/>
<polygon fill="midnightblue" stroke="midnightblue" points="440.02,-214.23 431.82,-220.94 442.41,-220.81 440.02,-214.23"/>
</g>
<!-- Node4 -->
<g id="node4" class="node">
<title>Node4</title>
<g id="a_node4"><a xlink:href="structadiar_1_1stats__t_1_1____alg__base_1_1____lpq.html" target="_top" xlink:title="Type and usage of this algorithm&#39;s levelized priority queue.">
<polygon fill="none" stroke="black" points="168,-180.5 168,-210.5 280,-210.5 280,-180.5 168,-180.5"/>
<text text-anchor="start" x="176" y="-198.5" font-family="Helvetica,sans-Serif" font-size="10.00">adiar::stats_t::__alg</text>
<text text-anchor="middle" x="224" y="-187.5" font-family="Helvetica,sans-Serif" font-size="10.00">_base::__lpq</text>
</a>
</g>
</g>
<!-- Node4&#45;&gt;Node3 -->
<g id="edge3" class="edge">
<title>Node4&#45;&gt;Node3</title>
<path fill="none" stroke="#9a32cd" stroke-dasharray="5,2" d="M290.22,-208.25C311.75,-212.46 335.31,-217.07 355.38,-220.99"/>
<polygon fill="#9a32cd" stroke="#9a32cd" points="290.65,-204.77 280.17,-206.29 289.31,-211.64 290.65,-204.77"/>
<text text-anchor="middle" x="307.5" y="-215.5" font-family="Helvetica,sans-Serif" font-size="10.00"> lpq</text>
</g>
<!-- Node5 -->
<g id="node5" class="node">
<title>Node5</title>
<g id="a_node5"><a xlink:href="structadiar_1_1stats__t_1_1levelized__priority__queue__t.html" target="_top" xlink:title="Levelized Priority Queue statistics.">
<polygon fill="none" stroke="black" points="0,-113.5 0,-143.5 131,-143.5 131,-113.5 0,-113.5"/>
<text text-anchor="start" x="8" y="-131.5" font-family="Helvetica,sans-Serif" font-size="10.00">adiar::stats_t::levelized</text>
<text text-anchor="middle" x="65.5" y="-120.5" font-family="Helvetica,sans-Serif" font-size="10.00">_priority_queue_t</text>
</a>
</g>
</g>
<!-- Node5&#45;&gt;Node1 -->
<g id="edge5" class="edge">
<title>Node5&#45;&gt;Node1</title>
<path fill="none" stroke="#9a32cd" stroke-dasharray="5,2" d="M141.24,-120.43C167.11,-118.26 196.3,-116.5 223,-116.5 223,-116.5 223,-116.5 644,-116.5 732.3,-116.5 764.18,-107.61 839,-154.5 865.27,-170.97 883.7,-204.24 891.63,-220.75"/>
<polygon fill="#9a32cd" stroke="#9a32cd" points="140.79,-116.95 131.14,-121.31 141.4,-123.93 140.79,-116.95"/>
<text text-anchor="start" x="361" y="-130.5" font-family="Helvetica,sans-Serif" font-size="10.00"> levelized_priority</text>
<text text-anchor="middle" x="405" y="-119.5" font-family="Helvetica,sans-Serif" font-size="10.00">_queue</text>
</g>
<!-- Node5&#45;&gt;Node4 -->
<g id="edge4" class="edge">
<title>Node5&#45;&gt;Node4</title>
<path fill="none" stroke="midnightblue" d="M110.99,-147.55C135.32,-157.96 165.02,-170.68 187.73,-180.4"/>
<polygon fill="midnightblue" stroke="midnightblue" points="112.19,-144.25 101.62,-143.54 109.44,-150.69 112.19,-144.25"/>
</g>
<!-- Node6&#45;&gt;Node1 -->
<g id="edge6" class="edge">
<title>Node6&#45;&gt;Node1</title>
<path fill="none" stroke="#9a32cd" stroke-dasharray="5,2" d="M720.04,-355.5C758.49,-351.73 804.24,-341.99 839,-318.5 868.26,-298.73 885.91,-258.39 892.74,-240.01"/>
<polygon fill="#9a32cd" stroke="#9a32cd" points="719.59,-352.02 709.92,-356.37 720.19,-359 719.59,-352.02"/>
<text text-anchor="middle" x="786" y="-356.5" font-family="Helvetica,sans-Serif" font-size="10.00"> intercut</text>
</g>
<!-- Node7&#45;&gt;Node1 -->
<g id="edge8" class="edge">
<title>Node7&#45;&gt;Node1</title>
<path fill="none" stroke="#9a32cd" stroke-dasharray="5,2" d="M714.64,-306.72C752.77,-301.66 799.91,-292.19 839,-274.5 857.68,-266.05 875.82,-250.37 886.44,-240.19"/>
<polygon fill="#9a32cd" stroke="#9a32cd" points="714.13,-303.26 704.64,-307.97 715,-310.2 714.13,-303.26"/>
<text text-anchor="middle" x="786" y="-306.5" font-family="Helvetica,sans-Serif" font-size="10.00"> product_construction</text>
</g>
<!-- Node8&#45;&gt;Node1 -->
<g id="edge10" class="edge">
<title>Node8&#45;&gt;Node1</title>
<path fill="none" stroke="#9a32cd" stroke-dasharray="5,2" d="M720.93,-61.77C759.83,-60.93 805.72,-66.62 839,-91.5 882.24,-123.83 892.82,-194.76 895.29,-220.72"/>
<polygon fill="#9a32cd" stroke="#9a32cd" points="720.55,-58.28 710.68,-62.15 720.8,-65.28 720.55,-58.28"/>
<text text-anchor="middle" x="786" y="-94.5" font-family="Helvetica,sans-Serif" font-size="10.00"> equality</text>
</g>
<!-- Node9 -->
<g id="node9" class="node">
<title>Node9</title>
<g id="a_node9"><a xlink:href="structadiar_1_1stats__t_1_1equality__t_1_1slow__t.html" target="_top" xlink:title="Statistics from O(N log N) time&#45;forward processing equality checking algorithm.">
<polygon fill="none" stroke="black" points="342,-49.5 342,-79.5 468,-79.5 468,-49.5 342,-49.5"/>
<text text-anchor="start" x="350" y="-67.5" font-family="Helvetica,sans-Serif" font-size="10.00">adiar::stats_t::equality</text>
<text text-anchor="middle" x="405" y="-56.5" font-family="Helvetica,sans-Serif" font-size="10.00">_t::slow_t</text>
</a>
</g>
</g>
<!-- Node9&#45;&gt;Node8 -->
<g id="edge12" class="edge">
<title>Node9&#45;&gt;Node8</title>
<path fill="none" stroke="#9a32cd" stroke-dasharray="5,2" d="M478.3,-66.64C509.25,-67.56 545.16,-68.63 575.45,-69.53"/>
<polygon fill="#9a32cd" stroke="#9a32cd" points="478.11,-63.14 468.01,-66.34 477.9,-70.13 478.11,-63.14"/>
<text text-anchor="middle" x="523" y="-72.5" font-family="Helvetica,sans-Serif" font-size="10.00"> slow_check</text>
</g>
<!-- Node10 -->
<g id="node10" class="node">
<title>Node10</title>
<g id="a_node10"><a xlink:href="structadiar_1_1stats__t_1_1equality__t_1_1fast__t.html" target="_top" xlink:title="Statistics from O(N) linear&#45;scan equality checking algorithm.">
<polygon fill="none" stroke="black" points="342,-0.5 342,-30.5 468,-30.5 468,-0.5 342,-0.5"/>
<text text-anchor="start" x="350" y="-18.5" font-family="Helvetica,sans-Serif" font-size="10.00">adiar::stats_t::equality</text>
<text text-anchor="middle" x="405" y="-7.5" font-family="Helvetica,sans-Serif" font-size="10.00">_t::fast_t</text>
</a>
</g>
</g>
<!-- Node10&#45;&gt;Node8 -->
<g id="edge13" class="edge">
<title>Node10&#45;&gt;Node8</title>
<path fill="none" stroke="#9a32cd" stroke-dasharray="5,2" d="M477.89,-32.56C518.59,-42.22 567.99,-53.94 601.89,-61.98"/>
<polygon fill="#9a32cd" stroke="#9a32cd" points="478.54,-29.12 468.01,-30.21 476.93,-35.93 478.54,-29.12"/>
<text text-anchor="middle" x="523" y="-53.5" font-family="Helvetica,sans-Serif" font-size="10.00"> fast_check</text>
</g>
<!-- Node11&#45;&gt;Node1 -->
<g id="edge14" class="edge">
<title>Node11&#45;&gt;Node1</title>
<path fill="none" stroke="#9a32cd" stroke-dasharray="5,2" d="M720.6,-261.19C756.68,-257.21 800.21,-251.63 839,-244.5 845.82,-243.25 853.03,-241.67 859.96,-240.04"/>
<polygon fill="#9a32cd" stroke="#9a32cd" points="720.2,-257.72 710.63,-262.27 720.95,-264.67 720.2,-257.72"/>
<text text-anchor="middle" x="786" y="-262.5" font-family="Helvetica,sans-Serif" font-size="10.00"> quantify</text>
</g>
<!-- Node12&#45;&gt;Node1 -->
<g id="edge16" class="edge">
<title>Node12&#45;&gt;Node1</title>
<path fill="none" stroke="#9a32cd" stroke-dasharray="5,2" d="M725.32,-230.5C769.31,-230.5 821.64,-230.5 856.66,-230.5"/>
<polygon fill="#9a32cd" stroke="#9a32cd" points="725.2,-227 715.2,-230.5 725.2,-234 725.2,-227"/>
<text text-anchor="middle" x="786" y="-233.5" font-family="Helvetica,sans-Serif" font-size="10.00"> substitute</text>
</g>
<!-- Node13&#45;&gt;Node1 -->
<g id="edge18" class="edge">
<title>Node13&#45;&gt;Node1</title>
<path fill="none" stroke="#9a32cd" stroke-dasharray="5,2" d="M717.26,-198.69C753.99,-202.42 799.05,-207.93 839,-215.5 846.84,-216.99 855.2,-218.96 863.02,-220.99"/>
<polygon fill="#9a32cd" stroke="#9a32cd" points="717.43,-195.19 707.13,-197.69 716.74,-202.16 717.43,-195.19"/>
<text text-anchor="middle" x="786" y="-218.5" font-family="Helvetica,sans-Serif" font-size="10.00"> reduce</text>
</g>
<!-- Node14&#45;&gt;Node1 -->
<g id="edge20" class="edge">
<title>Node14&#45;&gt;Node1</title>
<path fill="none" stroke="#9a32cd" stroke-dasharray="5,2" d="M714.3,-156.45C752.54,-159.67 799.88,-167.23 839,-184.5 858.54,-193.13 876.98,-210.24 887.35,-220.99"/>
<polygon fill="#9a32cd" stroke="#9a32cd" points="714.52,-152.96 704.28,-155.69 713.99,-159.94 714.52,-152.96"/>
<text text-anchor="middle" x="786" y="-187.5" font-family="Helvetica,sans-Serif" font-size="10.00"> count</text>
</g>
</g>
</svg>
