<?xml version="1.0" encoding="UTF-8" standalone="no"?>
<!DOCTYPE svg PUBLIC "-//W3C//DTD SVG 1.1//EN"
 "http://www.w3.org/Graphics/SVG/1.1/DTD/svg11.dtd">
<!-- Generated by graphviz version 2.43.0 (0)
 -->
<!-- Title: adiar::statistics Pages: 1 -->
<svg width="1434pt" height="665pt"
 viewBox="0.00 0.00 1434.00 664.50" xmlns="http://www.w3.org/2000/svg" xmlns:xlink="http://www.w3.org/1999/xlink">
<g id="graph0" class="graph" transform="scale(1 1) rotate(0) translate(4 660.5)">
<title>adiar::statistics</title>
<!-- Node1 -->
<g id="node1" class="node">
<title>Node1</title>
<g id="a_node1"><a xlink:title="Available statistics from algorithm&#39;s and data structures.">
<polygon fill="#bfbfbf" stroke="black" points="1334,-278 1334,-297 1426,-297 1426,-278 1334,-278"/>
<text text-anchor="middle" x="1380" y="-285" font-family="Helvetica,sans-Serif" font-size="10.00">adiar::statistics</text>
</a>
</g>
</g>
<!-- Node2 -->
<g id="node2" class="node">
<title>Node2</title>
<g id="a_node2"><a xlink:href="structadiar_1_1statistics_1_1intercut__t.html" target="_top" xlink:title="Intercut algorithm statistics.">
<polygon fill="none" stroke="black" points="699,-499.5 699,-529.5 797,-529.5 797,-499.5 699,-499.5"/>
<text text-anchor="start" x="707" y="-517.5" font-family="Helvetica,sans-Serif" font-size="10.00">adiar::statistics::</text>
<text text-anchor="middle" x="748" y="-506.5" font-family="Helvetica,sans-Serif" font-size="10.00">intercut_t</text>
</a>
</g>
</g>
<!-- Node2&#45;&gt;Node1 -->
<g id="edge1" class="edge">
<title>Node2&#45;&gt;Node1</title>
<path fill="none" stroke="#9a32cd" stroke-dasharray="5,2" d="M807.35,-521.83C918.98,-532.51 1165.09,-539.57 1316,-419.5 1356.73,-387.09 1372.63,-321.94 1377.35,-297.27"/>
<polygon fill="#9a32cd" stroke="#9a32cd" points="807.59,-518.33 797.29,-520.82 806.9,-525.3 807.59,-518.33"/>
<text text-anchor="middle" x="1033" y="-527.5" font-family="Helvetica,sans-Serif" font-size="10.00"> intercut</text>
</g>
<!-- Node3 -->
<g id="node3" class="node">
<title>Node3</title>
<g id="a_node3"><a xlink:href="structadiar_1_1statistics_1_1____alg__base.html" target="_top" xlink:title="Common statistics for all algorithms.">
<polygon fill="none" stroke="black" points="342.5,-295.5 342.5,-325.5 440.5,-325.5 440.5,-295.5 342.5,-295.5"/>
<text text-anchor="start" x="350.5" y="-313.5" font-family="Helvetica,sans-Serif" font-size="10.00">adiar::statistics::</text>
<text text-anchor="middle" x="391.5" y="-302.5" font-family="Helvetica,sans-Serif" font-size="10.00">__alg_base</text>
</a>
</g>
</g>
<!-- Node3&#45;&gt;Node2 -->
<g id="edge2" class="edge">
<title>Node3&#45;&gt;Node2</title>
<path fill="none" stroke="midnightblue" d="M393.77,-335.91C397.3,-376.64 410.64,-455.77 461,-493.5 530.23,-545.36 637.23,-536.5 698.84,-525.45"/>
<polygon fill="midnightblue" stroke="midnightblue" points="397.24,-335.46 393.02,-325.74 390.26,-335.97 397.24,-335.46"/>
</g>
<!-- Node6 -->
<g id="node6" class="node">
<title>Node6</title>
<g id="a_node6"><a xlink:href="structadiar_1_1statistics_1_1substitute__t.html" target="_top" xlink:title="Substitution algorithm statistics.">
<polygon fill="none" stroke="black" points="984,-431.5 984,-461.5 1082,-461.5 1082,-431.5 984,-431.5"/>
<text text-anchor="start" x="992" y="-449.5" font-family="Helvetica,sans-Serif" font-size="10.00">adiar::statistics::</text>
<text text-anchor="middle" x="1033" y="-438.5" font-family="Helvetica,sans-Serif" font-size="10.00">substitute_t</text>
</a>
</g>
</g>
<!-- Node3&#45;&gt;Node6 -->
<g id="edge6" class="edge">
<title>Node3&#45;&gt;Node6</title>
<path fill="none" stroke="midnightblue" d="M406.93,-334.55C429.78,-369.99 478.02,-434.82 539,-460.5 618.11,-493.82 875.71,-466.36 983.69,-452.89"/>
<polygon fill="midnightblue" stroke="midnightblue" points="409.71,-332.4 401.42,-325.8 403.79,-336.13 409.71,-332.4"/>
</g>
<!-- Node8 -->
<g id="node8" class="node">
<title>Node8</title>
<g id="a_node8"><a xlink:href="structadiar_1_1statistics_1_1prod2__t.html" target="_top" xlink:title="2&#45;ary Product Construction algorithm statistics.">
<polygon fill="none" stroke="black" points="561,-164.5 561,-194.5 659,-194.5 659,-164.5 561,-164.5"/>
<text text-anchor="start" x="569" y="-182.5" font-family="Helvetica,sans-Serif" font-size="10.00">adiar::statistics::</text>
<text text-anchor="middle" x="610" y="-171.5" font-family="Helvetica,sans-Serif" font-size="10.00">prod2_t</text>
</a>
</g>
</g>
<!-- Node3&#45;&gt;Node8 -->
<g id="edge9" class="edge">
<title>Node3&#45;&gt;Node8</title>
<path fill="none" stroke="midnightblue" d="M412.41,-287.66C425.27,-273.89 442.93,-256.71 461,-244.5 470.82,-237.86 532.18,-211.66 572.74,-194.62"/>
<polygon fill="midnightblue" stroke="midnightblue" points="409.58,-285.57 405.43,-295.31 414.75,-290.29 409.58,-285.57"/>
</g>
<!-- Node13 -->
<g id="node13" class="node">
<title>Node13</title>
<g id="a_node13"><a xlink:href="structadiar_1_1statistics_1_1nested__sweeping__t_1_1inner__t_1_1down__t.html" target="_top" xlink:title="Inner Down Sweep.">
<polygon fill="none" stroke="black" points="539.5,-290 539.5,-331 680.5,-331 680.5,-290 539.5,-290"/>
<text text-anchor="start" x="547.5" y="-319" font-family="Helvetica,sans-Serif" font-size="10.00">adiar::statistics::</text>
<text text-anchor="start" x="547.5" y="-308" font-family="Helvetica,sans-Serif" font-size="10.00">nested_sweeping_t::inner</text>
<text text-anchor="middle" x="610" y="-297" font-family="Helvetica,sans-Serif" font-size="10.00">_t::down_t</text>
</a>
</g>
</g>
<!-- Node3&#45;&gt;Node13 -->
<g id="edge15" class="edge">
<title>Node3&#45;&gt;Node13</title>
<path fill="none" stroke="midnightblue" d="M450.72,-310.5C478,-310.5 510.72,-310.5 539.31,-310.5"/>
<polygon fill="midnightblue" stroke="midnightblue" points="450.55,-307 440.55,-310.5 450.55,-314 450.55,-307"/>
</g>
<!-- Node14 -->
<g id="node14" class="node">
<title>Node14</title>
<g id="a_node14"><a xlink:href="structadiar_1_1statistics_1_1nested__sweeping__t_1_1inner__t_1_1up__t.html" target="_top" xlink:title="Inner Up Sweep.">
<polygon fill="none" stroke="black" points="539.5,-350 539.5,-391 680.5,-391 680.5,-350 539.5,-350"/>
<text text-anchor="start" x="547.5" y="-379" font-family="Helvetica,sans-Serif" font-size="10.00">adiar::statistics::</text>
<text text-anchor="start" x="547.5" y="-368" font-family="Helvetica,sans-Serif" font-size="10.00">nested_sweeping_t::inner</text>
<text text-anchor="middle" x="610" y="-357" font-family="Helvetica,sans-Serif" font-size="10.00">_t::up_t</text>
</a>
</g>
</g>
<!-- Node3&#45;&gt;Node14 -->
<g id="edge17" class="edge">
<title>Node3&#45;&gt;Node14</title>
<path fill="none" stroke="midnightblue" d="M450.36,-326.53C477.71,-334.12 510.59,-343.23 539.31,-351.19"/>
<polygon fill="midnightblue" stroke="midnightblue" points="451.12,-323.11 440.55,-323.82 449.25,-329.86 451.12,-323.11"/>
</g>
<!-- Node17 -->
<g id="node17" class="node">
<title>Node17</title>
<g id="a_node17"><a xlink:href="structadiar_1_1statistics_1_1quantify__t.html" target="_top" xlink:title="Quantification algorithm statistics.">
<polygon fill="none" stroke="black" points="699,-248.5 699,-278.5 797,-278.5 797,-248.5 699,-248.5"/>
<text text-anchor="start" x="707" y="-266.5" font-family="Helvetica,sans-Serif" font-size="10.00">adiar::statistics::</text>
<text text-anchor="middle" x="748" y="-255.5" font-family="Helvetica,sans-Serif" font-size="10.00">quantify_t</text>
</a>
</g>
</g>
<!-- Node3&#45;&gt;Node17 -->
<g id="edge21" class="edge">
<title>Node3&#45;&gt;Node17</title>
<path fill="none" stroke="midnightblue" d="M450.72,-296.9C477.48,-291.08 509.71,-284.68 539,-280.5 593.52,-272.72 656.63,-268.18 698.9,-265.78"/>
<polygon fill="midnightblue" stroke="midnightblue" points="449.76,-293.53 440.74,-299.1 451.26,-300.36 449.76,-293.53"/>
</g>
<!-- Node18 -->
<g id="node18" class="node">
<title>Node18</title>
<g id="a_node18"><a xlink:href="structadiar_1_1statistics_1_1prod3__t.html" target="_top" xlink:title="3&#45;ary Product Construction algorithm statistics.">
<polygon fill="none" stroke="black" points="984,-210.5 984,-240.5 1082,-240.5 1082,-210.5 984,-210.5"/>
<text text-anchor="start" x="992" y="-228.5" font-family="Helvetica,sans-Serif" font-size="10.00">adiar::statistics::</text>
<text text-anchor="middle" x="1033" y="-217.5" font-family="Helvetica,sans-Serif" font-size="10.00">prod3_t</text>
</a>
</g>
</g>
<!-- Node3&#45;&gt;Node18 -->
<g id="edge23" class="edge">
<title>Node3&#45;&gt;Node18</title>
<path fill="none" stroke="midnightblue" d="M431.51,-291.14C441,-286.91 451.24,-282.73 461,-279.5 494.68,-268.35 504.08,-268.81 539,-262.5 609.7,-249.73 627.46,-246.13 699,-239.5 800.12,-230.13 919.09,-227.03 983.92,-226"/>
<polygon fill="midnightblue" stroke="midnightblue" points="429.93,-288.01 422.3,-295.36 432.85,-294.38 429.93,-288.01"/>
</g>
<!-- Node19 -->
<g id="node19" class="node">
<title>Node19</title>
<g id="a_node19"><a xlink:href="structadiar_1_1statistics_1_1reduce__t.html" target="_top" xlink:title="Reduce algorithm statistics.">
<polygon fill="none" stroke="black" points="699,-582.5 699,-612.5 797,-612.5 797,-582.5 699,-582.5"/>
<text text-anchor="start" x="707" y="-600.5" font-family="Helvetica,sans-Serif" font-size="10.00">adiar::statistics::</text>
<text text-anchor="middle" x="748" y="-589.5" font-family="Helvetica,sans-Serif" font-size="10.00">reduce_t</text>
</a>
</g>
</g>
<!-- Node3&#45;&gt;Node19 -->
<g id="edge25" class="edge">
<title>Node3&#45;&gt;Node19</title>
<path fill="none" stroke="midnightblue" d="M395.54,-335.79C403.17,-394.83 425.15,-539 461,-569.5 527.4,-625.99 636.42,-618.41 698.93,-607.9"/>
<polygon fill="midnightblue" stroke="midnightblue" points="399,-335.29 394.28,-325.81 392.06,-336.17 399,-335.29"/>
</g>
<!-- Node20 -->
<g id="node20" class="node">
<title>Node20</title>
<g id="a_node20"><a xlink:href="structadiar_1_1statistics_1_1equality__t.html" target="_top" xlink:title="Equality Checking algorithm statistics.">
<polygon fill="none" stroke="black" points="561,-47.5 561,-77.5 659,-77.5 659,-47.5 561,-47.5"/>
<text text-anchor="start" x="569" y="-65.5" font-family="Helvetica,sans-Serif" font-size="10.00">adiar::statistics::</text>
<text text-anchor="middle" x="610" y="-54.5" font-family="Helvetica,sans-Serif" font-size="10.00">equality_t</text>
</a>
</g>
</g>
<!-- Node3&#45;&gt;Node20 -->
<g id="edge27" class="edge">
<title>Node3&#45;&gt;Node20</title>
<path fill="none" stroke="midnightblue" d="M405.89,-286.65C418.12,-266.61 437.79,-238.31 461,-219.5 483.86,-200.97 503.03,-214.8 521,-191.5 548.31,-156.09 511.13,-127.47 539,-92.5 544.77,-85.26 552.62,-79.74 560.97,-75.54"/>
<polygon fill="midnightblue" stroke="midnightblue" points="402.75,-285.09 400.66,-295.48 408.77,-288.66 402.75,-285.09"/>
</g>
<!-- Node23 -->
<g id="node23" class="node">
<title>Node23</title>
<g id="a_node23"><a xlink:href="structadiar_1_1statistics_1_1count__t.html" target="_top" xlink:title="Counting algorithm statistics.">
<polygon fill="none" stroke="black" points="841.5,-540.5 841.5,-570.5 939.5,-570.5 939.5,-540.5 841.5,-540.5"/>
<text text-anchor="start" x="849.5" y="-558.5" font-family="Helvetica,sans-Serif" font-size="10.00">adiar::statistics::</text>
<text text-anchor="middle" x="890.5" y="-547.5" font-family="Helvetica,sans-Serif" font-size="10.00">count_t</text>
</a>
</g>
</g>
<!-- Node3&#45;&gt;Node23 -->
<g id="edge31" class="edge">
<title>Node3&#45;&gt;Node23</title>
<path fill="none" stroke="midnightblue" d="M393.2,-335.74C395.83,-379.98 407.81,-471.56 461,-521.5 514.79,-572.01 741.16,-564.77 841.4,-558.87"/>
<polygon fill="midnightblue" stroke="midnightblue" points="396.68,-335.39 392.71,-325.57 389.69,-335.72 396.68,-335.39"/>
</g>
<!-- Node4 -->
<g id="node4" class="node">
<title>Node4</title>
<g id="a_node4"><a xlink:href="structadiar_1_1statistics_1_1____alg__base_1_1____lpq.html" target="_top" xlink:title="Type and usage of this algorithm&#39;s levelized priority queue.">
<polygon fill="none" stroke="black" points="183,-218.5 183,-248.5 285,-248.5 285,-218.5 183,-218.5"/>
<text text-anchor="start" x="191" y="-236.5" font-family="Helvetica,sans-Serif" font-size="10.00">adiar::statistics::</text>
<text text-anchor="middle" x="234" y="-225.5" font-family="Helvetica,sans-Serif" font-size="10.00">__alg_base::__lpq</text>
</a>
</g>
</g>
<!-- Node4&#45;&gt;Node3 -->
<g id="edge3" class="edge">
<title>Node4&#45;&gt;Node3</title>
<path fill="none" stroke="#9a32cd" stroke-dasharray="5,2" d="M274.38,-253C300.94,-266.15 335.48,-283.25 359.96,-295.38"/>
<polygon fill="#9a32cd" stroke="#9a32cd" points="275.87,-249.83 265.35,-248.53 272.76,-256.1 275.87,-249.83"/>
<text text-anchor="middle" x="312.5" y="-276.5" font-family="Helvetica,sans-Serif" font-size="10.00"> lpq</text>
</g>
<!-- Node5 -->
<g id="node5" class="node">
<title>Node5</title>
<g id="a_node5"><a xlink:href="structadiar_1_1statistics_1_1levelized__priority__queue__t.html" target="_top" xlink:title="Levelized Priority Queue statistics.">
<polygon fill="none" stroke="black" points="0,-109.5 0,-139.5 146,-139.5 146,-109.5 0,-109.5"/>
<text text-anchor="start" x="8" y="-127.5" font-family="Helvetica,sans-Serif" font-size="10.00">adiar::statistics::</text>
<text text-anchor="middle" x="73" y="-116.5" font-family="Helvetica,sans-Serif" font-size="10.00">levelized_priority_queue_t</text>
</a>
</g>
</g>
<!-- Node5&#45;&gt;Node1 -->
<g id="edge32" class="edge">
<title>Node5&#45;&gt;Node1</title>
<path fill="none" stroke="#9a32cd" stroke-dasharray="5,2" d="M156.23,-122.49C283.03,-119.57 533.96,-114.5 747,-114.5 747,-114.5 747,-114.5 1156,-114.5 1235.11,-114.5 1256.49,-140.37 1316,-192.5 1344.88,-217.8 1366.17,-259.31 1374.79,-277.93"/>
<polygon fill="#9a32cd" stroke="#9a32cd" points="156.12,-118.99 146.2,-122.72 156.28,-125.99 156.12,-118.99"/>
<text text-anchor="start" x="566" y="-130.5" font-family="Helvetica,sans-Serif" font-size="10.00"> levelized_priority</text>
<text text-anchor="middle" x="610" y="-119.5" font-family="Helvetica,sans-Serif" font-size="10.00">_queue</text>
</g>
<!-- Node5&#45;&gt;Node4 -->
<g id="edge4" class="edge">
<title>Node5&#45;&gt;Node4</title>
<path fill="none" stroke="midnightblue" d="M104.44,-145.37C135.64,-166.76 183.4,-199.5 211.08,-218.47"/>
<polygon fill="midnightblue" stroke="midnightblue" points="106.34,-142.42 96.11,-139.66 102.38,-148.2 106.34,-142.42"/>
</g>
<!-- Node6&#45;&gt;Node1 -->
<g id="edge5" class="edge">
<title>Node6&#45;&gt;Node1</title>
<path fill="none" stroke="#9a32cd" stroke-dasharray="5,2" d="M1049.45,-422.71C1061.36,-406.24 1079.27,-385.09 1100,-372.5 1184.67,-321.07 1222.84,-351.18 1316,-317.5 1331.72,-311.82 1348.8,-303.54 1361.2,-297.12"/>
<polygon fill="#9a32cd" stroke="#9a32cd" points="1046.32,-421.09 1043.48,-431.3 1052.06,-425.09 1046.32,-421.09"/>
<text text-anchor="middle" x="1155" y="-375.5" font-family="Helvetica,sans-Serif" font-size="10.00"> substitute</text>
</g>
<!-- Node7 -->
<g id="node7" class="node">
<title>Node7</title>
<g id="a_node7"><a xlink:href="structadiar_1_1statistics_1_1arc__file__t.html" target="_top" xlink:title="Arc Files statistics.">
<polygon fill="none" stroke="black" points="1106,-392.5 1106,-422.5 1204,-422.5 1204,-392.5 1106,-392.5"/>
<text text-anchor="start" x="1114" y="-410.5" font-family="Helvetica,sans-Serif" font-size="10.00">adiar::statistics::</text>
<text text-anchor="middle" x="1155" y="-399.5" font-family="Helvetica,sans-Serif" font-size="10.00">arc_file_t</text>
</a>
</g>
</g>
<!-- Node7&#45;&gt;Node1 -->
<g id="edge7" class="edge">
<title>Node7&#45;&gt;Node1</title>
<path fill="none" stroke="#9a32cd" stroke-dasharray="5,2" d="M1214.45,-406.61C1246.61,-403.68 1285.97,-395.88 1316,-376.5 1346.86,-356.59 1367.13,-315.74 1375.13,-297.13"/>
<polygon fill="#9a32cd" stroke="#9a32cd" points="1213.98,-403.14 1204.28,-407.4 1214.52,-410.12 1213.98,-403.14"/>
<text text-anchor="middle" x="1272" y="-407.5" font-family="Helvetica,sans-Serif" font-size="10.00"> arc_file</text>
</g>
<!-- Node8&#45;&gt;Node1 -->
<g id="edge8" class="edge">
<title>Node8&#45;&gt;Node1</title>
<path fill="none" stroke="#9a32cd" stroke-dasharray="5,2" d="M669.29,-169.39C795.03,-150.48 1098.01,-120.8 1316,-228.5 1339.91,-240.31 1361.03,-264.22 1371.68,-277.7"/>
<polygon fill="#9a32cd" stroke="#9a32cd" points="668.46,-165.97 659.11,-170.95 669.52,-172.89 668.46,-165.97"/>
<text text-anchor="middle" x="1033" y="-164.5" font-family="Helvetica,sans-Serif" font-size="10.00"> prod2</text>
</g>
<!-- Node9 -->
<g id="node9" class="node">
<title>Node9</title>
<g id="a_node9"><a xlink:href="structadiar_1_1statistics_1_1prod2__t_1_1ra__t.html" target="_top" xlink:title="Statistics for the double priority queue implementation.">
<polygon fill="none" stroke="black" points="342.5,-190.5 342.5,-220.5 440.5,-220.5 440.5,-190.5 342.5,-190.5"/>
<text text-anchor="start" x="350.5" y="-208.5" font-family="Helvetica,sans-Serif" font-size="10.00">adiar::statistics::</text>
<text text-anchor="middle" x="391.5" y="-197.5" font-family="Helvetica,sans-Serif" font-size="10.00">prod2_t::ra_t</text>
</a>
</g>
</g>
<!-- Node9&#45;&gt;Node8 -->
<g id="edge10" class="edge">
<title>Node9&#45;&gt;Node8</title>
<path fill="none" stroke="#9a32cd" stroke-dasharray="5,2" d="M450.48,-198.54C484.93,-194.4 528.12,-189.21 560.71,-185.3"/>
<polygon fill="#9a32cd" stroke="#9a32cd" points="450.06,-195.06 440.55,-199.73 450.89,-202.01 450.06,-195.06"/>
<text text-anchor="middle" x="491" y="-200.5" font-family="Helvetica,sans-Serif" font-size="10.00"> ra</text>
</g>
<!-- Node10 -->
<g id="node10" class="node">
<title>Node10</title>
<g id="a_node10"><a xlink:href="structadiar_1_1statistics_1_1prod2__t_1_1pq__t.html" target="_top" xlink:title="Statistics for the double priority queue implementation.">
<polygon fill="none" stroke="black" points="342.5,-141.5 342.5,-171.5 440.5,-171.5 440.5,-141.5 342.5,-141.5"/>
<text text-anchor="start" x="350.5" y="-159.5" font-family="Helvetica,sans-Serif" font-size="10.00">adiar::statistics::</text>
<text text-anchor="middle" x="391.5" y="-148.5" font-family="Helvetica,sans-Serif" font-size="10.00">prod2_t::pq_t</text>
</a>
</g>
</g>
<!-- Node10&#45;&gt;Node8 -->
<g id="edge11" class="edge">
<title>Node10&#45;&gt;Node8</title>
<path fill="none" stroke="#9a32cd" stroke-dasharray="5,2" d="M450.63,-145.69C472.78,-143.21 498.18,-142.36 521,-146.5 540.27,-149.99 560.81,-157.46 577.19,-164.41"/>
<polygon fill="#9a32cd" stroke="#9a32cd" points="450.19,-142.22 440.7,-146.93 451.06,-149.17 450.19,-142.22"/>
<text text-anchor="middle" x="491" y="-149.5" font-family="Helvetica,sans-Serif" font-size="10.00"> pq</text>
</g>
<!-- Node11 -->
<g id="node11" class="node">
<title>Node11</title>
<g id="a_node11"><a xlink:href="structadiar_1_1statistics_1_1nested__sweeping__t.html" target="_top" xlink:title="Nested Sweeping statistics.">
<polygon fill="none" stroke="black" points="1100,-295.5 1100,-325.5 1210,-325.5 1210,-295.5 1100,-295.5"/>
<text text-anchor="start" x="1108" y="-313.5" font-family="Helvetica,sans-Serif" font-size="10.00">adiar::statistics::</text>
<text text-anchor="middle" x="1155" y="-302.5" font-family="Helvetica,sans-Serif" font-size="10.00">nested_sweeping_t</text>
</a>
</g>
</g>
<!-- Node11&#45;&gt;Node1 -->
<g id="edge12" class="edge">
<title>Node11&#45;&gt;Node1</title>
<path fill="none" stroke="#9a32cd" stroke-dasharray="5,2" d="M1220.29,-303.87C1256.66,-300.12 1301.25,-295.52 1333.89,-292.15"/>
<polygon fill="#9a32cd" stroke="#9a32cd" points="1219.85,-300.4 1210.27,-304.9 1220.57,-307.36 1219.85,-300.4"/>
<text text-anchor="middle" x="1272" y="-305.5" font-family="Helvetica,sans-Serif" font-size="10.00"> nested_sweeping</text>
</g>
<!-- Node12 -->
<g id="node12" class="node">
<title>Node12</title>
<g id="a_node12"><a xlink:href="structadiar_1_1statistics_1_1nested__sweeping__t_1_1inner__t.html" target="_top" xlink:title="Inner Sweep(s)">
<polygon fill="none" stroke="black" points="815.5,-295.5 815.5,-325.5 965.5,-325.5 965.5,-295.5 815.5,-295.5"/>
<text text-anchor="start" x="823.5" y="-313.5" font-family="Helvetica,sans-Serif" font-size="10.00">adiar::statistics::</text>
<text text-anchor="middle" x="890.5" y="-302.5" font-family="Helvetica,sans-Serif" font-size="10.00">nested_sweeping_t::inner_t</text>
</a>
</g>
</g>
<!-- Node12&#45;&gt;Node11 -->
<g id="edge13" class="edge">
<title>Node12&#45;&gt;Node11</title>
<path fill="none" stroke="#9a32cd" stroke-dasharray="5,2" d="M975.83,-310.5C1016.4,-310.5 1063.87,-310.5 1099.6,-310.5"/>
<polygon fill="#9a32cd" stroke="#9a32cd" points="975.67,-307 965.67,-310.5 975.67,-314 975.67,-307"/>
<text text-anchor="middle" x="1033" y="-313.5" font-family="Helvetica,sans-Serif" font-size="10.00"> inner</text>
</g>
<!-- Node13&#45;&gt;Node12 -->
<g id="edge14" class="edge">
<title>Node13&#45;&gt;Node12</title>
<path fill="none" stroke="#9a32cd" stroke-dasharray="5,2" d="M690.63,-310.5C729.9,-310.5 776.98,-310.5 815.47,-310.5"/>
<polygon fill="#9a32cd" stroke="#9a32cd" points="690.56,-307 680.56,-310.5 690.56,-314 690.56,-307"/>
<text text-anchor="middle" x="748" y="-313.5" font-family="Helvetica,sans-Serif" font-size="10.00"> down</text>
</g>
<!-- Node14&#45;&gt;Node12 -->
<g id="edge16" class="edge">
<title>Node14&#45;&gt;Node12</title>
<path fill="none" stroke="#9a32cd" stroke-dasharray="5,2" d="M690.47,-353.38C731.29,-344.59 780.56,-333.97 819.86,-325.5"/>
<polygon fill="#9a32cd" stroke="#9a32cd" points="689.6,-349.99 680.56,-355.51 691.07,-356.83 689.6,-349.99"/>
<text text-anchor="middle" x="748" y="-353.5" font-family="Helvetica,sans-Serif" font-size="10.00"> up</text>
</g>
<!-- Node15 -->
<g id="node15" class="node">
<title>Node15</title>
<g id="a_node15"><a xlink:href="structadiar_1_1statistics_1_1nested__sweeping__t_1_1outer__t.html" target="_top" xlink:title="Outer Sweep(s)">
<polygon fill="none" stroke="black" points="815,-393.5 815,-423.5 966,-423.5 966,-393.5 815,-393.5"/>
<text text-anchor="start" x="823" y="-411.5" font-family="Helvetica,sans-Serif" font-size="10.00">adiar::statistics::</text>
<text text-anchor="middle" x="890.5" y="-400.5" font-family="Helvetica,sans-Serif" font-size="10.00">nested_sweeping_t::outer_t</text>
</a>
</g>
</g>
<!-- Node15&#45;&gt;Node11 -->
<g id="edge18" class="edge">
<title>Node15&#45;&gt;Node11</title>
<path fill="none" stroke="#9a32cd" stroke-dasharray="5,2" d="M941.57,-389.81C991.5,-371.17 1067.25,-342.89 1113.51,-325.61"/>
<polygon fill="#9a32cd" stroke="#9a32cd" points="940.08,-386.63 931.94,-393.4 942.53,-393.18 940.08,-386.63"/>
<text text-anchor="middle" x="1033" y="-373.5" font-family="Helvetica,sans-Serif" font-size="10.00"> outer</text>
</g>
<!-- Node16 -->
<g id="node16" class="node">
<title>Node16</title>
<g id="a_node16"><a xlink:href="structadiar_1_1statistics_1_1nested__sweeping__t_1_1outer__t_1_1up__t.html" target="_top" xlink:title="Outer Up Sweep.">
<polygon fill="none" stroke="black" points="539,-410 539,-451 681,-451 681,-410 539,-410"/>
<text text-anchor="start" x="547" y="-439" font-family="Helvetica,sans-Serif" font-size="10.00">adiar::statistics::</text>
<text text-anchor="start" x="547" y="-428" font-family="Helvetica,sans-Serif" font-size="10.00">nested_sweeping_t::outer</text>
<text text-anchor="middle" x="610" y="-417" font-family="Helvetica,sans-Serif" font-size="10.00">_t::up_t</text>
</a>
</g>
</g>
<!-- Node16&#45;&gt;Node15 -->
<g id="edge19" class="edge">
<title>Node16&#45;&gt;Node15</title>
<path fill="none" stroke="#9a32cd" stroke-dasharray="5,2" d="M691.51,-424.14C730.4,-421.07 776.77,-417.41 814.86,-414.4"/>
<polygon fill="#9a32cd" stroke="#9a32cd" points="690.97,-420.67 681.28,-424.95 691.52,-427.65 690.97,-420.67"/>
<text text-anchor="middle" x="748" y="-425.5" font-family="Helvetica,sans-Serif" font-size="10.00"> up</text>
</g>
<!-- Node17&#45;&gt;Node1 -->
<g id="edge20" class="edge">
<title>Node17&#45;&gt;Node1</title>
<path fill="none" stroke="#9a32cd" stroke-dasharray="5,2" d="M807.23,-265.72C931.8,-270.46 1221.86,-281.51 1333.81,-285.78"/>
<polygon fill="#9a32cd" stroke="#9a32cd" points="807.25,-262.22 797.13,-265.33 806.99,-269.21 807.25,-262.22"/>
<text text-anchor="middle" x="1033" y="-278.5" font-family="Helvetica,sans-Serif" font-size="10.00"> quantify</text>
</g>
<!-- Node18&#45;&gt;Node1 -->
<g id="edge22" class="edge">
<title>Node18&#45;&gt;Node1</title>
<path fill="none" stroke="#9a32cd" stroke-dasharray="5,2" d="M1092.26,-223.56C1150.33,-223.3 1241.38,-227.49 1316,-251.5 1334.47,-257.44 1353.51,-269.26 1365.76,-277.74"/>
<polygon fill="#9a32cd" stroke="#9a32cd" points="1092.13,-220.06 1082.17,-223.65 1092.2,-227.06 1092.13,-220.06"/>
<text text-anchor="middle" x="1155" y="-232.5" font-family="Helvetica,sans-Serif" font-size="10.00"> prod3</text>
</g>
<!-- Node19&#45;&gt;Node1 -->
<g id="edge24" class="edge">
<title>Node19&#45;&gt;Node1</title>
<path fill="none" stroke="#9a32cd" stroke-dasharray="5,2" d="M807.17,-614.33C922.17,-643.65 1179.28,-688.87 1316,-553.5 1353.77,-516.1 1373.68,-340.49 1378.06,-297.18"/>
<polygon fill="#9a32cd" stroke="#9a32cd" points="807.71,-610.85 797.15,-611.72 805.95,-617.63 807.71,-610.85"/>
<text text-anchor="middle" x="1033" y="-648.5" font-family="Helvetica,sans-Serif" font-size="10.00"> reduce</text>
</g>
<!-- Node20&#45;&gt;Node1 -->
<g id="edge26" class="edge">
<title>Node20&#45;&gt;Node1</title>
<path fill="none" stroke="#9a32cd" stroke-dasharray="5,2" d="M669.17,-61.95C828.77,-60.95 1265.09,-61.81 1316,-100.5 1374.37,-144.86 1379.18,-245.73 1379.18,-277.63"/>
<polygon fill="#9a32cd" stroke="#9a32cd" points="669.04,-58.45 659.06,-62.02 669.08,-65.45 669.04,-58.45"/>
<text text-anchor="middle" x="1033" y="-71.5" font-family="Helvetica,sans-Serif" font-size="10.00"> equality</text>
</g>
<!-- Node21 -->
<g id="node21" class="node">
<title>Node21</title>
<g id="a_node21"><a xlink:href="structadiar_1_1statistics_1_1equality__t_1_1fast__t.html" target="_top" xlink:title="Statistics from O(N) linear&#45;scan equality checking algorithm.">
<polygon fill="none" stroke="black" points="342,-0.5 342,-30.5 441,-30.5 441,-0.5 342,-0.5"/>
<text text-anchor="start" x="350" y="-18.5" font-family="Helvetica,sans-Serif" font-size="10.00">adiar::statistics::</text>
<text text-anchor="middle" x="391.5" y="-7.5" font-family="Helvetica,sans-Serif" font-size="10.00">equality_t::fast_t</text>
</a>
</g>
</g>
<!-- Node21&#45;&gt;Node20 -->
<g id="edge28" class="edge">
<title>Node21&#45;&gt;Node20</title>
<path fill="none" stroke="#9a32cd" stroke-dasharray="5,2" d="M451.02,-28.2C485.47,-35.68 528.5,-45.02 560.95,-52.07"/>
<polygon fill="#9a32cd" stroke="#9a32cd" points="451.6,-24.75 441.09,-26.05 450.12,-31.59 451.6,-24.75"/>
<text text-anchor="middle" x="491" y="-46.5" font-family="Helvetica,sans-Serif" font-size="10.00"> fast_check</text>
</g>
<!-- Node22 -->
<g id="node22" class="node">
<title>Node22</title>
<g id="a_node22"><a xlink:href="structadiar_1_1statistics_1_1equality__t_1_1slow__t.html" target="_top" xlink:title="Statistics from O(N log N) time&#45;forward processing equality checking algorithm.">
<polygon fill="none" stroke="black" points="340,-49.5 340,-79.5 443,-79.5 443,-49.5 340,-49.5"/>
<text text-anchor="start" x="348" y="-67.5" font-family="Helvetica,sans-Serif" font-size="10.00">adiar::statistics::</text>
<text text-anchor="middle" x="391.5" y="-56.5" font-family="Helvetica,sans-Serif" font-size="10.00">equality_t::slow_t</text>
</a>
</g>
</g>
<!-- Node22&#45;&gt;Node20 -->
<g id="edge29" class="edge">
<title>Node22&#45;&gt;Node20</title>
<path fill="none" stroke="#9a32cd" stroke-dasharray="5,2" d="M453.53,-63.94C487.48,-63.62 529.14,-63.24 560.79,-62.95"/>
<polygon fill="#9a32cd" stroke="#9a32cd" points="453.23,-60.44 443.26,-64.03 453.29,-67.44 453.23,-60.44"/>
<text text-anchor="middle" x="491" y="-67.5" font-family="Helvetica,sans-Serif" font-size="10.00"> slow_check</text>
</g>
<!-- Node23&#45;&gt;Node1 -->
<g id="edge30" class="edge">
<title>Node23&#45;&gt;Node1</title>
<path fill="none" stroke="#9a32cd" stroke-dasharray="5,2" d="M950.07,-559.43C1053.28,-565.07 1261.8,-570.35 1316,-525.5 1352.63,-495.18 1373.18,-337.78 1377.93,-297.1"/>
<polygon fill="#9a32cd" stroke="#9a32cd" points="950,-555.92 939.82,-558.85 949.6,-562.91 950,-555.92"/>
<text text-anchor="middle" x="1155" y="-565.5" font-family="Helvetica,sans-Serif" font-size="10.00"> count</text>
</g>
<!-- Node24 -->
<g id="node24" class="node">
<title>Node24</title>
<g id="a_node24"><a xlink:href="structadiar_1_1statistics_1_1node__file__t.html" target="_top" xlink:title="Node Files statistics.">
<polygon fill="none" stroke="black" points="1106,-17.5 1106,-47.5 1204,-47.5 1204,-17.5 1106,-17.5"/>
<text text-anchor="start" x="1114" y="-35.5" font-family="Helvetica,sans-Serif" font-size="10.00">adiar::statistics::</text>
<text text-anchor="middle" x="1155" y="-24.5" font-family="Helvetica,sans-Serif" font-size="10.00">node_file_t</text>
</a>
</g>
</g>
<!-- Node24&#45;&gt;Node1 -->
<g id="edge33" class="edge">
<title>Node24&#45;&gt;Node1</title>
<path fill="none" stroke="#9a32cd" stroke-dasharray="5,2" d="M1214.47,-24.46C1247.94,-23.19 1288.6,-27.76 1316,-51.5 1351.57,-82.33 1372.83,-237.16 1377.84,-277.75"/>
<polygon fill="#9a32cd" stroke="#9a32cd" points="1214.12,-20.97 1204.33,-25.02 1214.51,-27.96 1214.12,-20.97"/>
<text text-anchor="middle" x="1272" y="-54.5" font-family="Helvetica,sans-Serif" font-size="10.00"> node_file</text>
</g>
</g>
</svg>
