<?xml version="1.0" encoding="UTF-8" standalone="no"?>
<!DOCTYPE svg PUBLIC "-//W3C//DTD SVG 1.1//EN"
 "http://www.w3.org/Graphics/SVG/1.1/DTD/svg11.dtd">
<!-- Generated by graphviz version 2.43.0 (0)
 -->
<!-- Title: adiar::statistics::nested_sweeping_t::inner_t::up_t Pages: 1 -->
<svg width="154pt" height="264pt"
 viewBox="0.00 0.00 154.00 264.00" xmlns="http://www.w3.org/2000/svg" xmlns:xlink="http://www.w3.org/1999/xlink">
<g id="graph0" class="graph" transform="scale(1 1) rotate(0) translate(4 260)">
<title>adiar::statistics::nested_sweeping_t::inner_t::up_t</title>
<!-- Node1 -->
<g id="node1" class="node">
<title>Node1</title>
<g id="a_node1"><a xlink:title="Inner Up Sweep.">
<polygon fill="#bfbfbf" stroke="black" points="2.5,-0.5 2.5,-41.5 143.5,-41.5 143.5,-0.5 2.5,-0.5"/>
<text text-anchor="start" x="10.5" y="-29.5" font-family="Helvetica,sans-Serif" font-size="10.00">adiar::statistics::</text>
<text text-anchor="start" x="10.5" y="-18.5" font-family="Helvetica,sans-Serif" font-size="10.00">nested_sweeping_t::inner</text>
<text text-anchor="middle" x="73" y="-7.5" font-family="Helvetica,sans-Serif" font-size="10.00">_t::up_t</text>
</a>
</g>
</g>
<!-- Node2 -->
<g id="node2" class="node">
<title>Node2</title>
<g id="a_node2"><a xlink:href="structadiar_1_1statistics_1_1____alg__base.html" target="_top" xlink:title="Common statistics for all algorithms.">
<polygon fill="none" stroke="black" points="24,-79.5 24,-109.5 122,-109.5 122,-79.5 24,-79.5"/>
<text text-anchor="start" x="32" y="-97.5" font-family="Helvetica,sans-Serif" font-size="10.00">adiar::statistics::</text>
<text text-anchor="middle" x="73" y="-86.5" font-family="Helvetica,sans-Serif" font-size="10.00">__alg_base</text>
</a>
</g>
</g>
<!-- Node2&#45;&gt;Node1 -->
<g id="edge1" class="edge">
<title>Node2&#45;&gt;Node1</title>
<path fill="none" stroke="midnightblue" d="M73,-69.1C73,-60.1 73,-50.02 73,-41.51"/>
<polygon fill="midnightblue" stroke="midnightblue" points="69.5,-69.37 73,-79.37 76.5,-69.37 69.5,-69.37"/>
</g>
<!-- Node3 -->
<g id="node3" class="node">
<title>Node3</title>
<g id="a_node3"><a xlink:href="structadiar_1_1statistics_1_1____alg__base_1_1____lpq__t.html" target="_top" xlink:title="Type and usage of this algorithm&#39;s levelized priority queue.">
<polygon fill="none" stroke="black" points="17.5,-157.5 17.5,-187.5 128.5,-187.5 128.5,-157.5 17.5,-157.5"/>
<text text-anchor="start" x="25.5" y="-175.5" font-family="Helvetica,sans-Serif" font-size="10.00">adiar::statistics::</text>
<text text-anchor="middle" x="73" y="-164.5" font-family="Helvetica,sans-Serif" font-size="10.00">__alg_base::__lpq_t</text>
</a>
</g>
</g>
<!-- Node3&#45;&gt;Node2 -->
<g id="edge2" class="edge">
<title>Node3&#45;&gt;Node2</title>
<path fill="none" stroke="#9a32cd" stroke-dasharray="5,2" d="M73,-147.09C73,-134.76 73,-120.22 73,-109.73"/>
<polygon fill="#9a32cd" stroke="#9a32cd" points="69.5,-147.2 73,-157.2 76.5,-147.21 69.5,-147.2"/>
<text text-anchor="middle" x="82.5" y="-131" font-family="Helvetica,sans-Serif" font-size="10.00"> lpq</text>
</g>
<!-- Node4 -->
<g id="node4" class="node">
<title>Node4</title>
<g id="a_node4"><a xlink:href="structadiar_1_1statistics_1_1levelized__priority__queue__t.html" target="_top" xlink:title="Levelized Priority Queue statistics.">
<polygon fill="none" stroke="black" points="0,-225.5 0,-255.5 146,-255.5 146,-225.5 0,-225.5"/>
<text text-anchor="start" x="8" y="-243.5" font-family="Helvetica,sans-Serif" font-size="10.00">adiar::statistics::</text>
<text text-anchor="middle" x="73" y="-232.5" font-family="Helvetica,sans-Serif" font-size="10.00">levelized_priority_queue_t</text>
</a>
</g>
</g>
<!-- Node4&#45;&gt;Node3 -->
<g id="edge3" class="edge">
<title>Node4&#45;&gt;Node3</title>
<path fill="none" stroke="midnightblue" d="M73,-215.03C73,-205.86 73,-195.74 73,-187.79"/>
<polygon fill="midnightblue" stroke="midnightblue" points="69.5,-215.18 73,-225.18 76.5,-215.18 69.5,-215.18"/>
</g>
</g>
</svg>
