<?xml version="1.0" encoding="UTF-8" standalone="no"?>
<!DOCTYPE svg PUBLIC "-//W3C//DTD SVG 1.1//EN"
 "http://www.w3.org/Graphics/SVG/1.1/DTD/svg11.dtd">
<!-- Generated by graphviz version 2.43.0 (0)
 -->
<!-- Title: adiar::statistics::nested_sweeping_t Pages: 1 -->
<svg width="1089pt" height="198pt"
 viewBox="0.00 0.00 1089.00 197.50" xmlns="http://www.w3.org/2000/svg" xmlns:xlink="http://www.w3.org/1999/xlink">
<g id="graph0" class="graph" transform="scale(1 1) rotate(0) translate(4 193.5)">
<title>adiar::statistics::nested_sweeping_t</title>
<!-- Node1 -->
<g id="Node000001" class="node">
<title>Node1</title>
<g id="a_Node000001"><a xlink:title="Nested Sweeping statistics.">
<polygon fill="#999999" stroke="#666666" points="1081,-141.5 971,-141.5 971,-111.5 1081,-111.5 1081,-141.5"/>
<text text-anchor="start" x="979" y="-129.5" font-family="Helvetica,sans-Serif" font-size="10.00">adiar::statistics::</text>
<text text-anchor="middle" x="1026" y="-118.5" font-family="Helvetica,sans-Serif" font-size="10.00">nested_sweeping_t</text>
</a>
</g>
</g>
<!-- Node2 -->
<g id="Node000002" class="node">
<title>Node2</title>
<g id="a_Node000002"><a xlink:href="structadiar_1_1statistics_1_1nested__sweeping__t_1_1outer__up__t.html" target="_top" xlink:title="Outer Reduce Sweep.">
<polygon fill="white" stroke="#666666" points="875,-189.5 707,-189.5 707,-159.5 875,-159.5 875,-189.5"/>
<text text-anchor="start" x="715" y="-177.5" font-family="Helvetica,sans-Serif" font-size="10.00">adiar::statistics::</text>
<text text-anchor="middle" x="791" y="-166.5" font-family="Helvetica,sans-Serif" font-size="10.00">nested_sweeping_t::outer_up_t</text>
</a>
</g>
</g>
<!-- Node2&#45;&gt;Node1 -->
<g id="edge1_Node000001_Node000002" class="edge">
<title>Node2&#45;&gt;Node1</title>
<g id="a_edge1_Node000001_Node000002"><a xlink:title=" ">
<path fill="none" stroke="#9a32cd" stroke-dasharray="5,2" d="M875.86,-157.36C900.7,-152.27 927.95,-146.68 953,-141.5 958.75,-140.31 964.76,-139.07 970.75,-137.82"/>
<polygon fill="#9a32cd" stroke="#9a32cd" points="874.84,-154 865.75,-159.44 876.25,-160.86 874.84,-154"/>
</a>
</g>
<text text-anchor="middle" x="923" y="-155.5" font-family="Helvetica,sans-Serif" font-size="10.00" fill="grey"> outer_up</text>
</g>
<!-- Node3 -->
<g id="Node000003" class="node">
<title>Node3</title>
<g id="a_Node000003"><a xlink:href="structadiar_1_1statistics_1_1reduce__t.html" target="_top" xlink:title="Reduce algorithm statistics.">
<polygon fill="white" stroke="#666666" points="603.5,-172.5 505.5,-172.5 505.5,-142.5 603.5,-142.5 603.5,-172.5"/>
<text text-anchor="start" x="513.5" y="-160.5" font-family="Helvetica,sans-Serif" font-size="10.00">adiar::statistics::</text>
<text text-anchor="middle" x="554.5" y="-149.5" font-family="Helvetica,sans-Serif" font-size="10.00">reduce_t</text>
</a>
</g>
</g>
<!-- Node3&#45;&gt;Node2 -->
<g id="edge2_Node000002_Node000003" class="edge">
<title>Node3&#45;&gt;Node2</title>
<g id="a_edge2_Node000002_Node000003"><a xlink:title=" ">
<path fill="none" stroke="#63b8ff" d="M613.6,-161.71C641.75,-163.75 676.07,-166.24 706.92,-168.48"/>
<polygon fill="#63b8ff" stroke="#63b8ff" points="613.75,-158.21 603.52,-160.98 613.24,-165.2 613.75,-158.21"/>
</a>
</g>
</g>
<!-- Node10 -->
<g id="Node000010" class="node">
<title>Node10</title>
<g id="a_Node000010"><a xlink:href="structadiar_1_1statistics_1_1nested__sweeping__t_1_1inner__up__t.html" target="_top" xlink:title="Inner Up Sweep(s)">
<polygon fill="white" stroke="#666666" points="874.5,-141.5 707.5,-141.5 707.5,-111.5 874.5,-111.5 874.5,-141.5"/>
<text text-anchor="start" x="715.5" y="-129.5" font-family="Helvetica,sans-Serif" font-size="10.00">adiar::statistics::</text>
<text text-anchor="middle" x="791" y="-118.5" font-family="Helvetica,sans-Serif" font-size="10.00">nested_sweeping_t::inner_up_t</text>
</a>
</g>
</g>
<!-- Node3&#45;&gt;Node10 -->
<g id="edge10_Node000010_Node000003" class="edge">
<title>Node3&#45;&gt;Node10</title>
<g id="a_edge10_Node000010_Node000003"><a xlink:title=" ">
<path fill="none" stroke="#63b8ff" d="M613.64,-149.81C641.93,-146.07 676.43,-141.51 707.39,-137.42"/>
<polygon fill="#63b8ff" stroke="#63b8ff" points="612.98,-146.37 603.52,-151.15 613.89,-153.31 612.98,-146.37"/>
</a>
</g>
</g>
<!-- Node4 -->
<g id="Node000004" class="node">
<title>Node4</title>
<g id="a_Node000004"><a xlink:href="structadiar_1_1statistics_1_1____alg__base.html" target="_top" xlink:title="Common statistics for all algorithms.">
<polygon fill="white" stroke="#666666" points="447,-172.5 349,-172.5 349,-142.5 447,-142.5 447,-172.5"/>
<text text-anchor="start" x="357" y="-160.5" font-family="Helvetica,sans-Serif" font-size="10.00">adiar::statistics::</text>
<text text-anchor="middle" x="398" y="-149.5" font-family="Helvetica,sans-Serif" font-size="10.00">__alg_base</text>
</a>
</g>
</g>
<!-- Node4&#45;&gt;Node3 -->
<g id="edge3_Node000003_Node000004" class="edge">
<title>Node4&#45;&gt;Node3</title>
<g id="a_edge3_Node000003_Node000004"><a xlink:title=" ">
<path fill="none" stroke="#63b8ff" d="M457.29,-157.5C473.19,-157.5 490.23,-157.5 505.49,-157.5"/>
<polygon fill="#63b8ff" stroke="#63b8ff" points="457.04,-154 447.04,-157.5 457.04,-161 457.04,-154"/>
</a>
</g>
</g>
<!-- Node5 -->
<g id="Node000005" class="node">
<title>Node5</title>
<g id="a_Node000005"><a xlink:href="structadiar_1_1statistics_1_1____alg__base_1_1____lpq__t.html" target="_top" xlink:title="Type and usage of this algorithm&#39;s levelized priority queue.">
<polygon fill="white" stroke="#666666" points="294,-172.5 183,-172.5 183,-142.5 294,-142.5 294,-172.5"/>
<text text-anchor="start" x="191" y="-160.5" font-family="Helvetica,sans-Serif" font-size="10.00">adiar::statistics::</text>
<text text-anchor="middle" x="238.5" y="-149.5" font-family="Helvetica,sans-Serif" font-size="10.00">__alg_base::__lpq_t</text>
</a>
</g>
</g>
<!-- Node5&#45;&gt;Node4 -->
<g id="edge4_Node000004_Node000005" class="edge">
<title>Node5&#45;&gt;Node4</title>
<g id="a_edge4_Node000004_Node000005"><a xlink:title=" ">
<path fill="none" stroke="#9a32cd" stroke-dasharray="5,2" d="M304.3,-157.5C319.18,-157.5 334.73,-157.5 348.76,-157.5"/>
<polygon fill="#9a32cd" stroke="#9a32cd" points="304.14,-154 294.14,-157.5 304.14,-161 304.14,-154"/>
</a>
</g>
<text text-anchor="middle" x="321.5" y="-160.5" font-family="Helvetica,sans-Serif" font-size="10.00" fill="grey"> lpq</text>
</g>
<!-- Node6 -->
<g id="Node000006" class="node">
<title>Node6</title>
<g id="a_Node000006"><a xlink:href="structadiar_1_1statistics_1_1levelized__priority__queue__t.html" target="_top" xlink:title="Levelized Priority Queue statistics.">
<polygon fill="white" stroke="#666666" points="146,-172.5 0,-172.5 0,-142.5 146,-142.5 146,-172.5"/>
<text text-anchor="start" x="8" y="-160.5" font-family="Helvetica,sans-Serif" font-size="10.00">adiar::statistics::</text>
<text text-anchor="middle" x="73" y="-149.5" font-family="Helvetica,sans-Serif" font-size="10.00">levelized_priority_queue_t</text>
</a>
</g>
</g>
<!-- Node6&#45;&gt;Node5 -->
<g id="edge5_Node000005_Node000006" class="edge">
<title>Node6&#45;&gt;Node5</title>
<g id="a_edge5_Node000005_Node000006"><a xlink:title=" ">
<path fill="none" stroke="#63b8ff" d="M156.34,-157.5C165.34,-157.5 174.34,-157.5 182.89,-157.5"/>
<polygon fill="#63b8ff" stroke="#63b8ff" points="156.19,-154 146.19,-157.5 156.19,-161 156.19,-154"/>
</a>
</g>
</g>
<!-- Node7 -->
<g id="Node000007" class="node">
<title>Node7</title>
<g id="a_Node000007"><a xlink:href="structadiar_1_1statistics_1_1nested__sweeping__t_1_1inner__down__t.html" target="_top" xlink:title="Root Requests generated for Inner Down Sweep.">
<polygon fill="white" stroke="#666666" points="861.5,-93 720.5,-93 720.5,-52 861.5,-52 861.5,-93"/>
<text text-anchor="start" x="728.5" y="-81" font-family="Helvetica,sans-Serif" font-size="10.00">adiar::statistics::</text>
<text text-anchor="start" x="728.5" y="-70" font-family="Helvetica,sans-Serif" font-size="10.00">nested_sweeping_t::inner</text>
<text text-anchor="middle" x="791" y="-59" font-family="Helvetica,sans-Serif" font-size="10.00">_down_t</text>
</a>
</g>
</g>
<!-- Node7&#45;&gt;Node1 -->
<g id="edge6_Node000001_Node000007" class="edge">
<title>Node7&#45;&gt;Node1</title>
<g id="a_edge6_Node000001_Node000007"><a xlink:title=" ">
<path fill="none" stroke="#9a32cd" stroke-dasharray="5,2" d="M871.6,-90.95C904.34,-98.54 941.42,-107.13 970.92,-113.97"/>
<polygon fill="#9a32cd" stroke="#9a32cd" points="872.12,-87.48 861.59,-88.63 870.54,-94.3 872.12,-87.48"/>
</a>
</g>
<text text-anchor="middle" x="923" y="-111.5" font-family="Helvetica,sans-Serif" font-size="10.00" fill="grey"> inner_down</text>
</g>
<!-- Node8 -->
<g id="Node000008" class="node">
<title>Node8</title>
<g id="a_Node000008"><a xlink:href="structadiar_1_1statistics_1_1nested__sweeping__t_1_1inner__down__t_1_1inputs__t.html" target="_top" xlink:title=" ">
<polygon fill="white" stroke="#bfbfbf" points="625,-100 484,-100 484,-59 625,-59 625,-100"/>
<text text-anchor="start" x="492" y="-88" font-family="Helvetica,sans-Serif" font-size="10.00">adiar::statistics::</text>
<text text-anchor="start" x="492" y="-77" font-family="Helvetica,sans-Serif" font-size="10.00">nested_sweeping_t::inner</text>
<text text-anchor="middle" x="554.5" y="-66" font-family="Helvetica,sans-Serif" font-size="10.00">_down_t::inputs_t</text>
</a>
</g>
</g>
<!-- Node8&#45;&gt;Node7 -->
<g id="edge7_Node000007_Node000008" class="edge">
<title>Node8&#45;&gt;Node7</title>
<g id="a_edge7_Node000007_Node000008"><a xlink:title=" ">
<path fill="none" stroke="#9a32cd" stroke-dasharray="5,2" d="M635.22,-77.12C662.78,-76.3 693.43,-75.38 720.14,-74.59"/>
<polygon fill="#9a32cd" stroke="#9a32cd" points="635.11,-73.62 625.22,-77.42 635.32,-80.62 635.11,-73.62"/>
</a>
</g>
<text text-anchor="middle" x="666" y="-79.5" font-family="Helvetica,sans-Serif" font-size="10.00" fill="grey"> inputs</text>
</g>
<!-- Node9 -->
<g id="Node000009" class="node">
<title>Node9</title>
<g id="a_Node000009"><a xlink:href="structadiar_1_1statistics_1_1nested__sweeping__t_1_1inner__down__t_1_1requests__t.html" target="_top" xlink:title=" ">
<polygon fill="white" stroke="#bfbfbf" points="625,-41 484,-41 484,0 625,0 625,-41"/>
<text text-anchor="start" x="492" y="-29" font-family="Helvetica,sans-Serif" font-size="10.00">adiar::statistics::</text>
<text text-anchor="start" x="492" y="-18" font-family="Helvetica,sans-Serif" font-size="10.00">nested_sweeping_t::inner</text>
<text text-anchor="middle" x="554.5" y="-7" font-family="Helvetica,sans-Serif" font-size="10.00">_down_t::requests_t</text>
</a>
</g>
</g>
<!-- Node9&#45;&gt;Node7 -->
<g id="edge8_Node000007_Node000009" class="edge">
<title>Node9&#45;&gt;Node7</title>
<g id="a_edge8_Node000007_Node000009"><a xlink:title=" ">
<path fill="none" stroke="#9a32cd" stroke-dasharray="5,2" d="M635.22,-38.18C662.78,-44.29 693.43,-51.09 720.14,-57.01"/>
<polygon fill="#9a32cd" stroke="#9a32cd" points="635.74,-34.71 625.22,-35.96 634.23,-41.54 635.74,-34.71"/>
</a>
</g>
<text text-anchor="middle" x="666" y="-53.5" font-family="Helvetica,sans-Serif" font-size="10.00" fill="grey"> requests</text>
</g>
<!-- Node10&#45;&gt;Node1 -->
<g id="edge9_Node000001_Node000010" class="edge">
<title>Node10&#45;&gt;Node1</title>
<g id="a_edge9_Node000001_Node000010"><a xlink:title=" ">
<path fill="none" stroke="#9a32cd" stroke-dasharray="5,2" d="M885.01,-126.5C914.15,-126.5 945.34,-126.5 970.86,-126.5"/>
<polygon fill="#9a32cd" stroke="#9a32cd" points="884.8,-123 874.8,-126.5 884.8,-130 884.8,-123"/>
</a>
</g>
<text text-anchor="middle" x="923" y="-129.5" font-family="Helvetica,sans-Serif" font-size="10.00" fill="grey"> inner_up</text>
</g>
</g>
</svg>
