<?xml version="1.0" encoding="UTF-8" standalone="no"?>
<!DOCTYPE svg PUBLIC "-//W3C//DTD SVG 1.1//EN"
 "http://www.w3.org/Graphics/SVG/1.1/DTD/svg11.dtd">
<!-- Generated by graphviz version 2.43.0 (0)
 -->
<!-- Title: adiar::statistics::nested_sweeping_t Pages: 1 -->
<svg width="1001pt" height="149pt"
 viewBox="0.00 0.00 1001.00 148.50" xmlns="http://www.w3.org/2000/svg" xmlns:xlink="http://www.w3.org/1999/xlink">
<g id="graph0" class="graph" transform="scale(1 1) rotate(0) translate(4 144.5)">
<title>adiar::statistics::nested_sweeping_t</title>
<!-- Node1 -->
<g id="node1" class="node">
<title>Node1</title>
<g id="a_node1"><a xlink:title="Nested Sweeping statistics.">
<polygon fill="#bfbfbf" stroke="black" points="883,-61 883,-91 993,-91 993,-61 883,-61"/>
<text text-anchor="start" x="891" y="-79" font-family="Helvetica,sans-Serif" font-size="10.00">adiar::statistics::</text>
<text text-anchor="middle" x="938" y="-68" font-family="Helvetica,sans-Serif" font-size="10.00">nested_sweeping_t</text>
</a>
</g>
</g>
<!-- Node2 -->
<g id="node2" class="node">
<title>Node2</title>
<g id="a_node2"><a xlink:href="structadiar_1_1statistics_1_1nested__sweeping__t_1_1outer__up__t.html" target="_top" xlink:title="Outer Reduce Sweep.">
<polygon fill="none" stroke="black" points="619,-110 619,-140 787,-140 787,-110 619,-110"/>
<text text-anchor="start" x="627" y="-128" font-family="Helvetica,sans-Serif" font-size="10.00">adiar::statistics::</text>
<text text-anchor="middle" x="703" y="-117" font-family="Helvetica,sans-Serif" font-size="10.00">nested_sweeping_t::outer_up_t</text>
</a>
</g>
</g>
<!-- Node2&#45;&gt;Node1 -->
<g id="edge1" class="edge">
<title>Node2&#45;&gt;Node1</title>
<path fill="none" stroke="#9a32cd" stroke-dasharray="5,2" d="M785.35,-107.89C817.57,-101.12 853.74,-93.51 882.67,-87.42"/>
<polygon fill="#9a32cd" stroke="#9a32cd" points="784.56,-104.48 775.49,-109.97 786,-111.33 784.56,-104.48"/>
<text text-anchor="middle" x="835" y="-106" font-family="Helvetica,sans-Serif" font-size="10.00"> outer_up</text>
</g>
<!-- Node3 -->
<g id="node3" class="node">
<title>Node3</title>
<g id="a_node3"><a xlink:href="structadiar_1_1statistics_1_1reduce__t.html" target="_top" xlink:title="Reduce algorithm statistics.">
<polygon fill="none" stroke="black" points="484,-85 484,-115 582,-115 582,-85 484,-85"/>
<text text-anchor="start" x="492" y="-103" font-family="Helvetica,sans-Serif" font-size="10.00">adiar::statistics::</text>
<text text-anchor="middle" x="533" y="-92" font-family="Helvetica,sans-Serif" font-size="10.00">reduce_t</text>
</a>
</g>
</g>
<!-- Node3&#45;&gt;Node2 -->
<g id="edge2" class="edge">
<title>Node3&#45;&gt;Node2</title>
<path fill="none" stroke="midnightblue" d="M592.12,-108.65C600.79,-109.94 609.88,-111.29 618.95,-112.64"/>
<polygon fill="midnightblue" stroke="midnightblue" points="592.55,-105.17 582.14,-107.16 591.52,-112.1 592.55,-105.17"/>
</g>
<!-- Node7 -->
<g id="node7" class="node">
<title>Node7</title>
<g id="a_node7"><a xlink:href="structadiar_1_1statistics_1_1nested__sweeping__t_1_1inner__up__t.html" target="_top" xlink:title="Inner Up Sweep(s)">
<polygon fill="none" stroke="black" points="619.5,-61 619.5,-91 786.5,-91 786.5,-61 619.5,-61"/>
<text text-anchor="start" x="627.5" y="-79" font-family="Helvetica,sans-Serif" font-size="10.00">adiar::statistics::</text>
<text text-anchor="middle" x="703" y="-68" font-family="Helvetica,sans-Serif" font-size="10.00">nested_sweeping_t::inner_up_t</text>
</a>
</g>
</g>
<!-- Node3&#45;&gt;Node7 -->
<g id="edge7" class="edge">
<title>Node3&#45;&gt;Node7</title>
<path fill="none" stroke="midnightblue" d="M592.2,-91.69C600.95,-90.44 610.12,-89.13 619.27,-87.82"/>
<polygon fill="midnightblue" stroke="midnightblue" points="591.55,-88.24 582.14,-93.12 592.54,-95.17 591.55,-88.24"/>
</g>
<!-- Node4 -->
<g id="node4" class="node">
<title>Node4</title>
<g id="a_node4"><a xlink:href="structadiar_1_1statistics_1_1____alg__base.html" target="_top" xlink:title="Common statistics for all algorithms.">
<polygon fill="none" stroke="black" points="349,-85 349,-115 447,-115 447,-85 349,-85"/>
<text text-anchor="start" x="357" y="-103" font-family="Helvetica,sans-Serif" font-size="10.00">adiar::statistics::</text>
<text text-anchor="middle" x="398" y="-92" font-family="Helvetica,sans-Serif" font-size="10.00">__alg_base</text>
</a>
</g>
</g>
<!-- Node4&#45;&gt;Node3 -->
<g id="edge3" class="edge">
<title>Node4&#45;&gt;Node3</title>
<path fill="none" stroke="midnightblue" d="M457.23,-100C466.03,-100 475.04,-100 483.61,-100"/>
<polygon fill="midnightblue" stroke="midnightblue" points="457.02,-96.5 447.02,-100 457.02,-103.5 457.02,-96.5"/>
</g>
<!-- Node5 -->
<g id="node5" class="node">
<title>Node5</title>
<g id="a_node5"><a xlink:href="structadiar_1_1statistics_1_1____alg__base_1_1____lpq__t.html" target="_top" xlink:title="Type and usage of this algorithm&#39;s levelized priority queue.">
<polygon fill="none" stroke="black" points="183,-85 183,-115 294,-115 294,-85 183,-85"/>
<text text-anchor="start" x="191" y="-103" font-family="Helvetica,sans-Serif" font-size="10.00">adiar::statistics::</text>
<text text-anchor="middle" x="238.5" y="-92" font-family="Helvetica,sans-Serif" font-size="10.00">__alg_base::__lpq_t</text>
</a>
</g>
</g>
<!-- Node5&#45;&gt;Node4 -->
<g id="edge4" class="edge">
<title>Node5&#45;&gt;Node4</title>
<path fill="none" stroke="#9a32cd" stroke-dasharray="5,2" d="M304.3,-100C319.18,-100 334.73,-100 348.76,-100"/>
<polygon fill="#9a32cd" stroke="#9a32cd" points="304.14,-96.5 294.14,-100 304.14,-103.5 304.14,-96.5"/>
<text text-anchor="middle" x="321.5" y="-103" font-family="Helvetica,sans-Serif" font-size="10.00"> lpq</text>
</g>
<!-- Node6 -->
<g id="node6" class="node">
<title>Node6</title>
<g id="a_node6"><a xlink:href="structadiar_1_1statistics_1_1levelized__priority__queue__t.html" target="_top" xlink:title="Levelized Priority Queue statistics.">
<polygon fill="none" stroke="black" points="0,-85 0,-115 146,-115 146,-85 0,-85"/>
<text text-anchor="start" x="8" y="-103" font-family="Helvetica,sans-Serif" font-size="10.00">adiar::statistics::</text>
<text text-anchor="middle" x="73" y="-92" font-family="Helvetica,sans-Serif" font-size="10.00">levelized_priority_queue_t</text>
</a>
</g>
</g>
<!-- Node6&#45;&gt;Node5 -->
<g id="edge5" class="edge">
<title>Node6&#45;&gt;Node5</title>
<path fill="none" stroke="midnightblue" d="M156.34,-100C165.34,-100 174.34,-100 182.89,-100"/>
<polygon fill="midnightblue" stroke="midnightblue" points="156.19,-96.5 146.19,-100 156.19,-103.5 156.19,-96.5"/>
</g>
<!-- Node7&#45;&gt;Node1 -->
<g id="edge6" class="edge">
<title>Node7&#45;&gt;Node1</title>
<path fill="none" stroke="#9a32cd" stroke-dasharray="5,2" d="M797.01,-76C826.15,-76 857.34,-76 882.86,-76"/>
<polygon fill="#9a32cd" stroke="#9a32cd" points="796.8,-72.5 786.8,-76 796.8,-79.5 796.8,-72.5"/>
<text text-anchor="middle" x="835" y="-79" font-family="Helvetica,sans-Serif" font-size="10.00"> inner_up</text>
</g>
<!-- Node8 -->
<g id="node8" class="node">
<title>Node8</title>
<g id="a_node8"><a xlink:href="structadiar_1_1statistics_1_1nested__sweeping__t_1_1inner__down__t.html" target="_top" xlink:title="Root Requests generated for Inner Down Sweep.">
<polygon fill="none" stroke="black" points="632.5,-0.5 632.5,-41.5 773.5,-41.5 773.5,-0.5 632.5,-0.5"/>
<text text-anchor="start" x="640.5" y="-29.5" font-family="Helvetica,sans-Serif" font-size="10.00">adiar::statistics::</text>
<text text-anchor="start" x="640.5" y="-18.5" font-family="Helvetica,sans-Serif" font-size="10.00">nested_sweeping_t::inner</text>
<text text-anchor="middle" x="703" y="-7.5" font-family="Helvetica,sans-Serif" font-size="10.00">_down_t</text>
</a>
</g>
</g>
<!-- Node8&#45;&gt;Node1 -->
<g id="edge8" class="edge">
<title>Node8&#45;&gt;Node1</title>
<path fill="none" stroke="#9a32cd" stroke-dasharray="5,2" d="M783.6,-39.79C816.34,-47.52 853.42,-56.27 882.92,-63.24"/>
<polygon fill="#9a32cd" stroke="#9a32cd" points="784.13,-36.32 773.59,-37.43 782.52,-43.13 784.13,-36.32"/>
<text text-anchor="middle" x="835" y="-62" font-family="Helvetica,sans-Serif" font-size="10.00"> inner_down</text>
</g>
</g>
</svg>
