<?xml version="1.0" encoding="UTF-8" standalone="no"?>
<!DOCTYPE svg PUBLIC "-//W3C//DTD SVG 1.1//EN"
 "http://www.w3.org/Graphics/SVG/1.1/DTD/svg11.dtd">
<!-- Generated by graphviz version 2.43.0 (0)
 -->
<!-- Title: adiar::statistics::quantify_t Pages: 1 -->
<svg width="779pt" height="230pt"
 viewBox="0.00 0.00 779.00 230.00" xmlns="http://www.w3.org/2000/svg" xmlns:xlink="http://www.w3.org/1999/xlink">
<g id="graph0" class="graph" transform="scale(1 1) rotate(0) translate(4 226)">
<title>adiar::statistics::quantify_t</title>
<!-- Node1 -->
<g id="Node000001" class="node">
<title>Node1</title>
<g id="a_Node000001"><a xlink:title="Quantification algorithm statistics.">
<polygon fill="#999999" stroke="#666666" points="771,-126 673,-126 673,-96 771,-96 771,-126"/>
<text text-anchor="start" x="681" y="-114" font-family="Helvetica,sans-Serif" font-size="10.00">adiar::statistics::</text>
<text text-anchor="middle" x="722" y="-103" font-family="Helvetica,sans-Serif" font-size="10.00">quantify_t</text>
</a>
</g>
</g>
<!-- Node2 -->
<g id="Node000002" class="node">
<title>Node2</title>
<g id="a_Node000002"><a xlink:href="structadiar_1_1statistics_1_1____alg__base.html" target="_top" xlink:title="Common statistics for all algorithms.">
<polygon fill="white" stroke="#666666" points="489,-222 391,-222 391,-192 489,-192 489,-222"/>
<text text-anchor="start" x="399" y="-210" font-family="Helvetica,sans-Serif" font-size="10.00">adiar::statistics::</text>
<text text-anchor="middle" x="440" y="-199" font-family="Helvetica,sans-Serif" font-size="10.00">__alg_base</text>
</a>
</g>
</g>
<!-- Node2&#45;&gt;Node1 -->
<g id="edge1_Node000001_Node000002" class="edge">
<title>Node2&#45;&gt;Node1</title>
<g id="a_edge1_Node000001_Node000002"><a xlink:title=" ">
<path fill="none" stroke="#63b8ff" d="M499.11,-200.49C543.35,-194 604.95,-181.63 655,-159 673.33,-150.71 691.63,-136.85 704.3,-126.15"/>
<polygon fill="#63b8ff" stroke="#63b8ff" points="498.52,-197.03 489.11,-201.9 499.5,-203.97 498.52,-197.03"/>
</a>
</g>
</g>
<!-- Node3 -->
<g id="Node000003" class="node">
<title>Node3</title>
<g id="a_Node000003"><a xlink:href="structadiar_1_1statistics_1_1____alg__base_1_1____lpq__t.html" target="_top" xlink:title="Type and usage of this algorithm&#39;s levelized priority queue.">
<polygon fill="white" stroke="#666666" points="294,-222 183,-222 183,-192 294,-192 294,-222"/>
<text text-anchor="start" x="191" y="-210" font-family="Helvetica,sans-Serif" font-size="10.00">adiar::statistics::</text>
<text text-anchor="middle" x="238.5" y="-199" font-family="Helvetica,sans-Serif" font-size="10.00">__alg_base::__lpq_t</text>
</a>
</g>
</g>
<!-- Node3&#45;&gt;Node2 -->
<g id="edge2_Node000002_Node000003" class="edge">
<title>Node3&#45;&gt;Node2</title>
<g id="a_edge2_Node000002_Node000003"><a xlink:title=" ">
<path fill="none" stroke="#9a32cd" stroke-dasharray="5,2" d="M304.16,-207C332.29,-207 364.69,-207 390.67,-207"/>
<polygon fill="#9a32cd" stroke="#9a32cd" points="304.01,-203.5 294.01,-207 304.01,-210.5 304.01,-203.5"/>
</a>
</g>
<text text-anchor="middle" x="321.5" y="-210" font-family="Helvetica,sans-Serif" font-size="10.00" fill="grey"> lpq</text>
</g>
<!-- Node4 -->
<g id="Node000004" class="node">
<title>Node4</title>
<g id="a_Node000004"><a xlink:href="structadiar_1_1statistics_1_1levelized__priority__queue__t.html" target="_top" xlink:title="Levelized Priority Queue statistics.">
<polygon fill="white" stroke="#666666" points="146,-222 0,-222 0,-192 146,-192 146,-222"/>
<text text-anchor="start" x="8" y="-210" font-family="Helvetica,sans-Serif" font-size="10.00">adiar::statistics::</text>
<text text-anchor="middle" x="73" y="-199" font-family="Helvetica,sans-Serif" font-size="10.00">levelized_priority_queue_t</text>
</a>
</g>
</g>
<!-- Node4&#45;&gt;Node3 -->
<g id="edge3_Node000003_Node000004" class="edge">
<title>Node4&#45;&gt;Node3</title>
<g id="a_edge3_Node000003_Node000004"><a xlink:title=" ">
<path fill="none" stroke="#63b8ff" d="M156.34,-207C165.34,-207 174.34,-207 182.89,-207"/>
<polygon fill="#63b8ff" stroke="#63b8ff" points="156.19,-203.5 146.19,-207 156.19,-210.5 156.19,-203.5"/>
</a>
</g>
</g>
<!-- Node5 -->
<g id="Node000005" class="node">
<title>Node5</title>
<g id="a_Node000005"><a xlink:href="structadiar_1_1statistics_1_1quantify__t_1_1nested__transposition__t.html" target="_top" xlink:title="Transposition algorithms prior to nested multi&#45;variable sweeping.">
<polygon fill="white" stroke="#666666" points="531,-174 349,-174 349,-144 531,-144 531,-174"/>
<text text-anchor="start" x="357" y="-162" font-family="Helvetica,sans-Serif" font-size="10.00">adiar::statistics::</text>
<text text-anchor="middle" x="440" y="-151" font-family="Helvetica,sans-Serif" font-size="10.00">quantify_t::nested_transposition_t</text>
</a>
</g>
</g>
<!-- Node5&#45;&gt;Node1 -->
<g id="edge4_Node000001_Node000005" class="edge">
<title>Node5&#45;&gt;Node1</title>
<g id="a_edge4_Node000001_Node000005"><a xlink:title=" ">
<path fill="none" stroke="#9a32cd" stroke-dasharray="5,2" d="M541.07,-145.06C577.08,-139.65 617.95,-133.06 655,-126 660.77,-124.9 666.81,-123.66 672.78,-122.37"/>
<polygon fill="#9a32cd" stroke="#9a32cd" points="540.42,-141.62 531.05,-146.55 541.45,-148.54 540.42,-141.62"/>
</a>
</g>
<text text-anchor="middle" x="602" y="-147" font-family="Helvetica,sans-Serif" font-size="10.00" fill="grey"> nested_transposition</text>
</g>
<!-- Node6 -->
<g id="Node000006" class="node">
<title>Node6</title>
<g id="a_Node000006"><a xlink:href="structadiar_1_1statistics_1_1quantify__t_1_1nested__policy__t.html" target="_top" xlink:title="Nested multi&#45;variable sweeping.">
<polygon fill="white" stroke="#666666" points="514,-126 366,-126 366,-96 514,-96 514,-126"/>
<text text-anchor="start" x="374" y="-114" font-family="Helvetica,sans-Serif" font-size="10.00">adiar::statistics::</text>
<text text-anchor="middle" x="440" y="-103" font-family="Helvetica,sans-Serif" font-size="10.00">quantify_t::nested_policy_t</text>
</a>
</g>
</g>
<!-- Node6&#45;&gt;Node1 -->
<g id="edge5_Node000001_Node000006" class="edge">
<title>Node6&#45;&gt;Node1</title>
<g id="a_edge5_Node000001_Node000006"><a xlink:title=" ">
<path fill="none" stroke="#9a32cd" stroke-dasharray="5,2" d="M524.36,-111C572.8,-111 632.12,-111 672.86,-111"/>
<polygon fill="#9a32cd" stroke="#9a32cd" points="524.2,-107.5 514.2,-111 524.2,-114.5 524.2,-107.5"/>
</a>
</g>
<text text-anchor="middle" x="602" y="-114" font-family="Helvetica,sans-Serif" font-size="10.00" fill="grey"> nested_policy</text>
</g>
<!-- Node7 -->
<g id="Node000007" class="node">
<title>Node7</title>
<g id="a_Node000007"><a xlink:href="structadiar_1_1statistics_1_1____raccess__base.html" target="_top" xlink:title="Common statistics for algorithms using random access.">
<polygon fill="white" stroke="#666666" points="489,-78 391,-78 391,-48 489,-48 489,-78"/>
<text text-anchor="start" x="399" y="-66" font-family="Helvetica,sans-Serif" font-size="10.00">adiar::statistics::</text>
<text text-anchor="middle" x="440" y="-55" font-family="Helvetica,sans-Serif" font-size="10.00">__raccess_base</text>
</a>
</g>
</g>
<!-- Node7&#45;&gt;Node1 -->
<g id="edge6_Node000001_Node000007" class="edge">
<title>Node7&#45;&gt;Node1</title>
<g id="a_edge6_Node000001_Node000007"><a xlink:title=" ">
<path fill="none" stroke="#9a32cd" stroke-dasharray="5,2" d="M499.22,-70.85C542.36,-76.94 602.52,-86 655,-96 660.77,-97.1 666.81,-98.34 672.78,-99.63"/>
<polygon fill="#9a32cd" stroke="#9a32cd" points="499.58,-67.36 489.19,-69.44 498.6,-74.3 499.58,-67.36"/>
</a>
</g>
<text text-anchor="middle" x="602" y="-99" font-family="Helvetica,sans-Serif" font-size="10.00" fill="grey"> ra</text>
</g>
<!-- Node8 -->
<g id="Node000008" class="node">
<title>Node8</title>
<g id="a_Node000008"><a xlink:href="structadiar_1_1statistics_1_1____pq2__base.html" target="_top" xlink:title="Common statistics for algorithms using a second priority queue.">
<polygon fill="white" stroke="#666666" points="489,-30 391,-30 391,0 489,0 489,-30"/>
<text text-anchor="start" x="399" y="-18" font-family="Helvetica,sans-Serif" font-size="10.00">adiar::statistics::</text>
<text text-anchor="middle" x="440" y="-7" font-family="Helvetica,sans-Serif" font-size="10.00">__pq2_base</text>
</a>
</g>
</g>
<!-- Node8&#45;&gt;Node1 -->
<g id="edge7_Node000001_Node000008" class="edge">
<title>Node8&#45;&gt;Node1</title>
<g id="a_edge7_Node000001_Node000008"><a xlink:title=" ">
<path fill="none" stroke="#9a32cd" stroke-dasharray="5,2" d="M499.05,-21.99C543.25,-28.78 604.84,-41.48 655,-64 673.09,-72.12 691.28,-85.56 703.96,-95.99"/>
<polygon fill="#9a32cd" stroke="#9a32cd" points="499.45,-18.51 489.05,-20.5 498.43,-25.43 499.45,-18.51"/>
</a>
</g>
<text text-anchor="middle" x="602" y="-67" font-family="Helvetica,sans-Serif" font-size="10.00" fill="grey"> pq</text>
</g>
</g>
</svg>
