<?xml version="1.0" encoding="UTF-8" standalone="no"?>
<!DOCTYPE svg PUBLIC "-//W3C//DTD SVG 1.1//EN"
 "http://www.w3.org/Graphics/SVG/1.1/DTD/svg11.dtd">
<!-- Generated by graphviz version 2.43.0 (0)
 -->
<!-- Title: adiar::statistics::__alg_base Pages: 1 -->
<svg width="444pt" height="382pt"
 viewBox="0.00 0.00 444.00 382.00" xmlns="http://www.w3.org/2000/svg" xmlns:xlink="http://www.w3.org/1999/xlink">
<g id="graph0" class="graph" transform="scale(1 1) rotate(0) translate(4 378)">
<title>adiar::statistics::__alg_base</title>
<!-- Node1 -->
<g id="node1" class="node">
<title>Node1</title>
<g id="a_node1"><a xlink:title="Common statistics for all algorithms.">
<polygon fill="#bfbfbf" stroke="black" points="0,-171.5 0,-201.5 98,-201.5 98,-171.5 0,-171.5"/>
<text text-anchor="start" x="8" y="-189.5" font-family="Helvetica,sans-Serif" font-size="10.00">adiar::statistics::</text>
<text text-anchor="middle" x="49" y="-178.5" font-family="Helvetica,sans-Serif" font-size="10.00">__alg_base</text>
</a>
</g>
</g>
<!-- Node2 -->
<g id="node2" class="node">
<title>Node2</title>
<g id="a_node2"><a xlink:href="structadiar_1_1statistics_1_1count__t.html" target="_top" xlink:title="Counting algorithm statistics.">
<polygon fill="none" stroke="black" points="134,-343.5 134,-373.5 232,-373.5 232,-343.5 134,-343.5"/>
<text text-anchor="start" x="142" y="-361.5" font-family="Helvetica,sans-Serif" font-size="10.00">adiar::statistics::</text>
<text text-anchor="middle" x="183" y="-350.5" font-family="Helvetica,sans-Serif" font-size="10.00">count_t</text>
</a>
</g>
</g>
<!-- Node1&#45;&gt;Node2 -->
<g id="edge1" class="edge">
<title>Node1&#45;&gt;Node2</title>
<path fill="none" stroke="midnightblue" d="M58.82,-211.35C71.26,-243.36 96.67,-299.09 134,-334.5 137.51,-337.83 141.58,-340.8 145.83,-343.42"/>
<polygon fill="midnightblue" stroke="midnightblue" points="62.04,-209.97 55.24,-201.85 55.49,-212.44 62.04,-209.97"/>
</g>
<!-- Node3 -->
<g id="node3" class="node">
<title>Node3</title>
<g id="a_node3"><a xlink:href="structadiar_1_1statistics_1_1equality__t.html" target="_top" xlink:title="Equality Checking algorithm statistics.">
<polygon fill="none" stroke="black" points="134,-294.5 134,-324.5 232,-324.5 232,-294.5 134,-294.5"/>
<text text-anchor="start" x="142" y="-312.5" font-family="Helvetica,sans-Serif" font-size="10.00">adiar::statistics::</text>
<text text-anchor="middle" x="183" y="-301.5" font-family="Helvetica,sans-Serif" font-size="10.00">equality_t</text>
</a>
</g>
</g>
<!-- Node1&#45;&gt;Node3 -->
<g id="edge2" class="edge">
<title>Node1&#45;&gt;Node3</title>
<path fill="none" stroke="midnightblue" d="M65.64,-209.89C81.05,-231.59 106.26,-263.73 134,-285.5 138.18,-288.78 142.87,-291.79 147.65,-294.48"/>
<polygon fill="midnightblue" stroke="midnightblue" points="68.44,-207.78 59.85,-201.57 62.69,-211.78 68.44,-207.78"/>
</g>
<!-- Node4 -->
<g id="node4" class="node">
<title>Node4</title>
<g id="a_node4"><a xlink:href="structadiar_1_1statistics_1_1intercut__t.html" target="_top" xlink:title="Intercut algorithm statistics.">
<polygon fill="none" stroke="black" points="134,-245.5 134,-275.5 232,-275.5 232,-245.5 134,-245.5"/>
<text text-anchor="start" x="142" y="-263.5" font-family="Helvetica,sans-Serif" font-size="10.00">adiar::statistics::</text>
<text text-anchor="middle" x="183" y="-252.5" font-family="Helvetica,sans-Serif" font-size="10.00">intercut_t</text>
</a>
</g>
</g>
<!-- Node1&#45;&gt;Node4 -->
<g id="edge3" class="edge">
<title>Node1&#45;&gt;Node4</title>
<path fill="none" stroke="midnightblue" d="M82.98,-206.89C98.34,-216.19 116.95,-227.18 134,-236.5 139.48,-239.49 145.38,-242.57 151.1,-245.47"/>
<polygon fill="midnightblue" stroke="midnightblue" points="84.71,-203.85 74.35,-201.64 81.07,-209.83 84.71,-203.85"/>
</g>
<!-- Node5 -->
<g id="node5" class="node">
<title>Node5</title>
<g id="a_node5"><a xlink:href="structadiar_1_1statistics_1_1prod2__t.html" target="_top" xlink:title="2&#45;ary Product Construction algorithm statistics.">
<polygon fill="none" stroke="black" points="134,-196.5 134,-226.5 232,-226.5 232,-196.5 134,-196.5"/>
<text text-anchor="start" x="142" y="-214.5" font-family="Helvetica,sans-Serif" font-size="10.00">adiar::statistics::</text>
<text text-anchor="middle" x="183" y="-203.5" font-family="Helvetica,sans-Serif" font-size="10.00">prod2_t</text>
</a>
</g>
</g>
<!-- Node1&#45;&gt;Node5 -->
<g id="edge4" class="edge">
<title>Node1&#45;&gt;Node5</title>
<path fill="none" stroke="midnightblue" d="M108.01,-197.49C116.62,-199.12 125.41,-200.78 133.79,-202.37"/>
<polygon fill="midnightblue" stroke="midnightblue" points="108.51,-194.02 98.03,-195.6 107.2,-200.9 108.51,-194.02"/>
</g>
<!-- Node6 -->
<g id="node6" class="node">
<title>Node6</title>
<g id="a_node6"><a xlink:href="structadiar_1_1statistics_1_1prod3__t.html" target="_top" xlink:title="3&#45;ary Product Construction algorithm statistics.">
<polygon fill="none" stroke="black" points="134,-147.5 134,-177.5 232,-177.5 232,-147.5 134,-147.5"/>
<text text-anchor="start" x="142" y="-165.5" font-family="Helvetica,sans-Serif" font-size="10.00">adiar::statistics::</text>
<text text-anchor="middle" x="183" y="-154.5" font-family="Helvetica,sans-Serif" font-size="10.00">prod3_t</text>
</a>
</g>
</g>
<!-- Node1&#45;&gt;Node6 -->
<g id="edge5" class="edge">
<title>Node1&#45;&gt;Node6</title>
<path fill="none" stroke="midnightblue" d="M108.01,-175.95C116.62,-174.39 125.41,-172.79 133.79,-171.27"/>
<polygon fill="midnightblue" stroke="midnightblue" points="107.24,-172.54 98.03,-177.77 108.49,-179.42 107.24,-172.54"/>
</g>
<!-- Node7 -->
<g id="node7" class="node">
<title>Node7</title>
<g id="a_node7"><a xlink:href="structadiar_1_1statistics_1_1quantify__t.html" target="_top" xlink:title="Quantification algorithm statistics.">
<polygon fill="none" stroke="black" points="134,-98.5 134,-128.5 232,-128.5 232,-98.5 134,-98.5"/>
<text text-anchor="start" x="142" y="-116.5" font-family="Helvetica,sans-Serif" font-size="10.00">adiar::statistics::</text>
<text text-anchor="middle" x="183" y="-105.5" font-family="Helvetica,sans-Serif" font-size="10.00">quantify_t</text>
</a>
</g>
</g>
<!-- Node1&#45;&gt;Node7 -->
<g id="edge6" class="edge">
<title>Node1&#45;&gt;Node7</title>
<path fill="none" stroke="midnightblue" d="M84.92,-166.14C99.95,-157.49 117.76,-147.36 134,-138.5 140.02,-135.21 146.51,-131.77 152.71,-128.52"/>
<polygon fill="midnightblue" stroke="midnightblue" points="82.87,-163.28 75.96,-171.32 86.37,-169.35 82.87,-163.28"/>
</g>
<!-- Node8 -->
<g id="node8" class="node">
<title>Node8</title>
<g id="a_node8"><a xlink:href="structadiar_1_1statistics_1_1reduce__t.html" target="_top" xlink:title="Reduce algorithm statistics.">
<polygon fill="none" stroke="black" points="134,-49.5 134,-79.5 232,-79.5 232,-49.5 134,-49.5"/>
<text text-anchor="start" x="142" y="-67.5" font-family="Helvetica,sans-Serif" font-size="10.00">adiar::statistics::</text>
<text text-anchor="middle" x="183" y="-56.5" font-family="Helvetica,sans-Serif" font-size="10.00">reduce_t</text>
</a>
</g>
</g>
<!-- Node1&#45;&gt;Node8 -->
<g id="edge7" class="edge">
<title>Node1&#45;&gt;Node8</title>
<path fill="none" stroke="midnightblue" d="M66.09,-163.35C81.64,-142.18 106.81,-110.98 134,-89.5 138.57,-85.89 143.74,-82.56 148.96,-79.59"/>
<polygon fill="midnightblue" stroke="midnightblue" points="63.23,-161.32 60.22,-171.47 68.91,-165.41 63.23,-161.32"/>
</g>
<!-- Node11 -->
<g id="node11" class="node">
<title>Node11</title>
<g id="a_node11"><a xlink:href="structadiar_1_1statistics_1_1select__t.html" target="_top" xlink:title="Select algorithm statistics.">
<polygon fill="none" stroke="black" points="134,-0.5 134,-30.5 232,-30.5 232,-0.5 134,-0.5"/>
<text text-anchor="start" x="142" y="-18.5" font-family="Helvetica,sans-Serif" font-size="10.00">adiar::statistics::</text>
<text text-anchor="middle" x="183" y="-7.5" font-family="Helvetica,sans-Serif" font-size="10.00">select_t</text>
</a>
</g>
</g>
<!-- Node1&#45;&gt;Node11 -->
<g id="edge10" class="edge">
<title>Node1&#45;&gt;Node11</title>
<path fill="none" stroke="midnightblue" d="M59,-162.08C71.62,-130.61 97.24,-75.75 134,-40.5 137.8,-36.86 142.23,-33.61 146.84,-30.77"/>
<polygon fill="midnightblue" stroke="midnightblue" points="55.73,-160.83 55.36,-171.42 62.25,-163.38 55.73,-160.83"/>
</g>
<!-- Node9 -->
<g id="node9" class="node">
<title>Node9</title>
<g id="a_node9"><a xlink:href="structadiar_1_1statistics_1_1nested__sweeping__t_1_1inner__up__t.html" target="_top" xlink:title="Inner Up Sweep(s)">
<polygon fill="none" stroke="black" points="268.5,-73.5 268.5,-103.5 435.5,-103.5 435.5,-73.5 268.5,-73.5"/>
<text text-anchor="start" x="276.5" y="-91.5" font-family="Helvetica,sans-Serif" font-size="10.00">adiar::statistics::</text>
<text text-anchor="middle" x="352" y="-80.5" font-family="Helvetica,sans-Serif" font-size="10.00">nested_sweeping_t::inner_up_t</text>
</a>
</g>
</g>
<!-- Node8&#45;&gt;Node9 -->
<g id="edge8" class="edge">
<title>Node8&#45;&gt;Node9</title>
<path fill="none" stroke="midnightblue" d="M242.31,-72.88C250.69,-74.08 259.45,-75.34 268.19,-76.6"/>
<polygon fill="midnightblue" stroke="midnightblue" points="242.7,-69.4 232.3,-71.44 241.7,-76.33 242.7,-69.4"/>
</g>
<!-- Node10 -->
<g id="node10" class="node">
<title>Node10</title>
<g id="a_node10"><a xlink:href="structadiar_1_1statistics_1_1nested__sweeping__t_1_1outer__up__t.html" target="_top" xlink:title="Outer Reduce Sweep.">
<polygon fill="none" stroke="black" points="268,-24.5 268,-54.5 436,-54.5 436,-24.5 268,-24.5"/>
<text text-anchor="start" x="276" y="-42.5" font-family="Helvetica,sans-Serif" font-size="10.00">adiar::statistics::</text>
<text text-anchor="middle" x="352" y="-31.5" font-family="Helvetica,sans-Serif" font-size="10.00">nested_sweeping_t::outer_up_t</text>
</a>
</g>
</g>
<!-- Node8&#45;&gt;Node10 -->
<g id="edge9" class="edge">
<title>Node8&#45;&gt;Node10</title>
<path fill="none" stroke="midnightblue" d="M242.23,-55.78C250.53,-54.54 259.21,-53.24 267.87,-51.94"/>
<polygon fill="midnightblue" stroke="midnightblue" points="241.67,-52.33 232.3,-57.27 242.71,-59.25 241.67,-52.33"/>
</g>
</g>
</svg>
