<?xml version="1.0" encoding="UTF-8" standalone="no"?>
<!DOCTYPE svg PUBLIC "-//W3C//DTD SVG 1.1//EN"
 "http://www.w3.org/Graphics/SVG/1.1/DTD/svg11.dtd">
<!-- Generated by graphviz version 2.43.0 (0)
 -->
<!-- Title: adiar::statistics::equality_t Pages: 1 -->
<svg width="645pt" height="137pt"
 viewBox="0.00 0.00 645.00 137.00" xmlns="http://www.w3.org/2000/svg" xmlns:xlink="http://www.w3.org/1999/xlink">
<g id="graph0" class="graph" transform="scale(1 1) rotate(0) translate(4 133)">
<title>adiar::statistics::equality_t</title>
<!-- Node1 -->
<g id="node1" class="node">
<title>Node1</title>
<g id="a_node1"><a xlink:title="Equality Checking algorithm statistics.">
<polygon fill="#bfbfbf" stroke="black" points="539,-49.5 539,-79.5 637,-79.5 637,-49.5 539,-49.5"/>
<text text-anchor="start" x="547" y="-67.5" font-family="Helvetica,sans-Serif" font-size="10.00">adiar::statistics::</text>
<text text-anchor="middle" x="588" y="-56.5" font-family="Helvetica,sans-Serif" font-size="10.00">equality_t</text>
</a>
</g>
</g>
<!-- Node2 -->
<g id="node2" class="node">
<title>Node2</title>
<g id="a_node2"><a xlink:href="structadiar_1_1statistics_1_1____alg__base.html" target="_top" xlink:title="Common statistics for all algorithms.">
<polygon fill="none" stroke="black" points="342.5,-98.5 342.5,-128.5 440.5,-128.5 440.5,-98.5 342.5,-98.5"/>
<text text-anchor="start" x="350.5" y="-116.5" font-family="Helvetica,sans-Serif" font-size="10.00">adiar::statistics::</text>
<text text-anchor="middle" x="391.5" y="-105.5" font-family="Helvetica,sans-Serif" font-size="10.00">__alg_base</text>
</a>
</g>
</g>
<!-- Node2&#45;&gt;Node1 -->
<g id="edge1" class="edge">
<title>Node2&#45;&gt;Node1</title>
<path fill="none" stroke="midnightblue" d="M450.31,-98.94C478.5,-91.83 512.01,-83.39 538.8,-76.64"/>
<polygon fill="midnightblue" stroke="midnightblue" points="449.42,-95.55 440.58,-101.39 451.13,-102.34 449.42,-95.55"/>
</g>
<!-- Node3 -->
<g id="node3" class="node">
<title>Node3</title>
<g id="a_node3"><a xlink:href="structadiar_1_1statistics_1_1____alg__base_1_1____lpq.html" target="_top" xlink:title="Type and usage of this algorithm&#39;s levelized priority queue.">
<polygon fill="none" stroke="black" points="183,-98.5 183,-128.5 285,-128.5 285,-98.5 183,-98.5"/>
<text text-anchor="start" x="191" y="-116.5" font-family="Helvetica,sans-Serif" font-size="10.00">adiar::statistics::</text>
<text text-anchor="middle" x="234" y="-105.5" font-family="Helvetica,sans-Serif" font-size="10.00">__alg_base::__lpq</text>
</a>
</g>
</g>
<!-- Node3&#45;&gt;Node2 -->
<g id="edge2" class="edge">
<title>Node3&#45;&gt;Node2</title>
<path fill="none" stroke="#9a32cd" stroke-dasharray="5,2" d="M295.17,-113.5C310.81,-113.5 327.46,-113.5 342.39,-113.5"/>
<polygon fill="#9a32cd" stroke="#9a32cd" points="295.06,-110 285.06,-113.5 295.06,-117 295.06,-110"/>
<text text-anchor="middle" x="312.5" y="-116.5" font-family="Helvetica,sans-Serif" font-size="10.00"> lpq</text>
</g>
<!-- Node4 -->
<g id="node4" class="node">
<title>Node4</title>
<g id="a_node4"><a xlink:href="structadiar_1_1statistics_1_1levelized__priority__queue__t.html" target="_top" xlink:title="Levelized Priority Queue statistics.">
<polygon fill="none" stroke="black" points="0,-98.5 0,-128.5 146,-128.5 146,-98.5 0,-98.5"/>
<text text-anchor="start" x="8" y="-116.5" font-family="Helvetica,sans-Serif" font-size="10.00">adiar::statistics::</text>
<text text-anchor="middle" x="73" y="-105.5" font-family="Helvetica,sans-Serif" font-size="10.00">levelized_priority_queue_t</text>
</a>
</g>
</g>
<!-- Node4&#45;&gt;Node3 -->
<g id="edge3" class="edge">
<title>Node4&#45;&gt;Node3</title>
<path fill="none" stroke="midnightblue" d="M156.2,-113.5C165.18,-113.5 174.12,-113.5 182.55,-113.5"/>
<polygon fill="midnightblue" stroke="midnightblue" points="156.06,-110 146.06,-113.5 156.06,-117 156.06,-110"/>
</g>
<!-- Node5 -->
<g id="node5" class="node">
<title>Node5</title>
<g id="a_node5"><a xlink:href="structadiar_1_1statistics_1_1equality__t_1_1fast__t.html" target="_top" xlink:title="Statistics from O(N) linear&#45;scan equality checking algorithm.">
<polygon fill="none" stroke="black" points="342,-49.5 342,-79.5 441,-79.5 441,-49.5 342,-49.5"/>
<text text-anchor="start" x="350" y="-67.5" font-family="Helvetica,sans-Serif" font-size="10.00">adiar::statistics::</text>
<text text-anchor="middle" x="391.5" y="-56.5" font-family="Helvetica,sans-Serif" font-size="10.00">equality_t::fast_t</text>
</a>
</g>
</g>
<!-- Node5&#45;&gt;Node1 -->
<g id="edge4" class="edge">
<title>Node5&#45;&gt;Node1</title>
<path fill="none" stroke="#9a32cd" stroke-dasharray="5,2" d="M451.14,-64.5C479.12,-64.5 512.19,-64.5 538.7,-64.5"/>
<polygon fill="#9a32cd" stroke="#9a32cd" points="451.08,-61 441.08,-64.5 451.08,-68 451.08,-61"/>
<text text-anchor="middle" x="491" y="-67.5" font-family="Helvetica,sans-Serif" font-size="10.00"> fast_check</text>
</g>
<!-- Node6 -->
<g id="node6" class="node">
<title>Node6</title>
<g id="a_node6"><a xlink:href="structadiar_1_1statistics_1_1equality__t_1_1slow__t.html" target="_top" xlink:title="Statistics from O(N log N) time&#45;forward processing equality checking algorithm.">
<polygon fill="none" stroke="black" points="340,-0.5 340,-30.5 443,-30.5 443,-0.5 340,-0.5"/>
<text text-anchor="start" x="348" y="-18.5" font-family="Helvetica,sans-Serif" font-size="10.00">adiar::statistics::</text>
<text text-anchor="middle" x="391.5" y="-7.5" font-family="Helvetica,sans-Serif" font-size="10.00">equality_t::slow_t</text>
</a>
</g>
</g>
<!-- Node6&#45;&gt;Node1 -->
<g id="edge5" class="edge">
<title>Node6&#45;&gt;Node1</title>
<path fill="none" stroke="#9a32cd" stroke-dasharray="5,2" d="M453.02,-30.75C480.58,-37.69 512.76,-45.8 538.67,-52.32"/>
<polygon fill="#9a32cd" stroke="#9a32cd" points="453.65,-27.3 443.09,-28.25 451.94,-34.08 453.65,-27.3"/>
<text text-anchor="middle" x="491" y="-50.5" font-family="Helvetica,sans-Serif" font-size="10.00"> slow_check</text>
</g>
</g>
</svg>
