<?xml version="1.0" encoding="UTF-8" standalone="no"?>
<!DOCTYPE svg PUBLIC "-//W3C//DTD SVG 1.1//EN"
 "http://www.w3.org/Graphics/SVG/1.1/DTD/svg11.dtd">
<!-- Generated by graphviz version 2.43.0 (0)
 -->
<!-- Title: adiar::statistics::__alg_base Pages: 1 -->
<svg width="444pt" height="422pt"
 viewBox="0.00 0.00 444.00 422.00" xmlns="http://www.w3.org/2000/svg" xmlns:xlink="http://www.w3.org/1999/xlink">
<g id="graph0" class="graph" transform="scale(1 1) rotate(0) translate(4 418)">
<title>adiar::statistics::__alg_base</title>
<!-- Node1 -->
<g id="Node000001" class="node">
<title>Node1</title>
<g id="a_Node000001"><a xlink:title="Common statistics for all algorithms.">
<polygon fill="#999999" stroke="#666666" points="98,-222 0,-222 0,-192 98,-192 98,-222"/>
<text text-anchor="start" x="8" y="-210" font-family="Helvetica,sans-Serif" font-size="10.00">adiar::statistics::</text>
<text text-anchor="middle" x="49" y="-199" font-family="Helvetica,sans-Serif" font-size="10.00">__alg_base</text>
</a>
</g>
</g>
<!-- Node2 -->
<g id="Node000002" class="node">
<title>Node2</title>
<g id="a_Node000002"><a xlink:href="structadiar_1_1statistics_1_1count__t.html" target="_top" xlink:title="Counting algorithm statistics.">
<polygon fill="white" stroke="#666666" points="232,-414 134,-414 134,-384 232,-384 232,-414"/>
<text text-anchor="start" x="142" y="-402" font-family="Helvetica,sans-Serif" font-size="10.00">adiar::statistics::</text>
<text text-anchor="middle" x="183" y="-391" font-family="Helvetica,sans-Serif" font-size="10.00">count_t</text>
</a>
</g>
</g>
<!-- Node1&#45;&gt;Node2 -->
<g id="edge1_Node000001_Node000002" class="edge">
<title>Node1&#45;&gt;Node2</title>
<g id="a_edge1_Node000001_Node000002"><a xlink:title=" ">
<path fill="none" stroke="#63b8ff" d="M56.97,-232.07C68.02,-267.81 92.66,-333.66 134,-375 137.29,-378.29 141.13,-381.22 145.18,-383.79"/>
<polygon fill="#63b8ff" stroke="#63b8ff" points="60.3,-231 54.09,-222.42 53.59,-233 60.3,-231"/>
</a>
</g>
</g>
<!-- Node3 -->
<g id="Node000003" class="node">
<title>Node3</title>
<g id="a_Node000003"><a xlink:href="structadiar_1_1statistics_1_1equality__t.html" target="_top" xlink:title="Equality Checking algorithm statistics.">
<polygon fill="white" stroke="#666666" points="232,-366 134,-366 134,-336 232,-336 232,-366"/>
<text text-anchor="start" x="142" y="-354" font-family="Helvetica,sans-Serif" font-size="10.00">adiar::statistics::</text>
<text text-anchor="middle" x="183" y="-343" font-family="Helvetica,sans-Serif" font-size="10.00">equality_t</text>
</a>
</g>
</g>
<!-- Node1&#45;&gt;Node3 -->
<g id="edge2_Node000001_Node000003" class="edge">
<title>Node1&#45;&gt;Node3</title>
<g id="a_edge2_Node000001_Node000003"><a xlink:title=" ">
<path fill="none" stroke="#63b8ff" d="M62.08,-231C76.31,-257.33 102.1,-299.48 134,-327 137.81,-330.29 142.15,-333.25 146.62,-335.89"/>
<polygon fill="#63b8ff" stroke="#63b8ff" points="65.14,-229.29 57.37,-222.08 58.94,-232.56 65.14,-229.29"/>
</a>
</g>
</g>
<!-- Node4 -->
<g id="Node000004" class="node">
<title>Node4</title>
<g id="a_Node000004"><a xlink:href="structadiar_1_1statistics_1_1intercut__t.html" target="_top" xlink:title="Intercut algorithm statistics.">
<polygon fill="white" stroke="#666666" points="232,-318 134,-318 134,-288 232,-288 232,-318"/>
<text text-anchor="start" x="142" y="-306" font-family="Helvetica,sans-Serif" font-size="10.00">adiar::statistics::</text>
<text text-anchor="middle" x="183" y="-295" font-family="Helvetica,sans-Serif" font-size="10.00">intercut_t</text>
</a>
</g>
</g>
<!-- Node1&#45;&gt;Node4 -->
<g id="edge3_Node000001_Node000004" class="edge">
<title>Node1&#45;&gt;Node4</title>
<g id="a_edge3_Node000001_Node000004"><a xlink:title=" ">
<path fill="none" stroke="#63b8ff" d="M72.59,-229.05C88.83,-244.21 111.72,-264.21 134,-279 138.73,-282.14 143.94,-285.15 149.12,-287.91"/>
<polygon fill="#63b8ff" stroke="#63b8ff" points="74.84,-226.36 65.17,-222.03 70.03,-231.45 74.84,-226.36"/>
</a>
</g>
</g>
<!-- Node5 -->
<g id="Node000005" class="node">
<title>Node5</title>
<g id="a_Node000005"><a xlink:href="structadiar_1_1statistics_1_1optmin__t.html" target="_top" xlink:title="Boolean Optimization algorithm statistics.">
<polygon fill="white" stroke="#666666" points="232,-270 134,-270 134,-240 232,-240 232,-270"/>
<text text-anchor="start" x="142" y="-258" font-family="Helvetica,sans-Serif" font-size="10.00">adiar::statistics::</text>
<text text-anchor="middle" x="183" y="-247" font-family="Helvetica,sans-Serif" font-size="10.00">optmin_t</text>
</a>
</g>
</g>
<!-- Node1&#45;&gt;Node5 -->
<g id="edge4_Node000001_Node000005" class="edge">
<title>Node1&#45;&gt;Node5</title>
<g id="a_edge4_Node000001_Node000005"><a xlink:title=" ">
<path fill="none" stroke="#63b8ff" d="M100.83,-225.49C114.04,-230.29 128.1,-235.4 140.74,-240"/>
<polygon fill="#63b8ff" stroke="#63b8ff" points="102,-222.18 91.4,-222.06 99.61,-228.76 102,-222.18"/>
</a>
</g>
</g>
<!-- Node6 -->
<g id="Node000006" class="node">
<title>Node6</title>
<g id="a_Node000006"><a xlink:href="structadiar_1_1statistics_1_1prod2__t.html" target="_top" xlink:title="2&#45;ary Product Construction algorithm statistics.">
<polygon fill="white" stroke="#666666" points="232,-222 134,-222 134,-192 232,-192 232,-222"/>
<text text-anchor="start" x="142" y="-210" font-family="Helvetica,sans-Serif" font-size="10.00">adiar::statistics::</text>
<text text-anchor="middle" x="183" y="-199" font-family="Helvetica,sans-Serif" font-size="10.00">prod2_t</text>
</a>
</g>
</g>
<!-- Node1&#45;&gt;Node6 -->
<g id="edge5_Node000001_Node000006" class="edge">
<title>Node1&#45;&gt;Node6</title>
<g id="a_edge5_Node000001_Node000006"><a xlink:title=" ">
<path fill="none" stroke="#63b8ff" d="M108.29,-207C116.81,-207 125.5,-207 133.79,-207"/>
<polygon fill="#63b8ff" stroke="#63b8ff" points="108.03,-203.5 98.03,-207 108.03,-210.5 108.03,-203.5"/>
</a>
</g>
</g>
<!-- Node7 -->
<g id="Node000007" class="node">
<title>Node7</title>
<g id="a_Node000007"><a xlink:href="structadiar_1_1statistics_1_1prod3__t.html" target="_top" xlink:title="3&#45;ary Product Construction algorithm statistics.">
<polygon fill="white" stroke="#666666" points="232,-174 134,-174 134,-144 232,-144 232,-174"/>
<text text-anchor="start" x="142" y="-162" font-family="Helvetica,sans-Serif" font-size="10.00">adiar::statistics::</text>
<text text-anchor="middle" x="183" y="-151" font-family="Helvetica,sans-Serif" font-size="10.00">prod3_t</text>
</a>
</g>
</g>
<!-- Node1&#45;&gt;Node7 -->
<g id="edge6_Node000001_Node000007" class="edge">
<title>Node1&#45;&gt;Node7</title>
<g id="a_edge6_Node000001_Node000007"><a xlink:title=" ">
<path fill="none" stroke="#63b8ff" d="M100.83,-188.51C114.04,-183.71 128.1,-178.6 140.74,-174"/>
<polygon fill="#63b8ff" stroke="#63b8ff" points="99.61,-185.24 91.4,-191.94 102,-191.82 99.61,-185.24"/>
</a>
</g>
</g>
<!-- Node8 -->
<g id="Node000008" class="node">
<title>Node8</title>
<g id="a_Node000008"><a xlink:href="structadiar_1_1statistics_1_1quantify__t.html" target="_top" xlink:title="Quantification algorithm statistics.">
<polygon fill="white" stroke="#666666" points="232,-126 134,-126 134,-96 232,-96 232,-126"/>
<text text-anchor="start" x="142" y="-114" font-family="Helvetica,sans-Serif" font-size="10.00">adiar::statistics::</text>
<text text-anchor="middle" x="183" y="-103" font-family="Helvetica,sans-Serif" font-size="10.00">quantify_t</text>
</a>
</g>
</g>
<!-- Node1&#45;&gt;Node8 -->
<g id="edge7_Node000001_Node000008" class="edge">
<title>Node1&#45;&gt;Node8</title>
<g id="a_edge7_Node000001_Node000008"><a xlink:title=" ">
<path fill="none" stroke="#63b8ff" d="M72.59,-184.95C88.83,-169.79 111.72,-149.79 134,-135 138.73,-131.86 143.94,-128.85 149.12,-126.09"/>
<polygon fill="#63b8ff" stroke="#63b8ff" points="70.03,-182.55 65.17,-191.97 74.84,-187.64 70.03,-182.55"/>
</a>
</g>
</g>
<!-- Node9 -->
<g id="Node000009" class="node">
<title>Node9</title>
<g id="a_Node000009"><a xlink:href="structadiar_1_1statistics_1_1reduce__t.html" target="_top" xlink:title="Reduce algorithm statistics.">
<polygon fill="white" stroke="#666666" points="232,-78 134,-78 134,-48 232,-48 232,-78"/>
<text text-anchor="start" x="142" y="-66" font-family="Helvetica,sans-Serif" font-size="10.00">adiar::statistics::</text>
<text text-anchor="middle" x="183" y="-55" font-family="Helvetica,sans-Serif" font-size="10.00">reduce_t</text>
</a>
</g>
</g>
<!-- Node1&#45;&gt;Node9 -->
<g id="edge8_Node000001_Node000009" class="edge">
<title>Node1&#45;&gt;Node9</title>
<g id="a_edge8_Node000001_Node000009"><a xlink:title=" ">
<path fill="none" stroke="#63b8ff" d="M62.08,-183C76.31,-156.67 102.1,-114.52 134,-87 137.81,-83.71 142.15,-80.75 146.62,-78.11"/>
<polygon fill="#63b8ff" stroke="#63b8ff" points="58.94,-181.44 57.37,-191.92 65.14,-184.71 58.94,-181.44"/>
</a>
</g>
</g>
<!-- Node12 -->
<g id="Node000012" class="node">
<title>Node12</title>
<g id="a_Node000012"><a xlink:href="structadiar_1_1statistics_1_1select__t.html" target="_top" xlink:title="Select algorithm statistics.">
<polygon fill="white" stroke="#666666" points="232,-30 134,-30 134,0 232,0 232,-30"/>
<text text-anchor="start" x="142" y="-18" font-family="Helvetica,sans-Serif" font-size="10.00">adiar::statistics::</text>
<text text-anchor="middle" x="183" y="-7" font-family="Helvetica,sans-Serif" font-size="10.00">select_t</text>
</a>
</g>
</g>
<!-- Node1&#45;&gt;Node12 -->
<g id="edge11_Node000001_Node000012" class="edge">
<title>Node1&#45;&gt;Node12</title>
<g id="a_edge11_Node000001_Node000012"><a xlink:title=" ">
<path fill="none" stroke="#63b8ff" d="M56.97,-181.93C68.02,-146.19 92.66,-80.34 134,-39 137.29,-35.71 141.13,-32.78 145.18,-30.21"/>
<polygon fill="#63b8ff" stroke="#63b8ff" points="53.59,-181 54.09,-191.58 60.3,-183 53.59,-181"/>
</a>
</g>
</g>
<!-- Node10 -->
<g id="Node000010" class="node">
<title>Node10</title>
<g id="a_Node000010"><a xlink:href="structadiar_1_1statistics_1_1nested__sweeping__t_1_1inner__up__t.html" target="_top" xlink:title="Inner Up Sweep(s)">
<polygon fill="white" stroke="#666666" points="435.5,-102 268.5,-102 268.5,-72 435.5,-72 435.5,-102"/>
<text text-anchor="start" x="276.5" y="-90" font-family="Helvetica,sans-Serif" font-size="10.00">adiar::statistics::</text>
<text text-anchor="middle" x="352" y="-79" font-family="Helvetica,sans-Serif" font-size="10.00">nested_sweeping_t::inner_up_t</text>
</a>
</g>
</g>
<!-- Node9&#45;&gt;Node10 -->
<g id="edge9_Node000009_Node000010" class="edge">
<title>Node9&#45;&gt;Node10</title>
<g id="a_edge9_Node000009_Node000010"><a xlink:title=" ">
<path fill="none" stroke="#63b8ff" d="M242.31,-71.38C250.69,-72.58 259.45,-73.84 268.19,-75.1"/>
<polygon fill="#63b8ff" stroke="#63b8ff" points="242.7,-67.9 232.3,-69.94 241.7,-74.83 242.7,-67.9"/>
</a>
</g>
</g>
<!-- Node11 -->
<g id="Node000011" class="node">
<title>Node11</title>
<g id="a_Node000011"><a xlink:href="structadiar_1_1statistics_1_1nested__sweeping__t_1_1outer__up__t.html" target="_top" xlink:title="Outer Reduce Sweep.">
<polygon fill="white" stroke="#666666" points="436,-54 268,-54 268,-24 436,-24 436,-54"/>
<text text-anchor="start" x="276" y="-42" font-family="Helvetica,sans-Serif" font-size="10.00">adiar::statistics::</text>
<text text-anchor="middle" x="352" y="-31" font-family="Helvetica,sans-Serif" font-size="10.00">nested_sweeping_t::outer_up_t</text>
</a>
</g>
</g>
<!-- Node9&#45;&gt;Node11 -->
<g id="edge10_Node000009_Node000011" class="edge">
<title>Node9&#45;&gt;Node11</title>
<g id="a_edge10_Node000009_Node000011"><a xlink:title=" ">
<path fill="none" stroke="#63b8ff" d="M242.23,-54.63C250.53,-53.44 259.21,-52.19 267.87,-50.95"/>
<polygon fill="#63b8ff" stroke="#63b8ff" points="241.7,-51.17 232.3,-56.06 242.7,-58.1 241.7,-51.17"/>
</a>
</g>
</g>
</g>
</svg>
