<?xml version="1.0" encoding="UTF-8" standalone="no"?>
<!DOCTYPE svg PUBLIC "-//W3C//DTD SVG 1.1//EN"
 "http://www.w3.org/Graphics/SVG/1.1/DTD/svg11.dtd">
<!-- Generated by graphviz version 2.43.0 (0)
 -->
<!-- Title: adiar::stats_t::nested_sweeping_t::inner_t::down_t Pages: 1 -->
<svg width="148pt" height="253pt"
 viewBox="0.00 0.00 148.00 253.00" xmlns="http://www.w3.org/2000/svg" xmlns:xlink="http://www.w3.org/1999/xlink">
<g id="graph0" class="graph" transform="scale(1 1) rotate(0) translate(4 249)">
<title>adiar::stats_t::nested_sweeping_t::inner_t::down_t</title>
<!-- Node1 -->
<g id="node1" class="node">
<title>Node1</title>
<g id="a_node1"><a xlink:title="Inner Down Sweep.">
<polygon fill="#bfbfbf" stroke="black" points="8.5,-0.5 8.5,-41.5 131.5,-41.5 131.5,-0.5 8.5,-0.5"/>
<text text-anchor="start" x="16.5" y="-29.5" font-family="Helvetica,sans-Serif" font-size="10.00">adiar::stats_t::nested</text>
<text text-anchor="start" x="16.5" y="-18.5" font-family="Helvetica,sans-Serif" font-size="10.00">_sweeping_t::inner_t::</text>
<text text-anchor="middle" x="70" y="-7.5" font-family="Helvetica,sans-Serif" font-size="10.00">down_t</text>
</a>
</g>
</g>
<!-- Node2 -->
<g id="node2" class="node">
<title>Node2</title>
<g id="a_node2"><a xlink:href="structadiar_1_1stats__t_1_1____alg__base.html" target="_top" xlink:title="Common statistics for all algorithms.">
<polygon fill="none" stroke="black" points="0,-79.5 0,-98.5 140,-98.5 140,-79.5 0,-79.5"/>
<text text-anchor="middle" x="70" y="-86.5" font-family="Helvetica,sans-Serif" font-size="10.00">adiar::stats_t::__alg_base</text>
</a>
</g>
</g>
<!-- Node2&#45;&gt;Node1 -->
<g id="edge1" class="edge">
<title>Node2&#45;&gt;Node1</title>
<path fill="none" stroke="midnightblue" d="M70,-69.25C70,-60.65 70,-50.45 70,-41.74"/>
<polygon fill="midnightblue" stroke="midnightblue" points="66.5,-69.37 70,-79.37 73.5,-69.37 66.5,-69.37"/>
</g>
<!-- Node3 -->
<g id="node3" class="node">
<title>Node3</title>
<g id="a_node3"><a xlink:href="structadiar_1_1stats__t_1_1____alg__base_1_1____lpq.html" target="_top" xlink:title="Type and usage of this algorithm&#39;s levelized priority queue.">
<polygon fill="none" stroke="black" points="14,-146.5 14,-176.5 126,-176.5 126,-146.5 14,-146.5"/>
<text text-anchor="start" x="22" y="-164.5" font-family="Helvetica,sans-Serif" font-size="10.00">adiar::stats_t::__alg</text>
<text text-anchor="middle" x="70" y="-153.5" font-family="Helvetica,sans-Serif" font-size="10.00">_base::__lpq</text>
</a>
</g>
</g>
<!-- Node3&#45;&gt;Node2 -->
<g id="edge2" class="edge">
<title>Node3&#45;&gt;Node2</title>
<path fill="none" stroke="#9a32cd" stroke-dasharray="5,2" d="M70,-136.09C70,-123.21 70,-108.2 70,-98.89"/>
<polygon fill="#9a32cd" stroke="#9a32cd" points="66.5,-136.23 70,-146.23 73.5,-136.23 66.5,-136.23"/>
<text text-anchor="middle" x="79.5" y="-120" font-family="Helvetica,sans-Serif" font-size="10.00"> lpq</text>
</g>
<!-- Node4 -->
<g id="node4" class="node">
<title>Node4</title>
<g id="a_node4"><a xlink:href="structadiar_1_1stats__t_1_1levelized__priority__queue__t.html" target="_top" xlink:title="Levelized Priority Queue statistics.">
<polygon fill="none" stroke="black" points="4.5,-214.5 4.5,-244.5 135.5,-244.5 135.5,-214.5 4.5,-214.5"/>
<text text-anchor="start" x="12.5" y="-232.5" font-family="Helvetica,sans-Serif" font-size="10.00">adiar::stats_t::levelized</text>
<text text-anchor="middle" x="70" y="-221.5" font-family="Helvetica,sans-Serif" font-size="10.00">_priority_queue_t</text>
</a>
</g>
</g>
<!-- Node4&#45;&gt;Node3 -->
<g id="edge3" class="edge">
<title>Node4&#45;&gt;Node3</title>
<path fill="none" stroke="midnightblue" d="M70,-204.03C70,-194.86 70,-184.74 70,-176.79"/>
<polygon fill="midnightblue" stroke="midnightblue" points="66.5,-204.18 70,-214.18 73.5,-204.18 66.5,-204.18"/>
</g>
</g>
</svg>
