<?xml version="1.0" encoding="UTF-8" standalone="no"?>
<!DOCTYPE svg PUBLIC "-//W3C//DTD SVG 1.1//EN"
 "http://www.w3.org/Graphics/SVG/1.1/DTD/svg11.dtd">
<!-- Generated by graphviz version 2.43.0 (0)
 -->
<!-- Title: adiar::statistics Pages: 1 -->
<svg width="1515pt" height="788pt"
 viewBox="0.00 0.00 1515.00 787.50" xmlns="http://www.w3.org/2000/svg" xmlns:xlink="http://www.w3.org/1999/xlink">
<g id="graph0" class="graph" transform="scale(1 1) rotate(0) translate(4 783.5)">
<title>adiar::statistics</title>
<!-- Node1 -->
<g id="node1" class="node">
<title>Node1</title>
<g id="a_node1"><a xlink:title="Available statistics from algorithm&#39;s and data structures.">
<polygon fill="#bfbfbf" stroke="black" points="1415,-382 1415,-401 1507,-401 1507,-382 1415,-382"/>
<text text-anchor="middle" x="1461" y="-389" font-family="Helvetica,sans-Serif" font-size="10.00">adiar::statistics</text>
</a>
</g>
</g>
<!-- Node2 -->
<g id="node2" class="node">
<title>Node2</title>
<g id="a_node2"><a xlink:href="structadiar_1_1statistics_1_1intercut__t.html" target="_top" xlink:title="Intercut algorithm statistics.">
<polygon fill="none" stroke="black" points="763,-377.5 763,-407.5 861,-407.5 861,-377.5 763,-377.5"/>
<text text-anchor="start" x="771" y="-395.5" font-family="Helvetica,sans-Serif" font-size="10.00">adiar::statistics::</text>
<text text-anchor="middle" x="812" y="-384.5" font-family="Helvetica,sans-Serif" font-size="10.00">intercut_t</text>
</a>
</g>
</g>
<!-- Node2&#45;&gt;Node1 -->
<g id="edge1" class="edge">
<title>Node2&#45;&gt;Node1</title>
<path fill="none" stroke="#9a32cd" stroke-dasharray="5,2" d="M871.44,-392.41C998.98,-392.21 1300.02,-391.75 1414.62,-391.57"/>
<polygon fill="#9a32cd" stroke="#9a32cd" points="871.1,-388.91 861.1,-392.43 871.11,-395.91 871.1,-388.91"/>
<text text-anchor="middle" x="1114" y="-394.5" font-family="Helvetica,sans-Serif" font-size="10.00"> intercut</text>
</g>
<!-- Node3 -->
<g id="node3" class="node">
<title>Node3</title>
<g id="a_node3"><a xlink:href="structadiar_1_1statistics_1_1____alg__base.html" target="_top" xlink:title="Common statistics for all algorithms.">
<polygon fill="none" stroke="black" points="374,-379.5 374,-409.5 472,-409.5 472,-379.5 374,-379.5"/>
<text text-anchor="start" x="382" y="-397.5" font-family="Helvetica,sans-Serif" font-size="10.00">adiar::statistics::</text>
<text text-anchor="middle" x="423" y="-386.5" font-family="Helvetica,sans-Serif" font-size="10.00">__alg_base</text>
</a>
</g>
</g>
<!-- Node3&#45;&gt;Node2 -->
<g id="edge2" class="edge">
<title>Node3&#45;&gt;Node2</title>
<path fill="none" stroke="midnightblue" d="M482.65,-394.2C559.2,-393.8 691.75,-393.12 762.77,-392.75"/>
<polygon fill="midnightblue" stroke="midnightblue" points="482.21,-390.7 472.23,-394.25 482.25,-397.7 482.21,-390.7"/>
</g>
<!-- Node6 -->
<g id="node6" class="node">
<title>Node6</title>
<g id="a_node6"><a xlink:href="structadiar_1_1statistics_1_1select__t.html" target="_top" xlink:title="Select algorithm statistics.">
<polygon fill="none" stroke="black" points="1065,-337.5 1065,-367.5 1163,-367.5 1163,-337.5 1065,-337.5"/>
<text text-anchor="start" x="1073" y="-355.5" font-family="Helvetica,sans-Serif" font-size="10.00">adiar::statistics::</text>
<text text-anchor="middle" x="1114" y="-344.5" font-family="Helvetica,sans-Serif" font-size="10.00">select_t</text>
</a>
</g>
</g>
<!-- Node3&#45;&gt;Node6 -->
<g id="edge6" class="edge">
<title>Node3&#45;&gt;Node6</title>
<path fill="none" stroke="midnightblue" d="M482.27,-389.76C549.78,-384.36 664.39,-375.53 763,-369.5 870.78,-362.91 997.36,-357.29 1064.86,-354.46"/>
<polygon fill="midnightblue" stroke="midnightblue" points="481.94,-386.27 472.25,-390.56 482.5,-393.25 481.94,-386.27"/>
</g>
<!-- Node8 -->
<g id="node8" class="node">
<title>Node8</title>
<g id="a_node8"><a xlink:href="structadiar_1_1statistics_1_1prod2__t.html" target="_top" xlink:title="2&#45;ary Product Construction algorithm statistics.">
<polygon fill="none" stroke="black" points="625.5,-291.5 625.5,-321.5 723.5,-321.5 723.5,-291.5 625.5,-291.5"/>
<text text-anchor="start" x="633.5" y="-309.5" font-family="Helvetica,sans-Serif" font-size="10.00">adiar::statistics::</text>
<text text-anchor="middle" x="674.5" y="-298.5" font-family="Helvetica,sans-Serif" font-size="10.00">prod2_t</text>
</a>
</g>
</g>
<!-- Node3&#45;&gt;Node8 -->
<g id="edge9" class="edge">
<title>Node3&#45;&gt;Node8</title>
<path fill="none" stroke="midnightblue" d="M482.05,-377.68C513.13,-368.32 551.92,-356.04 586,-343.5 603.96,-336.89 623.6,-328.68 639.73,-321.67"/>
<polygon fill="midnightblue" stroke="midnightblue" points="480.83,-374.4 472.25,-380.62 482.84,-381.1 480.83,-374.4"/>
</g>
<!-- Node13 -->
<g id="node13" class="node">
<title>Node13</title>
<g id="a_node13"><a xlink:href="structadiar_1_1statistics_1_1reduce__t.html" target="_top" xlink:title="Reduce algorithm statistics.">
<polygon fill="none" stroke="black" points="625.5,-609.5 625.5,-639.5 723.5,-639.5 723.5,-609.5 625.5,-609.5"/>
<text text-anchor="start" x="633.5" y="-627.5" font-family="Helvetica,sans-Serif" font-size="10.00">adiar::statistics::</text>
<text text-anchor="middle" x="674.5" y="-616.5" font-family="Helvetica,sans-Serif" font-size="10.00">reduce_t</text>
</a>
</g>
</g>
<!-- Node3&#45;&gt;Node13 -->
<g id="edge15" class="edge">
<title>Node3&#45;&gt;Node13</title>
<path fill="none" stroke="midnightblue" d="M432.66,-419.23C445.7,-453.29 473.38,-514.7 515,-552.5 546.55,-581.15 591.43,-600.08 625.38,-611.31"/>
<polygon fill="midnightblue" stroke="midnightblue" points="435.85,-417.75 429.08,-409.6 429.28,-420.19 435.85,-417.75"/>
</g>
<!-- Node18 -->
<g id="node18" class="node">
<title>Node18</title>
<g id="a_node18"><a xlink:href="structadiar_1_1statistics_1_1quantify__t.html" target="_top" xlink:title="Quantification algorithm statistics.">
<polygon fill="none" stroke="black" points="625.5,-198.5 625.5,-228.5 723.5,-228.5 723.5,-198.5 625.5,-198.5"/>
<text text-anchor="start" x="633.5" y="-216.5" font-family="Helvetica,sans-Serif" font-size="10.00">adiar::statistics::</text>
<text text-anchor="middle" x="674.5" y="-205.5" font-family="Helvetica,sans-Serif" font-size="10.00">quantify_t</text>
</a>
</g>
</g>
<!-- Node3&#45;&gt;Node18 -->
<g id="edge22" class="edge">
<title>Node3&#45;&gt;Node18</title>
<path fill="none" stroke="midnightblue" d="M461.43,-374.46C477.82,-365.76 497.31,-355.52 515,-346.5 546.34,-330.51 559.94,-335.14 586,-311.5 597.24,-301.31 594.55,-294.37 604,-282.5 619.99,-262.41 641.3,-242.02 656.08,-228.66"/>
<polygon fill="midnightblue" stroke="midnightblue" points="459.37,-371.6 452.18,-379.38 462.65,-377.78 459.37,-371.6"/>
</g>
<!-- Node20 -->
<g id="node20" class="node">
<title>Node20</title>
<g id="a_node20"><a xlink:href="structadiar_1_1statistics_1_1prod3__t.html" target="_top" xlink:title="3&#45;ary Product Construction algorithm statistics.">
<polygon fill="none" stroke="black" points="763,-536.5 763,-566.5 861,-566.5 861,-536.5 763,-536.5"/>
<text text-anchor="start" x="771" y="-554.5" font-family="Helvetica,sans-Serif" font-size="10.00">adiar::statistics::</text>
<text text-anchor="middle" x="812" y="-543.5" font-family="Helvetica,sans-Serif" font-size="10.00">prod3_t</text>
</a>
</g>
</g>
<!-- Node3&#45;&gt;Node20 -->
<g id="edge27" class="edge">
<title>Node3&#45;&gt;Node20</title>
<path fill="none" stroke="midnightblue" d="M439.92,-417.9C456.17,-439.9 483.44,-471.99 515,-489.5 594.42,-533.58 701.68,-546.4 762.88,-550.07"/>
<polygon fill="midnightblue" stroke="midnightblue" points="442.72,-415.8 434.04,-409.73 437.04,-419.89 442.72,-415.8"/>
</g>
<!-- Node21 -->
<g id="node21" class="node">
<title>Node21</title>
<g id="a_node21"><a xlink:href="structadiar_1_1statistics_1_1optmin__t.html" target="_top" xlink:title="Boolean Optimization algorithm statistics.">
<polygon fill="none" stroke="black" points="1065,-460.5 1065,-490.5 1163,-490.5 1163,-460.5 1065,-460.5"/>
<text text-anchor="start" x="1073" y="-478.5" font-family="Helvetica,sans-Serif" font-size="10.00">adiar::statistics::</text>
<text text-anchor="middle" x="1114" y="-467.5" font-family="Helvetica,sans-Serif" font-size="10.00">optmin_t</text>
</a>
</g>
</g>
<!-- Node3&#45;&gt;Node21 -->
<g id="edge30" class="edge">
<title>Node3&#45;&gt;Node21</title>
<path fill="none" stroke="midnightblue" d="M474.14,-412.84C487.3,-417.15 501.57,-421.39 515,-424.5 715.49,-470.88 962.55,-476.05 1065,-475.99"/>
<polygon fill="midnightblue" stroke="midnightblue" points="474.91,-409.41 464.32,-409.55 472.69,-416.05 474.91,-409.41"/>
</g>
<!-- Node22 -->
<g id="node22" class="node">
<title>Node22</title>
<g id="a_node22"><a xlink:href="structadiar_1_1statistics_1_1equality__t.html" target="_top" xlink:title="Equality Checking algorithm statistics.">
<polygon fill="none" stroke="black" points="625.5,-47.5 625.5,-77.5 723.5,-77.5 723.5,-47.5 625.5,-47.5"/>
<text text-anchor="start" x="633.5" y="-65.5" font-family="Helvetica,sans-Serif" font-size="10.00">adiar::statistics::</text>
<text text-anchor="middle" x="674.5" y="-54.5" font-family="Helvetica,sans-Serif" font-size="10.00">equality_t</text>
</a>
</g>
</g>
<!-- Node3&#45;&gt;Node22 -->
<g id="edge32" class="edge">
<title>Node3&#45;&gt;Node22</title>
<path fill="none" stroke="midnightblue" d="M446.22,-372.08C462.13,-355.02 483.12,-330.3 497,-305.5 508.94,-284.16 498.08,-271.16 515,-253.5 538.47,-229.01 565.07,-252.2 586,-225.5 622.8,-178.55 567.95,-140.03 604,-92.5 609.48,-85.28 617.05,-79.77 625.2,-75.57"/>
<polygon fill="midnightblue" stroke="midnightblue" points="443.66,-369.7 439.31,-379.36 448.73,-374.52 443.66,-369.7"/>
</g>
<!-- Node25 -->
<g id="node25" class="node">
<title>Node25</title>
<g id="a_node25"><a xlink:href="structadiar_1_1statistics_1_1count__t.html" target="_top" xlink:title="Counting algorithm statistics.">
<polygon fill="none" stroke="black" points="763,-418.5 763,-448.5 861,-448.5 861,-418.5 763,-418.5"/>
<text text-anchor="start" x="771" y="-436.5" font-family="Helvetica,sans-Serif" font-size="10.00">adiar::statistics::</text>
<text text-anchor="middle" x="812" y="-425.5" font-family="Helvetica,sans-Serif" font-size="10.00">count_t</text>
</a>
</g>
</g>
<!-- Node3&#45;&gt;Node25 -->
<g id="edge36" class="edge">
<title>Node3&#45;&gt;Node25</title>
<path fill="none" stroke="midnightblue" d="M482.01,-403.27C492.96,-404.79 504.32,-406.27 515,-407.5 602.25,-417.56 704.36,-425.74 762.98,-430.09"/>
<polygon fill="midnightblue" stroke="midnightblue" points="482.5,-399.8 472.11,-401.87 481.52,-406.73 482.5,-399.8"/>
</g>
<!-- Node4 -->
<g id="node4" class="node">
<title>Node4</title>
<g id="a_node4"><a xlink:href="structadiar_1_1statistics_1_1____alg__base_1_1____lpq__t.html" target="_top" xlink:title="Type and usage of this algorithm&#39;s levelized priority queue.">
<polygon fill="none" stroke="black" points="183,-254.5 183,-284.5 294,-284.5 294,-254.5 183,-254.5"/>
<text text-anchor="start" x="191" y="-272.5" font-family="Helvetica,sans-Serif" font-size="10.00">adiar::statistics::</text>
<text text-anchor="middle" x="238.5" y="-261.5" font-family="Helvetica,sans-Serif" font-size="10.00">__alg_base::__lpq_t</text>
</a>
</g>
</g>
<!-- Node4&#45;&gt;Node3 -->
<g id="edge3" class="edge">
<title>Node4&#45;&gt;Node3</title>
<path fill="none" stroke="#9a32cd" stroke-dasharray="5,2" d="M269.84,-290.28C306.53,-315.41 367.39,-357.1 399.91,-379.37"/>
<polygon fill="#9a32cd" stroke="#9a32cd" points="271.74,-287.34 261.51,-284.58 267.79,-293.12 271.74,-287.34"/>
<text text-anchor="middle" x="321.5" y="-334.5" font-family="Helvetica,sans-Serif" font-size="10.00"> lpq</text>
</g>
<!-- Node5 -->
<g id="node5" class="node">
<title>Node5</title>
<g id="a_node5"><a xlink:href="structadiar_1_1statistics_1_1levelized__priority__queue__t.html" target="_top" xlink:title="Levelized Priority Queue statistics.">
<polygon fill="none" stroke="black" points="0,-109.5 0,-139.5 146,-139.5 146,-109.5 0,-109.5"/>
<text text-anchor="start" x="8" y="-127.5" font-family="Helvetica,sans-Serif" font-size="10.00">adiar::statistics::</text>
<text text-anchor="middle" x="73" y="-116.5" font-family="Helvetica,sans-Serif" font-size="10.00">levelized_priority_queue_t</text>
</a>
</g>
</g>
<!-- Node5&#45;&gt;Node1 -->
<g id="edge37" class="edge">
<title>Node5&#45;&gt;Node1</title>
<path fill="none" stroke="#9a32cd" stroke-dasharray="5,2" d="M156.53,-122.65C292.8,-119.76 573.42,-114.5 811,-114.5 811,-114.5 811,-114.5 1237,-114.5 1377.45,-114.5 1444.38,-333.26 1457.55,-381.97"/>
<polygon fill="#9a32cd" stroke="#9a32cd" points="156.1,-119.16 146.18,-122.87 156.25,-126.16 156.1,-119.16"/>
<text text-anchor="start" x="630.5" y="-130.5" font-family="Helvetica,sans-Serif" font-size="10.00"> levelized_priority</text>
<text text-anchor="middle" x="674.5" y="-119.5" font-family="Helvetica,sans-Serif" font-size="10.00">_queue</text>
</g>
<!-- Node5&#45;&gt;Node4 -->
<g id="edge4" class="edge">
<title>Node5&#45;&gt;Node4</title>
<path fill="none" stroke="midnightblue" d="M98.75,-146.45C132.36,-176.25 191.55,-228.75 220.54,-254.46"/>
<polygon fill="midnightblue" stroke="midnightblue" points="100.99,-143.76 91.19,-139.74 96.35,-149 100.99,-143.76"/>
</g>
<!-- Node6&#45;&gt;Node1 -->
<g id="edge5" class="edge">
<title>Node6&#45;&gt;Node1</title>
<path fill="none" stroke="#9a32cd" stroke-dasharray="5,2" d="M1173.47,-355.2C1230.72,-358.43 1320.27,-365.04 1397,-377.5 1404.63,-378.74 1412.73,-380.33 1420.48,-381.99"/>
<polygon fill="#9a32cd" stroke="#9a32cd" points="1173.34,-351.69 1163.17,-354.64 1172.96,-358.68 1173.34,-351.69"/>
<text text-anchor="middle" x="1236" y="-366.5" font-family="Helvetica,sans-Serif" font-size="10.00"> select</text>
</g>
<!-- Node7 -->
<g id="node7" class="node">
<title>Node7</title>
<g id="a_node7"><a xlink:href="structadiar_1_1statistics_1_1arc__file__t.html" target="_top" xlink:title="Arc Files statistics.">
<polygon fill="none" stroke="black" points="1187,-505.5 1187,-535.5 1285,-535.5 1285,-505.5 1187,-505.5"/>
<text text-anchor="start" x="1195" y="-523.5" font-family="Helvetica,sans-Serif" font-size="10.00">adiar::statistics::</text>
<text text-anchor="middle" x="1236" y="-512.5" font-family="Helvetica,sans-Serif" font-size="10.00">arc_file_t</text>
</a>
</g>
</g>
<!-- Node7&#45;&gt;Node1 -->
<g id="edge7" class="edge">
<title>Node7&#45;&gt;Node1</title>
<path fill="none" stroke="#9a32cd" stroke-dasharray="5,2" d="M1295.44,-520.16C1327.78,-517.41 1367.3,-509.62 1397,-489.5 1429.99,-467.15 1449.51,-421.17 1456.76,-401.16"/>
<polygon fill="#9a32cd" stroke="#9a32cd" points="1294.95,-516.68 1285.22,-520.88 1295.44,-523.67 1294.95,-516.68"/>
<text text-anchor="middle" x="1353" y="-521.5" font-family="Helvetica,sans-Serif" font-size="10.00"> arc_file</text>
</g>
<!-- Node8&#45;&gt;Node1 -->
<g id="edge8" class="edge">
<title>Node8&#45;&gt;Node1</title>
<path fill="none" stroke="#9a32cd" stroke-dasharray="5,2" d="M733.95,-304.67C825.65,-302.51 1008.79,-301.05 1163,-317.5 1268.31,-328.73 1296.16,-330.12 1397,-362.5 1412.82,-367.58 1429.89,-375.61 1442.27,-381.93"/>
<polygon fill="#9a32cd" stroke="#9a32cd" points="733.67,-301.18 723.76,-304.92 733.85,-308.17 733.67,-301.18"/>
<text text-anchor="middle" x="1114" y="-320.5" font-family="Helvetica,sans-Serif" font-size="10.00"> prod2</text>
</g>
<!-- Node9 -->
<g id="node9" class="node">
<title>Node9</title>
<g id="a_node9"><a xlink:href="structadiar_1_1statistics_1_1____random__access__base.html" target="_top" xlink:title="Common statistics for algorithms using random access.">
<polygon fill="none" stroke="black" points="357.5,-265.5 357.5,-295.5 488.5,-295.5 488.5,-265.5 357.5,-265.5"/>
<text text-anchor="start" x="365.5" y="-283.5" font-family="Helvetica,sans-Serif" font-size="10.00">adiar::statistics::</text>
<text text-anchor="middle" x="423" y="-272.5" font-family="Helvetica,sans-Serif" font-size="10.00">__random_access_base</text>
</a>
</g>
</g>
<!-- Node9&#45;&gt;Node8 -->
<g id="edge10" class="edge">
<title>Node9&#45;&gt;Node8</title>
<path fill="none" stroke="#9a32cd" stroke-dasharray="5,2" d="M498.55,-288.27C539.62,-292.55 589.41,-297.74 625.35,-301.48"/>
<polygon fill="#9a32cd" stroke="#9a32cd" points="498.89,-284.78 488.58,-287.23 498.16,-291.75 498.89,-284.78"/>
<text text-anchor="middle" x="550.5" y="-299.5" font-family="Helvetica,sans-Serif" font-size="10.00"> ra</text>
</g>
<!-- Node9&#45;&gt;Node18 -->
<g id="edge23" class="edge">
<title>Node9&#45;&gt;Node18</title>
<path fill="none" stroke="#9a32cd" stroke-dasharray="5,2" d="M461.44,-260.97C477.56,-253.27 496.83,-244.98 515,-239.5 551.17,-228.59 593.46,-221.94 625.25,-218.11"/>
<polygon fill="#9a32cd" stroke="#9a32cd" points="459.81,-257.88 452.36,-265.41 462.88,-264.17 459.81,-257.88"/>
<text text-anchor="middle" x="550.5" y="-242.5" font-family="Helvetica,sans-Serif" font-size="10.00"> ra</text>
</g>
<!-- Node10 -->
<g id="node10" class="node">
<title>Node10</title>
<g id="a_node10"><a xlink:href="structadiar_1_1statistics_1_1____pq2__base.html" target="_top" xlink:title="Common statistics for algorithms using a second priority queue.">
<polygon fill="none" stroke="black" points="374,-203.5 374,-233.5 472,-233.5 472,-203.5 374,-203.5"/>
<text text-anchor="start" x="382" y="-221.5" font-family="Helvetica,sans-Serif" font-size="10.00">adiar::statistics::</text>
<text text-anchor="middle" x="423" y="-210.5" font-family="Helvetica,sans-Serif" font-size="10.00">__pq2_base</text>
</a>
</g>
</g>
<!-- Node10&#45;&gt;Node8 -->
<g id="edge11" class="edge">
<title>Node10&#45;&gt;Node8</title>
<path fill="none" stroke="#9a32cd" stroke-dasharray="5,2" d="M476.08,-236.94C488.8,-241.41 502.38,-246.15 515,-250.5 546.49,-261.36 554.58,-263.45 586,-274.5 601.41,-279.92 618.28,-286.05 633.06,-291.48"/>
<polygon fill="#9a32cd" stroke="#9a32cd" points="477.15,-233.6 466.55,-233.58 474.83,-240.21 477.15,-233.6"/>
<text text-anchor="middle" x="550.5" y="-277.5" font-family="Helvetica,sans-Serif" font-size="10.00"> pq</text>
</g>
<!-- Node10&#45;&gt;Node18 -->
<g id="edge24" class="edge">
<title>Node10&#45;&gt;Node18</title>
<path fill="none" stroke="#9a32cd" stroke-dasharray="5,2" d="M461.23,-199.03C477.31,-191.67 496.62,-184.18 515,-180.5 545.94,-174.3 554.96,-174.84 586,-180.5 605.17,-183.99 625.59,-191.46 641.88,-198.41"/>
<polygon fill="#9a32cd" stroke="#9a32cd" points="459.71,-195.88 452.17,-203.32 462.71,-202.2 459.71,-195.88"/>
<text text-anchor="middle" x="550.5" y="-183.5" font-family="Helvetica,sans-Serif" font-size="10.00"> pq</text>
</g>
<!-- Node11 -->
<g id="node11" class="node">
<title>Node11</title>
<g id="a_node11"><a xlink:href="structadiar_1_1statistics_1_1nested__sweeping__t.html" target="_top" xlink:title="Nested Sweeping statistics.">
<polygon fill="none" stroke="black" points="1181,-655.5 1181,-685.5 1291,-685.5 1291,-655.5 1181,-655.5"/>
<text text-anchor="start" x="1189" y="-673.5" font-family="Helvetica,sans-Serif" font-size="10.00">adiar::statistics::</text>
<text text-anchor="middle" x="1236" y="-662.5" font-family="Helvetica,sans-Serif" font-size="10.00">nested_sweeping_t</text>
</a>
</g>
</g>
<!-- Node11&#45;&gt;Node1 -->
<g id="edge12" class="edge">
<title>Node11&#45;&gt;Node1</title>
<path fill="none" stroke="#9a32cd" stroke-dasharray="5,2" d="M1301.03,-663.22C1333.84,-656.3 1372.04,-642.81 1397,-616.5 1457.59,-552.64 1460.73,-435.38 1460.28,-401.13"/>
<polygon fill="#9a32cd" stroke="#9a32cd" points="1300.18,-659.82 1291.04,-665.16 1301.52,-666.69 1300.18,-659.82"/>
<text text-anchor="middle" x="1353" y="-663.5" font-family="Helvetica,sans-Serif" font-size="10.00"> nested_sweeping</text>
</g>
<!-- Node12 -->
<g id="node12" class="node">
<title>Node12</title>
<g id="a_node12"><a xlink:href="structadiar_1_1statistics_1_1nested__sweeping__t_1_1outer__up__t.html" target="_top" xlink:title="Outer Reduce Sweep.">
<polygon fill="none" stroke="black" points="879,-631.5 879,-661.5 1047,-661.5 1047,-631.5 879,-631.5"/>
<text text-anchor="start" x="887" y="-649.5" font-family="Helvetica,sans-Serif" font-size="10.00">adiar::statistics::</text>
<text text-anchor="middle" x="963" y="-638.5" font-family="Helvetica,sans-Serif" font-size="10.00">nested_sweeping_t::outer_up_t</text>
</a>
</g>
</g>
<!-- Node12&#45;&gt;Node11 -->
<g id="edge13" class="edge">
<title>Node12&#45;&gt;Node11</title>
<path fill="none" stroke="#9a32cd" stroke-dasharray="5,2" d="M1057.63,-650.12C1090.96,-651.94 1128.72,-654.62 1163,-658.5 1168.79,-659.16 1174.83,-659.96 1180.83,-660.85"/>
<polygon fill="#9a32cd" stroke="#9a32cd" points="1057.61,-646.61 1047.44,-649.58 1057.24,-653.6 1057.61,-646.61"/>
<text text-anchor="middle" x="1114" y="-661.5" font-family="Helvetica,sans-Serif" font-size="10.00"> outer_up</text>
</g>
<!-- Node13&#45;&gt;Node1 -->
<g id="edge28" class="edge">
<title>Node13&#45;&gt;Node1</title>
<path fill="none" stroke="#9a32cd" stroke-dasharray="5,2" d="M733.9,-622.46C896.33,-616.29 1344.96,-595.76 1397,-555.5 1447.91,-516.12 1457.69,-430.25 1459.56,-401.27"/>
<polygon fill="#9a32cd" stroke="#9a32cd" points="733.49,-618.97 723.62,-622.84 733.75,-625.97 733.49,-618.97"/>
<text text-anchor="middle" x="1114" y="-607.5" font-family="Helvetica,sans-Serif" font-size="10.00"> reduce</text>
</g>
<!-- Node13&#45;&gt;Node12 -->
<g id="edge14" class="edge">
<title>Node13&#45;&gt;Node12</title>
<path fill="none" stroke="midnightblue" d="M733.79,-628.98C775.57,-632.18 832.44,-636.55 878.96,-640.12"/>
<polygon fill="midnightblue" stroke="midnightblue" points="734.02,-625.48 723.78,-628.21 733.48,-632.46 734.02,-625.48"/>
</g>
<!-- Node14 -->
<g id="node14" class="node">
<title>Node14</title>
<g id="a_node14"><a xlink:href="structadiar_1_1statistics_1_1nested__sweeping__t_1_1inner__up__t.html" target="_top" xlink:title="Inner Up Sweep(s)">
<polygon fill="none" stroke="black" points="879.5,-680.5 879.5,-710.5 1046.5,-710.5 1046.5,-680.5 879.5,-680.5"/>
<text text-anchor="start" x="887.5" y="-698.5" font-family="Helvetica,sans-Serif" font-size="10.00">adiar::statistics::</text>
<text text-anchor="middle" x="963" y="-687.5" font-family="Helvetica,sans-Serif" font-size="10.00">nested_sweeping_t::inner_up_t</text>
</a>
</g>
</g>
<!-- Node13&#45;&gt;Node14 -->
<g id="edge17" class="edge">
<title>Node13&#45;&gt;Node14</title>
<path fill="none" stroke="midnightblue" d="M733.31,-640.67C743.2,-643.35 753.38,-646.05 763,-648.5 807.03,-659.73 856.78,-671.48 895.52,-680.43"/>
<polygon fill="midnightblue" stroke="midnightblue" points="734.13,-637.26 723.56,-638.01 732.29,-644.02 734.13,-637.26"/>
</g>
<!-- Node14&#45;&gt;Node11 -->
<g id="edge16" class="edge">
<title>Node14&#45;&gt;Node11</title>
<path fill="none" stroke="#9a32cd" stroke-dasharray="5,2" d="M1056.88,-686.93C1098.24,-683.12 1145.49,-678.76 1180.93,-675.49"/>
<polygon fill="#9a32cd" stroke="#9a32cd" points="1056.42,-683.46 1046.78,-687.86 1057.06,-690.43 1056.42,-683.46"/>
<text text-anchor="middle" x="1114" y="-688.5" font-family="Helvetica,sans-Serif" font-size="10.00"> inner_up</text>
</g>
<!-- Node15 -->
<g id="node15" class="node">
<title>Node15</title>
<g id="a_node15"><a xlink:href="structadiar_1_1statistics_1_1nested__sweeping__t_1_1inner__down__t.html" target="_top" xlink:title="Root Requests generated for Inner Down Sweep.">
<polygon fill="none" stroke="black" points="892.5,-730 892.5,-771 1033.5,-771 1033.5,-730 892.5,-730"/>
<text text-anchor="start" x="900.5" y="-759" font-family="Helvetica,sans-Serif" font-size="10.00">adiar::statistics::</text>
<text text-anchor="start" x="900.5" y="-748" font-family="Helvetica,sans-Serif" font-size="10.00">nested_sweeping_t::inner</text>
<text text-anchor="middle" x="963" y="-737" font-family="Helvetica,sans-Serif" font-size="10.00">_down_t</text>
</a>
</g>
</g>
<!-- Node15&#45;&gt;Node11 -->
<g id="edge18" class="edge">
<title>Node15&#45;&gt;Node11</title>
<path fill="none" stroke="#9a32cd" stroke-dasharray="5,2" d="M1043.94,-733.28C1080.58,-724.66 1124.37,-713.32 1163,-700.5 1175.85,-696.23 1189.65,-690.72 1201.69,-685.59"/>
<polygon fill="#9a32cd" stroke="#9a32cd" points="1042.74,-729.96 1033.8,-735.64 1044.33,-736.78 1042.74,-729.96"/>
<text text-anchor="middle" x="1114" y="-730.5" font-family="Helvetica,sans-Serif" font-size="10.00"> inner_down</text>
</g>
<!-- Node16 -->
<g id="node16" class="node">
<title>Node16</title>
<g id="a_node16"><a xlink:href="structadiar_1_1statistics_1_1nested__sweeping__t_1_1inner__down__t_1_1inputs__t.html" target="_top" xlink:title=" ">
<polygon fill="none" stroke="black" points="604,-738 604,-779 745,-779 745,-738 604,-738"/>
<text text-anchor="start" x="612" y="-767" font-family="Helvetica,sans-Serif" font-size="10.00">adiar::statistics::</text>
<text text-anchor="start" x="612" y="-756" font-family="Helvetica,sans-Serif" font-size="10.00">nested_sweeping_t::inner</text>
<text text-anchor="middle" x="674.5" y="-745" font-family="Helvetica,sans-Serif" font-size="10.00">_down_t::inputs_t</text>
</a>
</g>
</g>
<!-- Node16&#45;&gt;Node15 -->
<g id="edge19" class="edge">
<title>Node16&#45;&gt;Node15</title>
<path fill="none" stroke="#9a32cd" stroke-dasharray="5,2" d="M755.38,-756.27C798.45,-755.07 851.1,-753.6 892.46,-752.44"/>
<polygon fill="#9a32cd" stroke="#9a32cd" points="755.12,-752.78 745.22,-756.55 755.31,-759.77 755.12,-752.78"/>
<text text-anchor="middle" x="812" y="-758.5" font-family="Helvetica,sans-Serif" font-size="10.00"> inputs</text>
</g>
<!-- Node17 -->
<g id="node17" class="node">
<title>Node17</title>
<g id="a_node17"><a xlink:href="structadiar_1_1statistics_1_1nested__sweeping__t_1_1inner__down__t_1_1requests__t.html" target="_top" xlink:title=" ">
<polygon fill="none" stroke="black" points="604,-678 604,-719 745,-719 745,-678 604,-678"/>
<text text-anchor="start" x="612" y="-707" font-family="Helvetica,sans-Serif" font-size="10.00">adiar::statistics::</text>
<text text-anchor="start" x="612" y="-696" font-family="Helvetica,sans-Serif" font-size="10.00">nested_sweeping_t::inner</text>
<text text-anchor="middle" x="674.5" y="-685" font-family="Helvetica,sans-Serif" font-size="10.00">_down_t::requests_t</text>
</a>
</g>
</g>
<!-- Node17&#45;&gt;Node15 -->
<g id="edge20" class="edge">
<title>Node17&#45;&gt;Node15</title>
<path fill="none" stroke="#9a32cd" stroke-dasharray="5,2" d="M755.11,-712.95C798.23,-720.78 851.01,-730.36 892.46,-737.88"/>
<polygon fill="#9a32cd" stroke="#9a32cd" points="755.68,-709.5 745.22,-711.15 754.43,-716.38 755.68,-709.5"/>
<text text-anchor="middle" x="812" y="-733.5" font-family="Helvetica,sans-Serif" font-size="10.00"> requests</text>
</g>
<!-- Node18&#45;&gt;Node1 -->
<g id="edge21" class="edge">
<title>Node18&#45;&gt;Node1</title>
<path fill="none" stroke="#9a32cd" stroke-dasharray="5,2" d="M733.98,-222.8C843.42,-240.28 1086.55,-279.4 1291,-314.5 1338.17,-322.6 1354.13,-312.22 1397,-333.5 1420.7,-345.27 1441.9,-368.71 1452.62,-381.9"/>
<polygon fill="#9a32cd" stroke="#9a32cd" points="734.24,-219.3 723.82,-221.18 733.14,-226.21 734.24,-219.3"/>
<text text-anchor="middle" x="1114" y="-295.5" font-family="Helvetica,sans-Serif" font-size="10.00"> quantify</text>
</g>
<!-- Node19 -->
<g id="node19" class="node">
<title>Node19</title>
<g id="a_node19"><a xlink:href="structadiar_1_1statistics_1_1quantify__t_1_1nested__policy__t.html" target="_top" xlink:title="Nested multi&#45;variable sweeping.">
<polygon fill="none" stroke="black" points="349,-141.5 349,-171.5 497,-171.5 497,-141.5 349,-141.5"/>
<text text-anchor="start" x="357" y="-159.5" font-family="Helvetica,sans-Serif" font-size="10.00">adiar::statistics::</text>
<text text-anchor="middle" x="423" y="-148.5" font-family="Helvetica,sans-Serif" font-size="10.00">quantify_t::nested_policy_t</text>
</a>
</g>
</g>
<!-- Node19&#45;&gt;Node18 -->
<g id="edge25" class="edge">
<title>Node19&#45;&gt;Node18</title>
<path fill="none" stroke="#9a32cd" stroke-dasharray="5,2" d="M507.46,-151.11C533.08,-151.56 561.08,-154.24 586,-161.5 611.79,-169.01 637.8,-185.94 654.68,-198.45"/>
<polygon fill="#9a32cd" stroke="#9a32cd" points="507.42,-147.61 497.39,-151.04 507.37,-154.61 507.42,-147.61"/>
<text text-anchor="middle" x="550.5" y="-164.5" font-family="Helvetica,sans-Serif" font-size="10.00"> nested_policy</text>
</g>
<!-- Node20&#45;&gt;Node1 -->
<g id="edge26" class="edge">
<title>Node20&#45;&gt;Node1</title>
<path fill="none" stroke="#9a32cd" stroke-dasharray="5,2" d="M871.55,-553.4C1011.21,-557.4 1355.41,-564.01 1397,-533.5 1442.23,-500.32 1455.55,-427.31 1458.96,-401.1"/>
<polygon fill="#9a32cd" stroke="#9a32cd" points="871.55,-549.9 861.45,-553.1 871.35,-556.89 871.55,-549.9"/>
<text text-anchor="middle" x="1114" y="-559.5" font-family="Helvetica,sans-Serif" font-size="10.00"> prod3</text>
</g>
<!-- Node21&#45;&gt;Node1 -->
<g id="edge29" class="edge">
<title>Node21&#45;&gt;Node1</title>
<path fill="none" stroke="#9a32cd" stroke-dasharray="5,2" d="M1173.46,-478.37C1232.26,-479.12 1324.37,-474.34 1397,-443.5 1419.71,-433.86 1440.66,-413.3 1451.74,-401.12"/>
<polygon fill="#9a32cd" stroke="#9a32cd" points="1173.31,-474.87 1163.24,-478.18 1173.18,-481.87 1173.31,-474.87"/>
<text text-anchor="middle" x="1236" y="-480.5" font-family="Helvetica,sans-Serif" font-size="10.00"> optmin</text>
</g>
<!-- Node22&#45;&gt;Node1 -->
<g id="edge31" class="edge">
<title>Node22&#45;&gt;Node1</title>
<path fill="none" stroke="#9a32cd" stroke-dasharray="5,2" d="M733.83,-61.59C896.57,-59.58 1347.02,-57.97 1397,-100.5 1441.38,-138.27 1456.46,-335.29 1459.42,-381.7"/>
<polygon fill="#9a32cd" stroke="#9a32cd" points="733.48,-58.09 723.53,-61.72 733.57,-65.09 733.48,-58.09"/>
<text text-anchor="middle" x="1114" y="-70.5" font-family="Helvetica,sans-Serif" font-size="10.00"> equality</text>
</g>
<!-- Node23 -->
<g id="node23" class="node">
<title>Node23</title>
<g id="a_node23"><a xlink:href="structadiar_1_1statistics_1_1equality__t_1_1fast__t.html" target="_top" xlink:title="Statistics from O(N) linear&#45;scan equality checking algorithm.">
<polygon fill="none" stroke="black" points="373.5,-49.5 373.5,-79.5 472.5,-79.5 472.5,-49.5 373.5,-49.5"/>
<text text-anchor="start" x="381.5" y="-67.5" font-family="Helvetica,sans-Serif" font-size="10.00">adiar::statistics::</text>
<text text-anchor="middle" x="423" y="-56.5" font-family="Helvetica,sans-Serif" font-size="10.00">equality_t::fast_t</text>
</a>
</g>
</g>
<!-- Node23&#45;&gt;Node22 -->
<g id="edge33" class="edge">
<title>Node23&#45;&gt;Node22</title>
<path fill="none" stroke="#9a32cd" stroke-dasharray="5,2" d="M482.84,-64.03C526.28,-63.68 584.68,-63.21 625.35,-62.89"/>
<polygon fill="#9a32cd" stroke="#9a32cd" points="482.67,-60.53 472.7,-64.11 482.73,-67.53 482.67,-60.53"/>
<text text-anchor="middle" x="550.5" y="-67.5" font-family="Helvetica,sans-Serif" font-size="10.00"> fast_check</text>
</g>
<!-- Node24 -->
<g id="node24" class="node">
<title>Node24</title>
<g id="a_node24"><a xlink:href="structadiar_1_1statistics_1_1equality__t_1_1slow__t.html" target="_top" xlink:title="Statistics from O(N log N) time&#45;forward processing equality checking algorithm.">
<polygon fill="none" stroke="black" points="371.5,-0.5 371.5,-30.5 474.5,-30.5 474.5,-0.5 371.5,-0.5"/>
<text text-anchor="start" x="379.5" y="-18.5" font-family="Helvetica,sans-Serif" font-size="10.00">adiar::statistics::</text>
<text text-anchor="middle" x="423" y="-7.5" font-family="Helvetica,sans-Serif" font-size="10.00">equality_t::slow_t</text>
</a>
</g>
</g>
<!-- Node24&#45;&gt;Node22 -->
<g id="edge34" class="edge">
<title>Node24&#45;&gt;Node22</title>
<path fill="none" stroke="#9a32cd" stroke-dasharray="5,2" d="M484.62,-26.92C527.86,-35.06 585.2,-45.87 625.32,-53.42"/>
<polygon fill="#9a32cd" stroke="#9a32cd" points="485.27,-23.48 474.79,-25.07 483.97,-30.36 485.27,-23.48"/>
<text text-anchor="middle" x="550.5" y="-49.5" font-family="Helvetica,sans-Serif" font-size="10.00"> slow_check</text>
</g>
<!-- Node25&#45;&gt;Node1 -->
<g id="edge35" class="edge">
<title>Node25&#45;&gt;Node1</title>
<path fill="none" stroke="#9a32cd" stroke-dasharray="5,2" d="M871.44,-433.99C976.93,-434.14 1205.93,-431.12 1397,-405.5 1405.11,-404.41 1413.71,-402.81 1421.87,-401.07"/>
<polygon fill="#9a32cd" stroke="#9a32cd" points="871.33,-430.49 861.32,-433.96 871.31,-437.49 871.33,-430.49"/>
<text text-anchor="middle" x="1114" y="-433.5" font-family="Helvetica,sans-Serif" font-size="10.00"> count</text>
</g>
<!-- Node26 -->
<g id="node26" class="node">
<title>Node26</title>
<g id="a_node26"><a xlink:href="structadiar_1_1statistics_1_1node__file__t.html" target="_top" xlink:title="Node Files statistics.">
<polygon fill="none" stroke="black" points="1187,-17.5 1187,-47.5 1285,-47.5 1285,-17.5 1187,-17.5"/>
<text text-anchor="start" x="1195" y="-35.5" font-family="Helvetica,sans-Serif" font-size="10.00">adiar::statistics::</text>
<text text-anchor="middle" x="1236" y="-24.5" font-family="Helvetica,sans-Serif" font-size="10.00">node_file_t</text>
</a>
</g>
</g>
<!-- Node26&#45;&gt;Node1 -->
<g id="edge38" class="edge">
<title>Node26&#45;&gt;Node1</title>
<path fill="none" stroke="#9a32cd" stroke-dasharray="5,2" d="M1295.45,-23.73C1329.3,-22.09 1370.36,-26.54 1397,-51.5 1446.94,-98.29 1457.9,-331.43 1459.7,-381.87"/>
<polygon fill="#9a32cd" stroke="#9a32cd" points="1294.94,-20.25 1285.2,-24.41 1295.41,-27.24 1294.94,-20.25"/>
<text text-anchor="middle" x="1353" y="-54.5" font-family="Helvetica,sans-Serif" font-size="10.00"> node_file</text>
</g>
</g>
</svg>
