<?xml version="1.0" encoding="UTF-8" standalone="no"?>
<!DOCTYPE svg PUBLIC "-//W3C//DTD SVG 1.1//EN"
 "http://www.w3.org/Graphics/SVG/1.1/DTD/svg11.dtd">
<!-- Generated by graphviz version 2.43.0 (0)
 -->
<!-- Title: adiar::statistics::quantify_t Pages: 1 -->
<svg width="710pt" height="186pt"
 viewBox="0.00 0.00 710.00 186.00" xmlns="http://www.w3.org/2000/svg" xmlns:xlink="http://www.w3.org/1999/xlink">
<g id="graph0" class="graph" transform="scale(1 1) rotate(0) translate(4 182)">
<title>adiar::statistics::quantify_t</title>
<!-- Node1 -->
<g id="node1" class="node">
<title>Node1</title>
<g id="a_node1"><a xlink:title="Quantification algorithm statistics.">
<polygon fill="#bfbfbf" stroke="black" points="604,-73.5 604,-103.5 702,-103.5 702,-73.5 604,-73.5"/>
<text text-anchor="start" x="612" y="-91.5" font-family="Helvetica,sans-Serif" font-size="10.00">adiar::statistics::</text>
<text text-anchor="middle" x="653" y="-80.5" font-family="Helvetica,sans-Serif" font-size="10.00">quantify_t</text>
</a>
</g>
</g>
<!-- Node2 -->
<g id="node2" class="node">
<title>Node2</title>
<g id="a_node2"><a xlink:href="structadiar_1_1statistics_1_1____alg__base.html" target="_top" xlink:title="Common statistics for all algorithms.">
<polygon fill="none" stroke="black" points="374,-147.5 374,-177.5 472,-177.5 472,-147.5 374,-147.5"/>
<text text-anchor="start" x="382" y="-165.5" font-family="Helvetica,sans-Serif" font-size="10.00">adiar::statistics::</text>
<text text-anchor="middle" x="423" y="-154.5" font-family="Helvetica,sans-Serif" font-size="10.00">__alg_base</text>
</a>
</g>
</g>
<!-- Node2&#45;&gt;Node1 -->
<g id="edge1" class="edge">
<title>Node2&#45;&gt;Node1</title>
<path fill="none" stroke="midnightblue" d="M481.97,-149.17C513.17,-141.39 552.11,-130.72 586,-118.5 597.84,-114.23 610.5,-108.72 621.54,-103.59"/>
<polygon fill="midnightblue" stroke="midnightblue" points="481,-145.8 472.12,-151.59 482.67,-152.6 481,-145.8"/>
</g>
<!-- Node3 -->
<g id="node3" class="node">
<title>Node3</title>
<g id="a_node3"><a xlink:href="structadiar_1_1statistics_1_1____alg__base_1_1____lpq__t.html" target="_top" xlink:title="Type and usage of this algorithm&#39;s levelized priority queue.">
<polygon fill="none" stroke="black" points="183,-147.5 183,-177.5 294,-177.5 294,-147.5 183,-147.5"/>
<text text-anchor="start" x="191" y="-165.5" font-family="Helvetica,sans-Serif" font-size="10.00">adiar::statistics::</text>
<text text-anchor="middle" x="238.5" y="-154.5" font-family="Helvetica,sans-Serif" font-size="10.00">__alg_base::__lpq_t</text>
</a>
</g>
</g>
<!-- Node3&#45;&gt;Node2 -->
<g id="edge2" class="edge">
<title>Node3&#45;&gt;Node2</title>
<path fill="none" stroke="#9a32cd" stroke-dasharray="5,2" d="M304.55,-162.5C327.38,-162.5 352.59,-162.5 373.79,-162.5"/>
<polygon fill="#9a32cd" stroke="#9a32cd" points="304.26,-159 294.26,-162.5 304.26,-166 304.26,-159"/>
<text text-anchor="middle" x="321.5" y="-165.5" font-family="Helvetica,sans-Serif" font-size="10.00"> lpq</text>
</g>
<!-- Node4 -->
<g id="node4" class="node">
<title>Node4</title>
<g id="a_node4"><a xlink:href="structadiar_1_1statistics_1_1levelized__priority__queue__t.html" target="_top" xlink:title="Levelized Priority Queue statistics.">
<polygon fill="none" stroke="black" points="0,-147.5 0,-177.5 146,-177.5 146,-147.5 0,-147.5"/>
<text text-anchor="start" x="8" y="-165.5" font-family="Helvetica,sans-Serif" font-size="10.00">adiar::statistics::</text>
<text text-anchor="middle" x="73" y="-154.5" font-family="Helvetica,sans-Serif" font-size="10.00">levelized_priority_queue_t</text>
</a>
</g>
</g>
<!-- Node4&#45;&gt;Node3 -->
<g id="edge3" class="edge">
<title>Node4&#45;&gt;Node3</title>
<path fill="none" stroke="midnightblue" d="M156.34,-162.5C165.34,-162.5 174.34,-162.5 182.89,-162.5"/>
<polygon fill="midnightblue" stroke="midnightblue" points="156.19,-159 146.19,-162.5 156.19,-166 156.19,-159"/>
</g>
<!-- Node5 -->
<g id="node5" class="node">
<title>Node5</title>
<g id="a_node5"><a xlink:href="structadiar_1_1statistics_1_1____random__access__base.html" target="_top" xlink:title="Common statistics for algorithms using random access.">
<polygon fill="none" stroke="black" points="357.5,-98.5 357.5,-128.5 488.5,-128.5 488.5,-98.5 357.5,-98.5"/>
<text text-anchor="start" x="365.5" y="-116.5" font-family="Helvetica,sans-Serif" font-size="10.00">adiar::statistics::</text>
<text text-anchor="middle" x="423" y="-105.5" font-family="Helvetica,sans-Serif" font-size="10.00">__random_access_base</text>
</a>
</g>
</g>
<!-- Node5&#45;&gt;Node1 -->
<g id="edge4" class="edge">
<title>Node5&#45;&gt;Node1</title>
<path fill="none" stroke="#9a32cd" stroke-dasharray="5,2" d="M498.78,-105.3C533.32,-101.51 573.32,-97.13 603.8,-93.79"/>
<polygon fill="#9a32cd" stroke="#9a32cd" points="498.28,-101.83 488.73,-106.4 499.05,-108.79 498.28,-101.83"/>
<text text-anchor="middle" x="550.5" y="-106.5" font-family="Helvetica,sans-Serif" font-size="10.00"> ra</text>
</g>
<!-- Node6 -->
<g id="node6" class="node">
<title>Node6</title>
<g id="a_node6"><a xlink:href="structadiar_1_1statistics_1_1____pq2__base.html" target="_top" xlink:title="Common statistics for algorithms using a second priority queue.">
<polygon fill="none" stroke="black" points="374,-49.5 374,-79.5 472,-79.5 472,-49.5 374,-49.5"/>
<text text-anchor="start" x="382" y="-67.5" font-family="Helvetica,sans-Serif" font-size="10.00">adiar::statistics::</text>
<text text-anchor="middle" x="423" y="-56.5" font-family="Helvetica,sans-Serif" font-size="10.00">__pq2_base</text>
</a>
</g>
</g>
<!-- Node6&#45;&gt;Node1 -->
<g id="edge5" class="edge">
<title>Node6&#45;&gt;Node1</title>
<path fill="none" stroke="#9a32cd" stroke-dasharray="5,2" d="M482.38,-69.95C513.21,-72.91 551.67,-76.73 586,-80.5 591.74,-81.13 597.75,-81.82 603.71,-82.52"/>
<polygon fill="#9a32cd" stroke="#9a32cd" points="482.52,-66.45 472.23,-68.98 481.85,-73.42 482.52,-66.45"/>
<text text-anchor="middle" x="550.5" y="-83.5" font-family="Helvetica,sans-Serif" font-size="10.00"> pq</text>
</g>
<!-- Node7 -->
<g id="node7" class="node">
<title>Node7</title>
<g id="a_node7"><a xlink:href="structadiar_1_1statistics_1_1quantify__t_1_1nested__policy__t.html" target="_top" xlink:title="Nested multi&#45;variable sweeping.">
<polygon fill="none" stroke="black" points="349,-0.5 349,-30.5 497,-30.5 497,-0.5 349,-0.5"/>
<text text-anchor="start" x="357" y="-18.5" font-family="Helvetica,sans-Serif" font-size="10.00">adiar::statistics::</text>
<text text-anchor="middle" x="423" y="-7.5" font-family="Helvetica,sans-Serif" font-size="10.00">quantify_t::nested_policy_t</text>
</a>
</g>
</g>
<!-- Node7&#45;&gt;Node1 -->
<g id="edge6" class="edge">
<title>Node7&#45;&gt;Node1</title>
<path fill="none" stroke="#9a32cd" stroke-dasharray="5,2" d="M497.84,-33.08C525.75,-40.37 557.61,-49.47 586,-59.5 597.33,-63.5 609.44,-68.58 620.16,-73.37"/>
<polygon fill="#9a32cd" stroke="#9a32cd" points="498.7,-29.69 488.15,-30.58 496.96,-36.47 498.7,-29.69"/>
<text text-anchor="middle" x="550.5" y="-62.5" font-family="Helvetica,sans-Serif" font-size="10.00"> nested_policy</text>
</g>
</g>
</svg>
