<?xml version="1.0" encoding="UTF-8" standalone="no"?>
<!DOCTYPE svg PUBLIC "-//W3C//DTD SVG 1.1//EN"
 "http://www.w3.org/Graphics/SVG/1.1/DTD/svg11.dtd">
<!-- Generated by graphviz version 2.43.0 (0)
 -->
<!-- Title: adiar::stats_t::nested_sweeping_t::inner_t Pages: 1 -->
<svg width="849pt" height="100pt"
 viewBox="0.00 0.00 849.00 99.50" xmlns="http://www.w3.org/2000/svg" xmlns:xlink="http://www.w3.org/1999/xlink">
<g id="graph0" class="graph" transform="scale(1 1) rotate(0) translate(4 95.5)">
<title>adiar::stats_t::nested_sweeping_t::inner_t</title>
<!-- Node1 -->
<g id="node1" class="node">
<title>Node1</title>
<g id="a_node1"><a xlink:title="Inner Sweep(s)">
<polygon fill="#bfbfbf" stroke="black" points="722,-33 722,-63 841,-63 841,-33 722,-33"/>
<text text-anchor="start" x="730" y="-51" font-family="Helvetica,sans-Serif" font-size="10.00">adiar::stats_t::nested</text>
<text text-anchor="middle" x="781.5" y="-40" font-family="Helvetica,sans-Serif" font-size="10.00">_sweeping_t::inner_t</text>
</a>
</g>
</g>
<!-- Node2 -->
<g id="node2" class="node">
<title>Node2</title>
<g id="a_node2"><a xlink:href="structadiar_1_1stats__t_1_1nested__sweeping__t_1_1inner__t_1_1up__t.html" target="_top" xlink:title="Inner Up Sweep.">
<polygon fill="none" stroke="black" points="512,-61 512,-91 656,-91 656,-61 512,-61"/>
<text text-anchor="start" x="520" y="-79" font-family="Helvetica,sans-Serif" font-size="10.00">adiar::stats_t::nested</text>
<text text-anchor="middle" x="584" y="-68" font-family="Helvetica,sans-Serif" font-size="10.00">_sweeping_t::inner_t::up_t</text>
</a>
</g>
</g>
<!-- Node2&#45;&gt;Node1 -->
<g id="edge1" class="edge">
<title>Node2&#45;&gt;Node1</title>
<path fill="none" stroke="#9a32cd" stroke-dasharray="5,2" d="M666.13,-64.38C684.84,-61.7 704.4,-58.9 721.94,-56.39"/>
<polygon fill="#9a32cd" stroke="#9a32cd" points="665.54,-60.93 656.13,-65.81 666.53,-67.86 665.54,-60.93"/>
<text text-anchor="middle" x="689" y="-66" font-family="Helvetica,sans-Serif" font-size="10.00"> up</text>
</g>
<!-- Node3 -->
<g id="node3" class="node">
<title>Node3</title>
<g id="a_node3"><a xlink:href="structadiar_1_1stats__t_1_1____alg__base.html" target="_top" xlink:title="Common statistics for all algorithms.">
<polygon fill="none" stroke="black" points="335,-38.5 335,-57.5 475,-57.5 475,-38.5 335,-38.5"/>
<text text-anchor="middle" x="405" y="-45.5" font-family="Helvetica,sans-Serif" font-size="10.00">adiar::stats_t::__alg_base</text>
</a>
</g>
</g>
<!-- Node3&#45;&gt;Node2 -->
<g id="edge2" class="edge">
<title>Node3&#45;&gt;Node2</title>
<path fill="none" stroke="midnightblue" d="M476.51,-59.15C488.15,-60.99 500.22,-62.9 511.87,-64.75"/>
<polygon fill="midnightblue" stroke="midnightblue" points="476.84,-55.66 466.42,-57.56 475.75,-62.58 476.84,-55.66"/>
</g>
<!-- Node6 -->
<g id="node6" class="node">
<title>Node6</title>
<g id="a_node6"><a xlink:href="structadiar_1_1stats__t_1_1nested__sweeping__t_1_1inner__t_1_1down__t.html" target="_top" xlink:title="Inner Down Sweep.">
<polygon fill="none" stroke="black" points="522.5,-0.5 522.5,-41.5 645.5,-41.5 645.5,-0.5 522.5,-0.5"/>
<text text-anchor="start" x="530.5" y="-29.5" font-family="Helvetica,sans-Serif" font-size="10.00">adiar::stats_t::nested</text>
<text text-anchor="start" x="530.5" y="-18.5" font-family="Helvetica,sans-Serif" font-size="10.00">_sweeping_t::inner_t::</text>
<text text-anchor="middle" x="584" y="-7.5" font-family="Helvetica,sans-Serif" font-size="10.00">down_t</text>
</a>
</g>
</g>
<!-- Node3&#45;&gt;Node6 -->
<g id="edge6" class="edge">
<title>Node3&#45;&gt;Node6</title>
<path fill="none" stroke="midnightblue" d="M478.39,-36.96C493,-34.73 508.2,-32.41 522.35,-30.25"/>
<polygon fill="midnightblue" stroke="midnightblue" points="477.76,-33.51 468.4,-38.48 478.82,-40.43 477.76,-33.51"/>
</g>
<!-- Node4 -->
<g id="node4" class="node">
<title>Node4</title>
<g id="a_node4"><a xlink:href="structadiar_1_1stats__t_1_1____alg__base_1_1____lpq.html" target="_top" xlink:title="Type and usage of this algorithm&#39;s levelized priority queue.">
<polygon fill="none" stroke="black" points="168,-33 168,-63 280,-63 280,-33 168,-33"/>
<text text-anchor="start" x="176" y="-51" font-family="Helvetica,sans-Serif" font-size="10.00">adiar::stats_t::__alg</text>
<text text-anchor="middle" x="224" y="-40" font-family="Helvetica,sans-Serif" font-size="10.00">_base::__lpq</text>
</a>
</g>
</g>
<!-- Node4&#45;&gt;Node3 -->
<g id="edge3" class="edge">
<title>Node4&#45;&gt;Node3</title>
<path fill="none" stroke="#9a32cd" stroke-dasharray="5,2" d="M290.48,-48C304.9,-48 320.22,-48 334.79,-48"/>
<polygon fill="#9a32cd" stroke="#9a32cd" points="290.17,-44.5 280.17,-48 290.17,-51.5 290.17,-44.5"/>
<text text-anchor="middle" x="307.5" y="-51" font-family="Helvetica,sans-Serif" font-size="10.00"> lpq</text>
</g>
<!-- Node5 -->
<g id="node5" class="node">
<title>Node5</title>
<g id="a_node5"><a xlink:href="structadiar_1_1stats__t_1_1levelized__priority__queue__t.html" target="_top" xlink:title="Levelized Priority Queue statistics.">
<polygon fill="none" stroke="black" points="0,-33 0,-63 131,-63 131,-33 0,-33"/>
<text text-anchor="start" x="8" y="-51" font-family="Helvetica,sans-Serif" font-size="10.00">adiar::stats_t::levelized</text>
<text text-anchor="middle" x="65.5" y="-40" font-family="Helvetica,sans-Serif" font-size="10.00">_priority_queue_t</text>
</a>
</g>
</g>
<!-- Node5&#45;&gt;Node4 -->
<g id="edge4" class="edge">
<title>Node5&#45;&gt;Node4</title>
<path fill="none" stroke="midnightblue" d="M141.08,-48C150,-48 158.99,-48 167.58,-48"/>
<polygon fill="midnightblue" stroke="midnightblue" points="141.06,-44.5 131.06,-48 141.06,-51.5 141.06,-44.5"/>
</g>
<!-- Node6&#45;&gt;Node1 -->
<g id="edge5" class="edge">
<title>Node6&#45;&gt;Node1</title>
<path fill="none" stroke="#9a32cd" stroke-dasharray="5,2" d="M655.82,-30.41C671.68,-32.55 688.42,-34.83 704,-37 709.71,-37.8 715.67,-38.63 721.62,-39.48"/>
<polygon fill="#9a32cd" stroke="#9a32cd" points="655.93,-26.9 645.55,-29.03 655,-33.83 655.93,-26.9"/>
<text text-anchor="middle" x="689" y="-40" font-family="Helvetica,sans-Serif" font-size="10.00"> down</text>
</g>
</g>
</svg>
