<?xml version="1.0" encoding="UTF-8" standalone="no"?>
<!DOCTYPE svg PUBLIC "-//W3C//DTD SVG 1.1//EN"
 "http://www.w3.org/Graphics/SVG/1.1/DTD/svg11.dtd">
<!-- Generated by graphviz version 2.43.0 (0)
 -->
<!-- Title: adiar::statistics::__alg_base Pages: 1 -->
<svg width="283pt" height="503pt"
 viewBox="0.00 0.00 283.00 503.00" xmlns="http://www.w3.org/2000/svg" xmlns:xlink="http://www.w3.org/1999/xlink">
<g id="graph0" class="graph" transform="scale(1 1) rotate(0) translate(4 499)">
<title>adiar::statistics::__alg_base</title>
<!-- Node1 -->
<g id="node1" class="node">
<title>Node1</title>
<g id="a_node1"><a xlink:title="Common statistics for all algorithms.">
<polygon fill="#bfbfbf" stroke="black" points="0,-223.5 0,-253.5 98,-253.5 98,-223.5 0,-223.5"/>
<text text-anchor="start" x="8" y="-241.5" font-family="Helvetica,sans-Serif" font-size="10.00">adiar::statistics::</text>
<text text-anchor="middle" x="49" y="-230.5" font-family="Helvetica,sans-Serif" font-size="10.00">__alg_base</text>
</a>
</g>
</g>
<!-- Node2 -->
<g id="node2" class="node">
<title>Node2</title>
<g id="a_node2"><a xlink:href="structadiar_1_1statistics_1_1count__t.html" target="_top" xlink:title="Counting algorithm statistics.">
<polygon fill="none" stroke="black" points="155.5,-464.5 155.5,-494.5 253.5,-494.5 253.5,-464.5 155.5,-464.5"/>
<text text-anchor="start" x="163.5" y="-482.5" font-family="Helvetica,sans-Serif" font-size="10.00">adiar::statistics::</text>
<text text-anchor="middle" x="204.5" y="-471.5" font-family="Helvetica,sans-Serif" font-size="10.00">count_t</text>
</a>
</g>
</g>
<!-- Node1&#45;&gt;Node2 -->
<g id="edge1" class="edge">
<title>Node1&#45;&gt;Node2</title>
<path fill="none" stroke="midnightblue" d="M52.87,-263.82C59.26,-308.65 78.78,-402.28 134,-455.5 139.97,-461.26 147.4,-465.64 155.14,-468.97"/>
<polygon fill="midnightblue" stroke="midnightblue" points="56.32,-263.23 51.54,-253.78 49.38,-264.15 56.32,-263.23"/>
</g>
<!-- Node3 -->
<g id="node3" class="node">
<title>Node3</title>
<g id="a_node3"><a xlink:href="structadiar_1_1statistics_1_1equality__t.html" target="_top" xlink:title="Equality Checking algorithm statistics.">
<polygon fill="none" stroke="black" points="155.5,-415.5 155.5,-445.5 253.5,-445.5 253.5,-415.5 155.5,-415.5"/>
<text text-anchor="start" x="163.5" y="-433.5" font-family="Helvetica,sans-Serif" font-size="10.00">adiar::statistics::</text>
<text text-anchor="middle" x="204.5" y="-422.5" font-family="Helvetica,sans-Serif" font-size="10.00">equality_t</text>
</a>
</g>
</g>
<!-- Node1&#45;&gt;Node3 -->
<g id="edge2" class="edge">
<title>Node1&#45;&gt;Node3</title>
<path fill="none" stroke="midnightblue" d="M56.11,-263.77C66.21,-300.31 89.81,-367.76 134,-406.5 140.14,-411.89 147.56,-416.08 155.23,-419.34"/>
<polygon fill="midnightblue" stroke="midnightblue" points="59.44,-262.68 53.51,-253.91 52.67,-264.47 59.44,-262.68"/>
</g>
<!-- Node4 -->
<g id="node4" class="node">
<title>Node4</title>
<g id="a_node4"><a xlink:href="structadiar_1_1statistics_1_1intercut__t.html" target="_top" xlink:title="Intercut algorithm statistics.">
<polygon fill="none" stroke="black" points="155.5,-366.5 155.5,-396.5 253.5,-396.5 253.5,-366.5 155.5,-366.5"/>
<text text-anchor="start" x="163.5" y="-384.5" font-family="Helvetica,sans-Serif" font-size="10.00">adiar::statistics::</text>
<text text-anchor="middle" x="204.5" y="-373.5" font-family="Helvetica,sans-Serif" font-size="10.00">intercut_t</text>
</a>
</g>
</g>
<!-- Node1&#45;&gt;Node4 -->
<g id="edge3" class="edge">
<title>Node1&#45;&gt;Node4</title>
<path fill="none" stroke="midnightblue" d="M61.6,-262.81C75.4,-289.33 100.81,-331.33 134,-356.5 140.34,-361.3 147.68,-365.25 155.17,-368.46"/>
<polygon fill="midnightblue" stroke="midnightblue" points="64.68,-261.15 57.05,-253.8 58.43,-264.31 64.68,-261.15"/>
</g>
<!-- Node5 -->
<g id="node5" class="node">
<title>Node5</title>
<g id="a_node5"><a xlink:href="structadiar_1_1statistics_1_1nested__sweeping__t_1_1inner__t_1_1down__t.html" target="_top" xlink:title="Inner Down Sweep.">
<polygon fill="none" stroke="black" points="134,-306 134,-347 275,-347 275,-306 134,-306"/>
<text text-anchor="start" x="142" y="-335" font-family="Helvetica,sans-Serif" font-size="10.00">adiar::statistics::</text>
<text text-anchor="start" x="142" y="-324" font-family="Helvetica,sans-Serif" font-size="10.00">nested_sweeping_t::inner</text>
<text text-anchor="middle" x="204.5" y="-313" font-family="Helvetica,sans-Serif" font-size="10.00">_t::down_t</text>
</a>
</g>
</g>
<!-- Node1&#45;&gt;Node5 -->
<g id="edge4" class="edge">
<title>Node1&#45;&gt;Node5</title>
<path fill="none" stroke="midnightblue" d="M77.98,-259.89C93.91,-271.52 114.51,-285.7 134,-296.5 139.86,-299.75 146.15,-302.89 152.45,-305.85"/>
<polygon fill="midnightblue" stroke="midnightblue" points="79.77,-256.86 69.65,-253.72 75.61,-262.48 79.77,-256.86"/>
</g>
<!-- Node6 -->
<g id="node6" class="node">
<title>Node6</title>
<g id="a_node6"><a xlink:href="structadiar_1_1statistics_1_1nested__sweeping__t_1_1inner__t_1_1up__t.html" target="_top" xlink:title="Inner Up Sweep.">
<polygon fill="none" stroke="black" points="134,-246 134,-287 275,-287 275,-246 134,-246"/>
<text text-anchor="start" x="142" y="-275" font-family="Helvetica,sans-Serif" font-size="10.00">adiar::statistics::</text>
<text text-anchor="start" x="142" y="-264" font-family="Helvetica,sans-Serif" font-size="10.00">nested_sweeping_t::inner</text>
<text text-anchor="middle" x="204.5" y="-253" font-family="Helvetica,sans-Serif" font-size="10.00">_t::up_t</text>
</a>
</g>
</g>
<!-- Node1&#45;&gt;Node6 -->
<g id="edge5" class="edge">
<title>Node1&#45;&gt;Node6</title>
<path fill="none" stroke="midnightblue" d="M108.2,-249.12C116.59,-250.65 125.29,-252.23 133.88,-253.8"/>
<polygon fill="midnightblue" stroke="midnightblue" points="108.61,-245.63 98.15,-247.28 107.36,-252.52 108.61,-245.63"/>
</g>
<!-- Node7 -->
<g id="node7" class="node">
<title>Node7</title>
<g id="a_node7"><a xlink:href="structadiar_1_1statistics_1_1prod2__t.html" target="_top" xlink:title="2&#45;ary Product Construction algorithm statistics.">
<polygon fill="none" stroke="black" points="155.5,-196.5 155.5,-226.5 253.5,-226.5 253.5,-196.5 155.5,-196.5"/>
<text text-anchor="start" x="163.5" y="-214.5" font-family="Helvetica,sans-Serif" font-size="10.00">adiar::statistics::</text>
<text text-anchor="middle" x="204.5" y="-203.5" font-family="Helvetica,sans-Serif" font-size="10.00">prod2_t</text>
</a>
</g>
</g>
<!-- Node1&#45;&gt;Node7 -->
<g id="edge6" class="edge">
<title>Node1&#45;&gt;Node7</title>
<path fill="none" stroke="midnightblue" d="M108.17,-228.27C123.71,-225.54 140.32,-222.61 155.26,-219.99"/>
<polygon fill="midnightblue" stroke="midnightblue" points="107.39,-224.85 98.15,-230.03 108.6,-231.75 107.39,-224.85"/>
</g>
<!-- Node8 -->
<g id="node8" class="node">
<title>Node8</title>
<g id="a_node8"><a xlink:href="structadiar_1_1statistics_1_1prod3__t.html" target="_top" xlink:title="3&#45;ary Product Construction algorithm statistics.">
<polygon fill="none" stroke="black" points="155.5,-147.5 155.5,-177.5 253.5,-177.5 253.5,-147.5 155.5,-147.5"/>
<text text-anchor="start" x="163.5" y="-165.5" font-family="Helvetica,sans-Serif" font-size="10.00">adiar::statistics::</text>
<text text-anchor="middle" x="204.5" y="-154.5" font-family="Helvetica,sans-Serif" font-size="10.00">prod3_t</text>
</a>
</g>
</g>
<!-- Node1&#45;&gt;Node8 -->
<g id="edge7" class="edge">
<title>Node1&#45;&gt;Node8</title>
<path fill="none" stroke="midnightblue" d="M80.8,-217.76C96.34,-207.83 115.72,-196.23 134,-187.5 141.41,-183.96 149.45,-180.63 157.36,-177.63"/>
<polygon fill="midnightblue" stroke="midnightblue" points="78.62,-215 72.13,-223.38 82.43,-220.87 78.62,-215"/>
</g>
<!-- Node9 -->
<g id="node9" class="node">
<title>Node9</title>
<g id="a_node9"><a xlink:href="structadiar_1_1statistics_1_1quantify__t.html" target="_top" xlink:title="Quantification algorithm statistics.">
<polygon fill="none" stroke="black" points="155.5,-98.5 155.5,-128.5 253.5,-128.5 253.5,-98.5 155.5,-98.5"/>
<text text-anchor="start" x="163.5" y="-116.5" font-family="Helvetica,sans-Serif" font-size="10.00">adiar::statistics::</text>
<text text-anchor="middle" x="204.5" y="-105.5" font-family="Helvetica,sans-Serif" font-size="10.00">quantify_t</text>
</a>
</g>
</g>
<!-- Node1&#45;&gt;Node9 -->
<g id="edge8" class="edge">
<title>Node1&#45;&gt;Node9</title>
<path fill="none" stroke="midnightblue" d="M64.53,-214.85C79.44,-192.36 104.57,-159.01 134,-138.5 140.52,-133.95 147.96,-130.14 155.49,-126.98"/>
<polygon fill="midnightblue" stroke="midnightblue" points="61.45,-213.16 58.96,-223.46 67.33,-216.96 61.45,-213.16"/>
</g>
<!-- Node10 -->
<g id="node10" class="node">
<title>Node10</title>
<g id="a_node10"><a xlink:href="structadiar_1_1statistics_1_1reduce__t.html" target="_top" xlink:title="Reduce algorithm statistics.">
<polygon fill="none" stroke="black" points="155.5,-49.5 155.5,-79.5 253.5,-79.5 253.5,-49.5 155.5,-49.5"/>
<text text-anchor="start" x="163.5" y="-67.5" font-family="Helvetica,sans-Serif" font-size="10.00">adiar::statistics::</text>
<text text-anchor="middle" x="204.5" y="-56.5" font-family="Helvetica,sans-Serif" font-size="10.00">reduce_t</text>
</a>
</g>
</g>
<!-- Node1&#45;&gt;Node10 -->
<g id="edge9" class="edge">
<title>Node1&#45;&gt;Node10</title>
<path fill="none" stroke="midnightblue" d="M57.97,-213.29C69.61,-180.38 94.29,-123.04 134,-89.5 140.27,-84.2 147.75,-79.99 155.44,-76.66"/>
<polygon fill="midnightblue" stroke="midnightblue" points="54.56,-212.46 54.65,-223.06 61.18,-214.72 54.56,-212.46"/>
</g>
<!-- Node11 -->
<g id="node11" class="node">
<title>Node11</title>
<g id="a_node11"><a xlink:href="structadiar_1_1statistics_1_1substitute__t.html" target="_top" xlink:title="Substitution algorithm statistics.">
<polygon fill="none" stroke="black" points="155.5,-0.5 155.5,-30.5 253.5,-30.5 253.5,-0.5 155.5,-0.5"/>
<text text-anchor="start" x="163.5" y="-18.5" font-family="Helvetica,sans-Serif" font-size="10.00">adiar::statistics::</text>
<text text-anchor="middle" x="204.5" y="-7.5" font-family="Helvetica,sans-Serif" font-size="10.00">substitute_t</text>
</a>
</g>
</g>
<!-- Node1&#45;&gt;Node11 -->
<g id="edge10" class="edge">
<title>Node1&#45;&gt;Node11</title>
<path fill="none" stroke="midnightblue" d="M53.99,-213.39C61.89,-171.78 83.33,-88.41 134,-40.5 140.06,-34.77 147.52,-30.34 155.28,-26.92"/>
<polygon fill="midnightblue" stroke="midnightblue" points="50.54,-212.79 52.23,-223.25 57.43,-214.02 50.54,-212.79"/>
</g>
</g>
</svg>
