<?xml version="1.0" encoding="UTF-8" standalone="no"?>
<!DOCTYPE svg PUBLIC "-//W3C//DTD SVG 1.1//EN"
 "http://www.w3.org/Graphics/SVG/1.1/DTD/svg11.dtd">
<!-- Generated by graphviz version 2.43.0 (0)
 -->
<!-- Title: adiar::statistics::nested_sweeping_t Pages: 1 -->
<svg width="1017pt" height="170pt"
 viewBox="0.00 0.00 1017.00 170.00" xmlns="http://www.w3.org/2000/svg" xmlns:xlink="http://www.w3.org/1999/xlink">
<g id="graph0" class="graph" transform="scale(1 1) rotate(0) translate(4 166)">
<title>adiar::statistics::nested_sweeping_t</title>
<!-- Node1 -->
<g id="node1" class="node">
<title>Node1</title>
<g id="a_node1"><a xlink:title="Nested Sweeping statistics.">
<polygon fill="#bfbfbf" stroke="black" points="899,-36 899,-66 1009,-66 1009,-36 899,-36"/>
<text text-anchor="start" x="907" y="-54" font-family="Helvetica,sans-Serif" font-size="10.00">adiar::statistics::</text>
<text text-anchor="middle" x="954" y="-43" font-family="Helvetica,sans-Serif" font-size="10.00">nested_sweeping_t</text>
</a>
</g>
</g>
<!-- Node2 -->
<g id="node2" class="node">
<title>Node2</title>
<g id="a_node2"><a xlink:href="structadiar_1_1statistics_1_1nested__sweeping__t_1_1inner__t.html" target="_top" xlink:title="Inner Sweep(s)">
<polygon fill="none" stroke="black" points="683.5,-66 683.5,-96 833.5,-96 833.5,-66 683.5,-66"/>
<text text-anchor="start" x="691.5" y="-84" font-family="Helvetica,sans-Serif" font-size="10.00">adiar::statistics::</text>
<text text-anchor="middle" x="758.5" y="-73" font-family="Helvetica,sans-Serif" font-size="10.00">nested_sweeping_t::inner_t</text>
</a>
</g>
</g>
<!-- Node2&#45;&gt;Node1 -->
<g id="edge1" class="edge">
<title>Node2&#45;&gt;Node1</title>
<path fill="none" stroke="#9a32cd" stroke-dasharray="5,2" d="M843.74,-67.94C862.4,-65.05 881.69,-62.06 898.77,-59.41"/>
<polygon fill="#9a32cd" stroke="#9a32cd" points="843.1,-64.5 833.76,-69.49 844.18,-71.41 843.1,-64.5"/>
<text text-anchor="middle" x="866.5" y="-69" font-family="Helvetica,sans-Serif" font-size="10.00"> inner</text>
</g>
<!-- Node3 -->
<g id="node3" class="node">
<title>Node3</title>
<g id="a_node3"><a xlink:href="structadiar_1_1statistics_1_1nested__sweeping__t_1_1inner__t_1_1down__t.html" target="_top" xlink:title="Inner Down Sweep.">
<polygon fill="none" stroke="black" points="475.5,-120.5 475.5,-161.5 616.5,-161.5 616.5,-120.5 475.5,-120.5"/>
<text text-anchor="start" x="483.5" y="-149.5" font-family="Helvetica,sans-Serif" font-size="10.00">adiar::statistics::</text>
<text text-anchor="start" x="483.5" y="-138.5" font-family="Helvetica,sans-Serif" font-size="10.00">nested_sweeping_t::inner</text>
<text text-anchor="middle" x="546" y="-127.5" font-family="Helvetica,sans-Serif" font-size="10.00">_t::down_t</text>
</a>
</g>
</g>
<!-- Node3&#45;&gt;Node2 -->
<g id="edge2" class="edge">
<title>Node3&#45;&gt;Node2</title>
<path fill="none" stroke="#9a32cd" stroke-dasharray="5,2" d="M626.42,-118.36C652.6,-110.9 681.05,-102.79 704.74,-96.04"/>
<polygon fill="#9a32cd" stroke="#9a32cd" points="625.17,-115.08 616.51,-121.19 627.09,-121.81 625.17,-115.08"/>
<text text-anchor="middle" x="650" y="-117" font-family="Helvetica,sans-Serif" font-size="10.00"> down</text>
</g>
<!-- Node4 -->
<g id="node4" class="node">
<title>Node4</title>
<g id="a_node4"><a xlink:href="structadiar_1_1statistics_1_1____alg__base.html" target="_top" xlink:title="Common statistics for all algorithms.">
<polygon fill="none" stroke="black" points="340,-95 340,-125 438,-125 438,-95 340,-95"/>
<text text-anchor="start" x="348" y="-113" font-family="Helvetica,sans-Serif" font-size="10.00">adiar::statistics::</text>
<text text-anchor="middle" x="389" y="-102" font-family="Helvetica,sans-Serif" font-size="10.00">__alg_base</text>
</a>
</g>
</g>
<!-- Node4&#45;&gt;Node3 -->
<g id="edge3" class="edge">
<title>Node4&#45;&gt;Node3</title>
<path fill="none" stroke="midnightblue" d="M448.1,-121.62C457.04,-123.41 466.34,-125.27 475.5,-127.1"/>
<polygon fill="midnightblue" stroke="midnightblue" points="448.69,-118.17 438.19,-119.64 447.31,-125.03 448.69,-118.17"/>
</g>
<!-- Node7 -->
<g id="node7" class="node">
<title>Node7</title>
<g id="a_node7"><a xlink:href="structadiar_1_1statistics_1_1nested__sweeping__t_1_1inner__t_1_1up__t.html" target="_top" xlink:title="Inner Up Sweep.">
<polygon fill="none" stroke="black" points="475.5,-60.5 475.5,-101.5 616.5,-101.5 616.5,-60.5 475.5,-60.5"/>
<text text-anchor="start" x="483.5" y="-89.5" font-family="Helvetica,sans-Serif" font-size="10.00">adiar::statistics::</text>
<text text-anchor="start" x="483.5" y="-78.5" font-family="Helvetica,sans-Serif" font-size="10.00">nested_sweeping_t::inner</text>
<text text-anchor="middle" x="546" y="-67.5" font-family="Helvetica,sans-Serif" font-size="10.00">_t::up_t</text>
</a>
</g>
</g>
<!-- Node4&#45;&gt;Node7 -->
<g id="edge7" class="edge">
<title>Node4&#45;&gt;Node7</title>
<path fill="none" stroke="midnightblue" d="M448.1,-99.13C457.04,-97.46 466.34,-95.72 475.5,-94"/>
<polygon fill="midnightblue" stroke="midnightblue" points="447.38,-95.7 438.19,-100.98 448.67,-102.58 447.38,-95.7"/>
</g>
<!-- Node5 -->
<g id="node5" class="node">
<title>Node5</title>
<g id="a_node5"><a xlink:href="structadiar_1_1statistics_1_1____alg__base_1_1____lpq.html" target="_top" xlink:title="Type and usage of this algorithm&#39;s levelized priority queue.">
<polygon fill="none" stroke="black" points="183,-95 183,-125 285,-125 285,-95 183,-95"/>
<text text-anchor="start" x="191" y="-113" font-family="Helvetica,sans-Serif" font-size="10.00">adiar::statistics::</text>
<text text-anchor="middle" x="234" y="-102" font-family="Helvetica,sans-Serif" font-size="10.00">__alg_base::__lpq</text>
</a>
</g>
</g>
<!-- Node5&#45;&gt;Node4 -->
<g id="edge4" class="edge">
<title>Node5&#45;&gt;Node4</title>
<path fill="none" stroke="#9a32cd" stroke-dasharray="5,2" d="M295.2,-110C310.02,-110 325.7,-110 339.87,-110"/>
<polygon fill="#9a32cd" stroke="#9a32cd" points="295.1,-106.5 285.1,-110 295.1,-113.5 295.1,-106.5"/>
<text text-anchor="middle" x="312.5" y="-113" font-family="Helvetica,sans-Serif" font-size="10.00"> lpq</text>
</g>
<!-- Node6 -->
<g id="node6" class="node">
<title>Node6</title>
<g id="a_node6"><a xlink:href="structadiar_1_1statistics_1_1levelized__priority__queue__t.html" target="_top" xlink:title="Levelized Priority Queue statistics.">
<polygon fill="none" stroke="black" points="0,-95 0,-125 146,-125 146,-95 0,-95"/>
<text text-anchor="start" x="8" y="-113" font-family="Helvetica,sans-Serif" font-size="10.00">adiar::statistics::</text>
<text text-anchor="middle" x="73" y="-102" font-family="Helvetica,sans-Serif" font-size="10.00">levelized_priority_queue_t</text>
</a>
</g>
</g>
<!-- Node6&#45;&gt;Node5 -->
<g id="edge5" class="edge">
<title>Node6&#45;&gt;Node5</title>
<path fill="none" stroke="midnightblue" d="M156.2,-110C165.18,-110 174.12,-110 182.55,-110"/>
<polygon fill="midnightblue" stroke="midnightblue" points="156.06,-106.5 146.06,-110 156.06,-113.5 156.06,-106.5"/>
</g>
<!-- Node7&#45;&gt;Node2 -->
<g id="edge6" class="edge">
<title>Node7&#45;&gt;Node2</title>
<path fill="none" stroke="#9a32cd" stroke-dasharray="5,2" d="M626.71,-81C645.3,-81 665.02,-81 683.36,-81"/>
<polygon fill="#9a32cd" stroke="#9a32cd" points="626.51,-77.5 616.51,-81 626.51,-84.5 626.51,-77.5"/>
<text text-anchor="middle" x="650" y="-84" font-family="Helvetica,sans-Serif" font-size="10.00"> up</text>
</g>
<!-- Node8 -->
<g id="node8" class="node">
<title>Node8</title>
<g id="a_node8"><a xlink:href="structadiar_1_1statistics_1_1nested__sweeping__t_1_1outer__t.html" target="_top" xlink:title="Outer Sweep(s)">
<polygon fill="none" stroke="black" points="683,-12 683,-42 834,-42 834,-12 683,-12"/>
<text text-anchor="start" x="691" y="-30" font-family="Helvetica,sans-Serif" font-size="10.00">adiar::statistics::</text>
<text text-anchor="middle" x="758.5" y="-19" font-family="Helvetica,sans-Serif" font-size="10.00">nested_sweeping_t::outer_t</text>
</a>
</g>
</g>
<!-- Node8&#45;&gt;Node1 -->
<g id="edge8" class="edge">
<title>Node8&#45;&gt;Node1</title>
<path fill="none" stroke="#9a32cd" stroke-dasharray="5,2" d="M844.39,-34.65C856.69,-35.98 869.18,-37.43 881,-39 886.78,-39.77 892.81,-40.64 898.8,-41.57"/>
<polygon fill="#9a32cd" stroke="#9a32cd" points="844.44,-31.14 834.13,-33.58 843.71,-38.1 844.44,-31.14"/>
<text text-anchor="middle" x="866.5" y="-42" font-family="Helvetica,sans-Serif" font-size="10.00"> outer</text>
</g>
<!-- Node9 -->
<g id="node9" class="node">
<title>Node9</title>
<g id="a_node9"><a xlink:href="structadiar_1_1statistics_1_1nested__sweeping__t_1_1outer__t_1_1up__t.html" target="_top" xlink:title="Outer Up Sweep.">
<polygon fill="none" stroke="black" points="475,-0.5 475,-41.5 617,-41.5 617,-0.5 475,-0.5"/>
<text text-anchor="start" x="483" y="-29.5" font-family="Helvetica,sans-Serif" font-size="10.00">adiar::statistics::</text>
<text text-anchor="start" x="483" y="-18.5" font-family="Helvetica,sans-Serif" font-size="10.00">nested_sweeping_t::outer</text>
<text text-anchor="middle" x="546" y="-7.5" font-family="Helvetica,sans-Serif" font-size="10.00">_t::up_t</text>
</a>
</g>
</g>
<!-- Node9&#45;&gt;Node8 -->
<g id="edge9" class="edge">
<title>Node9&#45;&gt;Node8</title>
<path fill="none" stroke="#9a32cd" stroke-dasharray="5,2" d="M627.1,-23.28C645.34,-23.8 664.65,-24.35 682.66,-24.87"/>
<polygon fill="#9a32cd" stroke="#9a32cd" points="627.19,-19.78 617.09,-23 626.99,-26.78 627.19,-19.78"/>
<text text-anchor="middle" x="650" y="-28" font-family="Helvetica,sans-Serif" font-size="10.00"> up</text>
</g>
</g>
</svg>
