<?xml version="1.0" encoding="UTF-8" standalone="no"?>
<!DOCTYPE svg PUBLIC "-//W3C//DTD SVG 1.1//EN"
 "http://www.w3.org/Graphics/SVG/1.1/DTD/svg11.dtd">
<!-- Generated by graphviz version 2.43.0 (0)
 -->
<!-- Title: adiar::statistics Pages: 1 -->
<svg width="1515pt" height="697pt"
 viewBox="0.00 0.00 1515.00 696.50" xmlns="http://www.w3.org/2000/svg" xmlns:xlink="http://www.w3.org/1999/xlink">
<g id="graph0" class="graph" transform="scale(1 1) rotate(0) translate(4 692.5)">
<title>adiar::statistics</title>
<!-- Node1 -->
<g id="node1" class="node">
<title>Node1</title>
<g id="a_node1"><a xlink:title="Available statistics from algorithm&#39;s and data structures.">
<polygon fill="#bfbfbf" stroke="black" points="1415,-325 1415,-344 1507,-344 1507,-325 1415,-325"/>
<text text-anchor="middle" x="1461" y="-332" font-family="Helvetica,sans-Serif" font-size="10.00">adiar::statistics</text>
</a>
</g>
</g>
<!-- Node2 -->
<g id="node2" class="node">
<title>Node2</title>
<g id="a_node2"><a xlink:href="structadiar_1_1statistics_1_1intercut__t.html" target="_top" xlink:title="Intercut algorithm statistics.">
<polygon fill="none" stroke="black" points="763,-284.5 763,-314.5 861,-314.5 861,-284.5 763,-284.5"/>
<text text-anchor="start" x="771" y="-302.5" font-family="Helvetica,sans-Serif" font-size="10.00">adiar::statistics::</text>
<text text-anchor="middle" x="812" y="-291.5" font-family="Helvetica,sans-Serif" font-size="10.00">intercut_t</text>
</a>
</g>
</g>
<!-- Node2&#45;&gt;Node1 -->
<g id="edge1" class="edge">
<title>Node2&#45;&gt;Node1</title>
<path fill="none" stroke="#9a32cd" stroke-dasharray="5,2" d="M871.16,-302.39C976.19,-307.65 1204.49,-319.28 1397,-330.5 1402.8,-330.84 1408.9,-331.21 1414.92,-331.58"/>
<polygon fill="#9a32cd" stroke="#9a32cd" points="871.24,-298.89 861.08,-301.88 870.89,-305.88 871.24,-298.89"/>
<text text-anchor="middle" x="1114" y="-319.5" font-family="Helvetica,sans-Serif" font-size="10.00"> intercut</text>
</g>
<!-- Node3 -->
<g id="node3" class="node">
<title>Node3</title>
<g id="a_node3"><a xlink:href="structadiar_1_1statistics_1_1____alg__base.html" target="_top" xlink:title="Common statistics for all algorithms.">
<polygon fill="none" stroke="black" points="374,-322.5 374,-352.5 472,-352.5 472,-322.5 374,-322.5"/>
<text text-anchor="start" x="382" y="-340.5" font-family="Helvetica,sans-Serif" font-size="10.00">adiar::statistics::</text>
<text text-anchor="middle" x="423" y="-329.5" font-family="Helvetica,sans-Serif" font-size="10.00">__alg_base</text>
</a>
</g>
</g>
<!-- Node3&#45;&gt;Node2 -->
<g id="edge2" class="edge">
<title>Node3&#45;&gt;Node2</title>
<path fill="none" stroke="midnightblue" d="M482.65,-331.74C559.2,-324.22 691.75,-311.21 762.77,-304.24"/>
<polygon fill="midnightblue" stroke="midnightblue" points="481.84,-328.3 472.23,-332.76 482.53,-335.27 481.84,-328.3"/>
</g>
<!-- Node6 -->
<g id="node6" class="node">
<title>Node6</title>
<g id="a_node6"><a xlink:href="structadiar_1_1statistics_1_1select__t.html" target="_top" xlink:title="Select algorithm statistics.">
<polygon fill="none" stroke="black" points="1065,-645.5 1065,-675.5 1163,-675.5 1163,-645.5 1065,-645.5"/>
<text text-anchor="start" x="1073" y="-663.5" font-family="Helvetica,sans-Serif" font-size="10.00">adiar::statistics::</text>
<text text-anchor="middle" x="1114" y="-652.5" font-family="Helvetica,sans-Serif" font-size="10.00">select_t</text>
</a>
</g>
</g>
<!-- Node3&#45;&gt;Node6 -->
<g id="edge6" class="edge">
<title>Node3&#45;&gt;Node6</title>
<path fill="none" stroke="midnightblue" d="M431.04,-362.5C448.74,-419.84 501.25,-559.62 604,-608.5 759.42,-682.43 971.14,-674.24 1064.92,-665.89"/>
<polygon fill="midnightblue" stroke="midnightblue" points="434.35,-361.37 428.13,-352.8 427.65,-363.38 434.35,-361.37"/>
</g>
<!-- Node8 -->
<g id="node8" class="node">
<title>Node8</title>
<g id="a_node8"><a xlink:href="structadiar_1_1statistics_1_1prod2__t.html" target="_top" xlink:title="2&#45;ary Product Construction algorithm statistics.">
<polygon fill="none" stroke="black" points="625.5,-184.5 625.5,-214.5 723.5,-214.5 723.5,-184.5 625.5,-184.5"/>
<text text-anchor="start" x="633.5" y="-202.5" font-family="Helvetica,sans-Serif" font-size="10.00">adiar::statistics::</text>
<text text-anchor="middle" x="674.5" y="-191.5" font-family="Helvetica,sans-Serif" font-size="10.00">prod2_t</text>
</a>
</g>
</g>
<!-- Node3&#45;&gt;Node8 -->
<g id="edge9" class="edge">
<title>Node3&#45;&gt;Node8</title>
<path fill="none" stroke="midnightblue" d="M459.53,-317.6C476.16,-308.58 496.37,-298.05 515,-289.5 545.83,-275.34 559.79,-283.03 586,-261.5 597.43,-252.11 592.95,-243.34 604,-233.5 612.53,-225.91 623.06,-219.61 633.31,-214.58"/>
<polygon fill="midnightblue" stroke="midnightblue" points="457.79,-314.56 450.69,-322.43 461.14,-320.71 457.79,-314.56"/>
</g>
<!-- Node13 -->
<g id="node13" class="node">
<title>Node13</title>
<g id="a_node13"><a xlink:href="structadiar_1_1statistics_1_1reduce__t.html" target="_top" xlink:title="Reduce algorithm statistics.">
<polygon fill="none" stroke="black" points="625.5,-568.5 625.5,-598.5 723.5,-598.5 723.5,-568.5 625.5,-568.5"/>
<text text-anchor="start" x="633.5" y="-586.5" font-family="Helvetica,sans-Serif" font-size="10.00">adiar::statistics::</text>
<text text-anchor="middle" x="674.5" y="-575.5" font-family="Helvetica,sans-Serif" font-size="10.00">reduce_t</text>
</a>
</g>
</g>
<!-- Node3&#45;&gt;Node13 -->
<g id="edge15" class="edge">
<title>Node3&#45;&gt;Node13</title>
<path fill="none" stroke="midnightblue" d="M437.46,-361.51C463.78,-406.41 526.34,-503.49 604,-558.5 610.49,-563.1 617.91,-566.93 625.43,-570.11"/>
<polygon fill="midnightblue" stroke="midnightblue" points="440.43,-359.66 432.4,-352.76 434.37,-363.16 440.43,-359.66"/>
</g>
<!-- Node18 -->
<g id="node18" class="node">
<title>Node18</title>
<g id="a_node18"><a xlink:href="structadiar_1_1statistics_1_1quantify__t.html" target="_top" xlink:title="Quantification algorithm statistics.">
<polygon fill="none" stroke="black" points="625.5,-243.5 625.5,-273.5 723.5,-273.5 723.5,-243.5 625.5,-243.5"/>
<text text-anchor="start" x="633.5" y="-261.5" font-family="Helvetica,sans-Serif" font-size="10.00">adiar::statistics::</text>
<text text-anchor="middle" x="674.5" y="-250.5" font-family="Helvetica,sans-Serif" font-size="10.00">quantify_t</text>
</a>
</g>
</g>
<!-- Node3&#45;&gt;Node18 -->
<g id="edge22" class="edge">
<title>Node3&#45;&gt;Node18</title>
<path fill="none" stroke="midnightblue" d="M481.62,-319.43C512.58,-309.71 551.38,-297.49 586,-286.5 599.23,-282.3 613.57,-277.72 626.74,-273.51"/>
<polygon fill="midnightblue" stroke="midnightblue" points="480.36,-316.16 471.87,-322.5 482.46,-322.84 480.36,-316.16"/>
</g>
<!-- Node20 -->
<g id="node20" class="node">
<title>Node20</title>
<g id="a_node20"><a xlink:href="structadiar_1_1statistics_1_1prod3__t.html" target="_top" xlink:title="3&#45;ary Product Construction algorithm statistics.">
<polygon fill="none" stroke="black" points="763,-404.5 763,-434.5 861,-434.5 861,-404.5 763,-404.5"/>
<text text-anchor="start" x="771" y="-422.5" font-family="Helvetica,sans-Serif" font-size="10.00">adiar::statistics::</text>
<text text-anchor="middle" x="812" y="-411.5" font-family="Helvetica,sans-Serif" font-size="10.00">prod3_t</text>
</a>
</g>
</g>
<!-- Node3&#45;&gt;Node20 -->
<g id="edge25" class="edge">
<title>Node3&#45;&gt;Node20</title>
<path fill="none" stroke="midnightblue" d="M449.73,-358.75C467.06,-371.77 491.04,-387.45 515,-395.5 598.82,-423.66 703.17,-424.86 762.94,-422.59"/>
<polygon fill="midnightblue" stroke="midnightblue" points="451.85,-355.96 441.79,-352.61 447.56,-361.49 451.85,-355.96"/>
</g>
<!-- Node21 -->
<g id="node21" class="node">
<title>Node21</title>
<g id="a_node21"><a xlink:href="structadiar_1_1statistics_1_1optmin__t.html" target="_top" xlink:title="Boolean Optimization algorithm statistics.">
<polygon fill="none" stroke="black" points="1065,-365.5 1065,-395.5 1163,-395.5 1163,-365.5 1065,-365.5"/>
<text text-anchor="start" x="1073" y="-383.5" font-family="Helvetica,sans-Serif" font-size="10.00">adiar::statistics::</text>
<text text-anchor="middle" x="1114" y="-372.5" font-family="Helvetica,sans-Serif" font-size="10.00">optmin_t</text>
</a>
</g>
</g>
<!-- Node3&#45;&gt;Node21 -->
<g id="edge28" class="edge">
<title>Node3&#45;&gt;Node21</title>
<path fill="none" stroke="midnightblue" d="M481.96,-347.31C492.91,-348.91 504.29,-350.4 515,-351.5 718.69,-372.45 963.01,-378.33 1064.81,-379.93"/>
<polygon fill="midnightblue" stroke="midnightblue" points="482.47,-343.84 472.06,-345.81 481.42,-350.77 482.47,-343.84"/>
</g>
<!-- Node22 -->
<g id="node22" class="node">
<title>Node22</title>
<g id="a_node22"><a xlink:href="structadiar_1_1statistics_1_1equality__t.html" target="_top" xlink:title="Equality Checking algorithm statistics.">
<polygon fill="none" stroke="black" points="625.5,-47.5 625.5,-77.5 723.5,-77.5 723.5,-47.5 625.5,-47.5"/>
<text text-anchor="start" x="633.5" y="-65.5" font-family="Helvetica,sans-Serif" font-size="10.00">adiar::statistics::</text>
<text text-anchor="middle" x="674.5" y="-54.5" font-family="Helvetica,sans-Serif" font-size="10.00">equality_t</text>
</a>
</g>
</g>
<!-- Node3&#45;&gt;Node22 -->
<g id="edge30" class="edge">
<title>Node3&#45;&gt;Node22</title>
<path fill="none" stroke="midnightblue" d="M454.1,-316.28C467.96,-305.75 484.15,-292.35 497,-278.5 506.56,-268.2 505.1,-262.48 515,-252.5 542.18,-225.1 565.51,-235.21 586,-202.5 612.3,-160.52 573.52,-131.55 604,-92.5 609.58,-85.35 617.2,-79.88 625.36,-75.69"/>
<polygon fill="midnightblue" stroke="midnightblue" points="451.76,-313.66 445.82,-322.43 455.93,-319.27 451.76,-313.66"/>
</g>
<!-- Node25 -->
<g id="node25" class="node">
<title>Node25</title>
<g id="a_node25"><a xlink:href="structadiar_1_1statistics_1_1count__t.html" target="_top" xlink:title="Counting algorithm statistics.">
<polygon fill="none" stroke="black" points="763,-324.5 763,-354.5 861,-354.5 861,-324.5 763,-324.5"/>
<text text-anchor="start" x="771" y="-342.5" font-family="Helvetica,sans-Serif" font-size="10.00">adiar::statistics::</text>
<text text-anchor="middle" x="812" y="-331.5" font-family="Helvetica,sans-Serif" font-size="10.00">count_t</text>
</a>
</g>
</g>
<!-- Node3&#45;&gt;Node25 -->
<g id="edge34" class="edge">
<title>Node3&#45;&gt;Node25</title>
<path fill="none" stroke="midnightblue" d="M482.65,-337.8C559.2,-338.2 691.75,-338.88 762.77,-339.25"/>
<polygon fill="midnightblue" stroke="midnightblue" points="482.25,-334.3 472.23,-337.75 482.21,-341.3 482.25,-334.3"/>
</g>
<!-- Node4 -->
<g id="node4" class="node">
<title>Node4</title>
<g id="a_node4"><a xlink:href="structadiar_1_1statistics_1_1____alg__base_1_1____lpq__t.html" target="_top" xlink:title="Type and usage of this algorithm&#39;s levelized priority queue.">
<polygon fill="none" stroke="black" points="183,-225.5 183,-255.5 294,-255.5 294,-225.5 183,-225.5"/>
<text text-anchor="start" x="191" y="-243.5" font-family="Helvetica,sans-Serif" font-size="10.00">adiar::statistics::</text>
<text text-anchor="middle" x="238.5" y="-232.5" font-family="Helvetica,sans-Serif" font-size="10.00">__alg_base::__lpq_t</text>
</a>
</g>
</g>
<!-- Node4&#45;&gt;Node3 -->
<g id="edge3" class="edge">
<title>Node4&#45;&gt;Node3</title>
<path fill="none" stroke="#9a32cd" stroke-dasharray="5,2" d="M276.89,-260.37C311.53,-278.78 362.29,-305.77 393.68,-322.45"/>
<polygon fill="#9a32cd" stroke="#9a32cd" points="278.49,-257.26 268.02,-255.66 275.2,-263.44 278.49,-257.26"/>
<text text-anchor="middle" x="321.5" y="-291.5" font-family="Helvetica,sans-Serif" font-size="10.00"> lpq</text>
</g>
<!-- Node5 -->
<g id="node5" class="node">
<title>Node5</title>
<g id="a_node5"><a xlink:href="structadiar_1_1statistics_1_1levelized__priority__queue__t.html" target="_top" xlink:title="Levelized Priority Queue statistics.">
<polygon fill="none" stroke="black" points="0,-109.5 0,-139.5 146,-139.5 146,-109.5 0,-109.5"/>
<text text-anchor="start" x="8" y="-127.5" font-family="Helvetica,sans-Serif" font-size="10.00">adiar::statistics::</text>
<text text-anchor="middle" x="73" y="-116.5" font-family="Helvetica,sans-Serif" font-size="10.00">levelized_priority_queue_t</text>
</a>
</g>
</g>
<!-- Node5&#45;&gt;Node1 -->
<g id="edge35" class="edge">
<title>Node5&#45;&gt;Node1</title>
<path fill="none" stroke="#9a32cd" stroke-dasharray="5,2" d="M156.53,-122.65C292.8,-119.76 573.42,-114.5 811,-114.5 811,-114.5 811,-114.5 1237,-114.5 1358.55,-114.5 1437.84,-282.19 1456.01,-324.76"/>
<polygon fill="#9a32cd" stroke="#9a32cd" points="156.1,-119.16 146.18,-122.87 156.25,-126.16 156.1,-119.16"/>
<text text-anchor="start" x="630.5" y="-130.5" font-family="Helvetica,sans-Serif" font-size="10.00"> levelized_priority</text>
<text text-anchor="middle" x="674.5" y="-119.5" font-family="Helvetica,sans-Serif" font-size="10.00">_queue</text>
</g>
<!-- Node5&#45;&gt;Node4 -->
<g id="edge4" class="edge">
<title>Node5&#45;&gt;Node4</title>
<path fill="none" stroke="midnightblue" d="M103.6,-145.5C136.06,-168.53 187.35,-204.92 216.12,-225.33"/>
<polygon fill="midnightblue" stroke="midnightblue" points="105.56,-142.6 95.37,-139.66 101.51,-148.31 105.56,-142.6"/>
</g>
<!-- Node6&#45;&gt;Node1 -->
<g id="edge5" class="edge">
<title>Node6&#45;&gt;Node1</title>
<path fill="none" stroke="#9a32cd" stroke-dasharray="5,2" d="M1173.35,-672.39C1236.59,-681.62 1336.55,-684.99 1397,-630.5 1441.1,-590.75 1456.44,-390.49 1459.42,-344.1"/>
<polygon fill="#9a32cd" stroke="#9a32cd" points="1173.56,-668.88 1163.14,-670.8 1172.49,-675.8 1173.56,-668.88"/>
<text text-anchor="middle" x="1236" y="-680.5" font-family="Helvetica,sans-Serif" font-size="10.00"> select</text>
</g>
<!-- Node7 -->
<g id="node7" class="node">
<title>Node7</title>
<g id="a_node7"><a xlink:href="structadiar_1_1statistics_1_1arc__file__t.html" target="_top" xlink:title="Arc Files statistics.">
<polygon fill="none" stroke="black" points="1187,-448.5 1187,-478.5 1285,-478.5 1285,-448.5 1187,-448.5"/>
<text text-anchor="start" x="1195" y="-466.5" font-family="Helvetica,sans-Serif" font-size="10.00">adiar::statistics::</text>
<text text-anchor="middle" x="1236" y="-455.5" font-family="Helvetica,sans-Serif" font-size="10.00">arc_file_t</text>
</a>
</g>
</g>
<!-- Node7&#45;&gt;Node1 -->
<g id="edge7" class="edge">
<title>Node7&#45;&gt;Node1</title>
<path fill="none" stroke="#9a32cd" stroke-dasharray="5,2" d="M1295.46,-463.63C1327.8,-461.12 1367.32,-453.57 1397,-433.5 1430.24,-411.01 1449.63,-364.51 1456.8,-344.27"/>
<polygon fill="#9a32cd" stroke="#9a32cd" points="1294.99,-460.15 1285.23,-464.28 1295.43,-467.14 1294.99,-460.15"/>
<text text-anchor="middle" x="1353" y="-464.5" font-family="Helvetica,sans-Serif" font-size="10.00"> arc_file</text>
</g>
<!-- Node8&#45;&gt;Node1 -->
<g id="edge8" class="edge">
<title>Node8&#45;&gt;Node1</title>
<path fill="none" stroke="#9a32cd" stroke-dasharray="5,2" d="M733.94,-202.15C858.42,-209.07 1157.9,-232.54 1397,-305.5 1413.01,-310.39 1430.21,-318.51 1442.58,-324.93"/>
<polygon fill="#9a32cd" stroke="#9a32cd" points="734.04,-198.65 723.86,-201.6 733.66,-205.64 734.04,-198.65"/>
<text text-anchor="middle" x="1114" y="-253.5" font-family="Helvetica,sans-Serif" font-size="10.00"> prod2</text>
</g>
<!-- Node9 -->
<g id="node9" class="node">
<title>Node9</title>
<g id="a_node9"><a xlink:href="structadiar_1_1statistics_1_1prod2__t_1_1ra__t.html" target="_top" xlink:title="Statistics for the double priority queue implementation.">
<polygon fill="none" stroke="black" points="374,-141.5 374,-171.5 472,-171.5 472,-141.5 374,-141.5"/>
<text text-anchor="start" x="382" y="-159.5" font-family="Helvetica,sans-Serif" font-size="10.00">adiar::statistics::</text>
<text text-anchor="middle" x="423" y="-148.5" font-family="Helvetica,sans-Serif" font-size="10.00">prod2_t::ra_t</text>
</a>
</g>
</g>
<!-- Node9&#45;&gt;Node8 -->
<g id="edge10" class="edge">
<title>Node9&#45;&gt;Node8</title>
<path fill="none" stroke="#9a32cd" stroke-dasharray="5,2" d="M481.96,-166.49C525.41,-173.98 584.18,-184.11 625.12,-191.16"/>
<polygon fill="#9a32cd" stroke="#9a32cd" points="482.56,-163.04 472.11,-164.79 481.37,-169.94 482.56,-163.04"/>
<text text-anchor="middle" x="550.5" y="-187.5" font-family="Helvetica,sans-Serif" font-size="10.00"> ra</text>
</g>
<!-- Node10 -->
<g id="node10" class="node">
<title>Node10</title>
<g id="a_node10"><a xlink:href="structadiar_1_1statistics_1_1prod2__t_1_1pq__t.html" target="_top" xlink:title="Statistics for the double priority queue implementation.">
<polygon fill="none" stroke="black" points="374,-190.5 374,-220.5 472,-220.5 472,-190.5 374,-190.5"/>
<text text-anchor="start" x="382" y="-208.5" font-family="Helvetica,sans-Serif" font-size="10.00">adiar::statistics::</text>
<text text-anchor="middle" x="423" y="-197.5" font-family="Helvetica,sans-Serif" font-size="10.00">prod2_t::pq_t</text>
</a>
</g>
</g>
<!-- Node10&#45;&gt;Node8 -->
<g id="edge11" class="edge">
<title>Node10&#45;&gt;Node8</title>
<path fill="none" stroke="#9a32cd" stroke-dasharray="5,2" d="M482.24,-204.1C525.66,-203.06 584.27,-201.65 625.12,-200.66"/>
<polygon fill="#9a32cd" stroke="#9a32cd" points="482.02,-200.6 472.11,-204.34 482.19,-207.6 482.02,-200.6"/>
<text text-anchor="middle" x="550.5" y="-206.5" font-family="Helvetica,sans-Serif" font-size="10.00"> pq</text>
</g>
<!-- Node11 -->
<g id="node11" class="node">
<title>Node11</title>
<g id="a_node11"><a xlink:href="structadiar_1_1statistics_1_1nested__sweeping__t.html" target="_top" xlink:title="Nested Sweeping statistics.">
<polygon fill="none" stroke="black" points="1181,-502.5 1181,-532.5 1291,-532.5 1291,-502.5 1181,-502.5"/>
<text text-anchor="start" x="1189" y="-520.5" font-family="Helvetica,sans-Serif" font-size="10.00">adiar::statistics::</text>
<text text-anchor="middle" x="1236" y="-509.5" font-family="Helvetica,sans-Serif" font-size="10.00">nested_sweeping_t</text>
</a>
</g>
</g>
<!-- Node11&#45;&gt;Node1 -->
<g id="edge12" class="edge">
<title>Node11&#45;&gt;Node1</title>
<path fill="none" stroke="#9a32cd" stroke-dasharray="5,2" d="M1301.17,-514.06C1333.09,-509.35 1370.43,-498.97 1397,-476.5 1439.63,-440.45 1454.51,-369.86 1458.64,-344.15"/>
<polygon fill="#9a32cd" stroke="#9a32cd" points="1300.47,-510.62 1291.01,-515.39 1301.38,-517.56 1300.47,-510.62"/>
<text text-anchor="middle" x="1353" y="-514.5" font-family="Helvetica,sans-Serif" font-size="10.00"> nested_sweeping</text>
</g>
<!-- Node12 -->
<g id="node12" class="node">
<title>Node12</title>
<g id="a_node12"><a xlink:href="structadiar_1_1statistics_1_1nested__sweeping__t_1_1outer__up__t.html" target="_top" xlink:title="Outer Reduce Sweep.">
<polygon fill="none" stroke="black" points="879,-557.5 879,-587.5 1047,-587.5 1047,-557.5 879,-557.5"/>
<text text-anchor="start" x="887" y="-575.5" font-family="Helvetica,sans-Serif" font-size="10.00">adiar::statistics::</text>
<text text-anchor="middle" x="963" y="-564.5" font-family="Helvetica,sans-Serif" font-size="10.00">nested_sweeping_t::outer_up_t</text>
</a>
</g>
</g>
<!-- Node12&#45;&gt;Node11 -->
<g id="edge13" class="edge">
<title>Node12&#45;&gt;Node11</title>
<path fill="none" stroke="#9a32cd" stroke-dasharray="5,2" d="M1057.24,-556.38C1090.68,-550.28 1128.62,-542.99 1163,-535.5 1168.79,-534.24 1174.83,-532.85 1180.83,-531.42"/>
<polygon fill="#9a32cd" stroke="#9a32cd" points="1056.22,-553.01 1047.01,-558.24 1057.47,-559.9 1056.22,-553.01"/>
<text text-anchor="middle" x="1114" y="-557.5" font-family="Helvetica,sans-Serif" font-size="10.00"> outer_up</text>
</g>
<!-- Node13&#45;&gt;Node1 -->
<g id="edge26" class="edge">
<title>Node13&#45;&gt;Node1</title>
<path fill="none" stroke="#9a32cd" stroke-dasharray="5,2" d="M733.67,-589.14C743.46,-590 753.51,-590.82 763,-591.5 814.49,-595.18 827.39,-596.17 879,-597.5 1111.3,-603.5 1223.37,-680.93 1397,-526.5 1453.1,-476.61 1459.43,-375.96 1460,-344.28"/>
<polygon fill="#9a32cd" stroke="#9a32cd" points="733.88,-585.65 723.61,-588.24 733.26,-592.62 733.88,-585.65"/>
<text text-anchor="middle" x="1114" y="-624.5" font-family="Helvetica,sans-Serif" font-size="10.00"> reduce</text>
</g>
<!-- Node13&#45;&gt;Node12 -->
<g id="edge14" class="edge">
<title>Node13&#45;&gt;Node12</title>
<path fill="none" stroke="midnightblue" d="M733.79,-581.26C775.57,-579.66 832.44,-577.47 878.96,-575.69"/>
<polygon fill="midnightblue" stroke="midnightblue" points="733.64,-577.77 723.78,-581.65 733.9,-584.76 733.64,-577.77"/>
</g>
<!-- Node14 -->
<g id="node14" class="node">
<title>Node14</title>
<g id="a_node14"><a xlink:href="structadiar_1_1statistics_1_1nested__sweeping__t_1_1inner__up__t.html" target="_top" xlink:title="Inner Up Sweep(s)">
<polygon fill="none" stroke="black" points="879.5,-508.5 879.5,-538.5 1046.5,-538.5 1046.5,-508.5 879.5,-508.5"/>
<text text-anchor="start" x="887.5" y="-526.5" font-family="Helvetica,sans-Serif" font-size="10.00">adiar::statistics::</text>
<text text-anchor="middle" x="963" y="-515.5" font-family="Helvetica,sans-Serif" font-size="10.00">nested_sweeping_t::inner_up_t</text>
</a>
</g>
</g>
<!-- Node13&#45;&gt;Node14 -->
<g id="edge17" class="edge">
<title>Node13&#45;&gt;Node14</title>
<path fill="none" stroke="midnightblue" d="M733.71,-571.31C778.9,-561.85 841.79,-548.68 890.12,-538.55"/>
<polygon fill="midnightblue" stroke="midnightblue" points="732.85,-567.91 723.78,-573.39 734.28,-574.77 732.85,-567.91"/>
</g>
<!-- Node14&#45;&gt;Node11 -->
<g id="edge16" class="edge">
<title>Node14&#45;&gt;Node11</title>
<path fill="none" stroke="#9a32cd" stroke-dasharray="5,2" d="M1056.88,-521.44C1098.24,-520.53 1145.49,-519.48 1180.93,-518.7"/>
<polygon fill="#9a32cd" stroke="#9a32cd" points="1056.7,-517.95 1046.78,-521.67 1056.86,-524.94 1056.7,-517.95"/>
<text text-anchor="middle" x="1114" y="-523.5" font-family="Helvetica,sans-Serif" font-size="10.00"> inner_up</text>
</g>
<!-- Node15 -->
<g id="node15" class="node">
<title>Node15</title>
<g id="a_node15"><a xlink:href="structadiar_1_1statistics_1_1nested__sweeping__t_1_1inner__down__t.html" target="_top" xlink:title="Root Requests generated for Inner Down Sweep.">
<polygon fill="none" stroke="black" points="892.5,-448 892.5,-489 1033.5,-489 1033.5,-448 892.5,-448"/>
<text text-anchor="start" x="900.5" y="-477" font-family="Helvetica,sans-Serif" font-size="10.00">adiar::statistics::</text>
<text text-anchor="start" x="900.5" y="-466" font-family="Helvetica,sans-Serif" font-size="10.00">nested_sweeping_t::inner</text>
<text text-anchor="middle" x="963" y="-455" font-family="Helvetica,sans-Serif" font-size="10.00">_down_t</text>
</a>
</g>
</g>
<!-- Node15&#45;&gt;Node11 -->
<g id="edge18" class="edge">
<title>Node15&#45;&gt;Node11</title>
<path fill="none" stroke="#9a32cd" stroke-dasharray="5,2" d="M1043.66,-482.17C1080.07,-488.51 1123.75,-496.23 1163,-503.5 1168.76,-504.57 1174.77,-505.7 1180.77,-506.85"/>
<polygon fill="#9a32cd" stroke="#9a32cd" points="1044.04,-478.69 1033.59,-480.42 1042.84,-485.58 1044.04,-478.69"/>
<text text-anchor="middle" x="1114" y="-506.5" font-family="Helvetica,sans-Serif" font-size="10.00"> inner_down</text>
</g>
<!-- Node16 -->
<g id="node16" class="node">
<title>Node16</title>
<g id="a_node16"><a xlink:href="structadiar_1_1statistics_1_1nested__sweeping__t_1_1inner__down__t_1_1inputs__t.html" target="_top" xlink:title=" ">
<polygon fill="none" stroke="black" points="604,-508 604,-549 745,-549 745,-508 604,-508"/>
<text text-anchor="start" x="612" y="-537" font-family="Helvetica,sans-Serif" font-size="10.00">adiar::statistics::</text>
<text text-anchor="start" x="612" y="-526" font-family="Helvetica,sans-Serif" font-size="10.00">nested_sweeping_t::inner</text>
<text text-anchor="middle" x="674.5" y="-515" font-family="Helvetica,sans-Serif" font-size="10.00">_down_t::inputs_t</text>
</a>
</g>
</g>
<!-- Node16&#45;&gt;Node15 -->
<g id="edge19" class="edge">
<title>Node16&#45;&gt;Node15</title>
<path fill="none" stroke="#9a32cd" stroke-dasharray="5,2" d="M755.11,-511.83C798.23,-502.8 851.01,-491.74 892.46,-483.06"/>
<polygon fill="#9a32cd" stroke="#9a32cd" points="754.29,-508.42 745.22,-513.9 755.72,-515.27 754.29,-508.42"/>
<text text-anchor="middle" x="812" y="-511.5" font-family="Helvetica,sans-Serif" font-size="10.00"> inputs</text>
</g>
<!-- Node17 -->
<g id="node17" class="node">
<title>Node17</title>
<g id="a_node17"><a xlink:href="structadiar_1_1statistics_1_1nested__sweeping__t_1_1inner__down__t_1_1requests__t.html" target="_top" xlink:title=" ">
<polygon fill="none" stroke="black" points="604,-448 604,-489 745,-489 745,-448 604,-448"/>
<text text-anchor="start" x="612" y="-477" font-family="Helvetica,sans-Serif" font-size="10.00">adiar::statistics::</text>
<text text-anchor="start" x="612" y="-466" font-family="Helvetica,sans-Serif" font-size="10.00">nested_sweeping_t::inner</text>
<text text-anchor="middle" x="674.5" y="-455" font-family="Helvetica,sans-Serif" font-size="10.00">_down_t::requests_t</text>
</a>
</g>
</g>
<!-- Node17&#45;&gt;Node15 -->
<g id="edge20" class="edge">
<title>Node17&#45;&gt;Node15</title>
<path fill="none" stroke="#9a32cd" stroke-dasharray="5,2" d="M755.38,-468.5C798.45,-468.5 851.1,-468.5 892.46,-468.5"/>
<polygon fill="#9a32cd" stroke="#9a32cd" points="755.22,-465 745.22,-468.5 755.22,-472 755.22,-465"/>
<text text-anchor="middle" x="812" y="-471.5" font-family="Helvetica,sans-Serif" font-size="10.00"> requests</text>
</g>
<!-- Node18&#45;&gt;Node1 -->
<g id="edge21" class="edge">
<title>Node18&#45;&gt;Node1</title>
<path fill="none" stroke="#9a32cd" stroke-dasharray="5,2" d="M734.25,-260.92C857.64,-266.61 1152.56,-283.31 1397,-321.5 1403.4,-322.5 1410.13,-323.71 1416.72,-324.99"/>
<polygon fill="#9a32cd" stroke="#9a32cd" points="734.05,-257.41 723.9,-260.46 733.73,-264.41 734.05,-257.41"/>
<text text-anchor="middle" x="1114" y="-294.5" font-family="Helvetica,sans-Serif" font-size="10.00"> quantify</text>
</g>
<!-- Node19 -->
<g id="node19" class="node">
<title>Node19</title>
<g id="a_node19"><a xlink:href="structadiar_1_1statistics_1_1quantify__t_1_1nested__policy__t.html" target="_top" xlink:title="Nested multi&#45;variable sweeping.">
<polygon fill="none" stroke="black" points="349,-239.5 349,-269.5 497,-269.5 497,-239.5 349,-239.5"/>
<text text-anchor="start" x="357" y="-257.5" font-family="Helvetica,sans-Serif" font-size="10.00">adiar::statistics::</text>
<text text-anchor="middle" x="423" y="-246.5" font-family="Helvetica,sans-Serif" font-size="10.00">quantify_t::nested_policy_t</text>
</a>
</g>
</g>
<!-- Node19&#45;&gt;Node18 -->
<g id="edge23" class="edge">
<title>Node19&#45;&gt;Node18</title>
<path fill="none" stroke="#9a32cd" stroke-dasharray="5,2" d="M507.5,-255.84C546.62,-256.47 591.83,-257.19 625.18,-257.73"/>
<polygon fill="#9a32cd" stroke="#9a32cd" points="507.23,-252.33 497.17,-255.67 507.11,-259.33 507.23,-252.33"/>
<text text-anchor="middle" x="550.5" y="-260.5" font-family="Helvetica,sans-Serif" font-size="10.00"> nested_policy</text>
</g>
<!-- Node20&#45;&gt;Node1 -->
<g id="edge24" class="edge">
<title>Node20&#45;&gt;Node1</title>
<path fill="none" stroke="#9a32cd" stroke-dasharray="5,2" d="M871.06,-418.34C961.25,-415.98 1140.34,-409.06 1291,-389.5 1338.63,-383.32 1351.81,-384.75 1397,-368.5 1414.31,-362.28 1432.66,-351.88 1445.06,-344.22"/>
<polygon fill="#9a32cd" stroke="#9a32cd" points="870.94,-414.84 861.03,-418.59 871.12,-421.84 870.94,-414.84"/>
<text text-anchor="middle" x="1114" y="-412.5" font-family="Helvetica,sans-Serif" font-size="10.00"> prod3</text>
</g>
<!-- Node21&#45;&gt;Node1 -->
<g id="edge27" class="edge">
<title>Node21&#45;&gt;Node1</title>
<path fill="none" stroke="#9a32cd" stroke-dasharray="5,2" d="M1173.41,-375.69C1230.62,-370.55 1320.14,-361.36 1397,-348.5 1404.51,-347.24 1412.48,-345.67 1420.13,-344.03"/>
<polygon fill="#9a32cd" stroke="#9a32cd" points="1172.77,-372.23 1163.12,-376.6 1173.39,-379.2 1172.77,-372.23"/>
<text text-anchor="middle" x="1236" y="-377.5" font-family="Helvetica,sans-Serif" font-size="10.00"> optmin</text>
</g>
<!-- Node22&#45;&gt;Node1 -->
<g id="edge29" class="edge">
<title>Node22&#45;&gt;Node1</title>
<path fill="none" stroke="#9a32cd" stroke-dasharray="5,2" d="M734.01,-61.71C896.72,-60.04 1346.01,-59.25 1397,-100.5 1433.31,-129.87 1454.02,-284.27 1458.88,-324.77"/>
<polygon fill="#9a32cd" stroke="#9a32cd" points="733.67,-58.21 723.71,-61.82 733.75,-65.21 733.67,-58.21"/>
<text text-anchor="middle" x="1114" y="-70.5" font-family="Helvetica,sans-Serif" font-size="10.00"> equality</text>
</g>
<!-- Node23 -->
<g id="node23" class="node">
<title>Node23</title>
<g id="a_node23"><a xlink:href="structadiar_1_1statistics_1_1equality__t_1_1fast__t.html" target="_top" xlink:title="Statistics from O(N) linear&#45;scan equality checking algorithm.">
<polygon fill="none" stroke="black" points="373.5,-0.5 373.5,-30.5 472.5,-30.5 472.5,-0.5 373.5,-0.5"/>
<text text-anchor="start" x="381.5" y="-18.5" font-family="Helvetica,sans-Serif" font-size="10.00">adiar::statistics::</text>
<text text-anchor="middle" x="423" y="-7.5" font-family="Helvetica,sans-Serif" font-size="10.00">equality_t::fast_t</text>
</a>
</g>
</g>
<!-- Node23&#45;&gt;Node22 -->
<g id="edge31" class="edge">
<title>Node23&#45;&gt;Node22</title>
<path fill="none" stroke="#9a32cd" stroke-dasharray="5,2" d="M482.57,-26.53C526.03,-34.72 584.59,-45.75 625.35,-53.43"/>
<polygon fill="#9a32cd" stroke="#9a32cd" points="483.17,-23.09 472.7,-24.67 481.88,-29.96 483.17,-23.09"/>
<text text-anchor="middle" x="550.5" y="-49.5" font-family="Helvetica,sans-Serif" font-size="10.00"> fast_check</text>
</g>
<!-- Node24 -->
<g id="node24" class="node">
<title>Node24</title>
<g id="a_node24"><a xlink:href="structadiar_1_1statistics_1_1equality__t_1_1slow__t.html" target="_top" xlink:title="Statistics from O(N log N) time&#45;forward processing equality checking algorithm.">
<polygon fill="none" stroke="black" points="371.5,-49.5 371.5,-79.5 474.5,-79.5 474.5,-49.5 371.5,-49.5"/>
<text text-anchor="start" x="379.5" y="-67.5" font-family="Helvetica,sans-Serif" font-size="10.00">adiar::statistics::</text>
<text text-anchor="middle" x="423" y="-56.5" font-family="Helvetica,sans-Serif" font-size="10.00">equality_t::slow_t</text>
</a>
</g>
</g>
<!-- Node24&#45;&gt;Node22 -->
<g id="edge32" class="edge">
<title>Node24&#45;&gt;Node22</title>
<path fill="none" stroke="#9a32cd" stroke-dasharray="5,2" d="M484.9,-64.01C528.1,-63.67 585.29,-63.21 625.32,-62.89"/>
<polygon fill="#9a32cd" stroke="#9a32cd" points="484.76,-60.51 474.79,-64.09 484.82,-67.51 484.76,-60.51"/>
<text text-anchor="middle" x="550.5" y="-67.5" font-family="Helvetica,sans-Serif" font-size="10.00"> slow_check</text>
</g>
<!-- Node25&#45;&gt;Node1 -->
<g id="edge33" class="edge">
<title>Node25&#45;&gt;Node1</title>
<path fill="none" stroke="#9a32cd" stroke-dasharray="5,2" d="M871.44,-339.05C998.98,-338.06 1300.02,-335.74 1414.62,-334.85"/>
<polygon fill="#9a32cd" stroke="#9a32cd" points="871.07,-335.55 861.1,-339.13 871.13,-342.55 871.07,-335.55"/>
<text text-anchor="middle" x="1114" y="-340.5" font-family="Helvetica,sans-Serif" font-size="10.00"> count</text>
</g>
<!-- Node26 -->
<g id="node26" class="node">
<title>Node26</title>
<g id="a_node26"><a xlink:href="structadiar_1_1statistics_1_1node__file__t.html" target="_top" xlink:title="Node Files statistics.">
<polygon fill="none" stroke="black" points="1187,-17.5 1187,-47.5 1285,-47.5 1285,-17.5 1187,-17.5"/>
<text text-anchor="start" x="1195" y="-35.5" font-family="Helvetica,sans-Serif" font-size="10.00">adiar::statistics::</text>
<text text-anchor="middle" x="1236" y="-24.5" font-family="Helvetica,sans-Serif" font-size="10.00">node_file_t</text>
</a>
</g>
</g>
<!-- Node26&#45;&gt;Node1 -->
<g id="edge36" class="edge">
<title>Node26&#45;&gt;Node1</title>
<path fill="none" stroke="#9a32cd" stroke-dasharray="5,2" d="M1295.48,-24.06C1329.16,-22.59 1370.01,-27.11 1397,-51.5 1439.01,-89.47 1455.84,-279.31 1459.3,-324.73"/>
<polygon fill="#9a32cd" stroke="#9a32cd" points="1295.05,-20.58 1285.29,-24.69 1295.48,-27.56 1295.05,-20.58"/>
<text text-anchor="middle" x="1353" y="-54.5" font-family="Helvetica,sans-Serif" font-size="10.00"> node_file</text>
</g>
</g>
</svg>
