<?xml version="1.0" encoding="UTF-8" standalone="no"?>
<!DOCTYPE svg PUBLIC "-//W3C//DTD SVG 1.1//EN"
 "http://www.w3.org/Graphics/SVG/1.1/DTD/svg11.dtd">
<!-- Generated by graphviz version 2.43.0 (0)
 -->
<!-- Title: adiar::statistics::quantify_t Pages: 1 -->
<svg width="779pt" height="235pt"
 viewBox="0.00 0.00 779.00 235.00" xmlns="http://www.w3.org/2000/svg" xmlns:xlink="http://www.w3.org/1999/xlink">
<g id="graph0" class="graph" transform="scale(1 1) rotate(0) translate(4 231)">
<title>adiar::statistics::quantify_t</title>
<!-- Node1 -->
<g id="node1" class="node">
<title>Node1</title>
<g id="a_node1"><a xlink:title="Quantification algorithm statistics.">
<polygon fill="#bfbfbf" stroke="black" points="673,-98.5 673,-128.5 771,-128.5 771,-98.5 673,-98.5"/>
<text text-anchor="start" x="681" y="-116.5" font-family="Helvetica,sans-Serif" font-size="10.00">adiar::statistics::</text>
<text text-anchor="middle" x="722" y="-105.5" font-family="Helvetica,sans-Serif" font-size="10.00">quantify_t</text>
</a>
</g>
</g>
<!-- Node2 -->
<g id="node2" class="node">
<title>Node2</title>
<g id="a_node2"><a xlink:href="structadiar_1_1statistics_1_1____alg__base.html" target="_top" xlink:title="Common statistics for all algorithms.">
<polygon fill="none" stroke="black" points="391,-196.5 391,-226.5 489,-226.5 489,-196.5 391,-196.5"/>
<text text-anchor="start" x="399" y="-214.5" font-family="Helvetica,sans-Serif" font-size="10.00">adiar::statistics::</text>
<text text-anchor="middle" x="440" y="-203.5" font-family="Helvetica,sans-Serif" font-size="10.00">__alg_base</text>
</a>
</g>
</g>
<!-- Node2&#45;&gt;Node1 -->
<g id="edge1" class="edge">
<title>Node2&#45;&gt;Node1</title>
<path fill="none" stroke="midnightblue" d="M499.18,-204.8C543.45,-198.15 605.06,-185.51 655,-162.5 673.53,-153.96 691.96,-139.67 704.61,-128.72"/>
<polygon fill="midnightblue" stroke="midnightblue" points="498.56,-201.35 489.16,-206.24 499.56,-208.28 498.56,-201.35"/>
</g>
<!-- Node3 -->
<g id="node3" class="node">
<title>Node3</title>
<g id="a_node3"><a xlink:href="structadiar_1_1statistics_1_1____alg__base_1_1____lpq__t.html" target="_top" xlink:title="Type and usage of this algorithm&#39;s levelized priority queue.">
<polygon fill="none" stroke="black" points="183,-196.5 183,-226.5 294,-226.5 294,-196.5 183,-196.5"/>
<text text-anchor="start" x="191" y="-214.5" font-family="Helvetica,sans-Serif" font-size="10.00">adiar::statistics::</text>
<text text-anchor="middle" x="238.5" y="-203.5" font-family="Helvetica,sans-Serif" font-size="10.00">__alg_base::__lpq_t</text>
</a>
</g>
</g>
<!-- Node3&#45;&gt;Node2 -->
<g id="edge2" class="edge">
<title>Node3&#45;&gt;Node2</title>
<path fill="none" stroke="#9a32cd" stroke-dasharray="5,2" d="M304.16,-211.5C332.29,-211.5 364.69,-211.5 390.67,-211.5"/>
<polygon fill="#9a32cd" stroke="#9a32cd" points="304.01,-208 294.01,-211.5 304.01,-215 304.01,-208"/>
<text text-anchor="middle" x="321.5" y="-214.5" font-family="Helvetica,sans-Serif" font-size="10.00"> lpq</text>
</g>
<!-- Node4 -->
<g id="node4" class="node">
<title>Node4</title>
<g id="a_node4"><a xlink:href="structadiar_1_1statistics_1_1levelized__priority__queue__t.html" target="_top" xlink:title="Levelized Priority Queue statistics.">
<polygon fill="none" stroke="black" points="0,-196.5 0,-226.5 146,-226.5 146,-196.5 0,-196.5"/>
<text text-anchor="start" x="8" y="-214.5" font-family="Helvetica,sans-Serif" font-size="10.00">adiar::statistics::</text>
<text text-anchor="middle" x="73" y="-203.5" font-family="Helvetica,sans-Serif" font-size="10.00">levelized_priority_queue_t</text>
</a>
</g>
</g>
<!-- Node4&#45;&gt;Node3 -->
<g id="edge3" class="edge">
<title>Node4&#45;&gt;Node3</title>
<path fill="none" stroke="midnightblue" d="M156.34,-211.5C165.34,-211.5 174.34,-211.5 182.89,-211.5"/>
<polygon fill="midnightblue" stroke="midnightblue" points="156.19,-208 146.19,-211.5 156.19,-215 156.19,-208"/>
</g>
<!-- Node5 -->
<g id="node5" class="node">
<title>Node5</title>
<g id="a_node5"><a xlink:href="structadiar_1_1statistics_1_1quantify__t_1_1nested__transposition__t.html" target="_top" xlink:title="Transposition algorithms prior to nested multi&#45;variable sweeping.">
<polygon fill="none" stroke="black" points="349,-147.5 349,-177.5 531,-177.5 531,-147.5 349,-147.5"/>
<text text-anchor="start" x="357" y="-165.5" font-family="Helvetica,sans-Serif" font-size="10.00">adiar::statistics::</text>
<text text-anchor="middle" x="440" y="-154.5" font-family="Helvetica,sans-Serif" font-size="10.00">quantify_t::nested_transposition_t</text>
</a>
</g>
</g>
<!-- Node5&#45;&gt;Node1 -->
<g id="edge4" class="edge">
<title>Node5&#45;&gt;Node1</title>
<path fill="none" stroke="#9a32cd" stroke-dasharray="5,2" d="M541.06,-148C577.07,-142.41 617.94,-135.65 655,-128.5 660.77,-127.39 666.8,-126.14 672.78,-124.85"/>
<polygon fill="#9a32cd" stroke="#9a32cd" points="540.39,-144.56 531.04,-149.54 541.45,-151.48 540.39,-144.56"/>
<text text-anchor="middle" x="602" y="-150.5" font-family="Helvetica,sans-Serif" font-size="10.00"> nested_transposition</text>
</g>
<!-- Node6 -->
<g id="node6" class="node">
<title>Node6</title>
<g id="a_node6"><a xlink:href="structadiar_1_1statistics_1_1____random__access__base.html" target="_top" xlink:title="Common statistics for algorithms using random access.">
<polygon fill="none" stroke="black" points="374.5,-98.5 374.5,-128.5 505.5,-128.5 505.5,-98.5 374.5,-98.5"/>
<text text-anchor="start" x="382.5" y="-116.5" font-family="Helvetica,sans-Serif" font-size="10.00">adiar::statistics::</text>
<text text-anchor="middle" x="440" y="-105.5" font-family="Helvetica,sans-Serif" font-size="10.00">__random_access_base</text>
</a>
</g>
</g>
<!-- Node6&#45;&gt;Node1 -->
<g id="edge5" class="edge">
<title>Node6&#45;&gt;Node1</title>
<path fill="none" stroke="#9a32cd" stroke-dasharray="5,2" d="M515.68,-113.5C565.56,-113.5 629.69,-113.5 672.9,-113.5"/>
<polygon fill="#9a32cd" stroke="#9a32cd" points="515.59,-110 505.59,-113.5 515.59,-117 515.59,-110"/>
<text text-anchor="middle" x="602" y="-116.5" font-family="Helvetica,sans-Serif" font-size="10.00"> ra</text>
</g>
<!-- Node7 -->
<g id="node7" class="node">
<title>Node7</title>
<g id="a_node7"><a xlink:href="structadiar_1_1statistics_1_1____pq2__base.html" target="_top" xlink:title="Common statistics for algorithms using a second priority queue.">
<polygon fill="none" stroke="black" points="391,-49.5 391,-79.5 489,-79.5 489,-49.5 391,-49.5"/>
<text text-anchor="start" x="399" y="-67.5" font-family="Helvetica,sans-Serif" font-size="10.00">adiar::statistics::</text>
<text text-anchor="middle" x="440" y="-56.5" font-family="Helvetica,sans-Serif" font-size="10.00">__pq2_base</text>
</a>
</g>
</g>
<!-- Node7&#45;&gt;Node1 -->
<g id="edge6" class="edge">
<title>Node7&#45;&gt;Node1</title>
<path fill="none" stroke="#9a32cd" stroke-dasharray="5,2" d="M499.21,-72.69C542.35,-79.02 602.51,-88.38 655,-98.5 660.77,-99.61 666.8,-100.86 672.78,-102.15"/>
<polygon fill="#9a32cd" stroke="#9a32cd" points="499.58,-69.21 489.18,-71.23 498.57,-76.13 499.58,-69.21"/>
<text text-anchor="middle" x="602" y="-101.5" font-family="Helvetica,sans-Serif" font-size="10.00"> pq</text>
</g>
<!-- Node8 -->
<g id="node8" class="node">
<title>Node8</title>
<g id="a_node8"><a xlink:href="structadiar_1_1statistics_1_1quantify__t_1_1nested__policy__t.html" target="_top" xlink:title="Nested multi&#45;variable sweeping.">
<polygon fill="none" stroke="black" points="366,-0.5 366,-30.5 514,-30.5 514,-0.5 366,-0.5"/>
<text text-anchor="start" x="374" y="-18.5" font-family="Helvetica,sans-Serif" font-size="10.00">adiar::statistics::</text>
<text text-anchor="middle" x="440" y="-7.5" font-family="Helvetica,sans-Serif" font-size="10.00">quantify_t::nested_policy_t</text>
</a>
</g>
</g>
<!-- Node8&#45;&gt;Node1 -->
<g id="edge7" class="edge">
<title>Node8&#45;&gt;Node1</title>
<path fill="none" stroke="#9a32cd" stroke-dasharray="5,2" d="M524.09,-26.96C564.81,-34.53 613.81,-46.65 655,-65.5 673.29,-73.87 691.6,-87.72 704.28,-98.4"/>
<polygon fill="#9a32cd" stroke="#9a32cd" points="524.66,-23.5 514.2,-25.17 523.42,-30.39 524.66,-23.5"/>
<text text-anchor="middle" x="602" y="-68.5" font-family="Helvetica,sans-Serif" font-size="10.00"> nested_policy</text>
</g>
</g>
</svg>
