<?xml version="1.0" encoding="UTF-8" standalone="no"?>
<!DOCTYPE svg PUBLIC "-//W3C//DTD SVG 1.1//EN"
 "http://www.w3.org/Graphics/SVG/1.1/DTD/svg11.dtd">
<!-- Generated by graphviz version 2.43.0 (0)
 -->
<!-- Title: adiar::stats_t Pages: 1 -->
<svg width="891pt" height="448pt"
 viewBox="0.00 0.00 891.00 447.50" xmlns="http://www.w3.org/2000/svg" xmlns:xlink="http://www.w3.org/1999/xlink">
<g id="graph0" class="graph" transform="scale(1 1) rotate(0) translate(4 443.5)">
<title>adiar::stats_t</title>
<!-- Node1 -->
<g id="node1" class="node">
<title>Node1</title>
<g id="a_node1"><a xlink:title="Available statistics from algorithm&#39;s and data structures.">
<polygon fill="#bfbfbf" stroke="black" points="803,-206 803,-225 883,-225 883,-206 803,-206"/>
<text text-anchor="middle" x="843" y="-213" font-family="Helvetica,sans-Serif" font-size="10.00">adiar::stats_t</text>
</a>
</g>
</g>
<!-- Node2 -->
<g id="node2" class="node">
<title>Node2</title>
<g id="a_node2"><a xlink:href="structadiar_1_1stats__t_1_1levelized__priority__queue__t.html" target="_top" xlink:title="Levelized Priority Queue statistics.">
<polygon fill="none" stroke="black" points="0,-380.5 0,-410.5 131,-410.5 131,-380.5 0,-380.5"/>
<text text-anchor="start" x="8" y="-398.5" font-family="Helvetica,sans-Serif" font-size="10.00">adiar::stats_t::levelized</text>
<text text-anchor="middle" x="65.5" y="-387.5" font-family="Helvetica,sans-Serif" font-size="10.00">_priority_queue_t</text>
</a>
</g>
</g>
<!-- Node2&#45;&gt;Node1 -->
<g id="edge1" class="edge">
<title>Node2&#45;&gt;Node1</title>
<path fill="none" stroke="#9a32cd" stroke-dasharray="5,2" d="M141.38,-410.35C167.14,-414.31 196.23,-417.5 223,-417.5 223,-417.5 223,-417.5 644,-417.5 710.2,-417.5 739.09,-417.2 785,-369.5 826.12,-326.78 838.05,-251.81 841.08,-225.21"/>
<polygon fill="#9a32cd" stroke="#9a32cd" points="141.74,-406.86 131.32,-408.74 140.64,-413.78 141.74,-406.86"/>
<text text-anchor="start" x="361" y="-431.5" font-family="Helvetica,sans-Serif" font-size="10.00"> levelized_priority</text>
<text text-anchor="middle" x="405" y="-420.5" font-family="Helvetica,sans-Serif" font-size="10.00">_queue</text>
</g>
<!-- Node6 -->
<g id="node6" class="node">
<title>Node6</title>
<g id="a_node6"><a xlink:href="structadiar_1_1stats__t_1_1____alg__base_1_1____lpq.html" target="_top" xlink:title="Type and usage of this algorithm&#39;s levelized priority queue.">
<polygon fill="none" stroke="black" points="168,-319.5 168,-349.5 280,-349.5 280,-319.5 168,-319.5"/>
<text text-anchor="start" x="176" y="-337.5" font-family="Helvetica,sans-Serif" font-size="10.00">adiar::stats_t::__alg</text>
<text text-anchor="middle" x="224" y="-326.5" font-family="Helvetica,sans-Serif" font-size="10.00">_base::__lpq</text>
</a>
</g>
</g>
<!-- Node2&#45;&gt;Node6 -->
<g id="edge6" class="edge">
<title>Node2&#45;&gt;Node6</title>
<path fill="none" stroke="midnightblue" d="M114.54,-376.77C137,-368.02 163.37,-357.74 184.49,-349.51"/>
<polygon fill="midnightblue" stroke="midnightblue" points="113.23,-373.53 105.19,-380.42 115.77,-380.05 113.23,-373.53"/>
</g>
<!-- Node3 -->
<g id="node3" class="node">
<title>Node3</title>
<g id="a_node3"><a xlink:href="structadiar_1_1stats__t_1_1arc__file__t.html" target="_top" xlink:title="Arc Files statistics.">
<polygon fill="none" stroke="black" points="592.5,-358.5 592.5,-388.5 693.5,-388.5 693.5,-358.5 592.5,-358.5"/>
<text text-anchor="start" x="600.5" y="-376.5" font-family="Helvetica,sans-Serif" font-size="10.00">adiar::stats_t::arc</text>
<text text-anchor="middle" x="643" y="-365.5" font-family="Helvetica,sans-Serif" font-size="10.00">_file_t</text>
</a>
</g>
</g>
<!-- Node3&#45;&gt;Node1 -->
<g id="edge2" class="edge">
<title>Node3&#45;&gt;Node1</title>
<path fill="none" stroke="#9a32cd" stroke-dasharray="5,2" d="M703.55,-364.81C730.87,-358.31 762.17,-347.03 785,-327.5 818.16,-299.13 834.3,-246.73 839.77,-225.16"/>
<polygon fill="#9a32cd" stroke="#9a32cd" points="702.7,-361.41 693.69,-366.99 704.21,-368.25 702.7,-361.41"/>
<text text-anchor="middle" x="759" y="-357.5" font-family="Helvetica,sans-Serif" font-size="10.00"> arc_file</text>
</g>
<!-- Node4 -->
<g id="node4" class="node">
<title>Node4</title>
<g id="a_node4"><a xlink:href="structadiar_1_1stats__t_1_1intercut__t.html" target="_top" xlink:title="Intercut algorithm statistics.">
<polygon fill="none" stroke="black" points="576.5,-206 576.5,-225 709.5,-225 709.5,-206 576.5,-206"/>
<text text-anchor="middle" x="643" y="-213" font-family="Helvetica,sans-Serif" font-size="10.00">adiar::stats_t::intercut_t</text>
</a>
</g>
</g>
<!-- Node4&#45;&gt;Node1 -->
<g id="edge3" class="edge">
<title>Node4&#45;&gt;Node1</title>
<path fill="none" stroke="#9a32cd" stroke-dasharray="5,2" d="M719.93,-215.5C748.21,-215.5 779.14,-215.5 802.79,-215.5"/>
<polygon fill="#9a32cd" stroke="#9a32cd" points="719.66,-212 709.66,-215.5 719.66,-219 719.66,-212"/>
<text text-anchor="middle" x="759" y="-218.5" font-family="Helvetica,sans-Serif" font-size="10.00"> intercut</text>
</g>
<!-- Node5 -->
<g id="node5" class="node">
<title>Node5</title>
<g id="a_node5"><a xlink:href="structadiar_1_1stats__t_1_1____alg__base.html" target="_top" xlink:title="Common statistics for all algorithms.">
<polygon fill="none" stroke="black" points="335,-206 335,-225 475,-225 475,-206 335,-206"/>
<text text-anchor="middle" x="405" y="-213" font-family="Helvetica,sans-Serif" font-size="10.00">adiar::stats_t::__alg_base</text>
</a>
</g>
</g>
<!-- Node5&#45;&gt;Node4 -->
<g id="edge4" class="edge">
<title>Node5&#45;&gt;Node4</title>
<path fill="none" stroke="midnightblue" d="M485.51,-215.5C515.07,-215.5 548.26,-215.5 576.43,-215.5"/>
<polygon fill="midnightblue" stroke="midnightblue" points="485.21,-212 475.21,-215.5 485.21,-219 485.21,-212"/>
</g>
<!-- Node7 -->
<g id="node7" class="node">
<title>Node7</title>
<g id="a_node7"><a xlink:href="structadiar_1_1stats__t_1_1equality__t.html" target="_top" xlink:title="Equality Checking algorithm statistics.">
<polygon fill="none" stroke="black" points="575.5,-320 575.5,-339 710.5,-339 710.5,-320 575.5,-320"/>
<text text-anchor="middle" x="643" y="-327" font-family="Helvetica,sans-Serif" font-size="10.00">adiar::stats_t::equality_t</text>
</a>
</g>
</g>
<!-- Node5&#45;&gt;Node7 -->
<g id="edge8" class="edge">
<title>Node5&#45;&gt;Node7</title>
<path fill="none" stroke="midnightblue" d="M427.53,-231.04C457.98,-252.25 516.04,-289.98 571,-310.5 580.56,-314.07 591.08,-317.27 601.03,-319.97"/>
<polygon fill="midnightblue" stroke="midnightblue" points="429.54,-228.17 419.36,-225.27 425.51,-233.89 429.54,-228.17"/>
</g>
<!-- Node10 -->
<g id="node10" class="node">
<title>Node10</title>
<g id="a_node10"><a xlink:href="structadiar_1_1stats__t_1_1quantify__t.html" target="_top" xlink:title="Quantification algorithm statistics.">
<polygon fill="none" stroke="black" points="575.5,-92 575.5,-111 710.5,-111 710.5,-92 575.5,-92"/>
<text text-anchor="middle" x="643" y="-99" font-family="Helvetica,sans-Serif" font-size="10.00">adiar::stats_t::quantify_t</text>
</a>
</g>
</g>
<!-- Node5&#45;&gt;Node10 -->
<g id="edge12" class="edge">
<title>Node5&#45;&gt;Node10</title>
<path fill="none" stroke="midnightblue" d="M427.99,-199.85C458.61,-178.77 516.49,-141.5 571,-120.5 580.29,-116.92 590.51,-113.76 600.23,-111.09"/>
<polygon fill="midnightblue" stroke="midnightblue" points="425.6,-197.25 419.4,-205.84 429.6,-202.99 425.6,-197.25"/>
</g>
<!-- Node11 -->
<g id="node11" class="node">
<title>Node11</title>
<g id="a_node11"><a xlink:href="structadiar_1_1stats__t_1_1substitute__t.html" target="_top" xlink:title="Substitution algorithm statistics.">
<polygon fill="none" stroke="black" points="571,-282 571,-301 715,-301 715,-282 571,-282"/>
<text text-anchor="middle" x="643" y="-289" font-family="Helvetica,sans-Serif" font-size="10.00">adiar::stats_t::substitute_t</text>
</a>
</g>
</g>
<!-- Node5&#45;&gt;Node11 -->
<g id="edge14" class="edge">
<title>Node5&#45;&gt;Node11</title>
<path fill="none" stroke="midnightblue" d="M439.38,-228.73C455.49,-234.98 475.16,-242.38 493,-248.5 527.31,-260.27 536.14,-262.48 571,-272.5 582.16,-275.71 594.36,-279.04 605.44,-281.99"/>
<polygon fill="midnightblue" stroke="midnightblue" points="440.44,-225.39 429.85,-225.02 437.9,-231.91 440.44,-225.39"/>
</g>
<!-- Node12 -->
<g id="node12" class="node">
<title>Node12</title>
<g id="a_node12"><a xlink:href="structadiar_1_1stats__t_1_1prod2__t.html" target="_top" xlink:title="2&#45;ary Product Construction algorithm statistics.">
<polygon fill="none" stroke="black" points="581.5,-54 581.5,-73 704.5,-73 704.5,-54 581.5,-54"/>
<text text-anchor="middle" x="643" y="-61" font-family="Helvetica,sans-Serif" font-size="10.00">adiar::stats_t::prod2_t</text>
</a>
</g>
</g>
<!-- Node5&#45;&gt;Node12 -->
<g id="edge16" class="edge">
<title>Node5&#45;&gt;Node12</title>
<path fill="none" stroke="midnightblue" d="M419.89,-197.95C436,-178.37 464.07,-146.53 493,-124.5 524.32,-100.64 534.4,-97.02 571,-82.5 580.13,-78.88 590.19,-75.71 599.8,-73.06"/>
<polygon fill="midnightblue" stroke="midnightblue" points="417.13,-195.8 413.55,-205.77 422.57,-200.2 417.13,-195.8"/>
</g>
<!-- Node15 -->
<g id="node15" class="node">
<title>Node15</title>
<g id="a_node15"><a xlink:href="structadiar_1_1stats__t_1_1reduce__t.html" target="_top" xlink:title="Reduce algorithm statistics.">
<polygon fill="none" stroke="black" points="579,-244 579,-263 707,-263 707,-244 579,-244"/>
<text text-anchor="middle" x="643" y="-251" font-family="Helvetica,sans-Serif" font-size="10.00">adiar::stats_t::reduce_t</text>
</a>
</g>
</g>
<!-- Node5&#45;&gt;Node15 -->
<g id="edge20" class="edge">
<title>Node5&#45;&gt;Node15</title>
<path fill="none" stroke="midnightblue" d="M475.15,-226.63C509.28,-232.13 550.04,-238.69 582.73,-243.96"/>
<polygon fill="midnightblue" stroke="midnightblue" points="475.68,-223.17 465.25,-225.04 474.56,-230.09 475.68,-223.17"/>
</g>
<!-- Node16 -->
<g id="node16" class="node">
<title>Node16</title>
<g id="a_node16"><a xlink:href="structadiar_1_1stats__t_1_1count__t.html" target="_top" xlink:title="Counting algorithm statistics.">
<polygon fill="none" stroke="black" points="582,-168 582,-187 704,-187 704,-168 582,-168"/>
<text text-anchor="middle" x="643" y="-175" font-family="Helvetica,sans-Serif" font-size="10.00">adiar::stats_t::count_t</text>
</a>
</g>
</g>
<!-- Node5&#45;&gt;Node16 -->
<g id="edge22" class="edge">
<title>Node5&#45;&gt;Node16</title>
<path fill="none" stroke="midnightblue" d="M475.15,-204.37C509.28,-198.87 550.04,-192.31 582.73,-187.04"/>
<polygon fill="midnightblue" stroke="midnightblue" points="474.56,-200.91 465.25,-205.96 475.68,-207.83 474.56,-200.91"/>
</g>
<!-- Node17 -->
<g id="node17" class="node">
<title>Node17</title>
<g id="a_node17"><a xlink:href="structadiar_1_1stats__t_1_1prod3__t.html" target="_top" xlink:title="3&#45;ary Product Construction algorithm statistics.">
<polygon fill="none" stroke="black" points="581.5,-130 581.5,-149 704.5,-149 704.5,-130 581.5,-130"/>
<text text-anchor="middle" x="643" y="-137" font-family="Helvetica,sans-Serif" font-size="10.00">adiar::stats_t::prod3_t</text>
</a>
</g>
</g>
<!-- Node5&#45;&gt;Node17 -->
<g id="edge24" class="edge">
<title>Node5&#45;&gt;Node17</title>
<path fill="none" stroke="midnightblue" d="M441.54,-202.4C474.79,-190.34 525.96,-172.29 571,-158.5 581.74,-155.21 593.48,-151.94 604.27,-149.06"/>
<polygon fill="midnightblue" stroke="midnightblue" points="440.02,-199.23 431.82,-205.94 442.41,-205.81 440.02,-199.23"/>
</g>
<!-- Node6&#45;&gt;Node5 -->
<g id="edge5" class="edge">
<title>Node6&#45;&gt;Node5</title>
<path fill="none" stroke="#9a32cd" stroke-dasharray="5,2" d="M256.03,-313.87C295,-287.96 360.26,-244.58 389.3,-225.27"/>
<polygon fill="#9a32cd" stroke="#9a32cd" points="254.06,-310.98 247.67,-319.43 257.94,-316.81 254.06,-310.98"/>
<text text-anchor="middle" x="307.5" y="-289.5" font-family="Helvetica,sans-Serif" font-size="10.00"> lpq</text>
</g>
<!-- Node7&#45;&gt;Node1 -->
<g id="edge7" class="edge">
<title>Node7&#45;&gt;Node1</title>
<path fill="none" stroke="#9a32cd" stroke-dasharray="5,2" d="M716.01,-317.45C739.45,-311.17 764.66,-301.7 785,-287.5 809.06,-270.71 827.98,-240.86 836.72,-225.4"/>
<polygon fill="#9a32cd" stroke="#9a32cd" points="714.93,-314.12 706.09,-319.96 716.64,-320.9 714.93,-314.12"/>
<text text-anchor="middle" x="759" y="-315.5" font-family="Helvetica,sans-Serif" font-size="10.00"> equality</text>
</g>
<!-- Node8 -->
<g id="node8" class="node">
<title>Node8</title>
<g id="a_node8"><a xlink:href="structadiar_1_1stats__t_1_1equality__t_1_1slow__t.html" target="_top" xlink:title="Statistics from O(N log N) time&#45;forward processing equality checking algorithm.">
<polygon fill="none" stroke="black" points="342,-350.5 342,-380.5 468,-380.5 468,-350.5 342,-350.5"/>
<text text-anchor="start" x="350" y="-368.5" font-family="Helvetica,sans-Serif" font-size="10.00">adiar::stats_t::equality</text>
<text text-anchor="middle" x="405" y="-357.5" font-family="Helvetica,sans-Serif" font-size="10.00">_t::slow_t</text>
</a>
</g>
</g>
<!-- Node8&#45;&gt;Node7 -->
<g id="edge9" class="edge">
<title>Node8&#45;&gt;Node7</title>
<path fill="none" stroke="#9a32cd" stroke-dasharray="5,2" d="M478.31,-354.47C510.68,-349.53 548.48,-343.77 579.59,-339.02"/>
<polygon fill="#9a32cd" stroke="#9a32cd" points="477.36,-351.07 468.01,-356.04 478.42,-357.99 477.36,-351.07"/>
<text text-anchor="middle" x="523" y="-354.5" font-family="Helvetica,sans-Serif" font-size="10.00"> slow_check</text>
</g>
<!-- Node9 -->
<g id="node9" class="node">
<title>Node9</title>
<g id="a_node9"><a xlink:href="structadiar_1_1stats__t_1_1equality__t_1_1fast__t.html" target="_top" xlink:title="Statistics from O(N) linear&#45;scan equality checking algorithm.">
<polygon fill="none" stroke="black" points="342,-301.5 342,-331.5 468,-331.5 468,-301.5 342,-301.5"/>
<text text-anchor="start" x="350" y="-319.5" font-family="Helvetica,sans-Serif" font-size="10.00">adiar::stats_t::equality</text>
<text text-anchor="middle" x="405" y="-308.5" font-family="Helvetica,sans-Serif" font-size="10.00">_t::fast_t</text>
</a>
</g>
</g>
<!-- Node9&#45;&gt;Node7 -->
<g id="edge10" class="edge">
<title>Node9&#45;&gt;Node7</title>
<path fill="none" stroke="#9a32cd" stroke-dasharray="5,2" d="M478.3,-320.48C509.25,-322.19 545.16,-324.17 575.45,-325.83"/>
<polygon fill="#9a32cd" stroke="#9a32cd" points="478.18,-316.97 468.01,-319.92 477.8,-323.96 478.18,-316.97"/>
<text text-anchor="middle" x="523" y="-327.5" font-family="Helvetica,sans-Serif" font-size="10.00"> fast_check</text>
</g>
<!-- Node10&#45;&gt;Node1 -->
<g id="edge11" class="edge">
<title>Node10&#45;&gt;Node1</title>
<path fill="none" stroke="#9a32cd" stroke-dasharray="5,2" d="M713.79,-113.52C737.86,-119.97 764.02,-129.76 785,-144.5 808.8,-161.22 827.83,-190.58 836.66,-205.78"/>
<polygon fill="#9a32cd" stroke="#9a32cd" points="714.54,-110.1 703.98,-111.04 712.82,-116.88 714.54,-110.1"/>
<text text-anchor="middle" x="759" y="-147.5" font-family="Helvetica,sans-Serif" font-size="10.00"> quantify</text>
</g>
<!-- Node11&#45;&gt;Node1 -->
<g id="edge13" class="edge">
<title>Node11&#45;&gt;Node1</title>
<path fill="none" stroke="#9a32cd" stroke-dasharray="5,2" d="M707.74,-279.67C732.51,-273.82 760.72,-265.59 785,-254.5 802.02,-246.73 819.46,-233.95 830.49,-225.15"/>
<polygon fill="#9a32cd" stroke="#9a32cd" points="706.68,-276.32 697.71,-281.95 708.24,-283.14 706.68,-276.32"/>
<text text-anchor="middle" x="759" y="-275.5" font-family="Helvetica,sans-Serif" font-size="10.00"> substitute</text>
</g>
<!-- Node12&#45;&gt;Node1 -->
<g id="edge15" class="edge">
<title>Node12&#45;&gt;Node1</title>
<path fill="none" stroke="#9a32cd" stroke-dasharray="5,2" d="M714.82,-72.65C739.22,-78.7 765.34,-88.77 785,-105.5 817.6,-133.24 833.96,-184.32 839.63,-205.69"/>
<polygon fill="#9a32cd" stroke="#9a32cd" points="715.37,-69.18 704.85,-70.36 713.81,-76.01 715.37,-69.18"/>
<text text-anchor="middle" x="759" y="-108.5" font-family="Helvetica,sans-Serif" font-size="10.00"> prod2</text>
</g>
<!-- Node13 -->
<g id="node13" class="node">
<title>Node13</title>
<g id="a_node13"><a xlink:href="structadiar_1_1stats__t_1_1prod2__t_1_1ra__t.html" target="_top" xlink:title="Statistics for the double priority queue implementation.">
<polygon fill="none" stroke="black" points="348,-49.5 348,-79.5 462,-79.5 462,-49.5 348,-49.5"/>
<text text-anchor="start" x="356" y="-67.5" font-family="Helvetica,sans-Serif" font-size="10.00">adiar::stats_t::prod2</text>
<text text-anchor="middle" x="405" y="-56.5" font-family="Helvetica,sans-Serif" font-size="10.00">_t::ra_t</text>
</a>
</g>
</g>
<!-- Node13&#45;&gt;Node12 -->
<g id="edge17" class="edge">
<title>Node13&#45;&gt;Node12</title>
<path fill="none" stroke="#9a32cd" stroke-dasharray="5,2" d="M472.58,-64.22C506.71,-64.07 547.98,-63.9 581.24,-63.76"/>
<polygon fill="#9a32cd" stroke="#9a32cd" points="472.21,-60.72 462.23,-64.26 472.24,-67.72 472.21,-60.72"/>
<text text-anchor="middle" x="523" y="-67.5" font-family="Helvetica,sans-Serif" font-size="10.00"> ra</text>
</g>
<!-- Node14 -->
<g id="node14" class="node">
<title>Node14</title>
<g id="a_node14"><a xlink:href="structadiar_1_1stats__t_1_1prod2__t_1_1pq__t.html" target="_top" xlink:title="Statistics for the double priority queue implementation.">
<polygon fill="none" stroke="black" points="348,-0.5 348,-30.5 462,-30.5 462,-0.5 348,-0.5"/>
<text text-anchor="start" x="356" y="-18.5" font-family="Helvetica,sans-Serif" font-size="10.00">adiar::stats_t::prod2</text>
<text text-anchor="middle" x="405" y="-7.5" font-family="Helvetica,sans-Serif" font-size="10.00">_t::pq_t</text>
</a>
</g>
</g>
<!-- Node14&#45;&gt;Node12 -->
<g id="edge18" class="edge">
<title>Node14&#45;&gt;Node12</title>
<path fill="none" stroke="#9a32cd" stroke-dasharray="5,2" d="M472.45,-29.02C511.47,-36.95 559.86,-46.79 594.94,-53.93"/>
<polygon fill="#9a32cd" stroke="#9a32cd" points="472.73,-25.5 462.23,-26.94 471.33,-32.36 472.73,-25.5"/>
<text text-anchor="middle" x="523" y="-48.5" font-family="Helvetica,sans-Serif" font-size="10.00"> pq</text>
</g>
<!-- Node15&#45;&gt;Node1 -->
<g id="edge19" class="edge">
<title>Node15&#45;&gt;Node1</title>
<path fill="none" stroke="#9a32cd" stroke-dasharray="5,2" d="M715.98,-242.28C738.17,-238.54 762.65,-234.14 785,-229.5 791.49,-228.15 798.35,-226.59 804.99,-225"/>
<polygon fill="#9a32cd" stroke="#9a32cd" points="715.24,-238.85 705.95,-243.95 716.39,-245.76 715.24,-238.85"/>
<text text-anchor="middle" x="759" y="-242.5" font-family="Helvetica,sans-Serif" font-size="10.00"> reduce</text>
</g>
<!-- Node16&#45;&gt;Node1 -->
<g id="edge21" class="edge">
<title>Node16&#45;&gt;Node1</title>
<path fill="none" stroke="#9a32cd" stroke-dasharray="5,2" d="M714.16,-187.59C736.85,-191.21 762.07,-195.62 785,-200.5 792.41,-202.07 800.29,-203.99 807.77,-205.92"/>
<polygon fill="#9a32cd" stroke="#9a32cd" points="714.69,-184.13 704.27,-186.03 713.61,-191.05 714.69,-184.13"/>
<text text-anchor="middle" x="759" y="-203.5" font-family="Helvetica,sans-Serif" font-size="10.00"> count</text>
</g>
<!-- Node17&#45;&gt;Node1 -->
<g id="edge23" class="edge">
<title>Node17&#45;&gt;Node1</title>
<path fill="none" stroke="#9a32cd" stroke-dasharray="5,2" d="M707.74,-151.33C732.51,-157.18 760.72,-165.41 785,-176.5 802.02,-184.27 819.46,-197.05 830.49,-205.85"/>
<polygon fill="#9a32cd" stroke="#9a32cd" points="708.24,-147.86 697.71,-149.05 706.68,-154.68 708.24,-147.86"/>
<text text-anchor="middle" x="759" y="-179.5" font-family="Helvetica,sans-Serif" font-size="10.00"> prod3</text>
</g>
<!-- Node18 -->
<g id="node18" class="node">
<title>Node18</title>
<g id="a_node18"><a xlink:href="structadiar_1_1stats__t_1_1node__file__t.html" target="_top" xlink:title="Node Files statistics.">
<polygon fill="none" stroke="black" points="588,-4.5 588,-34.5 698,-34.5 698,-4.5 588,-4.5"/>
<text text-anchor="start" x="596" y="-22.5" font-family="Helvetica,sans-Serif" font-size="10.00">adiar::stats_t::node</text>
<text text-anchor="middle" x="643" y="-11.5" font-family="Helvetica,sans-Serif" font-size="10.00">_file_t</text>
</a>
</g>
</g>
<!-- Node18&#45;&gt;Node1 -->
<g id="edge25" class="edge">
<title>Node18&#45;&gt;Node1</title>
<path fill="none" stroke="#9a32cd" stroke-dasharray="5,2" d="M708.35,-27.51C734.91,-33.74 764.26,-44.81 785,-64.5 827.27,-104.63 838.48,-179.23 841.2,-205.8"/>
<polygon fill="#9a32cd" stroke="#9a32cd" points="708.85,-24.04 698.33,-25.35 707.37,-30.88 708.85,-24.04"/>
<text text-anchor="middle" x="759" y="-67.5" font-family="Helvetica,sans-Serif" font-size="10.00"> node_file</text>
</g>
</g>
</svg>
