<?xml version="1.0" encoding="UTF-8" standalone="no"?>
<!DOCTYPE svg PUBLIC "-//W3C//DTD SVG 1.1//EN"
 "http://www.w3.org/Graphics/SVG/1.1/DTD/svg11.dtd">
<!-- Generated by graphviz version 2.43.0 (0)
 -->
<!-- Title: adiar::statistics Pages: 1 -->
<svg width="1515pt" height="798pt"
 viewBox="0.00 0.00 1515.00 797.50" xmlns="http://www.w3.org/2000/svg" xmlns:xlink="http://www.w3.org/1999/xlink">
<g id="graph0" class="graph" transform="scale(1 1) rotate(0) translate(4 793.5)">
<title>adiar::statistics</title>
<!-- Node1 -->
<g id="node1" class="node">
<title>Node1</title>
<g id="a_node1"><a xlink:title="Available statistics from algorithm&#39;s and data structures.">
<polygon fill="#bfbfbf" stroke="black" points="1415,-370 1415,-389 1507,-389 1507,-370 1415,-370"/>
<text text-anchor="middle" x="1461" y="-377" font-family="Helvetica,sans-Serif" font-size="10.00">adiar::statistics</text>
</a>
</g>
</g>
<!-- Node2 -->
<g id="node2" class="node">
<title>Node2</title>
<g id="a_node2"><a xlink:href="structadiar_1_1statistics_1_1intercut__t.html" target="_top" xlink:title="Intercut algorithm statistics.">
<polygon fill="none" stroke="black" points="763,-388.5 763,-418.5 861,-418.5 861,-388.5 763,-388.5"/>
<text text-anchor="start" x="771" y="-406.5" font-family="Helvetica,sans-Serif" font-size="10.00">adiar::statistics::</text>
<text text-anchor="middle" x="812" y="-395.5" font-family="Helvetica,sans-Serif" font-size="10.00">intercut_t</text>
</a>
</g>
</g>
<!-- Node2&#45;&gt;Node1 -->
<g id="edge1" class="edge">
<title>Node2&#45;&gt;Node1</title>
<path fill="none" stroke="#9a32cd" stroke-dasharray="5,2" d="M871.25,-403.81C976.41,-403.94 1204.93,-402.29 1397,-387.5 1402.83,-387.05 1408.94,-386.45 1414.97,-385.77"/>
<polygon fill="#9a32cd" stroke="#9a32cd" points="871.16,-400.31 861.16,-403.79 871.15,-407.31 871.16,-400.31"/>
<text text-anchor="middle" x="1114" y="-404.5" font-family="Helvetica,sans-Serif" font-size="10.00"> intercut</text>
</g>
<!-- Node3 -->
<g id="node3" class="node">
<title>Node3</title>
<g id="a_node3"><a xlink:href="structadiar_1_1statistics_1_1____alg__base.html" target="_top" xlink:title="Common statistics for all algorithms.">
<polygon fill="none" stroke="black" points="374,-379.5 374,-409.5 472,-409.5 472,-379.5 374,-379.5"/>
<text text-anchor="start" x="382" y="-397.5" font-family="Helvetica,sans-Serif" font-size="10.00">adiar::statistics::</text>
<text text-anchor="middle" x="423" y="-386.5" font-family="Helvetica,sans-Serif" font-size="10.00">__alg_base</text>
</a>
</g>
</g>
<!-- Node3&#45;&gt;Node2 -->
<g id="edge2" class="edge">
<title>Node3&#45;&gt;Node2</title>
<path fill="none" stroke="midnightblue" d="M482.65,-395.86C559.2,-397.64 691.75,-400.73 762.77,-402.38"/>
<polygon fill="midnightblue" stroke="midnightblue" points="482.31,-392.36 472.23,-395.62 482.15,-399.35 482.31,-392.36"/>
</g>
<!-- Node6 -->
<g id="node6" class="node">
<title>Node6</title>
<g id="a_node6"><a xlink:href="structadiar_1_1statistics_1_1select__t.html" target="_top" xlink:title="Select algorithm statistics.">
<polygon fill="none" stroke="black" points="1065,-322.5 1065,-352.5 1163,-352.5 1163,-322.5 1065,-322.5"/>
<text text-anchor="start" x="1073" y="-340.5" font-family="Helvetica,sans-Serif" font-size="10.00">adiar::statistics::</text>
<text text-anchor="middle" x="1114" y="-329.5" font-family="Helvetica,sans-Serif" font-size="10.00">select_t</text>
</a>
</g>
</g>
<!-- Node3&#45;&gt;Node6 -->
<g id="edge6" class="edge">
<title>Node3&#45;&gt;Node6</title>
<path fill="none" stroke="midnightblue" d="M482.2,-389.69C615.55,-378.65 941.19,-351.71 1064.55,-341.51"/>
<polygon fill="midnightblue" stroke="midnightblue" points="481.85,-386.2 472.18,-390.51 482.43,-393.18 481.85,-386.2"/>
</g>
<!-- Node8 -->
<g id="node8" class="node">
<title>Node8</title>
<g id="a_node8"><a xlink:href="structadiar_1_1statistics_1_1prod2__t.html" target="_top" xlink:title="2&#45;ary Product Construction algorithm statistics.">
<polygon fill="none" stroke="black" points="625.5,-274.5 625.5,-304.5 723.5,-304.5 723.5,-274.5 625.5,-274.5"/>
<text text-anchor="start" x="633.5" y="-292.5" font-family="Helvetica,sans-Serif" font-size="10.00">adiar::statistics::</text>
<text text-anchor="middle" x="674.5" y="-281.5" font-family="Helvetica,sans-Serif" font-size="10.00">prod2_t</text>
</a>
</g>
</g>
<!-- Node3&#45;&gt;Node8 -->
<g id="edge9" class="edge">
<title>Node3&#45;&gt;Node8</title>
<path fill="none" stroke="midnightblue" d="M482.22,-379.95C513.66,-371.16 552.73,-358.72 586,-343.5 609.86,-332.59 635.17,-316.4 652.4,-304.6"/>
<polygon fill="midnightblue" stroke="midnightblue" points="481.02,-376.65 472.3,-382.67 482.87,-383.4 481.02,-376.65"/>
</g>
<!-- Node13 -->
<g id="node13" class="node">
<title>Node13</title>
<g id="a_node13"><a xlink:href="structadiar_1_1statistics_1_1reduce__t.html" target="_top" xlink:title="Reduce algorithm statistics.">
<polygon fill="none" stroke="black" points="625.5,-600.5 625.5,-630.5 723.5,-630.5 723.5,-600.5 625.5,-600.5"/>
<text text-anchor="start" x="633.5" y="-618.5" font-family="Helvetica,sans-Serif" font-size="10.00">adiar::statistics::</text>
<text text-anchor="middle" x="674.5" y="-607.5" font-family="Helvetica,sans-Serif" font-size="10.00">reduce_t</text>
</a>
</g>
</g>
<!-- Node3&#45;&gt;Node13 -->
<g id="edge15" class="edge">
<title>Node3&#45;&gt;Node13</title>
<path fill="none" stroke="midnightblue" d="M431.24,-419.66C442.96,-456.04 469.49,-523.16 515,-561.5 546.35,-587.91 591.25,-601.61 625.26,-608.59"/>
<polygon fill="midnightblue" stroke="midnightblue" points="434.5,-418.36 428.2,-409.85 427.81,-420.43 434.5,-418.36"/>
</g>
<!-- Node19 -->
<g id="node19" class="node">
<title>Node19</title>
<g id="a_node19"><a xlink:href="structadiar_1_1statistics_1_1quantify__t.html" target="_top" xlink:title="Quantification algorithm statistics.">
<polygon fill="none" stroke="black" points="625.5,-198.5 625.5,-228.5 723.5,-228.5 723.5,-198.5 625.5,-198.5"/>
<text text-anchor="start" x="633.5" y="-216.5" font-family="Helvetica,sans-Serif" font-size="10.00">adiar::statistics::</text>
<text text-anchor="middle" x="674.5" y="-205.5" font-family="Helvetica,sans-Serif" font-size="10.00">quantify_t</text>
</a>
</g>
</g>
<!-- Node3&#45;&gt;Node19 -->
<g id="edge23" class="edge">
<title>Node3&#45;&gt;Node19</title>
<path fill="none" stroke="midnightblue" d="M461.31,-374.56C506.09,-350.41 576.39,-311.68 586,-301.5 598.28,-288.49 592.53,-279.23 604,-265.5 616.27,-250.81 633.47,-237.9 647.69,-228.62"/>
<polygon fill="midnightblue" stroke="midnightblue" points="459.6,-371.51 452.45,-379.33 462.91,-377.68 459.6,-371.51"/>
</g>
<!-- Node21 -->
<g id="node21" class="node">
<title>Node21</title>
<g id="a_node21"><a xlink:href="structadiar_1_1statistics_1_1prod3__t.html" target="_top" xlink:title="3&#45;ary Product Construction algorithm statistics.">
<polygon fill="none" stroke="black" points="763,-546.5 763,-576.5 861,-576.5 861,-546.5 763,-546.5"/>
<text text-anchor="start" x="771" y="-564.5" font-family="Helvetica,sans-Serif" font-size="10.00">adiar::statistics::</text>
<text text-anchor="middle" x="812" y="-553.5" font-family="Helvetica,sans-Serif" font-size="10.00">prod3_t</text>
</a>
</g>
</g>
<!-- Node3&#45;&gt;Node21 -->
<g id="edge28" class="edge">
<title>Node3&#45;&gt;Node21</title>
<path fill="none" stroke="midnightblue" d="M438.09,-418.44C453.73,-442.78 481.26,-479.66 515,-499.5 593.41,-545.61 701.26,-557.71 762.79,-560.71"/>
<polygon fill="midnightblue" stroke="midnightblue" points="440.96,-416.42 432.7,-409.79 435.02,-420.12 440.96,-416.42"/>
</g>
<!-- Node22 -->
<g id="node22" class="node">
<title>Node22</title>
<g id="a_node22"><a xlink:href="structadiar_1_1statistics_1_1optmin__t.html" target="_top" xlink:title="Boolean Optimization algorithm statistics.">
<polygon fill="none" stroke="black" points="1065,-470.5 1065,-500.5 1163,-500.5 1163,-470.5 1065,-470.5"/>
<text text-anchor="start" x="1073" y="-488.5" font-family="Helvetica,sans-Serif" font-size="10.00">adiar::statistics::</text>
<text text-anchor="middle" x="1114" y="-477.5" font-family="Helvetica,sans-Serif" font-size="10.00">optmin_t</text>
</a>
</g>
</g>
<!-- Node3&#45;&gt;Node22 -->
<g id="edge31" class="edge">
<title>Node3&#45;&gt;Node22</title>
<path fill="none" stroke="midnightblue" d="M467.44,-413.36C482.3,-419.23 499.17,-425.26 515,-429.5 553.68,-439.86 564.43,-437.4 604,-443.5 674.63,-454.39 691.89,-460.32 763,-467.5 870.45,-478.35 997.16,-482.81 1064.76,-484.52"/>
<polygon fill="midnightblue" stroke="midnightblue" points="468.58,-410.04 458,-409.54 465.96,-416.53 468.58,-410.04"/>
</g>
<!-- Node23 -->
<g id="node23" class="node">
<title>Node23</title>
<g id="a_node23"><a xlink:href="structadiar_1_1statistics_1_1equality__t.html" target="_top" xlink:title="Equality Checking algorithm statistics.">
<polygon fill="none" stroke="black" points="625.5,-47.5 625.5,-77.5 723.5,-77.5 723.5,-47.5 625.5,-47.5"/>
<text text-anchor="start" x="633.5" y="-65.5" font-family="Helvetica,sans-Serif" font-size="10.00">adiar::statistics::</text>
<text text-anchor="middle" x="674.5" y="-54.5" font-family="Helvetica,sans-Serif" font-size="10.00">equality_t</text>
</a>
</g>
</g>
<!-- Node3&#45;&gt;Node23 -->
<g id="edge33" class="edge">
<title>Node3&#45;&gt;Node23</title>
<path fill="none" stroke="midnightblue" d="M446.22,-372.08C462.13,-355.02 483.12,-330.3 497,-305.5 508.94,-284.16 498.08,-271.16 515,-253.5 538.47,-229.01 565.07,-252.2 586,-225.5 622.8,-178.55 567.95,-140.03 604,-92.5 609.48,-85.28 617.05,-79.77 625.2,-75.57"/>
<polygon fill="midnightblue" stroke="midnightblue" points="443.66,-369.7 439.31,-379.36 448.73,-374.52 443.66,-369.7"/>
</g>
<!-- Node26 -->
<g id="node26" class="node">
<title>Node26</title>
<g id="a_node26"><a xlink:href="structadiar_1_1statistics_1_1count__t.html" target="_top" xlink:title="Counting algorithm statistics.">
<polygon fill="none" stroke="black" points="763,-427.5 763,-457.5 861,-457.5 861,-427.5 763,-427.5"/>
<text text-anchor="start" x="771" y="-445.5" font-family="Helvetica,sans-Serif" font-size="10.00">adiar::statistics::</text>
<text text-anchor="middle" x="812" y="-434.5" font-family="Helvetica,sans-Serif" font-size="10.00">count_t</text>
</a>
</g>
</g>
<!-- Node3&#45;&gt;Node26 -->
<g id="edge37" class="edge">
<title>Node3&#45;&gt;Node26</title>
<path fill="none" stroke="midnightblue" d="M481.96,-406.05C492.91,-408.02 504.28,-409.94 515,-411.5 602.05,-424.17 704.23,-433.7 762.92,-438.66"/>
<polygon fill="midnightblue" stroke="midnightblue" points="482.52,-402.59 472.05,-404.22 481.25,-409.48 482.52,-402.59"/>
</g>
<!-- Node4 -->
<g id="node4" class="node">
<title>Node4</title>
<g id="a_node4"><a xlink:href="structadiar_1_1statistics_1_1____alg__base_1_1____lpq__t.html" target="_top" xlink:title="Type and usage of this algorithm&#39;s levelized priority queue.">
<polygon fill="none" stroke="black" points="183,-254.5 183,-284.5 294,-284.5 294,-254.5 183,-254.5"/>
<text text-anchor="start" x="191" y="-272.5" font-family="Helvetica,sans-Serif" font-size="10.00">adiar::statistics::</text>
<text text-anchor="middle" x="238.5" y="-261.5" font-family="Helvetica,sans-Serif" font-size="10.00">__alg_base::__lpq_t</text>
</a>
</g>
</g>
<!-- Node4&#45;&gt;Node3 -->
<g id="edge3" class="edge">
<title>Node4&#45;&gt;Node3</title>
<path fill="none" stroke="#9a32cd" stroke-dasharray="5,2" d="M269.84,-290.28C306.53,-315.41 367.39,-357.1 399.91,-379.37"/>
<polygon fill="#9a32cd" stroke="#9a32cd" points="271.74,-287.34 261.51,-284.58 267.79,-293.12 271.74,-287.34"/>
<text text-anchor="middle" x="321.5" y="-334.5" font-family="Helvetica,sans-Serif" font-size="10.00"> lpq</text>
</g>
<!-- Node5 -->
<g id="node5" class="node">
<title>Node5</title>
<g id="a_node5"><a xlink:href="structadiar_1_1statistics_1_1levelized__priority__queue__t.html" target="_top" xlink:title="Levelized Priority Queue statistics.">
<polygon fill="none" stroke="black" points="0,-109.5 0,-139.5 146,-139.5 146,-109.5 0,-109.5"/>
<text text-anchor="start" x="8" y="-127.5" font-family="Helvetica,sans-Serif" font-size="10.00">adiar::statistics::</text>
<text text-anchor="middle" x="73" y="-116.5" font-family="Helvetica,sans-Serif" font-size="10.00">levelized_priority_queue_t</text>
</a>
</g>
</g>
<!-- Node5&#45;&gt;Node1 -->
<g id="edge38" class="edge">
<title>Node5&#45;&gt;Node1</title>
<path fill="none" stroke="#9a32cd" stroke-dasharray="5,2" d="M156.53,-122.65C292.8,-119.76 573.42,-114.5 811,-114.5 811,-114.5 811,-114.5 1237,-114.5 1373.19,-114.5 1442.95,-321.94 1457.22,-369.75"/>
<polygon fill="#9a32cd" stroke="#9a32cd" points="156.1,-119.16 146.18,-122.87 156.25,-126.16 156.1,-119.16"/>
<text text-anchor="start" x="630.5" y="-130.5" font-family="Helvetica,sans-Serif" font-size="10.00"> levelized_priority</text>
<text text-anchor="middle" x="674.5" y="-119.5" font-family="Helvetica,sans-Serif" font-size="10.00">_queue</text>
</g>
<!-- Node5&#45;&gt;Node4 -->
<g id="edge4" class="edge">
<title>Node5&#45;&gt;Node4</title>
<path fill="none" stroke="midnightblue" d="M98.75,-146.45C132.36,-176.25 191.55,-228.75 220.54,-254.46"/>
<polygon fill="midnightblue" stroke="midnightblue" points="100.99,-143.76 91.19,-139.74 96.35,-149 100.99,-143.76"/>
</g>
<!-- Node6&#45;&gt;Node1 -->
<g id="edge5" class="edge">
<title>Node6&#45;&gt;Node1</title>
<path fill="none" stroke="#9a32cd" stroke-dasharray="5,2" d="M1172.95,-323.57C1175.66,-323.16 1178.35,-322.8 1181,-322.5 1229.58,-317.05 1242.76,-314.58 1291,-322.5 1346.15,-331.55 1407.55,-356.18 1438.96,-369.91"/>
<polygon fill="#9a32cd" stroke="#9a32cd" points="1172.35,-320.12 1163.09,-325.27 1173.54,-327.02 1172.35,-320.12"/>
<text text-anchor="middle" x="1236" y="-325.5" font-family="Helvetica,sans-Serif" font-size="10.00"> select</text>
</g>
<!-- Node7 -->
<g id="node7" class="node">
<title>Node7</title>
<g id="a_node7"><a xlink:href="structadiar_1_1statistics_1_1arc__file__t.html" target="_top" xlink:title="Arc Files statistics.">
<polygon fill="none" stroke="black" points="1187,-515.5 1187,-545.5 1285,-545.5 1285,-515.5 1187,-515.5"/>
<text text-anchor="start" x="1195" y="-533.5" font-family="Helvetica,sans-Serif" font-size="10.00">adiar::statistics::</text>
<text text-anchor="middle" x="1236" y="-522.5" font-family="Helvetica,sans-Serif" font-size="10.00">arc_file_t</text>
</a>
</g>
</g>
<!-- Node7&#45;&gt;Node1 -->
<g id="edge7" class="edge">
<title>Node7&#45;&gt;Node1</title>
<path fill="none" stroke="#9a32cd" stroke-dasharray="5,2" d="M1295.45,-531.19C1328.14,-528.82 1368.01,-521.06 1397,-499.5 1435.33,-471 1452.49,-412.24 1457.95,-389.14"/>
<polygon fill="#9a32cd" stroke="#9a32cd" points="1294.89,-527.72 1285.11,-531.78 1295.29,-534.7 1294.89,-527.72"/>
<text text-anchor="middle" x="1353" y="-532.5" font-family="Helvetica,sans-Serif" font-size="10.00"> arc_file</text>
</g>
<!-- Node8&#45;&gt;Node1 -->
<g id="edge8" class="edge">
<title>Node8&#45;&gt;Node1</title>
<path fill="none" stroke="#9a32cd" stroke-dasharray="5,2" d="M733.79,-290.09C825.27,-291.23 1008.11,-294.39 1163,-302.5 1219.98,-305.48 1234.13,-307.86 1291,-312.5 1338.12,-316.34 1353.72,-302.46 1397,-321.5 1421.22,-332.16 1442.22,-356.03 1452.76,-369.6"/>
<polygon fill="#9a32cd" stroke="#9a32cd" points="733.66,-286.59 723.62,-289.97 733.58,-293.59 733.66,-286.59"/>
<text text-anchor="middle" x="1114" y="-305.5" font-family="Helvetica,sans-Serif" font-size="10.00"> prod2</text>
</g>
<!-- Node9 -->
<g id="node9" class="node">
<title>Node9</title>
<g id="a_node9"><a xlink:href="structadiar_1_1statistics_1_1____random__access__base.html" target="_top" xlink:title="Common statistics for algorithms using random access.">
<polygon fill="none" stroke="black" points="357.5,-265.5 357.5,-295.5 488.5,-295.5 488.5,-265.5 357.5,-265.5"/>
<text text-anchor="start" x="365.5" y="-283.5" font-family="Helvetica,sans-Serif" font-size="10.00">adiar::statistics::</text>
<text text-anchor="middle" x="423" y="-272.5" font-family="Helvetica,sans-Serif" font-size="10.00">__random_access_base</text>
</a>
</g>
</g>
<!-- Node9&#45;&gt;Node8 -->
<g id="edge10" class="edge">
<title>Node9&#45;&gt;Node8</title>
<path fill="none" stroke="#9a32cd" stroke-dasharray="5,2" d="M499.03,-283.87C504.43,-284.09 509.8,-284.3 515,-284.5 552,-285.9 593.88,-287.21 625.29,-288.13"/>
<polygon fill="#9a32cd" stroke="#9a32cd" points="498.76,-280.36 488.62,-283.44 498.47,-287.35 498.76,-280.36"/>
<text text-anchor="middle" x="550.5" y="-289.5" font-family="Helvetica,sans-Serif" font-size="10.00"> ra</text>
</g>
<!-- Node9&#45;&gt;Node19 -->
<g id="edge24" class="edge">
<title>Node9&#45;&gt;Node19</title>
<path fill="none" stroke="#9a32cd" stroke-dasharray="5,2" d="M461.44,-260.97C477.56,-253.27 496.83,-244.98 515,-239.5 551.17,-228.59 593.46,-221.94 625.25,-218.11"/>
<polygon fill="#9a32cd" stroke="#9a32cd" points="459.81,-257.88 452.36,-265.41 462.88,-264.17 459.81,-257.88"/>
<text text-anchor="middle" x="550.5" y="-242.5" font-family="Helvetica,sans-Serif" font-size="10.00"> ra</text>
</g>
<!-- Node10 -->
<g id="node10" class="node">
<title>Node10</title>
<g id="a_node10"><a xlink:href="structadiar_1_1statistics_1_1____pq2__base.html" target="_top" xlink:title="Common statistics for algorithms using a second priority queue.">
<polygon fill="none" stroke="black" points="374,-203.5 374,-233.5 472,-233.5 472,-203.5 374,-203.5"/>
<text text-anchor="start" x="382" y="-221.5" font-family="Helvetica,sans-Serif" font-size="10.00">adiar::statistics::</text>
<text text-anchor="middle" x="423" y="-210.5" font-family="Helvetica,sans-Serif" font-size="10.00">__pq2_base</text>
</a>
</g>
</g>
<!-- Node10&#45;&gt;Node8 -->
<g id="edge11" class="edge">
<title>Node10&#45;&gt;Node8</title>
<path fill="none" stroke="#9a32cd" stroke-dasharray="5,2" d="M473.55,-236.9C486.92,-241.6 501.44,-246.46 515,-250.5 551.66,-261.43 593.73,-271.68 625.32,-278.92"/>
<polygon fill="#9a32cd" stroke="#9a32cd" points="474.64,-233.57 464.04,-233.52 472.29,-240.17 474.64,-233.57"/>
<text text-anchor="middle" x="550.5" y="-271.5" font-family="Helvetica,sans-Serif" font-size="10.00"> pq</text>
</g>
<!-- Node10&#45;&gt;Node19 -->
<g id="edge25" class="edge">
<title>Node10&#45;&gt;Node19</title>
<path fill="none" stroke="#9a32cd" stroke-dasharray="5,2" d="M461.23,-199.03C477.31,-191.67 496.62,-184.18 515,-180.5 545.94,-174.3 554.96,-174.84 586,-180.5 605.17,-183.99 625.59,-191.46 641.88,-198.41"/>
<polygon fill="#9a32cd" stroke="#9a32cd" points="459.71,-195.88 452.17,-203.32 462.71,-202.2 459.71,-195.88"/>
<text text-anchor="middle" x="550.5" y="-183.5" font-family="Helvetica,sans-Serif" font-size="10.00"> pq</text>
</g>
<!-- Node11 -->
<g id="node11" class="node">
<title>Node11</title>
<g id="a_node11"><a xlink:href="structadiar_1_1statistics_1_1nested__sweeping__t.html" target="_top" xlink:title="Nested Sweeping statistics.">
<polygon fill="none" stroke="black" points="1181,-658.5 1181,-688.5 1291,-688.5 1291,-658.5 1181,-658.5"/>
<text text-anchor="start" x="1189" y="-676.5" font-family="Helvetica,sans-Serif" font-size="10.00">adiar::statistics::</text>
<text text-anchor="middle" x="1236" y="-665.5" font-family="Helvetica,sans-Serif" font-size="10.00">nested_sweeping_t</text>
</a>
</g>
</g>
<!-- Node11&#45;&gt;Node1 -->
<g id="edge12" class="edge">
<title>Node11&#45;&gt;Node1</title>
<path fill="none" stroke="#9a32cd" stroke-dasharray="5,2" d="M1301.11,-669.47C1333.94,-664.12 1372.14,-652.28 1397,-626.5 1431.18,-591.07 1453.54,-430.64 1458.8,-389.26"/>
<polygon fill="#9a32cd" stroke="#9a32cd" points="1300.5,-666.02 1291.11,-670.93 1301.51,-672.95 1300.5,-666.02"/>
<text text-anchor="middle" x="1353" y="-670.5" font-family="Helvetica,sans-Serif" font-size="10.00"> nested_sweeping</text>
</g>
<!-- Node12 -->
<g id="node12" class="node">
<title>Node12</title>
<g id="a_node12"><a xlink:href="structadiar_1_1statistics_1_1nested__sweeping__t_1_1outer__up__t.html" target="_top" xlink:title="Outer Reduce Sweep.">
<polygon fill="none" stroke="black" points="879,-641.5 879,-671.5 1047,-671.5 1047,-641.5 879,-641.5"/>
<text text-anchor="start" x="887" y="-659.5" font-family="Helvetica,sans-Serif" font-size="10.00">adiar::statistics::</text>
<text text-anchor="middle" x="963" y="-648.5" font-family="Helvetica,sans-Serif" font-size="10.00">nested_sweeping_t::outer_up_t</text>
</a>
</g>
</g>
<!-- Node12&#45;&gt;Node11 -->
<g id="edge13" class="edge">
<title>Node12&#45;&gt;Node11</title>
<path fill="none" stroke="#9a32cd" stroke-dasharray="5,2" d="M1057.46,-661.96C1090.78,-663.95 1128.57,-666.27 1163,-668.5 1168.75,-668.87 1174.76,-669.27 1180.75,-669.68"/>
<polygon fill="#9a32cd" stroke="#9a32cd" points="1057.47,-658.45 1047.28,-661.35 1057.05,-665.44 1057.47,-658.45"/>
<text text-anchor="middle" x="1114" y="-671.5" font-family="Helvetica,sans-Serif" font-size="10.00"> outer_up</text>
</g>
<!-- Node13&#45;&gt;Node1 -->
<g id="edge29" class="edge">
<title>Node13&#45;&gt;Node1</title>
<path fill="none" stroke="#9a32cd" stroke-dasharray="5,2" d="M733.85,-619.79C887.07,-629.81 1295.96,-648.08 1397,-566.5 1454.04,-520.44 1459.74,-420.71 1460.08,-389.23"/>
<polygon fill="#9a32cd" stroke="#9a32cd" points="733.91,-616.29 723.7,-619.12 733.45,-623.27 733.91,-616.29"/>
<text text-anchor="middle" x="1114" y="-630.5" font-family="Helvetica,sans-Serif" font-size="10.00"> reduce</text>
</g>
<!-- Node13&#45;&gt;Node12 -->
<g id="edge14" class="edge">
<title>Node13&#45;&gt;Node12</title>
<path fill="none" stroke="midnightblue" d="M733.79,-623.84C775.57,-629.82 832.44,-637.96 878.96,-644.62"/>
<polygon fill="midnightblue" stroke="midnightblue" points="734.17,-620.36 723.78,-622.41 733.18,-627.29 734.17,-620.36"/>
</g>
<!-- Node14 -->
<g id="node14" class="node">
<title>Node14</title>
<g id="a_node14"><a xlink:href="structadiar_1_1statistics_1_1nested__sweeping__t_1_1inner__up__t.html" target="_top" xlink:title="Inner Up Sweep(s)">
<polygon fill="none" stroke="black" points="879.5,-690.5 879.5,-720.5 1046.5,-720.5 1046.5,-690.5 879.5,-690.5"/>
<text text-anchor="start" x="887.5" y="-708.5" font-family="Helvetica,sans-Serif" font-size="10.00">adiar::statistics::</text>
<text text-anchor="middle" x="963" y="-697.5" font-family="Helvetica,sans-Serif" font-size="10.00">nested_sweeping_t::inner_up_t</text>
</a>
</g>
</g>
<!-- Node13&#45;&gt;Node14 -->
<g id="edge17" class="edge">
<title>Node13&#45;&gt;Node14</title>
<path fill="none" stroke="midnightblue" d="M723.17,-634.29C736.03,-639.13 749.98,-644.19 763,-648.5 810.25,-664.15 864.62,-679.55 904.58,-690.39"/>
<polygon fill="midnightblue" stroke="midnightblue" points="724.18,-630.92 713.59,-630.64 721.69,-637.47 724.18,-630.92"/>
</g>
<!-- Node14&#45;&gt;Node11 -->
<g id="edge16" class="edge">
<title>Node14&#45;&gt;Node11</title>
<path fill="none" stroke="#9a32cd" stroke-dasharray="5,2" d="M1056.88,-694.53C1098.24,-689.65 1145.49,-684.07 1180.93,-679.88"/>
<polygon fill="#9a32cd" stroke="#9a32cd" points="1056.3,-691.08 1046.78,-695.73 1057.12,-698.03 1056.3,-691.08"/>
<text text-anchor="middle" x="1114" y="-695.5" font-family="Helvetica,sans-Serif" font-size="10.00"> inner_up</text>
</g>
<!-- Node15 -->
<g id="node15" class="node">
<title>Node15</title>
<g id="a_node15"><a xlink:href="structadiar_1_1statistics_1_1nested__sweeping__t_1_1inner__down__t.html" target="_top" xlink:title="Root Requests generated for Inner Down Sweep.">
<polygon fill="none" stroke="black" points="892.5,-740 892.5,-781 1033.5,-781 1033.5,-740 892.5,-740"/>
<text text-anchor="start" x="900.5" y="-769" font-family="Helvetica,sans-Serif" font-size="10.00">adiar::statistics::</text>
<text text-anchor="start" x="900.5" y="-758" font-family="Helvetica,sans-Serif" font-size="10.00">nested_sweeping_t::inner</text>
<text text-anchor="middle" x="963" y="-747" font-family="Helvetica,sans-Serif" font-size="10.00">_down_t</text>
</a>
</g>
</g>
<!-- Node15&#45;&gt;Node11 -->
<g id="edge18" class="edge">
<title>Node15&#45;&gt;Node11</title>
<path fill="none" stroke="#9a32cd" stroke-dasharray="5,2" d="M1043.74,-742.77C1080.53,-733.7 1124.48,-721.59 1163,-707.5 1177.54,-702.18 1193.14,-695.01 1206.09,-688.62"/>
<polygon fill="#9a32cd" stroke="#9a32cd" points="1042.45,-739.48 1033.56,-745.24 1044.11,-746.28 1042.45,-739.48"/>
<text text-anchor="middle" x="1114" y="-739.5" font-family="Helvetica,sans-Serif" font-size="10.00"> inner_down</text>
</g>
<!-- Node16 -->
<g id="node16" class="node">
<title>Node16</title>
<g id="a_node16"><a xlink:href="structadiar_1_1statistics_1_1nested__sweeping__t_1_1inner__down__t_1_1inputs__t.html" target="_top" xlink:title=" ">
<polygon fill="none" stroke="black" points="604,-748 604,-789 745,-789 745,-748 604,-748"/>
<text text-anchor="start" x="612" y="-777" font-family="Helvetica,sans-Serif" font-size="10.00">adiar::statistics::</text>
<text text-anchor="start" x="612" y="-766" font-family="Helvetica,sans-Serif" font-size="10.00">nested_sweeping_t::inner</text>
<text text-anchor="middle" x="674.5" y="-755" font-family="Helvetica,sans-Serif" font-size="10.00">_down_t::inputs_t</text>
</a>
</g>
</g>
<!-- Node16&#45;&gt;Node15 -->
<g id="edge19" class="edge">
<title>Node16&#45;&gt;Node15</title>
<path fill="none" stroke="#9a32cd" stroke-dasharray="5,2" d="M755.38,-766.27C798.45,-765.07 851.1,-763.6 892.46,-762.44"/>
<polygon fill="#9a32cd" stroke="#9a32cd" points="755.12,-762.78 745.22,-766.55 755.31,-769.77 755.12,-762.78"/>
<text text-anchor="middle" x="812" y="-768.5" font-family="Helvetica,sans-Serif" font-size="10.00"> inputs</text>
</g>
<!-- Node17 -->
<g id="node17" class="node">
<title>Node17</title>
<g id="a_node17"><a xlink:href="structadiar_1_1statistics_1_1nested__sweeping__t_1_1inner__down__t_1_1requests__t.html" target="_top" xlink:title=" ">
<polygon fill="none" stroke="black" points="604,-688 604,-729 745,-729 745,-688 604,-688"/>
<text text-anchor="start" x="612" y="-717" font-family="Helvetica,sans-Serif" font-size="10.00">adiar::statistics::</text>
<text text-anchor="start" x="612" y="-706" font-family="Helvetica,sans-Serif" font-size="10.00">nested_sweeping_t::inner</text>
<text text-anchor="middle" x="674.5" y="-695" font-family="Helvetica,sans-Serif" font-size="10.00">_down_t::requests_t</text>
</a>
</g>
</g>
<!-- Node17&#45;&gt;Node15 -->
<g id="edge20" class="edge">
<title>Node17&#45;&gt;Node15</title>
<path fill="none" stroke="#9a32cd" stroke-dasharray="5,2" d="M755.11,-722.95C798.23,-730.78 851.01,-740.36 892.46,-747.88"/>
<polygon fill="#9a32cd" stroke="#9a32cd" points="755.68,-719.5 745.22,-721.15 754.43,-726.38 755.68,-719.5"/>
<text text-anchor="middle" x="812" y="-743.5" font-family="Helvetica,sans-Serif" font-size="10.00"> requests</text>
</g>
<!-- Node18 -->
<g id="node18" class="node">
<title>Node18</title>
<g id="a_node18"><a xlink:href="structadiar_1_1statistics_1_1replace__t.html" target="_top" xlink:title="Variable replacement statistics.">
<polygon fill="none" stroke="black" points="1187,-342.5 1187,-372.5 1285,-372.5 1285,-342.5 1187,-342.5"/>
<text text-anchor="start" x="1195" y="-360.5" font-family="Helvetica,sans-Serif" font-size="10.00">adiar::statistics::</text>
<text text-anchor="middle" x="1236" y="-349.5" font-family="Helvetica,sans-Serif" font-size="10.00">replace_t</text>
</a>
</g>
</g>
<!-- Node18&#45;&gt;Node1 -->
<g id="edge21" class="edge">
<title>Node18&#45;&gt;Node1</title>
<path fill="none" stroke="#9a32cd" stroke-dasharray="5,2" d="M1295.33,-363.25C1332.59,-366.93 1380.2,-371.63 1414.64,-375.02"/>
<polygon fill="#9a32cd" stroke="#9a32cd" points="1295.41,-359.75 1285.11,-362.25 1294.72,-366.71 1295.41,-359.75"/>
<text text-anchor="middle" x="1353" y="-375.5" font-family="Helvetica,sans-Serif" font-size="10.00"> replace</text>
</g>
<!-- Node19&#45;&gt;Node1 -->
<g id="edge22" class="edge">
<title>Node19&#45;&gt;Node1</title>
<path fill="none" stroke="#9a32cd" stroke-dasharray="5,2" d="M733.75,-207.59C862.12,-197.3 1175.54,-187.38 1397,-306.5 1424.72,-321.41 1445.7,-353.79 1454.89,-369.94"/>
<polygon fill="#9a32cd" stroke="#9a32cd" points="733.41,-204.1 723.73,-208.42 733.99,-211.08 733.41,-204.1"/>
<text text-anchor="middle" x="1114" y="-229.5" font-family="Helvetica,sans-Serif" font-size="10.00"> quantify</text>
</g>
<!-- Node20 -->
<g id="node20" class="node">
<title>Node20</title>
<g id="a_node20"><a xlink:href="structadiar_1_1statistics_1_1quantify__t_1_1nested__policy__t.html" target="_top" xlink:title="Nested multi&#45;variable sweeping.">
<polygon fill="none" stroke="black" points="349,-141.5 349,-171.5 497,-171.5 497,-141.5 349,-141.5"/>
<text text-anchor="start" x="357" y="-159.5" font-family="Helvetica,sans-Serif" font-size="10.00">adiar::statistics::</text>
<text text-anchor="middle" x="423" y="-148.5" font-family="Helvetica,sans-Serif" font-size="10.00">quantify_t::nested_policy_t</text>
</a>
</g>
</g>
<!-- Node20&#45;&gt;Node19 -->
<g id="edge26" class="edge">
<title>Node20&#45;&gt;Node19</title>
<path fill="none" stroke="#9a32cd" stroke-dasharray="5,2" d="M507.46,-151.11C533.08,-151.56 561.08,-154.24 586,-161.5 611.79,-169.01 637.8,-185.94 654.68,-198.45"/>
<polygon fill="#9a32cd" stroke="#9a32cd" points="507.42,-147.61 497.39,-151.04 507.37,-154.61 507.42,-147.61"/>
<text text-anchor="middle" x="550.5" y="-164.5" font-family="Helvetica,sans-Serif" font-size="10.00"> nested_policy</text>
</g>
<!-- Node21&#45;&gt;Node1 -->
<g id="edge27" class="edge">
<title>Node21&#45;&gt;Node1</title>
<path fill="none" stroke="#9a32cd" stroke-dasharray="5,2" d="M871.13,-563.6C1010.66,-568.12 1356.04,-575.95 1397,-544.5 1448.32,-505.1 1457.84,-418.56 1459.6,-389.35"/>
<polygon fill="#9a32cd" stroke="#9a32cd" points="871.16,-560.1 861.05,-563.27 870.93,-567.1 871.16,-560.1"/>
<text text-anchor="middle" x="1114" y="-570.5" font-family="Helvetica,sans-Serif" font-size="10.00"> prod3</text>
</g>
<!-- Node22&#45;&gt;Node1 -->
<g id="edge30" class="edge">
<title>Node22&#45;&gt;Node1</title>
<path fill="none" stroke="#9a32cd" stroke-dasharray="5,2" d="M1173.03,-490.92C1232.74,-493.85 1326.7,-490.93 1397,-453.5 1425,-438.59 1445.85,-405.67 1454.95,-389.23"/>
<polygon fill="#9a32cd" stroke="#9a32cd" points="1173.21,-487.42 1163.02,-490.36 1172.81,-494.41 1173.21,-487.42"/>
<text text-anchor="middle" x="1236" y="-494.5" font-family="Helvetica,sans-Serif" font-size="10.00"> optmin</text>
</g>
<!-- Node23&#45;&gt;Node1 -->
<g id="edge32" class="edge">
<title>Node23&#45;&gt;Node1</title>
<path fill="none" stroke="#9a32cd" stroke-dasharray="5,2" d="M733.81,-61.61C896.51,-59.66 1346.83,-58.19 1397,-100.5 1439.7,-136.52 1456.01,-324.74 1459.33,-369.8"/>
<polygon fill="#9a32cd" stroke="#9a32cd" points="733.47,-58.11 723.51,-61.74 733.56,-65.11 733.47,-58.11"/>
<text text-anchor="middle" x="1114" y="-70.5" font-family="Helvetica,sans-Serif" font-size="10.00"> equality</text>
</g>
<!-- Node24 -->
<g id="node24" class="node">
<title>Node24</title>
<g id="a_node24"><a xlink:href="structadiar_1_1statistics_1_1equality__t_1_1fast__t.html" target="_top" xlink:title="Statistics from O(N) linear&#45;scan equality checking algorithm.">
<polygon fill="none" stroke="black" points="373.5,-49.5 373.5,-79.5 472.5,-79.5 472.5,-49.5 373.5,-49.5"/>
<text text-anchor="start" x="381.5" y="-67.5" font-family="Helvetica,sans-Serif" font-size="10.00">adiar::statistics::</text>
<text text-anchor="middle" x="423" y="-56.5" font-family="Helvetica,sans-Serif" font-size="10.00">equality_t::fast_t</text>
</a>
</g>
</g>
<!-- Node24&#45;&gt;Node23 -->
<g id="edge34" class="edge">
<title>Node24&#45;&gt;Node23</title>
<path fill="none" stroke="#9a32cd" stroke-dasharray="5,2" d="M482.84,-64.03C526.28,-63.68 584.68,-63.21 625.35,-62.89"/>
<polygon fill="#9a32cd" stroke="#9a32cd" points="482.67,-60.53 472.7,-64.11 482.73,-67.53 482.67,-60.53"/>
<text text-anchor="middle" x="550.5" y="-67.5" font-family="Helvetica,sans-Serif" font-size="10.00"> fast_check</text>
</g>
<!-- Node25 -->
<g id="node25" class="node">
<title>Node25</title>
<g id="a_node25"><a xlink:href="structadiar_1_1statistics_1_1equality__t_1_1slow__t.html" target="_top" xlink:title="Statistics from O(N log N) time&#45;forward processing equality checking algorithm.">
<polygon fill="none" stroke="black" points="371.5,-0.5 371.5,-30.5 474.5,-30.5 474.5,-0.5 371.5,-0.5"/>
<text text-anchor="start" x="379.5" y="-18.5" font-family="Helvetica,sans-Serif" font-size="10.00">adiar::statistics::</text>
<text text-anchor="middle" x="423" y="-7.5" font-family="Helvetica,sans-Serif" font-size="10.00">equality_t::slow_t</text>
</a>
</g>
</g>
<!-- Node25&#45;&gt;Node23 -->
<g id="edge35" class="edge">
<title>Node25&#45;&gt;Node23</title>
<path fill="none" stroke="#9a32cd" stroke-dasharray="5,2" d="M484.62,-26.92C527.86,-35.06 585.2,-45.87 625.32,-53.42"/>
<polygon fill="#9a32cd" stroke="#9a32cd" points="485.27,-23.48 474.79,-25.07 483.97,-30.36 485.27,-23.48"/>
<text text-anchor="middle" x="550.5" y="-49.5" font-family="Helvetica,sans-Serif" font-size="10.00"> slow_check</text>
</g>
<!-- Node26&#45;&gt;Node1 -->
<g id="edge36" class="edge">
<title>Node26&#45;&gt;Node1</title>
<path fill="none" stroke="#9a32cd" stroke-dasharray="5,2" d="M871.55,-444.28C977.65,-446.26 1208.22,-444.79 1397,-403.5 1411.64,-400.3 1427.39,-394.3 1439.48,-389.1"/>
<polygon fill="#9a32cd" stroke="#9a32cd" points="871.44,-440.78 861.37,-444.07 871.29,-447.78 871.44,-440.78"/>
<text text-anchor="middle" x="1114" y="-444.5" font-family="Helvetica,sans-Serif" font-size="10.00"> count</text>
</g>
<!-- Node27 -->
<g id="node27" class="node">
<title>Node27</title>
<g id="a_node27"><a xlink:href="structadiar_1_1statistics_1_1node__file__t.html" target="_top" xlink:title="Node Files statistics.">
<polygon fill="none" stroke="black" points="1187,-17.5 1187,-47.5 1285,-47.5 1285,-17.5 1187,-17.5"/>
<text text-anchor="start" x="1195" y="-35.5" font-family="Helvetica,sans-Serif" font-size="10.00">adiar::statistics::</text>
<text text-anchor="middle" x="1236" y="-24.5" font-family="Helvetica,sans-Serif" font-size="10.00">node_file_t</text>
</a>
</g>
</g>
<!-- Node27&#45;&gt;Node1 -->
<g id="edge39" class="edge">
<title>Node27&#45;&gt;Node1</title>
<path fill="none" stroke="#9a32cd" stroke-dasharray="5,2" d="M1295.39,-23.79C1329.22,-22.18 1370.28,-26.63 1397,-51.5 1445.28,-96.44 1457.5,-320.54 1459.63,-369.88"/>
<polygon fill="#9a32cd" stroke="#9a32cd" points="1294.89,-20.31 1285.15,-24.47 1295.36,-27.3 1294.89,-20.31"/>
<text text-anchor="middle" x="1353" y="-54.5" font-family="Helvetica,sans-Serif" font-size="10.00"> node_file</text>
</g>
</g>
</svg>
