<?xml version="1.0" encoding="UTF-8" standalone="no"?>
<!DOCTYPE svg PUBLIC "-//W3C//DTD SVG 1.1//EN"
 "http://www.w3.org/Graphics/SVG/1.1/DTD/svg11.dtd">
<!-- Generated by graphviz version 2.43.0 (0)
 -->
<!-- Title: adiar::stats_t Pages: 1 -->
<svg width="891pt" height="398pt"
 viewBox="0.00 0.00 891.00 397.50" xmlns="http://www.w3.org/2000/svg" xmlns:xlink="http://www.w3.org/1999/xlink">
<g id="graph0" class="graph" transform="scale(1 1) rotate(0) translate(4 393.5)">
<title>adiar::stats_t</title>
<!-- Node1 -->
<g id="node1" class="node">
<title>Node1</title>
<g id="a_node1"><a xlink:title="Available statistics from algorithm&#39;s and data structures.">
<polygon fill="#bfbfbf" stroke="black" points="803,-206 803,-225 883,-225 883,-206 803,-206"/>
<text text-anchor="middle" x="843" y="-213" font-family="Helvetica,sans-Serif" font-size="10.00">adiar::stats_t</text>
</a>
</g>
</g>
<!-- Node2 -->
<g id="node2" class="node">
<title>Node2</title>
<g id="a_node2"><a xlink:href="structadiar_1_1stats__t_1_1levelized__priority__queue__t.html" target="_top" xlink:title="Levelized Priority Queue statistics.">
<polygon fill="none" stroke="black" points="0,-330.5 0,-360.5 131,-360.5 131,-330.5 0,-330.5"/>
<text text-anchor="start" x="8" y="-348.5" font-family="Helvetica,sans-Serif" font-size="10.00">adiar::stats_t::levelized</text>
<text text-anchor="middle" x="65.5" y="-337.5" font-family="Helvetica,sans-Serif" font-size="10.00">_priority_queue_t</text>
</a>
</g>
</g>
<!-- Node2&#45;&gt;Node1 -->
<g id="edge1" class="edge">
<title>Node2&#45;&gt;Node1</title>
<path fill="none" stroke="#9a32cd" stroke-dasharray="5,2" d="M141.38,-360.35C167.14,-364.31 196.23,-367.5 223,-367.5 223,-367.5 223,-367.5 644,-367.5 709.14,-367.5 735,-369.25 785,-327.5 818.49,-299.53 834.44,-246.9 839.82,-225.22"/>
<polygon fill="#9a32cd" stroke="#9a32cd" points="141.74,-356.86 131.32,-358.74 140.64,-363.78 141.74,-356.86"/>
<text text-anchor="start" x="361" y="-381.5" font-family="Helvetica,sans-Serif" font-size="10.00"> levelized_priority</text>
<text text-anchor="middle" x="405" y="-370.5" font-family="Helvetica,sans-Serif" font-size="10.00">_queue</text>
</g>
<!-- Node5 -->
<g id="node5" class="node">
<title>Node5</title>
<g id="a_node5"><a xlink:href="structadiar_1_1stats__t_1_1____alg__base_1_1____lpq.html" target="_top" xlink:title="Type and usage of this algorithm&#39;s levelized priority queue.">
<polygon fill="none" stroke="black" points="168,-281.5 168,-311.5 280,-311.5 280,-281.5 168,-281.5"/>
<text text-anchor="start" x="176" y="-299.5" font-family="Helvetica,sans-Serif" font-size="10.00">adiar::stats_t::__alg</text>
<text text-anchor="middle" x="224" y="-288.5" font-family="Helvetica,sans-Serif" font-size="10.00">_base::__lpq</text>
</a>
</g>
</g>
<!-- Node2&#45;&gt;Node5 -->
<g id="edge5" class="edge">
<title>Node2&#45;&gt;Node5</title>
<path fill="none" stroke="midnightblue" d="M124.35,-327.39C140.99,-322.18 158.95,-316.55 174.93,-311.55"/>
<polygon fill="midnightblue" stroke="midnightblue" points="123.23,-324.07 114.73,-330.4 125.32,-330.75 123.23,-324.07"/>
</g>
<!-- Node3 -->
<g id="node3" class="node">
<title>Node3</title>
<g id="a_node3"><a xlink:href="structadiar_1_1stats__t_1_1intercut__t.html" target="_top" xlink:title="Intercut algorithm statistics.">
<polygon fill="none" stroke="black" points="576.5,-206 576.5,-225 709.5,-225 709.5,-206 576.5,-206"/>
<text text-anchor="middle" x="643" y="-213" font-family="Helvetica,sans-Serif" font-size="10.00">adiar::stats_t::intercut_t</text>
</a>
</g>
</g>
<!-- Node3&#45;&gt;Node1 -->
<g id="edge2" class="edge">
<title>Node3&#45;&gt;Node1</title>
<path fill="none" stroke="#9a32cd" stroke-dasharray="5,2" d="M719.93,-215.5C748.21,-215.5 779.14,-215.5 802.79,-215.5"/>
<polygon fill="#9a32cd" stroke="#9a32cd" points="719.66,-212 709.66,-215.5 719.66,-219 719.66,-212"/>
<text text-anchor="middle" x="759" y="-218.5" font-family="Helvetica,sans-Serif" font-size="10.00"> intercut</text>
</g>
<!-- Node4 -->
<g id="node4" class="node">
<title>Node4</title>
<g id="a_node4"><a xlink:href="structadiar_1_1stats__t_1_1____alg__base.html" target="_top" xlink:title="Common statistics for all algorithms.">
<polygon fill="none" stroke="black" points="335,-206 335,-225 475,-225 475,-206 335,-206"/>
<text text-anchor="middle" x="405" y="-213" font-family="Helvetica,sans-Serif" font-size="10.00">adiar::stats_t::__alg_base</text>
</a>
</g>
</g>
<!-- Node4&#45;&gt;Node3 -->
<g id="edge3" class="edge">
<title>Node4&#45;&gt;Node3</title>
<path fill="none" stroke="midnightblue" d="M485.51,-215.5C515.07,-215.5 548.26,-215.5 576.43,-215.5"/>
<polygon fill="midnightblue" stroke="midnightblue" points="485.21,-212 475.21,-215.5 485.21,-219 485.21,-212"/>
</g>
<!-- Node6 -->
<g id="node6" class="node">
<title>Node6</title>
<g id="a_node6"><a xlink:href="structadiar_1_1stats__t_1_1equality__t.html" target="_top" xlink:title="Equality Checking algorithm statistics.">
<polygon fill="none" stroke="black" points="575.5,-54 575.5,-73 710.5,-73 710.5,-54 575.5,-54"/>
<text text-anchor="middle" x="643" y="-61" font-family="Helvetica,sans-Serif" font-size="10.00">adiar::stats_t::equality_t</text>
</a>
</g>
</g>
<!-- Node4&#45;&gt;Node6 -->
<g id="edge7" class="edge">
<title>Node4&#45;&gt;Node6</title>
<path fill="none" stroke="midnightblue" d="M419.89,-197.95C436,-178.37 464.07,-146.53 493,-124.5 524.32,-100.64 534.4,-97.02 571,-82.5 580.13,-78.88 590.19,-75.71 599.8,-73.06"/>
<polygon fill="midnightblue" stroke="midnightblue" points="417.13,-195.8 413.55,-205.77 422.57,-200.2 417.13,-195.8"/>
</g>
<!-- Node9 -->
<g id="node9" class="node">
<title>Node9</title>
<g id="a_node9"><a xlink:href="structadiar_1_1stats__t_1_1quantify__t.html" target="_top" xlink:title="Quantification algorithm statistics.">
<polygon fill="none" stroke="black" points="575.5,-168 575.5,-187 710.5,-187 710.5,-168 575.5,-168"/>
<text text-anchor="middle" x="643" y="-175" font-family="Helvetica,sans-Serif" font-size="10.00">adiar::stats_t::quantify_t</text>
</a>
</g>
</g>
<!-- Node4&#45;&gt;Node9 -->
<g id="edge11" class="edge">
<title>Node4&#45;&gt;Node9</title>
<path fill="none" stroke="midnightblue" d="M475.15,-204.37C509.28,-198.87 550.04,-192.31 582.73,-187.04"/>
<polygon fill="midnightblue" stroke="midnightblue" points="474.56,-200.91 465.25,-205.96 475.68,-207.83 474.56,-200.91"/>
</g>
<!-- Node10 -->
<g id="node10" class="node">
<title>Node10</title>
<g id="a_node10"><a xlink:href="structadiar_1_1stats__t_1_1substitute__t.html" target="_top" xlink:title="Substitution algorithm statistics.">
<polygon fill="none" stroke="black" points="571,-130 571,-149 715,-149 715,-130 571,-130"/>
<text text-anchor="middle" x="643" y="-137" font-family="Helvetica,sans-Serif" font-size="10.00">adiar::stats_t::substitute_t</text>
</a>
</g>
</g>
<!-- Node4&#45;&gt;Node10 -->
<g id="edge13" class="edge">
<title>Node4&#45;&gt;Node10</title>
<path fill="none" stroke="midnightblue" d="M441.54,-202.4C474.79,-190.34 525.96,-172.29 571,-158.5 581.74,-155.21 593.48,-151.94 604.27,-149.06"/>
<polygon fill="midnightblue" stroke="midnightblue" points="440.02,-199.23 431.82,-205.94 442.41,-205.81 440.02,-199.23"/>
</g>
<!-- Node11 -->
<g id="node11" class="node">
<title>Node11</title>
<g id="a_node11"><a xlink:href="structadiar_1_1stats__t_1_1prod2__t.html" target="_top" xlink:title="2&#45;ary Product Construction algorithm statistics.">
<polygon fill="none" stroke="black" points="581.5,-92 581.5,-111 704.5,-111 704.5,-92 581.5,-92"/>
<text text-anchor="middle" x="643" y="-99" font-family="Helvetica,sans-Serif" font-size="10.00">adiar::stats_t::prod2_t</text>
</a>
</g>
</g>
<!-- Node4&#45;&gt;Node11 -->
<g id="edge15" class="edge">
<title>Node4&#45;&gt;Node11</title>
<path fill="none" stroke="midnightblue" d="M427.99,-199.85C458.61,-178.77 516.49,-141.5 571,-120.5 580.29,-116.92 590.51,-113.76 600.23,-111.09"/>
<polygon fill="midnightblue" stroke="midnightblue" points="425.6,-197.25 419.4,-205.84 429.6,-202.99 425.6,-197.25"/>
</g>
<!-- Node12 -->
<g id="node12" class="node">
<title>Node12</title>
<g id="a_node12"><a xlink:href="structadiar_1_1stats__t_1_1reduce__t.html" target="_top" xlink:title="Reduce algorithm statistics.">
<polygon fill="none" stroke="black" points="579,-320 579,-339 707,-339 707,-320 579,-320"/>
<text text-anchor="middle" x="643" y="-327" font-family="Helvetica,sans-Serif" font-size="10.00">adiar::stats_t::reduce_t</text>
</a>
</g>
</g>
<!-- Node4&#45;&gt;Node12 -->
<g id="edge17" class="edge">
<title>Node4&#45;&gt;Node12</title>
<path fill="none" stroke="midnightblue" d="M427.53,-231.04C457.98,-252.25 516.04,-289.98 571,-310.5 580.56,-314.07 591.08,-317.27 601.03,-319.97"/>
<polygon fill="midnightblue" stroke="midnightblue" points="429.54,-228.17 419.36,-225.27 425.51,-233.89 429.54,-228.17"/>
</g>
<!-- Node13 -->
<g id="node13" class="node">
<title>Node13</title>
<g id="a_node13"><a xlink:href="structadiar_1_1stats__t_1_1count__t.html" target="_top" xlink:title="Counting algorithm statistics.">
<polygon fill="none" stroke="black" points="582,-282 582,-301 704,-301 704,-282 582,-282"/>
<text text-anchor="middle" x="643" y="-289" font-family="Helvetica,sans-Serif" font-size="10.00">adiar::stats_t::count_t</text>
</a>
</g>
</g>
<!-- Node4&#45;&gt;Node13 -->
<g id="edge19" class="edge">
<title>Node4&#45;&gt;Node13</title>
<path fill="none" stroke="midnightblue" d="M439.38,-228.73C455.49,-234.98 475.16,-242.38 493,-248.5 527.31,-260.27 536.14,-262.48 571,-272.5 582.16,-275.71 594.36,-279.04 605.44,-281.99"/>
<polygon fill="midnightblue" stroke="midnightblue" points="440.44,-225.39 429.85,-225.02 437.9,-231.91 440.44,-225.39"/>
</g>
<!-- Node14 -->
<g id="node14" class="node">
<title>Node14</title>
<g id="a_node14"><a xlink:href="structadiar_1_1stats__t_1_1prod3__t.html" target="_top" xlink:title="3&#45;ary Product Construction algorithm statistics.">
<polygon fill="none" stroke="black" points="581.5,-244 581.5,-263 704.5,-263 704.5,-244 581.5,-244"/>
<text text-anchor="middle" x="643" y="-251" font-family="Helvetica,sans-Serif" font-size="10.00">adiar::stats_t::prod3_t</text>
</a>
</g>
</g>
<!-- Node4&#45;&gt;Node14 -->
<g id="edge21" class="edge">
<title>Node4&#45;&gt;Node14</title>
<path fill="none" stroke="midnightblue" d="M475.15,-226.63C509.28,-232.13 550.04,-238.69 582.73,-243.96"/>
<polygon fill="midnightblue" stroke="midnightblue" points="475.68,-223.17 465.25,-225.04 474.56,-230.09 475.68,-223.17"/>
</g>
<!-- Node5&#45;&gt;Node4 -->
<g id="edge4" class="edge">
<title>Node5&#45;&gt;Node4</title>
<path fill="none" stroke="#9a32cd" stroke-dasharray="5,2" d="M267.63,-277.21C304,-260.75 354.76,-237.78 382.97,-225.02"/>
<polygon fill="#9a32cd" stroke="#9a32cd" points="265.92,-274.14 258.25,-281.45 268.8,-280.52 265.92,-274.14"/>
<text text-anchor="middle" x="307.5" y="-266.5" font-family="Helvetica,sans-Serif" font-size="10.00"> lpq</text>
</g>
<!-- Node6&#45;&gt;Node1 -->
<g id="edge6" class="edge">
<title>Node6&#45;&gt;Node1</title>
<path fill="none" stroke="#9a32cd" stroke-dasharray="5,2" d="M720.54,-74.13C743.25,-80.31 766.87,-90.07 785,-105.5 817.6,-133.24 833.96,-184.32 839.63,-205.69"/>
<polygon fill="#9a32cd" stroke="#9a32cd" points="721.09,-70.66 710.54,-71.62 719.39,-77.45 721.09,-70.66"/>
<text text-anchor="middle" x="759" y="-108.5" font-family="Helvetica,sans-Serif" font-size="10.00"> equality</text>
</g>
<!-- Node7 -->
<g id="node7" class="node">
<title>Node7</title>
<g id="a_node7"><a xlink:href="structadiar_1_1stats__t_1_1equality__t_1_1slow__t.html" target="_top" xlink:title="Statistics from O(N log N) time&#45;forward processing equality checking algorithm.">
<polygon fill="none" stroke="black" points="342,-49.5 342,-79.5 468,-79.5 468,-49.5 342,-49.5"/>
<text text-anchor="start" x="350" y="-67.5" font-family="Helvetica,sans-Serif" font-size="10.00">adiar::stats_t::equality</text>
<text text-anchor="middle" x="405" y="-56.5" font-family="Helvetica,sans-Serif" font-size="10.00">_t::slow_t</text>
</a>
</g>
</g>
<!-- Node7&#45;&gt;Node6 -->
<g id="edge8" class="edge">
<title>Node7&#45;&gt;Node6</title>
<path fill="none" stroke="#9a32cd" stroke-dasharray="5,2" d="M478.3,-64.19C509.25,-64.06 545.16,-63.91 575.45,-63.78"/>
<polygon fill="#9a32cd" stroke="#9a32cd" points="477.99,-60.69 468.01,-64.24 478.02,-67.69 477.99,-60.69"/>
<text text-anchor="middle" x="523" y="-67.5" font-family="Helvetica,sans-Serif" font-size="10.00"> slow_check</text>
</g>
<!-- Node8 -->
<g id="node8" class="node">
<title>Node8</title>
<g id="a_node8"><a xlink:href="structadiar_1_1stats__t_1_1equality__t_1_1fast__t.html" target="_top" xlink:title="Statistics from O(N) linear&#45;scan equality checking algorithm.">
<polygon fill="none" stroke="black" points="342,-0.5 342,-30.5 468,-30.5 468,-0.5 342,-0.5"/>
<text text-anchor="start" x="350" y="-18.5" font-family="Helvetica,sans-Serif" font-size="10.00">adiar::stats_t::equality</text>
<text text-anchor="middle" x="405" y="-7.5" font-family="Helvetica,sans-Serif" font-size="10.00">_t::fast_t</text>
</a>
</g>
</g>
<!-- Node8&#45;&gt;Node6 -->
<g id="edge9" class="edge">
<title>Node8&#45;&gt;Node6</title>
<path fill="none" stroke="#9a32cd" stroke-dasharray="5,2" d="M477.99,-30.14C515.98,-37.87 561.51,-47.13 594.95,-53.93"/>
<polygon fill="#9a32cd" stroke="#9a32cd" points="478.5,-26.67 468.01,-28.11 477.11,-33.53 478.5,-26.67"/>
<text text-anchor="middle" x="523" y="-48.5" font-family="Helvetica,sans-Serif" font-size="10.00"> fast_check</text>
</g>
<!-- Node9&#45;&gt;Node1 -->
<g id="edge10" class="edge">
<title>Node9&#45;&gt;Node1</title>
<path fill="none" stroke="#9a32cd" stroke-dasharray="5,2" d="M720.71,-188.65C741.64,-192.06 764.26,-196.09 785,-200.5 792.41,-202.07 800.29,-203.99 807.77,-205.92"/>
<polygon fill="#9a32cd" stroke="#9a32cd" points="721.02,-185.15 710.59,-187.02 719.91,-192.06 721.02,-185.15"/>
<text text-anchor="middle" x="759" y="-203.5" font-family="Helvetica,sans-Serif" font-size="10.00"> quantify</text>
</g>
<!-- Node10&#45;&gt;Node1 -->
<g id="edge12" class="edge">
<title>Node10&#45;&gt;Node1</title>
<path fill="none" stroke="#9a32cd" stroke-dasharray="5,2" d="M707.74,-151.33C732.51,-157.18 760.72,-165.41 785,-176.5 802.02,-184.27 819.46,-197.05 830.49,-205.85"/>
<polygon fill="#9a32cd" stroke="#9a32cd" points="708.24,-147.86 697.71,-149.05 706.68,-154.68 708.24,-147.86"/>
<text text-anchor="middle" x="759" y="-179.5" font-family="Helvetica,sans-Serif" font-size="10.00"> substitute</text>
</g>
<!-- Node11&#45;&gt;Node1 -->
<g id="edge14" class="edge">
<title>Node11&#45;&gt;Node1</title>
<path fill="none" stroke="#9a32cd" stroke-dasharray="5,2" d="M713.79,-113.52C737.86,-119.97 764.02,-129.76 785,-144.5 808.8,-161.22 827.83,-190.58 836.66,-205.78"/>
<polygon fill="#9a32cd" stroke="#9a32cd" points="714.54,-110.1 703.98,-111.04 712.82,-116.88 714.54,-110.1"/>
<text text-anchor="middle" x="759" y="-147.5" font-family="Helvetica,sans-Serif" font-size="10.00"> prod2</text>
</g>
<!-- Node12&#45;&gt;Node1 -->
<g id="edge16" class="edge">
<title>Node12&#45;&gt;Node1</title>
<path fill="none" stroke="#9a32cd" stroke-dasharray="5,2" d="M716.01,-317.45C739.45,-311.17 764.66,-301.7 785,-287.5 809.06,-270.71 827.98,-240.86 836.72,-225.4"/>
<polygon fill="#9a32cd" stroke="#9a32cd" points="714.93,-314.12 706.09,-319.96 716.64,-320.9 714.93,-314.12"/>
<text text-anchor="middle" x="759" y="-315.5" font-family="Helvetica,sans-Serif" font-size="10.00"> reduce</text>
</g>
<!-- Node13&#45;&gt;Node1 -->
<g id="edge18" class="edge">
<title>Node13&#45;&gt;Node1</title>
<path fill="none" stroke="#9a32cd" stroke-dasharray="5,2" d="M707.74,-279.67C732.51,-273.82 760.72,-265.59 785,-254.5 802.02,-246.73 819.46,-233.95 830.49,-225.15"/>
<polygon fill="#9a32cd" stroke="#9a32cd" points="706.68,-276.32 697.71,-281.95 708.24,-283.14 706.68,-276.32"/>
<text text-anchor="middle" x="759" y="-275.5" font-family="Helvetica,sans-Serif" font-size="10.00"> count</text>
</g>
<!-- Node14&#45;&gt;Node1 -->
<g id="edge20" class="edge">
<title>Node14&#45;&gt;Node1</title>
<path fill="none" stroke="#9a32cd" stroke-dasharray="5,2" d="M714.72,-242.49C737.25,-238.71 762.23,-234.23 785,-229.5 791.49,-228.15 798.35,-226.59 804.99,-225"/>
<polygon fill="#9a32cd" stroke="#9a32cd" points="713.85,-239.09 704.56,-244.18 715,-245.99 713.85,-239.09"/>
<text text-anchor="middle" x="759" y="-242.5" font-family="Helvetica,sans-Serif" font-size="10.00"> prod3</text>
</g>
</g>
</svg>
