<?xml version="1.0" encoding="UTF-8" standalone="no"?>
<!DOCTYPE svg PUBLIC "-//W3C//DTD SVG 1.1//EN"
 "http://www.w3.org/Graphics/SVG/1.1/DTD/svg11.dtd">
<!-- Generated by graphviz version 2.43.0 (0)
 -->
<!-- Title: adiar::statistics Pages: 1 -->
<svg width="1443pt" height="665pt"
 viewBox="0.00 0.00 1443.00 664.50" xmlns="http://www.w3.org/2000/svg" xmlns:xlink="http://www.w3.org/1999/xlink">
<g id="graph0" class="graph" transform="scale(1 1) rotate(0) translate(4 660.5)">
<title>adiar::statistics</title>
<!-- Node1 -->
<g id="node1" class="node">
<title>Node1</title>
<g id="a_node1"><a xlink:title="Available statistics from algorithm&#39;s and data structures.">
<polygon fill="#bfbfbf" stroke="black" points="1343,-278 1343,-297 1435,-297 1435,-278 1343,-278"/>
<text text-anchor="middle" x="1389" y="-285" font-family="Helvetica,sans-Serif" font-size="10.00">adiar::statistics</text>
</a>
</g>
</g>
<!-- Node2 -->
<g id="node2" class="node">
<title>Node2</title>
<g id="a_node2"><a xlink:href="structadiar_1_1statistics_1_1intercut__t.html" target="_top" xlink:title="Intercut algorithm statistics.">
<polygon fill="none" stroke="black" points="708,-499.5 708,-529.5 806,-529.5 806,-499.5 708,-499.5"/>
<text text-anchor="start" x="716" y="-517.5" font-family="Helvetica,sans-Serif" font-size="10.00">adiar::statistics::</text>
<text text-anchor="middle" x="757" y="-506.5" font-family="Helvetica,sans-Serif" font-size="10.00">intercut_t</text>
</a>
</g>
</g>
<!-- Node2&#45;&gt;Node1 -->
<g id="edge1" class="edge">
<title>Node2&#45;&gt;Node1</title>
<path fill="none" stroke="#9a32cd" stroke-dasharray="5,2" d="M816.35,-521.83C927.98,-532.51 1174.09,-539.57 1325,-419.5 1365.73,-387.09 1381.63,-321.94 1386.35,-297.27"/>
<polygon fill="#9a32cd" stroke="#9a32cd" points="816.59,-518.33 806.29,-520.82 815.9,-525.3 816.59,-518.33"/>
<text text-anchor="middle" x="1042" y="-527.5" font-family="Helvetica,sans-Serif" font-size="10.00"> intercut</text>
</g>
<!-- Node3 -->
<g id="node3" class="node">
<title>Node3</title>
<g id="a_node3"><a xlink:href="structadiar_1_1statistics_1_1____alg__base.html" target="_top" xlink:title="Common statistics for all algorithms.">
<polygon fill="none" stroke="black" points="351.5,-295.5 351.5,-325.5 449.5,-325.5 449.5,-295.5 351.5,-295.5"/>
<text text-anchor="start" x="359.5" y="-313.5" font-family="Helvetica,sans-Serif" font-size="10.00">adiar::statistics::</text>
<text text-anchor="middle" x="400.5" y="-302.5" font-family="Helvetica,sans-Serif" font-size="10.00">__alg_base</text>
</a>
</g>
</g>
<!-- Node3&#45;&gt;Node2 -->
<g id="edge2" class="edge">
<title>Node3&#45;&gt;Node2</title>
<path fill="none" stroke="midnightblue" d="M402.77,-335.91C406.3,-376.64 419.64,-455.77 470,-493.5 539.23,-545.36 646.23,-536.5 707.84,-525.45"/>
<polygon fill="midnightblue" stroke="midnightblue" points="406.24,-335.46 402.02,-325.74 399.26,-335.97 406.24,-335.46"/>
</g>
<!-- Node6 -->
<g id="node6" class="node">
<title>Node6</title>
<g id="a_node6"><a xlink:href="structadiar_1_1statistics_1_1substitute__t.html" target="_top" xlink:title="Substitution algorithm statistics.">
<polygon fill="none" stroke="black" points="993,-431.5 993,-461.5 1091,-461.5 1091,-431.5 993,-431.5"/>
<text text-anchor="start" x="1001" y="-449.5" font-family="Helvetica,sans-Serif" font-size="10.00">adiar::statistics::</text>
<text text-anchor="middle" x="1042" y="-438.5" font-family="Helvetica,sans-Serif" font-size="10.00">substitute_t</text>
</a>
</g>
</g>
<!-- Node3&#45;&gt;Node6 -->
<g id="edge6" class="edge">
<title>Node3&#45;&gt;Node6</title>
<path fill="none" stroke="midnightblue" d="M415.93,-334.55C438.78,-369.99 487.02,-434.82 548,-460.5 627.11,-493.82 884.71,-466.36 992.69,-452.89"/>
<polygon fill="midnightblue" stroke="midnightblue" points="418.71,-332.4 410.42,-325.8 412.79,-336.13 418.71,-332.4"/>
</g>
<!-- Node8 -->
<g id="node8" class="node">
<title>Node8</title>
<g id="a_node8"><a xlink:href="structadiar_1_1statistics_1_1prod2__t.html" target="_top" xlink:title="2&#45;ary Product Construction algorithm statistics.">
<polygon fill="none" stroke="black" points="570,-164.5 570,-194.5 668,-194.5 668,-164.5 570,-164.5"/>
<text text-anchor="start" x="578" y="-182.5" font-family="Helvetica,sans-Serif" font-size="10.00">adiar::statistics::</text>
<text text-anchor="middle" x="619" y="-171.5" font-family="Helvetica,sans-Serif" font-size="10.00">prod2_t</text>
</a>
</g>
</g>
<!-- Node3&#45;&gt;Node8 -->
<g id="edge9" class="edge">
<title>Node3&#45;&gt;Node8</title>
<path fill="none" stroke="midnightblue" d="M421.41,-287.66C434.27,-273.89 451.93,-256.71 470,-244.5 479.82,-237.86 541.18,-211.66 581.74,-194.62"/>
<polygon fill="midnightblue" stroke="midnightblue" points="418.58,-285.57 414.43,-295.31 423.75,-290.29 418.58,-285.57"/>
</g>
<!-- Node13 -->
<g id="node13" class="node">
<title>Node13</title>
<g id="a_node13"><a xlink:href="structadiar_1_1statistics_1_1nested__sweeping__t_1_1inner__t_1_1down__t.html" target="_top" xlink:title="Inner Down Sweep.">
<polygon fill="none" stroke="black" points="548.5,-290 548.5,-331 689.5,-331 689.5,-290 548.5,-290"/>
<text text-anchor="start" x="556.5" y="-319" font-family="Helvetica,sans-Serif" font-size="10.00">adiar::statistics::</text>
<text text-anchor="start" x="556.5" y="-308" font-family="Helvetica,sans-Serif" font-size="10.00">nested_sweeping_t::inner</text>
<text text-anchor="middle" x="619" y="-297" font-family="Helvetica,sans-Serif" font-size="10.00">_t::down_t</text>
</a>
</g>
</g>
<!-- Node3&#45;&gt;Node13 -->
<g id="edge15" class="edge">
<title>Node3&#45;&gt;Node13</title>
<path fill="none" stroke="midnightblue" d="M459.72,-310.5C487,-310.5 519.72,-310.5 548.31,-310.5"/>
<polygon fill="midnightblue" stroke="midnightblue" points="459.55,-307 449.55,-310.5 459.55,-314 459.55,-307"/>
</g>
<!-- Node14 -->
<g id="node14" class="node">
<title>Node14</title>
<g id="a_node14"><a xlink:href="structadiar_1_1statistics_1_1nested__sweeping__t_1_1inner__t_1_1up__t.html" target="_top" xlink:title="Inner Up Sweep.">
<polygon fill="none" stroke="black" points="548.5,-350 548.5,-391 689.5,-391 689.5,-350 548.5,-350"/>
<text text-anchor="start" x="556.5" y="-379" font-family="Helvetica,sans-Serif" font-size="10.00">adiar::statistics::</text>
<text text-anchor="start" x="556.5" y="-368" font-family="Helvetica,sans-Serif" font-size="10.00">nested_sweeping_t::inner</text>
<text text-anchor="middle" x="619" y="-357" font-family="Helvetica,sans-Serif" font-size="10.00">_t::up_t</text>
</a>
</g>
</g>
<!-- Node3&#45;&gt;Node14 -->
<g id="edge17" class="edge">
<title>Node3&#45;&gt;Node14</title>
<path fill="none" stroke="midnightblue" d="M459.36,-326.53C486.71,-334.12 519.59,-343.23 548.31,-351.19"/>
<polygon fill="midnightblue" stroke="midnightblue" points="460.12,-323.11 449.55,-323.82 458.25,-329.86 460.12,-323.11"/>
</g>
<!-- Node17 -->
<g id="node17" class="node">
<title>Node17</title>
<g id="a_node17"><a xlink:href="structadiar_1_1statistics_1_1quantify__t.html" target="_top" xlink:title="Quantification algorithm statistics.">
<polygon fill="none" stroke="black" points="708,-248.5 708,-278.5 806,-278.5 806,-248.5 708,-248.5"/>
<text text-anchor="start" x="716" y="-266.5" font-family="Helvetica,sans-Serif" font-size="10.00">adiar::statistics::</text>
<text text-anchor="middle" x="757" y="-255.5" font-family="Helvetica,sans-Serif" font-size="10.00">quantify_t</text>
</a>
</g>
</g>
<!-- Node3&#45;&gt;Node17 -->
<g id="edge21" class="edge">
<title>Node3&#45;&gt;Node17</title>
<path fill="none" stroke="midnightblue" d="M459.72,-296.9C486.48,-291.08 518.71,-284.68 548,-280.5 602.52,-272.72 665.63,-268.18 707.9,-265.78"/>
<polygon fill="midnightblue" stroke="midnightblue" points="458.76,-293.53 449.74,-299.1 460.26,-300.36 458.76,-293.53"/>
</g>
<!-- Node18 -->
<g id="node18" class="node">
<title>Node18</title>
<g id="a_node18"><a xlink:href="structadiar_1_1statistics_1_1prod3__t.html" target="_top" xlink:title="3&#45;ary Product Construction algorithm statistics.">
<polygon fill="none" stroke="black" points="993,-210.5 993,-240.5 1091,-240.5 1091,-210.5 993,-210.5"/>
<text text-anchor="start" x="1001" y="-228.5" font-family="Helvetica,sans-Serif" font-size="10.00">adiar::statistics::</text>
<text text-anchor="middle" x="1042" y="-217.5" font-family="Helvetica,sans-Serif" font-size="10.00">prod3_t</text>
</a>
</g>
</g>
<!-- Node3&#45;&gt;Node18 -->
<g id="edge23" class="edge">
<title>Node3&#45;&gt;Node18</title>
<path fill="none" stroke="midnightblue" d="M440.51,-291.14C450,-286.91 460.24,-282.73 470,-279.5 503.68,-268.35 513.08,-268.81 548,-262.5 618.7,-249.73 636.46,-246.13 708,-239.5 809.12,-230.13 928.09,-227.03 992.92,-226"/>
<polygon fill="midnightblue" stroke="midnightblue" points="438.93,-288.01 431.3,-295.36 441.85,-294.38 438.93,-288.01"/>
</g>
<!-- Node19 -->
<g id="node19" class="node">
<title>Node19</title>
<g id="a_node19"><a xlink:href="structadiar_1_1statistics_1_1reduce__t.html" target="_top" xlink:title="Reduce algorithm statistics.">
<polygon fill="none" stroke="black" points="708,-582.5 708,-612.5 806,-612.5 806,-582.5 708,-582.5"/>
<text text-anchor="start" x="716" y="-600.5" font-family="Helvetica,sans-Serif" font-size="10.00">adiar::statistics::</text>
<text text-anchor="middle" x="757" y="-589.5" font-family="Helvetica,sans-Serif" font-size="10.00">reduce_t</text>
</a>
</g>
</g>
<!-- Node3&#45;&gt;Node19 -->
<g id="edge25" class="edge">
<title>Node3&#45;&gt;Node19</title>
<path fill="none" stroke="midnightblue" d="M404.54,-335.79C412.17,-394.83 434.15,-539 470,-569.5 536.4,-625.99 645.42,-618.41 707.93,-607.9"/>
<polygon fill="midnightblue" stroke="midnightblue" points="408,-335.29 403.28,-325.81 401.06,-336.17 408,-335.29"/>
</g>
<!-- Node20 -->
<g id="node20" class="node">
<title>Node20</title>
<g id="a_node20"><a xlink:href="structadiar_1_1statistics_1_1equality__t.html" target="_top" xlink:title="Equality Checking algorithm statistics.">
<polygon fill="none" stroke="black" points="570,-47.5 570,-77.5 668,-77.5 668,-47.5 570,-47.5"/>
<text text-anchor="start" x="578" y="-65.5" font-family="Helvetica,sans-Serif" font-size="10.00">adiar::statistics::</text>
<text text-anchor="middle" x="619" y="-54.5" font-family="Helvetica,sans-Serif" font-size="10.00">equality_t</text>
</a>
</g>
</g>
<!-- Node3&#45;&gt;Node20 -->
<g id="edge27" class="edge">
<title>Node3&#45;&gt;Node20</title>
<path fill="none" stroke="midnightblue" d="M414.89,-286.65C427.12,-266.61 446.79,-238.31 470,-219.5 492.86,-200.97 512.03,-214.8 530,-191.5 557.31,-156.09 520.13,-127.47 548,-92.5 553.77,-85.26 561.62,-79.74 569.97,-75.54"/>
<polygon fill="midnightblue" stroke="midnightblue" points="411.75,-285.09 409.66,-295.48 417.77,-288.66 411.75,-285.09"/>
</g>
<!-- Node23 -->
<g id="node23" class="node">
<title>Node23</title>
<g id="a_node23"><a xlink:href="structadiar_1_1statistics_1_1count__t.html" target="_top" xlink:title="Counting algorithm statistics.">
<polygon fill="none" stroke="black" points="850.5,-540.5 850.5,-570.5 948.5,-570.5 948.5,-540.5 850.5,-540.5"/>
<text text-anchor="start" x="858.5" y="-558.5" font-family="Helvetica,sans-Serif" font-size="10.00">adiar::statistics::</text>
<text text-anchor="middle" x="899.5" y="-547.5" font-family="Helvetica,sans-Serif" font-size="10.00">count_t</text>
</a>
</g>
</g>
<!-- Node3&#45;&gt;Node23 -->
<g id="edge31" class="edge">
<title>Node3&#45;&gt;Node23</title>
<path fill="none" stroke="midnightblue" d="M402.2,-335.74C404.83,-379.98 416.81,-471.56 470,-521.5 523.79,-572.01 750.16,-564.77 850.4,-558.87"/>
<polygon fill="midnightblue" stroke="midnightblue" points="405.68,-335.39 401.71,-325.57 398.69,-335.72 405.68,-335.39"/>
</g>
<!-- Node4 -->
<g id="node4" class="node">
<title>Node4</title>
<g id="a_node4"><a xlink:href="structadiar_1_1statistics_1_1____alg__base_1_1____lpq__t.html" target="_top" xlink:title="Type and usage of this algorithm&#39;s levelized priority queue.">
<polygon fill="none" stroke="black" points="183,-218.5 183,-248.5 294,-248.5 294,-218.5 183,-218.5"/>
<text text-anchor="start" x="191" y="-236.5" font-family="Helvetica,sans-Serif" font-size="10.00">adiar::statistics::</text>
<text text-anchor="middle" x="238.5" y="-225.5" font-family="Helvetica,sans-Serif" font-size="10.00">__alg_base::__lpq_t</text>
</a>
</g>
</g>
<!-- Node4&#45;&gt;Node3 -->
<g id="edge3" class="edge">
<title>Node4&#45;&gt;Node3</title>
<path fill="none" stroke="#9a32cd" stroke-dasharray="5,2" d="M280.02,-253C307.35,-266.15 342.89,-283.25 368.08,-295.38"/>
<polygon fill="#9a32cd" stroke="#9a32cd" points="281.26,-249.71 270.73,-248.53 278.22,-256.02 281.26,-249.71"/>
<text text-anchor="middle" x="321.5" y="-279.5" font-family="Helvetica,sans-Serif" font-size="10.00"> lpq</text>
</g>
<!-- Node5 -->
<g id="node5" class="node">
<title>Node5</title>
<g id="a_node5"><a xlink:href="structadiar_1_1statistics_1_1levelized__priority__queue__t.html" target="_top" xlink:title="Levelized Priority Queue statistics.">
<polygon fill="none" stroke="black" points="0,-109.5 0,-139.5 146,-139.5 146,-109.5 0,-109.5"/>
<text text-anchor="start" x="8" y="-127.5" font-family="Helvetica,sans-Serif" font-size="10.00">adiar::statistics::</text>
<text text-anchor="middle" x="73" y="-116.5" font-family="Helvetica,sans-Serif" font-size="10.00">levelized_priority_queue_t</text>
</a>
</g>
</g>
<!-- Node5&#45;&gt;Node1 -->
<g id="edge32" class="edge">
<title>Node5&#45;&gt;Node1</title>
<path fill="none" stroke="#9a32cd" stroke-dasharray="5,2" d="M156.3,-122.51C284.47,-119.6 539.54,-114.5 756,-114.5 756,-114.5 756,-114.5 1165,-114.5 1244.11,-114.5 1265.49,-140.37 1325,-192.5 1353.88,-217.8 1375.17,-259.31 1383.79,-277.93"/>
<polygon fill="#9a32cd" stroke="#9a32cd" points="156.09,-119.02 146.17,-122.75 156.25,-126.02 156.09,-119.02"/>
<text text-anchor="start" x="575" y="-130.5" font-family="Helvetica,sans-Serif" font-size="10.00"> levelized_priority</text>
<text text-anchor="middle" x="619" y="-119.5" font-family="Helvetica,sans-Serif" font-size="10.00">_queue</text>
</g>
<!-- Node5&#45;&gt;Node4 -->
<g id="edge4" class="edge">
<title>Node5&#45;&gt;Node4</title>
<path fill="none" stroke="midnightblue" d="M105.3,-145.37C137.39,-166.76 186.5,-199.5 214.96,-218.47"/>
<polygon fill="midnightblue" stroke="midnightblue" points="107,-142.29 96.73,-139.66 103.11,-148.12 107,-142.29"/>
</g>
<!-- Node6&#45;&gt;Node1 -->
<g id="edge5" class="edge">
<title>Node6&#45;&gt;Node1</title>
<path fill="none" stroke="#9a32cd" stroke-dasharray="5,2" d="M1058.45,-422.71C1070.36,-406.24 1088.27,-385.09 1109,-372.5 1193.67,-321.07 1231.84,-351.18 1325,-317.5 1340.72,-311.82 1357.8,-303.54 1370.2,-297.12"/>
<polygon fill="#9a32cd" stroke="#9a32cd" points="1055.32,-421.09 1052.48,-431.3 1061.06,-425.09 1055.32,-421.09"/>
<text text-anchor="middle" x="1164" y="-375.5" font-family="Helvetica,sans-Serif" font-size="10.00"> substitute</text>
</g>
<!-- Node7 -->
<g id="node7" class="node">
<title>Node7</title>
<g id="a_node7"><a xlink:href="structadiar_1_1statistics_1_1arc__file__t.html" target="_top" xlink:title="Arc Files statistics.">
<polygon fill="none" stroke="black" points="1115,-392.5 1115,-422.5 1213,-422.5 1213,-392.5 1115,-392.5"/>
<text text-anchor="start" x="1123" y="-410.5" font-family="Helvetica,sans-Serif" font-size="10.00">adiar::statistics::</text>
<text text-anchor="middle" x="1164" y="-399.5" font-family="Helvetica,sans-Serif" font-size="10.00">arc_file_t</text>
</a>
</g>
</g>
<!-- Node7&#45;&gt;Node1 -->
<g id="edge7" class="edge">
<title>Node7&#45;&gt;Node1</title>
<path fill="none" stroke="#9a32cd" stroke-dasharray="5,2" d="M1223.45,-406.61C1255.61,-403.68 1294.97,-395.88 1325,-376.5 1355.86,-356.59 1376.13,-315.74 1384.13,-297.13"/>
<polygon fill="#9a32cd" stroke="#9a32cd" points="1222.98,-403.14 1213.28,-407.4 1223.52,-410.12 1222.98,-403.14"/>
<text text-anchor="middle" x="1281" y="-407.5" font-family="Helvetica,sans-Serif" font-size="10.00"> arc_file</text>
</g>
<!-- Node8&#45;&gt;Node1 -->
<g id="edge8" class="edge">
<title>Node8&#45;&gt;Node1</title>
<path fill="none" stroke="#9a32cd" stroke-dasharray="5,2" d="M678.29,-169.39C804.03,-150.48 1107.01,-120.8 1325,-228.5 1348.91,-240.31 1370.03,-264.22 1380.68,-277.7"/>
<polygon fill="#9a32cd" stroke="#9a32cd" points="677.46,-165.97 668.11,-170.95 678.52,-172.89 677.46,-165.97"/>
<text text-anchor="middle" x="1042" y="-164.5" font-family="Helvetica,sans-Serif" font-size="10.00"> prod2</text>
</g>
<!-- Node9 -->
<g id="node9" class="node">
<title>Node9</title>
<g id="a_node9"><a xlink:href="structadiar_1_1statistics_1_1prod2__t_1_1ra__t.html" target="_top" xlink:title="Statistics for the double priority queue implementation.">
<polygon fill="none" stroke="black" points="351.5,-190.5 351.5,-220.5 449.5,-220.5 449.5,-190.5 351.5,-190.5"/>
<text text-anchor="start" x="359.5" y="-208.5" font-family="Helvetica,sans-Serif" font-size="10.00">adiar::statistics::</text>
<text text-anchor="middle" x="400.5" y="-197.5" font-family="Helvetica,sans-Serif" font-size="10.00">prod2_t::ra_t</text>
</a>
</g>
</g>
<!-- Node9&#45;&gt;Node8 -->
<g id="edge10" class="edge">
<title>Node9&#45;&gt;Node8</title>
<path fill="none" stroke="#9a32cd" stroke-dasharray="5,2" d="M459.48,-198.54C493.93,-194.4 537.12,-189.21 569.71,-185.3"/>
<polygon fill="#9a32cd" stroke="#9a32cd" points="459.06,-195.06 449.55,-199.73 459.89,-202.01 459.06,-195.06"/>
<text text-anchor="middle" x="500" y="-200.5" font-family="Helvetica,sans-Serif" font-size="10.00"> ra</text>
</g>
<!-- Node10 -->
<g id="node10" class="node">
<title>Node10</title>
<g id="a_node10"><a xlink:href="structadiar_1_1statistics_1_1prod2__t_1_1pq__t.html" target="_top" xlink:title="Statistics for the double priority queue implementation.">
<polygon fill="none" stroke="black" points="351.5,-141.5 351.5,-171.5 449.5,-171.5 449.5,-141.5 351.5,-141.5"/>
<text text-anchor="start" x="359.5" y="-159.5" font-family="Helvetica,sans-Serif" font-size="10.00">adiar::statistics::</text>
<text text-anchor="middle" x="400.5" y="-148.5" font-family="Helvetica,sans-Serif" font-size="10.00">prod2_t::pq_t</text>
</a>
</g>
</g>
<!-- Node10&#45;&gt;Node8 -->
<g id="edge11" class="edge">
<title>Node10&#45;&gt;Node8</title>
<path fill="none" stroke="#9a32cd" stroke-dasharray="5,2" d="M459.63,-145.69C481.78,-143.21 507.18,-142.36 530,-146.5 549.27,-149.99 569.81,-157.46 586.19,-164.41"/>
<polygon fill="#9a32cd" stroke="#9a32cd" points="459.19,-142.22 449.7,-146.93 460.06,-149.17 459.19,-142.22"/>
<text text-anchor="middle" x="500" y="-149.5" font-family="Helvetica,sans-Serif" font-size="10.00"> pq</text>
</g>
<!-- Node11 -->
<g id="node11" class="node">
<title>Node11</title>
<g id="a_node11"><a xlink:href="structadiar_1_1statistics_1_1nested__sweeping__t.html" target="_top" xlink:title="Nested Sweeping statistics.">
<polygon fill="none" stroke="black" points="1109,-295.5 1109,-325.5 1219,-325.5 1219,-295.5 1109,-295.5"/>
<text text-anchor="start" x="1117" y="-313.5" font-family="Helvetica,sans-Serif" font-size="10.00">adiar::statistics::</text>
<text text-anchor="middle" x="1164" y="-302.5" font-family="Helvetica,sans-Serif" font-size="10.00">nested_sweeping_t</text>
</a>
</g>
</g>
<!-- Node11&#45;&gt;Node1 -->
<g id="edge12" class="edge">
<title>Node11&#45;&gt;Node1</title>
<path fill="none" stroke="#9a32cd" stroke-dasharray="5,2" d="M1229.29,-303.87C1265.66,-300.12 1310.25,-295.52 1342.89,-292.15"/>
<polygon fill="#9a32cd" stroke="#9a32cd" points="1228.85,-300.4 1219.27,-304.9 1229.57,-307.36 1228.85,-300.4"/>
<text text-anchor="middle" x="1281" y="-305.5" font-family="Helvetica,sans-Serif" font-size="10.00"> nested_sweeping</text>
</g>
<!-- Node12 -->
<g id="node12" class="node">
<title>Node12</title>
<g id="a_node12"><a xlink:href="structadiar_1_1statistics_1_1nested__sweeping__t_1_1inner__t.html" target="_top" xlink:title="Inner Sweep(s)">
<polygon fill="none" stroke="black" points="824.5,-295.5 824.5,-325.5 974.5,-325.5 974.5,-295.5 824.5,-295.5"/>
<text text-anchor="start" x="832.5" y="-313.5" font-family="Helvetica,sans-Serif" font-size="10.00">adiar::statistics::</text>
<text text-anchor="middle" x="899.5" y="-302.5" font-family="Helvetica,sans-Serif" font-size="10.00">nested_sweeping_t::inner_t</text>
</a>
</g>
</g>
<!-- Node12&#45;&gt;Node11 -->
<g id="edge13" class="edge">
<title>Node12&#45;&gt;Node11</title>
<path fill="none" stroke="#9a32cd" stroke-dasharray="5,2" d="M984.83,-310.5C1025.4,-310.5 1072.87,-310.5 1108.6,-310.5"/>
<polygon fill="#9a32cd" stroke="#9a32cd" points="984.67,-307 974.67,-310.5 984.67,-314 984.67,-307"/>
<text text-anchor="middle" x="1042" y="-313.5" font-family="Helvetica,sans-Serif" font-size="10.00"> inner</text>
</g>
<!-- Node13&#45;&gt;Node12 -->
<g id="edge14" class="edge">
<title>Node13&#45;&gt;Node12</title>
<path fill="none" stroke="#9a32cd" stroke-dasharray="5,2" d="M699.63,-310.5C738.9,-310.5 785.98,-310.5 824.47,-310.5"/>
<polygon fill="#9a32cd" stroke="#9a32cd" points="699.56,-307 689.56,-310.5 699.56,-314 699.56,-307"/>
<text text-anchor="middle" x="757" y="-313.5" font-family="Helvetica,sans-Serif" font-size="10.00"> down</text>
</g>
<!-- Node14&#45;&gt;Node12 -->
<g id="edge16" class="edge">
<title>Node14&#45;&gt;Node12</title>
<path fill="none" stroke="#9a32cd" stroke-dasharray="5,2" d="M699.47,-353.38C740.29,-344.59 789.56,-333.97 828.86,-325.5"/>
<polygon fill="#9a32cd" stroke="#9a32cd" points="698.6,-349.99 689.56,-355.51 700.07,-356.83 698.6,-349.99"/>
<text text-anchor="middle" x="757" y="-353.5" font-family="Helvetica,sans-Serif" font-size="10.00"> up</text>
</g>
<!-- Node15 -->
<g id="node15" class="node">
<title>Node15</title>
<g id="a_node15"><a xlink:href="structadiar_1_1statistics_1_1nested__sweeping__t_1_1outer__t.html" target="_top" xlink:title="Outer Sweep(s)">
<polygon fill="none" stroke="black" points="824,-393.5 824,-423.5 975,-423.5 975,-393.5 824,-393.5"/>
<text text-anchor="start" x="832" y="-411.5" font-family="Helvetica,sans-Serif" font-size="10.00">adiar::statistics::</text>
<text text-anchor="middle" x="899.5" y="-400.5" font-family="Helvetica,sans-Serif" font-size="10.00">nested_sweeping_t::outer_t</text>
</a>
</g>
</g>
<!-- Node15&#45;&gt;Node11 -->
<g id="edge18" class="edge">
<title>Node15&#45;&gt;Node11</title>
<path fill="none" stroke="#9a32cd" stroke-dasharray="5,2" d="M950.57,-389.81C1000.5,-371.17 1076.25,-342.89 1122.51,-325.61"/>
<polygon fill="#9a32cd" stroke="#9a32cd" points="949.08,-386.63 940.94,-393.4 951.53,-393.18 949.08,-386.63"/>
<text text-anchor="middle" x="1042" y="-373.5" font-family="Helvetica,sans-Serif" font-size="10.00"> outer</text>
</g>
<!-- Node16 -->
<g id="node16" class="node">
<title>Node16</title>
<g id="a_node16"><a xlink:href="structadiar_1_1statistics_1_1nested__sweeping__t_1_1outer__t_1_1up__t.html" target="_top" xlink:title="Outer Up Sweep.">
<polygon fill="none" stroke="black" points="548,-410 548,-451 690,-451 690,-410 548,-410"/>
<text text-anchor="start" x="556" y="-439" font-family="Helvetica,sans-Serif" font-size="10.00">adiar::statistics::</text>
<text text-anchor="start" x="556" y="-428" font-family="Helvetica,sans-Serif" font-size="10.00">nested_sweeping_t::outer</text>
<text text-anchor="middle" x="619" y="-417" font-family="Helvetica,sans-Serif" font-size="10.00">_t::up_t</text>
</a>
</g>
</g>
<!-- Node16&#45;&gt;Node15 -->
<g id="edge19" class="edge">
<title>Node16&#45;&gt;Node15</title>
<path fill="none" stroke="#9a32cd" stroke-dasharray="5,2" d="M700.51,-424.14C739.4,-421.07 785.77,-417.41 823.86,-414.4"/>
<polygon fill="#9a32cd" stroke="#9a32cd" points="699.97,-420.67 690.28,-424.95 700.52,-427.65 699.97,-420.67"/>
<text text-anchor="middle" x="757" y="-425.5" font-family="Helvetica,sans-Serif" font-size="10.00"> up</text>
</g>
<!-- Node17&#45;&gt;Node1 -->
<g id="edge20" class="edge">
<title>Node17&#45;&gt;Node1</title>
<path fill="none" stroke="#9a32cd" stroke-dasharray="5,2" d="M816.23,-265.72C940.8,-270.46 1230.86,-281.51 1342.81,-285.78"/>
<polygon fill="#9a32cd" stroke="#9a32cd" points="816.25,-262.22 806.13,-265.33 815.99,-269.21 816.25,-262.22"/>
<text text-anchor="middle" x="1042" y="-278.5" font-family="Helvetica,sans-Serif" font-size="10.00"> quantify</text>
</g>
<!-- Node18&#45;&gt;Node1 -->
<g id="edge22" class="edge">
<title>Node18&#45;&gt;Node1</title>
<path fill="none" stroke="#9a32cd" stroke-dasharray="5,2" d="M1101.26,-223.56C1159.33,-223.3 1250.38,-227.49 1325,-251.5 1343.47,-257.44 1362.51,-269.26 1374.76,-277.74"/>
<polygon fill="#9a32cd" stroke="#9a32cd" points="1101.13,-220.06 1091.17,-223.65 1101.2,-227.06 1101.13,-220.06"/>
<text text-anchor="middle" x="1164" y="-232.5" font-family="Helvetica,sans-Serif" font-size="10.00"> prod3</text>
</g>
<!-- Node19&#45;&gt;Node1 -->
<g id="edge24" class="edge">
<title>Node19&#45;&gt;Node1</title>
<path fill="none" stroke="#9a32cd" stroke-dasharray="5,2" d="M816.17,-614.33C931.17,-643.65 1188.28,-688.87 1325,-553.5 1362.77,-516.1 1382.68,-340.49 1387.06,-297.18"/>
<polygon fill="#9a32cd" stroke="#9a32cd" points="816.71,-610.85 806.15,-611.72 814.95,-617.63 816.71,-610.85"/>
<text text-anchor="middle" x="1042" y="-648.5" font-family="Helvetica,sans-Serif" font-size="10.00"> reduce</text>
</g>
<!-- Node20&#45;&gt;Node1 -->
<g id="edge26" class="edge">
<title>Node20&#45;&gt;Node1</title>
<path fill="none" stroke="#9a32cd" stroke-dasharray="5,2" d="M678.17,-61.95C837.77,-60.95 1274.09,-61.81 1325,-100.5 1383.37,-144.86 1388.18,-245.73 1388.18,-277.63"/>
<polygon fill="#9a32cd" stroke="#9a32cd" points="678.04,-58.45 668.06,-62.02 678.08,-65.45 678.04,-58.45"/>
<text text-anchor="middle" x="1042" y="-71.5" font-family="Helvetica,sans-Serif" font-size="10.00"> equality</text>
</g>
<!-- Node21 -->
<g id="node21" class="node">
<title>Node21</title>
<g id="a_node21"><a xlink:href="structadiar_1_1statistics_1_1equality__t_1_1fast__t.html" target="_top" xlink:title="Statistics from O(N) linear&#45;scan equality checking algorithm.">
<polygon fill="none" stroke="black" points="351,-0.5 351,-30.5 450,-30.5 450,-0.5 351,-0.5"/>
<text text-anchor="start" x="359" y="-18.5" font-family="Helvetica,sans-Serif" font-size="10.00">adiar::statistics::</text>
<text text-anchor="middle" x="400.5" y="-7.5" font-family="Helvetica,sans-Serif" font-size="10.00">equality_t::fast_t</text>
</a>
</g>
</g>
<!-- Node21&#45;&gt;Node20 -->
<g id="edge28" class="edge">
<title>Node21&#45;&gt;Node20</title>
<path fill="none" stroke="#9a32cd" stroke-dasharray="5,2" d="M460.02,-28.2C494.47,-35.68 537.5,-45.02 569.95,-52.07"/>
<polygon fill="#9a32cd" stroke="#9a32cd" points="460.6,-24.75 450.09,-26.05 459.12,-31.59 460.6,-24.75"/>
<text text-anchor="middle" x="500" y="-46.5" font-family="Helvetica,sans-Serif" font-size="10.00"> fast_check</text>
</g>
<!-- Node22 -->
<g id="node22" class="node">
<title>Node22</title>
<g id="a_node22"><a xlink:href="structadiar_1_1statistics_1_1equality__t_1_1slow__t.html" target="_top" xlink:title="Statistics from O(N log N) time&#45;forward processing equality checking algorithm.">
<polygon fill="none" stroke="black" points="349,-49.5 349,-79.5 452,-79.5 452,-49.5 349,-49.5"/>
<text text-anchor="start" x="357" y="-67.5" font-family="Helvetica,sans-Serif" font-size="10.00">adiar::statistics::</text>
<text text-anchor="middle" x="400.5" y="-56.5" font-family="Helvetica,sans-Serif" font-size="10.00">equality_t::slow_t</text>
</a>
</g>
</g>
<!-- Node22&#45;&gt;Node20 -->
<g id="edge29" class="edge">
<title>Node22&#45;&gt;Node20</title>
<path fill="none" stroke="#9a32cd" stroke-dasharray="5,2" d="M462.53,-63.94C496.48,-63.62 538.14,-63.24 569.79,-62.95"/>
<polygon fill="#9a32cd" stroke="#9a32cd" points="462.23,-60.44 452.26,-64.03 462.29,-67.44 462.23,-60.44"/>
<text text-anchor="middle" x="500" y="-67.5" font-family="Helvetica,sans-Serif" font-size="10.00"> slow_check</text>
</g>
<!-- Node23&#45;&gt;Node1 -->
<g id="edge30" class="edge">
<title>Node23&#45;&gt;Node1</title>
<path fill="none" stroke="#9a32cd" stroke-dasharray="5,2" d="M959.07,-559.43C1062.28,-565.07 1270.8,-570.35 1325,-525.5 1361.63,-495.18 1382.18,-337.78 1386.93,-297.1"/>
<polygon fill="#9a32cd" stroke="#9a32cd" points="959,-555.92 948.82,-558.85 958.6,-562.91 959,-555.92"/>
<text text-anchor="middle" x="1164" y="-565.5" font-family="Helvetica,sans-Serif" font-size="10.00"> count</text>
</g>
<!-- Node24 -->
<g id="node24" class="node">
<title>Node24</title>
<g id="a_node24"><a xlink:href="structadiar_1_1statistics_1_1node__file__t.html" target="_top" xlink:title="Node Files statistics.">
<polygon fill="none" stroke="black" points="1115,-17.5 1115,-47.5 1213,-47.5 1213,-17.5 1115,-17.5"/>
<text text-anchor="start" x="1123" y="-35.5" font-family="Helvetica,sans-Serif" font-size="10.00">adiar::statistics::</text>
<text text-anchor="middle" x="1164" y="-24.5" font-family="Helvetica,sans-Serif" font-size="10.00">node_file_t</text>
</a>
</g>
</g>
<!-- Node24&#45;&gt;Node1 -->
<g id="edge33" class="edge">
<title>Node24&#45;&gt;Node1</title>
<path fill="none" stroke="#9a32cd" stroke-dasharray="5,2" d="M1223.47,-24.46C1256.94,-23.19 1297.6,-27.76 1325,-51.5 1360.57,-82.33 1381.83,-237.16 1386.84,-277.75"/>
<polygon fill="#9a32cd" stroke="#9a32cd" points="1223.12,-20.97 1213.33,-25.02 1223.51,-27.96 1223.12,-20.97"/>
<text text-anchor="middle" x="1281" y="-54.5" font-family="Helvetica,sans-Serif" font-size="10.00"> node_file</text>
</g>
</g>
</svg>
